<?xml version="1.0" encoding="UTF-8"?> <svg xmlns="http://www.w3.org/2000/svg" xmlns:xlink="http://www.w3.org/1999/xlink" viewBox="0 0 1920.54 1080"><defs><style>.cls-1{fill:#8d633a;}.cls-2{fill:#a6723d;}.cls-3{fill:#fbc35c;}.cls-4{fill:#754d25;}.cls-5{fill:#ffd88f;}.cls-6{fill:url(#linear-gradient);}.cls-7{fill:url(#linear-gradient-2);}.cls-8{fill:url(#linear-gradient-3);}.cls-9{fill:url(#linear-gradient-4);}.cls-10{fill:#694724;}.cls-11{fill:url(#linear-gradient-5);}.cls-12{fill:url(#linear-gradient-6);}.cls-13{fill:#c89f72;}.cls-14{fill:#cca67b;}.cls-15{fill:#c59b6c;}.cls-16{fill:url(#linear-gradient-7);}.cls-17{fill:#825625;}</style><linearGradient id="linear-gradient" x1="49.21" y1="167.89" x2="74.97" y2="167.89" gradientUnits="userSpaceOnUse"><stop offset="0" stop-color="#010101" stop-opacity="0.1"></stop><stop offset="1" stop-color="#010101" stop-opacity="0.1"></stop></linearGradient><linearGradient id="linear-gradient-2" x1="18475.55" y1="167.89" x2="18501.3" y2="167.89" gradientTransform="matrix(-1, 0, 0, 1, 18567.91, 0)" xlink:href="#linear-gradient"></linearGradient><linearGradient id="linear-gradient-3" y1="74.34" x2="141.57" y2="74.34" gradientUnits="userSpaceOnUse"><stop offset="0" stop-color="#010101" stop-opacity="0.05"></stop><stop offset="1" stop-color="#010101" stop-opacity="0.05"></stop></linearGradient><linearGradient id="linear-gradient-4" y1="16751.46" x2="141.57" y2="16751.46" gradientTransform="matrix(1, 0, 0, -1, 0, 16764.95)" gradientUnits="userSpaceOnUse"><stop offset="0" stop-color="#fff" stop-opacity="0.05"></stop><stop offset="1" stop-color="#fff" stop-opacity="0.05"></stop></linearGradient><linearGradient id="linear-gradient-5" x1="0" y1="171.76" x2="47.86" y2="171.76" gradientTransform="matrix(1, 0, 0, 1, 0, 0)" xlink:href="#linear-gradient-4"></linearGradient><linearGradient id="linear-gradient-6" x1="85.79" y1="171.76" x2="133.65" y2="171.76" xlink:href="#linear-gradient"></linearGradient><linearGradient id="linear-gradient-7" x1="960" y1="791.11" x2="960" y2="1080" gradientUnits="userSpaceOnUse"><stop offset="0" stop-color="#805627"></stop><stop offset="0.5" stop-color="#9c6932"></stop><stop offset="0.7" stop-color="#95642f"></stop><stop offset="0.99" stop-color="#805627"></stop><stop offset="1" stop-color="#805627"></stop></linearGradient><symbol id="prop_Mallet" data-name="prop_Mallet" viewBox="0 0 141.57 260.72"><rect class="cls-1" x="49.21" y="87.06" width="43.15" height="13.75" rx="6.88"></rect><path class="cls-2" d="M49.21,75.06H92.36a0,0,0,0,1,0,0v0a12,12,0,0,1-12,12H61.21a12,12,0,0,1-12-12v0A0,0,0,0,1,49.21,75.06Z"></path><rect class="cls-3" x="40.27" y="12.76" width="61.03" height="62.29"></rect><rect class="cls-1" x="111.96" y="14.52" width="8.58" height="58.79"></rect><rect class="cls-2" x="101.3" y="7.24" width="10.65" height="73.35" rx="5.14"></rect><polygon class="cls-1" points="21.03 14.52 29.62 14.52 29.62 73.3 21.03 73.3 21.03 14.52"></polygon><path class="cls-2" d="M34.76,7.24h.37a5.14,5.14,0,0,1,5.14,5.14V75.44a5.14,5.14,0,0,1-5.14,5.14h-.37a5.14,5.14,0,0,1-5.14-5.14V12.38A5.14,5.14,0,0,1,34.76,7.24Z"></path><rect class="cls-4" x="120.54" width="21.03" height="87.82" rx="10.52"></rect><path class="cls-4" d="M10.52,0h0A10.51,10.51,0,0,1,21,10.52V77.3A10.51,10.51,0,0,1,10.52,87.82h0A10.52,10.52,0,0,1,0,77.3V10.52A10.52,10.52,0,0,1,10.52,0Z"></path><rect class="cls-5" x="40.27" y="20.54" width="61.03" height="18.79"></rect><rect class="cls-5" x="40.27" y="46.54" width="61.03" height="6.29"></rect><rect class="cls-5" x="40.27" y="55.57" width="61.03" height="3.93"></rect><path class="cls-4" d="M60.18,100.81,54.25,243.48a16.55,16.55,0,0,0,16.54,17.24h0a16.56,16.56,0,0,0,16.54-17.24L81.39,100.81Z"></path><path class="cls-6" d="M62.61,243.48l5.93-142.67H64.45a6.88,6.88,0,1,1,0-13.75h5.12a12,12,0,0,1-12-12H49.21a12,12,0,0,0,12,12H56.09a6.88,6.88,0,1,0,0,13.75h4.09L54.25,243.48a16.55,16.55,0,0,0,16.54,17.24h0a17,17,0,0,0,4.18-.55A16.54,16.54,0,0,1,62.61,243.48Z"></path><path class="cls-7" d="M79,243.48,73,100.81h4.09a6.88,6.88,0,1,0,0-13.75H72a12,12,0,0,0,12-12h8.36a12,12,0,0,1-12,12h5.12a6.88,6.88,0,1,1,0,13.75H81.39l5.94,142.67a16.56,16.56,0,0,1-16.54,17.24h0a16.86,16.86,0,0,1-4.18-.55A16.56,16.56,0,0,0,79,243.48Z"></path><path class="cls-8" d="M131.06,75.37a10.52,10.52,0,0,1-10.52-10.52v-4H112V63a5.15,5.15,0,0,1-5.15,5.14h-.37A5.14,5.14,0,0,1,101.3,63v-.38h-61V63a5.14,5.14,0,0,1-5.14,5.14h-.37A5.14,5.14,0,0,1,29.62,63V60.85H21v4a10.52,10.52,0,1,1-21,0V77.3a10.52,10.52,0,1,0,21,0v-4h8.59v2.14a5.14,5.14,0,0,0,5.14,5.14h.37a5.14,5.14,0,0,0,5.14-5.14v-.38h61v.38a5.14,5.14,0,0,0,5.14,5.14h.37A5.15,5.15,0,0,0,112,75.44V73.3h8.58v4a10.52,10.52,0,1,0,21,0V64.85A10.52,10.52,0,0,1,131.06,75.37Z"></path><path class="cls-9" d="M101.3,12.38a5.14,5.14,0,0,1,5.14-5.14h.37A5.15,5.15,0,0,1,112,12.38v2.14h8.58v-4a10.52,10.52,0,1,1,21,0V23a10.52,10.52,0,1,0-21,0v4H112V24.83a5.15,5.15,0,0,0-5.15-5.14h-.37a5.14,5.14,0,0,0-5.14,5.14v.38h-61v-.38a5.14,5.14,0,0,0-5.14-5.14h-.37a5.14,5.14,0,0,0-5.14,5.14V27H21V23A10.52,10.52,0,1,0,0,23V10.52a10.52,10.52,0,1,1,21,0v4h8.59V12.38a5.14,5.14,0,0,1,5.14-5.14h.37a5.14,5.14,0,0,1,5.14,5.14v.38"></path></symbol><symbol id="prop_Mallet_Block" data-name="prop_Mallet_Block" viewBox="0 0 297.64 184.88"><path class="cls-2" d="M18.31,164.39h0a5.75,5.75,0,0,1,5.76-5.75h85.51a5.74,5.74,0,0,1,5.75,5.75h-97Z"></path><path class="cls-4" d="M4.81,177.72h0a13.33,13.33,0,0,1,13.33-13.33h97.37a13.33,13.33,0,0,1,13.33,13.33H4.81Z"></path><path class="cls-10" d="M0,184.88v-3a4.16,4.16,0,0,1,4.16-4.16H129.49a4.16,4.16,0,0,1,4.16,4.16v3Z"></path><path class="cls-11" d="M28,177.72h.64a13.33,13.33,0,0,1,13.34-13.33h.17a5.75,5.75,0,0,1,5.76-5.75H24.07a5.75,5.75,0,0,0-5.76,5.75h-.17A13.33,13.33,0,0,0,4.8,177.72H4.16A4.16,4.16,0,0,0,0,181.88v3H23.79v-3A4.16,4.16,0,0,1,28,177.72Z"></path><path class="cls-12" d="M105.7,177.72h-.65a13.33,13.33,0,0,0-13.33-13.33h-.18a5.74,5.74,0,0,0-5.75-5.75h23.79a5.74,5.74,0,0,1,5.75,5.75h.18a13.33,13.33,0,0,1,13.33,13.33h.65a4.16,4.16,0,0,1,4.16,4.16v3H109.86v-3A4.16,4.16,0,0,0,105.7,177.72Z"></path><use width="141.57" height="260.72" transform="translate(30.88 123.26) rotate(-63.63)" xlink:href="#prop_Mallet"></use></symbol></defs><g id="Layer_2" data-name="Layer 2"><g id="Backdrops"><rect class="cls-13" y="35.8" width="640" height="408.77"></rect><rect class="cls-13" width="1920" height="35.8"></rect><rect class="cls-14" x="56.47" y="92.27" width="527.06" height="295.83"></rect><rect class="cls-15" x="112.94" y="148.74" width="414.12" height="182.89"></rect><rect class="cls-13" x="640" y="35.8" width="640" height="408.77"></rect><rect class="cls-14" x="696.47" y="92.27" width="527.06" height="295.83"></rect><rect class="cls-15" x="752.94" y="148.74" width="414.12" height="182.89"></rect><rect class="cls-13" x="1280" y="35.8" width="640" height="408.77"></rect><rect class="cls-14" x="1336.47" y="92.27" width="527.06" height="295.83"></rect><rect class="cls-15" x="1392.94" y="148.74" width="414.12" height="182.89"></rect><rect class="cls-13" y="444.57" width="640" height="635.43"></rect><rect class="cls-14" x="56.47" y="501.04" width="527.06" height="522.49"></rect><rect class="cls-15" x="112.94" y="557.51" width="414.12" height="409.55"></rect><rect class="cls-13" x="640" y="444.57" width="640" height="635.43"></rect><rect class="cls-14" x="696.47" y="501.04" width="527.06" height="522.49"></rect><rect class="cls-15" x="752.94" y="557.51" width="414.12" height="409.55"></rect><rect class="cls-13" x="1280" y="444.57" width="640" height="635.43"></rect><rect class="cls-14" x="1336.47" y="501.04" width="527.06" height="522.49"></rect><rect class="cls-15" x="1392.94" y="557.51" width="414.12" height="409.55"></rect><rect class="cls-16" y="791.11" width="1920" height="288.89"></rect><path class="cls-17" d="M23.93,843.33c17.8.52,35.58,1.87,53.32,3.46s35.45,3.56,53.15,5.61l26.53,3.18,26.5,3.4q26.49,3.46,52.95,7.1c17.64,2.39,35.27,4.91,52.9,7.41L342.15,881l105.71,15q52.86,7.39,105.78,14.18t105.89,12.74C730.17,930.58,801,937,871.77,938.64c17.69.37,35.36.39,53-.12s35.2-1.52,52.61-3.46c4.36-.43,8.67-1,13-1.63l13.21-1.87c4.43-.62,8.85-1.29,13.27-1.88l13.28-1.75c17.71-2.31,35.43-4.37,53.16-6.37,70.93-7.81,142-13.52,213.09-18.26q53.32-3.49,106.68-6.41t106.72-5.1c17.79-.79,35.58-1.44,53.38-2.13l53.37-1.95,106.77-3.52c-17.74,1.62-35.49,2.95-53.25,4.33l-53.26,3.92-106.53,7.62q-53.27,3.74-106.49,7.85-53.24,3.95-106.41,8.41l-53.16,4.58-26.57,2.41-26.55,2.5q-53.1,5-106,11.14c-17.63,2.09-35.26,4.25-52.84,6.64L1019,945.37c-4.39.6-8.77,1.26-13.16,1.89l-13.22,1.9c-4.49.61-9,1.26-13.48,1.72-36,4-71.93,4.45-107.73,3.67-17.9-.41-35.77-1.17-53.62-2.17s-35.66-2.36-53.46-3.84c-35.59-2.92-71.08-6.7-106.49-10.9-70.84-8.4-141.36-18.73-211.74-29.76q-52.8-8.24-105.48-17L235.26,873.44q-26.32-4.38-52.68-8.63l-26.36-4.17-26.38-4.1q-26.39-4-52.84-7.49C59.36,846.71,41.68,844.72,23.93,843.33Z"></path><path class="cls-17" d="M74.46,947.82l28.15-1.13c9.39-.38,18.78-.62,28.18-.93,18.78-.5,37.58-.81,56.39-.76,37.62,0,75.25,1.87,112.76,4.81,9.39.64,18.75,1.55,28.11,2.41s18.74,1.7,28.08,2.71l28.06,2.9,28,3.14c37.36,4.19,74.64,8.91,111.93,13.54l55.92,7.09,55.88,7.28,111.73,14.65c74.18,9.48,149.13,12.92,224,12.67,74.93-.07,149.86-3.85,224.62-9.79q56.09-4.38,112-10.4,28-3,55.93-6.28t55.89-6.76c37.24-4.67,74.43-9.8,111.63-15s74.35-10.62,111.53-16l55.79-8c18.61-2.61,37.22-5.22,55.87-7.56s37.33-4.56,56.07-6.18c9.37-.78,18.76-1.42,28.17-1.64,4.71-.1,9.42-.1,14.12.13a64.15,64.15,0,0,1,13.94,2,64.2,64.2,0,0,0-14-1.46c-4.69-.07-9.37.09-14,.36-9.37.54-18.7,1.51-28,2.6-18.63,2.19-37.2,4.95-55.75,7.84-37.09,5.83-74.13,12.09-111.17,18.36s-74.13,12.31-111.25,18.22-74.31,11.41-111.55,16.65q-27.93,3.91-55.9,7.55t-56,6.8q-56.06,6.43-112.3,11.36t-112.67,7.54c-37.61,1.79-75.27,2.87-113,3s-75.37-.89-113-3S783.44,1021.1,746,1016L522.78,984.79,467,977.08l-27.92-3.75-13.95-1.9-14-1.83-27.92-3.67-27.94-3.43c-9.31-1.19-18.63-2.2-28-3.23l-14-1.56c-4.66-.54-9.33-.93-14-1.42q-28-2.91-56.05-4.84t-56.2-2.78c-18.75-.61-37.52-.83-56.3-.91-9.39,0-18.78-.09-28.17,0Z"></path><path class="cls-17" d="M1919.46,986.75c-28.79-2.57-58-2.41-87-.76s-58.13,4.93-87,9.29-57.62,9.86-86,16.62c-14.2,3.39-28.35,7.08-42.24,11.38-3.45,1.08-7.08,2.14-10.61,3.21s-7.15,1.94-10.72,2.92L1585,1032l-10.81,2.38c-28.9,6-58.07,10-87.28,13.36s-58.5,5.64-87.82,7.47-58.64,3.12-88,4-58.7,1.19-88,1c29.34-.31,58.67-1.26,88-2.62s58.59-3.22,87.81-5.61,58.41-5.35,87.46-9.12,58-8.45,86.45-14.91l10.63-2.55,10.57-2.78c3.48-1,7-2,10.46-3s6.86-2.19,10.39-3.36c14.06-4.65,28.26-8.64,42.53-12.33,28.55-7.36,57.41-13.41,86.46-18.4s58.35-8.79,87.82-11.06,59.16-3,88.89-.89Z"></path><ellipse class="cls-17" cx="436.94" cy="1041.26" rx="28.48" ry="9.41"></ellipse><path class="cls-17" d="M0,1027c1.68,0,3.3.06,5,0s3.45-.06,5.24-.18c3.52-.15,7.1-.4,10.68-.64,7.19-.55,14.42-1.18,21.67-1.84l43.61-4.1c29.14-2.66,58.35-5,87.61-6.37q21.94-1.05,43.92-1.39t43.93.4c14.63.45,29.25,1.31,43.82,2.67s29.07,3.18,43.46,5.65c-14.5-1.7-29.06-2.75-43.62-3.32s-29.13-.67-43.69-.33-29.1,1-43.62,1.93-29,2.23-43.5,3.69c-29,2.92-57.82,6.78-86.66,11l-43.33,6.42c-7.25,1-14.52,2.08-21.85,3-3.68.45-7.37.9-11.12,1.27-1.85.21-3.79.33-5.69.5s-3.94.21-5.9.31Z"></path><path class="cls-17" d="M480.76,1041.26a5.4,5.4,0,0,1-.86,2.89,10.12,10.12,0,0,1-2,2.29,22.1,22.1,0,0,1-5.16,3.22,58.24,58.24,0,0,1-11.57,3.86,118.17,118.17,0,0,1-24.24,2.89,115,115,0,0,1-24.46-2,57.21,57.21,0,0,1-11.88-3.67,23.34,23.34,0,0,1-5.47-3.37,11.62,11.62,0,0,1-2.28-2.58,6.87,6.87,0,0,1-1.07-3.57,6.78,6.78,0,0,1,1.07-3.57,11.84,11.84,0,0,1,2.27-2.58,24,24,0,0,1,5.48-3.37,56.61,56.61,0,0,1,11.88-3.67,114.32,114.32,0,0,1,24.46-2,117.49,117.49,0,0,1,24.24,2.9,58,58,0,0,1,11.57,3.85,22.78,22.78,0,0,1,5.16,3.22,10.57,10.57,0,0,1,2,2.29A5.42,5.42,0,0,1,480.76,1041.26Zm0,0a5.41,5.41,0,0,0-.88-2.87,10.6,10.6,0,0,0-2-2.27,22.09,22.09,0,0,0-5.17-3.17,55.85,55.85,0,0,0-11.6-3.58,113.89,113.89,0,0,0-24.16-1.92,116.6,116.6,0,0,0-24,2.86,57,57,0,0,0-11.28,3.76,21.09,21.09,0,0,0-4.85,3c-1.38,1.2-2.43,2.69-2.4,4.17s1,3,2.4,4.18a20.88,20.88,0,0,0,4.85,3,56.82,56.82,0,0,0,11.28,3.76,115.92,115.92,0,0,0,24,2.86,113.89,113.89,0,0,0,24.16-1.92,55.28,55.28,0,0,0,11.6-3.59,22.09,22.09,0,0,0,5.17-3.17,10.31,10.31,0,0,0,2-2.26A5.47,5.47,0,0,0,480.76,1041.26Z"></path><ellipse class="cls-17" cx="39.74" cy="963.92" rx="16.38" ry="5.41"></ellipse><path class="cls-17" d="M65,963.92a4.15,4.15,0,0,1-1.63,3,12.89,12.89,0,0,1-3,1.86,34.49,34.49,0,0,1-6.64,2.28,69.05,69.05,0,0,1-14,1.87A66.24,66.24,0,0,1,25.57,972a32.2,32.2,0,0,1-6.95-2.09,14.05,14.05,0,0,1-3.29-2,7.44,7.44,0,0,1-1.42-1.61,4.58,4.58,0,0,1-.71-2.35,4.42,4.42,0,0,1,.71-2.34A7.27,7.27,0,0,1,15.33,960a14.05,14.05,0,0,1,3.29-2,32.63,32.63,0,0,1,7-2.1,65.59,65.59,0,0,1,14.17-.93,69,69,0,0,1,14,1.87,34.49,34.49,0,0,1,6.64,2.28,12.89,12.89,0,0,1,3,1.86A4.15,4.15,0,0,1,65,963.92Zm0,0A4.08,4.08,0,0,0,63.28,961a13.27,13.27,0,0,0-3-1.81,31.15,31.15,0,0,0-6.68-2,64.69,64.69,0,0,0-13.89-.9,67.75,67.75,0,0,0-13.67,1.84,33.21,33.21,0,0,0-6.37,2.18,11.47,11.47,0,0,0-2.65,1.66,2.25,2.25,0,0,0,0,4,11.5,11.5,0,0,0,2.65,1.67,33.21,33.21,0,0,0,6.37,2.18,67,67,0,0,0,13.67,1.84,64.69,64.69,0,0,0,13.89-.9,31.75,31.75,0,0,0,6.68-2,12.57,12.57,0,0,0,3-1.81A4.08,4.08,0,0,0,65,963.92Z"></path><ellipse class="cls-17" cx="852.37" cy="887.41" rx="48.65" ry="16.08"></ellipse><path class="cls-17" d="M930.22,887.41a9.76,9.76,0,0,1-1.52,5.13,18.62,18.62,0,0,1-3.55,4.07,39.36,39.36,0,0,1-9.16,5.73,104.41,104.41,0,0,1-20.54,6.88,190.67,190.67,0,0,1-21.38,3.7c-7.2.86-14.44,1.35-21.7,1.54a198.82,198.82,0,0,1-43.49-3.37,101.15,101.15,0,0,1-21.16-6.52,42,42,0,0,1-9.8-6,20.54,20.54,0,0,1-4.1-4.65,11.77,11.77,0,0,1,0-13,21.26,21.26,0,0,1,4.1-4.65,42.07,42.07,0,0,1,9.81-6,100.82,100.82,0,0,1,21.16-6.53,198.82,198.82,0,0,1,43.49-3.37c7.26.2,14.5.68,21.7,1.55a186.8,186.8,0,0,1,21.39,3.71A103.85,103.85,0,0,1,916,872.47a39.7,39.7,0,0,1,9.16,5.73,18.44,18.44,0,0,1,3.55,4.08A9.73,9.73,0,0,1,930.22,887.41Zm0,0a9.77,9.77,0,0,0-1.56-5.11,18.27,18.27,0,0,0-3.58-4,39.07,39.07,0,0,0-9.18-5.62,98.27,98.27,0,0,0-20.61-6.33A196.21,196.21,0,0,0,852.37,863c-7.17.19-14.33.68-21.43,1.53a185.9,185.9,0,0,0-21.07,3.66,101.3,101.3,0,0,0-20,6.68,36.67,36.67,0,0,0-8.54,5.33,15.63,15.63,0,0,0-3,3.45,6.73,6.73,0,0,0,0,7.48,15.63,15.63,0,0,0,3,3.45,37,37,0,0,0,8.55,5.33,101.23,101.23,0,0,0,20,6.69,183.85,183.85,0,0,0,21.08,3.65c7.1.86,14.26,1.34,21.43,1.54a196.93,196.93,0,0,0,42.93-3.32,98.19,98.19,0,0,0,20.6-6.33,39.11,39.11,0,0,0,9.18-5.63,18,18,0,0,0,3.58-4A9.73,9.73,0,0,0,930.22,887.41Z"></path><ellipse class="cls-17" cx="1836.23" cy="1030.81" rx="26.12" ry="8.63"></ellipse><path class="cls-17" d="M1878,1030.81a5.26,5.26,0,0,1-.82,2.75,10,10,0,0,1-1.9,2.19,20.92,20.92,0,0,1-4.92,3.07,55,55,0,0,1-11,3.68,112.17,112.17,0,0,1-23.12,2.79,110.18,110.18,0,0,1-23.32-1.85,54.42,54.42,0,0,1-11.34-3.5,22.77,22.77,0,0,1-5.24-3.22,11.1,11.1,0,0,1-2.18-2.47,6.56,6.56,0,0,1-1-3.44,6.46,6.46,0,0,1,1-3.43,11.15,11.15,0,0,1,2.18-2.48,22.56,22.56,0,0,1,5.24-3.22,53.65,53.65,0,0,1,11.34-3.5,108.88,108.88,0,0,1,23.32-1.85,112.17,112.17,0,0,1,23.12,2.79,55.39,55.39,0,0,1,11,3.68,21.25,21.25,0,0,1,4.92,3.07,10,10,0,0,1,1.9,2.19A5.26,5.26,0,0,1,1878,1030.81Zm0,0a5.25,5.25,0,0,0-.84-2.74,9.63,9.63,0,0,0-1.92-2.16,20.92,20.92,0,0,0-4.93-3,53.24,53.24,0,0,0-11.06-3.41,108.58,108.58,0,0,0-23-1.81,111.86,111.86,0,0,0-22.83,2.75,54.21,54.21,0,0,0-10.74,3.59,19.7,19.7,0,0,0-4.61,2.87,5.54,5.54,0,0,0-2.27,3.93c0,1.38,1,2.8,2.26,3.93a19.94,19.94,0,0,0,4.61,2.88,55.18,55.18,0,0,0,10.75,3.59,111.16,111.16,0,0,0,22.83,2.75,108,108,0,0,0,23-1.82,52.74,52.74,0,0,0,11-3.41,20.92,20.92,0,0,0,4.93-3,9.63,9.63,0,0,0,1.92-2.16A5.25,5.25,0,0,0,1878,1030.81Z"></path><ellipse class="cls-17" cx="1579.11" cy="850.31" rx="9.4" ry="3.11"></ellipse><path class="cls-17" d="M1594.15,850.31a2.45,2.45,0,0,1-1,1.78,7.54,7.54,0,0,1-1.77,1.11,20.33,20.33,0,0,1-4,1.35,41.47,41.47,0,0,1-8.32,1.06,39.75,39.75,0,0,1-8.42-.6,19.73,19.73,0,0,1-4.12-1.25,8,8,0,0,1-1.93-1.19,2.68,2.68,0,0,1,0-4.51,8,8,0,0,1,1.93-1.19,19,19,0,0,1,4.12-1.26,42.35,42.35,0,0,1,16.74.47,20.33,20.33,0,0,1,4,1.35,7.22,7.22,0,0,1,1.77,1.11A2.43,2.43,0,0,1,1594.15,850.31Zm0,0a2.42,2.42,0,0,0-1-1.75,7.15,7.15,0,0,0-1.77-1.09,19.67,19.67,0,0,0-4-1.21,39.61,39.61,0,0,0-8.28-.58,40.72,40.72,0,0,0-8.18,1.05,20.46,20.46,0,0,0-3.82,1.3,6.87,6.87,0,0,0-1.61,1,1.45,1.45,0,0,0,0,2.55,6.87,6.87,0,0,0,1.61,1,20.22,20.22,0,0,0,3.82,1.3,40.72,40.72,0,0,0,8.18,1.05,38.31,38.31,0,0,0,8.28-.59,19,19,0,0,0,4-1.2,7.46,7.46,0,0,0,1.77-1.09A2.42,2.42,0,0,0,1594.15,850.31Z"></path><ellipse class="cls-17" cx="1312.44" cy="950.6" rx="18.54" ry="6.13"></ellipse><path class="cls-17" d="M1342.11,950.6a4.89,4.89,0,0,1-1.93,3.51,15.07,15.07,0,0,1-3.49,2.19,40,40,0,0,1-7.82,2.65,80.28,80.28,0,0,1-16.43,2.11,77.43,77.43,0,0,1-16.62-1.17,38.91,38.91,0,0,1-8.14-2.48,16.45,16.45,0,0,1-3.81-2.34,8.07,8.07,0,0,1-1.62-1.84,4.94,4.94,0,0,1-.8-2.63,5,5,0,0,1,.79-2.64,8.35,8.35,0,0,1,1.63-1.84,16,16,0,0,1,3.81-2.34,38.24,38.24,0,0,1,8.13-2.48,77.58,77.58,0,0,1,16.63-1.18,81,81,0,0,1,16.43,2.12,39.19,39.19,0,0,1,7.82,2.66,15,15,0,0,1,3.49,2.18A4.89,4.89,0,0,1,1342.11,950.6Zm0,0a4.84,4.84,0,0,0-2-3.48,14.7,14.7,0,0,0-3.5-2.13,37,37,0,0,0-7.85-2.38,76.62,76.62,0,0,0-16.35-1.15,79.09,79.09,0,0,0-16.13,2.09,38.45,38.45,0,0,0-7.54,2.55,14.06,14.06,0,0,0-3.18,2,2.87,2.87,0,0,0,0,5,13.78,13.78,0,0,0,3.19,2,38.47,38.47,0,0,0,7.54,2.56,79.09,79.09,0,0,0,16.13,2.09,76.62,76.62,0,0,0,16.35-1.15,37.64,37.64,0,0,0,7.85-2.38,15.07,15.07,0,0,0,3.5-2.14A4.82,4.82,0,0,0,1342.11,950.6Z"></path><path class="cls-17" d="M904.77,835.9a98.82,98.82,0,0,0,15.44,3.78c5.22.92,10.47,1.66,15.74,2.29,10.53,1.28,21.1,2.2,31.68,3,21.16,1.52,42.36,2.44,63.56,3.07,42.42,1.21,84.86,1.26,127.27.49s84.82-2.44,127.12-5.29c21.15-1.44,42.28-3.17,63.34-5.41s42.06-4.95,62.84-8.65c10.38-1.88,20.72-4,30.86-6.65,2.53-.68,5.06-1.35,7.55-2.12,1.29-.37,2.43-.74,3.88-1.12s2.76-.68,4.12-1a157,157,0,0,1,16.14-2.13c10.7-.94,21.35-1.42,32-1.73s21.29-.46,31.92-.52c42.53-.18,85,.82,127.45,2.05s84.89,2.86,127.3,4.56l63.62,2.59,31.79,1.22,15.87.51c5.27.15,10.58.29,15.74.29V835.8c-5.45,0-10.75-.23-16.08-.42l-16-.65-31.82-1.49-63.59-3.1c-42.39-2-84.77-4-127.16-5.6s-84.8-2.91-127.16-3.08c-10.59,0-21.17,0-31.74.26s-21.13.61-31.58,1.44a147.6,147.6,0,0,0-15.42,1.91c-1.23.25-2.48.48-3.63.81s-2.51.7-3.78,1c-2.59.77-5.2,1.42-7.8,2.08-10.42,2.62-20.93,4.61-31.45,6.38-21,3.48-42.2,5.94-63.37,7.92s-42.38,3.46-63.6,4.64c-42.43,2.33-84.9,3.44-127.37,3.72s-84.94-.34-127.36-2.08c-21.21-.89-42.42-2.07-63.57-3.86-10.58-.91-21.15-2-31.67-3.37-5.26-.69-10.51-1.5-15.73-2.49A98.63,98.63,0,0,1,904.77,835.9Z"></path><path class="cls-17" d="M255.79,923.54,248,921.45l-7.87-1.67c-1.31-.3-2.62-.54-4-.76l-4-.69c-2.64-.46-5.27-1-7.93-1.33-5.31-.77-10.6-1.62-15.92-2.25l-8-1c-2.66-.33-5.33-.61-8-.91-21.31-2.4-42.68-4.2-64.07-5.64s-42.8-2.42-64.21-3-42.8-.79-64.14-.32v-12c21.6.53,43.13,1.74,64.61,3.33s42.9,3.59,64.28,6.05,42.7,5.25,63.94,8.64c2.65.44,5.31.83,8,1.29l7.94,1.4c5.3.89,10.57,2,15.85,3,2.64.49,5.26,1.12,7.88,1.69l3.94.88c1.31.29,2.62.59,3.91.94l7.8,2Z"></path><path class="cls-17" d="M727.93,817.68a401.9,401.9,0,0,0-45.39,5.08c-15,2.58-29.9,5.83-45,8.25-30.12,5-60.61,7.29-91.06,8.8-15.24.76-30.48,1.26-45.73,1.61s-30.49.54-45.74.67q-45.74.39-91.51-1.43c-30.49-1.16-61-3.18-91.36-5.89q-22.8-2.09-45.54-4.67t-45.42-5.66c-30.25-4-60.39-8.53-90.57-12.28S30.24,805.61,0,805.71v-8c30.75.13,61.3,3.23,91.57,7.22s60.38,8.78,90.53,13q22.6,3.18,45.26,6t45.36,5c30.28,2.93,60.64,5.19,91,6.58l11.4.52,11.4.41c7.61.31,15.21.47,22.82.67,15.22.35,30.44.51,45.67.69s30.45.18,45.68,0,30.45-.37,45.66-.89c30.42-1,60.85-2.88,91-7.36,15.06-2.18,30-5.19,45.07-7.54A401.43,401.43,0,0,1,727.93,817.68Z"></path><path class="cls-17" d="M1671.65,910.68c10.41-1.16,20.61-3.62,30.81-5.92l30.58-7.2c20.4-4.79,40.88-9.31,61.53-13.15s41.42-7.06,62.34-9.52q31.38-3.46,63.09-4.36V881.2q-31.14-.45-62.36,1.66c-20.77,1.55-41.52,3.86-62.2,6.81s-41.29,6.58-61.85,10.5l-30.86,5.89C1692.43,907.93,1682.11,910,1671.65,910.68Z"></path><path class="cls-17" d="M577.29,871.33c2.61-.1,5.21-.11,7.8-.17s5.19-.08,7.78-.16c5.18-.1,10.34-.36,15.48-.57,10.3-.56,20.52-1.41,30.66-2.72s20.18-3,30.12-5.24l3.73-.82,3.72-.9c2.48-.57,4.95-1.22,7.41-1.88,4.94-1.28,9.86-2.67,14.77-4.13,19.65-5.8,39.37-12.59,59.84-17.25a258.92,258.92,0,0,1,31-5.15c5.22-.51,10.44-.87,15.67-1,2.61,0,5.22-.12,7.83-.1s5.21.12,7.82.24c-2.57.5-5.13.91-7.69,1.37s-5.1,1-7.64,1.43c-5.07,1-10.12,2.06-15.13,3.24q-15,3.51-29.71,8.09c-19.59,6-38.88,13.44-59,19.37-5,1.44-10.09,2.86-15.21,4.1-2.55.61-5.11,1.22-7.69,1.75l-3.87.83-3.89.72A243.7,243.7,0,0,1,639.75,876a255.85,255.85,0,0,1-31.46-.39c-5.21-.49-10.42-.93-15.58-1.72S582.4,872.31,577.29,871.33Z"></path><path class="cls-17" d="M936.21,863.25a350,350,0,0,0,44.07,7.59c3.7.45,7.41.81,11.11,1.22s7.42.68,11.13,1l11.14.89c3.71.31,7.43.52,11.14.78,14.88.88,29.76,1.7,44.67,2.16l11.17.38,11.18.33c7.46.16,14.91.32,22.37.4,14.91.29,29.83.38,44.75.37q11.19,0,22.38,0l22.39-.22c7.46-.07,14.92-.25,22.38-.38s14.93-.33,22.39-.57c14.93-.39,29.85-1,44.78-2.07-14.72,2.79-29.63,4.5-44.53,6-7.46.71-14.92,1.32-22.39,1.88-3.74.3-7.48.54-11.21.75l-11.22.64-11.22.57-11.23.41q-11.22.38-22.46.61c-15,.24-30,.22-44.94,0s-30-.74-44.93-1.56-29.93-1.88-44.85-3.5-29.81-3.55-44.58-6.25S950.24,868.54,936.21,863.25Z"></path><use width="297.64" height="184.88" transform="translate(646.74 416.23) scale(2.54)" xlink:href="#prop_Mallet_Block"></use></g></g></svg> 