<?xml version="1.0" encoding="UTF-8"?> <svg xmlns="http://www.w3.org/2000/svg" xmlns:xlink="http://www.w3.org/1999/xlink" viewBox="0 0 500 500"><defs><style>.cls-1{fill:#46807c;}.cls-2{fill:#3f726f;}.cls-3{fill:#315957;}.cls-4{opacity:0.2;}</style><symbol id="Square_For_Export" data-name="Square For Export" viewBox="0 0 500 500"><rect class="cls-1" width="500" height="500"></rect><polygon class="cls-1" points="472.83 500 0 27.17 0 78.8 421.2 500 472.83 500"></polygon><polygon class="cls-2" points="421.2 500 0 78.8 0 105.98 394.02 500 421.2 500"></polygon><polygon class="cls-3" points="394.02 500 0 105.98 0 157.61 342.39 500 394.02 500"></polygon><polygon class="cls-2" points="342.39 500 0 157.61 0 184.78 315.22 500 342.39 500"></polygon><polygon class="cls-1" points="315.22 500 0 184.78 0 236.41 263.59 500 315.22 500"></polygon><polygon class="cls-2" points="263.59 500 0 236.41 0 263.59 236.41 500 263.59 500"></polygon><polygon class="cls-1" points="236.41 500 0 263.59 0 315.22 184.78 500 236.41 500"></polygon><polygon class="cls-2" points="184.78 500 0 315.22 0 342.39 157.61 500 184.78 500"></polygon><polygon class="cls-3" points="157.61 500 0 342.39 0 394.02 105.98 500 157.61 500"></polygon><polygon class="cls-2" points="105.98 500 0 394.02 0 421.19 78.81 500 105.98 500"></polygon><polygon class="cls-1" points="78.81 500 0 421.19 0 472.83 27.17 500 78.81 500"></polygon><polygon class="cls-3" points="27.17 500 0 472.83 0 500 0 500 27.17 500"></polygon><polygon class="cls-3" points="27.17 0 0 0 0 27.17 472.83 500 500 500 500 472.83 27.17 0"></polygon><polygon class="cls-1" points="500 472.83 27.17 0 78.8 0 500 421.2 500 472.83"></polygon><polygon class="cls-2" points="500 421.2 78.8 0 105.98 0 500 394.02 500 421.2"></polygon><polygon class="cls-3" points="500 394.02 105.98 0 157.61 0 500 342.39 500 394.02"></polygon><polygon class="cls-2" points="500 342.39 157.61 0 184.78 0 500 315.22 500 342.39"></polygon><polygon class="cls-1" points="500 315.22 184.78 0 236.41 0 500 263.59 500 315.22"></polygon><polygon class="cls-2" points="500 263.59 236.41 0 263.59 0 500 236.41 500 263.59"></polygon><polygon class="cls-1" points="500 236.41 263.59 0 315.22 0 500 184.78 500 236.41"></polygon><polygon class="cls-2" points="500 184.78 315.22 0 342.39 0 500 157.61 500 184.78"></polygon><polygon class="cls-3" points="500 157.61 342.39 0 394.02 0 500 105.98 500 157.61"></polygon><polygon class="cls-2" points="500 105.98 394.02 0 421.19 0 500 78.81 500 105.98"></polygon><polygon class="cls-1" points="500 78.81 421.2 0 472.83 0 500 27.17 500 78.81"></polygon><polygon class="cls-3" points="500 27.17 472.83 0 500 0 500 0 500 27.17"></polygon><g class="cls-4"><polygon class="cls-1" points="0 472.83 472.83 0 421.2 0 0 421.2 0 472.83"></polygon><polygon class="cls-2" points="0 421.2 421.2 0 394.02 0 0 394.02 0 421.2"></polygon><polygon class="cls-3" points="0 394.02 394.02 0 342.39 0 0 342.39 0 394.02"></polygon><polygon class="cls-2" points="0 342.39 342.39 0 315.22 0 0 315.22 0 342.39"></polygon><polygon class="cls-1" points="0 315.22 315.22 0 263.59 0 0 263.59 0 315.22"></polygon><polygon class="cls-2" points="0 263.59 263.59 0 236.41 0 0 236.41 0 263.59"></polygon><polygon class="cls-1" points="0 236.41 236.41 0 184.78 0 0 184.78 0 236.41"></polygon><polygon class="cls-2" points="0 184.78 184.78 0 157.61 0 0 157.61 0 184.78"></polygon><polygon class="cls-3" points="0 157.61 157.61 0 105.98 0 0 105.98 0 157.61"></polygon><polygon class="cls-2" points="0 105.98 105.98 0 78.81 0 0 78.81 0 105.98"></polygon><polygon class="cls-1" points="0 78.81 78.81 0 27.17 0 0 27.17 0 78.81"></polygon><polygon class="cls-3" points="0 27.17 27.17 0 0 0 0 0 0 27.17"></polygon><polygon class="cls-3" points="500 27.17 500 0 472.83 0 0 472.83 0 500 27.17 500 500 27.17"></polygon><polygon class="cls-1" points="27.17 500 500 27.17 500 78.8 78.8 500 27.17 500"></polygon><polygon class="cls-2" points="78.8 500 500 78.8 500 105.98 105.98 500 78.8 500"></polygon><polygon class="cls-3" points="105.98 500 500 105.98 500 157.61 157.61 500 105.98 500"></polygon><polygon class="cls-2" points="157.61 500 500 157.61 500 184.78 184.78 500 157.61 500"></polygon><polygon class="cls-1" points="184.78 500 500 184.78 500 236.41 236.41 500 184.78 500"></polygon><polygon class="cls-2" points="236.41 500 500 236.41 500 263.59 263.59 500 236.41 500"></polygon><polygon class="cls-1" points="263.59 500 500 263.59 500 315.22 315.22 500 263.59 500"></polygon><polygon class="cls-2" points="315.22 500 500 315.22 500 342.39 342.39 500 315.22 500"></polygon><polygon class="cls-3" points="342.39 500 500 342.39 500 394.02 394.02 500 342.39 500"></polygon><polygon class="cls-2" points="394.02 500 500 394.02 500 421.19 421.19 500 394.02 500"></polygon><polygon class="cls-1" points="421.19 500 500 421.2 500 472.83 472.83 500 421.19 500"></polygon><polygon class="cls-3" points="472.83 500 500 472.83 500 500 500 500 472.83 500"></polygon></g></symbol></defs><g id="Layer_2" data-name="Layer 2"><g id="Layer_1-2" data-name="Layer 1"><use width="500" height="500" xlink:href="#Square_For_Export"></use></g></g></svg> 