<?xml version="1.0" encoding="UTF-8"?> <svg xmlns="http://www.w3.org/2000/svg" viewBox="0 0 1340 1340"><defs><style>.cls-1,.cls-5{fill:#fff;}.cls-2{fill:#eef2f2;}.cls-3{fill:none;stroke:#eef2f2;stroke-miterlimit:10;stroke-width:4px;}.cls-4{opacity:0.16;}.cls-5{stroke:#659a97;stroke-linejoin:round;stroke-width:3px;}.cls-5,.cls-6,.cls-7{fill-rule:evenodd;}.cls-6{fill:#659a97;}.cls-7{fill:#679a96;opacity:0.05;}</style></defs><g id="Layer_2" data-name="Layer 2"><g id="Technology_Development_Page" data-name="Technology Development Page"><rect class="cls-1" width="1340" height="1340"></rect><polygon class="cls-2" points="205.63 106.76 205.63 188.59 134.76 229.5 63.89 188.59 63.89 106.76 134.76 65.84 205.63 106.76"></polygon><polygon class="cls-3" points="218.23 99.48 218.23 195.87 134.76 244.06 51.29 195.87 51.29 99.48 134.76 51.29 218.23 99.48"></polygon><polygon class="cls-2" points="300.52 240.45 300.52 294.45 253.75 321.46 206.98 294.45 206.98 240.45 253.75 213.45 300.52 240.45"></polygon><polygon class="cls-3" points="308.84 235.65 308.84 299.26 253.75 331.06 198.66 299.26 198.66 235.65 253.75 203.84 308.84 235.65"></polygon><circle class="cls-2" cx="270.72" cy="161.76" r="9.51"></circle><polyline class="cls-3" points="270.72 161.76 379.46 161.76 397.95 180.24 532.63 180.24 550.23 162.64 670 162.64"></polyline><circle class="cls-2" cx="246.89" cy="129.6" r="6.85"></circle><circle class="cls-2" cx="285.46" cy="127.78" r="9.51"></circle><polyline class="cls-3" points="285.46 127.78 382 127.78 400.49 146.26 535.17 146.26 552.77 128.66 670 128.66"></polyline><polygon class="cls-1" points="84.88 176.47 84.88 118.87 134.76 90.07 184.64 118.87 184.64 176.47 134.76 205.27 84.88 176.47"></polygon><g class="cls-4"><polygon class="cls-5" points="84.88 118.87 134.76 90.07 184.64 118.87 134.76 147.67 84.88 118.87"></polygon><polygon class="cls-6" points="107.05 106.07 112.58 102.87 162.46 131.67 156.93 134.87 107.05 106.07"></polygon><polygon class="cls-5" points="84.88 118.87 134.76 147.67 134.76 205.27 84.88 176.47 84.88 118.87"></polygon><polygon class="cls-5" points="134.76 147.68 184.64 118.88 184.64 176.48 134.76 205.28 134.76 147.68"></polygon><polygon class="cls-6" points="156.94 134.86 162.46 131.67 162.46 142.5 156.94 145.69 156.94 134.86"></polygon></g><polygon class="cls-7" points="174.25 169.35 184.64 118.88 184.64 176.48 134.76 205.28 174.25 169.35"></polygon><polygon class="cls-7" points="84.88 118.87 134.76 147.67 134.76 205.27 84.88 176.47 84.88 118.87"></polygon><polygon class="cls-1" points="221.04 286.34 221.04 248.57 253.75 229.69 286.46 248.57 286.46 286.34 253.75 305.22 221.04 286.34"></polygon><g class="cls-4"><polygon class="cls-5" points="221.04 248.56 253.75 229.68 286.46 248.56 253.75 267.45 221.04 248.56"></polygon><polygon class="cls-6" points="235.58 240.17 239.21 238.08 271.91 256.96 268.29 259.06 235.58 240.17"></polygon><polygon class="cls-5" points="221.04 248.57 253.75 267.45 253.75 305.22 221.04 286.33 221.04 248.57"></polygon><polygon class="cls-5" points="253.75 267.46 286.45 248.57 286.45 286.34 253.75 305.22 253.75 267.46"></polygon><polygon class="cls-6" points="268.29 259.05 271.91 256.96 271.91 264.06 268.29 266.15 268.29 259.05"></polygon></g><polygon class="cls-7" points="279.64 281.67 286.45 248.57 286.45 286.34 253.75 305.22 279.64 281.67"></polygon><polygon class="cls-7" points="221.04 248.57 253.75 267.45 253.75 305.22 221.04 286.33 221.04 248.57"></polygon><circle class="cls-2" cx="97.94" cy="262.43" r="9.51"></circle><circle class="cls-2" cx="65.78" cy="238.6" r="6.85"></circle><polyline class="cls-3" points="97.94 262.43 97.94 371.17 116.42 389.65 116.42 524.34 98.82 541.94 98.82 670"></polyline><circle class="cls-2" cx="63.96" cy="277.17" r="9.51"></circle><polyline class="cls-3" points="63.96 277.17 63.96 373.7 82.45 392.19 82.45 526.87 64.84 544.48 64.84 670"></polyline><polygon class="cls-2" points="1134.37 106.76 1134.37 188.59 1205.24 229.5 1276.11 188.59 1276.11 106.76 1205.24 65.84 1134.37 106.76"></polygon><polygon class="cls-3" points="1121.77 99.48 1121.77 195.87 1205.24 244.06 1288.71 195.87 1288.71 99.48 1205.24 51.29 1121.77 99.48"></polygon><polygon class="cls-2" points="1039.48 240.45 1039.48 294.45 1086.25 321.46 1133.02 294.45 1133.02 240.45 1086.25 213.45 1039.48 240.45"></polygon><polygon class="cls-3" points="1031.16 235.65 1031.16 299.26 1086.25 331.06 1141.34 299.26 1141.34 235.65 1086.25 203.84 1031.16 235.65"></polygon><circle class="cls-2" cx="1069.28" cy="161.76" r="9.51"></circle><polyline class="cls-3" points="1069.28 161.76 960.54 161.76 942.05 180.24 807.37 180.24 789.77 162.64 670 162.64"></polyline><circle class="cls-2" cx="1093.11" cy="129.6" r="6.85"></circle><circle class="cls-2" cx="1054.54" cy="127.78" r="9.51"></circle><polyline class="cls-3" points="1054.54 127.78 958 127.78 939.51 146.26 804.83 146.26 787.23 128.66 670 128.66"></polyline><polygon class="cls-1" points="1255.12 176.47 1255.12 118.87 1205.24 90.07 1155.36 118.87 1155.36 176.47 1205.24 205.27 1255.12 176.47"></polygon><g class="cls-4"><polygon class="cls-5" points="1255.12 118.87 1205.24 90.07 1155.36 118.87 1205.24 147.67 1255.12 118.87"></polygon><polygon class="cls-6" points="1232.95 106.07 1227.42 102.87 1177.54 131.67 1183.07 134.87 1232.95 106.07"></polygon><polygon class="cls-5" points="1255.12 118.87 1205.24 147.67 1205.24 205.27 1255.12 176.47 1255.12 118.87"></polygon><polygon class="cls-5" points="1205.24 147.68 1155.36 118.88 1155.36 176.48 1205.24 205.28 1205.24 147.68"></polygon><polygon class="cls-6" points="1183.06 134.86 1177.54 131.67 1177.54 142.5 1183.06 145.69 1183.06 134.86"></polygon></g><polygon class="cls-7" points="1165.75 169.35 1155.36 118.88 1155.36 176.48 1205.24 205.28 1165.75 169.35"></polygon><polygon class="cls-7" points="1255.12 118.87 1205.24 147.67 1205.24 205.27 1255.12 176.47 1255.12 118.87"></polygon><polygon class="cls-1" points="1118.96 286.34 1118.96 248.57 1086.25 229.69 1053.54 248.57 1053.54 286.34 1086.25 305.22 1118.96 286.34"></polygon><g class="cls-4"><polygon class="cls-5" points="1118.96 248.56 1086.25 229.68 1053.54 248.56 1086.25 267.45 1118.96 248.56"></polygon><polygon class="cls-6" points="1104.42 240.17 1100.79 238.08 1068.09 256.96 1071.71 259.06 1104.42 240.17"></polygon><polygon class="cls-5" points="1118.96 248.57 1086.25 267.45 1086.25 305.22 1118.96 286.33 1118.96 248.57"></polygon><polygon class="cls-5" points="1086.25 267.46 1053.55 248.57 1053.55 286.34 1086.25 305.22 1086.25 267.46"></polygon><polygon class="cls-6" points="1071.71 259.05 1068.09 256.96 1068.09 264.06 1071.71 266.15 1071.71 259.05"></polygon></g><polygon class="cls-7" points="1060.36 281.67 1053.55 248.57 1053.55 286.34 1086.25 305.22 1060.36 281.67"></polygon><polygon class="cls-7" points="1118.96 248.57 1086.25 267.45 1086.25 305.22 1118.96 286.33 1118.96 248.57"></polygon><circle class="cls-2" cx="1242.06" cy="262.43" r="9.51"></circle><circle class="cls-2" cx="1274.22" cy="238.6" r="6.85"></circle><polyline class="cls-3" points="1242.06 262.43 1242.06 371.17 1223.58 389.65 1223.58 524.34 1241.18 541.94 1241.18 670"></polyline><circle class="cls-2" cx="1276.04" cy="277.17" r="9.51"></circle><polyline class="cls-3" points="1276.04 277.17 1276.04 373.7 1257.55 392.19 1257.55 526.87 1275.15 544.48 1275.15 670"></polyline><polygon class="cls-2" points="1134.37 1233.24 1134.37 1151.41 1205.24 1110.5 1276.11 1151.41 1276.11 1233.24 1205.24 1274.16 1134.37 1233.24"></polygon><polygon class="cls-3" points="1121.77 1240.52 1121.77 1144.13 1205.24 1095.94 1288.71 1144.13 1288.71 1240.52 1205.24 1288.71 1121.77 1240.52"></polygon><polygon class="cls-2" points="1039.48 1099.55 1039.48 1045.55 1086.25 1018.54 1133.02 1045.55 1133.02 1099.55 1086.25 1126.55 1039.48 1099.55"></polygon><polygon class="cls-3" points="1031.16 1104.35 1031.16 1040.74 1086.25 1008.94 1141.34 1040.74 1141.34 1104.35 1086.25 1136.16 1031.16 1104.35"></polygon><circle class="cls-2" cx="1069.28" cy="1178.24" r="9.51"></circle><polyline class="cls-3" points="1069.28 1178.24 960.54 1178.24 942.05 1159.76 807.37 1159.76 789.77 1177.36 670 1177.36"></polyline><circle class="cls-2" cx="1093.11" cy="1210.4" r="6.85"></circle><circle class="cls-2" cx="1054.54" cy="1212.22" r="9.51"></circle><polyline class="cls-3" points="1054.54 1212.22 958 1212.22 939.51 1193.74 804.83 1193.74 787.23 1211.34 670 1211.34"></polyline><polygon class="cls-1" points="1255.12 1221.13 1255.12 1163.53 1205.24 1134.73 1155.36 1163.53 1155.36 1221.13 1205.24 1249.93 1255.12 1221.13"></polygon><g class="cls-4"><polygon class="cls-5" points="1255.12 1163.52 1205.24 1134.72 1155.36 1163.52 1205.24 1192.32 1255.12 1163.52"></polygon><polygon class="cls-6" points="1232.95 1150.72 1227.42 1147.53 1177.54 1176.33 1183.07 1179.52 1232.95 1150.72"></polygon><polygon class="cls-5" points="1255.12 1163.53 1205.24 1192.33 1205.24 1249.92 1255.12 1221.12 1255.12 1163.53"></polygon><polygon class="cls-5" points="1205.24 1192.33 1155.36 1163.54 1155.36 1221.13 1205.24 1249.93 1205.24 1192.33"></polygon><polygon class="cls-6" points="1183.06 1179.52 1177.54 1176.33 1177.54 1187.15 1183.06 1190.35 1183.06 1179.52"></polygon></g><polygon class="cls-7" points="1165.75 1214.01 1155.36 1163.54 1155.36 1221.13 1205.24 1249.93 1165.75 1214.01"></polygon><polygon class="cls-7" points="1255.12 1163.53 1205.24 1192.33 1205.24 1249.92 1255.12 1221.12 1255.12 1163.53"></polygon><polygon class="cls-1" points="1118.96 1091.43 1118.96 1053.66 1086.25 1034.78 1053.54 1053.66 1053.54 1091.43 1086.25 1110.31 1118.96 1091.43"></polygon><g class="cls-4"><polygon class="cls-5" points="1118.96 1053.66 1086.25 1034.78 1053.54 1053.66 1086.25 1072.54 1118.96 1053.66"></polygon><polygon class="cls-6" points="1104.42 1045.27 1100.79 1043.17 1068.09 1062.06 1071.71 1064.15 1104.42 1045.27"></polygon><polygon class="cls-5" points="1118.96 1053.66 1086.25 1072.55 1086.25 1110.31 1118.96 1091.43 1118.96 1053.66"></polygon><polygon class="cls-5" points="1086.25 1072.55 1053.55 1053.67 1053.55 1091.43 1086.25 1110.32 1086.25 1072.55"></polygon><polygon class="cls-6" points="1071.71 1064.15 1068.09 1062.06 1068.09 1069.15 1071.71 1071.25 1071.71 1064.15"></polygon></g><polygon class="cls-7" points="1060.36 1086.76 1053.55 1053.67 1053.55 1091.43 1086.25 1110.32 1060.36 1086.76"></polygon><polygon class="cls-7" points="1118.96 1053.66 1086.25 1072.55 1086.25 1110.31 1118.96 1091.43 1118.96 1053.66"></polygon><circle class="cls-2" cx="1242.06" cy="1077.57" r="9.51"></circle><circle class="cls-2" cx="1274.22" cy="1101.4" r="6.85"></circle><polyline class="cls-3" points="1242.06 1077.57 1242.06 968.83 1223.58 950.35 1223.58 815.66 1241.18 798.06 1241.18 670"></polyline><circle class="cls-2" cx="1276.04" cy="1062.83" r="9.51"></circle><polyline class="cls-3" points="1276.04 1062.83 1276.04 966.29 1257.55 947.81 1257.55 813.13 1275.15 795.52 1275.15 670"></polyline><polygon class="cls-2" points="205.63 1233.24 205.63 1151.41 134.76 1110.5 63.89 1151.41 63.89 1233.24 134.76 1274.16 205.63 1233.24"></polygon><polygon class="cls-3" points="218.23 1240.52 218.23 1144.13 134.76 1095.94 51.29 1144.13 51.29 1240.52 134.76 1288.71 218.23 1240.52"></polygon><polygon class="cls-2" points="300.52 1099.55 300.52 1045.55 253.75 1018.54 206.98 1045.55 206.98 1099.55 253.75 1126.55 300.52 1099.55"></polygon><polygon class="cls-3" points="308.84 1104.35 308.84 1040.74 253.75 1008.94 198.66 1040.74 198.66 1104.35 253.75 1136.16 308.84 1104.35"></polygon><circle class="cls-2" cx="270.72" cy="1178.24" r="9.51"></circle><polyline class="cls-3" points="270.72 1178.24 379.46 1178.24 397.95 1159.76 532.63 1159.76 550.23 1177.36 670 1177.36"></polyline><circle class="cls-2" cx="246.89" cy="1210.4" r="6.85"></circle><circle class="cls-2" cx="285.46" cy="1212.22" r="9.51"></circle><polyline class="cls-3" points="285.46 1212.22 382 1212.22 400.49 1193.74 535.17 1193.74 552.77 1211.34 670 1211.34"></polyline><polygon class="cls-1" points="84.88 1221.13 84.88 1163.53 134.76 1134.73 184.64 1163.53 184.64 1221.13 134.76 1249.93 84.88 1221.13"></polygon><g class="cls-4"><polygon class="cls-5" points="84.88 1163.52 134.76 1134.72 184.64 1163.52 134.76 1192.32 84.88 1163.52"></polygon><polygon class="cls-6" points="107.05 1150.72 112.58 1147.53 162.46 1176.33 156.93 1179.52 107.05 1150.72"></polygon><polygon class="cls-5" points="84.88 1163.53 134.76 1192.33 134.76 1249.92 84.88 1221.12 84.88 1163.53"></polygon><polygon class="cls-5" points="134.76 1192.33 184.64 1163.54 184.64 1221.13 134.76 1249.93 134.76 1192.33"></polygon><polygon class="cls-6" points="156.94 1179.52 162.46 1176.33 162.46 1187.15 156.94 1190.35 156.94 1179.52"></polygon></g><polygon class="cls-7" points="174.25 1214.01 184.64 1163.54 184.64 1221.13 134.76 1249.93 174.25 1214.01"></polygon><polygon class="cls-7" points="84.88 1163.53 134.76 1192.33 134.76 1249.92 84.88 1221.12 84.88 1163.53"></polygon><polygon class="cls-1" points="221.04 1091.43 221.04 1053.66 253.75 1034.78 286.46 1053.66 286.46 1091.43 253.75 1110.31 221.04 1091.43"></polygon><g class="cls-4"><polygon class="cls-5" points="221.04 1053.66 253.75 1034.78 286.46 1053.66 253.75 1072.54 221.04 1053.66"></polygon><polygon class="cls-6" points="235.58 1045.27 239.21 1043.17 271.91 1062.06 268.29 1064.15 235.58 1045.27"></polygon><polygon class="cls-5" points="221.04 1053.66 253.75 1072.55 253.75 1110.31 221.04 1091.43 221.04 1053.66"></polygon><polygon class="cls-5" points="253.75 1072.55 286.45 1053.67 286.45 1091.43 253.75 1110.32 253.75 1072.55"></polygon><polygon class="cls-6" points="268.29 1064.15 271.91 1062.06 271.91 1069.15 268.29 1071.25 268.29 1064.15"></polygon></g><polygon class="cls-7" points="279.64 1086.76 286.45 1053.67 286.45 1091.43 253.75 1110.32 279.64 1086.76"></polygon><polygon class="cls-7" points="221.04 1053.66 253.75 1072.55 253.75 1110.31 221.04 1091.43 221.04 1053.66"></polygon><circle class="cls-2" cx="97.94" cy="1077.57" r="9.51"></circle><circle class="cls-2" cx="65.78" cy="1101.4" r="6.85"></circle><polyline class="cls-3" points="97.94 1077.57 97.94 968.83 116.42 950.35 116.42 815.66 98.82 798.06 98.82 670"></polyline><circle class="cls-2" cx="63.96" cy="1062.83" r="9.51"></circle><polyline class="cls-3" points="63.96 1062.83 63.96 966.29 82.45 947.81 82.45 813.13 64.84 795.52 64.84 670"></polyline></g></g></svg> 