<svg xmlns="http://www.w3.org/2000/svg" xmlns:xlink="http://www.w3.org/1999/xlink" viewBox="0 0 257.81 865.08" preserveAspectRatio="none"><defs><style>.cls-1{fill:none;}.cls-2,.cls-6{fill:#1d3432;}.cls-3,.cls-7{fill:#335a58;}.cls-4,.cls-8{fill:#417370;}.cls-5,.cls-9{fill:#47817d;}.cls-6,.cls-7,.cls-8,.cls-9{opacity:0.23;}.cls-10,.cls-6,.cls-7,.cls-8,.cls-9{isolation:isolate;}.cls-11{opacity:0.25;}.cls-12{fill:url(#New_Pattern_Swatch_2);}.cls-13{fill:#ddb893;mix-blend-mode:color;}</style><pattern id="New_Pattern_Swatch_2" data-name="New Pattern Swatch 2" width="500" height="500" patternTransform="matrix(2.2, 0, 0, -4.31, -4513.85, -3513.25)" patternUnits="userSpaceOnUse" viewBox="0 0 500 500"><rect class="cls-1" width="500" height="500"/><rect class="cls-2" width="43.22" height="500"/><rect class="cls-3" x="43.22" width="17" height="500"/><rect class="cls-2" x="138.22" width="17" height="500"/><rect class="cls-3" x="250.22" width="17" height="500"/><rect class="cls-4" x="267.22" width="17" height="500"/><rect class="cls-3" x="323.22" width="17" height="500"/><rect class="cls-5" x="418.22" width="17" height="500"/><rect class="cls-5" x="435.22" width="25.78" height="500"/><rect class="cls-3" x="194.22" width="17" height="500"/><rect class="cls-4" x="60.22" width="39" height="500"/><rect class="cls-3" x="99.22" width="39" height="500"/><rect class="cls-4" x="211.22" width="39" height="500"/><rect class="cls-3" x="379.22" width="39" height="500"/><rect class="cls-5" x="461" width="39" height="500"/><rect class="cls-5" x="340.22" width="39" height="500"/><rect class="cls-5" x="284.22" width="39" height="500"/><rect class="cls-5" x="155.22" width="39" height="500"/><rect class="cls-6" width="500" height="43.22"/><rect class="cls-7" y="43.22" width="500" height="17"/><rect class="cls-6" y="138.22" width="500" height="17"/><rect class="cls-7" y="250.22" width="500" height="17"/><rect class="cls-8" y="267.22" width="500" height="17"/><rect class="cls-7" y="323.22" width="500" height="17"/><rect class="cls-9" y="418.22" width="500" height="17"/><rect class="cls-9" y="435.22" width="500" height="25.78"/><rect class="cls-7" y="194.22" width="500" height="17"/><rect class="cls-8" y="60.22" width="500" height="39"/><rect class="cls-7" y="99.22" width="500" height="39"/><rect class="cls-8" y="211.22" width="500" height="39"/><rect class="cls-7" y="379.22" width="500" height="39"/><rect class="cls-9" y="461" width="500" height="39"/><rect class="cls-9" y="340.22" width="500" height="39"/><rect class="cls-9" y="284.22" width="500" height="39"/><rect class="cls-9" y="155.22" width="500" height="39"/></pattern></defs><g class="cls-10"><g id="Layer_2" data-name="Layer 2"><g id="Get_It_Page" data-name="Get It Page"><g class="cls-11"><polygon class="cls-12" points="257.81 0 257.81 865.08 0 0 257.81 0"/><polygon class="cls-13" points="257.81 0 257.81 865.08 0 0 257.81 0"/></g></g></g></g></svg>