<svg xmlns="http://www.w3.org/2000/svg" viewBox="0 0 116 200" preserveAspectRatio="none"><defs><style>.cls-1{opacity:0.16;}.cls-2,.cls-4{fill:#417370;}.cls-3,.cls-6{fill:#335a58;}.cls-3,.cls-4,.cls-7{opacity:0.23;isolation:isolate;}.cls-5{fill:#1d3432;}.cls-7,.cls-8{fill:#47817d;}</style></defs><g id="Layer_2" data-name="Layer 2"><g id="Layer_1-2" data-name="Layer 1"><g class="cls-1"><polygon class="cls-2" points="0 7.22 4.19 7.22 14.05 24.22 0 24.22 0 7.22"/><polygon class="cls-3" points="0 7.22 4.19 7.22 14.05 24.22 0 24.22 0 7.22"/><polygon class="cls-2" points="0 24.22 14.05 24.22 23.91 41.22 0 41.22 0 24.22"/><polygon class="cls-4" points="0 24.22 14.05 24.22 23.91 41.22 0 41.22 0 24.22"/><polygon class="cls-5" points="46.48 80.22 46.53 80.22 56.39 97.22 46.48 97.22 46.48 80.22"/><polygon class="cls-3" points="46.48 80.22 46.53 80.22 56.39 97.22 46.48 97.22 46.48 80.22"/><rect class="cls-6" x="29.58" y="80.22" width="16.9" height="17"/><rect class="cls-3" x="29.58" y="80.22" width="16.9" height="17"/><rect class="cls-2" y="80.22" width="29.58" height="17"/><rect class="cls-3" y="80.22" width="29.58" height="17"/><rect class="cls-5" x="46.48" y="175.22" width="42.97" height="17"/><rect class="cls-7" x="46.48" y="175.22" width="42.97" height="17"/><rect class="cls-6" x="29.58" y="175.22" width="16.9" height="17"/><rect class="cls-7" x="29.58" y="175.22" width="16.9" height="17"/><rect class="cls-2" y="175.22" width="29.58" height="17"/><rect class="cls-7" y="175.22" width="29.58" height="17"/><rect class="cls-5" x="46.48" y="192.22" width="42.97" height="7.78"/><rect class="cls-7" x="46.48" y="192.22" width="42.97" height="7.78"/><rect class="cls-6" x="29.58" y="192.22" width="16.9" height="7.78"/><rect class="cls-7" x="29.58" y="192.22" width="16.9" height="7.78"/><rect class="cls-2" y="192.22" width="29.58" height="7.78"/><rect class="cls-7" y="192.22" width="29.58" height="7.78"/><polygon class="cls-2" points="0 0 4.19 7.22 0 7.22 0 0"/><polygon class="cls-4" points="0 0 4.19 7.22 0 7.22 0 0"/><polygon class="cls-5" points="46.48 175.22 46.48 136.22 79.01 136.22 89.45 154.22 89.45 175.22 46.48 175.22"/><polygon class="cls-3" points="46.48 175.22 46.48 136.22 79.01 136.22 89.45 154.22 89.45 175.22 46.48 175.22"/><rect class="cls-6" x="29.58" y="136.22" width="16.9" height="39"/><rect class="cls-3" x="29.58" y="136.22" width="16.9" height="39"/><rect class="cls-2" y="136.22" width="29.58" height="39"/><rect class="cls-3" y="136.22" width="29.58" height="39"/><polygon class="cls-5" points="46.48 97.22 56.39 97.22 79.01 136.22 46.48 136.22 46.48 97.22"/><polygon class="cls-7" points="46.48 97.22 56.39 97.22 79.01 136.22 46.48 136.22 46.48 97.22"/><rect class="cls-6" x="29.58" y="97.22" width="16.9" height="39"/><rect class="cls-7" x="29.58" y="97.22" width="16.9" height="39"/><rect class="cls-2" y="97.22" width="29.58" height="39"/><rect class="cls-7" y="97.22" width="29.58" height="39"/><polygon class="cls-5" points="46.48 80.14 46.53 80.22 46.48 80.22 46.48 80.14"/><polygon class="cls-7" points="46.48 80.14 46.53 80.22 46.48 80.22 46.48 80.14"/><polygon class="cls-6" points="29.58 80.22 29.58 51 46.48 80.14 46.48 80.22 29.58 80.22"/><polygon class="cls-7" points="29.58 80.22 29.58 51 46.48 80.14 46.48 80.22 29.58 80.22"/><polygon class="cls-2" points="0 80.22 0 41.22 23.91 41.22 29.58 51 29.58 80.22 0 80.22"/><polygon class="cls-7" points="0 80.22 0 41.22 23.91 41.22 29.58 51 29.58 80.22 0 80.22"/><polygon class="cls-8" points="89.45 175.22 101.63 175.22 111.49 192.22 89.45 192.22 89.45 175.22"/><polygon class="cls-7" points="89.45 175.22 101.63 175.22 111.49 192.22 89.45 192.22 89.45 175.22"/><polygon class="cls-8" points="111.49 192.22 116 200 89.45 200 89.45 192.22 111.49 192.22"/><polygon class="cls-7" points="111.49 192.22 116 200 89.45 200 89.45 192.22 111.49 192.22"/><polygon class="cls-8" points="89.45 154.23 101.63 175.22 89.45 175.22 89.45 154.23"/><polygon class="cls-3" points="89.45 154.23 101.63 175.22 89.45 175.22 89.45 154.23"/></g></g></g></svg>