<svg xmlns="http://www.w3.org/2000/svg" viewBox="0 0 180.34 468" preserveAspectRatio="none"><defs><style>.cls-1{opacity:0.16;}.cls-2,.cls-3{fill:#335a58;}.cls-3,.cls-5,.cls-6,.cls-7{opacity:0.23;isolation:isolate;}.cls-4,.cls-6{fill:#417370;}.cls-5{fill:#1d3432;}.cls-7{fill:#47817d;}</style></defs><g id="Layer_2" data-name="Layer 2"><g id="Homepage"><g class="cls-1"><polygon class="cls-2" points="0 0 180.34 0 0 466.86 0 0"/><polygon class="cls-2" points="22.77 0 0 0 0 15.41 3.7 19.11 22.77 0"/><polygon class="cls-3" points="22.77 0 0 0 0 15.41 3.7 19.11 22.77 0"/><polygon class="cls-4" points="0 15.41 0 22.82 3.7 19.11 0 15.41"/><polygon class="cls-3" points="0 15.41 0 22.82 3.7 19.11 0 15.41"/><polygon class="cls-4" points="0 337.62 81.84 255.6 117.21 163.83 0 281.29 0 337.62"/><polygon class="cls-5" points="0 337.62 81.84 255.6 117.21 163.83 0 281.29 0 337.62"/><polygon class="cls-4" points="0 468 0.72 466.14 0 466.86 0 468"/><polygon class="cls-3" points="0 468 0.72 466.14 0 466.86 0 468"/><polygon class="cls-2" points="3.7 19.11 68.18 83.73 151.73 0 22.77 0 3.7 19.11"/><polygon class="cls-6" points="3.7 19.11 68.18 83.73 151.73 0 22.77 0 3.7 19.11"/><polygon class="cls-4" points="3.7 19.11 0 22.82 0 152.05 68.18 83.73 3.7 19.11"/><polygon class="cls-6" points="3.7 19.11 0 22.82 0 152.05 68.18 83.73 3.7 19.11"/><polygon class="cls-2" points="125.81 141.49 180.34 0 151.73 0 68.18 83.73 125.81 141.49"/><polygon class="cls-3" points="125.81 141.49 180.34 0 151.73 0 68.18 83.73 125.81 141.49"/><polygon class="cls-4" points="0 152.05 0 281.29 117.21 163.83 125.81 141.49 68.18 83.73 0 152.05"/><polygon class="cls-3" points="0 152.05 0 281.29 117.21 163.83 125.81 141.49 68.18 83.73 0 152.05"/><polygon class="cls-4" points="0 466.86 0.72 466.14 81.84 255.6 0 337.62 0 466.86"/><polygon class="cls-7" points="0 466.86 0.72 466.14 81.84 255.6 0 337.62 0 466.86"/></g></g></g></svg>