<svg xmlns="http://www.w3.org/2000/svg" viewBox="0 0 116 200" preserveAspectRatio="none"><defs><style>.cls-1{opacity:0.16;}.cls-2,.cls-4{fill:#417370;}.cls-3,.cls-6{fill:#335a58;}.cls-3,.cls-4,.cls-7{opacity:0.23;isolation:isolate;}.cls-5{fill:#1d3432;}.cls-7,.cls-8{fill:#47817d;}</style></defs><g id="Layer_2" data-name="Layer 2"><g id="Layer_1-2" data-name="Layer 1"><g class="cls-1"><polygon class="cls-2" points="116 7.22 111.81 7.22 101.95 24.22 116 24.22 116 7.22"/><polygon class="cls-3" points="116 7.22 111.81 7.22 101.95 24.22 116 24.22 116 7.22"/><polygon class="cls-2" points="116 24.22 101.95 24.22 92.09 41.22 116 41.22 116 24.22"/><polygon class="cls-4" points="116 24.22 101.95 24.22 92.09 41.22 116 41.22 116 24.22"/><polygon class="cls-5" points="69.52 80.22 69.47 80.22 59.61 97.22 69.52 97.22 69.52 80.22"/><polygon class="cls-3" points="69.52 80.22 69.47 80.22 59.61 97.22 69.52 97.22 69.52 80.22"/><rect class="cls-6" x="69.52" y="80.22" width="16.9" height="17"/><rect class="cls-3" x="69.52" y="80.22" width="16.9" height="17"/><rect class="cls-2" x="86.42" y="80.22" width="29.58" height="17"/><rect class="cls-3" x="86.42" y="80.22" width="29.58" height="17"/><rect class="cls-5" x="26.55" y="175.22" width="42.97" height="17"/><rect class="cls-7" x="26.55" y="175.22" width="42.97" height="17"/><rect class="cls-6" x="69.52" y="175.22" width="16.9" height="17"/><rect class="cls-7" x="69.52" y="175.22" width="16.9" height="17"/><rect class="cls-2" x="86.42" y="175.22" width="29.58" height="17"/><rect class="cls-7" x="86.42" y="175.22" width="29.58" height="17"/><rect class="cls-5" x="26.55" y="192.22" width="42.97" height="7.78"/><rect class="cls-7" x="26.55" y="192.22" width="42.97" height="7.78"/><rect class="cls-6" x="69.52" y="192.22" width="16.9" height="7.78"/><rect class="cls-7" x="69.52" y="192.22" width="16.9" height="7.78"/><rect class="cls-2" x="86.42" y="192.22" width="29.58" height="7.78"/><rect class="cls-7" x="86.42" y="192.22" width="29.58" height="7.78"/><polygon class="cls-2" points="116 0 111.81 7.22 116 7.22 116 0"/><polygon class="cls-4" points="116 0 111.81 7.22 116 7.22 116 0"/><polygon class="cls-5" points="69.52 175.22 69.52 136.22 36.99 136.22 26.55 154.22 26.55 175.22 69.52 175.22"/><polygon class="cls-3" points="69.52 175.22 69.52 136.22 36.99 136.22 26.55 154.22 26.55 175.22 69.52 175.22"/><rect class="cls-6" x="69.52" y="136.22" width="16.9" height="39"/><rect class="cls-3" x="69.52" y="136.22" width="16.9" height="39"/><rect class="cls-2" x="86.42" y="136.22" width="29.58" height="39"/><rect class="cls-3" x="86.42" y="136.22" width="29.58" height="39"/><polygon class="cls-5" points="69.52 97.22 59.61 97.22 36.99 136.22 69.52 136.22 69.52 97.22"/><polygon class="cls-7" points="69.52 97.22 59.61 97.22 36.99 136.22 69.52 136.22 69.52 97.22"/><rect class="cls-6" x="69.52" y="97.22" width="16.9" height="39"/><rect class="cls-7" x="69.52" y="97.22" width="16.9" height="39"/><rect class="cls-2" x="86.42" y="97.22" width="29.58" height="39"/><rect class="cls-7" x="86.42" y="97.22" width="29.58" height="39"/><polygon class="cls-5" points="69.52 80.14 69.47 80.22 69.52 80.22 69.52 80.14"/><polygon class="cls-7" points="69.52 80.14 69.47 80.22 69.52 80.22 69.52 80.14"/><polygon class="cls-6" points="86.42 80.22 86.42 51 69.52 80.14 69.52 80.22 86.42 80.22"/><polygon class="cls-7" points="86.42 80.22 86.42 51 69.52 80.14 69.52 80.22 86.42 80.22"/><polygon class="cls-2" points="116 80.22 116 41.22 92.09 41.22 86.42 51 86.42 80.22 116 80.22"/><polygon class="cls-7" points="116 80.22 116 41.22 92.09 41.22 86.42 51 86.42 80.22 116 80.22"/><polygon class="cls-8" points="26.55 175.22 14.37 175.22 4.51 192.22 26.55 192.22 26.55 175.22"/><polygon class="cls-7" points="26.55 175.22 14.37 175.22 4.51 192.22 26.55 192.22 26.55 175.22"/><polygon class="cls-8" points="4.51 192.22 0 200 26.55 200 26.55 192.22 4.51 192.22"/><polygon class="cls-7" points="4.51 192.22 0 200 26.55 200 26.55 192.22 4.51 192.22"/><polygon class="cls-8" points="26.55 154.23 14.37 175.22 26.55 175.22 26.55 154.23"/><polygon class="cls-3" points="26.55 154.23 14.37 175.22 26.55 175.22 26.55 154.23"/></g></g></g></svg>