<svg xmlns="http://www.w3.org/2000/svg" viewBox="0 0 180.34 468" preserveAspectRatio="none"><defs><style>.cls-1{opacity:0.16;}.cls-2,.cls-3{fill:#335a58;}.cls-3,.cls-5,.cls-6,.cls-7{opacity:0.23;isolation:isolate;}.cls-4,.cls-6{fill:#417370;}.cls-5{fill:#1d3432;}.cls-7{fill:#47817d;}</style></defs><g id="Layer_2" data-name="Layer 2"><g id="Homepage"><g class="cls-1"><polygon class="cls-2" points="180.34 0 0 0 180.34 466.86 180.34 0"/><polygon class="cls-2" points="157.57 0 180.34 0 180.34 15.41 176.64 19.11 157.57 0"/><polygon class="cls-3" points="157.57 0 180.34 0 180.34 15.41 176.64 19.11 157.57 0"/><polygon class="cls-4" points="180.34 15.41 180.34 22.82 176.64 19.11 180.34 15.41"/><polygon class="cls-3" points="180.34 15.41 180.34 22.82 176.64 19.11 180.34 15.41"/><polygon class="cls-4" points="180.34 337.62 98.49 255.6 63.13 163.83 180.34 281.29 180.34 337.62"/><polygon class="cls-5" points="180.34 337.62 98.49 255.6 63.13 163.83 180.34 281.29 180.34 337.62"/><polygon class="cls-4" points="180.34 468 179.62 466.14 180.34 466.86 180.34 468"/><polygon class="cls-3" points="180.34 468 179.62 466.14 180.34 466.86 180.34 468"/><polygon class="cls-2" points="176.64 19.11 112.16 83.73 28.61 0 157.57 0 176.64 19.11"/><polygon class="cls-6" points="176.64 19.11 112.16 83.73 28.61 0 157.57 0 176.64 19.11"/><polygon class="cls-4" points="176.64 19.11 180.34 22.82 180.34 152.05 112.16 83.73 176.64 19.11"/><polygon class="cls-6" points="176.64 19.11 180.34 22.82 180.34 152.05 112.16 83.73 176.64 19.11"/><polygon class="cls-2" points="54.52 141.49 0 0 28.61 0 112.16 83.73 54.52 141.49"/><polygon class="cls-3" points="54.52 141.49 0 0 28.61 0 112.16 83.73 54.52 141.49"/><polygon class="cls-4" points="180.34 152.05 180.34 281.29 63.13 163.83 54.52 141.49 112.16 83.73 180.34 152.05"/><polygon class="cls-3" points="180.34 152.05 180.34 281.29 63.13 163.83 54.52 141.49 112.16 83.73 180.34 152.05"/><polygon class="cls-4" points="180.34 466.86 179.62 466.14 98.49 255.6 180.34 337.62 180.34 466.86"/><polygon class="cls-7" points="180.34 466.86 179.62 466.14 98.49 255.6 180.34 337.62 180.34 466.86"/></g></g></g></svg>