<?xml version="1.0" encoding="UTF-8"?> <svg xmlns="http://www.w3.org/2000/svg" viewBox="0 0 196.11 196.11"><defs><style>.cls-1,.cls-2{fill:#dde7e7;}.cls-2,.cls-4{fill-rule:evenodd;}.cls-3,.cls-4{fill:#659a97;}</style></defs><g id="Layer_2" data-name="Layer 2"><g id="Send_It_Page" data-name="Send It Page"><path class="cls-1" d="M100.06,196.11a96.06,96.06,0,1,1,96.05-96.06A96.17,96.17,0,0,1,100.06,196.11Zm0-182.11a86.06,86.06,0,1,0,86.05,86.05A86.15,86.15,0,0,0,100.06,14Z"></path><path class="cls-2" d="M49,59.12,30.64,40.78a5,5,0,0,1,7.08-7.07L56.13,52.13a26.56,26.56,0,0,0-6.52,6.13C49.39,58.54,49.18,58.83,49,59.12Zm14.73.59,7.43,7.43a7.46,7.46,0,0,0-3.8.85,6.79,6.79,0,0,0-3.66,4.69l-.23.91-7-7a18.2,18.2,0,0,1,1.38-2.11,16.22,16.22,0,0,1,5.06-4.4C63.19,60,63.45,59.83,63.71,59.71Zm44.1,44.09,9.29,9.3c-.62.2-1.24.41-1.86.64l.75,7.69a8.6,8.6,0,0,0,3,6.09,9.52,9.52,0,0,0,6.57,2.53h6.93A10.08,10.08,0,0,0,134,130l9.24,9.24a21,21,0,0,1-10.71,2.86h-.58L94,104.18H107Zm42.89,42.9,15.71,15.71a5,5,0,0,1-7.07,7.07l-18.22-18.23a31.68,31.68,0,0,0,7.39-3.15C149.27,147.65,150,147.19,150.7,146.7Z"></path><path class="cls-1" d="M142.06,120.68v-6.94a39.64,39.64,0,0,0-13.5-2.44,38.15,38.15,0,0,0-13.32,2.44l.75,7.69a8.6,8.6,0,0,0,3,6.09,9.52,9.52,0,0,0,6.57,2.53h6.93a9.32,9.32,0,0,0,6.75-2.72A8.88,8.88,0,0,0,142.06,120.68Zm-57.94.75.75-7.69a38.09,38.09,0,0,0-13.31-2.44,39.64,39.64,0,0,0-13.5,2.44v6.94a8.87,8.87,0,0,0,2.81,6.65,9.32,9.32,0,0,0,6.75,2.72h6.94a9.49,9.49,0,0,0,6.56-2.53A8.6,8.6,0,0,0,84.12,121.43Zm69.56-16.88a12.34,12.34,0,0,1,.38,3v13.13a20.49,20.49,0,0,1-2.91,10.69,21.9,21.9,0,0,1-7.87,7.78,21.09,21.09,0,0,1-10.79,2.9h-6.93a21.06,21.06,0,0,1-14.82-5.72,20.3,20.3,0,0,1-6.75-14l-.56-7.32H96.68l-.56,7.32a20.3,20.3,0,0,1-6.75,14,21,21,0,0,1-14.81,5.72H67.62a21,21,0,0,1-10.78-2.9A21.93,21.93,0,0,1,49,131.37a20.57,20.57,0,0,1-2.9-10.69V107.55a12.32,12.32,0,0,1,.37-3l8.44-33.93a17.74,17.74,0,0,1,3-6.1,16.22,16.22,0,0,1,5.06-4.4,15.45,15.45,0,0,1,6.47-2,15.9,15.9,0,0,1,6.66.84l3,.94a3,3,0,0,1,1.87,3.75L80,66.49a3,3,0,0,1-3.75,1.88l-2.62-.75a7.8,7.8,0,0,0-6.28.37,6.79,6.79,0,0,0-3.66,4.69l-7.31,28.87A54.47,54.47,0,0,1,71.74,99.3a49.49,49.49,0,0,1,21.38,4.88H107a49.49,49.49,0,0,1,21.38-4.88,54.47,54.47,0,0,1,15.37,2.25l-7.31-28.87A6.8,6.8,0,0,0,132.78,68a7.82,7.82,0,0,0-6.29-.37l-2.62.75a3,3,0,0,1-3.75-1.88l-.94-2.81a3,3,0,0,1,1.88-3.75l3-.94a15.84,15.84,0,0,1,6.65-.84,15.4,15.4,0,0,1,6.47,2,16.22,16.22,0,0,1,5.06,4.4,17.74,17.74,0,0,1,3,6.1Z"></path><path class="cls-3" d="M96.06,192.11a96.06,96.06,0,1,1,96.05-96.06A96.17,96.17,0,0,1,96.06,192.11ZM96.06,10a86.06,86.06,0,1,0,86.05,86.05A86.15,86.15,0,0,0,96.06,10Z"></path><path class="cls-4" d="M45,55.12,26.64,36.78a5,5,0,0,1,7.08-7.07L52.13,48.13a26.56,26.56,0,0,0-6.52,6.13C45.39,54.54,45.18,54.83,45,55.12Zm14.73.59,7.43,7.43a7.46,7.46,0,0,0-3.8.85,6.79,6.79,0,0,0-3.66,4.69l-.23.91-7-7a18.2,18.2,0,0,1,1.38-2.11,16.22,16.22,0,0,1,5.06-4.4C59.19,56,59.45,55.83,59.71,55.71Zm44.1,44.09,9.29,9.3c-.62.2-1.24.41-1.86.64l.75,7.69a8.6,8.6,0,0,0,3,6.09,9.52,9.52,0,0,0,6.57,2.53h6.93A10.08,10.08,0,0,0,130,126l9.24,9.24a21,21,0,0,1-10.71,2.86h-.58L90,100.18H103Zm42.89,42.9,15.71,15.71a5,5,0,0,1-7.07,7.07l-18.22-18.23a31.68,31.68,0,0,0,7.39-3.15C145.27,143.65,146,143.19,146.7,142.7Z"></path><path class="cls-3" d="M138.06,116.68v-6.94a39.64,39.64,0,0,0-13.5-2.44,38.15,38.15,0,0,0-13.32,2.44l.75,7.69a8.6,8.6,0,0,0,3,6.09,9.52,9.52,0,0,0,6.57,2.53h6.93a9.32,9.32,0,0,0,6.75-2.72A8.88,8.88,0,0,0,138.06,116.68Zm-57.94.75.75-7.69a38.09,38.09,0,0,0-13.31-2.44,39.64,39.64,0,0,0-13.5,2.44v6.94a8.87,8.87,0,0,0,2.81,6.65,9.32,9.32,0,0,0,6.75,2.72h6.94a9.49,9.49,0,0,0,6.56-2.53A8.6,8.6,0,0,0,80.12,117.43Zm69.56-16.88a12.34,12.34,0,0,1,.38,3v13.13a20.49,20.49,0,0,1-2.91,10.69,21.9,21.9,0,0,1-7.87,7.78,21.09,21.09,0,0,1-10.79,2.9h-6.93a21.06,21.06,0,0,1-14.82-5.72,20.3,20.3,0,0,1-6.75-14l-.56-7.32H92.68l-.56,7.32a20.3,20.3,0,0,1-6.75,14,21,21,0,0,1-14.81,5.72H63.62a21,21,0,0,1-10.78-2.9A21.93,21.93,0,0,1,45,127.37a20.57,20.57,0,0,1-2.9-10.69V103.55a12.32,12.32,0,0,1,.37-3l8.44-33.93a17.74,17.74,0,0,1,3-6.1,16.22,16.22,0,0,1,5.06-4.4,15.45,15.45,0,0,1,6.47-2,15.9,15.9,0,0,1,6.66.84l3,.94a3,3,0,0,1,1.87,3.75L76,62.49a3,3,0,0,1-3.75,1.88l-2.62-.75a7.8,7.8,0,0,0-6.28.37,6.79,6.79,0,0,0-3.66,4.69L52.37,97.55A54.47,54.47,0,0,1,67.74,95.3a49.49,49.49,0,0,1,21.38,4.88H103a49.49,49.49,0,0,1,21.38-4.88,54.47,54.47,0,0,1,15.37,2.25l-7.31-28.87A6.8,6.8,0,0,0,128.78,64a7.82,7.82,0,0,0-6.29-.37l-2.62.75a3,3,0,0,1-3.75-1.88l-.94-2.81a3,3,0,0,1,1.88-3.75l3-.94a15.84,15.84,0,0,1,6.65-.84,15.4,15.4,0,0,1,6.47,2,16.22,16.22,0,0,1,5.06,4.4,17.74,17.74,0,0,1,3,6.1Z"></path></g></g></svg> 