<?xml version="1.0" encoding="UTF-8"?> <svg xmlns="http://www.w3.org/2000/svg" viewBox="0 0 196.11 196.11"><defs><style>.cls-1,.cls-2{fill:#dde7e7;}.cls-2,.cls-4{fill-rule:evenodd;}.cls-3,.cls-4{fill:#659a97;}</style></defs><g id="Layer_2" data-name="Layer 2"><g id="Send_It_Page" data-name="Send It Page"><path class="cls-1" d="M100.06,196.11a96.06,96.06,0,1,1,96.05-96.06A96.17,96.17,0,0,1,100.06,196.11Zm0-182.11a86.06,86.06,0,1,0,86.05,86.05A86.15,86.15,0,0,0,100.06,14Z"></path><path class="cls-2" d="M71.69,81.83V71.52A17.12,17.12,0,0,1,70,70.07a14.24,14.24,0,0,1-4.19-8.23L37.72,33.71a5,5,0,0,0-7.08,7.07Zm19.09,19.09,2.15-3.49a5.5,5.5,0,0,0,1.13-3.38v-4l-12-12V92.2ZM135.87,146l-34-33.95h14.15l25.62,25.63a13.2,13.2,0,0,1-4.22,7.09A13,13,0,0,1,135.87,146Zm13.84-.29a24.09,24.09,0,0,1-5.32,6.78c-.36.32-.73.64-1.11.93l16.06,16.06a5,5,0,0,0,7.07-7.07Z"></path><path class="cls-1" d="M83.93,112.05h32.25l-9-14.62a5.49,5.49,0,0,1-1.12-3.38v-30h-12v30a5.5,5.5,0,0,1-1.13,3.38ZM140,127.62a13.09,13.09,0,0,1,1.88,9.09,13.3,13.3,0,0,1-4.41,8.06,12.58,12.58,0,0,1-8.72,3.28H71.37a12.84,12.84,0,0,1-8.72-3.18,13,13,0,0,1-4.41-8.07,13.26,13.26,0,0,1,1.88-9.18L82.06,92.37V64.05h-1.5a4.47,4.47,0,0,1-4.5-4.5v-3a4.49,4.49,0,0,1,4.5-4.5h39a4.51,4.51,0,0,1,4.5,4.5v3a4.49,4.49,0,0,1-4.5,4.5h-1.5V92.37Z"></path><path class="cls-3" d="M96.06,192.11a96.06,96.06,0,1,1,96.05-96.06A96.17,96.17,0,0,1,96.06,192.11ZM96.06,10a86.06,86.06,0,1,0,86.05,86.05A86.15,86.15,0,0,0,96.06,10Z"></path><path class="cls-4" d="M67.69,77.83V67.52A17.12,17.12,0,0,1,66,66.07a14.24,14.24,0,0,1-4.19-8.23L33.72,29.71a5,5,0,0,0-7.08,7.07ZM86.78,96.92l2.15-3.49a5.5,5.5,0,0,0,1.13-3.38v-4l-12-12V88.2ZM131.87,142l-34-33.95h14.15l25.62,25.63a13.2,13.2,0,0,1-4.22,7.09A13,13,0,0,1,131.87,142Zm13.84-.29a24.09,24.09,0,0,1-5.32,6.78c-.36.32-.73.64-1.11.93l16.06,16.06a5,5,0,0,0,7.07-7.07Z"></path><path class="cls-3" d="M79.93,108.05h32.25l-9-14.62a5.49,5.49,0,0,1-1.12-3.38v-30h-12v30a5.5,5.5,0,0,1-1.13,3.38ZM136,123.62a13.09,13.09,0,0,1,1.88,9.09,13.3,13.3,0,0,1-4.41,8.06,12.58,12.58,0,0,1-8.72,3.28H67.37a12.84,12.84,0,0,1-8.72-3.18,13,13,0,0,1-4.41-8.07,13.26,13.26,0,0,1,1.88-9.18L78.06,88.37V60.05h-1.5a4.47,4.47,0,0,1-4.5-4.5v-3a4.49,4.49,0,0,1,4.5-4.5h39a4.51,4.51,0,0,1,4.5,4.5v3a4.49,4.49,0,0,1-4.5,4.5h-1.5V88.37Z"></path></g></g></svg> 