<?xml version="1.0" encoding="UTF-8"?> <svg xmlns="http://www.w3.org/2000/svg" viewBox="0 0 186.5 161.51"><defs><style>.cls-1{fill:#3f726f;}.cls-2{fill:none;stroke:#3f726f;stroke-miterlimit:10;stroke-width:4px;}.cls-3{fill:#d8eeec;}</style></defs><g id="Layer_2" data-name="Layer 2"><g id="Layer_1-2" data-name="Layer 1"><polygon class="cls-1" points="131.85 13.89 54.65 13.89 16.04 80.76 54.65 147.62 131.85 147.62 170.46 80.76 131.85 13.89"></polygon><polygon class="cls-2" points="138.72 2 47.78 2 2.31 80.76 47.78 159.51 138.72 159.51 184.19 80.76 138.72 2"></polygon><path class="cls-3" d="M103.25,86a36.36,36.36,0,0,0,3.8,16.52,34,34,0,0,0,9.17,11.27,6,6,0,0,1-2.49.53H67.59A6.27,6.27,0,0,1,61.3,108v-5.5a17.14,17.14,0,0,1,2.36-8.79,17.42,17.42,0,0,1,6.42-6.42A17.23,17.23,0,0,1,78.86,85h2.23a22.86,22.86,0,0,0,19.14,0h2.23l.92.13v.4A1.11,1.11,0,0,0,103.25,86ZM90.66,80.76a16.65,16.65,0,0,1-8.45-2.23,16.38,16.38,0,0,1-6.1-6.1,17.14,17.14,0,0,1,0-16.91,16.28,16.28,0,0,1,6.1-6.09,17.14,17.14,0,0,1,16.91,0,16.26,16.26,0,0,1,6.09,6.09,17.14,17.14,0,0,1,0,16.91,16.36,16.36,0,0,1-6.09,6.1A16.71,16.71,0,0,1,90.66,80.76Zm52.18,2a3.72,3.72,0,0,1,1.7,1.31,3.32,3.32,0,0,1,.65,2,31.77,31.77,0,0,1-3,13.9,28,28,0,0,1-7,9.3,24.27,24.27,0,0,1-7.47,4.85,4.08,4.08,0,0,1-2.88,0,23.45,23.45,0,0,1-8.26-5.5A29.26,29.26,0,0,1,110.06,99a32.17,32.17,0,0,1-2.62-13,3.33,3.33,0,0,1,.66-2,3.62,3.62,0,0,1,1.7-1.31l15.08-5.9a4.08,4.08,0,0,1,2.88,0Zm-16.52,25a20.47,20.47,0,0,0,7.73-6.42A24.57,24.57,0,0,0,138.9,88l-12.58-5Z"></path></g></g></svg> 