<?xml version="1.0" encoding="UTF-8"?> <svg xmlns="http://www.w3.org/2000/svg" viewBox="0 0 186.5 161.51"><defs><style>.cls-1{fill:#3f726f;}.cls-2{fill:none;stroke:#3f726f;stroke-miterlimit:10;stroke-width:4px;}.cls-3{fill:#d8eeec;}</style></defs><g id="Layer_2" data-name="Layer 2"><g id="Layer_1-2" data-name="Layer 1"><polygon class="cls-1" points="131.85 13.89 54.65 13.89 16.04 80.76 54.65 147.62 131.85 147.62 170.46 80.76 131.85 13.89"></polygon><polygon class="cls-2" points="138.72 2 47.78 2 2.31 80.76 47.78 159.51 138.72 159.51 184.19 80.76 138.72 2"></polygon><path class="cls-3" d="M94.25,80.83a4.51,4.51,0,0,1,4.46,4.46v2.65l-2.51,2q-4.32,3.49-13.52,10.18a7.51,7.51,0,0,0-2,1.12q-2.93,1.95-4.32,2a5.2,5.2,0,0,1-2.65-1,18.72,18.72,0,0,1-2.51-1.67l-1.11-1Q60.92,93,56.6,89.47l-2.51-2V85.29a4.53,4.53,0,0,1,4.46-4.46ZM76.4,107.6a9.57,9.57,0,0,0,4.6-1.39q1.4-.84,3.63-2.51l.69-.56q7.13-5,12.14-8.92l1.25-.84v18.68a4.51,4.51,0,0,1-4.46,4.46H58.55a4.53,4.53,0,0,1-4.46-4.46V93.38l1.26.84q5,3.9,12.13,8.92l.69.56q2.23,1.67,3.63,2.51A9.6,9.6,0,0,0,76.4,107.6Zm0-35.69v4.46H63V49.6a4.53,4.53,0,0,1,4.46-4.47H112.1a4.54,4.54,0,0,1,4.46,4.47V63H85.32a9.05,9.05,0,0,0-8.92,8.93Zm53.54-4.47a4.54,4.54,0,0,1,4.47,4.47V98.68a4.54,4.54,0,0,1-4.47,4.46H103.17V84.45a9,9,0,0,0-2.93-5.78,8.53,8.53,0,0,0-6-2.3H80.86V71.91a4.54,4.54,0,0,1,4.46-4.47Zm-4.46,17.85V76.37h-8.92v8.92Z"></path></g></g></svg> 