<?xml version="1.0" encoding="UTF-8"?> <svg xmlns="http://www.w3.org/2000/svg" viewBox="0 0 186.5 161.51"><defs><style>.cls-1{fill:none;stroke:#3f726f;stroke-miterlimit:10;stroke-width:4px;}.cls-2{fill:#3f726f;}.cls-3{fill:#d8eeec;}</style></defs><g id="Layer_2" data-name="Layer 2"><g id="Layer_1-2" data-name="Layer 1"><polygon class="cls-1" points="138.72 2 47.78 2 2.31 80.76 47.78 159.51 138.72 159.51 184.19 80.76 138.72 2"></polygon><polygon class="cls-2" points="131.85 13.89 54.65 13.89 16.04 80.76 54.65 147.62 131.85 147.62 170.46 80.76 131.85 13.89"></polygon><path class="cls-3" d="M131,51.39a4.27,4.27,0,0,1,4.2,4.2v50.34a4.25,4.25,0,0,1-4.2,4.19H55.49a4.23,4.23,0,0,1-4.19-4.19V55.59a4.25,4.25,0,0,1,4.19-4.2ZM74.37,90.2a5.81,5.81,0,0,0,4-1.84A5.67,5.67,0,0,0,80,84.3a5.8,5.8,0,0,0-1.18-3.54,6.39,6.39,0,0,0-3-2.23l-5.9-1.71a1.43,1.43,0,0,1-.85-.58,1.88,1.88,0,0,1-.33-1.12,1.77,1.77,0,0,1,.46-1.18,1.43,1.43,0,0,1,1.12-.52H74a3.26,3.26,0,0,1,1.7.46A1,1,0,0,0,77,73.81l1.58-1.44a1,1,0,0,0,.32-.85,1,1,0,0,0-.46-.73,7.12,7.12,0,0,0-4.06-1.57v-2.1A1,1,0,0,0,74,66.4a1,1,0,0,0-.72-.32h-2.1a1,1,0,0,0-.72.32,1,1,0,0,0-.32.72v2.1a5.79,5.79,0,0,0-4,1.84,5.66,5.66,0,0,0-1.64,4.06,5.74,5.74,0,0,0,1.18,3.54,6.36,6.36,0,0,0,3,2.23l5.9,1.7a1.46,1.46,0,0,1,.85.59,1.88,1.88,0,0,1,.33,1.12,1.74,1.74,0,0,1-.46,1.18,1.4,1.4,0,0,1-1.11.52H70.57a3.32,3.32,0,0,1-1.71-.46,1,1,0,0,0-1.31.07L66,87.05a1,1,0,0,0-.33.85,1,1,0,0,0,.46.72,7.19,7.19,0,0,0,4.07,1.58v2.09a1,1,0,0,0,.32.72,1,1,0,0,0,.72.33h2.1A1,1,0,0,0,74,93a1,1,0,0,0,.33-.72Zm52.44-14.69V73.42a1,1,0,0,0-.33-.72,1,1,0,0,0-.72-.33H90.1a1,1,0,0,0-.72.33,1,1,0,0,0-.33.72v2.09a1,1,0,0,0,.33.73,1,1,0,0,0,.72.32h35.66a1,1,0,0,0,.72-.32A1,1,0,0,0,126.81,75.51Zm-21,12.59V86a1,1,0,0,0-.33-.72,1,1,0,0,0-.72-.33H90.1a1.14,1.14,0,0,0-1,1v2.1a1.14,1.14,0,0,0,1,1.05h14.68a1,1,0,0,0,.72-.33A1,1,0,0,0,105.83,88.1Zm21,0V86a1.14,1.14,0,0,0-1-1H115.27a1.14,1.14,0,0,0-1,1v2.1a1.14,1.14,0,0,0,1,1.05h10.49a1.14,1.14,0,0,0,1-1.05Z"></path><rect class="cls-3" x="94.63" y="26.7" width="6" height="104.63" rx="1.21" transform="translate(-27.28 92.18) rotate(-45)"></rect><rect class="cls-2" x="91.91" y="30.31" width="4.22" height="104.63" transform="translate(-30.89 90.68) rotate(-45)"></rect></g></g></svg> 