<?xml version="1.0" encoding="UTF-8"?> <svg xmlns="http://www.w3.org/2000/svg" viewBox="0 0 196.12 196.12"><defs><style>.cls-1,.cls-2{fill:#dde7e7;}.cls-2,.cls-4{fill-rule:evenodd;}.cls-3,.cls-4{fill:#659a97;}</style></defs><g id="Layer_2" data-name="Layer 2"><g id="Send_It_Page" data-name="Send It Page"><path class="cls-1" d="M100.06,196.12a96.06,96.06,0,1,1,96.06-96.06A96.17,96.17,0,0,1,100.06,196.12Zm0-182.12a86.06,86.06,0,1,0,86.06,86.06A86.16,86.16,0,0,0,100.06,14Z"></path><path class="cls-2" d="M127.66,50.12h9.2a31.61,31.61,0,0,1-3.81,15.27A32.28,32.28,0,0,1,108,82.25a36.47,36.47,0,0,0-8.49-15.56,33.39,33.39,0,0,1,11.79-12A31,31,0,0,1,127.66,50.12ZM95.46,103V91.62A31.49,31.49,0,0,1,79.29,87.3,32,32,0,0,1,67.57,75.55a31.62,31.62,0,0,1-4.31-16.21h9.2a31.54,31.54,0,0,1,16.17,4.32,32.19,32.19,0,0,1,16,28V103h26.86a2.78,2.78,0,0,1,2.78,2.78v5.56a2.79,2.79,0,0,1-2.78,2.79H68.6a2.79,2.79,0,0,1-2.78-2.79v-5.56A2.78,2.78,0,0,1,68.6,103ZM72.25,116.63h55.62L121.14,147a7.41,7.41,0,0,1-7.37,6.69H86.35A7.41,7.41,0,0,1,79,147Z"></path><path class="cls-2" d="M53.05,63.19c-.11-1.26-.16-2.55-.16-3.85A10.34,10.34,0,0,1,56,52L37.72,33.72a5,5,0,0,0-7.07,7.07Zm10.29-3.85,41.32,41.32V103H107L118.1,114.1H104L92.83,103h2.63V91.62A31.49,31.49,0,0,1,79.29,87.3,32,32,0,0,1,67.57,75.55a31.62,31.62,0,0,1-4.31-16.21Zm63.22,63.21L124,134.13l-17.51-17.5h14.15Zm8.69,8.7-2.57,11.57,26.67,26.67a5,5,0,0,0,7.07-7.07Z"></path><path class="cls-3" d="M96.06,192.12a96.06,96.06,0,1,1,96.06-96.06A96.17,96.17,0,0,1,96.06,192.12ZM96.06,10a86.06,86.06,0,1,0,86.06,86.06A86.16,86.16,0,0,0,96.06,10Z"></path><path class="cls-4" d="M123.66,46.12h9.2a31.61,31.61,0,0,1-3.81,15.27A32.28,32.28,0,0,1,104,78.25a36.47,36.47,0,0,0-8.49-15.56,33.39,33.39,0,0,1,11.79-12A31,31,0,0,1,123.66,46.12ZM91.46,99V87.62A31.49,31.49,0,0,1,75.29,83.3,32,32,0,0,1,63.57,71.55a31.62,31.62,0,0,1-4.31-16.21h9.2a31.54,31.54,0,0,1,16.17,4.32,32.19,32.19,0,0,1,16,28V99h26.86a2.78,2.78,0,0,1,2.78,2.78v5.56a2.79,2.79,0,0,1-2.78,2.79H64.6a2.79,2.79,0,0,1-2.78-2.79v-5.56A2.78,2.78,0,0,1,64.6,99ZM68.25,112.63h55.62L117.14,143a7.41,7.41,0,0,1-7.37,6.69H82.35A7.41,7.41,0,0,1,75,143Z"></path><path class="cls-4" d="M49.05,59.19c-.11-1.26-.16-2.55-.16-3.85A10.34,10.34,0,0,1,52,48L33.72,29.72a5,5,0,1,0-7.07,7.07Zm10.29-3.85,41.32,41.32V99H103L114.1,110.1H100L88.83,99h2.63V87.62A31.49,31.49,0,0,1,75.29,83.3,32,32,0,0,1,63.57,71.55a31.62,31.62,0,0,1-4.31-16.21Zm63.22,63.21L120,130.13l-17.51-17.5h14.15Zm8.69,8.7-2.57,11.57,26.67,26.67a5,5,0,0,0,7.07-7.07Z"></path></g></g></svg> 