<?xml version="1.0" encoding="UTF-8"?> <svg xmlns="http://www.w3.org/2000/svg" viewBox="0 0 186.5 161.51"><defs><style>.cls-1{fill:none;stroke:#3f726f;stroke-miterlimit:10;stroke-width:4px;}.cls-2{fill:#3f726f;}.cls-3{fill:#d8eeec;}</style></defs><g id="Layer_2" data-name="Layer 2"><g id="Layer_1-2" data-name="Layer 1"><polygon class="cls-1" points="138.72 2 47.78 2 2.31 80.76 47.78 159.51 138.72 159.51 184.19 80.76 138.72 2"></polygon><polygon class="cls-2" points="131.85 13.89 54.65 13.89 16.04 80.76 54.65 147.62 131.85 147.62 170.46 80.76 131.85 13.89"></polygon><path class="cls-3" d="M106.37,87a2.86,2.86,0,0,1,1.45,1.64,2.71,2.71,0,0,1-.13,2.16q-1.18,3.42-5.51,8.65a3.44,3.44,0,0,1-1.9,1,2.94,2.94,0,0,1-2-.33l-3.8-2.23a23.94,23.94,0,0,1-7.21,4.2v4.45a3,3,0,0,1-.79,2,2.89,2.89,0,0,1-1.84,1,27.33,27.33,0,0,1-10,0,2.71,2.71,0,0,1-1.9-1,3.13,3.13,0,0,1-.72-2v-4.45a21.94,21.94,0,0,1-7.21-4.2L61,100.14a3.42,3.42,0,0,1-2.17.33,2.81,2.81,0,0,1-1.76-1,32.36,32.36,0,0,1-5.51-8.65,2.67,2.67,0,0,1-.13-2.16A2.81,2.81,0,0,1,52.89,87l4.33-2.23a21.65,21.65,0,0,1,0-8.26l-4.33-2.22a3.4,3.4,0,0,1-1.44-1.71,2.54,2.54,0,0,1,.13-2.1,32.52,32.52,0,0,1,5.51-8.65,2.63,2.63,0,0,1,1.76-1.11,3,3,0,0,1,2.17.46l3.8,2.1A21.73,21.73,0,0,1,72,59.24V54.78a3.06,3.06,0,0,1,.72-2,2.78,2.78,0,0,1,1.9-1,29.23,29.23,0,0,1,10-.13,3.66,3.66,0,0,1,1.84,1.11,2.93,2.93,0,0,1,.79,2v4.46a25.58,25.58,0,0,1,7.21,4.07l3.8-2.1a2.58,2.58,0,0,1,2-.46,3.17,3.17,0,0,1,1.9,1.11,30.29,30.29,0,0,1,5.51,8.65,3.16,3.16,0,0,1,.06,2.1,3.1,3.1,0,0,1-1.38,1.71l-4.45,2.22a22.06,22.06,0,0,1,0,8.26Zm-17.3-7A9.44,9.44,0,0,0,86.32,74a9.24,9.24,0,0,0-6.16-2.82,10.54,10.54,0,0,0-7.48,2.62,10.8,10.8,0,0,0-2.49,7.47A9.22,9.22,0,0,0,79,90.05a11.26,11.26,0,0,0,7.6-2.49A10.71,10.71,0,0,0,89.07,80.08Zm28.32-5.89a1.48,1.48,0,0,1-.86.72,1.93,1.93,0,0,1-1.11.06,14.5,14.5,0,0,1-4.2-2.49,1.44,1.44,0,0,1-.59-1,2,2,0,0,1,.2-1.12l1-1.83a13.36,13.36,0,0,1-2.1-3.54h-2.09a1.68,1.68,0,0,1-1.12-.39,1.32,1.32,0,0,1-.46-1.05,12.94,12.94,0,0,1-.13-4.85,1.75,1.75,0,0,1,.59-.92,1.68,1.68,0,0,1,1.12-.39h2.09a15.84,15.84,0,0,1,2.1-3.68l-1-1.83a2,2,0,0,1-.2-1.11,1.44,1.44,0,0,1,.59-1,16.79,16.79,0,0,1,4.2-2.36,1.52,1.52,0,0,1,2,.66l1,2a11.41,11.41,0,0,1,4.2,0l1.05-2a1.39,1.39,0,0,1,.85-.72,1.42,1.42,0,0,1,1.11.06,12.4,12.4,0,0,1,4.2,2.36,1.41,1.41,0,0,1,.59,1,1.94,1.94,0,0,1-.2,1.11l-1,1.83a15.15,15.15,0,0,1,2.1,3.68h2.1a1.64,1.64,0,0,1,1.11.39,1.17,1.17,0,0,1,.46.92,11.33,11.33,0,0,1,0,4.85,1.32,1.32,0,0,1-.46,1.05,1.64,1.64,0,0,1-1.11.39h-2.1a12.85,12.85,0,0,1-2.1,3.54l1,1.83a2,2,0,0,1,.2,1.12,1.41,1.41,0,0,1-.59,1,14.24,14.24,0,0,1-4.2,2.49,1.94,1.94,0,0,1-1.11-.06,1.46,1.46,0,0,1-.85-.72l-1.05-1.84a11.41,11.41,0,0,1-4.2,0Zm0,39.19a1.41,1.41,0,0,1-.86.72,2,2,0,0,1-1.11.07,14.5,14.5,0,0,1-4.2-2.49,1.46,1.46,0,0,1-.59-1,2,2,0,0,1,.2-1.11l1-1.84a13.21,13.21,0,0,1-2.1-3.54h-2.09a1.68,1.68,0,0,1-1.12-.39,1.3,1.3,0,0,1-.46-1,12.93,12.93,0,0,1-.13-4.85,1.78,1.78,0,0,1,.59-.92,1.68,1.68,0,0,1,1.12-.39h2.09a15.77,15.77,0,0,1,2.1-3.67l-1-1.83a2.06,2.06,0,0,1-.2-1.12,1.44,1.44,0,0,1,.59-1,12.42,12.42,0,0,1,4.2-2.36,1.38,1.38,0,0,1,1.11-.07,1.41,1.41,0,0,1,.86.72l1,1.84a13.47,13.47,0,0,1,4.2.13l1.05-2a1.39,1.39,0,0,1,.85-.72,1.38,1.38,0,0,1,1.11.07,12.24,12.24,0,0,1,4.2,2.36,1.41,1.41,0,0,1,.59,1,2,2,0,0,1-.2,1.12l-1,1.83a15.09,15.09,0,0,1,2.1,3.67h2.1a1.64,1.64,0,0,1,1.11.39,1.18,1.18,0,0,1,.46.92,11.33,11.33,0,0,1,0,4.85,1.3,1.3,0,0,1-.46,1,1.64,1.64,0,0,1-1.11.39h-2.1a12.71,12.71,0,0,1-2.1,3.54l1,1.84a1.94,1.94,0,0,1,.2,1.11,1.43,1.43,0,0,1-.59,1,14.24,14.24,0,0,1-4.2,2.49,2,2,0,0,1-1.11-.07,1.39,1.39,0,0,1-.85-.72l-1.05-1.83a11.41,11.41,0,0,1-4.2,0Zm4.52-47.65a4.39,4.39,0,0,0,3.14-3.15,5.39,5.39,0,0,0-1.11-4.91,5,5,0,0,0-4.78-1.05A4.55,4.55,0,0,0,116,59.83a4.65,4.65,0,0,0,5.9,5.9Zm0,39.13a4.53,4.53,0,0,0,3.14-3.15,5.3,5.3,0,0,0-1.11-4.85,5,5,0,0,0-4.78-1A4.58,4.58,0,0,0,116,99a5.12,5.12,0,0,0,1.11,4.78A5,5,0,0,0,121.91,104.86Z"></path></g></g></svg> 