<?xml version="1.0" encoding="UTF-8"?> <svg xmlns="http://www.w3.org/2000/svg" viewBox="0 0 186.5 161.51"><defs><style>.cls-1{fill:#3f726f;}.cls-2{fill:#d8eeec;}.cls-3{fill:none;stroke:#3f726f;stroke-miterlimit:10;stroke-width:4px;}</style></defs><g id="Layer_2" data-name="Layer 2"><g id="Layer_1-2" data-name="Layer 1"><polygon class="cls-1" points="131.85 13.89 54.65 13.89 16.04 80.76 54.65 147.62 131.85 147.62 170.46 80.76 131.85 13.89"></polygon><path class="cls-2" d="M102.87,36.41a2.34,2.34,0,0,1,2.36,2.35V69.37a4.71,4.71,0,0,1-4.71,4.71H54.21a5.53,5.53,0,0,1-5.49-5.5V41.9a2.28,2.28,0,0,1,.69-1.67,2.26,2.26,0,0,1,1.67-.68H55v-.79a2.34,2.34,0,0,1,2.35-2.35Zm-48.66,33a.86.86,0,0,0,.79-.79V44.25H53.43V68.58a.87.87,0,0,0,.78.79ZM97.77,49a1.1,1.1,0,0,0,.83-.34,1.14,1.14,0,0,0,.35-.83V43.86A1.14,1.14,0,0,0,98.6,43a1.1,1.1,0,0,0-.83-.34H62.46a1.16,1.16,0,0,0-1.18,1.17v3.93A1.16,1.16,0,0,0,62.46,49Zm-20.4,9.42a1.16,1.16,0,0,0,1.17-1.18v-.78a1.1,1.1,0,0,0-.34-.83,1.14,1.14,0,0,0-.83-.35H62.46a1.15,1.15,0,0,0-.84.35,1.1,1.1,0,0,0-.34.83v.78a1.16,1.16,0,0,0,1.18,1.18Zm0,9.42a1.14,1.14,0,0,0,.83-.35,1.1,1.1,0,0,0,.34-.83v-.78a1.16,1.16,0,0,0-1.17-1.18H62.46a1.16,1.16,0,0,0-1.18,1.18v.78a1.1,1.1,0,0,0,.34.83,1.15,1.15,0,0,0,.84.35Zm20.4-9.42A1.1,1.1,0,0,0,98.6,58,1.15,1.15,0,0,0,99,57.2v-.78a1.2,1.2,0,0,0-1.18-1.18H82.86a1.2,1.2,0,0,0-1.18,1.18v.78A1.15,1.15,0,0,0,82,58a1.1,1.1,0,0,0,.83.34Zm0,9.42A1.2,1.2,0,0,0,99,66.62v-.78A1.15,1.15,0,0,0,98.6,65a1.1,1.1,0,0,0-.83-.34H82.86A1.1,1.1,0,0,0,82,65a1.15,1.15,0,0,0-.35.84v.78a1.2,1.2,0,0,0,1.18,1.18Z"></path><path class="cls-1" d="M106.46,100.41A11.37,11.37,0,0,1,95,89V57.6a11.37,11.37,0,0,1,11.42-11.41h32.17A4.34,4.34,0,0,1,143,50.54v33a4.24,4.24,0,0,1-1.05,2.88,20.92,20.92,0,0,0-.13,2.62,18.92,18.92,0,0,0,.14,2.66,4.34,4.34,0,0,1,1,2.83v1.57a4.34,4.34,0,0,1-4.36,4.35Z"></path><path class="cls-1" d="M138.64,48.19A2.34,2.34,0,0,1,141,50.54v33a2.24,2.24,0,0,1-.88,1.87,15.23,15.23,0,0,0-.3,3.63,15.23,15.23,0,0,0,.3,3.63,2.4,2.4,0,0,1,.88,1.86v1.57a2.34,2.34,0,0,1-2.35,2.35H106.46A9.37,9.37,0,0,1,97,89V57.6a9.37,9.37,0,0,1,9.42-9.41h32.18m0-4H106.46A13.37,13.37,0,0,0,93,57.6V89a13.38,13.38,0,0,0,13.42,13.41h32.18A6.35,6.35,0,0,0,145,96.06V94.49a6.4,6.4,0,0,0-1.11-3.6c0-.4-.07-1-.07-1.89s0-1.45.06-1.85A6.28,6.28,0,0,0,145,83.5v-33a6.33,6.33,0,0,0-6.35-6.35Z"></path><path class="cls-2" d="M141,83.5a2.24,2.24,0,0,1-.88,1.87,15.23,15.23,0,0,0-.3,3.63,15.23,15.23,0,0,0,.3,3.63,2.4,2.4,0,0,1,.88,1.86v1.57a2.34,2.34,0,0,1-2.35,2.35H106.46A9.37,9.37,0,0,1,97,89V57.6a9.37,9.37,0,0,1,9.42-9.41h32.18A2.34,2.34,0,0,1,141,50.54Zm-6.57,8.64c-.07-.86-.1-1.9-.1-3.14s0-2.29.1-3.14h-28a3.14,3.14,0,0,0,0,6.28ZM109.6,61.33v2a.66.66,0,0,0,.59.59H131a.66.66,0,0,0,.59-.59v-2a.55.55,0,0,0-.19-.39.59.59,0,0,0-.4-.2H110.19a.59.59,0,0,0-.4.2A.55.55,0,0,0,109.6,61.33Zm0,6.28v2a.69.69,0,0,0,.59.59H131a.69.69,0,0,0,.59-.59v-2a.55.55,0,0,0-.19-.39.59.59,0,0,0-.4-.2H110.19a.59.59,0,0,0-.4.2A.55.55,0,0,0,109.6,67.61Z"></path><path class="cls-1" d="M79,131.92a26.33,26.33,0,1,1,26.33-26.32A26.36,26.36,0,0,1,79,131.92Z"></path><path class="cls-1" d="M79,81.27A24.33,24.33,0,1,1,54.65,105.6,24.33,24.33,0,0,1,79,81.27m0-4a28.33,28.33,0,1,0,28.33,28.33A28.36,28.36,0,0,0,79,77.27Z"></path><path class="cls-2" d="M79,81.27a23.59,23.59,0,0,1,12.17,3.28A24.62,24.62,0,0,1,100,93.43a24.2,24.2,0,0,1,0,24.33,24.62,24.62,0,0,1-8.88,8.88,24.2,24.2,0,0,1-24.33,0,24.55,24.55,0,0,1-8.88-8.88,24.14,24.14,0,0,1,0-24.33,24.55,24.55,0,0,1,8.88-8.88A23.58,23.58,0,0,1,79,81.27ZM63.29,105.6a15.3,15.3,0,0,1,2.11-7.85A15.5,15.5,0,0,1,71.14,92,15.29,15.29,0,0,1,79,89.9V86.76a18.14,18.14,0,0,0-9.41,2.55,19.17,19.17,0,0,0-6.87,6.87,18.2,18.2,0,0,0-2.55,9.42ZM79,115a9.36,9.36,0,1,0-6.67-2.74A9.07,9.07,0,0,0,79,115Zm0-12.55a3.14,3.14,0,1,1-2.2,5.34,3.14,3.14,0,0,1,2.2-5.34Z"></path><polygon class="cls-3" points="138.72 2 47.78 2 2.31 80.76 47.78 159.51 138.72 159.51 184.19 80.76 138.72 2"></polygon></g></g></svg> 