<?xml version="1.0" encoding="UTF-8"?> <svg xmlns="http://www.w3.org/2000/svg" viewBox="0 0 186.5 161.51"><defs><style>.cls-1{fill:#3f726f;}.cls-2{fill:none;stroke:#3f726f;stroke-miterlimit:10;stroke-width:4px;}.cls-3{fill:#d8eeec;}</style></defs><g id="Layer_2" data-name="Layer 2"><g id="Layer_1-2" data-name="Layer 1"><polygon class="cls-1" points="131.85 13.89 54.65 13.89 16.04 80.76 54.65 147.62 131.85 147.62 170.46 80.76 131.85 13.89"></polygon><polygon class="cls-2" points="138.72 2 47.78 2 2.31 80.76 47.78 159.51 138.72 159.51 184.19 80.76 138.72 2"></polygon><path class="cls-3" d="M120.53,80.76V79.4L109.16,68h-5V80.76Zm-9.09,23.64A5.43,5.43,0,0,0,116.89,99a5.46,5.46,0,1,0-9.32,3.86A5.23,5.23,0,0,0,111.44,104.4Zm-36.38,0a5.46,5.46,0,0,0,3.86-9.32,5.47,5.47,0,1,0-3.86,9.32Zm52.75-12.72a1.77,1.77,0,0,1,1.31.5,1.79,1.79,0,0,1,.51,1.31v3.64A1.76,1.76,0,0,1,127.81,99h-5.46a10.92,10.92,0,1,1-21.83,0H86a10.93,10.93,0,0,1-18.64,7.73A10.53,10.53,0,0,1,64.15,99V84.39H81.43a.86.86,0,0,0,.62-.28.85.85,0,0,0,.28-.63V81.67a.89.89,0,0,0-.28-.63.86.86,0,0,0-.62-.28H57.78a1,1,0,0,1-.91-.91V78a.83.83,0,0,1,.28-.62.84.84,0,0,1,.63-.29H85.06a.87.87,0,0,0,.63-.28.89.89,0,0,0,.28-.63V74.4a.85.85,0,0,0-.28-.63.87.87,0,0,0-.63-.28H61.42a.92.92,0,0,1-.63-.29.86.86,0,0,1-.28-.62V70.76a.87.87,0,0,1,.28-.63.88.88,0,0,1,.63-.29H88.7a.9.9,0,0,0,.63-.27.91.91,0,0,0,.28-.64V67.11a.86.86,0,0,0-.28-.62.92.92,0,0,0-.63-.29H57.78a.87.87,0,0,1-.63-.28.83.83,0,0,1-.28-.62V63.48a.89.89,0,0,1,.28-.63.87.87,0,0,1,.63-.28h6.37V57.11a5.45,5.45,0,0,1,5.45-5.46H98.71a5.45,5.45,0,0,1,5.45,5.46v5.46h5A5.27,5.27,0,0,1,113,64.16L124.4,75.53A5.25,5.25,0,0,1,126,79.4V91.68Z"></path></g></g></svg> 