<?xml version="1.0" encoding="UTF-8"?> <svg xmlns="http://www.w3.org/2000/svg" viewBox="0 0 196.11 196.11"><defs><style>.cls-1{isolation:isolate;}.cls-2{opacity:0.05;mix-blend-mode:darken;}.cls-3{fill:#231f20;}.cls-4{fill:#659a97;}.cls-5{fill:#ddb893;}</style></defs><g class="cls-1"><g id="Layer_2" data-name="Layer 2"><g id="Get_It_Page" data-name="Get It Page"><g class="cls-2"><path class="cls-3" d="M100.06,196.11a96.06,96.06,0,1,1,96.05-96.06A96.17,96.17,0,0,1,100.06,196.11Zm0-182.11a86.06,86.06,0,1,0,86.05,86.05A86.15,86.15,0,0,0,100.06,14Z"></path><path class="cls-3" d="M143.74,100.68a7,7,0,0,1,4.32,6.38v20.62a6.77,6.77,0,0,1-1,3.56,6,6,0,0,1-2.72,2.44l-18.75,9.38a6.38,6.38,0,0,1-6,0l-19.5-9.75-19.5,9.75a6.38,6.38,0,0,1-6,0l-18.75-9.38a6,6,0,0,1-2.72-2.44,6.68,6.68,0,0,1-1-3.56V107.06a7,7,0,0,1,4.31-6.38l18.19-6.75V73.49a6.23,6.23,0,0,1,1.22-3.75,6.93,6.93,0,0,1,3.09-2.43l18.75-7.13a6.61,6.61,0,0,1,4.87,0l18.75,7.13a7,7,0,0,1,3.1,2.43,6.3,6.3,0,0,1,1.22,3.75V93.93Zm-47.06,6.19L77.56,99.56l-19.13,7.31,19.13,7.87Zm0,21V113.81l-15.94,7.31v14.81ZM80.93,73.31v.18l19.13,7.69,19.12-7.69v-.18l-19.12-7.13Zm38.25,20.81V80.24l-15.94,6.94v12.94Zm22.5,12.75-19.12-7.31-19.13,7.31,19.13,7.87Zm0,21V113.81l-15.94,7.31v14.81Z"></path><path class="cls-3" d="M100.06,14A86.06,86.06,0,1,1,14,100.06,86.06,86.06,0,0,1,100.06,14m0-10a96.06,96.06,0,1,0,96.05,96.06A96.17,96.17,0,0,0,100.06,4Z"></path><path class="cls-3" d="M149.38,142.31q-.37.21-.75.39L140,147l21.72,21.72,7.07-7.07Z"></path><path class="cls-3" d="M67.67,63.89a17.36,17.36,0,0,1,1.49-1.8L39,31.88,31.88,39,64.66,71.73A16.23,16.23,0,0,1,67.67,63.89Z"></path></g><path class="cls-4" d="M96.06,192.11a96.06,96.06,0,1,1,96.05-96.06A96.17,96.17,0,0,1,96.06,192.11ZM96.06,10a86.06,86.06,0,1,0,86.05,86.05A86.15,86.15,0,0,0,96.06,10Z"></path><path class="cls-5" d="M139.74,96.68a7,7,0,0,1,4.32,6.38v20.62a6.77,6.77,0,0,1-1,3.56,6,6,0,0,1-2.72,2.44l-18.75,9.38a6.38,6.38,0,0,1-6,0l-19.5-9.75-19.5,9.75a6.38,6.38,0,0,1-6,0l-18.75-9.38a6,6,0,0,1-2.72-2.44,6.68,6.68,0,0,1-1-3.56V103.06a7,7,0,0,1,4.31-6.38l18.19-6.75V69.49a6.23,6.23,0,0,1,1.22-3.75,6.93,6.93,0,0,1,3.09-2.43l18.75-7.13a6.61,6.61,0,0,1,4.87,0l18.75,7.13a7,7,0,0,1,3.1,2.43,6.3,6.3,0,0,1,1.22,3.75V89.93Zm-47.06,6.19L73.56,95.56l-19.13,7.31,19.13,7.87Zm0,21V109.81l-15.94,7.31v14.81ZM76.93,69.31v.18l19.13,7.69,19.12-7.69v-.18L96.06,62.18Zm38.25,20.81V76.24L99.24,83.18V96.12Zm22.5,12.75-19.12-7.31-19.13,7.31,19.13,7.87Zm0,21V109.81l-15.94,7.31v14.81Z"></path><path class="cls-5" d="M96.06,10A86.06,86.06,0,1,1,10,96.06,86.06,86.06,0,0,1,96.06,10m0-10a96.06,96.06,0,1,0,96.05,96.06A96.17,96.17,0,0,0,96.06,0Z"></path><path class="cls-5" d="M145.38,138.31q-.37.21-.75.39L136,143l21.72,21.72,7.07-7.07Z"></path><path class="cls-5" d="M63.67,59.89a17.36,17.36,0,0,1,1.49-1.8L35,27.88,27.88,35,60.66,67.73A16.23,16.23,0,0,1,63.67,59.89Z"></path></g></g></g></svg> 