<?xml version="1.0" encoding="UTF-8"?> <svg xmlns="http://www.w3.org/2000/svg" viewBox="0 0 196.12 196.11"><defs><style>.cls-1,.cls-2{fill:#dde7e7;}.cls-2,.cls-4{fill-rule:evenodd;}.cls-3,.cls-4{fill:#659a97;}</style></defs><g id="Layer_2" data-name="Layer 2"><g id="Send_It_Page" data-name="Send It Page"><path class="cls-1" d="M100.06,196.11a96.06,96.06,0,1,1,96.06-96.06A96.17,96.17,0,0,1,100.06,196.11Zm0-182.11a86.06,86.06,0,1,0,86.06,86.05A86.15,86.15,0,0,0,100.06,14Z"></path><path class="cls-1" d="M62.55,66.35a2.51,2.51,0,0,1-.3,2,2.62,2.62,0,0,1-3.61.93,2.46,2.46,0,0,1-1.22-1.59,2.68,2.68,0,0,1,1.91-3.21,2.67,2.67,0,0,1,3.22,1.88ZM42,71.65a2.5,2.5,0,0,1-.3,2,2.56,2.56,0,0,1-1.61,1.22A2.69,2.69,0,0,1,36.88,73a2.68,2.68,0,0,1,1.91-3.21,2.57,2.57,0,0,1,2,.29A2.51,2.51,0,0,1,42,71.65Zm11.44,12.5,16.72,9.77a1.08,1.08,0,0,0,.81.14.81.81,0,0,0,.56-.49,6.72,6.72,0,0,0-2.43-9.39L57.51,77.33,59,74.82a7.52,7.52,0,0,0,3-.17A7.71,7.71,0,0,0,66.84,71,7.92,7.92,0,0,0,64,60.19,8,8,0,0,0,53.13,63a7.62,7.62,0,0,0-.85,6,8.1,8.1,0,0,0,.35,1l-2,3.31-3.32-2a6.15,6.15,0,0,0-.19-1,7.88,7.88,0,0,0-9.67-5.65,7.88,7.88,0,0,0-5.73,9.63,7.59,7.59,0,0,0,3.64,4.83,7.92,7.92,0,0,0,8.7-.46l2.52,1.47L39.77,91.76a6.72,6.72,0,0,0,2.42,9.39.81.81,0,0,0,.73.16,1.06,1.06,0,0,0,.64-.51Z"></path><path class="cls-2" d="M61.7,79.8l7.42,4.38a6.72,6.72,0,0,1,2.43,9.39.81.81,0,0,1-.56.49,1.08,1.08,0,0,1-.81-.14L57.1,86.28A22.11,22.11,0,0,1,61.7,79.8Zm8.61-5.66A75.56,75.56,0,0,1,84.9,69.68c13-2.87,16.76-18.16,38.94-15.76,22.53,2.43,40.94,22,37.18,51.63-1.32,10.44,9,7.1,6.87,20.82-1.37,9-13.71,18-33.49,19.64V129.57l.62-.42a30.44,30.44,0,0,0,7.43-7.58l-.58-.35-.56-.4-.56-.45-.53-.49-.52-.54-.6-.69-.49-.64-.55-.8-.45-.73-.5-.9-.41-.82-.44-1-.39-1-.34-.94-.27-.88L135,110l-.24-1-.22-1-.18-1-.16-1-.15-1.29-.1-1.09-.06-1.11,0-1.13v-.45c0-.54,0-1.07,0-1.6s.06-1,.1-1.54c.06-.69.13-1.38.22-2a35.3,35.3,0,0,1,.78-3.92c.12-.45.25-.9.38-1.33l.1-.3-1.07.46-.13,0c-.55.23-1.13.44-1.71.65l-.35.12-.89.3-1.2.36c-1.06.31-2.16.59-3.29.83-.79.17-1.6.33-2.43.46l-.63.11-.85.12-1.29.17-.35,0c-.69.08-1.39.14-2.1.19l-.75,0c-.7,0-1.4.07-2.11.09h-1.89l-1.75,0-1.91-.06L109.19,94,108,93.91l-1.13-.09-1.29-.12-1.75-.2-1.57-.22-1-.16-1-.18-1-.22L98,92.42l-1.29-.35-.83-.26-.77-.26a24.73,24.73,0,0,1-2.6-1.07,44.65,44.65,0,0,0-.7,8,41.52,41.52,0,0,0,3.81,17.81,32.06,32.06,0,0,0,10.44,12.84,25.3,25.3,0,0,0,7.56,3.71V145c-11.3-3.5-19.28-18-31.12-25C63.43,108.82,55,112.27,55,112.27c-1.21-9.06-1-16.07.51-21.58l12.36,7.22a5.47,5.47,0,0,0,4.28.61,5.1,5.1,0,0,0,3.48-2.78,11.31,11.31,0,0,0-4.2-15.56L66.88,77.5A11.92,11.92,0,0,0,70.31,74.14Z"></path><path class="cls-2" d="M56.54,118.58a18.91,18.91,0,0,1-1.83,4.26,12.31,12.31,0,0,1-1.21,1.67,12,12,0,0,1-2.45,2.15,7.1,7.1,0,0,1-1.24.67,9,9,0,0,1-1.79.56,11.78,11.78,0,0,1-2.76.22,14.77,14.77,0,0,1-2.69-.3,22.32,22.32,0,0,1-3.76-1.17,34.33,34.33,0,0,0,4.22-1.2,29.94,29.94,0,0,0,3.68-1.6l1.13-.55,1.15-.48c.77-.32,1.55-.6,2.36-1a25.33,25.33,0,0,0,3.13-1.73C55.18,119.59,55.82,119.17,56.54,118.58Z"></path><path class="cls-2" d="M69.72,126.21a41.82,41.82,0,0,0,5,12.87c.41.69.83,1.34,1.24,2l.82,1.31c.7,1.15,1.38,2.26,2.13,3.31a45.3,45.3,0,0,0,3.83,4.82A57.38,57.38,0,0,0,87.32,155a42.85,42.85,0,0,1-6.18-2.45,28.58,28.58,0,0,1-3.87-2.38,23.7,23.7,0,0,1-3.47-3.06,18.07,18.07,0,0,1-1.9-2.48,15.72,15.72,0,0,1-1.11-2.07,22.54,22.54,0,0,1-1.9-8.63A33.31,33.31,0,0,1,69.72,126.21Z"></path><path class="cls-2" d="M65,121.36a39.17,39.17,0,0,0-2.5,8.13,40,40,0,0,0-.7,5.3c-.06.79-.08,1.57-.11,2.34,0,.52,0,1-.07,1.54-.07,1.35-.14,2.65-.12,3.93a47.14,47.14,0,0,0,.42,6.15,55.61,55.61,0,0,0,1.24,6.34,41.91,41.91,0,0,1-3.7-5.53,27.66,27.66,0,0,1-1.84-4.14,23.52,23.52,0,0,1-1.12-4.5,17.81,17.81,0,0,1-.17-3.11,15.54,15.54,0,0,1,.27-2.34,22,22,0,0,1,1.65-5.17,21,21,0,0,1,1.67-3A33.89,33.89,0,0,1,65,121.36Z"></path><path class="cls-2" d="M49.7,59.83a12.08,12.08,0,0,1,7.16-4.92,15.37,15.37,0,0,1,1.72-.34L37.72,33.71a5,5,0,0,0-7.07,7.07ZM53,63.17l.09-.16A8,8,0,0,1,64,60.19l.43.27,2.19,2.19a8.08,8.08,0,0,1,1,2.38,7.54,7.54,0,0,1-.62,5.58A38.52,38.52,0,0,0,62.86,73l-3.4-3.4a2.37,2.37,0,0,0,1.18,0,2.57,2.57,0,0,0,1.61-1.22,2.62,2.62,0,1,0-4.87-.82ZM92,102.09,76.71,86.84a10.85,10.85,0,0,0-5.29-6.66l-3.35-2-.9-.89a12,12,0,0,0,3.14-3.17A54.14,54.14,0,0,1,76,72L95.78,91.78l-.66-.23-.42-.15c-.42-.15-.82-.31-1.22-.49h0c-.33-.14-.65-.29-1-.44a45.15,45.15,0,0,0-.67,6.23l0,1.28v1.19l0,.9,0,1.12Zm43.8,43.8a63.91,63.91,0,0,0,11.83-2.32L134.4,130.4v14.14Zm15.48,1.33A64.23,64.23,0,0,1,139.87,150l19.48,19.47a5,5,0,0,0,7.07-7.07Z"></path><path class="cls-3" d="M96.06,192.11a96.06,96.06,0,1,1,96.06-96.06A96.17,96.17,0,0,1,96.06,192.11ZM96.06,10a86.06,86.06,0,1,0,86.06,86.05A86.15,86.15,0,0,0,96.06,10Z"></path><path class="cls-3" d="M58.55,62.35a2.51,2.51,0,0,1-.3,2,2.62,2.62,0,0,1-3.61.93,2.46,2.46,0,0,1-1.22-1.59,2.68,2.68,0,0,1,1.91-3.21,2.67,2.67,0,0,1,3.22,1.88ZM38,67.65a2.5,2.5,0,0,1-.3,2,2.56,2.56,0,0,1-1.61,1.22A2.69,2.69,0,0,1,32.88,69a2.68,2.68,0,0,1,1.91-3.21,2.57,2.57,0,0,1,2,.29A2.51,2.51,0,0,1,38,67.65Zm11.44,12.5,16.72,9.77a1.08,1.08,0,0,0,.81.14.81.81,0,0,0,.56-.49,6.72,6.72,0,0,0-2.43-9.39L53.51,73.33,55,70.82a7.52,7.52,0,0,0,3-.17A7.71,7.71,0,0,0,62.84,67,7.92,7.92,0,0,0,60,56.19,8,8,0,0,0,49.13,59a7.62,7.62,0,0,0-.85,6,8.1,8.1,0,0,0,.35,1l-2,3.31-3.32-2a6.15,6.15,0,0,0-.19-1,7.88,7.88,0,0,0-9.67-5.65,7.88,7.88,0,0,0-5.73,9.63,7.59,7.59,0,0,0,3.64,4.83,7.92,7.92,0,0,0,8.7-.46l2.52,1.47L35.77,87.76a6.72,6.72,0,0,0,2.42,9.39.81.81,0,0,0,.73.16,1.06,1.06,0,0,0,.64-.51Z"></path><path class="cls-4" d="M57.7,75.8l7.42,4.38a6.72,6.72,0,0,1,2.43,9.39.81.81,0,0,1-.56.49,1.08,1.08,0,0,1-.81-.14L53.1,82.28A22.11,22.11,0,0,1,57.7,75.8Zm8.61-5.66A75.56,75.56,0,0,1,80.9,65.68c13-2.87,16.76-18.16,38.94-15.76,22.53,2.43,40.94,22,37.18,51.63-1.32,10.44,9,7.1,6.87,20.82-1.37,9-13.71,18-33.49,19.64V125.57l.62-.42a30.44,30.44,0,0,0,7.43-7.58l-.58-.35-.56-.4-.56-.45-.53-.49-.52-.54-.6-.69-.49-.64-.55-.8-.45-.73-.5-.9-.41-.82-.44-1-.39-1-.34-.94-.27-.88L131,106l-.24-1-.22-1-.18-1-.16-1-.15-1.29-.1-1.09-.06-1.11,0-1.13v-.45c0-.54,0-1.07,0-1.6s.06-1,.1-1.54c.06-.69.13-1.38.22-2a35.3,35.3,0,0,1,.78-3.92c.12-.45.25-.9.38-1.33l.1-.3-1.07.46-.13,0c-.55.23-1.13.44-1.71.65l-.35.12-.89.3-1.2.36c-1.06.31-2.16.59-3.29.83-.79.17-1.6.33-2.43.46l-.63.11-.85.12-1.29.17-.35,0c-.69.08-1.39.14-2.1.19l-.75,0c-.7,0-1.4.07-2.11.09h-1.89l-1.75,0-1.91-.06L105.19,90,104,89.91l-1.13-.09-1.29-.12-1.75-.2-1.57-.22-1-.16-1-.18-1-.22L94,88.42l-1.29-.35-.83-.26-.77-.26a24.73,24.73,0,0,1-2.6-1.07,44.65,44.65,0,0,0-.7,8,41.52,41.52,0,0,0,3.81,17.81,32.06,32.06,0,0,0,10.44,12.84,25.3,25.3,0,0,0,7.56,3.71V141c-11.3-3.5-19.28-18-31.12-25C59.43,104.82,51,108.27,51,108.27c-1.21-9.06-1-16.07.51-21.58l12.36,7.22a5.47,5.47,0,0,0,4.28.61,5.1,5.1,0,0,0,3.48-2.78,11.31,11.31,0,0,0-4.2-15.56L62.88,73.5A11.92,11.92,0,0,0,66.31,70.14Z"></path><path class="cls-4" d="M52.54,114.58a18.91,18.91,0,0,1-1.83,4.26,12.31,12.31,0,0,1-1.21,1.67,12,12,0,0,1-2.45,2.15,7.1,7.1,0,0,1-1.24.67,9,9,0,0,1-1.79.56,11.78,11.78,0,0,1-2.76.22,14.77,14.77,0,0,1-2.69-.3,22.32,22.32,0,0,1-3.76-1.17,34.33,34.33,0,0,0,4.22-1.2,29.94,29.94,0,0,0,3.68-1.6l1.13-.55,1.15-.48c.77-.32,1.55-.6,2.36-1a25.33,25.33,0,0,0,3.13-1.73C51.18,115.59,51.82,115.17,52.54,114.58Z"></path><path class="cls-4" d="M65.72,122.21a41.82,41.82,0,0,0,5,12.87c.41.69.83,1.34,1.24,2l.82,1.31c.7,1.15,1.38,2.26,2.13,3.31a45.3,45.3,0,0,0,3.83,4.82A57.38,57.38,0,0,0,83.32,151a42.85,42.85,0,0,1-6.18-2.45,28.58,28.58,0,0,1-3.87-2.38,23.7,23.7,0,0,1-3.47-3.06,18.07,18.07,0,0,1-1.9-2.48,15.72,15.72,0,0,1-1.11-2.07,22.54,22.54,0,0,1-1.9-8.63A33.31,33.31,0,0,1,65.72,122.21Z"></path><path class="cls-4" d="M61,117.36a39.17,39.17,0,0,0-2.5,8.13,40,40,0,0,0-.7,5.3c-.06.79-.08,1.57-.11,2.34,0,.52,0,1-.07,1.54-.07,1.35-.14,2.65-.12,3.93a47.14,47.14,0,0,0,.42,6.15,55.61,55.61,0,0,0,1.24,6.34,41.91,41.91,0,0,1-3.7-5.53,27.66,27.66,0,0,1-1.84-4.14,23.52,23.52,0,0,1-1.12-4.5,17.81,17.81,0,0,1-.17-3.11,15.54,15.54,0,0,1,.27-2.34,22,22,0,0,1,1.65-5.17,21,21,0,0,1,1.67-3A33.89,33.89,0,0,1,61,117.36Z"></path><path class="cls-4" d="M45.7,55.83a12.08,12.08,0,0,1,7.16-4.92,15.37,15.37,0,0,1,1.72-.34L33.72,29.71a5,5,0,0,0-7.07,7.07ZM49,59.17l.09-.16A8,8,0,0,1,60,56.19l.43.27,2.19,2.19a8.08,8.08,0,0,1,1,2.38,7.54,7.54,0,0,1-.62,5.58A38.52,38.52,0,0,0,58.86,69l-3.4-3.4a2.37,2.37,0,0,0,1.18,0,2.57,2.57,0,0,0,1.61-1.22,2.62,2.62,0,1,0-4.87-.82ZM88,98.09,72.71,82.84a10.85,10.85,0,0,0-5.29-6.66l-3.35-2-.9-.89a12,12,0,0,0,3.14-3.17A54.14,54.14,0,0,1,72,68L91.78,87.78l-.66-.23-.42-.15c-.42-.15-.82-.31-1.22-.49h0c-.33-.14-.65-.29-1-.44a45.15,45.15,0,0,0-.67,6.23l0,1.28v1.19l0,.9,0,1.12Zm43.8,43.8a63.91,63.91,0,0,0,11.83-2.32L130.4,126.4v14.14Zm15.48,1.33A64.23,64.23,0,0,1,135.87,146l19.48,19.47a5,5,0,0,0,7.07-7.07Z"></path></g></g></svg> 