<?xml version="1.0" encoding="UTF-8"?> <svg xmlns="http://www.w3.org/2000/svg" viewBox="0 0 196.11 196.11"><defs><style>.cls-1{isolation:isolate;}.cls-2{opacity:0.05;mix-blend-mode:darken;}.cls-3{fill:#231f20;}.cls-4{fill:#659a97;}.cls-5{fill:#ddb893;}</style></defs><g class="cls-1"><g id="Layer_2" data-name="Layer 2"><g id="Get_It_Page" data-name="Get It Page"><g class="cls-2"><path class="cls-3" d="M100.06,196.11a96.06,96.06,0,1,1,96.05-96.06A96.17,96.17,0,0,1,100.06,196.11Zm0-182.11a86.06,86.06,0,1,0,86.05,86.05A86.15,86.15,0,0,0,100.06,14Z"></path><path class="cls-3" d="M118.81,61.62a79.82,79.82,0,0,1,12,14.62A90.26,90.26,0,0,1,139,92q3.1,7.88,3.1,12.94a43,43,0,0,1-5.63,21.56,42.39,42.39,0,0,1-15.28,15.75,41.2,41.2,0,0,1-42.19,0,42.46,42.46,0,0,1-15.28-15.75,43,43,0,0,1-5.62-21.56q0-10.12,8.9-25.13a125.41,125.41,0,0,1,22.6-27.75,143.67,143.67,0,0,1,18.56,20.82A129.62,129.62,0,0,1,118.81,61.62Zm-3.75,63.93a20.73,20.73,0,0,0,8.43-13.12,23.64,23.64,0,0,0-2.06-15.75q-1.12-1.7-2.25-3.75l-10.87,12.56L89.74,82.05A124.71,124.71,0,0,0,79.43,95.74a21.86,21.86,0,0,0-3.37,10.88q0,10.5,7,17t17.53,6.46A24.45,24.45,0,0,0,115.06,125.55Z"></path><path class="cls-3" d="M100.06,14A86.06,86.06,0,1,1,14,100.06,86.06,86.06,0,0,1,100.06,14m0-10a96.06,96.06,0,1,0,96.05,96.06A96.17,96.17,0,0,0,100.06,4Z"></path><path class="cls-3" d="M67.91,60.84,39.25,32.18l-7.07,7.07L62,69Q64.75,64.86,67.91,60.84Z"></path><path class="cls-3" d="M142.56,135.49a53.11,53.11,0,0,1-6.44,7.7L161,168,168,161Z"></path></g><path class="cls-4" d="M96.06,192.11a96.06,96.06,0,1,1,96.05-96.06A96.17,96.17,0,0,1,96.06,192.11ZM96.06,10a86.06,86.06,0,1,0,86.05,86.05A86.15,86.15,0,0,0,96.06,10Z"></path><path class="cls-5" d="M114.81,57.62a79.82,79.82,0,0,1,12,14.62A90.26,90.26,0,0,1,135,88q3.1,7.88,3.1,12.94a43,43,0,0,1-5.63,21.56,42.39,42.39,0,0,1-15.28,15.75,41.2,41.2,0,0,1-42.19,0,42.46,42.46,0,0,1-15.28-15.75,43,43,0,0,1-5.62-21.56q0-10.12,8.9-25.13a125.41,125.41,0,0,1,22.6-27.75,143.67,143.67,0,0,1,18.56,20.82A129.62,129.62,0,0,1,114.81,57.62Zm-3.75,63.93a20.73,20.73,0,0,0,8.43-13.12,23.64,23.64,0,0,0-2.06-15.75q-1.12-1.7-2.25-3.75l-10.87,12.56L85.74,78.05A124.71,124.71,0,0,0,75.43,91.74a21.86,21.86,0,0,0-3.37,10.88q0,10.5,7,17t17.53,6.46A24.45,24.45,0,0,0,111.06,121.55Z"></path><path class="cls-5" d="M96.06,10A86.06,86.06,0,1,1,10,96.06,86.06,86.06,0,0,1,96.06,10m0-10a96.06,96.06,0,1,0,96.05,96.06A96.17,96.17,0,0,0,96.06,0Z"></path><path class="cls-5" d="M63.91,56.84,35.25,28.18l-7.07,7.07L58,65Q60.75,60.86,63.91,56.84Z"></path><path class="cls-5" d="M138.56,131.49a53.11,53.11,0,0,1-6.44,7.7L157,164,164,157Z"></path></g></g></g></svg> 