<?xml version="1.0" encoding="UTF-8"?> <svg xmlns="http://www.w3.org/2000/svg" viewBox="0 0 196.11 196.11"><defs><style>.cls-1{isolation:isolate;}.cls-2{opacity:0.05;mix-blend-mode:darken;}.cls-3{fill:#231f20;}.cls-4{fill:#659a97;}.cls-5{fill:#ddb893;}</style></defs><g class="cls-1"><g id="Layer_2" data-name="Layer 2"><g id="Get_It_Page" data-name="Get It Page"><g class="cls-2"><path class="cls-3" d="M100.06,196.11a96.06,96.06,0,1,1,96.05-96.06A96.17,96.17,0,0,1,100.06,196.11Zm0-182.11a86.06,86.06,0,1,0,86.05,86.05A86.15,86.15,0,0,0,100.06,14Z"></path><path class="cls-3" d="M100.06,14A86.06,86.06,0,1,1,14,100.06,86.06,86.06,0,0,1,100.06,14m0-10a96.06,96.06,0,1,0,96.05,96.06A96.17,96.17,0,0,0,100.06,4Z"></path><path class="cls-3" d="M71.21,74.76V64.14l-31.5-31.5-7.07,7.07L68.78,75.85A24,24,0,0,1,71.21,74.76Z"></path><polygon class="cls-3" points="131.56 124.49 131.56 138.63 162.62 169.69 169.69 162.62 131.56 124.49"></polygon><path class="cls-3" d="M104.27,82.93a16.77,16.77,0,0,1,12.25,5,16.44,16.44,0,0,1,5,12.13V140a5.45,5.45,0,0,1-1.71,4,5.56,5.56,0,0,1-4,1.7H69.68a5.59,5.59,0,0,1-4.06-1.7,5.45,5.45,0,0,1-1.71-4V100.06a16.41,16.41,0,0,1,5-12.13,16.75,16.75,0,0,1,12.25-5ZM92.74,128.59a14,14,0,0,0,10.18-4.19,14.11,14.11,0,0,0,0-20.15,14.46,14.46,0,0,0-20.36,0,14.09,14.09,0,0,0,0,20.15A13.91,13.91,0,0,0,92.74,128.59ZM104.27,60.1V77.23H81.21V60.1a5.46,5.46,0,0,1,1.71-4,5.55,5.55,0,0,1,4-1.69H98.5a5.58,5.58,0,0,1,4.06,1.69A5.46,5.46,0,0,1,104.27,60.1Zm11.53,0a5.56,5.56,0,0,1,4,1.7,5.56,5.56,0,0,1,0,8,5.69,5.69,0,0,1-8.11,0,5.56,5.56,0,0,1,0-8A5.6,5.6,0,0,1,115.8,60.1Zm17.29,0a5.57,5.57,0,0,1,4.06,1.7,5.56,5.56,0,0,1,0,8,5.69,5.69,0,0,1-8.11,0,5.56,5.56,0,0,1,0-8A5.56,5.56,0,0,1,133.09,60.1Zm0,17.13a5.56,5.56,0,0,1,4.06,1.69,5.57,5.57,0,0,1,0,8A5.71,5.71,0,0,1,129,87a5.57,5.57,0,0,1,0-8A5.55,5.55,0,0,1,133.09,77.23Zm17.3-5.71a5.56,5.56,0,0,1-4-1.7,5.53,5.53,0,0,1,0-8,5.67,5.67,0,0,1,8.1,0,5.56,5.56,0,0,1,0,8A5.56,5.56,0,0,1,150.39,71.52Zm0,5.71a5.55,5.55,0,0,1,4.05,1.69,5.57,5.57,0,0,1,0,8,5.7,5.7,0,0,1-8.1,0,5.55,5.55,0,0,1,0-8A5.55,5.55,0,0,1,150.39,77.23Zm0,17.12A5.55,5.55,0,0,1,154.44,96a5.57,5.57,0,0,1,0,8,5.7,5.7,0,0,1-8.1,0,5.55,5.55,0,0,1,0-8A5.55,5.55,0,0,1,150.39,94.35Z"></path></g><path class="cls-4" d="M96.06,192.11a96.06,96.06,0,1,1,96.05-96.06A96.17,96.17,0,0,1,96.06,192.11ZM96.06,10a86.06,86.06,0,1,0,86.05,86.05A86.15,86.15,0,0,0,96.06,10Z"></path><path class="cls-5" d="M96.06,10A86.06,86.06,0,1,1,10,96.06,86.06,86.06,0,0,1,96.06,10m0-10a96.06,96.06,0,1,0,96.05,96.06A96.17,96.17,0,0,0,96.06,0Z"></path><path class="cls-5" d="M67.21,70.76V60.14l-31.5-31.5-7.07,7.07L64.78,71.85A24,24,0,0,1,67.21,70.76Z"></path><polygon class="cls-5" points="127.56 120.49 127.56 134.63 158.62 165.69 165.69 158.62 127.56 120.49"></polygon><path class="cls-5" d="M100.27,78.93a16.77,16.77,0,0,1,12.25,5,16.44,16.44,0,0,1,5,12.13V136a5.45,5.45,0,0,1-1.71,4,5.56,5.56,0,0,1-4,1.7H65.68a5.59,5.59,0,0,1-4.06-1.7,5.45,5.45,0,0,1-1.71-4V96.06a16.41,16.41,0,0,1,5-12.13,16.75,16.75,0,0,1,12.25-5ZM88.74,124.59a14,14,0,0,0,10.18-4.19,14.11,14.11,0,0,0,0-20.15,14.46,14.46,0,0,0-20.36,0,14.09,14.09,0,0,0,0,20.15A13.91,13.91,0,0,0,88.74,124.59ZM100.27,56.1V73.23H77.21V56.1a5.46,5.46,0,0,1,1.71-4,5.55,5.55,0,0,1,4-1.69H94.5a5.58,5.58,0,0,1,4.06,1.69A5.46,5.46,0,0,1,100.27,56.1Zm11.53,0a5.56,5.56,0,0,1,4,1.7,5.56,5.56,0,0,1,0,8,5.69,5.69,0,0,1-8.11,0,5.56,5.56,0,0,1,0-8A5.6,5.6,0,0,1,111.8,56.1Zm17.29,0a5.57,5.57,0,0,1,4.06,1.7,5.56,5.56,0,0,1,0,8,5.69,5.69,0,0,1-8.11,0,5.56,5.56,0,0,1,0-8A5.56,5.56,0,0,1,129.09,56.1Zm0,17.13a5.56,5.56,0,0,1,4.06,1.69,5.57,5.57,0,0,1,0,8A5.71,5.71,0,0,1,125,83a5.57,5.57,0,0,1,0-8A5.55,5.55,0,0,1,129.09,73.23Zm17.3-5.71a5.56,5.56,0,0,1-4-1.7,5.53,5.53,0,0,1,0-8,5.67,5.67,0,0,1,8.1,0,5.56,5.56,0,0,1,0,8A5.56,5.56,0,0,1,146.39,67.52Zm0,5.71a5.55,5.55,0,0,1,4.05,1.69,5.57,5.57,0,0,1,0,8,5.7,5.7,0,0,1-8.1,0,5.55,5.55,0,0,1,0-8A5.55,5.55,0,0,1,146.39,73.23Zm0,17.12A5.55,5.55,0,0,1,150.44,92a5.57,5.57,0,0,1,0,8,5.7,5.7,0,0,1-8.1,0,5.55,5.55,0,0,1,0-8A5.55,5.55,0,0,1,146.39,90.35Z"></path></g></g></g></svg> 