<?xml version="1.0" encoding="UTF-8"?> <svg xmlns="http://www.w3.org/2000/svg" viewBox="0 0 196.11 196.12"><defs><style>.cls-1{isolation:isolate;}.cls-2{opacity:0.05;mix-blend-mode:darken;}.cls-3,.cls-4{fill:#231f20;}.cls-4,.cls-6{fill-rule:evenodd;}.cls-5,.cls-6{fill:#ddb893;}</style></defs><g class="cls-1"><g id="Layer_2" data-name="Layer 2"><g id="Get_It_Page" data-name="Get It Page"><g class="cls-2"><path class="cls-3" d="M100.06,196.12a96.06,96.06,0,1,1,96.05-96.06A96.17,96.17,0,0,1,100.06,196.12Zm0-182.12a86.06,86.06,0,1,0,86.05,86.06A86.16,86.16,0,0,0,100.06,14Z"></path><path class="cls-4" d="M45.81,56a31.63,31.63,0,0,1,5.57-4.07,33.44,33.44,0,0,1,3-1.52L37.72,33.72a5,5,0,1,0-7.08,7.07Zm16.73,2.58L88.06,84.06V98.2l-12-12V79.06a9,9,0,0,0-14.39-7.24L53.16,63.3a21.34,21.34,0,0,1,9.38-4.76ZM99.36,95.36l41.48,41.49a28.73,28.73,0,0,1-9.75,4.38l-36-36A30.17,30.17,0,0,1,99.36,95.36Zm48.91,48.91-.56.41a39.52,39.52,0,0,1-8.41,4.76l20,20.05a5,5,0,0,0,7.07-7.07Z"></path><path class="cls-3" d="M145.43,90.87h-.19a29.41,29.41,0,0,1,7.41,12.1,29.81,29.81,0,0,1,1,13.87,28.84,28.84,0,0,1-5.44,12.84,1.17,1.17,0,0,1-1,.57,1.72,1.72,0,0,1-1.22-.57L106.43,90.31a2.16,2.16,0,0,1-.37-1.22,1.69,1.69,0,0,1,.56-1.22,30.33,30.33,0,0,1,26.72-4.22A30.45,30.45,0,0,1,145.43,90.87Zm-43.12,3.56L141.68,134a1.67,1.67,0,0,1,.56,1.22,1.17,1.17,0,0,1-.56,1,28.94,28.94,0,0,1-12.84,5.43,29.86,29.86,0,0,1-13.88-1,29.77,29.77,0,0,1-19.31-19.31,29.82,29.82,0,0,1-1-13.87,30.17,30.17,0,0,1,5.25-12.85,1.71,1.71,0,0,1,1.22-.56A2.16,2.16,0,0,1,102.31,94.43Zm-26.25,5.63v-21a9,9,0,1,0-18,0v21Zm-9-42a21,21,0,0,1,21,21v42a21,21,0,0,1-39.19,10.5,20.61,20.61,0,0,1-2.81-10.5v-42a21,21,0,0,1,21-21Z"></path></g><path class="cls-5" d="M96.06,192.12a96.06,96.06,0,1,1,96.05-96.06A96.17,96.17,0,0,1,96.06,192.12ZM96.06,10a86.06,86.06,0,1,0,86.05,86.06A86.16,86.16,0,0,0,96.06,10Z"></path><path class="cls-6" d="M41.81,52a31.63,31.63,0,0,1,5.57-4.07,33.44,33.44,0,0,1,3-1.52L33.72,29.72a5,5,0,1,0-7.08,7.07Zm16.73,2.58L84.06,80.06V94.2l-12-12V75.06a9,9,0,0,0-14.39-7.24L49.16,59.3a21.34,21.34,0,0,1,9.38-4.76ZM95.36,91.36l41.48,41.49a28.73,28.73,0,0,1-9.75,4.38l-36-36A30.17,30.17,0,0,1,95.36,91.36Zm48.91,48.91-.56.41a39.52,39.52,0,0,1-8.41,4.76l20,20.05a5,5,0,0,0,7.07-7.07Z"></path><path class="cls-5" d="M141.43,86.87h-.19A29.41,29.41,0,0,1,148.65,99a29.81,29.81,0,0,1,1,13.87,28.84,28.84,0,0,1-5.44,12.84,1.17,1.17,0,0,1-1,.57,1.72,1.72,0,0,1-1.22-.57L102.43,86.31a2.16,2.16,0,0,1-.37-1.22,1.69,1.69,0,0,1,.56-1.22,30.33,30.33,0,0,1,26.72-4.22A30.45,30.45,0,0,1,141.43,86.87ZM98.31,90.43,137.68,130a1.67,1.67,0,0,1,.56,1.22,1.17,1.17,0,0,1-.56,1,28.94,28.94,0,0,1-12.84,5.43,29.86,29.86,0,0,1-13.88-1,29.77,29.77,0,0,1-19.31-19.31,29.82,29.82,0,0,1-1-13.87,30.17,30.17,0,0,1,5.25-12.85,1.71,1.71,0,0,1,1.22-.56A2.16,2.16,0,0,1,98.31,90.43ZM72.06,96.06v-21a9,9,0,1,0-18,0v21Zm-9-42a21,21,0,0,1,21,21v42a21,21,0,0,1-31.5,18.19,21,21,0,0,1-10.5-18.19v-42a21,21,0,0,1,21-21Z"></path></g></g></g></svg> 