<?xml version="1.0" encoding="UTF-8"?> <svg xmlns="http://www.w3.org/2000/svg" viewBox="0 0 196.11 196.12"><defs><style>.cls-1,.cls-2{fill:#dde7e7;}.cls-2,.cls-4{fill-rule:evenodd;}.cls-3,.cls-4{fill:#659a97;}</style></defs><g id="Layer_2" data-name="Layer 2"><g id="Send_It_Page" data-name="Send It Page"><path class="cls-1" d="M100.06,196.12a96.06,96.06,0,1,1,96.05-96.06A96.17,96.17,0,0,1,100.06,196.12Zm0-182.12a86.06,86.06,0,1,0,86.05,86.06A86.16,86.16,0,0,0,100.06,14Z"></path><path class="cls-1" d="M133.73,88.83a2.73,2.73,0,0,0,2-.79,2.69,2.69,0,0,0,.79-2,2.86,2.86,0,0,0-4.83-2,2.76,2.76,0,0,0-.78,2,2.69,2.69,0,0,0,2.8,2.8Zm-.17-14a11.11,11.11,0,0,1,8.06,3.25A10.67,10.67,0,0,1,145,86a11.25,11.25,0,0,1-1.49,5.61,10.14,10.14,0,0,1-4.13,4v19.82a27.88,27.88,0,0,1-4.12,14.82A29.82,29.82,0,0,1,124,141a32.28,32.28,0,0,1-30.78.09A30.56,30.56,0,0,1,82,130.66a27.08,27.08,0,0,1-4.38-14.29A28.22,28.22,0,0,1,55.16,88.83V61.65a4.07,4.07,0,0,1,1-2.72,4.41,4.41,0,0,1,2.37-1.49l11.05-2.11A4,4,0,0,1,72.7,56a4.07,4.07,0,0,1,1.75,2.54L75,61.3a4,4,0,0,1-.62,3.15,4.09,4.09,0,0,1-2.54,1.76l-5.44,1.05V88.83a16.1,16.1,0,0,0,5,11.93,16.44,16.44,0,0,0,11.93,4.91,15.84,15.84,0,0,0,11.84-5.09,16.62,16.62,0,0,0,4.91-11.92V67.26l-5.44-1.05a4.16,4.16,0,0,1-2.72-1.76,3.94,3.94,0,0,1-.61-3.15l.7-2.81A4.07,4.07,0,0,1,93.74,56a4.56,4.56,0,0,1,3.16-.79l11,2.28a4.48,4.48,0,0,1,2.37,1.49,4.07,4.07,0,0,1,1,2.72V88.83a27,27,0,0,1-6.4,17.72,28.14,28.14,0,0,1-16,9.82,17.1,17.1,0,0,0,6,12.28,19.73,19.73,0,0,0,13.6,5.08,20.37,20.37,0,0,0,9.82-2.45,18.87,18.87,0,0,0,7.19-6.67,16.89,16.89,0,0,0,2.63-9.12V95.67a10.12,10.12,0,0,1-4.12-4,11.25,11.25,0,0,1,1.84-13.59A10.33,10.33,0,0,1,133.56,74.8Z"></path><path class="cls-2" d="M45.87,56a15.16,15.16,0,0,1,6.77-7.38L37.72,33.72a5,5,0,1,0-7.08,7.07ZM61,57l9.51,9.5-4.09.79v9.27L55.16,65.3V61.65a4.07,4.07,0,0,1,1-2.72,4.41,4.41,0,0,1,2.37-1.49ZM98.89,94.9l8.36,8.36a30.29,30.29,0,0,1-2.37,3.29,30.78,30.78,0,0,1-4.25,4.22l-8-8a19,19,0,0,0,2.53-2.19A17.34,17.34,0,0,0,98.89,94.9Zm27.69,27.69,8.29,8.28a29.54,29.54,0,0,1-6.73,7.41l-8.07-8.07a18.55,18.55,0,0,0,5.42-5.6A17.19,17.19,0,0,0,126.58,122.59Zm15.75,15.75a39.46,39.46,0,0,1-6.82,7.32l23.83,23.83a5,5,0,0,0,7.07-7.07Z"></path><path class="cls-3" d="M96.06,192.12a96.06,96.06,0,1,1,96.05-96.06A96.17,96.17,0,0,1,96.06,192.12ZM96.06,10a86.06,86.06,0,1,0,86.05,86.06A86.16,86.16,0,0,0,96.06,10Z"></path><path class="cls-3" d="M129.73,84.83a2.73,2.73,0,0,0,2-.79,2.69,2.69,0,0,0,.79-2,2.86,2.86,0,0,0-4.83-2,2.76,2.76,0,0,0-.78,2,2.69,2.69,0,0,0,2.8,2.8Zm-.17-14a11.11,11.11,0,0,1,8.06,3.25A10.67,10.67,0,0,1,141,82a11.25,11.25,0,0,1-1.49,5.61,10.14,10.14,0,0,1-4.13,4v19.82a27.88,27.88,0,0,1-4.12,14.82A29.82,29.82,0,0,1,120,137a32.28,32.28,0,0,1-30.78.09A30.56,30.56,0,0,1,78,126.66a27.08,27.08,0,0,1-4.38-14.29A28.22,28.22,0,0,1,51.16,84.83V57.65a4.07,4.07,0,0,1,1-2.72,4.41,4.41,0,0,1,2.37-1.49l11.05-2.11A4,4,0,0,1,68.7,52a4.07,4.07,0,0,1,1.75,2.54L71,57.3a4,4,0,0,1-.62,3.15,4.09,4.09,0,0,1-2.54,1.76l-5.44,1V84.83a16.1,16.1,0,0,0,5,11.93,16.44,16.44,0,0,0,11.93,4.91,15.84,15.84,0,0,0,11.84-5.09,16.62,16.62,0,0,0,4.91-11.92V63.26l-5.44-1a4.16,4.16,0,0,1-2.72-1.76,3.94,3.94,0,0,1-.61-3.15l.7-2.81A4.07,4.07,0,0,1,89.74,52a4.56,4.56,0,0,1,3.16-.79l11,2.28a4.48,4.48,0,0,1,2.37,1.49,4.07,4.07,0,0,1,1,2.72V84.83a27,27,0,0,1-6.4,17.72,28.14,28.14,0,0,1-16,9.82,17.1,17.1,0,0,0,6,12.28,19.73,19.73,0,0,0,13.6,5.08,20.37,20.37,0,0,0,9.82-2.45,18.87,18.87,0,0,0,7.19-6.67,16.89,16.89,0,0,0,2.63-9.12V91.67a10.12,10.12,0,0,1-4.12-4,11.25,11.25,0,0,1,1.84-13.59A10.33,10.33,0,0,1,129.56,70.8Z"></path><path class="cls-4" d="M41.87,52a15.16,15.16,0,0,1,6.77-7.38L33.72,29.72a5,5,0,1,0-7.08,7.07ZM57,53l9.51,9.5-4.09.79v9.27L51.16,61.3V57.65a4.07,4.07,0,0,1,1-2.72,4.41,4.41,0,0,1,2.37-1.49ZM94.89,90.9l8.36,8.36a30.29,30.29,0,0,1-2.37,3.29,30.78,30.78,0,0,1-4.25,4.22l-8-8a19,19,0,0,0,2.53-2.19A17.34,17.34,0,0,0,94.89,90.9Zm27.69,27.69,8.29,8.28a29.54,29.54,0,0,1-6.73,7.41l-8.07-8.07a18.55,18.55,0,0,0,5.42-5.6A17.19,17.19,0,0,0,122.58,118.59Zm15.75,15.75a39.46,39.46,0,0,1-6.82,7.32l23.83,23.83a5,5,0,0,0,7.07-7.07Z"></path></g></g></svg> 