<?xml version="1.0" encoding="UTF-8"?> <svg xmlns="http://www.w3.org/2000/svg" viewBox="0 0 196.11 196.11"><defs><style>.cls-1{isolation:isolate;}.cls-2{opacity:0.05;mix-blend-mode:darken;}.cls-3,.cls-4{fill:#231f20;}.cls-4,.cls-6{fill-rule:evenodd;}.cls-5,.cls-6{fill:#ddb893;}</style></defs><g class="cls-1"><g id="Layer_2" data-name="Layer 2"><g id="Get_It_Page" data-name="Get It Page"><g class="cls-2"><path class="cls-3" d="M100.06,196.11a96.06,96.06,0,1,1,96.05-96.06A96.17,96.17,0,0,1,100.06,196.11Zm0-182.11a86.06,86.06,0,1,0,86.05,86.05A86.15,86.15,0,0,0,100.06,14Z"></path><path class="cls-4" d="M49.78,59.92a12.76,12.76,0,0,1,8.43-3.29l2.4,0L37.72,33.71a5,5,0,0,0-7.08,7.07Zm75.86,61.71a14.71,14.71,0,0,1-3.13.34H111.83l47.51,47.51a5,5,0,0,0,7.07-7.07Z"></path><path class="cls-4" d="M51.74,82.24l3.74-13.58a3,3,0,0,1,2.82-2.19l38.57-.36,1.58,3,20.75.07,1.73-3.32,35.7-.33a2.83,2.83,0,0,1,2,.84,2.87,2.87,0,0,1,.85,2V69.8H161a1.46,1.46,0,0,1,1.46,1.47v6.84A1.46,1.46,0,0,1,161,79.58h-1.45v2.66ZM99.65,97s-2,8.51,7.3,10a.84.84,0,0,0,.65-1.51,13.21,13.21,0,0,1-3.34-3c-.89-1.25-.82-5.47-.82-5.47Zm23.7,1.46a4.87,4.87,0,0,0-5.07-4.64H99.14c-2.8,0-5.07,1.48-4.65,4.49a59.31,59.31,0,0,0,1.32,6.3c1.11,3.49,4.08,4.63,6.87,4.63h15.6a4.86,4.86,0,0,0,5.07-4.63ZM89.72,112.13l-12,28.94a8.46,8.46,0,0,1-11.12,4.59L51,139a8.64,8.64,0,0,1-4.54-11.26l12-28.93a3.77,3.77,0,0,0-.33-3.52A3.67,3.67,0,0,0,55,93.64H53.08a3.39,3.39,0,0,1-2.7-1.36,3.45,3.45,0,0,1-.57-3l1.12-4H159.51v5.53a2.89,2.89,0,0,1-.84,2,2.83,2.83,0,0,1-2,.85H127.08a3.12,3.12,0,0,1,.2,1.11s0,7.33,0,12.63a4.75,4.75,0,0,1-4.75,4.75Z"></path></g><path class="cls-5" d="M96.06,192.11a96.06,96.06,0,1,1,96.05-96.06A96.17,96.17,0,0,1,96.06,192.11ZM96.06,10a86.06,86.06,0,1,0,86.05,86.05A86.15,86.15,0,0,0,96.06,10Z"></path><path class="cls-6" d="M45.78,55.92a12.76,12.76,0,0,1,8.43-3.29l2.4,0L33.72,29.71a5,5,0,0,0-7.08,7.07Zm75.86,61.71a14.71,14.71,0,0,1-3.13.34H107.83l47.51,47.51a5,5,0,0,0,7.07-7.07Z"></path><path class="cls-6" d="M47.74,78.24l3.74-13.58a3,3,0,0,1,2.82-2.19l38.57-.36,1.58,3,20.75.07,1.73-3.32,35.7-.33a2.83,2.83,0,0,1,2,.84,2.87,2.87,0,0,1,.85,2.05V65.8H157a1.46,1.46,0,0,1,1.46,1.47v6.84A1.46,1.46,0,0,1,157,75.58h-1.45v2.66ZM95.65,93s-2,8.51,7.3,10a.84.84,0,0,0,.65-1.51,13.21,13.21,0,0,1-3.34-3c-.89-1.25-.82-5.47-.82-5.47Zm23.7,1.46a4.87,4.87,0,0,0-5.07-4.64H95.14c-2.8,0-5.07,1.48-4.65,4.49a59.31,59.31,0,0,0,1.32,6.3c1.11,3.49,4.08,4.63,6.87,4.63h15.6a4.86,4.86,0,0,0,5.07-4.63ZM85.72,108.13l-12,28.94a8.46,8.46,0,0,1-11.12,4.59L47,135a8.64,8.64,0,0,1-4.54-11.26l12-28.93a3.77,3.77,0,0,0-.33-3.52A3.67,3.67,0,0,0,51,89.64H49.08a3.39,3.39,0,0,1-2.7-1.36,3.45,3.45,0,0,1-.57-3l1.12-4H155.51v5.53a2.89,2.89,0,0,1-.84,2,2.83,2.83,0,0,1-2,.85H123.08a3.12,3.12,0,0,1,.2,1.11s0,7.33,0,12.63a4.75,4.75,0,0,1-4.75,4.75Z"></path></g></g></g></svg> 