<?xml version="1.0" encoding="UTF-8"?> <svg xmlns="http://www.w3.org/2000/svg" viewBox="0 0 196.11 196.11"><defs><style>.cls-1{isolation:isolate;}.cls-2{opacity:0.05;mix-blend-mode:darken;}.cls-3,.cls-4{fill:#231f20;}.cls-4,.cls-6{fill-rule:evenodd;}.cls-5,.cls-6{fill:#ddb893;}</style></defs><g class="cls-1"><g id="Layer_2" data-name="Layer 2"><g id="Get_It_Page" data-name="Get It Page"><g class="cls-2"><path class="cls-3" d="M100.06,196.11a96.06,96.06,0,1,1,96.05-96.06A96.17,96.17,0,0,1,100.06,196.11Zm0-182.11a86.06,86.06,0,1,0,86.05,86.05A86.15,86.15,0,0,0,100.06,14Z"></path><path class="cls-3" d="M70.06,94.05h31.87l28.13,10.13v40.87a2.89,2.89,0,0,1-3,3h-12a2.88,2.88,0,0,1-3-3v-21h-30v21a2.89,2.89,0,0,1-3,3h-12a2.88,2.88,0,0,1-3-3V104.93a18.05,18.05,0,0,1-8.63-6.47,17.12,17.12,0,0,1-3.37-10.41,6,6,0,0,1,12,0,6.08,6.08,0,0,0,6,6Zm54-15a2.89,2.89,0,0,0,3-3,3,3,0,0,0-5.16-2.15,3,3,0,0,0,2.16,5.15Zm21-9a2.91,2.91,0,0,1,3,3v6a11.85,11.85,0,0,1-12,12h-6V97.8l-24-8.62V61.05a2.78,2.78,0,0,1,1.87-2.81,2.61,2.61,0,0,1,3.19.75l5.25,5.06h9.94a6,6,0,0,1,3.18.94,6.05,6.05,0,0,1,2.25,2.44l1.32,2.62Z"></path><path class="cls-4" d="M62,72.14A16.76,16.76,0,0,1,73.86,83.69H87.69l-50-50a5,5,0,0,0-7.08,7.07Zm78.42,64.28v8.63a13.71,13.71,0,0,1-.79,4.72l19.71,19.71a5,5,0,0,0,7.07-7.07Z"></path></g><path class="cls-5" d="M96.06,192.11a96.06,96.06,0,1,1,96.05-96.06A96.17,96.17,0,0,1,96.06,192.11ZM96.06,10a86.06,86.06,0,1,0,86.05,86.05A86.15,86.15,0,0,0,96.06,10Z"></path><path class="cls-5" d="M66.06,90.05H97.93l28.13,10.13v40.87a2.89,2.89,0,0,1-3,3h-12a2.88,2.88,0,0,1-3-3v-21h-30v21a2.89,2.89,0,0,1-3,3h-12a2.88,2.88,0,0,1-3-3V100.93a18.05,18.05,0,0,1-8.63-6.47,17.12,17.12,0,0,1-3.37-10.41,6,6,0,0,1,12,0,6.08,6.08,0,0,0,6,6Zm54-15a2.89,2.89,0,0,0,3-3,3,3,0,0,0-5.16-2.15,3,3,0,0,0,2.16,5.15Zm21-9a2.91,2.91,0,0,1,3,3v6a11.85,11.85,0,0,1-12,12h-6V93.8l-24-8.62V57.05a2.78,2.78,0,0,1,1.87-2.81,2.61,2.61,0,0,1,3.19.75l5.25,5.06h9.94a6,6,0,0,1,3.18.94,6.05,6.05,0,0,1,2.25,2.44l1.32,2.62Z"></path><path class="cls-6" d="M58,68.14A16.76,16.76,0,0,1,69.86,79.69H83.69l-50-50a5,5,0,0,0-7.08,7.07Zm78.42,64.28v8.63a13.71,13.71,0,0,1-.79,4.72l19.71,19.71a5,5,0,0,0,7.07-7.07Z"></path></g></g></g></svg> 