<?xml version="1.0" encoding="UTF-8"?> <svg xmlns="http://www.w3.org/2000/svg" viewBox="0 0 186.5 161.51"><defs><style>.cls-1{fill:none;stroke:#3f726f;stroke-miterlimit:10;stroke-width:4px;}.cls-2{fill:#3f726f;}.cls-3{fill:#d8eeec;}</style></defs><g id="Layer_2" data-name="Layer 2"><g id="Layer_1-2" data-name="Layer 1"><polygon class="cls-1" points="138.72 2 47.78 2 2.31 80.76 47.78 159.51 138.72 159.51 184.19 80.76 138.72 2"></polygon><polygon class="cls-2" points="131.85 13.89 54.65 13.89 16.04 80.76 54.65 147.62 131.85 147.62 170.46 80.76 131.85 13.89"></polygon><path class="cls-3" d="M93.25,40.1,59.61,59.52,74.34,68,108,48.6ZM112.17,51,78.53,70.44l14.72,8.5,33.64-19.42Z"></path><polygon class="cls-3" points="76.44 74.06 76.44 81.95 72.25 79.53 72.25 71.64 57.52 63.14 57.52 101.99 91.16 121.41 91.16 82.56 76.44 74.06"></polygon><path class="cls-3" d="M95.34,82.57v38.85L129,102V63.14ZM100.8,101l8.31-4.8a.94.94,0,0,1,1.29.35,1,1,0,0,1-.34,1.3l-8.31,4.79a1,1,0,0,1-1.3-.34A1,1,0,0,1,100.8,101Zm7.42,2.28L101.75,107a1,1,0,0,1-.48.12.95.95,0,0,1-.47-1.77l6.47-3.74a1,1,0,1,1,1,1.65Zm4.46,1.9-10.93,6.32a1,1,0,0,1-.48.12.95.95,0,0,1-.47-1.77l10.93-6.31a.95.95,0,1,1,1,1.64Z"></path></g></g></svg> 