<?xml version="1.0" encoding="UTF-8"?> <svg xmlns="http://www.w3.org/2000/svg" viewBox="0 0 196.11 196.11"><defs><style>.cls-1,.cls-2{fill:#dde7e7;}.cls-2,.cls-4{fill-rule:evenodd;}.cls-3,.cls-4{fill:#659a97;}</style></defs><g id="Layer_2" data-name="Layer 2"><g id="Send_It_Page" data-name="Send It Page"><path class="cls-1" d="M100.06,196.11a96.06,96.06,0,1,1,96.05-96.06A96.17,96.17,0,0,1,100.06,196.11Zm0-182.11a86.06,86.06,0,1,0,86.05,86.05A86.15,86.15,0,0,0,100.06,14Z"></path><path class="cls-1" d="M146.37,119.55a3,3,0,0,1,0,5.44,58.2,58.2,0,0,1-7.5,3,57,57,0,0,1-17.44,2.81h-3.19a44.35,44.35,0,0,1,3,7.32,2.95,2.95,0,0,1-3.75,3.75,44.79,44.79,0,0,1-4.5-1.69,69.9,69.9,0,0,1-9.93-5.63v12a1.43,1.43,0,0,1-.47,1,1.41,1.41,0,0,1-1,.47h-3a1.62,1.62,0,0,1-1.5-1.5v-12a70.57,70.57,0,0,1-9.94,5.63,44.79,44.79,0,0,1-4.5,1.69,3,3,0,0,1-3.75-3.75,37.84,37.84,0,0,1,3.19-7.32H78.68A57,57,0,0,1,61.24,128a58.2,58.2,0,0,1-7.5-3,3,3,0,0,1,0-5.44A52.93,52.93,0,0,1,68,114.68,77.6,77.6,0,0,1,55.62,94.24a79.52,79.52,0,0,1-3.56-10.5A2.78,2.78,0,0,1,52.71,81a3.23,3.23,0,0,1,2.35-1l.56.19a69.26,69.26,0,0,1,10.12,3.19A80.39,80.39,0,0,1,85.81,95v-.75a79.11,79.11,0,0,1,5.62-28.5,70.61,70.61,0,0,1,6.19-12.37,2.91,2.91,0,0,1,4.87,0,70.61,70.61,0,0,1,6.19,12.37,79.13,79.13,0,0,1,5.63,28.5V95a80.32,80.32,0,0,1,20.06-11.62,69.26,69.26,0,0,1,10.12-3.19l.57-.19a3.22,3.22,0,0,1,2.34,1,2.76,2.76,0,0,1,.66,2.72,79.73,79.73,0,0,1-3.57,10.5,77.6,77.6,0,0,1-12.37,20.44A52.93,52.93,0,0,1,146.37,119.55Z"></path><path class="cls-2" d="M60.59,70.72a91,91,0,0,1,8.9,3l.19.07q3.93,1.62,7.56,3.46c.22-1.08.47-2.17.74-3.26L37.72,33.71a5,5,0,0,0-7.08,7.07Zm26.16,12,46.71,46.71a55.79,55.79,0,0,1-12,1.34h-.77L82,92.12c1.31.93,2.59,1.88,3.82,2.87v-.75A71.41,71.41,0,0,1,86.75,82.75Zm55.16,55.15a70.42,70.42,0,0,1-10.07,2.42,10.25,10.25,0,0,1-.2,1.46l27.7,27.7a5,5,0,0,0,7.07-7.07Z"></path><path class="cls-3" d="M96.06,192.11a96.06,96.06,0,1,1,96.05-96.06A96.17,96.17,0,0,1,96.06,192.11ZM96.06,10a86.06,86.06,0,1,0,86.05,86.05A86.15,86.15,0,0,0,96.06,10Z"></path><path class="cls-3" d="M142.37,115.55a3,3,0,0,1,0,5.44,58.2,58.2,0,0,1-7.5,3,57,57,0,0,1-17.44,2.81h-3.19a44.35,44.35,0,0,1,3,7.32,2.95,2.95,0,0,1-3.75,3.75,44.79,44.79,0,0,1-4.5-1.69,69.9,69.9,0,0,1-9.93-5.63v12a1.43,1.43,0,0,1-.47,1,1.41,1.41,0,0,1-1,.47h-3a1.62,1.62,0,0,1-1.5-1.5v-12a70.57,70.57,0,0,1-9.94,5.63,44.79,44.79,0,0,1-4.5,1.69,3,3,0,0,1-3.75-3.75,37.84,37.84,0,0,1,3.19-7.32H74.68A57,57,0,0,1,57.24,124a58.2,58.2,0,0,1-7.5-3,3,3,0,0,1,0-5.44A52.93,52.93,0,0,1,64,110.68,77.6,77.6,0,0,1,51.62,90.24a79.52,79.52,0,0,1-3.56-10.5A2.78,2.78,0,0,1,48.71,77a3.23,3.23,0,0,1,2.35-1l.56.19a69.26,69.26,0,0,1,10.12,3.19A80.39,80.39,0,0,1,81.81,91v-.75a79.11,79.11,0,0,1,5.62-28.5,70.61,70.61,0,0,1,6.19-12.37,2.91,2.91,0,0,1,4.87,0,70.61,70.61,0,0,1,6.19,12.37,79.13,79.13,0,0,1,5.63,28.5V91a80.32,80.32,0,0,1,20.06-11.62,69.26,69.26,0,0,1,10.12-3.19l.57-.19a3.22,3.22,0,0,1,2.34,1,2.76,2.76,0,0,1,.66,2.72,79.73,79.73,0,0,1-3.57,10.5,77.6,77.6,0,0,1-12.37,20.44A52.93,52.93,0,0,1,142.37,115.55Z"></path><path class="cls-4" d="M56.59,66.72a91,91,0,0,1,8.9,3l.19.07q3.93,1.62,7.56,3.46c.22-1.08.47-2.17.74-3.26L33.72,29.71a5,5,0,0,0-7.08,7.07Zm26.16,12,46.71,46.71a55.79,55.79,0,0,1-12,1.34h-.77L78,88.12c1.31.93,2.59,1.88,3.82,2.87v-.75A71.41,71.41,0,0,1,82.75,78.75Zm55.16,55.15a70.42,70.42,0,0,1-10.07,2.42,10.25,10.25,0,0,1-.2,1.46l27.7,27.7a5,5,0,0,0,7.07-7.07Z"></path></g></g></svg> 