<?xml version="1.0" encoding="UTF-8"?> <svg xmlns="http://www.w3.org/2000/svg" viewBox="0 0 196.11 196.11"><defs><style>.cls-1{isolation:isolate;}.cls-2{opacity:0.05;mix-blend-mode:darken;}.cls-3{fill:#231f20;}.cls-4{fill:#ddb893;}</style></defs><g class="cls-1"><g id="Layer_2" data-name="Layer 2"><g id="Get_It_Page" data-name="Get It Page"><g class="cls-2"><path class="cls-3" d="M140.93,68a23.72,23.72,0,0,1,6.19,10.6,26.55,26.55,0,0,1-4.88,23.53H119.93l-5.06-10.31a3,3,0,0,0-2.81-1.69,2.66,2.66,0,0,0-2.63,1.69l-9.19,18.37L89.37,85.77a3.11,3.11,0,0,0-2.91-1.69A2.72,2.72,0,0,0,83.74,86L77,102.08H57.87A26.55,26.55,0,0,1,53,78.55,23.72,23.72,0,0,1,59.18,68l.56-.56a25,25,0,0,1,11.07-6.47,23.54,23.54,0,0,1,12.84,0,25,25,0,0,1,11.16,6.47l5.25,5.44,5.25-5.44a24.86,24.86,0,0,1,11.15-6.47,23.57,23.57,0,0,1,12.85,0,24.94,24.94,0,0,1,11.06,6.47ZM112.06,99.83l4.12,8.25h20.44L102.49,143a3.5,3.5,0,0,1-2.53,1.13A2.92,2.92,0,0,1,97.62,143L63.49,108.08H81.12l5.62-13.5,10.69,23.81a2.66,2.66,0,0,0,2.63,1.69,3,3,0,0,0,2.81-1.69Z"></path><path class="cls-3" d="M61.14,54.07,39.32,32.25l-7.07,7.07L53,60A35,35,0,0,1,61.14,54.07Z"></path><polygon class="cls-3" points="133.07 126 126.08 133.15 162.66 169.73 169.73 162.66 133.07 126"></polygon><path class="cls-3" d="M100.06,14A86.06,86.06,0,1,1,14,100.06,86.06,86.06,0,0,1,100.06,14m0-10a96.06,96.06,0,1,0,96.05,96.06A96.17,96.17,0,0,0,100.06,4Z"></path></g><path class="cls-4" d="M136.93,64a23.72,23.72,0,0,1,6.19,10.6,26.55,26.55,0,0,1-4.88,23.53H115.93l-5.06-10.31a3,3,0,0,0-2.81-1.69,2.66,2.66,0,0,0-2.63,1.69l-9.19,18.37L85.37,81.77a3.11,3.11,0,0,0-2.91-1.69A2.72,2.72,0,0,0,79.74,82L73,98.08H53.87A26.55,26.55,0,0,1,49,74.55,23.72,23.72,0,0,1,55.18,64l.56-.56a25,25,0,0,1,11.07-6.47,23.54,23.54,0,0,1,12.84,0,25,25,0,0,1,11.16,6.47l5.25,5.44,5.25-5.44a24.86,24.86,0,0,1,11.15-6.47,23.57,23.57,0,0,1,12.85,0,24.94,24.94,0,0,1,11.06,6.47ZM108.06,95.83l4.12,8.25h20.44L98.49,139A3.5,3.5,0,0,1,96,140.08,2.92,2.92,0,0,1,93.62,139L59.49,104.08H77.12l5.62-13.5,10.69,23.81a2.66,2.66,0,0,0,2.63,1.69,3,3,0,0,0,2.81-1.69Z"></path><path class="cls-4" d="M57.14,50.07,35.32,28.25l-7.07,7.07L49,56A35,35,0,0,1,57.14,50.07Z"></path><polygon class="cls-4" points="129.07 122 122.08 129.15 158.66 165.73 165.73 158.66 129.07 122"></polygon><path class="cls-4" d="M96.06,10A86.06,86.06,0,1,1,10,96.06,86.06,86.06,0,0,1,96.06,10m0-10a96.06,96.06,0,1,0,96.05,96.06A96.17,96.17,0,0,0,96.06,0Z"></path></g></g></g></svg> 