<?xml version="1.0" encoding="UTF-8"?> <svg xmlns="http://www.w3.org/2000/svg" viewBox="0 0 196.11 196.12"><defs><style>.cls-1{fill:#dce8e8;}.cls-2,.cls-3{fill:#dde7e7;}.cls-3,.cls-5{fill-rule:evenodd;}.cls-4,.cls-5{fill:#659a97;}</style></defs><g id="Layer_2" data-name="Layer 2"><g id="Send_It_Page" data-name="Send It Page"><polygon class="cls-1" points="115.86 89.05 117.21 90.23 123.27 87.67 122.33 86.32 115.86 89.05"></polygon><polygon class="cls-1" points="87.27 95.51 81.67 94.19 82.88 91.44 87.8 92.8 87.27 95.51"></polygon><path class="cls-2" d="M100.06,196.12a96.06,96.06,0,1,1,96.05-96.06A96.17,96.17,0,0,1,100.06,196.12Zm0-182.12a86.06,86.06,0,1,0,86.05,86.06A86.16,86.16,0,0,0,100.06,14Z"></path><path class="cls-3" d="M50.93,61.08,30.64,40.79a5,5,0,1,1,7.08-7.07l20,20A63.93,63.93,0,0,0,50.93,61.08Zm95.42,81.28,20.06,20.06a5,5,0,0,1-7.07,7.07L139,149.18A63.75,63.75,0,0,0,146.35,142.36Z"></path><path class="cls-2" d="M136.48,96.62l-33.59,10.63L73.28,92l-1.17-.73L103.27,100l32.26-13.6,17.73,2.89a52.24,52.24,0,0,0-6-15.93,54.47,54.47,0,0,0-19.69-19.68,53.55,53.55,0,0,0-53.95,0A54.4,54.4,0,0,0,53.88,73.4a53.51,53.51,0,0,0,0,54A54.55,54.55,0,0,0,73.57,147a53.55,53.55,0,0,0,54,0,54.63,54.63,0,0,0,19.69-19.68,52.18,52.18,0,0,0,7.11-24.16ZM126,121.91a23.53,23.53,0,0,1-6.31,5,33.9,33.9,0,0,1-17.63,4.79A31.74,31.74,0,0,1,86,127.58a29.56,29.56,0,0,1-11.2-11.32,32.18,32.18,0,0,1-4-16,31.42,31.42,0,0,1,4.13-16,29.55,29.55,0,0,1,11.21-11.2,31.88,31.88,0,0,1,16.09-4A34.61,34.61,0,0,1,118.6,73a22.87,22.87,0,0,1,5.87,4.35,2.23,2.23,0,0,1,.66,1.63,2.87,2.87,0,0,1-.44,1.63l-4.79,7.61a2.83,2.83,0,0,1-1.85,1.1,2.22,2.22,0,0,1-2.06-.66A23.33,23.33,0,0,0,112.07,86a19.83,19.83,0,0,0-9.57-2.61q-7.4,0-11.75,4.67A16.6,16.6,0,0,0,86.4,99.83a18.38,18.38,0,0,0,4.13,12.08,14.52,14.52,0,0,0,12,5.44,19.43,19.43,0,0,0,10.22-3,26.91,26.91,0,0,0,4.14-3.27,2.07,2.07,0,0,1,2-.76,2.61,2.61,0,0,1,2,1l5.44,7.39a2.89,2.89,0,0,1,.43,1.63,2.22,2.22,0,0,1-.64,1.63"></path><path class="cls-4" d="M96.06,192.12a96.06,96.06,0,1,1,96.05-96.06A96.17,96.17,0,0,1,96.06,192.12ZM96.06,10a86.06,86.06,0,1,0,86.05,86.06A86.16,86.16,0,0,0,96.06,10Z"></path><path class="cls-5" d="M46.93,57.08,26.64,36.79a5,5,0,1,1,7.08-7.07l20,20A63.93,63.93,0,0,0,46.93,57.08Zm95.42,81.28,20.06,20.06a5,5,0,0,1-7.07,7.07L135,145.18A63.75,63.75,0,0,0,142.35,138.36Z"></path><path class="cls-4" d="M132.48,92.62,98.89,103.25,69.28,88l-1.17-.73L99.27,96l32.26-13.6,17.73,2.89a52.24,52.24,0,0,0-6-15.93,54.47,54.47,0,0,0-19.69-19.68,53.55,53.55,0,0,0-53.95,0A54.4,54.4,0,0,0,49.88,69.4a53.51,53.51,0,0,0,0,54A54.55,54.55,0,0,0,69.57,143a53.55,53.55,0,0,0,54,0,54.63,54.63,0,0,0,19.69-19.68,52.18,52.18,0,0,0,7.11-24.16ZM122,117.91a23.53,23.53,0,0,1-6.31,5,33.9,33.9,0,0,1-17.63,4.79A31.74,31.74,0,0,1,82,123.58a29.56,29.56,0,0,1-11.2-11.32,32.18,32.18,0,0,1-4-16,31.42,31.42,0,0,1,4.13-16,29.55,29.55,0,0,1,11.21-11.2,31.88,31.88,0,0,1,16.09-4A34.61,34.61,0,0,1,114.6,69a22.87,22.87,0,0,1,5.87,4.35,2.23,2.23,0,0,1,.66,1.63,2.87,2.87,0,0,1-.44,1.63l-4.79,7.61a2.83,2.83,0,0,1-1.85,1.1,2.22,2.22,0,0,1-2.06-.66A23.33,23.33,0,0,0,108.07,82a19.83,19.83,0,0,0-9.57-2.61q-7.4,0-11.75,4.67A16.6,16.6,0,0,0,82.4,95.83a18.38,18.38,0,0,0,4.13,12.08,14.52,14.52,0,0,0,12,5.44,19.43,19.43,0,0,0,10.22-3,26.91,26.91,0,0,0,4.14-3.27,2.07,2.07,0,0,1,2-.76,2.61,2.61,0,0,1,2,1l5.44,7.39a2.89,2.89,0,0,1,.43,1.63,2.22,2.22,0,0,1-.64,1.63"></path></g></g></svg> 