<?xml version="1.0" encoding="UTF-8"?> <svg xmlns="http://www.w3.org/2000/svg" viewBox="0 0 196.11 196.11"><defs><style>.cls-1,.cls-2{fill:#dde7e7;}.cls-2,.cls-4{fill-rule:evenodd;}.cls-3,.cls-4{fill:#659a97;}</style></defs><g id="Layer_2" data-name="Layer 2"><g id="Send_It_Page" data-name="Send It Page"><path class="cls-1" d="M100.06,196.11a96.06,96.06,0,1,1,96.05-96.06A96.17,96.17,0,0,1,100.06,196.11Zm0-182.11a86.06,86.06,0,1,0,86.05,86.05A86.15,86.15,0,0,0,100.06,14Z"></path><path class="cls-2" d="M58.33,68.47H67l1.11-4.34L37.72,33.71a5,5,0,0,0-7.08,7.07Zm14.79.65L72,73.56a4.17,4.17,0,0,0-.12,1H64.4L74.77,84.91H88.91ZM94.83,91h-14l7.57,7.57.12-.21A33.19,33.19,0,0,1,94.83,91Zm5.9,5.75a25.51,25.51,0,0,0-5.19,6,6.18,6.18,0,0,0-.84,2.16l7,7h14.15Zm30.47,30.46H117.05l-11.54-11.54h14.14Zm1.24,15.39h12.18a7.91,7.91,0,0,0,1.76-.2L135,131H120.9Zm20.19,6a15.74,15.74,0,0,1-8,2.19h-3.94l18.66,18.66a5,5,0,0,0,7.07-7.07Z"></path><path class="cls-1" d="M108.06,98.34a1.92,1.92,0,1,1-1.92,1.92A1.93,1.93,0,0,1,108.06,98.34Zm15.39-3.85a1.93,1.93,0,1,1-1.92,1.92A1.94,1.94,0,0,1,123.45,94.49Zm15.39,3.85a1.92,1.92,0,1,1-1.92,1.92A1.93,1.93,0,0,1,138.84,98.34ZM99.72,111.8h47.46c4.16,0,6.57-5.28,4.19-9.12-4.83-7.81-15.47-14-27.92-14s-23.08,6.15-27.91,14C93.15,106.52,95.57,111.8,99.72,111.8ZM150.39,131H96.52A1.93,1.93,0,0,0,94.6,133v1.93a7.72,7.72,0,0,0,7.69,7.69h42.33a7.72,7.72,0,0,0,7.69-7.69V133A1.93,1.93,0,0,0,150.39,131Zm-1.93-15.39h-50a5.77,5.77,0,1,0,0,11.54h50a5.77,5.77,0,0,0,0-11.54Z"></path><path class="cls-2" d="M71.87,74.54H48.47a2.59,2.59,0,0,0-2.59,2.59v5.19a2.59,2.59,0,0,0,2.59,2.59h54.74a2.59,2.59,0,0,0,2.59-2.59V77.13a2.59,2.59,0,0,0-2.59-2.59H79.94l2.32-9.07h4.93a4,4,0,0,0,0-7.95h-8a4,4,0,0,0-3.85,3L72,73.56A4.17,4.17,0,0,0,71.87,74.54Z"></path><path class="cls-2" d="M100.39,97c-.37.32-.73.65-1.07,1C99.66,97.68,100,97.35,100.39,97ZM99.3,98l-.15.14,0,0Zm-.19.18-.12.12h0Zm-.18.18-.11.11,0,0Zm-.17.17-.1.11,0,0Zm-.16.17-.1.11,0,0Zm-.17.18-.09.1,0,0Zm-.16.17-.09.1,0,0Zm-.15.17-.09.1,0,0Zm-.16.18-.08.09,0,0Zm-.15.17-.08.1,0,0Zm-.15.17-.08.1,0,0Zm-.15.18-.08.1,0,0Zm-.15.18-.07.09,0,0Zm-.14.17-.08.1,0-.06Zm-.14.18-.08.1,0-.06Zm-.14.18-.08.09,0-.06Zm-.14.18-.07.09,0-.06Zm-.14.18-.07.09,0-.06Zm-.13.18-.07.1.05-.08Zm-.13.18-.07.1,0-.08Zm-.13.18-.07.1.06-.08Zm-.13.18-.07.11.06-.09Zm-.12.19L96,102,96,102Zm-.13.18-.07.11.07-.1Zm-.12.19-.08.12.08-.12Zm-.12.18-.11.19.11-.19Zm-.16.27,0,0v0Zm0,.09,0,0v0Zm0,.09,0,0v0Zm0,.08,0,0v0Zm0,.09,0,0v0Zm0,.09,0,0h0Zm0,.09v0h0Zm0,.12Zm0,.09v0Zm0,.09v0Zm0,.09v0Zm0,.09,0,0v0Zm0,.09v0h0Zm0,.1v0h0Zm0,.09v0h0Zm0,.11h0Zm0,.11v0Zm0,.09v0Zm0,.09v0Zm0,.09v0Zm0,.09v0h0Zm0,.1v0h0Zm0,.09v0h0Zm0,.11v0Zm0,.11v0Zm0,.09v0Zm0,.1v0Zm0,.09v0Zm0,.09v0Zm0,.1v0h0Zm0,.09v0Zm0,.11v0Zm0,.11v0Zm0,.09v0Zm0,.09v0Zm0,.1v0Zm0,.09v0Zm0,.09v0h0Zm0,.1v0h0Zm0,.1v0Zm0,.11v0Zm0,.09v0Zm0,.09v0Zm0,.09v0Zm0,.09v0Zm0,.09v0h0Zm0,.09v0h0Zm0,.1v0Zm0,.12h0Zm0,.08v0Zm0,.09v0Zm0,.09v0Zm0,.09v0Zm0,.08v0h0Zm0,.09v0h0Zm0,.09v0Zm0,.11v0Zm0,.09v0Zm0,.08v0Zm0,.08v0Zm0,.09v0Zm0,.08v0h0Zm0,.08v0h0Zm0,.09v0Zm0,.1h0Zm0,.08v0Zm0,.08v0Zm0,.08v0Zm0,.08,0,0v0Zm0,.07,0,0v0Zm0,.08v0h0Zm0,.08,0,0Zm.06.1h0Zm.05.07,0,0,0,0Zm0,.07,0,0,0,0Zm0,.08,0,0v0Zm0,.07,0,0v0Zm0,.07,0,0v0Zm.05.07,0,0h0Zm.06.07,0,0h0ZM96,110h0Zm.07.07,0,0,0,0Zm0,.07,0,0,0,0Zm.06.06,0,0,0,0Zm.06.07,0,0h0Zm.06.06,0,0h0Zm.06.06,0,0h0Zm.06.06,0,0h0Zm.07.07h0Zm.08.07,0,0,0,0Zm.06,0,0,0,0,0Zm.07.06,0,0h0Zm.06,0,0,0v0Zm.07.06,0,0h0Zm.07,0,0,0h0Zm.07.05,0,0h0Zm.07,0,0,0Zm.09.07h0Zm.08,0,0,0h0Zm.07,0,0,0,0,0Zm.07,0,0,0h0Zm.07,0,0,0h0Zm.08,0,0,0h0Zm.07,0,0,0h0Zm.08,0,0,0h0Zm.11.06h0Zm.07,0,0,0,0,0Zm.08,0,0,0h0Zm.08,0h0Zm.08,0h0Zm.08,0h0Zm.08,0h0Zm.08,0,0,0h0Zm-.4,4.1a5.51,5.51,0,0,0-1,.18A5.51,5.51,0,0,1,97.9,115.68Zm-1,.18-.06,0h.06Zm-.06,0-.07,0h.07Zm-.07,0-.06,0h.06Zm-.06,0a6,6,0,0,0-.74.29A6,6,0,0,1,96.71,115.92Zm-.74.29-.12.06Zm-.12.06-.11.06Zm-.12.06-.11.07Zm-.11.07-.11.06Zm-.11.06-.44.29Zm-.44.29-.1.08Zm-.11.08-.09.08Zm-.1.08-.1.08Zm-.1.09-.1.08A.39.39,0,0,1,94.76,117Zm-.1.08-.1.08Zm-.19.17-.1.1-.09.09a3.5,3.5,0,0,1,.28-.27Zm-.19.19-.08.09Zm-.09.1-.08.09Zm-.09.1-.07.09Zm-.08.1-.08.09Zm-.09.1-.07.09Zm-.08.1-.07.1Zm-.15.21-.07.1.15-.21Zm-.07.11-.07.1Zm-.07.11-.07.1Zm-.07.11-.06.1Zm-.07.12-.06.1Zm-.06.11-.06.11Zm-.07.12-.05.11A.54.54,0,0,0,93.29,118.83Zm-.05.12-.06.11Zm-.06.12-.05.11,0-.06Zm-.05.11v0Zm0,.06v0Zm0,.07v0Zm0,.06v0Zm0,.07v0Zm0,.06v0Zm0,.07v0Zm0,.06v0Zm0,.07v0Zm0,.06v0h0Zm0,.07v0h0Zm0,.07v0h0Zm0,.06v0h0Zm0,.07v0Zm0,.07v0Zm0,.07v0Zm0,.09h0Zm0,.07v0Zm0,.07v0Zm0,.07v0Zm0,.07v0Zm0,.07v0Zm0,.07v0Zm0,.07v0Zm0,.07v0Zm0,.07v0h0Zm0,.07v0h0Zm0,.07v0h0Zm0,.07v0Zm0,.07v0Zm0,.08v0Zm0,.07v0Zm0,.1v0Zm0,.13v0Zm0,.11v0Zm0,.12v.1A.31.31,0,0,0,92.68,121.78Zm0,.12v0Zm0,.1v.1A.34.34,0,0,0,92.7,122Zm0,.12v.1S92.72,122.16,92.72,122.12Zm0,.11,0,.09v-.09Zm0,.12,0,.09A.29.29,0,0,1,92.75,122.35Zm0,.11,0,.09v-.09Zm0,.11,0,.09Zm0,.11,0,.09,0,0Zm0,.1,0,.1S92.85,122.81,92.84,122.78Zm0,.12,0,.09A.29.29,0,0,0,92.87,122.9Zm0,.1,0,.09V123Zm0,.11,0,.09Zm0,.11,0,.08v0Zm0,.1,0,.09Zm0,.11,0,.09,0-.06Zm0,.09,0,.1Zm0,.12,0,.09Zm0,.09,0,.09v0Zm0,.1,0,.09Zm.05.11,0,.08,0,0Zm0,.09,0,.09Zm.06.1,0,.09,0-.06Zm0,.09,0,.09A.41.41,0,0,1,93.41,124.22Zm.06.1,0,.09A.41.41,0,0,1,93.47,124.32Zm0,.09,0,.08,0,0Zm.06.1,0,.08A.35.35,0,0,0,93.58,124.51Zm.06.09,0,.08,0,0Zm.06.09.06.08Zm.13.17.06.08-.12-.16Zm.07.1L94,125ZM94,125l.06.07,0,0Zm.07.08.07.08Zm.08.09.06.07,0,0Zm.06.08.07.07A.23.23,0,0,0,94.17,125.29Zm.15.15.07.07-.14-.14Zm.09.09.07.07Zm.07.07.07.07,0,0Zm.08.07.08.07Zm.09.08.07.06,0,0Zm.07.07.08.06Zm.17.13L95,126l-.16-.13ZM95,126l.09.06Zm.09.06.08.06,0,0Zm.09.06.08.06Zm.18.12.09.06-.18-.11Zm.18.12.09,0-.17-.11Zm.1.06.09,0Zm.1,0,.09,0,0,0Zm.09,0,.1,0Zm.2.1.1,0-.2-.09Zm.2.09.1,0-.2-.09Zm.11,0,.1,0Zm.1,0,.1,0,0,0ZM96,131.11h0Zm0,0h0Zm0,0h0Zm0,0h0Zm0,0h0Zm-.06,0h0Zm0,0h0Zm0,0h0Zm0,0h0Zm0,0h0Zm0,0h0Zm0,0h0Zm0,0h0Zm0,0,0,0h0Zm0,0h0Zm0,0h0Zm0,0h0Zm0,0h0Zm0,0h0Zm0,0v0Zm0,0,0,0Zm0,0h0Zm0,0h0Zm0,0h0Zm0,0h0Zm0,0v0Zm0,0h0Zm0,0h0Zm0,0h0Zm0,0v0Zm0,0h0Zm0,0h0Zm0,0h0Zm0,0h0Zm0,0v0Zm0,0v0Zm0,0v0Zm0,.06Zm0,0h0Zm0,0h0Zm0,0v0Zm0,0v0Zm0,.05h0Zm0,0h0Zm0,.05h0Zm0,0v0Zm0,0v0Zm0,0h0Zm0,.06h0Zm0,0v0Zm0,.05v0Zm0,0v0Zm0,.05v0Zm0,2.08v0Zm0,.1v0Zm0,.1v0Zm0,.1v0Zm0,.09v0Zm0,.1v0Zm0,.1v0Zm0,.09v0Zm0,.1v0Zm0,.09v0Zm0,.1v0Zm0,.09v0Zm0,.09v0Zm0,.1v0Zm0,.09v0Zm0,.09v0Zm0,.09v0Zm0,.1v0Zm0,.09,0,.05v-.05Zm0,.09v0Zm0,.09,0,.06v-.06Zm0,.09,0,.06V137Zm0,.08,0,.07V137Zm0,.09,0,.07v-.07Zm0,.09,0,.07,0,0Zm0,.09,0,.07,0,0Zm0,.08,0,.08v0Zm0,.09,0,.07v0Zm0,.08,0,.08v0Zm0,.09,0,.08,0,0Zm0,.08,0,.08v0ZM94.83,91a33.19,33.19,0,0,0-6.3,7.36,14.29,14.29,0,0,0-.61,13.88A13.87,13.87,0,0,0,87,129.45a10,10,0,0,0-.63,3.51v1.93a15.81,15.81,0,0,0,2,7.69H63.06a6.91,6.91,0,0,1-6.87-6.23C54.86,122.69,51.7,99.88,50.45,91Z"></path><path class="cls-3" d="M96.06,192.11a96.06,96.06,0,1,1,96.05-96.06A96.17,96.17,0,0,1,96.06,192.11ZM96.06,10a86.06,86.06,0,1,0,86.05,86.05A86.15,86.15,0,0,0,96.06,10Z"></path><path class="cls-4" d="M54.33,64.47H63l1.11-4.34L33.72,29.71a5,5,0,0,0-7.08,7.07Zm14.79.65L68,69.56a4.17,4.17,0,0,0-.12,1H60.4L70.77,80.91H84.91ZM90.83,87h-14l7.57,7.57.12-.21A33.19,33.19,0,0,1,90.83,87Zm5.9,5.75a25.51,25.51,0,0,0-5.19,6,6.18,6.18,0,0,0-.84,2.16l7,7h14.15Zm30.47,30.46H113.05l-11.54-11.54h14.14Zm1.24,15.39h12.18a7.91,7.91,0,0,0,1.76-.2L131,127H116.9Zm20.19,6a15.74,15.74,0,0,1-8,2.19h-3.94l18.66,18.66a5,5,0,0,0,7.07-7.07Z"></path><path class="cls-3" d="M104.06,94.34a1.92,1.92,0,1,1-1.92,1.92A1.93,1.93,0,0,1,104.06,94.34Zm15.39-3.85a1.93,1.93,0,1,1-1.92,1.92A1.94,1.94,0,0,1,119.45,90.49Zm15.39,3.85a1.92,1.92,0,1,1-1.92,1.92A1.93,1.93,0,0,1,134.84,94.34ZM95.72,107.8h47.46c4.16,0,6.57-5.28,4.19-9.12-4.83-7.81-15.47-14-27.92-14s-23.08,6.15-27.91,14C89.15,102.52,91.57,107.8,95.72,107.8ZM146.39,127H92.52A1.93,1.93,0,0,0,90.6,129v1.93a7.72,7.72,0,0,0,7.69,7.69h42.33a7.72,7.72,0,0,0,7.69-7.69V129A1.93,1.93,0,0,0,146.39,127Zm-1.93-15.39h-50a5.77,5.77,0,1,0,0,11.54h50a5.77,5.77,0,0,0,0-11.54Z"></path><path class="cls-4" d="M67.87,70.54H44.47a2.59,2.59,0,0,0-2.59,2.59v5.19a2.59,2.59,0,0,0,2.59,2.59H99.21a2.59,2.59,0,0,0,2.59-2.59V73.13a2.59,2.59,0,0,0-2.59-2.59H75.94l2.32-9.07h4.93a4,4,0,0,0,0-7.95h-8a4,4,0,0,0-3.85,3L68,69.56A4.17,4.17,0,0,0,67.87,70.54Z"></path><path class="cls-4" d="M96.39,93c-.37.32-.73.65-1.07,1C95.66,93.68,96,93.35,96.39,93ZM95.3,94l-.15.14,0,0Zm-.19.18-.12.12h0Zm-.18.18-.11.11,0,0Zm-.17.17-.1.11,0,0Zm-.16.17-.1.11,0,0Zm-.17.18-.09.1,0,0Zm-.16.17-.09.1,0,0Zm-.15.17-.09.1,0,0Zm-.16.18-.08.09,0,0Zm-.15.17-.08.1,0,0Zm-.15.17-.08.1,0,0Zm-.15.18-.08.1,0,0Zm-.15.18-.07.09,0,0Zm-.14.17-.08.1,0-.06Zm-.14.18-.08.1,0-.06Zm-.14.18-.08.09,0-.06Zm-.14.18-.07.09,0-.06Zm-.14.18-.07.09,0-.06Zm-.13.18-.07.1.05-.08Zm-.13.18-.07.1,0-.08Zm-.13.18-.07.1.06-.08Zm-.13.18-.07.11.06-.09Zm-.12.19L92,98,92,98Zm-.13.18-.07.11.07-.1Zm-.12.19-.08.12.08-.12Zm-.12.18-.11.19.11-.19Zm-.16.27,0,0v0Zm0,.09,0,0v0Zm0,.09,0,0v0Zm0,.08,0,0v0Zm0,.09,0,0v0Zm0,.09,0,0h0Zm0,.09v0h0Zm0,.12Zm0,.09v0Zm0,.09v0Zm0,.09v0Zm0,.09,0,0v0Zm0,.09v0h0Zm0,.1v0h0Zm0,.09v0h0Zm0,.11h0Zm0,.11v0Zm0,.09v0Zm0,.09v0Zm0,.09v0Zm0,.09v0h0Zm0,.1v0h0Zm0,.09v0h0Zm0,.11v0Zm0,.11v0Zm0,.09v0Zm0,.1v0Zm0,.09v0Zm0,.09v0Zm0,.1v0h0Zm0,.09v0Zm0,.11v0Zm0,.11v0Zm0,.09v0Zm0,.09v0Zm0,.1v0Zm0,.09v0Zm0,.09v0h0Zm0,.1v0h0Zm0,.1v0Zm0,.11v0Zm0,.09v0Zm0,.09v0Zm0,.09v0Zm0,.09v0Zm0,.09v0h0Zm0,.09v0h0Zm0,.1v0Zm0,.12h0Zm0,.08v0Zm0,.09v0Zm0,.09v0Zm0,.09v0Zm0,.08v0h0Zm0,.09v0h0Zm0,.09v0Zm0,.11v0Zm0,.09v0Zm0,.08v0Zm0,.08v0Zm0,.09v0Zm0,.08v0h0Zm0,.08v0h0Zm0,.09v0Zm0,.1h0Zm0,.08v0Zm0,.08v0Zm0,.08v0Zm0,.08,0,0v0Zm0,.07,0,0v0Zm0,.08v0h0Zm0,.08,0,0Zm.06.1h0Zm.05.07,0,0,0,0Zm0,.07,0,0,0,0Zm0,.08,0,0v0Zm0,.07,0,0v0Zm0,.07,0,0v0Zm.05.07,0,0h0Zm.06.07,0,0h0ZM92,106h0Zm.07.07,0,0,0,0Zm0,.07,0,0,0,0Zm.06.06,0,0,0,0Zm.06.07,0,0h0Zm.06.06,0,0h0Zm.06.06,0,0h0Zm.06.06,0,0h0Zm.07.07h0Zm.08.07,0,0,0,0Zm.06,0,0,0,0,0Zm.07.06,0,0h0Zm.06,0,0,0v0Zm.07.06,0,0h0Zm.07,0,0,0h0Zm.07.05,0,0h0Zm.07,0,0,0Zm.09.07h0Zm.08,0,0,0h0Zm.07,0,0,0,0,0Zm.07,0,0,0h0Zm.07,0,0,0h0Zm.08,0,0,0h0Zm.07,0,0,0h0Zm.08,0,0,0h0Zm.11.06h0Zm.07,0,0,0,0,0Zm.08,0,0,0h0Zm.08,0h0Zm.08,0h0Zm.08,0h0Zm.08,0h0Zm.08,0,0,0h0Zm-.4,4.1a5.51,5.51,0,0,0-1,.18A5.51,5.51,0,0,1,93.9,111.68Zm-1,.18-.06,0h.06Zm-.06,0-.07,0h.07Zm-.07,0-.06,0h.06Zm-.06,0a6,6,0,0,0-.74.29A6,6,0,0,1,92.71,111.92Zm-.74.29-.12.06Zm-.12.06-.11.06Zm-.12.06-.11.07Zm-.11.07-.11.06Zm-.11.06-.44.29Zm-.44.29-.1.08Zm-.11.08-.09.08Zm-.1.08-.1.08Zm-.1.09-.1.08A.39.39,0,0,1,90.76,113Zm-.1.08-.1.08Zm-.19.17-.1.1-.09.09a3.5,3.5,0,0,1,.28-.27Zm-.19.19-.08.09Zm-.09.1-.08.09Zm-.09.1-.07.09Zm-.08.1-.08.09Zm-.09.1-.07.09Zm-.08.1-.07.1Zm-.15.21-.07.1.15-.21Zm-.07.11-.07.1Zm-.07.11-.07.1Zm-.07.11-.06.1Zm-.07.12-.06.1Zm-.06.11-.06.11Zm-.07.12-.05.11A.54.54,0,0,0,89.29,114.83Zm-.05.12-.06.11Zm-.06.12-.05.11,0-.06Zm-.05.11v0Zm0,.06v0Zm0,.07v0Zm0,.06v0Zm0,.07v0Zm0,.06v0Zm0,.07v0Zm0,.06v0Zm0,.07v0Zm0,.06v0h0Zm0,.07v0h0Zm0,.07v0h0Zm0,.06v0h0Zm0,.07v0Zm0,.07v0Zm0,.07v0Zm0,.09h0Zm0,.07v0Zm0,.07v0Zm0,.07v0Zm0,.07v0Zm0,.07v0Zm0,.07v0Zm0,.07v0Zm0,.07v0Zm0,.07v0h0Zm0,.07v0h0Zm0,.07v0h0Zm0,.07v0Zm0,.07v0Zm0,.08v0Zm0,.07v0Zm0,.1v0Zm0,.13v0Zm0,.11v0Zm0,.12v.1A.31.31,0,0,0,88.68,117.78Zm0,.12v0Zm0,.1v.1A.34.34,0,0,0,88.7,118Zm0,.12v.1S88.72,118.16,88.72,118.12Zm0,.11,0,.09v-.09Zm0,.12,0,.09A.29.29,0,0,1,88.75,118.35Zm0,.11,0,.09v-.09Zm0,.11,0,.09Zm0,.11,0,.09,0,0Zm0,.1,0,.1S88.85,118.81,88.84,118.78Zm0,.12,0,.09A.29.29,0,0,0,88.87,118.9Zm0,.1,0,.09V119Zm0,.11,0,.09Zm0,.11,0,.08v0Zm0,.1,0,.09Zm0,.11,0,.09,0-.06Zm0,.09,0,.1Zm0,.12,0,.09Zm0,.09,0,.09v0Zm0,.1,0,.09Zm.05.11,0,.08,0,0Zm0,.09,0,.09Zm.06.1,0,.09,0-.06Zm0,.09,0,.09A.41.41,0,0,1,89.41,120.22Zm.06.1,0,.09A.41.41,0,0,1,89.47,120.32Zm0,.09,0,.08,0,0Zm.06.1,0,.08A.35.35,0,0,0,89.58,120.51Zm.06.09,0,.08,0,0Zm.06.09.06.08Zm.13.17.06.08-.12-.16Zm.07.1L90,121ZM90,121l.06.07,0,0Zm.07.08.07.08Zm.08.09.06.07,0,0Zm.06.08.07.07A.23.23,0,0,0,90.17,121.29Zm.15.15.07.07-.14-.14Zm.09.09.07.07Zm.07.07.07.07,0,0Zm.08.07.08.07Zm.09.08.07.06,0,0Zm.07.07.08.06Zm.17.13L91,122l-.16-.13ZM91,122l.09.06Zm.09.06.08.06,0,0Zm.09.06.08.06Zm.18.12.09.06-.18-.11Zm.18.12.09,0-.17-.11Zm.1.06.09,0Zm.1,0,.09,0,0,0Zm.09,0,.1,0Zm.2.1.1,0-.2-.09Zm.2.09.1,0-.2-.09Zm.11,0,.1,0Zm.1,0,.1,0,0,0ZM92,127.11h0Zm0,0h0Zm0,0h0Zm0,0h0Zm0,0h0Zm-.06,0h0Zm0,0h0Zm0,0h0Zm0,0h0Zm0,0h0Zm0,0h0Zm0,0h0Zm0,0h0Zm0,0,0,0h0Zm0,0h0Zm0,0h0Zm0,0h0Zm0,0h0Zm0,0h0Zm0,0v0Zm0,0,0,0Zm0,0h0Zm0,0h0Zm0,0h0Zm0,0h0Zm0,0v0Zm0,0h0Zm0,0h0Zm0,0h0Zm0,0v0Zm0,0h0Zm0,0h0Zm0,0h0Zm0,0h0Zm0,0v0Zm0,0v0Zm0,0v0Zm0,.06Zm0,0h0Zm0,0h0Zm0,0v0Zm0,0v0Zm0,.05h0Zm0,0h0Zm0,.05h0Zm0,0v0Zm0,0v0Zm0,0h0Zm0,.06h0Zm0,0v0Zm0,.05v0Zm0,0v0Zm0,.05v0Zm0,2.08v0Zm0,.1v0Zm0,.1v0Zm0,.1v0Zm0,.09v0Zm0,.1v0Zm0,.1v0Zm0,.09v0Zm0,.1v0Zm0,.09v0Zm0,.1v0Zm0,.09v0Zm0,.09v0Zm0,.1v0Zm0,.09v0Zm0,.09v0Zm0,.09v0Zm0,.1v0Zm0,.09,0,.05v-.05Zm0,.09v0Zm0,.09,0,.06v-.06Zm0,.09,0,.06V133Zm0,.08,0,.07V133Zm0,.09,0,.07v-.07Zm0,.09,0,.07,0,0Zm0,.09,0,.07,0,0Zm0,.08,0,.08v0Zm0,.09,0,.07v0Zm0,.08,0,.08v0Zm0,.09,0,.08,0,0Zm0,.08,0,.08v0ZM90.83,87a33.19,33.19,0,0,0-6.3,7.36,14.29,14.29,0,0,0-.61,13.88A13.87,13.87,0,0,0,83,125.45a10,10,0,0,0-.63,3.51v1.93a15.81,15.81,0,0,0,2,7.69H59.06a6.91,6.91,0,0,1-6.87-6.23C50.86,118.69,47.7,95.88,46.45,87Z"></path></g></g></svg> 