<?xml version="1.0" encoding="UTF-8"?> <svg xmlns="http://www.w3.org/2000/svg" viewBox="0 0 196.11 196.11"><defs><style>.cls-1{isolation:isolate;}.cls-2{opacity:0.05;mix-blend-mode:darken;}.cls-3{fill:#231f20;}.cls-4{fill:#ddb893;}</style></defs><g class="cls-1"><g id="Layer_2" data-name="Layer 2"><g id="Get_It_Page" data-name="Get It Page"><g class="cls-2"><path class="cls-3" d="M100.06,196.11a96.06,96.06,0,1,1,96.05-96.06A96.17,96.17,0,0,1,100.06,196.11Zm0-182.11a86.06,86.06,0,1,0,86.05,86.05A86.15,86.15,0,0,0,100.06,14Z"></path><path class="cls-3" d="M100.06,14A86.06,86.06,0,1,1,14,100.06,86.06,86.06,0,0,1,100.06,14m0-10a96.06,96.06,0,1,0,96.05,96.06A96.17,96.17,0,0,0,100.06,4Z"></path><path class="cls-3" d="M131.92,80.62a2.38,2.38,0,0,1,0,3.58L128.33,88a2.56,2.56,0,0,1-3.74,0L112,100.33a21.11,21.11,0,0,1,1.31,12.14,20.15,20.15,0,0,1-5.71,10.83L81.9,149.05a10.44,10.44,0,0,1-14.83,0L52.41,134.38a10.41,10.41,0,0,1,0-14.82L78.15,93.81A20.06,20.06,0,0,1,89,88.11a21.12,21.12,0,0,1,12.14,1.3l12.38-12.54a2.55,2.55,0,0,1,0-3.75l3.75-3.58a2.36,2.36,0,0,1,3.58,0Zm-53.44,57,19.88-19.88L83.69,103.1,63.81,123Z"></path><path class="cls-3" d="M129.76,46.48a12,12,0,0,1,.25,1.57c.05.48.07.91.09,1.35,0,.87,0,1.7,0,2.53,0,1.66-.16,3.29-.33,4.91s-.4,3.22-.72,4.82a13.43,13.43,0,0,1-1.62,4.56,12.29,12.29,0,0,0-.38-4.56c-.34-1.49-.78-3-1.26-4.42s-1-2.88-1.6-4.26c-.29-.69-.6-1.37-.91-2a6.76,6.76,0,0,0-.94-1.52,4.31,4.31,0,1,1,6-6.21,4.4,4.4,0,0,1,1.23,2.21Z"></path><path class="cls-3" d="M149.61,62.62l-.67.67a7.36,7.36,0,0,1-.59.48c-.39.32-.74.53-1.1.78-.72.47-1.43.89-2.14,1.28-1.41.79-2.84,1.5-4.28,2.16a40,40,0,0,1-4.46,1.69,16.87,16.87,0,0,1-2.34.53,5.2,5.2,0,0,1-2.36-.09,4.7,4.7,0,0,0,2-1,13.59,13.59,0,0,0,1.62-1.43,35.66,35.66,0,0,0,2.83-3.3c.88-1.17,1.72-2.36,2.47-3.56.38-.6.74-1.21,1.05-1.8a8.94,8.94,0,0,0,.4-.84,1.88,1.88,0,0,0,.12-.36v-.22a5.27,5.27,0,1,1,9,3.46Z"></path><path class="cls-3" d="M146.87,87.38a6.56,6.56,0,0,0-.18-3,12.74,12.74,0,0,0-1.46-3.32,12.1,12.1,0,0,0-2.49-2.91,5.66,5.66,0,0,0-3.64-1.48,6.67,6.67,0,0,1,4.47-.34,15,15,0,0,1,4.37,1.8,17.49,17.49,0,0,1,3.85,3.09,13.75,13.75,0,0,1,2.94,4.71l.36,1a4.3,4.3,0,0,1-8.08,3A4.24,4.24,0,0,1,146.87,87.38Z"></path><path class="cls-3" d="M85.68,78.61,38,30.93,30.93,38,75.8,82.87A29.83,29.83,0,0,1,85.68,78.61Z"></path><path class="cls-3" d="M122.85,115.78a29.69,29.69,0,0,1-4.27,9.87l43.53,43.53,7.07-7.07Z"></path></g><path class="cls-4" d="M96.06,192.11a96.06,96.06,0,1,1,96.05-96.06A96.17,96.17,0,0,1,96.06,192.11ZM96.06,10a86.06,86.06,0,1,0,86.05,86.05A86.15,86.15,0,0,0,96.06,10Z"></path><path class="cls-4" d="M96.06,10A86.06,86.06,0,1,1,10,96.06,86.06,86.06,0,0,1,96.06,10m0-10a96.06,96.06,0,1,0,96.05,96.06A96.17,96.17,0,0,0,96.06,0Z"></path><path class="cls-4" d="M127.92,76.62a2.38,2.38,0,0,1,0,3.58L124.33,84a2.56,2.56,0,0,1-3.74,0L108,96.33a21.11,21.11,0,0,1,1.31,12.14,20.15,20.15,0,0,1-5.71,10.83L77.9,145.05a10.44,10.44,0,0,1-14.83,0L48.41,130.38a10.41,10.41,0,0,1,0-14.82L74.15,89.81A20.06,20.06,0,0,1,85,84.11a21.12,21.12,0,0,1,12.14,1.3l12.38-12.54a2.55,2.55,0,0,1,0-3.75l3.75-3.58a2.36,2.36,0,0,1,3.58,0Zm-53.44,57,19.88-19.88L79.69,99.1,59.81,119Z"></path><path class="cls-4" d="M125.76,42.48a12,12,0,0,1,.25,1.57c0,.48.07.91.09,1.35,0,.87,0,1.7,0,2.53,0,1.66-.16,3.29-.33,4.91s-.4,3.22-.72,4.82a13.43,13.43,0,0,1-1.62,4.56,12.29,12.29,0,0,0-.38-4.56c-.34-1.49-.78-3-1.26-4.42s-1-2.88-1.6-4.26c-.29-.69-.6-1.37-.91-2a6.76,6.76,0,0,0-.94-1.52,4.31,4.31,0,1,1,6-6.21,4.4,4.4,0,0,1,1.23,2.21Z"></path><path class="cls-4" d="M145.61,58.62l-.67.67a7.36,7.36,0,0,1-.59.48c-.39.32-.74.53-1.1.78-.72.47-1.43.89-2.14,1.28-1.41.79-2.84,1.5-4.28,2.16a40,40,0,0,1-4.46,1.69,16.87,16.87,0,0,1-2.34.53,5.2,5.2,0,0,1-2.36-.09,4.7,4.7,0,0,0,2-1,13.59,13.59,0,0,0,1.62-1.43,35.66,35.66,0,0,0,2.83-3.3c.88-1.17,1.72-2.36,2.47-3.56.38-.6.74-1.21,1.05-1.8a8.94,8.94,0,0,0,.4-.84,1.88,1.88,0,0,0,.12-.36v-.22a5.27,5.27,0,1,1,9,3.46Z"></path><path class="cls-4" d="M142.87,83.38a6.56,6.56,0,0,0-.18-3,12.74,12.74,0,0,0-1.46-3.32,12.1,12.1,0,0,0-2.49-2.91,5.66,5.66,0,0,0-3.64-1.48,6.67,6.67,0,0,1,4.47-.34,15,15,0,0,1,4.37,1.8,17.49,17.49,0,0,1,3.85,3.09,13.75,13.75,0,0,1,2.94,4.71l.36,1a4.3,4.3,0,0,1-8.08,3A4.24,4.24,0,0,1,142.87,83.38Z"></path><path class="cls-4" d="M81.68,74.61,34,26.93,26.93,34,71.8,78.87A29.83,29.83,0,0,1,81.68,74.61Z"></path><path class="cls-4" d="M118.85,111.78a29.69,29.69,0,0,1-4.27,9.87l43.53,43.53,7.07-7.07Z"></path></g></g></g></svg> 