<?xml version="1.0" encoding="UTF-8"?> <svg xmlns="http://www.w3.org/2000/svg" viewBox="0 0 196.11 196.11"><defs><style>.cls-1{isolation:isolate;}.cls-2{opacity:0.05;mix-blend-mode:darken;}.cls-3{fill:#231f20;}.cls-4{fill:#ddb893;}</style></defs><g class="cls-1"><g id="Layer_2" data-name="Layer 2"><g id="Get_It_Page" data-name="Get It Page"><g class="cls-2"><path class="cls-3" d="M54.31,83.81a2.24,2.24,0,0,1-2.25-2.25v-15a6.69,6.69,0,0,1,6.75-6.75h19.5a6.71,6.71,0,0,1,6.75,6.75v15a2.25,2.25,0,0,1-2.25,2.25Zm61.4,6.65a2.16,2.16,0,0,0-.65,1.6v9.75q0,8.43-4.69,13.5a13.31,13.31,0,0,1-10.22,4.5,13.91,13.91,0,0,1-10.41-4.5q-4.68-5.07-4.68-13.5V92.06a2.24,2.24,0,0,0-2.25-2.25H54.31a2.22,2.22,0,0,0-2.25,2.25v3.37a56.28,56.28,0,0,1,0,6.56,42.84,42.84,0,0,0,7.5,24.57,49.93,49.93,0,0,0,40.59,21.75,49.3,49.3,0,0,0,22.59-5.63,48.81,48.81,0,0,0,18-16.12A43.59,43.59,0,0,0,148.06,102V92.06a2.24,2.24,0,0,0-2.25-2.25h-28.5A2.16,2.16,0,0,0,115.71,90.46Zm32.35-23.9a6.71,6.71,0,0,0-6.75-6.75h-19.5a6.69,6.69,0,0,0-6.75,6.75v15a2.24,2.24,0,0,0,2.25,2.25h28.5a2.25,2.25,0,0,0,2.25-2.25Z"></path><path class="cls-3" d="M100.06,14A86.06,86.06,0,1,1,14,100.06,86.06,86.06,0,0,1,100.06,14m0-10a96.06,96.06,0,1,0,96.05,96.06A96.17,96.17,0,0,0,100.06,4Z"></path><path class="cls-3" d="M95.06,101.81v.32l7.12,7.12a4.57,4.57,0,0,0,.82-.7c.53-.58,2.06-2.23,2.06-6.74V98L93.89,86.82a12.25,12.25,0,0,1,1.17,5.24Z"></path><path class="cls-3" d="M144.79,137.72a57.61,57.61,0,0,1-7.16,7l23.54,23.54,7.07-7.07Z"></path><path class="cls-3" d="M57,49.91,38.31,31.24l-7.07,7.07L47.31,54.38A16.27,16.27,0,0,1,57,49.91Z"></path></g><path class="cls-4" d="M50.31,79.81a2.24,2.24,0,0,1-2.25-2.25v-15a6.69,6.69,0,0,1,6.75-6.75h19.5a6.71,6.71,0,0,1,6.75,6.75v15a2.25,2.25,0,0,1-2.25,2.25Zm61.4,6.65a2.16,2.16,0,0,0-.65,1.6v9.75q0,8.43-4.69,13.5a13.31,13.31,0,0,1-10.22,4.5,13.91,13.91,0,0,1-10.41-4.5q-4.68-5.07-4.68-13.5V88.06a2.24,2.24,0,0,0-2.25-2.25H50.31a2.22,2.22,0,0,0-2.25,2.25v3.37a56.28,56.28,0,0,1,0,6.56,42.84,42.84,0,0,0,7.5,24.57,49.93,49.93,0,0,0,40.59,21.75,49.3,49.3,0,0,0,22.59-5.63,48.81,48.81,0,0,0,18-16.12A43.59,43.59,0,0,0,144.06,98V88.06a2.24,2.24,0,0,0-2.25-2.25h-28.5A2.16,2.16,0,0,0,111.71,86.46Zm32.35-23.9a6.71,6.71,0,0,0-6.75-6.75h-19.5a6.69,6.69,0,0,0-6.75,6.75v15a2.24,2.24,0,0,0,2.25,2.25h28.5a2.25,2.25,0,0,0,2.25-2.25Z"></path><path class="cls-4" d="M96.06,10A86.06,86.06,0,1,1,10,96.06,86.06,86.06,0,0,1,96.06,10m0-10a96.06,96.06,0,1,0,96.05,96.06A96.17,96.17,0,0,0,96.06,0Z"></path><path class="cls-4" d="M91.06,97.81v.32l7.12,7.12a4.57,4.57,0,0,0,.82-.7c.53-.58,2.06-2.23,2.06-6.74V94L89.89,82.82a12.25,12.25,0,0,1,1.17,5.24Z"></path><path class="cls-4" d="M140.79,133.72a57.61,57.61,0,0,1-7.16,7l23.54,23.54,7.07-7.07Z"></path><path class="cls-4" d="M53,45.91,34.31,27.24l-7.07,7.07L43.31,50.38A16.27,16.27,0,0,1,53,45.91Z"></path></g></g></g></svg> 