<?xml version="1.0" encoding="UTF-8"?> <svg xmlns="http://www.w3.org/2000/svg" xmlns:xlink="http://www.w3.org/1999/xlink" viewBox="0 0 87.34 87.34"><defs><style>.cls-1{fill:#f2f2f3;}.cls-2{fill:#fff;}.cls-3,.cls-4{fill:#659a97;}.cls-4{opacity:0.2;}.cls-5{fill:none;stroke:#659a97;stroke-miterlimit:10;stroke-width:3px;}</style><symbol id="icon_Avatar_2" data-name="icon_Avatar 2" viewBox="0 0 87.34 87.34"><circle class="cls-1" cx="43.67" cy="43.67" r="42.17"></circle><path class="cls-2" d="M43.67,85.84a42,42,0,0,0,25.5-8.6c-4.75-10.61-14.38-17.88-25.5-17.88S22.92,66.63,18.16,77.24A42,42,0,0,0,43.67,85.84Z"></path><circle class="cls-2" cx="43.67" cy="37.26" r="15.68"></circle><path class="cls-3" d="M43.67,23.07A14.19,14.19,0,1,1,29.48,37.26,14.18,14.18,0,0,1,43.67,23.07m0-3A17.19,17.19,0,1,0,60.85,37.26,17.21,17.21,0,0,0,43.67,20.07Z"></path><path class="cls-4" d="M43.67,59.36c-11.12,0-20.75,7.27-25.51,17.88,1,.78,2.09,1.51,3.18,2.2,4.91-10,14.27-16.85,25-16.85a26.69,26.69,0,0,1,19.31,8.59C60.42,64,52.51,59.36,43.67,59.36Z"></path><path class="cls-5" d="M43.67,85.84a42,42,0,0,0,25.5-8.6c-4.75-10.61-14.38-17.88-25.5-17.88S22.92,66.63,18.16,77.24A42,42,0,0,0,43.67,85.84Z"></path><path class="cls-4" d="M47.31,50a14.17,14.17,0,0,1-7.12-26.44,14.17,14.17,0,1,0,10.6,26A14.24,14.24,0,0,1,47.31,50Z"></path><circle class="cls-5" cx="43.67" cy="43.67" r="42.17"></circle></symbol></defs><g id="Layer_2" data-name="Layer 2"><g id="Layer_1-2" data-name="Layer 1"><use width="87.34" height="87.34" xlink:href="#icon_Avatar_2"></use></g></g></svg> 