<?xml version="1.0" encoding="UTF-8"?> <svg xmlns="http://www.w3.org/2000/svg" viewBox="0 0 196.11 196.11"><defs><style>.cls-1{isolation:isolate;}.cls-2{opacity:0.05;mix-blend-mode:darken;}.cls-3{fill:#231f20;}.cls-4{fill:#ddb893;}</style></defs><g class="cls-1"><g id="Layer_2" data-name="Layer 2"><g id="Get_It_Page" data-name="Get It Page"><g class="cls-2"><path class="cls-3" d="M100.06,196.11a96.06,96.06,0,1,1,96.05-96.06A96.17,96.17,0,0,1,100.06,196.11Zm0-182.11a86.06,86.06,0,1,0,86.05,86.05A86.15,86.15,0,0,0,100.06,14Z"></path><path class="cls-3" d="M100.06,14A86.06,86.06,0,1,1,14,100.06,86.06,86.06,0,0,1,100.06,14m0-10a96.06,96.06,0,1,0,96.05,96.06A96.17,96.17,0,0,0,100.06,4Z"></path><path class="cls-3" d="M64.9,57.83l-26-26-7.07,7.07L60.21,67.28A18.42,18.42,0,0,1,64.9,57.83Z"></path><path class="cls-3" d="M140.19,133.11v6.95a18.32,18.32,0,0,1-1.07,6.13l22.25,22.25,7.07-7.08Z"></path><path class="cls-3" d="M120.53,63.76h-8.88V56.65a5.17,5.17,0,0,0-5.15-5.16H93.62a5.17,5.17,0,0,0-5.16,5.16v7.11H79.58a8.14,8.14,0,0,0-8.11,8.12v66.06a8.14,8.14,0,0,0,8.11,8.12h41a8.14,8.14,0,0,0,8.11-8.12V71.88A8.14,8.14,0,0,0,120.53,63.76Zm-5.22,36.89-16,27.63a2.22,2.22,0,0,1-3.63.27,2.1,2.1,0,0,1-.37-1.91L99.49,109H88.68a2.07,2.07,0,0,1-1.64-.73,2.21,2.21,0,0,1-.54-1.72l2.91-21.81a2.06,2.06,0,0,1,.72-1.37,2.2,2.2,0,0,1,1.46-.54h13.08a2,2,0,0,1,1.73.86,2.07,2.07,0,0,1,.37,1.86L103,97.38H113.4a2.07,2.07,0,0,1,1.91,1.09A2,2,0,0,1,115.31,100.65Z"></path></g><path class="cls-4" d="M96.06,192.11a96.06,96.06,0,1,1,96.05-96.06A96.17,96.17,0,0,1,96.06,192.11ZM96.06,10a86.06,86.06,0,1,0,86.05,86.05A86.15,86.15,0,0,0,96.06,10Z"></path><path class="cls-4" d="M96.06,10A86.06,86.06,0,1,1,10,96.06,86.06,86.06,0,0,1,96.06,10m0-10a96.06,96.06,0,1,0,96.05,96.06A96.17,96.17,0,0,0,96.06,0Z"></path><path class="cls-4" d="M60.9,53.83l-26-26-7.07,7.07L56.21,63.28A18.42,18.42,0,0,1,60.9,53.83Z"></path><path class="cls-4" d="M136.19,129.11v6.95a18.32,18.32,0,0,1-1.07,6.13l22.25,22.25,7.07-7.08Z"></path><path class="cls-4" d="M116.53,59.76h-8.88V52.65a5.17,5.17,0,0,0-5.15-5.16H89.62a5.17,5.17,0,0,0-5.16,5.16v7.11H75.58a8.14,8.14,0,0,0-8.11,8.12v66.06a8.14,8.14,0,0,0,8.11,8.12h41a8.14,8.14,0,0,0,8.11-8.12V67.88A8.14,8.14,0,0,0,116.53,59.76Zm-5.22,36.89-16,27.63a2.22,2.22,0,0,1-3.63.27,2.1,2.1,0,0,1-.37-1.91L95.49,105H84.68a2.07,2.07,0,0,1-1.64-.73,2.21,2.21,0,0,1-.54-1.72l2.91-21.81a2.06,2.06,0,0,1,.72-1.37,2.2,2.2,0,0,1,1.46-.54h13.08a2,2,0,0,1,1.73.86,2.07,2.07,0,0,1,.37,1.86L99,93.38H109.4a2.07,2.07,0,0,1,1.91,1.09A2,2,0,0,1,111.31,96.65Z"></path></g></g></g></svg> 