<svg xmlns="http://www.w3.org/2000/svg" xmlns:xlink="http://www.w3.org/1999/xlink" viewBox="0 0 171.63 171.27"><defs><style>.cls-1{opacity:0.1;}.cls-2{fill:#659a97;}.cls-3{fill:#fff;}.cls-4{fill:#8fb1af;}</style><symbol id="date_marker" data-name="date_marker" viewBox="0 0 171.63 171.27"><g class="cls-1"><circle class="cls-2" cx="84.13" cy="88.52" r="71.24"/><path class="cls-2" d="M84.13,19.78A68.74,68.74,0,1,1,15.4,88.52,68.81,68.81,0,0,1,84.13,19.78m0-5a73.74,73.74,0,1,0,73.74,73.74A73.73,73.73,0,0,0,84.13,14.78Z"/><path class="cls-2" d="M84.13,14.78A73.74,73.74,0,1,1,10.4,88.52,73.73,73.73,0,0,1,84.13,14.78m0-5.26a79,79,0,1,0,79,79,79.09,79.09,0,0,0-79-79Z"/></g><circle class="cls-3" cx="84.13" cy="84.13" r="71.24"/><path class="cls-4" d="M84.13,15.4A68.74,68.74,0,1,1,15.4,84.13,68.81,68.81,0,0,1,84.13,15.4m0-5a73.74,73.74,0,1,0,73.74,73.73A73.73,73.73,0,0,0,84.13,10.4Z"/><path class="cls-3" d="M84.13,10.4A73.74,73.74,0,1,1,10.4,84.13,73.73,73.73,0,0,1,84.13,10.4m0-5.26a79,79,0,1,0,79,79,79.09,79.09,0,0,0-79-79Z"/></symbol></defs><g id="Layer_2" data-name="Layer 2"><g id="About_Page" data-name="About Page"><use width="171.63" height="171.27" xlink:href="#date_marker"/></g></g></svg>