<?xml version="1.0" encoding="UTF-8"?> <svg xmlns="http://www.w3.org/2000/svg" xmlns:xlink="http://www.w3.org/1999/xlink" viewBox="0 0 518.81 518.81"><defs><style>.cls-1,.cls-2,.cls-3,.cls-5,.cls-6{fill-rule:evenodd;}.cls-1{fill:url(#linear-gradient);}.cls-13,.cls-2,.cls-9{fill:#fff;}.cls-2{stroke:#659a97;stroke-linecap:round;stroke-linejoin:round;stroke-width:4px;}.cls-3{fill:url(#linear-gradient-2);}.cls-4,.cls-5,.cls-6{fill:#679a96;}.cls-6{opacity:0.1;}.cls-7{fill:#99c0bd;}.cls-10,.cls-8{fill:#98c0bd;}.cls-10,.cls-15,.cls-16,.cls-9{stroke:#98c0bd;}.cls-10,.cls-9{stroke-width:5.01px;}.cls-11{fill:#eef3f3;opacity:0.63;mix-blend-mode:multiply;}.cls-12,.cls-15,.cls-16{fill:none;}.cls-14{fill:#f3f3f3;}.cls-15,.cls-16{stroke-width:3px;}.cls-16{stroke-dasharray:11.78 11.78;}</style><linearGradient id="linear-gradient" x1="24231.63" y1="434.05" x2="24499.52" y2="434.05" gradientTransform="translate(-316.05 24501.52) rotate(-90)" gradientUnits="userSpaceOnUse"><stop offset="0" stop-color="#ddb893"></stop><stop offset="0.55" stop-color="#d6b18b"></stop><stop offset="1" stop-color="#b5926c"></stop></linearGradient><linearGradient id="linear-gradient-2" x1="24432.55" y1="550.05" x2="24432.55" y2="318.05" xlink:href="#linear-gradient"></linearGradient><symbol id="elm_USAMap" data-name="elm_USAMap" viewBox="0 0 1966.7 1959.22"><g id="_Group_Extrude" data-name="&lt;Group&gt;Extrude"><path class="cls-8" d="M1815.07,303.42l-8.69,1.63-10.87,10.86-5.43,2.72h-9v-.32l-2-.25v-1.75l-2-.25v-1.75l-2-.25v-1.75l-2-.25v-1.75l-2-.25v-1.75l-4.21-.53-.09-.51-1.57.52-.43-2.52-1.57.52-.43-2.52-1.57.52-.43-2.52-1.57.52-.43-2.52-1.57.52-.43-2.52-1.57.52-.43-2.52-4.89,1.63-1.63,3.26-8.15-1.63-17.92-8.15-13-8.7h-9.78l-4.35-3.26-7.61,2.18-3.8,3.8-1.09,4.35h-10.3v-1.07l-2-.1v-1.9l-2-.1v-1.9l-2-.1v-1.9l-18-.92-.23-1.05h-1.56l-.44-2h-1.56l-.44-2h-9.76l-2.87-12.08-2.71-18.48-1.82-.75-.18-1.25-1.82-.75-.18-1.25-1.82-.75-.18-1.25-1.82-.75-.18-1.25-1.82-.75-.18-1.25-1.82-.75-.18-1.25-1.82-.75-.18-1.25-6.52-2.71-7.61-1.63-2.17.54-1.09,27.71-101.27-.12-.38,0-96.26-1.9-62.48-2.17-89.1-4.35-77.12-7.17-.3-.14-103.09-9.44-98.34-11.95-98.34-13.58L761.85,186.33l-61.94-11.41-110-23.3-45.7-8.82L493.07,132l-77.15-19L348.54,94l-28.79-6.52-32.6-9.24-14.67-4.89h0l-3.8,2.72-1.09,2.72,8.15,16.3,3.8,8.69-2.24,4.48-1.14-2.17h-1l-1-2h-1l-1-2h-1l-1-2h-1l-1-2h-1l-1-2h-1l-1-2h-1l-1-2h-7.88l-4.22,4.44-.57-1.62-1.26.1-.74-2.1-6.79.54,1.63,8.42,5.16,7.61.4-.36,1.6,2.36.4-.36,1.6,2.36.37-.33a.6.6,0,0,0,.29.36l1.34,2,.37-.33a.6.6,0,0,0,.29.36l1.34,2,.37-.33a.6.6,0,0,0,.29.36l1.34,2,.37-.33a.6.6,0,0,0,.29.36l1.16,1.7-3.67,3.22v8.15l-7.61.54-11.41-3.26L226.84,125l-10.32-2.17-15.22-7.07-10.18-6.11-4.07-4.88-.41-.09-1.59-1.91-.41-.09-1.59-1.91-.41-.09-1.59-1.91-.41-.09-1.59-1.91-.41-.09-1.59-1.91-.41-.09-1.59-1.91-.41-.09-1.59-1.91L166,89.1l-7.61,31.51,6,10.87V158.1l-2.17,9.78,4.89,23.91,9.23,9.23-14.67,2.18-.54,12.49,2.05.9-.05,1.1,2.05.9-.05,1.1,2.05.9-.05,1.1,1.54.68-4.28,10.71-9.24,1.09L154,244l7.6,10.82-7.72,2.85-7.61,21.74L135.45,313l-10.87,21.74L107.74,382,86,427.68,58.84,470.06l-6.52,9.78-2.72,28.8,1.3,40.6h-.22l-5.06,15.91-.54,25L27.69,629.82l-10.32,8.69-1.09,3.8-6,2.72L5.41,659.15,2.7,670l9.23,14.13,5.44,14.12,3.8,12L20.08,732l-6,10.32-2.18,19.56-3.26,12.5,6,13,9.24,15.21,7.6,16.3,4.35,13.58-1.09,10.87L33.67,845V852l19,21.19-1.63,8.15L48.88,889l-2.17,6.52.54,27.71,7.06,12.49,6.52,8.7.58.1,1.42,1.9.58.1,1.42,1.9.58.1,1.42,1.9.58.1,1.42,1.9.58.1,1.42,1.9.58.1,1.42,1.9.13,0-3.43,10.8-7.07,5.43h-3.8l-2.72,13,1.63,9.78,10.87,14.67,5.43,17.93,4.89,15.75,4.35,10.33,11.41,19.56,4.89,8.69,1.63,9.78,1.85,1.11.15.89,1.85,1.11.15.89,1.43.86v6.55l-2.71,6.52-6,23.91-1.63,6.52,8.15,9.23.26,0,1.74,2,.26,0,1.74,2,.26,0,1.74,2,.26,0,1.74,2,.26,0,1.74,2,.26,0,1.74,2,.26,0,1.74,2,14.12,1.63,15.22,6,13,7.06h7.52l6.73,12.62,3.8,7.61,1.38.74.62,1.26,1.38.74.62,1.26,1.38.74.62,1.26,1.38.74.62,1.26,1.38.74.62,1.26,1.38.74.62,1.26,1.38.74.62,1.26,13,7.06,8.31,1.39,1.06,5.26-4.89,2.17,1.08,3.26,1.46.37.54,1.63,1.46.37.54,1.63,1.46.37.54,1.63,1.46.37.54,1.63,1.46.37.54,1.63,1.46.37.54,1.63,1.46.37.54,1.63,10.87,2.72,9.24.54,9.77-5.21,2.6,7.28,8.69,14.12,1.09,10.87v31.51l1.63,6,1.52.22.48,1.78,1.52.22.48,1.78,1.52.22.48,1.78,1.52.22.48,1.78,1.52.22.48,1.78,1.52.22.48,1.78,1.52.22.48,1.78,33.69,4.89,66.28,9.24,23.75,2.31-.4,1.81,1.63,3.26,1.39.79.61,1.21,1.39.79.61,1.21,1.39.79.61,1.21,1.39.79.61,1.21,1.39.79.61,1.21,1.39.79.61,1.21,1.39.79.61,1.21L485.74,1399l40.74,25.54,49.45,28.79,56.5,33.69,41.29,8.15,83.61,9.06,0,.09,52,6.68,4.34-33.68,98.25,9.51h0v-.29l2.26.57,3.84,11.51,1.59.77.41,1.23,1.59.77.41,1.23,1.59.77.41,1.23,1.59.77.41,1.23,1.59.77.41,1.23,1.59.77.41,1.23,1.59.77.41,1.23,5.35,2.58.75,1.89L962,1543.71l4.35,5.43.6.25,1.4,1.75.6.25,1.4,1.75.6.25,1.4,1.75.6.25,1.4,1.75.6.25,1.4,1.75.6.25,1.4,1.75.6.25,1.4,1.75,12.07,5.06.45.84,1.19,6.72,10.86,21.74v27.16l7.61,15.76,25,26.08.14,0,1.86,2,.14,0,1.86,2,.14,0,1.86,2,.14,0,1.86,2,.14,0,1.86,2,.14,0,1.86,2,.14,0,1.86,2,13.36,5.43v.32l2,1.17v.83l2,1.17v.83l2,1.17v.83l2,1.17v.83l2,1.17v.83l13,7.61,6.52,2.17,6,3.81,8.69,3.26,8.15-8.15,14.67-20.65,3.26-12.5,7.61-10.86,12-4.89,15.21-6,10.33,7.61,25,2.17,19.72,3.29,6.49,7.7,1.26,1.14.74.86,1.26,1.14.74.86,1.26,1.14.74.86,1.26,1.14.74.86,1.26,1.14.74.86,1.26,1.14.74.86,1.26,1.14.74.86,6.29,5.61.35,3.21,6,6.52,2.72,14.13,17.93,41.29-.55,6.52,2.06,1.27-.06.73,2.06,1.27-.06.73,2.06,1.27-.06.73,2.06,1.27-.06.73,2.06,1.27-.06.73,2.06,1.27-.06.73,2.06,1.27-.06.73,4.44,2.73,7.64,14.24,11.41,14.67.65.26,1.35,1.74.65.26,1.35,1.74.65.26,1.35,1.74.65.26,1.35,1.74.65.26,1.35,1.74.65.26,1.35,1.74.65.26,1.35,1.74,1.51.61-3.56,12,2.18,3.26,1,.5,1,1.5,1,.5,1,1.5.16.09-.9,9.5-2.18,2.17,2.18,7.61,1.72,1,.28,1,1.72,1,.28,1,1.72,1,.28,1,1.72,1,.28,1,1.72,1,.28,1,1.72,1,.15.53,3.34,16.69,7.06,13,1.21.54.79,1.46,1.21.54.79,1.46,1.21.54.79,1.46,1.21.54.79,1.46,1.21.54.79,1.46,1.21.54.79,1.46,1.21.54.79,1.46,25.54,11.41,17.39,3.8,14.12,10.32,10.87,2.18,4.34-1.63,18.48,3.8,19,13,10.33-6.52,3.26-4.89-6-9.24-3.26-20.64-6-23.36-2.71-8.15,2.71-15.22,3.81-13,4.34-15.21,4.89-18.47-2.06-1.77.06-.23-2.06-1.77.06-.23-2.06-1.77.06-.23-1.3-1.12,3-5.92,13.58-1.09,13-18.47,11.41-2.18,19.56-12,6-4.89,21.19-11.41,19-8.15,17.93-10.86,9.24-7.07,19-17.93,4.35-2.71,7.06-4.89,8.7-6.52,3.26-6.52,33.14-15.22,19-5.32-1-11.77,5-11.22,2.25-24.89,2.12-7.86-5.15-7.23,9.65-16.83,2.45-28.16-2.5-2.64-.66-10.57-14.17-18.62-3-16.63-9-14.86-2.36-12.12-2.31-32,.45-31,186.94-3.84,3.85-7-1-11.93-6.14-10,5.37-5-5.37-8.44,2.3-8.44,4.6-18.84,8.46-6.93-2.3-7.68,12.29-18,9.22-4.6-.38-5-1.16-6.14,9.6-18.81,8.08-4.23,1.29-11.52,5.95-4.17-4-.61,2-1.39-4-.61,2-1.39-4-.61,2-1.39-4-.61,2-1.39-4-.61,2-1.39-3.55-.55-.1-.29,1.65-1.16-2.14-.33-.43-1.27.57-.4-.74-.11-.33-1,9.42-8,1.85-6.79,4.3-13.6,3.58-10.94h0l.18-.19,5.78-18.46,2.18-19.69,7.06-8.59,8.72-5,.17-10.25,3.42-6.51-5.7-8.55-.44.33-1.56-2.33-.44.33-1.56-2.33-.44.33-1.56-2.33-.44.33-1.56-2.33-.44.33-1.56-2.33-.44.33-1.56-2.33-.44.33-1.26-1.88-1.78-6.62,2.69-8.47-6.54-11.52-6.15-15.38-1.29-.21-.71-1.79-1.29-.21-.71-1.79-1.29-.21-.71-1.79-1.29-.21-.71-1.79-1.29-.21-.71-1.79-1.29-.21-.71-1.79-1.29-.21-.71-1.79-16.13-2.68-11.15-9-4-9.68,2.69-10.76,6.92-20.36,1.54-9.62-2.14-1.14.14-.86-2.14-1.14.14-.86-2.14-1.14.14-.86-2.14-1.14.14-.86-2.14-1.14.14-.86-2.14-1.14.14-.86-2.14-1.14.14-.86-6.55-3.47-12.68-1.48-.19-7.17-2-1.24,0-.76-2-1.24,0-.76-2-1.24,0-.76-2-1.24,0-.76-2-1.24,0-.76-2-1.24,0-.76-2-1.24,0-.76-15.17-9.49L1826,942.12l-7.69-24.59-.77-14.2,2.65-7.58.29.36,5.21-3.75-.94-7.11.94-4.54,5.46-3.72,6.34-1.53-.42-9.33,2.59-5.53,5.92-5.17,1-13.56-2-1.84v-.16l-2-1.84v-.16l-2-1.84v-.16l-.71-.66-1.92-3.61,4.68-12.93,18.75-6.25,5.76-1.93,7.31-5.38,2.68-9.22,5.32-10.86,2.27-11.51-2.31-8-1.91-1.7-.09-.3-1.91-1.7-.09-.3-1.91-1.7-.09-.3-1.91-1.7-.09-.3-1.91-1.7-.09-.3-1.91-1.7-.09-.3-1.23-1.1L1868,748l-3.2-4.12-.56-.14-1.44-1.86-.56-.14-1.44-1.86-.56-.14-1.44-1.86-.56-.14-1.44-1.86h0l-.32-3.29h0l-2.21-2.8-.48-.08-1.52-1.92-.48-.08-1.52-1.92-.48-.08-1.52-1.92-.48-.08-1.52-1.92-.48-.08-1.52-1.92-.48-.08-1.52-1.92-.48-.08-1.52-1.92-10.35-1.69-1.33-.68-1.61-2.43-.64-10.78,6.82-11.39-.86-4.78-1.88-1.3-.12-.7-1.88-1.3-.12-.7-1.88-1.3-.12-.7-1.88-1.3-.12-.7-.14-.09-2.24-11.21-.21-.12-2.26-21.64-7.2-9.67-.9-.52-1.1-1.48-.9-.52-1.1-1.48-.9-.52-1.1-1.48-.9-.52-1.1-1.48-.9-.52-1.1-1.48-.9-.52-1.1-1.48-.9-.52-1.1-1.48-16.42-9.54-6.37-9.35-.71-.11-1.29-1.89-.71-.11-1.29-1.89-.71-.11-1.29-1.89-.71-.11-1.29-1.89-.71-.11-1.29-1.89-.71-.11-1.29-1.89-.71-.11-1.29-1.89-7-1-.71-1.17h-.79l-1.21-2h-.79l-1.21-2h-.79l-1.21-2h-.79l-1.21-2h-.79l-1.21-2h-7.58l-1-18.71-.57-12.6,6.24-10.89-2.29-10.84-1.89-1.47-.11-.53-1.89-1.47-.11-.53-1.89-1.47-.11-.53-1.89-1.47-.11-.53-1.14-.89,7-18.72,17.08-12.64,4.63-5.68-.32-27,.77-10.72,8.28-10.78,14.54-9.26,4.35-.55L1800.82,400l6-2.72,7.6-13,8.15-11.95,10.33-8.69,16-6.75L1880,343.2l13.23-6.17,2.06-7.66-14-14-14.92,1.24-1.76,2.68-.79-1.35-.82,0-1.18-2-.82,0-1.18-2-.82,0-1.18-2-.82,0-1.18-2L1825.94,311l-2.21,1.84Zm-1537.16-154-.19,1.58-.94-.77-.28-.59-1.72-1.41-.13-.28.37-2.39Zm-3.7-24.63-.21.13.12-.34Z"></path><polygon class="cls-8" points="133.2 1199.36 131.51 1197.36 131.2 1197.36 129.51 1195.36 129.2 1195.36 127.51 1193.36 127.2 1193.36 125.51 1191.36 125.2 1191.36 123.51 1189.36 123.2 1189.36 121.51 1187.36 121.2 1187.36 119.51 1185.36 108.38 1185.63 110.55 1190.52 112.45 1194.59 113.53 1194.62 114.45 1196.59 115.53 1196.62 116.45 1198.59 117.53 1198.62 118.45 1200.59 119.53 1200.62 120.45 1202.59 121.53 1202.62 122.45 1204.59 123.53 1204.62 124.45 1206.59 125.53 1206.62 126.45 1208.59 137.32 1208.86 137.86 1204.52 133.51 1199.36 133.2 1199.36"></polygon><path class="cls-8" d="M204.69,1295h0l-.8.13-1.2-2.13h0l-.8.13-1.2-2.13h0l-.8.13-1.2-2.13h0l-.8.13-1.2-2.13h0l-.8.13-1.2-2.13h0l-.8.13-1.2-2.13h0l-.8.13-1.2-2.13h0l-1.63.27v7.34c0,1.35,2.44,6.24,2.44,6.24l1.89,1.77.11.23,1.89,1.77.11.23,1.89,1.77.11.23,1.89,1.77.11.23,1.89,1.77.11.23,1.89,1.77.11.23,1.89,1.77.11.23,4.35,4.08,4.89-.82-4.08-6.52Z"></path><polygon class="cls-8" points="220.53 1266.91 220.07 1266.09 218.53 1264.91 218.07 1264.09 216.53 1262.91 216.07 1262.09 214.53 1260.91 214.07 1260.09 212.53 1258.91 212.07 1258.09 210.53 1256.91 210.07 1256.09 208.53 1254.91 208.07 1254.09 199.11 1247.29 195.58 1247.84 195.58 1251.91 201.55 1259.79 204.27 1263.05 204.75 1263.23 206.27 1265.05 206.75 1265.23 208.27 1267.05 208.75 1267.23 210.27 1269.05 210.75 1269.23 212.27 1271.05 212.75 1271.23 214.27 1273.05 214.75 1273.23 216.27 1275.05 216.75 1275.23 218.27 1277.05 223.43 1278.95 225.34 1274.06 222.07 1268.09 220.53 1266.91"></polygon><polygon class="cls-8" points="164.38 1206.32 161.31 1205.11 162.38 1204.32 159.31 1203.11 160.38 1202.32 157.31 1201.11 158.38 1200.32 155.31 1199.11 156.38 1198.32 153.31 1197.11 154.38 1196.32 151.31 1195.11 152.38 1194.32 142.06 1190.24 130.11 1183.18 126.03 1185.36 128.75 1190.24 134.18 1195.68 134.18 1195.68 136.18 1197.68 136.18 1197.68 138.18 1199.68 138.18 1199.68 140.18 1201.68 140.18 1201.68 142.18 1203.68 142.18 1203.68 144.18 1205.68 144.18 1205.68 146.18 1207.68 146.18 1207.68 148.18 1209.68 163.4 1210.49 166.38 1208.32 163.31 1207.11 164.38 1206.32"></polygon></g><path id="MT" class="cls-9" d="M1170.29,239.23l-103.09-9.44-98.34-11.95-98.34-13.58L761.85,186.33l-61.94-11.41-110-23.3-15,71.74,11.53,25.36-4.61,15.37,6.14,15.36,10.76,4.61,15.53,36.2,9.06,10.67,1.53,3.85,11.53,3.84,1.54,6.91L614.07,404.7v8.45l8.45,10.76h3.07l16.14-10,2.3-3.84,5.38,2.3-.77,17.67,9.22,42.26,10,8.46,3.08,2.3,6.14,7.69-1.53,11.52,2.3,11.53,3.84,3.07,7.69-7.68h9.22l10.76,5.38,8.45-3.08h13.83l12.29,5.38,9.22-1.54,1.54-10,10-2.3,4.61,4.61,1.53,10.76,4.8,2.8L782,484.14l358.76,45.13,29.58-290Z"></path><path id="AR" class="cls-9" d="M1925.19,1200.72l-13.37,2.41-17.18-2.13,1.41-5.39,10-8.62,3.17-12.29-6.15-10-263.55,8.45,5.38,23v27.66l4.61,36.89.76,127.16,7.69,6.53,10-4.61,9.22,3.84,2.28,22.1,186.94-3.84,3.85-7-1-11.93-6.14-10,5.37-5-5.37-8.44,2.3-8.44,4.6-18.84,8.46-6.93-2.3-7.68,12.29-18,9.22-4.6-.38-5-1.16-6.14,9.6-18.81,8.08-4.23,1.29-11.52,5.95-4.17-10.56-1.63L1906,1240l9.42-8,1.85-6.79,4.3-13.6,3.58-10.94Z"></path><path id="MO" class="cls-9" d="M1806.27,881.64l-8.47-10.38-3.84-7.68-216.3,8.07L1570,872l4.23,8.45-.77,7.69,8.45,13.06,10.37,13.83,10.38,9.22,7.26.77,5,3.07v10l-6.15,5.38-1.53,7.68,6.91,11.53,8.45,10,8.46,6.14,4.61,39.19,1,121.24.77,15.75,1.54,18.09,75.39-2.91,78-2.31,69.93-2.69,39.17-.77,7.29,11.51-2.3,11.12-10.38,8.07-1.92,6.18,18.07,1.53,13.09-2.3,5.78-18.46,2.18-19.69,7.06-8.59,8.72-5,.17-10.25,3.42-6.51-5.7-8.55-4.47,3.31-6.7-7.49-4.32-16,2.7-8.47-6.54-11.52-6.15-15.38-16.13-2.68L1882,1046.45l-5.78-13.82,2.69-10.76,6.92-20.36,1.54-9.62-6.55-3.47-23-2.68L1854.3,980l-.38-14.21-18.44-11.53L1812,928.12l-7.69-24.59-.77-14.2,2.69-7.69Z"></path><path id="IA" class="cls-9" d="M1842.4,718.54l.89,9.36,7.48,1.94L1854,734l1.68,6.24,12.75,11.29,2.31,8L1868.44,771l-5.32,10.86-2.69,9.22-7.3,5.38-5.76,1.93-18.75,6.25-4.68,12.93,2.45,4.61,6.18,5.66-1,13.56-5.92,5.17-2.59,5.53.42,9.33-6.34,1.53-5.46,3.72-.94,4.54.94,7.11-5.21,3.75-8.31-10.53-4.24-8.23L1573,871.8l-3.08.56-6.9-15.18-.77-22.28-5.38-13.84-2.3-17.67-7.69-12.29L1543.85,775l-9.22-25.35-3.84-18.06-4.61-7.3L1520.8,715l6.56-16.28,4.62-19.21-9.23-6.91-1.53-9.23,3.07-8.45h5.76l277.79-4.26,2.81,14,7.57,5.25.86,4.78-6.82,11.4.64,10.77,8.45,12.76,8.49,4.35,10.35,1.69,2.21,2.8Z"></path><path id="OK" class="cls-9" d="M1207.71,1126l-56.07-4.28-3,36.81,68.78,3.89,107.73,4.38-7.84,82.07-1.54,59.93.77,5.38,14.6,12.3,6.91,3.84,2.31-.77,2.3-6.92,4.61,6.15h6.92v-4.61l9.22,4.61-1.54,13.06,13.83.77,8.46,3.84,13.83,2.31,8.45,6.15,7.68-6.92,11.53,2.3,8.45,11.53h3.07v7.68l7.69,2.31,7.68-7.68,6.15,2.3h8.45l3.07,8.45,21.18,7,4.61-2.31,6.15-13.83H1506l3.84,6.92,13.83,2.3,12.3,4.61,10,3.08,6.15-3.08,2.31-8.45H1569l6.91,3.08,9.22-6.92H1589l2.31,5.38h13.83l5.38-6.92,6.15,1.54,6.91,8.45,10.76,6.15,10.75,3.07,6.53,3.76-1.31-125.08-4.61-36.88-.54-29.82-4.84-22-2.61-24.13-.23-12.83-40.79,1.07-156-1.53-151.37-6.92-81.64-4.61Z"></path><path id="TX" class="cls-9" d="M1144.26,1158.78l76.26,3.65,104.5,3.84-7.85,78.83-1,61,.22,7,14.6,12.83,6.68,4.87,4-1.88,1.26-6.11,3.83,6.06,7.09.15v-4.87l5.62,3.25,3.82,1.38-1.2,13.33,13.74.32,9.83,4,13.29,1.77,8,7,7.14-7,12.52,2.06,7.47,10.84,3.61,1.08-.54,6.6,7.44,2.67,7.83-6.91,7.17,2.07,7.49.12,3.14,8.18,21.26,7.11,5.36-2.58,5-14H1503l3,.27,4.13,7,13.21,2.23,11.21,3.78,11.51,4,6.19-3.28,2.4-8.45,15,.15,6.08,3.12,9.41-7.08,3.71.15,2.86,5.4h13.63l5.1-6.82,6.28,1.37,6.54,8.08,11.83,6.87,9.61,2.72,5.09,2.69,8.22,6.71,10.23-4.46,9,3.82,1.9,20.52-.14,32.61,2.31,32,2.36,12.12,9,14.86,3,16.63,14.17,18.62.66,10.57,2.5,2.64-2.45,28.16-9.65,16.83,5.15,7.23-2.12,7.86-2.25,24.89-5,11.22,1,11.77-19,5.32-33.14,15.22-3.26,6.52-8.7,6.52-7.06,4.89-4.35,2.71-19,17.93-9.24,7.07-17.93,10.86-19,8.15-21.19,11.41-6,4.89-19.56,12-11.41,2.18-13,18.47-13.58,1.09-3.26,6.52,7.6,6.52L1471.6,1829l-4.34,15.21-3.81,13-2.71,15.22,2.71,8.15,6,23.36,3.26,20.64,6,9.24-3.26,4.89-10.33,6.52-19-13-18.48-3.8-4.34,1.63-10.87-2.18-14.12-10.32-17.39-3.8-25.54-11.41-7.06-13-4.35-21.73-10.86-6.52-2.18-7.61,2.18-2.17,1.08-11.41-4.34-2.18-2.18-3.26,4.35-14.67-5.43-7.6-10.87-4.35-11.41-14.67-12-22.28-14.13-8.69.55-6.52-17.93-41.29-2.72-14.13-6-6.52-.54-4.89-20.1-17.93-8.7-10.32v-3.8l-8.69-7.07-22.82-3.8-25-2.17-10.33-7.61-15.21,6-12,4.89-7.61,10.86-3.26,12.5L1103.23,1691l-8.15,8.15-8.69-3.26-6-3.81-6.52-2.17-13-7.61v-2.17l-6-6.52-17.39-7.06-25-26.08-7.61-15.76V1597.5L994,1575.76l-1.63-9.23-5.44-3.26-3.8-7.07-16.84-7.06-4.35-5.43-23.91-26.63-4.34-10.86L918,1498.61l-4.89-14.67-8.69-9.78-6.52-1.63-2.18-15.72,26.89,2.31,97.58,9.22,97.58,5.38,7.51-65.41,13.06-186.72,5.38-63,4.61.09"></path><path id="NM" class="cls-9" d="M897.87,1472.82l-2.61-16,29,1.76,101.41,9.91,91.64,5.67,7.45-62.87,13-187.79,5.84-65.17,5.28.44,2.78-37.52-349.55-35.75-58.81,404.77,52,6.68,4.34-33.68,98.25,9.51Z"></path><path id="KS" class="cls-9" d="M1636.35,1138l-42.41.69-154.9-1.54-149.75-6.91-82.78-4.23,13.09-217.09,74.22,2.27,135.4,2.82,148.89,3.32h17.13l7.34,7.27,6.78-.07,5.51,3.4-.21,10.11-6.14,5.8-1.12,7.51,6.19,11.43,9.93,10.74,7.82,5.42,4.37,37.78.64,121.28Z"></path><path id="NE" class="cls-9" d="M1563.14,856.73,1574,880.32l-.44,7.74,11.63,18.46,9.14,10.6h-17L1431.22,914l-137.08-3-74.79-2.63,3.61-71.69-108.62-9.81,14.6-147.91,52.25,3.46,67.61,3.84,59.94,3.84,79.91,3.84,36.11-1.53,6.92,7.68,16.13,10,3.84,3.07,14.6-4.61,13.07-1.54,9.22-.76,6.14,4.61,13.64,5.37,10,5.38,1.54,5.38,3.07,6.92h6.15l2.68.15,3,15.74,9.82,28.46,1.92,12.62,8.48,12.69,1.92,17.19,5.4,14.25.85,21.76Z"></path><path id="SD" class="cls-9" d="M1530.7,733.46l-.16-2-9.73-16.28,6.25-15.84,5-19.78-9.35-7-1.29-9.22,2.66-8.59,10.71.05L1534.4,638l-1.12-101.42L1531.2,524l-13.68-11.19-3.3-5.64-.21-5.41,6.79-5.14L1526,491l.82-8.93L1331,476.68l-184.17-11.59-17.9,214.05,49,3,67,4.05,59.64,3.12,79.91,4.39,40.27-1.43,6.61,7.54,17.46,10.94,2.56,2.43,15.27-4.89,22-2.06,5.63,4.49,14.13,5.36,9.9,5.5,1.34,5,3.49,7.53,7.52-.68Z"></path><path id="ND" class="cls-9" d="M1526.86,481l-2.06-28.34-5.64-22.91L1512.81,386l-1.54-36.93-5.85-10.34-5.9-17.46.1-35.1,2.1-12.85L1495.55,255l-96.26-1.9-62.48-2.17-89.11-4.35-77.11-7.17-23.51,225.78,184.62,11.23L1526.86,481Z"></path><path id="WY" class="cls-9" d="M1140.6,529.29,781.86,484.07,734.52,781.36,1115.19,827Z"></path><path id="CO" class="cls-9" d="M1206.66,1126.48l16.48-290.12-381.08-42.5-41,295.55Z"></path><path id="ID" class="cls-9" d="M428.44,640.9l29.48-118.37,4.61-14.21,8.45-20-4.22-7.69-8.46.39-2.68-3.46,1.53-3.84,1.15-10.37,15-18.45,6.15-1.53,3.84-3.84,1.92-10.76,3.07-2.31,13.06-19.59,13.07-14.6.76-12.68-11.52-8.83L498.48,356,544.27,143.1l45.43,8.5-14.81,71.86,12,25.16-5.31,15.67,6.62,15.59,10.54,4.22,12.9,32.12,11.8,14.91,1.71,3.85,11.22,3.84,1.24,7.05-23.42,58.4-.56,8.62,8.84,11.16,3-.16L642,413.72l2.28-3.68,5.25,2.21-.94,18,9.21,42.29L671,483.22l5.65,7.27-2.41,13.73,3.58,9.43,3.57,3.67,8.33-7.9,9.57.16,9.82,4.49,9.34-2.29,12.75-.54,13.37,5.38,9.22-1,1.67-10.21,9.86-2.57,4.23,5.1,1.49,9.9,4.78,4.07L747.59,702.08S452,646,428.44,640.9Z"></path><path id="UT" class="cls-9" d="M801.57,1090,520.1,1050.08l69.19-378.23,157.22,29.39-5,35.73-7.77,44.27L760,784.36l55.14,6.06,27.6,2.88Z"></path><path id="AZ" class="cls-9" d="M416.45,1333.73l-8.83,7.25-1.08,4.89,1.63,3.26L471.74,1385l40.74,25.54,49.45,28.79,56.5,33.69,41.29,8.15,83.86,9.09,58-400.37-281.43-40.05L509.76,1105l-5.4,0-5.76,8.84-8.46-.39-4.22-9.22-9.22-1.15-3.08-3.84h-3.07l-3.07,1.92-6.53,3.46-.39,23.43-.77,5.76-1.92,42.26-5,7.3L451,1194.55l9.22,16.52,4.22,19.6,2.69,3.46,3.46,1.92-.38,7.68-5.38,4.61-11.53,5.76-6.53,6.54-5,12.29-1.92,16.52-9.61,9.22-6.91,2.3.45,2.79-1.53,5.77,1.53,2.69,12.3,1.92-1.92,9.22-5,7.3-12.68,3.07Z"></path><path id="NV" class="cls-9" d="M589.48,671.46l-79.45,433-6.16,1.18-5.29,8.08-8,0-4.95-9.22-8.8-1.27-2.59-3.72-3.49-.19-9.33,5.53-1.05,22.81-1.21,19.41L458,1175.94l-4.86,7-8.2-3.61L212.78,829.15,276.6,602l312.88,69.46Z"></path><path id="OR" class="cls-9" d="M429.26,637.7l29.74-117,3.53-14.22,7.92-18.9-2.07-3.9-8.45-.16L455.62,478l1.54-4.93,1.69-10.91,15-18.44L480,440l3.84-3.84,5-12,13.61-19,12-13,.77-11.6-11-8.3-6-15.6-42.56-12.14-50.72-11.91-51.86.38-1.54-4.61-18.44,6.92-15-1.92L310,328l-4.23,2.3L290,329.49l-5.76-4.61L266.61,318l-2.69.38-14.6-5-6.53,6.15L222,318.35l-20-13.83,2.31-2.69.77-26.12-7.69-13.06-13.83-1.92-2.3-8.46-7.91-1.56-19.49,6.91-7.61,21.74L135.45,313l-10.87,21.74L107.74,382,86,427.68,58.84,470.06l-6.52,9.78-2.72,28.8,1.3,40.6L429.26,637.7Z"></path><path id="WA" class="cls-9" d="M272.48,73.34l14.67,4.89,32.6,9.24L348.54,94l67.38,19,77.15,19,51.16,10.78L498.41,356.51l-41.82-11.85-52.12-12-51.19.11-1.53-4.52-18.82,7.32-15.44-2.47-7.22-5.33L305.86,330l-15.92-.48-5.7-4.53-17.69-7.1-2.47.49-14.75-5.12L243,319.36l-21.06-1L202,304.49l2.62-3.14.4-25.8-7.66-12.91-13.84-2-2.27-8.43-7.65-1.54-12,4.14L154,244l1.08-9.78,9.24-1.09,5.43-13.58-8.69-3.81.54-12.49L176.31,201l-9.23-9.23-4.89-23.91,2.17-9.78V131.48l-6-10.87L166,89.1l7.06,1.63,8.15,9.78,9.24,8.69,10.86,6.52,15.22,7.07L226.84,125l9.78,4.89L248,133.11l7.61-.54v-8.15l4.34-3.81,7.07-4.34,1.08,3.8,1.09,6-7.61,1.63-1.08,7.06,6,4.89,3.81,8.15,2.17,6.52,4.89-.54.54-4.35-3.26-4.35L273,134.2l2.72-6-2.17-4.89v-7.61l6-12-3.8-8.69-8.15-16.3,1.09-2.72,3.8-2.72ZM240.7,93.44l6.79-.54,1.63,4.61,5.16-5.43h7.88l2.71,5.16L259.71,103l2.18,2.71-2.45,6.8-4.62,1.35s-3,.28-3-.81,4.88-8.69,4.88-8.69L251,102.4l-1.09,4.89-2.44,2.18-5.16-7.61Z"></path><path id="CA" class="cls-10" d="M415.72,1332.28l13.25-1.64,5-6.76,1.83-9.89-11.94-2-1.72-2.24,1.6-6.84-.53-2,6.46-2.08,10.22-9.52,2-16.79,4.64-11.43,6.53-7.28,11.82-5.34,5.56-5.4.23-7.09-3.33-2-3.44-3.6L460,1210.81l-9-16.23,1.9-11.78-8.13-3.46L212.6,829.21,276.13,602,50.68,549.25l-5.06,15.91-.54,25L27.69,629.82l-10.32,8.69-1.09,3.8-6,2.72L5.41,659.15,2.7,670l9.23,14.13,5.44,14.12,3.8,12L20.08,732l-6,10.32-2.18,19.56-3.26,12.5,6,13,9.24,15.21,7.6,16.3,4.35,13.58-1.09,10.87L33.67,845V852l19,21.19-1.63,8.15L48.88,889l-2.17,6.52.54,27.71,7.06,12.49,6.52,8.7L70.07,946l3.26,9.23-3.8,12-7.07,5.43h-3.8l-2.72,13,1.63,9.78,10.87,14.67,5.43,17.93,4.89,15.75,4.35,10.33,11.41,19.56,4.89,8.69,1.63,9.78,5.43,3.26v8.15l-2.71,6.52-6,23.91-1.63,6.52,8.15,9.23,14.13,1.63,15.21,6,13,7.06h9.78l9.78,10.33,8.69,16.29,3.8,7.61,13,7.06,16.3,2.72,4.89,7.06,2.18,10.87-4.89,2.17,1.08,3.26,10.87,2.72,9.24.54,10.62-5.67,13,14.13,2.71,7.61,8.7,14.12,1.08,10.87v31.51l1.63,6,33.69,4.89,66.28,9.24,46.53,4.53ZM119.51,1185.36l4.35,5.16-.54,4.34-10.87-.27-1.9-4.07-2.18-4.89,11.14-.27Zm6.52,0,4.08-2.18,11.95,7.07,10.32,4.07-3,2.17-15.22-.81-5.43-5.43-2.72-4.89Zm69.55,66.55,6,7.88,2.72,3.26,5.16,1.9,1.9-4.89-3.26-6-9-6.8-3.53.55ZM190.69,1281l6,10.59,4.08,6.52-4.89.82-4.35-4.08s-2.44-4.89-2.44-6.24v-7.34l1.63-.27Z"></path><path id="MN" class="cls-10" d="M1526.64,480.72l-1.54-28.43L1519,427.71l-6.14-45.34-1.54-33-6.15-11.52-5.37-16.91V286.33l2.3-13.07-6.12-18.32,101.27.12,1.09-27.71,2.17-.54,7.61,1.63,6.52,2.71,2.71,18.48,4.89,20.64,5.44,5.44h16.3l1.08,4.89,21.19,1.08v7.07h16.3l1.09-4.35,3.8-3.8,7.61-2.18,4.35,3.26h9.78l13,8.7,17.92,8.15,8.15,1.63,1.63-3.26,4.89-1.63,1.63,9.78,8.7,4.34,1.63-1.63,4.34.55v7.06l8.7,3.26h10.32l5.43-2.72,10.87-10.86,8.69-1.63,2.72,6,1.63,4.35h3.26l3.26-2.72,29.88-1.08,6,10.32H1864l2.4-3.65,14.92-1.24-2.06,7.66L1866,329.2l-31.08,13.65-16,6.75-10.33,8.69-8.15,11.95-7.6,13-6,2.72-15.21,16.84-4.35.55-14.54,9.26-8.28,10.78-.77,10.72.32,27-4.63,5.68-17.08,12.64-7.49,20.1,9.65,7.51,2.29,10.84-6.24,10.89.57,12.6,1.24,22.62,10.18,10.09h11.19l6.36,10.52,11.35,1.7,13,19.06,23.82,13.83,7.2,9.67,2.26,21.64-272.94,3.85-1.14-119.91-1.53-10L1518.19,513l-3.85-6.15v-5.38l6.92-5.38,4.61-4.61.77-10.76Z"></path><path class="cls-11" d="M346.49,96.69a64.61,64.61,0,0,0-7.85-4.75c-15.18-6.7-35.43-9.16-51.49-13.71l-14.67-4.89-3.8,2.72-1.09,2.72,8.15,16.3,3.8,8.69-6,12v7.61l2.17,4.89-2.72,6,1.63,10.86,3.26,4.35-.54,4.35-4.89.54-2.17-6.52-3.81-8.15-6-4.89,1.08-7.06,7.61-1.63-1.09-6-1.08-3.8L260,120.61l-4.34,3.81v8.15l-7.61.54-11.41-3.26L226.84,125l-10.32-2.17-15.22-7.07-10.86-6.52-9.24-8.69-8.15-9.78L166,89.1l-7.61,31.51,6,10.87V158.1l-2.17,9.78,4.89,23.91,9.23,9.23-14.67,2.18-.54,12.49,8.69,3.81-5.43,13.58-9.24,1.09L154,244l7.6,10.82-7.72,2.85-7.61,21.74L135.45,313l-10.87,21.74L107.74,382,86,427.68,58.84,470.06l-6.52,9.78-2.72,28.8,1.3,40.6h-.22l-5.06,15.91-.54,25L27.69,629.82l-10.32,8.69-1.09,3.8-6,2.72L5.41,659.15,2.7,670l9.23,14.13,5.44,14.12,3.8,12L20.08,732l-6,10.32-2.18,19.56-3.26,12.5,6,13,9.24,15.21,7.6,16.3,4.35,13.58-1.09,10.87L33.67,845V852l19,21.19-1.63,8.15L48.88,889l-2.17,6.52.54,27.71,7.06,12.49,6.52,8.7L70.07,946l3.26,9.23-3.8,12-7.07,5.43h-3.8l-2.72,13,1.63,9.78,10.87,14.67,5.43,17.93,4.89,15.75,4.35,10.33,11.41,19.56,4.89,8.69,1.63,9.78,5.43,3.26v8.15l-2.71,6.52-6,23.91-1.63,6.52,8.15,9.23,14.12,1.63,15.22,6,13,7.06h9.78l9.78,10.33,8.69,16.29,3.8,7.61,13,7.06,16.3,2.72,4.89,7.06,2.18,10.87-4.89,2.17,1.08,3.26,10.87,2.72,9.24.54,10.62-5.67,13,14.13,2.71,7.61,8.69,14.12,1.09,10.87v31.51l1.63,6,33.69,4.89,66.28,9.24,46.53,4.53,13.25-1.64.16,0-12.68,3.07-8.83,7.25-1.08,4.89,1.63,3.26L471.74,1385l40.74,25.54,49.45,28.79,56.5,33.69,41.29,8.15,83.61,9.06v.09l52,6.68,4.34-33.68,98.25,9.51v-.29l6.52,1.63,8.69,9.78,4.89,14.67,15.76,7.61,4.34,10.86L962,1543.71l4.35,5.43,16.84,7.06,3.8,7.07,5.44,3.26,1.63,9.23,10.86,21.74v27.16l7.61,15.76,25,26.08,17.39,7.06,6,6.52v2.17l13,7.61,6.52,2.17,6,3.81,8.69,3.26,8.15-8.15,14.67-20.65,3.26-12.5,7.61-10.86,12-4.89,15.21-6,10.33,7.61,25,2.17,22.82,3.8,8.69,7.07v3.8l8.7,10.32,20.1,17.93.54,4.89,6,6.52,2.72,14.13,17.93,41.29-.55,6.52,14.13,8.69,12,22.28,11.41,14.67,10.87,4.35,5.43,7.6-4.35,14.67,2.18,3.26,4.34,2.18-1.08,11.41-2.18,2.17,2.18,7.61,10.86,6.52,4.35,21.73,7.06,13,25.54,11.41,17.39,3.8,14.12,10.32,10.87,2.18,4.34-1.63,18.48,3.8,19,13,10.33-6.52,3.26-4.89-6-9.24-3.26-20.64-6-23.36-2.71-8.15,2.71-15.22,3.81-13,4.34-15.21,4.89-18.47-7.6-6.52,3.26-6.52,13.58-1.09,13-18.47,11.41-2.18,19.56-12,6-4.89,21.19-11.41,19-8.15,17.93-10.86,9.24-7.07,19-17.93,4.35-2.71,7.06-4.89,8.7-6.52,3.26-6.52,33.14-15.22,19-5.32-1-11.77,5-11.22c3.42-7.58,6.1-34.43-.78-40,8.56-15,20.38-40.39-3.6-41.18-19.91-.65-41.11,8.54-58.59,17.07-25.89,12.63-43.46,34.44-66.42,52.06a391.8,391.8,0,0,1-76.25,45.83c-28.93,13.15-70.45,7.86-95.76-12.23-18.91-15-20.38-32-29.14-52.27-7.76-17.94-25.33-33.26-36.89-49.7-11.22-16-30.57-27.78-49.67-31.41-22.46-4.26-45.42,3.61-67.86-1.24-33.06-7.16-54.2-39.06-83.24-56.42-26.63-15.93-58.69-18.94-89.25-24.32-23.24-4.1-46.88-10.31-66.38-24.15-15.79-11.2-31.46-13.65-48.54-22.81-37.27-20-63.71-56.6-104.28-71-51.35-18.29-107.5,5.7-162,5.22a179.24,179.24,0,0,1-174.39-144.44c-2.89-14.2,0-33.06-6.17-45.65-6-12.33-22.48-25.08-31.4-35.91-44.9-54.51-85.86-113-138.56-160.49-27.55-24.84-56.36-49.62-76.6-81.09-10.67-16.6-13.46-33-20.13-50.83-2.88-7.7-9.26-13.35-11.47-22a55,55,0,0,1,.35-26.72c3.91-15.57,12.82-29.32,20.73-43.28s15.14-29.08,15.11-45.13c0-12.84-4.72-25.44-4-38.26,1.5-25.44,23.93-46.51,23.64-72-.26-22.18-17.76-41-19.54-63.15-1.51-18.68,8.44-35.5,19.54-49.67,5.84-7.46,11-11.67,12.79-20.71,1.75-8.67,2.14-16.81,6.34-24.87,14.06-27,36.19-50.37,49.46-77.34,11.35-23.09,3.4-56.81,11.61-84.24,7.24-24.2-6.27-51.77-1.71-76.61C343.06,146.55,346.49,96.69,346.49,96.69Z"></path><polygon class="cls-12" points="677.07 490.76 670.93 483.07 668.82 481.49 670.95 483.22 676.6 490.49 674.19 504.22 677.77 513.65 677.82 513.71 675.54 502.28 677.07 490.76"></polygon><polygon class="cls-12" points="625.05 334.85 625.11 334.98 636.33 338.82 637.57 345.87 614.14 404.26 614.13 404.55 637.89 345.53 636.35 338.62 625.05 334.85"></polygon><polygon class="cls-12" points="641.77 413.85 641.98 413.72 644.19 410.14 644.03 410.08 641.77 413.85"></polygon><polygon class="cls-12" points="648.64 430.05 648.96 422.87 648.57 430.25 657.78 472.54 666.17 479.34 657.86 472.31 648.64 430.05"></polygon><polygon class="cls-12" points="714.2 512.81 718.4 511.78 724.97 511.5 717.8 511.5 714.2 512.81"></polygon><polygon class="cls-12" points="689.37 509.2 681.68 516.88 678.19 514.09 681.34 517.32 689.67 509.42 699.24 509.58 700.64 510.22 698.59 509.2 689.37 509.2"></polygon><polygon class="cls-12" points="516.08 1071.42 520.1 1050.09 520.1 1050.09 551.78 876.86 516.08 1071.42"></polygon><polygon class="cls-12" points="574.88 223.46 575.81 225.41 574.9 223.4 574.88 223.46"></polygon><polygon class="cls-12" points="614.07 413.15 614.07 405.48 613.59 412.89 622.43 424.05 625.12 423.91 622.52 423.91 614.07 413.15"></polygon><polygon class="cls-12" points="498.51 356.07 498.41 356.51 456.59 344.66 446.55 342.35 455.63 344.48 498.19 356.62 504.18 372.22 515.11 380.48 515.16 379.61 503.64 370.78 498.51 356.07"></polygon><polygon class="cls-12" points="623.29 330.93 622.61 330.14 623.33 331.05 623.29 330.93"></polygon><polygon class="cls-12" points="583.25 259.24 581.54 264.29 587.41 278.13 581.79 264.09 583.25 259.24"></polygon><polygon class="cls-12" points="587.98 279.47 588.16 279.88 598.71 284.1 611.6 316.22 613.57 318.71 598.7 284.06 587.98 279.47"></polygon><path class="cls-12" d="M741.52,737l-7.77,44.27.78.09L747.16,702l-.74-.14Z"></path><polygon class="cls-12" points="1585.19 906.52 1590.32 912.47 1581.89 901.23 1580.67 899.34 1585.19 906.52"></polygon><polygon class="cls-12" points="1602.58 924.56 1605.03 924.53 1602.63 924.28 1599.33 921.34 1602.58 924.56"></polygon><polygon class="cls-12" points="753.14 515.34 747.28 516.32 753.74 515.62 755.41 505.41 763.01 503.43 754.68 505.36 753.14 515.34"></polygon><polygon class="cls-12" points="1562.31 835.56 1562.29 834.89 1561.21 832.11 1562.29 834.97 1562.31 835.56"></polygon><polygon class="cls-12" points="1607.93 947.76 1608.77 943.57 1608.52 943.8 1607.93 947.76"></polygon><polygon class="cls-12" points="1574.21 880.48 1572.51 877.09 1573.99 880.32 1573.71 885.46 1574.21 880.48"></polygon><polygon class="cls-12" points="1614.93 928.12 1614.87 928.09 1614.66 938 1609.71 942.68 1614.93 938.11 1614.93 928.12"></polygon><polygon class="cls-12" points="769.25 507.63 769.28 507.67 769.28 507.66 769.25 507.63"></polygon><polygon class="cls-12" points="1620.73 970.46 1614.16 962.7 1608.1 952.6 1613.6 962.74 1620.73 970.46"></polygon><polygon class="cls-12" points="773.55 520.02 775.77 521.91 772.55 542.49 780.45 492.92 775.61 521.22 773.55 520.02"></polygon><polygon class="cls-12" points="1627.48 976.23 1623.14 973.07 1623.52 973.48 1627.48 976.23"></polygon><polygon class="cls-12" points="1793.96 863.58 1797.8 871.26 1802.56 877.09 1798.21 871.58 1793.97 863.35 1573.04 871.8 1572.44 871.91 1577.66 871.65 1793.96 863.58"></polygon><polygon class="cls-12" points="351.75 328.25 351.51 328.34 353.05 332.95 388.08 332.69 353.28 332.77 351.75 328.25"></polygon><polygon class="cls-12" points="1550.64 797.05 1546.92 791.1 1544.97 780.83 1546.49 790.84 1550.64 797.05"></polygon><polygon class="cls-12" points="318.09 333.34 322.54 333.91 317.81 333.15 318.09 333.34"></polygon><polygon class="cls-12" points="423.66 1303.22 422.13 1309.77 423 1310.9 422.21 1309.53 423.75 1303.76 423.66 1303.22"></polygon><polygon class="cls-12" points="430.21 1298.67 439.82 1289.45 439.82 1289.41 429.69 1298.85 430.21 1298.67"></polygon><polygon class="cls-12" points="305.86 329.99 291.19 329.55 305.79 330.26 310.02 327.96 315.25 331.44 310.27 327.77 305.86 329.99"></polygon><polygon class="cls-12" points="423.44 1301.86 423.3 1300.97 428.15 1299.36 423.2 1300.95 423.44 1301.86"></polygon><polygon class="cls-12" points="434.03 1323.49 434.13 1323.36 436.05 1314.14 435.77 1314.09 434.03 1323.49"></polygon><polygon class="cls-12" points="183.62 260.73 195.83 262.42 183.59 260.62 183.62 260.73"></polygon><polygon class="cls-12" points="204.61 301.35 204.87 284.87 204.38 301.63 204.61 301.35"></polygon><polygon class="cls-12" points="243.89 318.47 249.32 313.36 263.92 318.35 263.99 318.34 249.33 313.25 243.89 318.47"></polygon><polygon class="cls-12" points="264.82 318.23 266.61 317.97 273.27 320.58 266.55 317.88 264.82 318.23"></polygon><polygon class="cls-12" points="242.79 319.51 242.95 319.36 222.83 318.4 242.79 319.51"></polygon><polygon class="cls-12" points="441.84 1272.56 441.82 1272.73 446.58 1261.02 446.48 1261.13 441.84 1272.56"></polygon><polygon class="cls-12" points="490.14 1113.49 490.5 1113.51 488.11 1109.05 490.14 1113.49"></polygon><polygon class="cls-12" points="479.98 439.98 473.83 443.67 458.85 462.11 458.74 462.84 473.29 444.92 479.44 443.39 483.28 439.55 483.94 435.86 483.82 436.14 479.98 439.98"></polygon><polygon class="cls-12" points="473.78 1099.47 476.7 1103.12 476.8 1103.13 474.27 1099.5 473.78 1099.47"></polygon><polygon class="cls-12" points="509.76 1104.99 509.86 1104.45 506.87 1105.02 509.76 1104.99"></polygon><polygon class="cls-12" points="457.15 473.02 456.15 476.24 457.15 473.74 457.42 471.29 457.15 473.02"></polygon><polygon class="cls-12" points="498.58 1113.67 494.58 1113.69 498.6 1113.88 504.02 1105.56 503.87 1105.59 498.58 1113.67"></polygon><polygon class="cls-12" points="502.42 405.1 488.81 424.15 487.65 426.95 488.27 426.48 501.33 406.89 514.4 392.29 514.49 390.78 514.4 392.12 502.42 405.1"></polygon><polygon class="cls-12" points="448.55 1258.81 453.26 1254.1 460.95 1250.26 453.01 1253.85 448.55 1258.81"></polygon><polygon class="cls-12" points="458.31 481.04 455.7 477.69 455.62 477.94 459.93 483.56 468.38 483.72 470.45 487.62 462.53 506.52 460.64 514.14 462.53 508.31 470.98 488.34 466.76 480.65 458.31 481.04"></polygon><polygon class="cls-12" points="460.18 1211.08 450.96 1194.56 452.88 1183.41 456.12 1178.68 453.15 1182.96 452.84 1182.83 450.94 1194.58 459.96 1210.81 463.85 1230.47 466.02 1232.75 464.4 1230.67 460.18 1211.08"></polygon><polygon class="cls-12" points="460.4 1127.65 460.21 1130.75 460.56 1128.09 460.66 1121.95 460.4 1127.65"></polygon><polygon class="cls-12" points="459.12 1148.68 459.21 1146.6 459.19 1147.06 459.12 1148.68"></polygon><polygon class="cls-12" points="470.17 1243.73 470.19 1243.31 466.63 1246.76 470.17 1243.73"></polygon><polygon class="cls-12" points="1491.43 1381.87 1470.25 1374.88 1467.18 1366.43 1458.82 1366.43 1459.57 1366.65 1467.06 1366.77 1470.2 1374.95 1491.46 1382.06 1496.82 1379.48 1499.82 1371.05 1496.04 1379.57 1491.43 1381.87"></polygon><polygon class="cls-12" points="1506.03 1365.73 1506.05 1365.77 1506.03 1365.73 1506.03 1365.73"></polygon><polygon class="cls-12" points="1437.21 1362.08 1437.21 1361.82 1436.33 1361.82 1437.21 1362.08"></polygon><polygon class="cls-12" points="1450.08 1366.63 1452.4 1364.58 1458.44 1366.32 1452.58 1364.13 1450.08 1366.63"></polygon><polygon class="cls-12" points="1520.99 1374.5 1523.36 1374.9 1525.39 1375.59 1523.7 1374.95 1520.99 1374.5"></polygon><polygon class="cls-12" points="1545.41 1382.46 1546.08 1382.7 1549.7 1380.78 1545.98 1382.64 1545.41 1382.46"></polygon><polygon class="cls-12" points="1343.31 1323.44 1346.75 1328.88 1353.84 1329.03 1353.84 1328.78 1347.31 1328.78 1343.31 1323.44"></polygon><polygon class="cls-12" points="1552.15 1379.48 1552.27 1379.42 1554.63 1371.11 1554.44 1371.11 1552.15 1379.48"></polygon><polygon class="cls-12" points="1437.21 1368.86 1437.21 1367.78 1437.13 1368.82 1437.21 1368.86"></polygon><polygon class="cls-12" points="1340.41 1329.52 1341.66 1328.93 1342.9 1322.89 1342.7 1322.63 1340.41 1329.52"></polygon><polygon class="cls-12" points="1362.69 1335.24 1363.45 1328.78 1354.23 1324.17 1354.23 1324.39 1359.45 1327.41 1363.27 1328.79 1362.69 1335.24"></polygon><polygon class="cls-12" points="1406.53 1354.86 1406.93 1355.21 1414.07 1348.23 1421.62 1349.48 1414.16 1347.99 1406.53 1354.86"></polygon><polygon class="cls-12" points="1333.52 1327.78 1337.68 1330.81 1340.21 1329.61 1338.09 1330.32 1333.52 1327.78"></polygon><polygon class="cls-12" points="1362.07 1342.12 1370.36 1342.31 1362.09 1341.85 1362.07 1342.12"></polygon><polygon class="cls-12" points="1649.83 1387.67 1654 1391.07 1650.34 1387.96 1649.83 1387.67"></polygon><polygon class="cls-12" points="1662.72 1392.26 1668.12 1389.91 1667.97 1389.84 1662.72 1392.26"></polygon><polygon class="cls-12" points="1901.2 1191.18 1906.51 1187.05 1908.36 1178.11 1906.07 1186.99 1901.2 1191.18"></polygon><polygon class="cls-12" points="1901.52 1164.42 1862.35 1165.19 1792.42 1167.88 1714.43 1170.19 1640.13 1173.06 1640.14 1173.14 1901.73 1164.75 1901.52 1164.42"></polygon><polygon class="cls-12" points="1543.85 774.96 1536.04 753.48 1544.35 777.57 1543.85 774.96"></polygon><polygon class="cls-12" points="1634.64 1381.95 1635.07 1382.2 1644.68 1384.93 1649.44 1387.44 1645.11 1384.94 1634.64 1381.95"></polygon><polygon class="cls-12" points="1575.71 1374.24 1575.85 1374.14 1573.38 1373.04 1575.71 1374.24"></polygon><polygon class="cls-12" points="1605.15 1372.65 1591.66 1372.65 1591.69 1372.71 1605.32 1372.71 1610.42 1365.89 1616.11 1367.13 1610.53 1365.73 1605.15 1372.65"></polygon><polygon class="cls-12" points="1587.77 1367.27 1588.83 1367.31 1589.88 1369.29 1589.01 1367.27 1587.77 1367.27"></polygon><polygon class="cls-12" points="1623.24 1375.34 1623.3 1375.37 1620.03 1371.37 1623.24 1375.34"></polygon><polygon class="cls-12" points="1635.78 1030.3 1636.35 1137.96 1636.35 1137.96 1593.94 1138.65 1439.04 1137.11 1289.29 1130.2 1213.42 1126.33 1289.35 1130.61 1440.72 1137.53 1596.7 1139.07 1636.72 1138.01 1635.78 1030.3"></polygon><polygon class="cls-12" points="1317.17 1245.1 1316.69 1274.3 1317.35 1248.87 1325.19 1166.8 1324.97 1166.79 1317.17 1245.1"></polygon><polygon class="cls-12" points="1519.16 429.79 1524.8 452.7 1526.05 469.93 1525.1 452.3 1518.95 427.71 1512.81 382.37 1511.35 350.94 1512.81 386.02 1519.16 429.79"></polygon><polygon class="cls-12" points="1525.9 491.04 1521.24 496.11 1521.26 496.09 1525.87 491.48 1525.9 491.04"></polygon><polygon class="cls-12" points="1526.54 482.05 1526.62 481.04 1331.7 476.38 1167.26 466.37 1330.98 476.68 1526.54 482.05"></polygon><polygon class="cls-12" points="1500.2 712.99 1508.32 716.2 1516.73 720.73 1508.45 716.12 1500.2 712.99"></polygon><polygon class="cls-12" points="1466.25 708.51 1471.9 707.85 1466.71 708.34 1458.64 710.91 1466.25 708.51"></polygon><polygon class="cls-12" points="1527.37 698.75 1529.85 688.4 1527.06 699.39 1525.01 704.59 1527.37 698.75"></polygon><polygon class="cls-12" points="1489.77 707.13 1488.69 706.27 1488.63 706.27 1489.77 707.13"></polygon><polygon class="cls-12" points="1518.75 723.1 1518.35 721.62 1518.32 721.61 1518.75 723.1"></polygon><polygon class="cls-12" points="1520.85 715.12 1520.81 715.23 1525.09 722.39 1520.85 715.12"></polygon><polygon class="cls-12" points="1530.54 731.51 1530.7 733.46 1526.21 733.87 1529.07 733.87 1531.31 734 1530.79 731.55 1526.67 725.03 1530.54 731.51"></polygon><polygon class="cls-12" points="1519.85 726.95 1522.92 733.87 1523.06 733.87 1519.84 726.94 1519.85 726.95"></polygon><polygon class="cls-12" points="1522.73 672.62 1526.56 675.48 1522.75 672.63 1522.61 671.72 1522.73 672.62"></polygon><polygon class="cls-12" points="1514.34 506.85 1514.34 501.47 1514.45 501.39 1514.01 501.72 1514.21 507.13 1517.52 512.77 1531.2 523.96 1533.28 536.63 1534.4 638.04 1534.62 646.84 1533.55 534.51 1532.02 524.52 1518.19 513 1514.34 506.85"></polygon><polygon class="cls-12" points="1449.63 711.5 1448.88 710.79 1448.24 710.39 1449.63 711.5"></polygon><polygon class="cls-12" points="1148.89 1158.81 1147.58 1158.7 1144.26 1158.78 1201.36 1161.51 1148.91 1158.55 1148.89 1158.81"></polygon><polygon class="cls-12" points="1143.61 1158.37 1137.77 1223.54 1124.81 1411.33 1117.42 1473.7 1117.73 1473.71 1125.24 1408.31 1138.3 1221.59 1143.68 1158.59 1147.05 1158.66 1143.61 1158.37"></polygon><polygon class="cls-12" points="1120.75 761.86 1128.92 679.14 1128.91 679.14 1144.77 489.41 1140.71 529.27 997.03 511.19 1140.61 529.29 1120.75 761.86"></polygon><polygon class="cls-12" points="1293.82 911.15 1429.22 913.97 1578.11 917.29 1594.77 917.29 1593.51 916.17 1594.33 917.12 1577.36 917.12 1431.22 913.96 1294.14 910.97 1219.35 908.34 1221.64 862.79 1209.71 1072.86 1219.6 908.88 1293.82 911.15"></polygon><polygon class="cls-12" points="1437.45 703.63 1431.59 699.96 1431.68 700.06 1437.45 703.63"></polygon><polygon class="cls-12" points="1316.4 1313.11 1316.43 1313.13 1316.4 1312.91 1316.4 1313.11"></polygon><polygon class="cls-12" points="924.31 1458.62 898.6 1457.06 922.57 1459.12 1020.15 1468.34 1042.93 1469.59 1025.72 1468.53 924.31 1458.62"></polygon><polygon class="cls-12" points="1266.23 687.35 1308.74 690.07 1381.35 693.56 1304.63 689.36 1266.23 687.35"></polygon><polygon class="cls-12" points="1183.54 682.52 1179.71 682.29 1181.19 682.39 1183.54 682.52"></polygon><polygon class="cls-12" points="1388.65 693.91 1424.76 692.38 1428.68 696.73 1424.81 692.31 1384.79 693.73 1388.65 693.91"></polygon><polygon class="cls-12" points="1169.45 1123.08 1151.65 1121.46 1151.62 1121.89 1151.64 1121.72 1169.45 1123.08"></polygon><path class="cls-13" d="M247.49,109.47l2.44-2.18L251,102.4l5.71,1.91s-4.89,7.6-4.89,8.69,3,.81,3,.81l4.62-1.35,2.45-6.8L259.71,103l5.16-5.71-2.71-5.16h-7.88l-5.16,5.43-1.63-4.61-6.79.54,1.63,8.42Z"></path><polygon class="cls-8" points="130.11 1183.18 126.03 1185.36 126.03 1185.36 128.75 1190.24 134.18 1195.68 149.4 1196.49 152.38 1194.32 142.06 1190.24 130.11 1183.18"></polygon><polygon class="cls-8" points="119.51 1185.36 108.38 1185.63 110.55 1190.52 112.45 1194.59 123.32 1194.86 123.86 1190.52 119.51 1185.36 119.51 1185.36"></polygon><polygon class="cls-8" points="199.11 1247.29 195.58 1247.84 195.58 1251.91 201.55 1259.79 204.27 1263.05 209.43 1264.95 211.33 1260.06 208.07 1254.09 199.11 1247.29"></polygon><path class="cls-8" d="M190.69,1281l-1.63.27v7.34c0,1.35,2.44,6.24,2.44,6.24l4.35,4.08,4.89-.82-4.08-6.52Z"></path></symbol><symbol id="Parcel_isometric" data-name="Parcel_isometric" viewBox="0 0 236 271.89"><polygon class="cls-1" points="2 68.97 2 202.92 118 269.89 234 202.92 234 68.97 118 2 2 68.97"></polygon><polygon class="cls-2" points="2 68.97 2 202.92 118 269.89 118 135.94 2 68.97"></polygon><polygon class="cls-2" points="118 269.89 234 202.92 234 68.97 118 135.94 118 269.89"></polygon><polygon class="cls-3" points="2 68.97 118 135.94 234 68.97 118 2 2 68.97"></polygon><polygon class="cls-2" points="2 68.97 118 135.94 234 68.97 118 2 2 68.97"></polygon><polygon class="cls-4" points="182.43 39.2 66.43 106.17 53.57 98.75 169.57 31.77 182.43 39.2"></polygon><polygon class="cls-5" points="53.57 119.93 66.43 127.35 66.43 106.17 53.57 98.75 53.57 119.93"></polygon><polygon class="cls-6" points="2 68.97 2 202.92 118 269.89 19.23 192.73 2 68.97"></polygon><polygon class="cls-6" points="234 68.97 234 202.92 118 269.89 216.77 192.73 234 68.97"></polygon><path class="cls-7" d="M125.89,246.22a30.4,30.4,0,0,1,2.85-5.1,51.41,51.41,0,0,1,7.47-8.67,29.77,29.77,0,0,1,4.63-3.56A29.3,29.3,0,0,1,138,234a51,51,0,0,1-7.48,8.67A29.91,29.91,0,0,1,125.89,246.22Z"></path><path class="cls-7" d="M136,245.38a29.71,29.71,0,0,1,2.85-5.1,50.39,50.39,0,0,1,7.47-8.67,29.3,29.3,0,0,1,4.63-3.56,29.05,29.05,0,0,1-2.85,5.1,46.73,46.73,0,0,1-3.49,4.54,51.68,51.68,0,0,1-4,4.13A30.39,30.39,0,0,1,136,245.38Z"></path><polygon class="cls-6" points="118 269.89 234 202.92 234 68.97 118 135.94 118 269.89"></polygon></symbol></defs><g id="Layer_2" data-name="Layer 2"><g id="WhyWeAreTaxFree_Page" data-name="WhyWeAreTaxFree Page"><ellipse class="cls-14" cx="259.4" cy="259.4" rx="282.61" ry="233.89" transform="translate(-107.45 259.4) rotate(-45)"></ellipse><use width="1966.7" height="1959.22" transform="translate(6.37 7.33) scale(0.26)" xlink:href="#elm_USAMap"></use><g id="_Path_TravelLine" data-name="&lt;Path&gt;TravelLine"><path class="cls-15" d="M71.86,280.16a16.71,16.71,0,0,1,1.88-5.66"></path><path class="cls-16" d="M81.32,265.57c15.41-13.09,46-22.27,66.59-21.06,27.63,1.63,41.7,7.57,60.78,5.85s37.71-14.77,46.48-33.15c13.3-27.87,51.58-12.68,74.55-43.88,13.35-18.14,27.23-16.66,47-16A45.87,45.87,0,0,0,390.56,156"></path><path class="cls-15" d="M396,153.78a44.76,44.76,0,0,0,5-3.27"></path></g><use width="236" height="271.89" transform="translate(35.81 223.54) scale(0.29)" xlink:href="#Parcel_isometric"></use><use width="236" height="271.89" transform="translate(230.9 167.91) scale(0.29)" xlink:href="#Parcel_isometric"></use><use width="236" height="271.89" transform="translate(393.14 90.32) scale(0.29)" xlink:href="#Parcel_isometric"></use></g></g></svg> 