<?xml version="1.0" encoding="UTF-8"?> <svg xmlns="http://www.w3.org/2000/svg" viewBox="0 0 415.62 308.24"><defs><style>.cls-1,.cls-3,.cls-4{fill:#ddb893;}.cls-1{opacity:0.2;}.cls-2{fill:#fff;stroke-width:4px;}.cls-2,.cls-9{stroke:#ddb893;}.cls-10,.cls-11,.cls-12,.cls-2,.cls-5,.cls-9{stroke-linejoin:round;}.cls-3{fill-rule:evenodd;opacity:0.1;}.cls-10,.cls-11,.cls-12,.cls-5,.cls-9{fill:none;stroke-linecap:round;}.cls-10,.cls-11,.cls-12,.cls-5{stroke:#ecd8c3;}.cls-5{stroke-width:7.14px;}.cls-6{fill:#e9d2b9;}.cls-7{fill:#e6cbb0;}.cls-8{fill:#ecd8c3;}.cls-9{stroke-width:13.88px;}.cls-10{stroke-width:3.03px;}.cls-11{stroke-width:6.07px;}.cls-12{stroke-width:4.04px;}</style></defs><g id="Layer_2" data-name="Layer 2"><g id="Ryden_s_Page" data-name="Ryden's Page"><ellipse class="cls-1" cx="217.11" cy="285.45" rx="198.51" ry="22.78"></ellipse><rect class="cls-2" x="128.87" y="15.17" width="186.2" height="177.38"></rect><polygon class="cls-3" points="168.87 143.32 128.87 15.17 128.87 192.56 315.07 192.56 168.87 143.32"></polygon><polygon class="cls-4" points="240.13 15.17 207.65 15.17 207.65 50.79 223.89 36.35 240.13 50.79 240.13 15.17"></polygon><path class="cls-5" d="M6.94,6.94,65.76,31.11l49.31,170.27-10.45,16.1c-6.87,10.78-10.11,23.82,21,23.82H330.79"></path><circle class="cls-4" cx="144.48" cy="270.6" r="20.32"></circle><circle class="cls-6" cx="144.48" cy="270.6" r="11.98"></circle><circle class="cls-7" cx="144.48" cy="270.6" r="4.92"></circle><path class="cls-8" d="M160.68,240.71H139.35v28a2.57,2.57,0,0,0,2.58,2.58h5.44a2.6,2.6,0,0,0,2.41-1.63l10.9-29Z"></path><circle class="cls-4" cx="289.29" cy="270.6" r="20.32"></circle><circle class="cls-6" cx="289.29" cy="270.6" r="11.98"></circle><circle class="cls-7" cx="289.29" cy="270.6" r="4.92"></circle><path class="cls-8" d="M305.49,240.71H284.16v28a2.58,2.58,0,0,0,2.58,2.58h5.44a2.59,2.59,0,0,0,2.41-1.63l10.9-29Z"></path><line class="cls-9" x1="6.94" y1="6.94" x2="52.48" y2="25.65"></line><line class="cls-10" x1="97.15" y1="125.25" x2="341.48" y2="125.25"></line><line class="cls-10" x1="106.11" y1="154.37" x2="333.57" y2="154.37"></line><line class="cls-10" x1="108.6" y1="179.18" x2="325.93" y2="179.18"></line><line class="cls-10" x1="118.9" y1="95.72" x2="143.11" y2="201.38"></line><line class="cls-10" x1="158.15" y1="95.72" x2="172.68" y2="201.38"></line><line class="cls-10" x1="197.41" y1="95.72" x2="202.25" y2="201.38"></line><line class="cls-10" x1="236.66" y1="95.72" x2="231.82" y2="201.38"></line><line class="cls-10" x1="275.91" y1="95.72" x2="261.38" y2="201.38"></line><line class="cls-10" x1="315.16" y1="95.72" x2="290.95" y2="201.38"></line><line class="cls-11" x1="85.03" y1="95.72" x2="358.92" y2="95.72"></line><polyline class="cls-12" points="115.07 201.38 321.38 201.38 353.46 95.72 85.03 95.72"></polyline><path class="cls-8" d="M9.79,4a64.36,64.36,0,0,1,8.69,2.24c2.84.9,5.61,1.94,8.35,3.06S32.27,11.6,34.92,13a64.31,64.31,0,0,1,7.74,4.53A62.91,62.91,0,0,1,34,15.25c-2.83-.9-5.61-1.94-8.35-3.06s-5.44-2.35-8.08-3.72A64.34,64.34,0,0,1,9.79,4Z"></path></g></g></svg> 