<?xml version="1.0" encoding="UTF-8"?> <svg xmlns="http://www.w3.org/2000/svg" viewBox="0 0 300 300"><defs><style>.cls-1{fill:#181818;}.cls-2{fill:#fff;}</style></defs><g id="Layer_2" data-name="Layer 2"><g id="Layer_1-2" data-name="Layer 1"><circle class="cls-1" cx="150" cy="150" r="150"></circle><path class="cls-2" d="M186.12,146.13a5,5,0,0,0,5.17-5.16V79a5,5,0,0,0-5.17-5.17h-25.8v31L150,98.07l-10.32,6.77v-31h-25.8A5,5,0,0,0,108.71,79V141a5,5,0,0,0,5.17,5.16Z"></path><path class="cls-2" d="M122.55,174.12l13.61,18.38a29.5,29.5,0,0,1,6.2,18.38v26.73a3.66,3.66,0,0,1-3.82,3.82H107a4,4,0,0,1-2.27-.72,3,3,0,0,1-1.31-2.14,13.43,13.43,0,0,0-2.39-5L76.24,201.33a10.77,10.77,0,0,1-2.62-7.16v-52a7.64,7.64,0,0,1,15.28,0v35.33l21.48,25.78a3,3,0,0,0,2.62,1.43,3.93,3.93,0,0,0,2.87-1.19l3.1-3.11A3.61,3.61,0,0,0,120,198a3.36,3.36,0,0,0-.59-2.39l-9.07-12.17a7.86,7.86,0,0,1-1.55-5.73,7,7,0,0,1,3-5,7.49,7.49,0,0,1,5.73-1.44A7.69,7.69,0,0,1,122.55,174.12Zm96.2-39.62a7.74,7.74,0,0,1,7.63,7.63v52a11.38,11.38,0,0,1-2.39,7.16l-25.06,32.22a13.27,13.27,0,0,0-2.38,5,3,3,0,0,1-1.32,2.14,4,4,0,0,1-2.27.72h-31.5a3.66,3.66,0,0,1-3.82-3.82V210.88a29.45,29.45,0,0,1,6.21-18.38l13.6-18.38a7.69,7.69,0,0,1,5-2.87,7.49,7.49,0,0,1,5.73,1.44,6.92,6.92,0,0,1,3,5,7.86,7.86,0,0,1-1.55,5.73l-9.07,12.17A3.41,3.41,0,0,0,180,198a3.65,3.65,0,0,0,1.07,2.38l3.1,3.11a3.93,3.93,0,0,0,2.87,1.19,3,3,0,0,0,2.62-1.43l21.49-25.78V142.13a7.72,7.72,0,0,1,7.64-7.63Z"></path></g></g></svg> 