<?xml version="1.0" encoding="UTF-8"?> <svg xmlns="http://www.w3.org/2000/svg" viewBox="0 0 297.4 310.04"><defs><style>.cls-1{fill:#181818;}.cls-2{fill:#fff;}.cls-3{fill:none;stroke:#ddb893;stroke-linecap:square;stroke-linejoin:round;stroke-width:3.26px;}.cls-4{fill:#f4f1f1;}.cls-5{fill:#ddb893;}</style></defs><g id="Layer_2" data-name="Layer 2"><g id="Get_It_Page" data-name="Get It Page"><circle class="cls-1" cx="148.7" cy="161.34" r="148.7" transform="translate(-70.53 152.4) rotate(-45)"></circle><circle class="cls-2" cx="48.08" cy="42.91" r="42.91" transform="translate(4.97 90.81) rotate(-89.76)"></circle><path class="cls-3" d="M48.08,7.38A35.53,35.53,0,1,1,12.55,42.91,35.55,35.55,0,0,1,48.08,7.38Z"></path><path class="cls-4" d="M86.21,188.18h125.3V107.63H86.21ZM216,89.74a13.38,13.38,0,0,1,13.43,13.42v89.5A13.37,13.37,0,0,1,216,206.08h-53.7l4.48,13.43h20.13a6.71,6.71,0,1,1,0,13.42H110.83a6.71,6.71,0,1,1,0-13.42H131l4.48-13.43H81.74a13.37,13.37,0,0,1-13.43-13.42v-89.5A13.38,13.38,0,0,1,81.74,89.74Z"></path><path class="cls-4" d="M175.23,151.35V150l-11-11h-4.83v12.31Zm-8.79,22.85a5.28,5.28,0,1,0,0-10.55,5.28,5.28,0,1,0,0,10.55Zm-35.16,0a5.28,5.28,0,1,0,0-10.55,5.28,5.28,0,1,0,0,10.55Zm51-12.3a1.69,1.69,0,0,1,1.26.49,1.71,1.71,0,0,1,.5,1.26v3.52a1.71,1.71,0,0,1-1.76,1.76H177a10.55,10.55,0,1,1-21.1,0H141.83a10.55,10.55,0,1,1-21.1,0V154.86h16.7a.87.87,0,0,0,.61-.27.85.85,0,0,0,.27-.61v-1.75a.93.93,0,0,0-.88-.88H114.58a1,1,0,0,1-.88-.88v-1.76a1,1,0,0,1,.88-.88H141a.83.83,0,0,0,.6-.27.84.84,0,0,0,.28-.61V145.2a.95.95,0,0,0-.88-.88H118.1a.87.87,0,0,1-.61-.28.83.83,0,0,1-.27-.6v-1.76a.95.95,0,0,1,.88-.88h26.36a.85.85,0,0,0,.61-.27.87.87,0,0,0,.27-.61v-1.76a.83.83,0,0,0-.27-.6.87.87,0,0,0-.61-.28H114.58a.83.83,0,0,1-.6-.27.81.81,0,0,1-.28-.6v-1.76A.84.84,0,0,1,114,134a.83.83,0,0,1,.6-.27h6.15v-5.28a5.26,5.26,0,0,1,5.28-5.27h28.12a5.26,5.26,0,0,1,5.28,5.27v5.28h4.83a5.08,5.08,0,0,1,3.74,1.54l11,11A5.08,5.08,0,0,1,180.5,150V161.9Z"></path><path class="cls-5" d="M40.21,60H55.47v-4.8h-10v-.72c0-2.35.82-4,4-7.39C54.32,41.85,56,38.3,56,34.31c0-5.37-2.69-8.44-7.87-8.44s-7.87,3.07-7.87,8.44v3.27h5V34c0-2.4,1-3.31,2.73-3.31s2.74.81,2.74,3.84-1.15,5.66-5.19,9.93S40.21,51.5,40.21,56.3Z"></path></g></g></svg> 