<svg xmlns="http://www.w3.org/2000/svg" viewBox="0 0 300 300"><defs><style>.cls-1{fill:#181818;}.cls-2{fill:#fff;}</style></defs><g id="Layer_2" data-name="Layer 2"><g id="Layer_1-2" data-name="Layer 1"><circle class="cls-1" cx="150" cy="150" r="150" transform="translate(-62.13 150) rotate(-45)"/><path class="cls-2" d="M87,177.07H213.36V95.83H87Zm130.9-99.3a13.5,13.5,0,0,1,13.54,13.54v90.28a13.47,13.47,0,0,1-13.54,13.54H163.7l4.52,13.55h20.31a6.77,6.77,0,1,1,0,13.54H111.79a6.77,6.77,0,1,1,0-13.54h20.32l4.51-13.55H82.45a13.47,13.47,0,0,1-13.54-13.54V91.31A13.5,13.5,0,0,1,82.45,77.77Z"/><path class="cls-2" d="M176.76,139.92v-1.33L165.68,127.5H160.8v12.42ZM167.89,163a5.29,5.29,0,1,0-3.76-1.55A5.1,5.1,0,0,0,167.89,163Zm-35.46,0a5.29,5.29,0,1,0-3.77-1.55A5.12,5.12,0,0,0,132.43,163Zm51.42-12.41a1.71,1.71,0,0,1,1.78,1.77v3.55a1.73,1.73,0,0,1-1.78,1.78h-5.32a10.64,10.64,0,1,1-21.28,0H143.07a10.64,10.64,0,1,1-21.28,0v-14.2h16.84a.84.84,0,0,0,.61-.27.83.83,0,0,0,.28-.61v-1.77a.84.84,0,0,0-.28-.61.81.81,0,0,0-.61-.28h-23a.84.84,0,0,1-.61-.28.83.83,0,0,1-.27-.6v-1.78a.87.87,0,0,1,.27-.61.84.84,0,0,1,.61-.28h26.6a.94.94,0,0,0,.89-.89v-1.76a.86.86,0,0,0-.28-.62.85.85,0,0,0-.61-.27H119.13a.87.87,0,0,1-.61-.28.81.81,0,0,1-.28-.61v-1.77a1,1,0,0,1,.89-.89h26.6a.87.87,0,0,0,.61-.27.89.89,0,0,0,.27-.62v-1.77a.85.85,0,0,0-.27-.61.88.88,0,0,0-.61-.28H115.58a.87.87,0,0,1-.61-.27.85.85,0,0,1-.27-.61v-1.77a.92.92,0,0,1,.88-.89h6.21v-5.33a5.29,5.29,0,0,1,5.32-5.31h28.37a5.29,5.29,0,0,1,5.32,5.31v5.33h4.88a5.12,5.12,0,0,1,3.77,1.55l11.08,11.08a5.16,5.16,0,0,1,1.55,3.77v12Z"/></g></g></svg>