<?xml version="1.0" encoding="UTF-8"?> <svg xmlns="http://www.w3.org/2000/svg" viewBox="0 0 297.4 310.04"><defs><style>.cls-1,.cls-5{fill:#181818;}.cls-2{fill:#fff;}.cls-3{fill:none;stroke:#ddb893;stroke-linecap:square;stroke-linejoin:round;stroke-width:3.26px;}.cls-4{fill:#ddb893;}.cls-5{fill-rule:evenodd;}</style></defs><g id="Layer_2" data-name="Layer 2"><g id="Get_It_Page" data-name="Get It Page"><circle class="cls-1" cx="148.7" cy="161.34" r="148.7"></circle><circle class="cls-2" cx="48.08" cy="42.91" r="42.91"></circle><path class="cls-3" d="M48.08,7.38A35.53,35.53,0,1,1,12.55,42.91,35.55,35.55,0,0,1,48.08,7.38Z"></path><path class="cls-4" d="M46.53,59.71H51.8V26.11H48.25c-1.2,3.27-2.78,4.23-7.24,4.23v3.73h5.52Z"></path><path class="cls-2" d="M198,194.08a5.51,5.51,0,0,1-2,3.28,5.44,5.44,0,0,1-3.4,1.17H123.88l1.41,7.51H188.4a5.12,5.12,0,0,1,4.22,2.11,5.65,5.65,0,0,1,1.17,4.7l-1.4,5.86a13,13,0,1,1-18.77,11.61,12.21,12.21,0,0,1,4-9.26H128.34a12.21,12.21,0,0,1,4,9.26,12.79,12.79,0,0,1-3.87,9.39,13.14,13.14,0,0,1-22.41-9.27,13,13,0,0,1,1.76-6.57,13.82,13.82,0,0,1,4.81-4.92L96.2,138.48H79.78a5.62,5.62,0,0,1-5.63-5.63v-3.76a5.6,5.6,0,0,1,5.63-5.63h24.16a5.12,5.12,0,0,1,3.4,1.29,6,6,0,0,1,2,3.17l2.11,10.56h92.2a5.33,5.33,0,0,1,4.45,2.11,5.06,5.06,0,0,1,.94,4.69Z"></path><path class="cls-2" d="M148,100.77a8.33,8.33,0,0,0-4.65,3,8.14,8.14,0,0,0-1.87,5.25v29.77a8.13,8.13,0,0,0,1.2,4.26H120.24a4.3,4.3,0,0,1-4.25-4.26V92a4.3,4.3,0,0,1,4.25-4.25h3.86l-4-2.93a2,2,0,0,1-.93-1.39,1.89,1.89,0,0,1,.4-1.53l1.2-1.73a2,2,0,0,1,1.39-.93,2.25,2.25,0,0,1,1.66.4l4.26,3.06-1.6-4.13a2.24,2.24,0,0,1,.07-1.59,1.79,1.79,0,0,1,1.26-1.06l1.86-.8a2.55,2.55,0,0,1,1.73.06,1.8,1.8,0,0,1,1.06,1.13l2.66,7,2.66-7a1.81,1.81,0,0,1,1.07-1.13,2.52,2.52,0,0,1,1.72-.06l2,.8A1.77,1.77,0,0,1,143.71,77a2.19,2.19,0,0,1,.06,1.59l-1.59,4.13,4.25-3.06a2.26,2.26,0,0,1,1.66-.4,2,2,0,0,1,1.4.93l1.2,1.73a1.93,1.93,0,0,1,.4,1.53,2,2,0,0,1-.93,1.39l-4,2.93H150a4.21,4.21,0,0,1,2.26.66,4.35,4.35,0,0,1,1.6,1.73A13.59,13.59,0,0,0,148,100.77Zm48.79,4a4.32,4.32,0,0,1,4.25,4.26v12.76H175.55v-17h-4.26v17H145.77V109a4.32,4.32,0,0,1,4.25-4.26h2.66a10.11,10.11,0,0,1-.53-3.19,9.37,9.37,0,0,1,2.53-6.51,9.11,9.11,0,0,1,7-3.06,10.5,10.5,0,0,1,7.71,3.59,24.36,24.36,0,0,1,4,6.38,24.36,24.36,0,0,1,4-6.38A10.5,10.5,0,0,1,185.12,92a9.12,9.12,0,0,1,7,3.06,9.37,9.37,0,0,1,2.53,6.51,11,11,0,0,1-.53,3.19Zm-51,34V126h25.52v17H150a4.3,4.3,0,0,1-4.25-4.26Zm14.89-34h7a23.38,23.38,0,0,0-2.52-4.25q-1.74-2.13-3.39-2.13a2.94,2.94,0,0,0-2.46,1,3.42,3.42,0,0,0-.8,2.19,3.27,3.27,0,0,0,1.2,2.53A3.33,3.33,0,0,0,160.66,104.76Zm14.89,38.29V126h25.52v12.76a4.3,4.3,0,0,1-4.25,4.26Zm11.56-39a3.27,3.27,0,0,0,1.2-2.53,3.42,3.42,0,0,0-.8-2.19,2.94,2.94,0,0,0-2.46-1q-1.67,0-3.39,2.13a22.82,22.82,0,0,0-2.52,4.25h7A3.48,3.48,0,0,0,187.11,104.1Z"></path><path class="cls-5" d="M188,188.62H127.28a3.74,3.74,0,0,1-3.66-3l-6.26-31.74a3.73,3.73,0,0,1,3.65-4.45H194.3a3.73,3.73,0,0,1,3.65,4.45l-6.26,31.74A3.74,3.74,0,0,1,188,188.62Z"></path><circle class="cls-1" cx="119.36" cy="231.22" r="8.27"></circle><circle class="cls-1" cx="187.14" cy="231.22" r="8.27"></circle></g></g></svg> 