<svg xmlns="http://www.w3.org/2000/svg" viewBox="0 0 300 300"><defs><style>.cls-1{fill:#181818;}.cls-2{fill:#fff;}</style></defs><g id="Layer_2" data-name="Layer 2"><g id="Layer_1-2" data-name="Layer 1"><circle class="cls-1" cx="150" cy="150" r="150"/><path class="cls-2" d="M156.83,192.8a11.51,11.51,0,0,0,3.85,4.21,9.48,9.48,0,0,0,5.3,1.57h30.8v9.62A5.75,5.75,0,0,1,191,214H110.15a5.75,5.75,0,0,1-5.77-5.78V96.55a5.75,5.75,0,0,1,5.77-5.78h48.13V123.5a5.74,5.74,0,0,0,5.77,5.77h32.73v11.31L166,171.14v19.74a2.89,2.89,0,0,1-2.17-1.69,10.06,10.06,0,0,0-7.22-5.17,9.9,9.9,0,0,0-8.66,1.8L144.56,176a6.46,6.46,0,0,0-2.16-3,5.8,5.8,0,0,0-6.74,0,6.48,6.48,0,0,0-2.17,3l-4.33,13a2.64,2.64,0,0,1-2.65,1.93h-2.88a3.85,3.85,0,1,0,0,7.7h2.88a10.46,10.46,0,0,0,6.14-1.93,9.34,9.34,0,0,0,3.73-5.29L139,183.9l4.09,12a3.54,3.54,0,0,0,3.37,2.65,3.22,3.22,0,0,0,3.61-2.17L152,192.8a2.73,2.73,0,0,1,4.81,0Zm39.95-72.67v1.44H166V90.77h1.44a5.53,5.53,0,0,1,4.09,1.69L195.1,116A5.58,5.58,0,0,1,196.78,120.13Zm-23.1,54.14,39.22-39,16.37,16.36-39,39.23h-16.6ZM241.3,131a6.57,6.57,0,0,1,1.68,4.45,5.71,5.71,0,0,1-1.68,4.21l-6.74,6.74L218.2,130l6.73-6.74a5.75,5.75,0,0,1,4.22-1.69,6.59,6.59,0,0,1,4.45,1.69Z"/></g></g></svg>