<?xml version="1.0" encoding="UTF-8"?> <svg xmlns="http://www.w3.org/2000/svg" xmlns:xlink="http://www.w3.org/1999/xlink" viewBox="0 0 505.62 290.36"><defs><style>.cls-1,.cls-4{fill:none;}.cls-2{fill:#98c0bd;}.cls-10,.cls-2{opacity:0.2;}.cls-3,.cls-8{fill:#fff;}.cls-3,.cls-4{stroke:#659a97;stroke-miterlimit:10;stroke-width:4px;}.cls-10,.cls-5,.cls-7{fill:#659a97;}.cls-6{fill:#eef2f2;}.cls-7{opacity:0.5;}.cls-9{clip-path:url(#clip-path);}</style><clipPath id="clip-path"><rect class="cls-1" x="84.47" y="68.98" width="127.56" height="121.15"></rect></clipPath></defs><g id="Layer_2" data-name="Layer 2"><g id="Send_It_Page" data-name="Send It Page"><ellipse class="cls-2" cx="252.81" cy="252.5" rx="252.81" ry="37.86"></ellipse><rect class="cls-3" x="50.22" y="2" width="405.17" height="255.11" rx="19.17"></rect><rect class="cls-4" x="50.22" y="2" width="405.17" height="255.11" rx="19.17"></rect><path class="cls-5" d="M66.78,2.54H438.84a17.84,17.84,0,0,1,17.84,17.84V49.46a0,0,0,0,1,0,0H48.94a0,0,0,0,1,0,0V20.38A17.84,17.84,0,0,1,66.78,2.54Z"></path><path class="cls-6" d="M67.58,225.82H438a18.64,18.64,0,0,1,18.64,18.64V259a0,0,0,0,1,0,0H48.94a0,0,0,0,1,0,0V244.46A18.64,18.64,0,0,1,67.58,225.82Z" transform="translate(505.62 484.81) rotate(180)"></path><rect class="cls-7" x="290.67" y="186.81" width="4.13" height="28.49"></rect><rect class="cls-7" x="296.61" y="186.81" width="4.13" height="28.49"></rect><rect class="cls-7" x="302.54" y="186.81" width="4.13" height="28.49"></rect><rect class="cls-7" x="308.47" y="186.81" width="4.13" height="28.49"></rect><rect class="cls-7" x="314.4" y="186.81" width="4.13" height="28.49"></rect><rect class="cls-7" x="320.34" y="186.81" width="4.13" height="28.49"></rect><rect class="cls-7" x="326.27" y="186.81" width="4.13" height="28.49"></rect><rect class="cls-7" x="332.2" y="186.81" width="4.13" height="28.49"></rect><rect class="cls-7" x="338.13" y="186.81" width="4.13" height="28.49"></rect><rect class="cls-7" x="344.07" y="186.81" width="4.13" height="28.49"></rect><rect class="cls-7" x="350" y="186.81" width="4.13" height="28.49"></rect><rect class="cls-7" x="355.93" y="186.81" width="4.13" height="28.49"></rect><rect class="cls-7" x="361.87" y="186.81" width="4.13" height="28.49"></rect><rect class="cls-7" x="367.8" y="186.81" width="4.13" height="28.49"></rect><rect class="cls-7" x="373.73" y="186.81" width="4.13" height="28.49"></rect><rect class="cls-7" x="379.66" y="186.81" width="4.13" height="28.49"></rect><rect class="cls-7" x="385.6" y="186.81" width="4.13" height="28.49"></rect><rect class="cls-7" x="391.53" y="186.81" width="4.13" height="28.49"></rect><rect class="cls-7" x="397.46" y="186.81" width="4.13" height="28.49"></rect><rect class="cls-7" x="403.39" y="186.81" width="4.13" height="28.49"></rect><rect class="cls-7" x="409.33" y="186.81" width="4.13" height="28.49"></rect><rect class="cls-7" x="415.26" y="186.81" width="4.13" height="28.49"></rect><rect class="cls-7" x="255.08" y="186.81" width="4.13" height="28.49"></rect><rect class="cls-7" x="261.01" y="186.81" width="4.13" height="28.49"></rect><rect class="cls-7" x="266.94" y="186.81" width="4.13" height="28.49"></rect><rect class="cls-7" x="272.88" y="186.81" width="4.13" height="28.49"></rect><rect class="cls-7" x="278.81" y="186.81" width="4.13" height="28.49"></rect><rect class="cls-7" x="284.74" y="186.81" width="4.13" height="28.49"></rect><path class="cls-8" d="M201.56,15.92h3.58V36.08h-3.58Z"></path><path class="cls-8" d="M210.25,15.92h5.39c6.17,0,9.81,3.33,9.81,10s-3.64,10.17-9.62,10.17h-5.58Zm5.15,17.26c4.07,0,6.38-2.31,6.38-7.27s-2.31-7.09-6.38-7.09h-1.57V33.18Z"></path><path class="cls-8" d="M234.63,26.06c0-6.6,4.13-10.51,9.21-10.51a8,8,0,0,1,5.83,2.56l-1.91,2.31a5.25,5.25,0,0,0-3.82-1.76c-3.3,0-5.64,2.78-5.64,7.31s2.15,7.36,5.54,7.36a5.75,5.75,0,0,0,4.32-2.06l1.91,2.25a8.12,8.12,0,0,1-6.35,2.93C238.63,36.45,234.63,32.75,234.63,26.06Z"></path><path class="cls-8" d="M257.37,15.92h4.19l6.57,20.16h-3.76l-1.57-5.46H256l-1.58,5.46h-3.63Zm-.52,11.9H262l-.71-2.47c-.65-2.13-1.24-4.44-1.82-6.66h-.13c-.55,2.25-1.14,4.53-1.78,6.66Z"></path><path class="cls-8" d="M270.62,15.92h6.81c4.2,0,7.4,1.48,7.4,6a5.64,5.64,0,0,1-4,5.76l4.8,8.42h-4l-4.35-7.89H274.2v7.89h-3.58Zm6.44,9.43c2.75,0,4.26-1.17,4.26-3.45s-1.51-3.11-4.26-3.11H274.2v6.56Z"></path><path class="cls-8" d="M288.87,15.92h5.39c6.16,0,9.8,3.33,9.8,10s-3.64,10.17-9.61,10.17h-5.58ZM294,33.18c4.07,0,6.38-2.31,6.38-7.27s-2.31-7.09-6.38-7.09h-1.57V33.18Z"></path><rect class="cls-6" x="84.47" y="68.98" width="127.56" height="121.15" rx="10.25"></rect><g class="cls-9"><path class="cls-8" d="M148.25,149.65a26.37,26.37,0,1,1,26.37-26.37A26.4,26.4,0,0,1,148.25,149.65Z"></path><path class="cls-5" d="M148.25,98.41a24.87,24.87,0,1,1-24.87,24.87,24.87,24.87,0,0,1,24.87-24.87m0-3a27.87,27.87,0,1,0,27.87,27.87,27.91,27.91,0,0,0-27.87-27.87Z"></path><path class="cls-10" d="M154.64,145.55a24.87,24.87,0,0,1-12.47-46.38,24.87,24.87,0,1,0,18.55,45.63A24.94,24.94,0,0,1,154.64,145.55Z"></path><path class="cls-8" d="M148.25,282.52c-28.54,0-51.76-26.55-51.76-59.18s23.22-59.18,51.76-59.18S200,190.7,200,223.34,176.8,282.52,148.25,282.52Z"></path><path class="cls-5" d="M148.25,165.66c27.76,0,50.27,25.82,50.27,57.68S176,281,148.25,281,98,255.19,98,223.34s22.5-57.68,50.26-57.68m0-3c-29.37,0-53.26,27.22-53.26,60.68S118.88,284,148.25,284s53.27-27.22,53.27-60.68-23.9-60.68-53.27-60.68Z"></path><ellipse class="cls-1" cx="148.25" cy="223.34" rx="50.26" ry="57.68"></ellipse><path class="cls-10" d="M102.72,229c0-31.86,22.5-57.68,50.26-57.68,13,0,24.93,5.7,33.86,15-9.22-12.66-23.08-20.72-38.59-20.72-27.76,0-50.26,25.82-50.26,57.68,0,16.89,6.33,32.08,16.41,42.63A62.76,62.76,0,0,1,102.72,229Z"></path></g><rect class="cls-6" x="255.08" y="75.4" width="163.24" height="15.03" rx="5.37"></rect><rect class="cls-6" x="255.08" y="95.9" width="144.69" height="15.03" rx="5.37"></rect><rect class="cls-6" x="255.08" y="116.4" width="124.89" height="15.03" rx="5.37"></rect><rect class="cls-6" x="255.08" y="136.91" width="101.45" height="15.03" rx="5.37"></rect><rect class="cls-4" x="50.22" y="2" width="405.17" height="255.11" rx="19.17"></rect></g></g></svg> 