<?xml version="1.0" encoding="UTF-8"?> <svg xmlns="http://www.w3.org/2000/svg" viewBox="0 0 297.4 310.04"><defs><style>.cls-1{fill:#181818;}.cls-2,.cls-5{fill:#fff;}.cls-2{fill-rule:evenodd;}.cls-3{fill:none;stroke:#ddb893;stroke-linecap:square;stroke-linejoin:round;stroke-width:3.26px;}.cls-4{fill:#ddb893;}</style></defs><g id="Layer_2" data-name="Layer 2"><g id="Get_It_Page" data-name="Get It Page"><circle class="cls-1" cx="148.7" cy="161.34" r="148.7" transform="translate(-70.53 152.4) rotate(-45)"></circle><path class="cls-2" d="M48.08,0A42.91,42.91,0,1,1,5.17,42.91,42.93,42.93,0,0,1,48.08,0Z"></path><path class="cls-3" d="M48.08,7.38A35.53,35.53,0,1,1,12.55,42.91,35.55,35.55,0,0,1,48.08,7.38Z"></path><path class="cls-4" d="M48.08,60.19c5.18,0,7.87-2.93,7.87-8.3v-3c0-3.41-1.06-5.86-3.89-6.91v-.1c2.59-1,3.74-3.17,3.74-6.77v-1.2c0-5.37-2.68-8.3-7.72-8.3s-7.73,3-7.73,8.35v1.77h5v-2.2c0-2.21,1-3.12,2.55-3.12s2.64,1,2.64,3.36v2.45c0,2.69-1.2,3.55-3.17,3.55H45.44v4.8h1.77c2.41,0,3.46,1.15,3.46,4.27V51.6c0,3-1.05,3.79-2.74,3.79s-2.74-.91-2.74-3.31v-3h-5v2.74C40.21,57.21,42.89,60.19,48.08,60.19Z"></path><path class="cls-5" d="M184.82,157.47a5,5,0,0,0,5.16-5.16V90.38a5,5,0,0,0-5.16-5.17H159v31l-10.32-6.77-10.32,6.77v-31h-25.8a5,5,0,0,0-5.17,5.17v61.93a5,5,0,0,0,5.17,5.16Z"></path><path class="cls-5" d="M121.25,185.46l13.61,18.38a29.5,29.5,0,0,1,6.2,18.38V249a3.66,3.66,0,0,1-3.82,3.82H105.73a4,4,0,0,1-2.26-.72,3,3,0,0,1-1.32-2.14,13.27,13.27,0,0,0-2.38-5L74.94,212.67a10.77,10.77,0,0,1-2.62-7.16v-52a7.64,7.64,0,0,1,15.28,0V188.8l21.48,25.78A3,3,0,0,0,111.7,216a3.93,3.93,0,0,0,2.87-1.19l3.1-3.11a3.65,3.65,0,0,0,1.07-2.38,3.41,3.41,0,0,0-.59-2.39l-9.07-12.17a7.92,7.92,0,0,1-1.56-5.73,7,7,0,0,1,3-5,7.49,7.49,0,0,1,5.73-1.44A7.69,7.69,0,0,1,121.25,185.46Zm96.19-39.62a7.74,7.74,0,0,1,7.64,7.63v52a11.38,11.38,0,0,1-2.39,7.16l-25.06,32.22a13.27,13.27,0,0,0-2.38,5,3,3,0,0,1-1.32,2.14,4,4,0,0,1-2.27.72h-31.5a3.66,3.66,0,0,1-3.82-3.82V222.22a29.5,29.5,0,0,1,6.2-18.38l13.61-18.38a7.69,7.69,0,0,1,5-2.87,7.49,7.49,0,0,1,5.73,1.44,6.92,6.92,0,0,1,3,5,7.86,7.86,0,0,1-1.55,5.73l-9.07,12.17a3.41,3.41,0,0,0-.59,2.39,3.65,3.65,0,0,0,1.07,2.38l3.1,3.11A3.93,3.93,0,0,0,185.7,216a3,3,0,0,0,2.62-1.43l21.49-25.78V153.47a7.72,7.72,0,0,1,7.63-7.63Z"></path></g></g></svg> 