<?xml version="1.0" encoding="UTF-8"?> <svg xmlns="http://www.w3.org/2000/svg" viewBox="0 0 536.74 518.81"><defs><style>.cls-1{fill:#f3f3f3;}.cls-15,.cls-2,.cls-6,.cls-9{fill:#fff;}.cls-2{stroke:#c9dbd9;stroke-miterlimit:10;stroke-width:2px;}.cls-3,.cls-8{fill:#679a96;}.cls-3,.cls-7{opacity:0.1;}.cls-4{fill:#c9dbd9;}.cls-5{fill:#98c0bd;}.cls-15,.cls-9{stroke:#98c0bd;stroke-linecap:round;stroke-linejoin:round;}.cls-9{stroke-width:1.86px;}.cls-10{fill:#7d287f;}.cls-11{fill:#5fbe77;}.cls-12{fill:#ffc709;}.cls-13{fill:#96ca51;}.cls-14{fill:#9e7bb7;}.cls-15{stroke-width:2.12px;}.cls-16{fill:#659a97;}.cls-17{fill:#e5eaea;}</style></defs><g id="Layer_2" data-name="Layer 2"><g id="WhyWeAreTaxFree_Page" data-name="WhyWeAreTaxFree Page"><ellipse class="cls-1" cx="272.13" cy="259.4" rx="282.61" ry="233.89" transform="translate(-103.72 268.4) rotate(-45)"></ellipse><path class="cls-2" d="M424.69,406.21c0-13.57-67.29-42.11-150.3-42.11s-150.31,28.54-150.31,42.11,67.3,24.56,150.31,24.56S424.69,419.77,424.69,406.21Z"></path><path class="cls-3" d="M305.91,365.46c44.76,7.6,75.92,23.07,75.92,31.62,0,11.61-57.64,21-128.73,21-62.82,0-115.12-7.35-126.45-17.07-1.68,1.87-2.57,3.62-2.57,5.17,0,13.56,67.3,24.56,150.31,24.56s150.3-11,150.3-24.56C424.69,394.41,373.78,371.29,305.91,365.46Z"></path><path class="cls-4" d="M361.56,374.62c25.42,8.61,41,18.6,41,25.13,0,13.56-67.3,24.56-150.31,24.56-48.23,0-91.15-3.71-118.65-9.48,21.37,9.31,76.33,15.94,140.78,15.94,83,0,150.3-11,150.3-24.56C424.69,398,399.77,384.16,361.56,374.62Z"></path><path class="cls-4" d="M197.72,274.88c0,24.77-41.57,44.84-92.85,44.84S12,299.65,12,274.88"></path><path class="cls-5" d="M197.72,274.88a25.43,25.43,0,0,1-.87,6.93,29.27,29.27,0,0,1-2.86,6.42,43.45,43.45,0,0,1-9.31,10.52c-7.32,5.95-15.85,10.19-24.63,13.43-17.65,6.41-36.49,9-55.18,9s-37.52-2.62-55.17-9c-8.79-3.24-17.31-7.48-24.63-13.43a43.49,43.49,0,0,1-9.32-10.52,29.72,29.72,0,0,1-2.85-6.42,25.43,25.43,0,0,1-.87-6.93,25.12,25.12,0,0,0,1.3,6.79,29.17,29.17,0,0,0,3.1,6.13A42,42,0,0,0,26,297.6a72.34,72.34,0,0,0,11.74,7.13A104.74,104.74,0,0,0,50.48,310a152.18,152.18,0,0,0,26.84,6.31c4.57.64,9.15,1.15,13.74,1.48s9.21.45,13.81.47,9.22-.16,13.82-.47,9.17-.84,13.74-1.48a151.28,151.28,0,0,0,26.84-6.3c8.68-3,17.15-6.85,24.5-12.38a42.5,42.5,0,0,0,9.56-9.79,29.94,29.94,0,0,0,3.09-6.14A25.12,25.12,0,0,0,197.72,274.88Z"></path><path class="cls-6" d="M444.15,133.55a89.46,89.46,0,0,1-10.61-1.48,48.31,48.31,0,0,1-9.68-3.14c-6.11-2.63-11.22-6.74-16.72-11.61-2.75-2.44-5.6-5-8.77-7.6a78.76,78.76,0,0,0-10.38-7.2,65.65,65.65,0,0,0-12-5.38,79.62,79.62,0,0,0-12.63-3l-3.17-.4c-1.06-.14-2.05-.2-3.08-.3-2-.21-4.11-.3-6.19-.38a88.49,88.49,0,0,0-12.75.5,74.64,74.64,0,0,0-12.84,2.63,93.22,93.22,0,0,0-11.79,4.5l-10.11,4.59a78.18,78.18,0,0,1-9.32,3.44C288,110.63,283.24,112,274.39,112s-13.59-1.41-19.77-3.33a78.18,78.18,0,0,1-9.32-3.44l-10.11-4.59a93.22,93.22,0,0,0-11.79-4.5,74.64,74.64,0,0,0-12.84-2.63,88.49,88.49,0,0,0-12.75-.5c-2.08.08-4.16.17-6.19.38-1,.1-2,.16-3.08.3l-3.17.4a79.62,79.62,0,0,0-12.63,3,65.65,65.65,0,0,0-12,5.38,78.76,78.76,0,0,0-10.38,7.2c-3.17,2.55-6,5.16-8.77,7.6-5.5,4.87-10.61,9-16.72,11.61a48.1,48.1,0,0,1-9.68,3.14,89.46,89.46,0,0,1-10.61,1.48l-.44,7.3a69.23,69.23,0,0,0,12,1.13,55,55,0,0,0,12.47-1.49,57.32,57.32,0,0,0,12-4.47,102.19,102.19,0,0,0,10.47-6.31c3.25-2.17,6.29-4.29,9.24-6.18a69.59,69.59,0,0,1,8.81-4.85A55.41,55.41,0,0,1,187.79,114l2.47-.18c.82-.06,1.72-.06,2.58-.1,1.74-.08,3.44,0,5.14,0a77.35,77.35,0,0,1,9.88.78,59.44,59.44,0,0,1,9.3,2.12,99.8,99.8,0,0,1,9.38,3.61c3.29,1.43,6.77,3.12,10.6,4.64a93.75,93.75,0,0,0,12.11,3.95,113,113,0,0,0,50.27,0,93.75,93.75,0,0,0,12.11-3.95c3.83-1.52,7.32-3.21,10.6-4.64a99.8,99.8,0,0,1,9.38-3.61,59.44,59.44,0,0,1,9.3-2.12,77.35,77.35,0,0,1,9.88-.78c1.7,0,3.41,0,5.14,0,.86,0,1.76,0,2.58.1L361,114a55.41,55.41,0,0,1,18.59,4.67,68.9,68.9,0,0,1,8.81,4.85c2.95,1.89,6,4,9.24,6.18A102.19,102.19,0,0,0,408.09,136a57.32,57.32,0,0,0,12,4.47A55.12,55.12,0,0,0,432.55,142a69.21,69.21,0,0,0,12-1.13Z"></path><g class="cls-7"><path class="cls-8" d="M104.26,140.4a67.41,67.41,0,0,0,11.1,0A52.29,52.29,0,0,0,126,138.44a53.66,53.66,0,0,0,9.84-3.95,64.06,64.06,0,0,0,9-5.69c2.9-2.12,5.95-4.43,9-6.7,1.54-1.13,3-2.27,4.59-3.41s3.28-2.22,5-3.26c.88-.53,1.77-1,2.69-1.52s1.8-.92,2.77-1.35a53.69,53.69,0,0,1,5.84-2.25,66.68,66.68,0,0,1,12.11-2.66l2.86-.32,3-.24c2-.08,3.93-.19,6-.25s4.12.06,6.16.21c1,.07,2,.17,3,.28s2.08.25,3.11.41c2.07.32,4.13.75,6.15,1.26l1.51.4c.53.14,1.07.31,1.56.46,1,.3,1.95.62,2.91,1,3.8,1.32,7.5,2.88,10.91,4.33a95.61,95.61,0,0,0,19.65,6.54,99.76,99.76,0,0,0,20.67,1.84,98.37,98.37,0,0,0,20.66-1.84,97,97,0,0,0,19.66-6.52c3.41-1.45,7.11-3,10.91-4.33,1-.33,1.92-.65,2.91-1,.49-.16,1-.32,1.56-.46l1.51-.4c2-.52,4.08-.94,6.15-1.26,1-.17,2.1-.31,3.1-.41s2-.21,3-.29c2-.14,4.08-.25,6.15-.2s4,.17,6,.26l3,.23,2.86.32a66.57,66.57,0,0,1,12.1,2.66,51.86,51.86,0,0,1,5.85,2.25c1,.42,1.87.89,2.76,1.35s1.81,1,2.69,1.52c1.75,1,3.42,2.14,5,3.26s3.05,2.27,4.59,3.41l9,6.69a64.13,64.13,0,0,0,9,5.7,54.73,54.73,0,0,0,9.85,3.94,52.16,52.16,0,0,0,10.65,1.92,68.54,68.54,0,0,0,11.1,0l.16.89a71.63,71.63,0,0,1-11.23,1.16,54.47,54.47,0,0,1-11.26-1,59.89,59.89,0,0,1-20.79-8.63c-3.18-2-6.27-4.11-9.39-6.17-1.56-1-3.1-2.09-4.67-3.08s-3.19-1.92-4.83-2.78a53,53,0,0,0-10.27-4.13,60.28,60.28,0,0,0-10.91-2,87.61,87.61,0,0,0-22.19.78c-7.31,1.25-14.15,4.25-20.94,7.37a99.76,99.76,0,0,1-21.33,7.39,108.16,108.16,0,0,1-22.47,2.26,107.51,107.51,0,0,1-22.48-2.26,99.76,99.76,0,0,1-21.33-7.39c-6.79-3.12-13.63-6.12-20.94-7.37a87.61,87.61,0,0,0-22.19-.78,60.28,60.28,0,0,0-10.91,2,53,53,0,0,0-10.27,4.13c-1.64.86-3.24,1.8-4.82,2.78s-3.12,2.06-4.68,3.08c-3.12,2.06-6.2,4.16-9.39,6.17a59.89,59.89,0,0,1-20.79,8.63,54.47,54.47,0,0,1-11.26,1,71.63,71.63,0,0,1-11.23-1.16Z"></path></g><path class="cls-4" d="M104.23,140.6a69.05,69.05,0,0,0,11.12.48,53,53,0,0,0,10.88-1.47,50.85,50.85,0,0,0,10.24-3.68,65.76,65.76,0,0,0,9.37-5.55c3-2.07,6.08-4.29,9.14-6.47,1.55-1.09,3-2.2,4.63-3.27s3.25-2.1,4.95-3.07c.86-.48,1.73-.95,2.62-1.39s1.75-.86,2.67-1.26a53.85,53.85,0,0,1,5.61-2.06,64.4,64.4,0,0,1,11.62-2.37l2.84-.27,2.91-.18c1.95-.05,3.85-.12,5.85-.15s3.95.1,5.9.26,3.9.39,5.89.72,3.92.74,5.85,1.25c.94.25,1.93.53,2.9.84s1.87.62,2.79,1c3.67,1.31,7.25,2.85,10.65,4.35A97.21,97.21,0,0,0,253,125.12a115.72,115.72,0,0,0,42.79,0,97.79,97.79,0,0,0,20.33-6.86c3.41-1.5,7-3,10.66-4.35.92-.33,1.85-.65,2.79-1s1.95-.59,2.9-.84c1.92-.51,3.88-.93,5.84-1.25s3.93-.55,5.89-.72,3.92-.27,5.9-.26,3.9.11,5.85.16l2.91.17,2.84.28a63.53,63.53,0,0,1,11.62,2.36,52.86,52.86,0,0,1,5.6,2.06c.92.4,1.81.83,2.68,1.26s1.76.91,2.61,1.39c1.71,1,3.35,2,4.95,3.07s3.09,2.18,4.63,3.27c3.07,2.18,6.14,4.39,9.15,6.47a65.76,65.76,0,0,0,9.37,5.55,51,51,0,0,0,10.23,3.68,53.84,53.84,0,0,0,10.89,1.46,69.05,69.05,0,0,0,11.12-.48l.09.49a56.24,56.24,0,0,1-43.11-8.47c-3.17-2-6.26-4.12-9.37-6.18-1.56-1-3.1-2.1-4.68-3.09s-3.2-1.92-4.84-2.79a52.94,52.94,0,0,0-10.32-4.16,60,60,0,0,0-11-2,87.9,87.9,0,0,0-22.28.76c-7.35,1.25-14.23,4.26-21,7.37a99.49,99.49,0,0,1-21.27,7.34,113.57,113.57,0,0,1-44.79,0,99,99,0,0,1-21.27-7.34c-6.79-3.11-13.67-6.12-21-7.37a88.3,88.3,0,0,0-22.27-.76,60,60,0,0,0-11,2,52.94,52.94,0,0,0-10.32,4.16c-1.64.87-3.25,1.81-4.84,2.79s-3.11,2.06-4.68,3.09c-3.11,2.06-6.2,4.17-9.37,6.18a59.59,59.59,0,0,1-20.7,8.62,59.48,59.48,0,0,1-22.41-.15Z"></path><path class="cls-4" d="M444.15,133.55a84.65,84.65,0,0,1-11.42-1.43,48.27,48.27,0,0,1-10.93-3.71,54.34,54.34,0,0,1-9.77-6.2c-3-2.37-5.92-4.93-8.86-7.36s-5.76-5-8.87-7.21a72.19,72.19,0,0,0-9.7-5.88A69.44,69.44,0,0,0,363,95.24l-2.84-.34-2.83-.25-5.67-.3a85.41,85.41,0,0,0-11.31.29,76.17,76.17,0,0,0-11.14,1.86,79.16,79.16,0,0,0-10.72,3.55c-3.49,1.42-6.95,3.09-10.45,4.67-1.76.79-3.45,1.6-5.26,2.38s-3.61,1.47-5.46,2.1c-.92.32-1.87.62-2.78.89l-2.76.85c-1.85.56-3.75,1.08-5.68,1.48a61.93,61.93,0,0,1-23.45,0c-1.93-.4-3.83-.92-5.68-1.47l-2.76-.85c-.91-.28-1.86-.58-2.78-.9-1.85-.63-3.67-1.34-5.46-2.1s-3.5-1.59-5.26-2.38c-3.5-1.58-7-3.24-10.45-4.67a77.74,77.74,0,0,0-10.72-3.54,74.88,74.88,0,0,0-11.14-1.87,87.15,87.15,0,0,0-11.31-.29l-5.67.31-2.83.25-2.84.34a69.43,69.43,0,0,0-21.59,6.51,72.19,72.19,0,0,0-9.7,5.88c-3.11,2.17-5.93,4.77-8.87,7.21s-5.8,5-8.86,7.36a54,54,0,0,1-9.77,6.2A48.27,48.27,0,0,1,116,132.12a84.65,84.65,0,0,1-11.42,1.43,86.2,86.2,0,0,0,11.32-1.87,48.34,48.34,0,0,0,10.68-4,52.9,52.9,0,0,0,9.42-6.38c2.94-2.41,5.72-5,8.61-7.59s5.68-5.17,8.83-7.45a73.66,73.66,0,0,1,9.83-6.21,66.22,66.22,0,0,1,10.77-4.46A81.63,81.63,0,0,1,185.43,93a100.62,100.62,0,0,1,23.21-.9,77.71,77.71,0,0,1,11.54,1.86,80.45,80.45,0,0,1,11.11,3.6c3.62,1.45,7.08,3.09,10.57,4.65,1.74.77,3.51,1.6,5.23,2.32s3.49,1.4,5.27,2c.9.3,1.78.58,2.7.85l2.74.82c1.82.54,3.63,1,5.45,1.39a63.12,63.12,0,0,0,22.27,0c1.82-.37,3.63-.85,5.45-1.38l2.74-.83c.92-.27,1.8-.55,2.7-.85,1.78-.59,3.54-1.27,5.28-2s3.48-1.55,5.22-2.32c3.5-1.55,6.95-3.2,10.57-4.65a80.45,80.45,0,0,1,11.11-3.6,79,79,0,0,1,11.54-1.86,100.62,100.62,0,0,1,23.21.91,81.6,81.6,0,0,1,11.35,2.64,66.22,66.22,0,0,1,10.77,4.46,74.69,74.69,0,0,1,9.83,6.21c3.15,2.29,5.94,4.92,8.83,7.46s5.67,5.17,8.61,7.59a52.84,52.84,0,0,0,9.42,6.37,48.34,48.34,0,0,0,10.68,4A84.57,84.57,0,0,0,444.15,133.55Z"></path><ellipse class="cls-6" cx="104.87" cy="273.62" rx="92.84" ry="30.32"></ellipse><path class="cls-4" d="M351.05,274.88c0,24.77,41.57,44.84,92.85,44.84s92.84-20.07,92.84-44.84"></path><path class="cls-5" d="M351.05,274.88a25.12,25.12,0,0,0,1.3,6.79,29.94,29.94,0,0,0,3.09,6.14A42.5,42.5,0,0,0,365,297.6c7.35,5.53,15.82,9.39,24.5,12.38a151.28,151.28,0,0,0,26.84,6.3c4.57.64,9.15,1.15,13.74,1.48s9.21.45,13.82.47,9.21-.16,13.81-.47,9.18-.84,13.74-1.48A152.18,152.18,0,0,0,498.29,310,104.74,104.74,0,0,0,511,304.73a72.43,72.43,0,0,0,11.75-7.13,42.35,42.35,0,0,0,9.56-9.8,29.61,29.61,0,0,0,3.09-6.13,25.12,25.12,0,0,0,1.3-6.79,25.43,25.43,0,0,1-.87,6.93,29.72,29.72,0,0,1-2.85,6.42,43.49,43.49,0,0,1-9.32,10.52c-7.32,5.95-15.84,10.19-24.63,13.43-17.65,6.42-36.48,9-55.17,9s-37.53-2.63-55.18-9c-8.78-3.24-17.31-7.48-24.63-13.43a43.66,43.66,0,0,1-9.31-10.52,29.27,29.27,0,0,1-2.86-6.42A25.43,25.43,0,0,1,351.05,274.88Z"></path><ellipse class="cls-6" cx="443.9" cy="273.62" rx="92.84" ry="30.32"></ellipse><path class="cls-5" d="M104.2,140.75a59.18,59.18,0,0,0,22.2-.29,59,59,0,0,0,20.19-8.89c3.1-2,6.18-4.18,9.28-6.29,1.56-1,3.07-2.13,4.67-3.16s3.22-2,4.89-2.9A54.22,54.22,0,0,1,176,114.81a61.7,61.7,0,0,1,11.26-2.17c.95-.09,1.87-.15,2.81-.23l2.85-.14c1.9,0,3.78-.09,5.71-.09a74,74,0,0,1,11.4,1,62.92,62.92,0,0,1,11.09,3c3.57,1.32,7.05,2.86,10.45,4.39a96.53,96.53,0,0,0,20.86,7.09,104.76,104.76,0,0,0,21.95,2.08,105.4,105.4,0,0,0,21.94-2.07,97.62,97.62,0,0,0,20.86-7.09c3.4-1.54,6.88-3.08,10.45-4.39a61.24,61.24,0,0,1,11.09-3,86.5,86.5,0,0,1,22.77-.59,61.68,61.68,0,0,1,11.26,2.16,54.49,54.49,0,0,1,10.57,4.41c1.68.91,3.31,1.89,4.9,2.9s3.11,2.11,4.67,3.16c3.1,2.11,6.18,4.25,9.28,6.29a55.46,55.46,0,0,0,42.39,9.18l0,.19a56.1,56.1,0,0,1-43-8.48c-3.16-2-6.25-4.12-9.37-6.19-1.56-1-3.09-2.09-4.68-3.09s-3.19-1.93-4.85-2.8a52.44,52.44,0,0,0-10.35-4.19,59.56,59.56,0,0,0-11-2,87.86,87.86,0,0,0-22.33.74c-7.39,1.25-14.3,4.27-21.09,7.37a98.79,98.79,0,0,1-21.22,7.3,106.65,106.65,0,0,1-22.33,2.21,107.34,107.34,0,0,1-22.34-2.2,99.37,99.37,0,0,1-21.22-7.31c-6.79-3.1-13.7-6.12-21.09-7.37a87.86,87.86,0,0,0-22.33-.74,60.4,60.4,0,0,0-11,2,52.44,52.44,0,0,0-10.35,4.19c-1.66.87-3.27,1.82-4.85,2.8s-3.12,2.07-4.68,3.09c-3.12,2.07-6.21,4.18-9.37,6.19a59.5,59.5,0,0,1-20.63,8.61,59.22,59.22,0,0,1-22.36-.13Z"></path><path class="cls-6" d="M274.39,381.48c11.3,0,15.65-2.17,15.65-2.17s12-7.7,17-31.6-23.58-122-22.73-159.79,7.15-41.15,13.05-55.49-3.58-28.25-10.32-33-4.73-23.25-4.73-23.25H266.45s2,18.47-4.73,23.25-16.21,18.69-10.32,33,12.21,17.68,13,55.49S236.66,323.8,241.72,347.71s17,31.6,17,31.6S263.09,381.48,274.39,381.48Z"></path><path class="cls-3" d="M284.32,187.92c.84-37.81,7.15-41.15,13.05-55.49s-3.58-28.25-10.32-33-4.73-23.25-4.73-23.25h-5.69s-2.73,19.68,5.06,27.27c5.9,5.75,11.15,21.12,5.26,35.46s-10.21,15.24-11.05,53.06S296.64,326.7,291.59,350.6c-3.44,16.3-6.92,22.66-14,25.55s-25.49-3.49-31-13.27c5.48,12.13,12.15,16.43,12.15,16.43s4.36,2.17,15.66,2.17c11,0,15.39-2.05,15.63-2.16h0l0,0h0l.13-.1h0l.23-.17h0c.29-.21.7-.54,1.22-1l0,0c.16-.14.33-.29.5-.46l.06-.05c3.71-3.49,11.07-12.3,14.75-29.73C312.11,323.8,283.47,225.73,284.32,187.92Z"></path><path class="cls-4" d="M284.32,187.92c.84-37.81,7.15-41.15,13.05-55.49s-3.58-28.25-10.32-33-4.73-23.25-4.73-23.25H279c-.27,7.82.86,21.12,6,24.77,6.74,4.78,13.26,22,5.47,38.17-6.74,14-9.05,16.65-9.89,54.46S305.44,329,300.39,352.87c-2.84,13.42-7.85,21.73-11.7,26.44H290s12-7.7,17-31.6S283.47,225.73,284.32,187.92Z"></path><circle class="cls-4" cx="273.09" cy="123.23" r="6.1"></circle><path class="cls-3" d="M448.53,300.15c-51.28,0-92.84-13.58-92.84-30.32,0-3.25,1.57-6.39,4.48-9.32-5.84,4-9.12,8.41-9.12,13.11,0,16.74,41.57,30.32,92.85,30.32,41.31,0,76.31-8.82,88.36-21C517.28,293.12,485.42,300.15,448.53,300.15Z"></path><path class="cls-3" d="M109.51,300.15c-51.28,0-92.85-13.58-92.85-30.32,0-3.25,1.58-6.39,4.49-9.32-5.84,4-9.12,8.41-9.12,13.11,0,16.74,41.57,30.32,92.85,30.32,41.31,0,76.31-8.82,88.36-21C178.26,293.12,146.4,300.15,109.51,300.15Z"></path><path class="cls-3" d="M267.74,349.41a36.93,36.93,0,0,1-10.35-.27,29.82,29.82,0,0,1-9.5-3.32,19.52,19.52,0,0,1-6.76-6,40.8,40.8,0,0,0,.4,6.83,26.2,26.2,0,0,0,4.72,2.53,32.83,32.83,0,0,0,10.86,2.43,38.93,38.93,0,0,0,10.85-1,50,50,0,0,0,10-3.76A49.16,49.16,0,0,1,267.74,349.41Z"></path><path class="cls-6" d="M274.39,79.45a19.91,19.91,0,1,1,19.9-19.9A19.93,19.93,0,0,1,274.39,79.45Z"></path><path class="cls-5" d="M274.39,40.14A19.41,19.41,0,1,1,255,59.55a19.41,19.41,0,0,1,19.41-19.41m0-1a20.41,20.41,0,1,0,20.4,20.41,20.43,20.43,0,0,0-20.4-20.41Z"></path><path class="cls-4" d="M276.46,76.64A19.38,19.38,0,0,1,261,45.5a19.38,19.38,0,1,0,28.78,25.78A19.31,19.31,0,0,1,276.46,76.64Z"></path><path class="cls-3" d="M278.6,74.74A19.37,19.37,0,0,1,263,43.9,19.39,19.39,0,1,0,290,71,19.3,19.3,0,0,1,278.6,74.74Z"></path><path class="cls-5" d="M124.08,406.21a5,5,0,0,0,1,2.77,11,11,0,0,0,2.11,2.1,26.74,26.74,0,0,0,5.2,3A76.83,76.83,0,0,0,143.77,418a216.8,216.8,0,0,0,23.58,4.76c15.87,2.45,31.88,3.93,47.91,4.93a920.87,920.87,0,0,0,96.31.87c16-.64,32.07-1.7,48-3.45,8-.88,15.93-1.93,23.83-3.27,3.94-.67,7.88-1.41,11.78-2.26s7.8-1.77,11.61-2.91a60.85,60.85,0,0,0,11-4.26,16.51,16.51,0,0,0,4.57-3.31,5,5,0,0,0,1.22-2.17,3.82,3.82,0,0,0-.29-2.37,9.68,9.68,0,0,0-.62-1.19c-.28-.37-.51-.78-.83-1.13a13.71,13.71,0,0,0-.94-1.08c-.33-.35-.68-.69-1-1a41.55,41.55,0,0,0-4.63-3.65,89.65,89.65,0,0,0-10.34-6c-14.32-7.19-29.72-12.12-45.23-16.3,7.85,1.76,15.64,3.8,23.31,6.27a186.06,186.06,0,0,1,22.57,8.71,89.22,89.22,0,0,1,10.64,5.9,42.41,42.41,0,0,1,4.89,3.73c.39.35.77.7,1.13,1.08a14.84,14.84,0,0,1,1.07,1.17,15.51,15.51,0,0,1,1,1.29,11.44,11.44,0,0,1,.79,1.47,5.7,5.7,0,0,1,.45,3.51,6.92,6.92,0,0,1-1.61,3.07,18.37,18.37,0,0,1-5.07,3.84,62.86,62.86,0,0,1-11.36,4.63,185.68,185.68,0,0,1-23.63,5.52c-7.95,1.4-15.95,2.5-24,3.43-16,1.84-32.11,3-48.2,3.72s-32.22.79-48.33.56-32.21-.83-48.28-2.13-32.09-3-48-5.78a216.67,216.67,0,0,1-23.56-5.44,78,78,0,0,1-11.32-4.26,27.62,27.62,0,0,1-5.15-3.19A11.11,11.11,0,0,1,125,409,5,5,0,0,1,124.08,406.21Z"></path><path class="cls-5" d="M290,379.31a24.66,24.66,0,0,0,3.61-3.39c.56-.61,1.06-1.27,1.58-1.9s1-1.31,1.46-2a51,51,0,0,0,4.8-8.6,65.32,65.32,0,0,0,3.32-9.28l.65-2.38.53-2.4a28.6,28.6,0,0,0,.75-4.81,66.91,66.91,0,0,0-.15-9.8c-.14-1.63-.27-3.27-.47-4.91s-.38-3.27-.61-4.9c-.89-6.54-2-13.05-3.23-19.55-4.88-26-10.74-51.82-15.24-78-1.1-6.54-2.11-13.11-2.9-19.72a147.9,147.9,0,0,1-1.24-20c.22-6.64.57-13.3,1.37-19.93l.31-2.49.4-2.48c.24-1.66.59-3.3.94-4.95a67.22,67.22,0,0,1,2.95-9.66c2.47-6.3,6.17-11.91,8.28-18a23.68,23.68,0,0,0,1.08-9.43,28.41,28.41,0,0,0-2.49-9.28,33.64,33.64,0,0,0-5.22-8.18A27.08,27.08,0,0,0,287,100a9.58,9.58,0,0,1-3.12-4.07,28.91,28.91,0,0,1-1.93-9.81,63.31,63.31,0,0,1,.38-9.93,64.14,64.14,0,0,0,.07,9.9,28.59,28.59,0,0,0,2.2,9.51,8.78,8.78,0,0,0,3,3.62,26.88,26.88,0,0,1,3.79,3.35,34.64,34.64,0,0,1,5.72,8.31,29.54,29.54,0,0,1,2.84,9.74,25.37,25.37,0,0,1-1,10.17c-2.12,6.51-5.7,12.15-7.92,18.25a79.78,79.78,0,0,0-4.15,19.05c-.71,6.52-1,13.11-1.14,19.7a152,152,0,0,0,1.31,19.59c.8,6.54,1.83,13.06,2.94,19.57C294.4,253,300.18,278.83,304.54,305c1.08,6.55,2.08,13.11,2.84,19.71.2,1.65.38,3.3.52,5s.26,3.32.37,5a66,66,0,0,1-.07,10,30.29,30.29,0,0,1-.94,5l-.63,2.42-.74,2.39a65.75,65.75,0,0,1-3.68,9.29,50.13,50.13,0,0,1-5.16,8.54c-.49.67-1,1.3-1.55,1.94s-1.1,1.26-1.69,1.84A23.8,23.8,0,0,1,290,379.31Z"></path><path class="cls-5" d="M241.53,346.66a32,32,0,0,0,8.78,3.5,36.82,36.82,0,0,0,9.35,1A41.45,41.45,0,0,0,269,350a63.71,63.71,0,0,0,9-3.08,42.61,42.61,0,0,1-8.79,3.83,35.79,35.79,0,0,1-9.53,1.46,32.25,32.25,0,0,1-9.57-1.27,31.37,31.37,0,0,1-4.5-1.72A23.94,23.94,0,0,1,241.53,346.66Z"></path><path class="cls-4" d="M150.4,109.72a72.39,72.39,0,0,1,10.11-7.6A62.34,62.34,0,0,1,172,96.58a75,75,0,0,1,12.32-3.23c2.12-.35,4.19-.6,6.31-.8s4.24-.3,6.36-.45A77.39,77.39,0,0,1,222.18,95,82.35,82.35,0,0,1,234,99.62c3.78,1.87,7.55,3.71,11.29,5.65-7.84-3-15.47-6.71-23.54-8.76A84.06,84.06,0,0,0,197,94.1c-2.08.13-4.16.2-6.23.39s-4.17.43-6.21.73a81.2,81.2,0,0,0-12.13,2.83A76.92,76.92,0,0,0,150.4,109.72Z"></path><path class="cls-4" d="M443.9,149.94c9.39,9.06,18,18.72,26.34,28.56s16.33,20,24.07,30.28,15.21,20.81,22.36,31.56a385.4,385.4,0,0,1,20.07,33.28,387.37,387.37,0,0,1-26.36-28.56q-12.48-14.81-24.06-30.28T464,183.21C456.85,172.44,450,161.49,443.9,149.94Z"></path><path class="cls-6" d="M443.9,149.94c8.73,9.56,17,19.47,25.07,29.52,4.09,5,8,10.1,12,15.16s7.82,10.24,11.73,15.36q11.64,15.44,22.69,31.31c7.38,10.57,14.6,21.27,21.34,32.33-8.74-9.56-17-19.47-25.08-29.52s-16-20.2-23.74-30.52c-3.82-5.19-7.68-10.35-11.47-15.56s-7.56-10.44-11.21-15.76C457.86,171.68,450.64,161,443.9,149.94Z"></path><path class="cls-4" d="M443.9,149.94c-6.08,11.55-13,22.5-20.08,33.27s-14.62,21.26-22.35,31.57-15.74,20.41-24.06,30.28a385.2,385.2,0,0,1-26.36,28.56,385.4,385.4,0,0,1,20.07-33.28q10.72-16.12,22.36-31.56t24.07-30.28C425.91,168.66,434.5,159,443.9,149.94Z"></path><path class="cls-6" d="M443.9,149.94c-6.75,11.05-14,21.74-21.35,32.32-3.65,5.32-7.47,10.51-11.21,15.76s-7.65,10.37-11.47,15.56q-11.58,15.48-23.73,30.52c-8.09,10.05-16.35,20-25.09,29.52,6.74-11.06,14-21.76,21.34-32.33s14.94-21,22.69-31.31c3.91-5.12,7.79-10.27,11.73-15.36s7.92-10.18,12-15.16C426.91,169.41,435.17,159.5,443.9,149.94Z"></path><path class="cls-4" d="M104.87,149.94c-6.08,11.55-13,22.5-20.07,33.27s-14.62,21.26-22.35,31.57-15.74,20.41-24.06,30.28A387.37,387.37,0,0,1,12,273.62,385.4,385.4,0,0,1,32.1,240.34q10.73-16.12,22.36-31.56T78.53,178.5C86.89,168.66,95.48,159,104.87,149.94Z"></path><path class="cls-6" d="M104.87,149.94c-6.74,11.05-14,21.74-21.34,32.32-3.65,5.32-7.47,10.51-11.21,15.76s-7.65,10.37-11.47,15.56Q49.27,229.06,37.12,244.1C29,254.15,20.77,264.06,12,273.62c6.74-11.06,14-21.76,21.34-32.33s14.93-21,22.69-31.31c3.91-5.12,7.79-10.27,11.73-15.36s7.92-10.18,12-15.16C87.89,169.41,96.15,159.5,104.87,149.94Z"></path><path class="cls-4" d="M104.87,149.94c9.4,9.06,18,18.72,26.35,28.56s16.33,20,24.07,30.28,15.21,20.81,22.36,31.56a385.4,385.4,0,0,1,20.07,33.28,387.37,387.37,0,0,1-26.36-28.56q-12.48-14.81-24.06-30.28T125,183.21C117.83,172.44,111,161.49,104.87,149.94Z"></path><path class="cls-6" d="M104.87,149.94c8.73,9.56,17,19.47,25.08,29.52,4.09,5,8,10.1,12,15.16s7.82,10.24,11.73,15.36q11.63,15.44,22.69,31.31c7.38,10.57,14.6,21.27,21.34,32.33-8.74-9.56-17-19.47-25.09-29.52s-16-20.2-23.73-30.52c-3.82-5.19-7.68-10.35-11.47-15.56s-7.56-10.44-11.21-15.76C118.84,171.68,111.62,161,104.87,149.94Z"></path><path class="cls-6" d="M443.9,150.44a13.24,13.24,0,1,1,13.23-13.24A13.26,13.26,0,0,1,443.9,150.44Z"></path><path class="cls-5" d="M443.9,124.46a12.74,12.74,0,1,1-12.74,12.74,12.73,12.73,0,0,1,12.74-12.74m0-1a13.74,13.74,0,1,0,13.73,13.74,13.75,13.75,0,0,0-13.73-13.74Z"></path><path class="cls-3" d="M448.11,145.73a12.72,12.72,0,0,1-10.86-19.38,12.73,12.73,0,1,0,17.5,17.49A12.66,12.66,0,0,1,448.11,145.73Z"></path><path class="cls-4" d="M446,147.62a12.73,12.73,0,0,1-10.48-20,12.73,12.73,0,1,0,18.88,16.79A12.69,12.69,0,0,1,446,147.62Z"></path><path class="cls-6" d="M104.87,150.44a13.24,13.24,0,1,1,13.24-13.24A13.25,13.25,0,0,1,104.87,150.44Z"></path><path class="cls-5" d="M104.87,124.46A12.74,12.74,0,1,1,92.14,137.2a12.74,12.74,0,0,1,12.73-12.74m0-1a13.74,13.74,0,1,0,13.74,13.74,13.75,13.75,0,0,0-13.74-13.74Z"></path><path class="cls-3" d="M109.09,145.73a12.72,12.72,0,0,1-10.86-19.38,12.73,12.73,0,1,0,17.5,17.49A12.66,12.66,0,0,1,109.09,145.73Z"></path><path class="cls-4" d="M106.94,147.62a12.73,12.73,0,0,1-10.47-20,12.73,12.73,0,1,0,18.88,16.79A12.7,12.7,0,0,1,106.94,147.62Z"></path><path class="cls-4" d="M266.45,76.15a63.31,63.31,0,0,1,.38,9.93,28.91,28.91,0,0,1-1.93,9.81,9.66,9.66,0,0,1-3.12,4.07,26.43,26.43,0,0,0-3.53,3.33,33.45,33.45,0,0,0-5.22,8.18,28.16,28.16,0,0,0-2.49,9.28,23.68,23.68,0,0,0,1.08,9.43c2.1,6.08,5.81,11.69,8.27,18a68.28,68.28,0,0,1,3,9.67c.35,1.64.7,3.28.94,4.94l.4,2.48.31,2.49c.8,6.64,1.15,13.29,1.36,19.93a146.29,146.29,0,0,1-1.23,20c-.79,6.61-1.8,13.18-2.9,19.72-2.24,13.08-4.85,26.08-7.47,39.06s-5.3,25.94-7.77,38.92c-1.2,6.5-2.34,13-3.23,19.55-.23,1.63-.43,3.26-.61,4.9s-.33,3.28-.47,4.91a66.91,66.91,0,0,0-.15,9.8,28.6,28.6,0,0,0,.75,4.81l.53,2.4.65,2.38a64.76,64.76,0,0,0,3.32,9.27,50.72,50.72,0,0,0,4.8,8.61c.46.69,1,1.33,1.46,2s1,1.29,1.58,1.9a24.66,24.66,0,0,0,3.61,3.39,23.8,23.8,0,0,1-3.77-3.24c-.59-.58-1.13-1.22-1.69-1.83s-1.06-1.28-1.56-1.95a50.73,50.73,0,0,1-5.15-8.54,65.75,65.75,0,0,1-3.68-9.29l-.75-2.39-.62-2.42a30.09,30.09,0,0,1-.94-5,66,66,0,0,1-.07-10c.11-1.66.2-3.32.37-5s.31-3.31.51-5c.76-6.6,1.76-13.16,2.84-19.71,4.37-26.16,10.14-52,14.56-78.08,1.11-6.51,2.14-13,2.94-19.57A150.26,150.26,0,0,0,263,187.75c-.14-6.59-.42-13.18-1.14-19.7A79.77,79.77,0,0,0,257.75,149c-2.22-6.1-5.81-11.74-7.93-18.25a25.52,25.52,0,0,1-1-10.16,29.41,29.41,0,0,1,2.85-9.74,34.46,34.46,0,0,1,5.71-8.32,28.12,28.12,0,0,1,3.79-3.35,8.71,8.71,0,0,0,3-3.62,28.35,28.35,0,0,0,2.2-9.51A64.14,64.14,0,0,0,266.45,76.15Z"></path><rect class="cls-9" x="0.93" y="205.62" width="207.89" height="66.66" rx="8.42"></rect><path class="cls-10" d="M78.57,227.82H69.89a1.44,1.44,0,0,0-1.43,1.43v1.94a1,1,0,0,0,1,.93h1.44a.1.1,0,0,1,.1,0,.2.2,0,0,1,0,.15l-3.4,10.19a.16.16,0,0,1-.17.1.11.11,0,0,1-.13-.1L62.2,228.73h0a1,1,0,0,0-.82-.59H58.31a1,1,0,0,0-.84.59h0L52.4,242.51a.12.12,0,0,1-.14.11.15.15,0,0,1-.16-.1l-3.4-10.2a.14.14,0,0,1,.13-.2h1.43a1,1,0,0,0,1-.93v-1.94a1.44,1.44,0,0,0-1.43-1.43H41.1a1,1,0,0,0-.77.4.88.88,0,0,0-.13.8c.12.35.26.78.41,1.21l.42,1.23a.93.93,0,0,0,.88.65h1.46s.11,0,.17.12l6.74,19.85a.94.94,0,0,0,.88.65h2.08a1,1,0,0,0,.88-.61c1.86-5.37,5.41-15.6,5.55-16a.17.17,0,0,1,.17-.13.18.18,0,0,1,.17.12c.14.36,3.69,10.59,5.54,16a1,1,0,0,0,.88.62h2.09a.93.93,0,0,0,.88-.65l6.73-19.85c.07-.11.14-.11.17-.11h1.47a.94.94,0,0,0,.87-.65l.42-1.23.42-1.22a.86.86,0,0,0-.14-.8A.93.93,0,0,0,78.57,227.82ZM180.2,248.73h-1.58a.46.46,0,0,1-.45-.45V228.71a.64.64,0,0,0-.64-.62h-4.61a.67.67,0,0,0-.51.24l-1.91,2.38a.66.66,0,0,0-.13.4.65.65,0,0,0,.61.65h.6a.47.47,0,0,1,.45.44v16a.71.71,0,0,1-.12.37l-2.15,2.71a.67.67,0,0,0-.16.43.64.64,0,0,0,.64.64h8a.53.53,0,0,0,.46-.18l1.88-2.35A.64.64,0,0,0,180.2,248.73Z"></path><circle class="cls-10" cx="175.07" cy="222" r="3.46"></circle><path class="cls-10" d="M101.24,248.82c-1.34.06-2-.57-2-2.09v-11c0-4.8-4-7.84-8.56-7.84-7,0-9.57,3.34-9.86,7.07v0a.66.66,0,0,0,.65.65h3.47a.65.65,0,0,0,.63-.59,3.5,3.5,0,0,1,3.67-3.37c2.41,0,3.87,1.21,3.87,4v2.39H91.85c-4.32,0-7.31.57-9.3,1.82s-3,3.58-3,6.3a6.56,6.56,0,0,0,2.06,5,6.92,6.92,0,0,0,5.1,1.87,8.19,8.19,0,0,0,3.64-.83,12.15,12.15,0,0,0,3.08-2,.44.44,0,0,1,.31-.13.46.46,0,0,1,.4.25,4,4,0,0,0,4.12,2.29c1.85,0,2.74-1.73,3.55-2.77A.68.68,0,0,0,101.24,248.82Zm-8.11-1.76h0c0,.15-.24.36-.33.45a9,9,0,0,1-1.85,1.19,4.48,4.48,0,0,1-1.91.36A3.42,3.42,0,0,1,86.48,248a3.68,3.68,0,0,1-1-2.56,3.44,3.44,0,0,1,1.61-3.11,9.38,9.38,0,0,1,5-1h1Zm74.09,1.76c-1.34.06-2-.57-2-2.09v-11c0-4.8-4-7.84-8.56-7.84-7,0-9.57,3.34-9.86,7.07v0a.65.65,0,0,0,.65.65h3.46a.64.64,0,0,0,.63-.59,3.5,3.5,0,0,1,3.67-3.37c2.42,0,3.88,1.21,3.88,4v2.39h-1.26c-4.32,0-7.3.57-9.3,1.82a7.11,7.11,0,0,0-3,6.29,6.53,6.53,0,0,0,2.06,4.95,6.89,6.89,0,0,0,5.1,1.88,8.33,8.33,0,0,0,3.64-.83,12.43,12.43,0,0,0,3.08-2,.44.44,0,0,1,.31-.13.47.47,0,0,1,.4.24,4,4,0,0,0,4.12,2.3c1.85,0,2.74-1.73,3.55-2.77A.67.67,0,0,0,167.22,248.82Zm-8.11-1.76h0c0,.15-.24.36-.33.45a8.72,8.72,0,0,1-1.85,1.19,4.45,4.45,0,0,1-1.91.36,3.42,3.42,0,0,1-2.53-1.05,3.68,3.68,0,0,1-1-2.56,3.44,3.44,0,0,1,1.61-3.11,9.44,9.44,0,0,1,5-1h1ZM199.93,228a5.08,5.08,0,0,0-1.82-.24,7,7,0,0,0-2.8.48l-.06,0a4.35,4.35,0,0,0-.84.48,11,11,0,0,0-2.6,2.25c-.75.87-.34.25-.4-.18v-2.17a.65.65,0,0,0-.64-.65h-4.62a.63.63,0,0,0-.48.23c-.11.15-1.45,1.81-1.92,2.43a.65.65,0,0,0,.51,1.05h.57a.47.47,0,0,1,.46.45v16.09a.66.66,0,0,1-.11.36L183,251.34a.65.65,0,0,0-.14.4.64.64,0,0,0,.63.64h10a.65.65,0,0,0,.65-.64v-2.4a.65.65,0,0,0-.65-.64h-1.58a.46.46,0,0,1-.46-.45v-9.37c.19-4.45,2.84-5.81,4.12-6.21l.18,0h.05a4.3,4.3,0,0,1,1.07-.14,9.08,9.08,0,0,1,2.9.43c.35.09.65-.28.65-.64v-3.64A.8.8,0,0,0,199.93,228Zm-54.23.1h-7.23a.46.46,0,0,1-.45-.46v-3.58c0-1.73.9-3.46,2.75-3.46,2.08,0,2.41,1.76,2.5,3.1a.67.67,0,0,0,.63.63h3a.61.61,0,0,0,.59-.63c-.05-4.47-2.88-6.38-7.45-6.38a7.07,7.07,0,0,0-6,2.54c-1.38,1.66-2.07,3.52-2.07,6.86v.89a.46.46,0,0,1-.44.46l-12.34,0h0a.64.64,0,0,0-.64.62v2.41a.67.67,0,0,0,.66.66h1.32a.45.45,0,0,1,.45.45.47.47,0,0,1,0,.17c0,.06-3.4,7.91-4.77,11.07a.45.45,0,0,1-.42.27.46.46,0,0,1-.42-.27c-1.4-3.19-4.83-11.07-4.83-11.07a.47.47,0,0,1,0-.17.45.45,0,0,1,.45-.45h.92a.67.67,0,0,0,.66-.66v-2.42a.63.63,0,0,0-.63-.61H100.7a.64.64,0,0,0-.56,1c.32.6,1.07,2,1.28,2.42a.65.65,0,0,0,.54.32h2.14a.46.46,0,0,1,.42.26c.08.17,7.94,17.82,8.24,18.45a3.45,3.45,0,0,1,0,2.47c-.37,1.46-2.81,4.06-4.16,3.6-.93-.32-1-2-2.15-2.22a1.07,1.07,0,0,0-.61.08c-.19.07-2,2.39-2.39,2.79a.71.71,0,0,0,0,.87,7.42,7.42,0,0,0,5,2.47c2.94.12,5.85-.27,8.52-5.37,0,0,8.55-20.88,9.57-23.14a.46.46,0,0,1,.43-.23h4.5a.45.45,0,0,1,.46.44v16.05a.58.58,0,0,1-.12.36l-2.15,2.71a.68.68,0,0,0-.14.41.64.64,0,0,0,.64.64h10.09a.68.68,0,0,0,.66-.66v-2.39a.67.67,0,0,0-.66-.65h-1.73a.46.46,0,0,1-.44-.45V232.23a.45.45,0,0,1,.44-.45h5.32a.67.67,0,0,0,.51-.24c.45-.6,1.37-1.79,1.85-2.42a.64.64,0,0,0,.12-.38A.64.64,0,0,0,145.7,228.1Z"></path><path class="cls-11" d="M36.92,235.81l-1.74-6.57a.64.64,0,0,0-.45-.45l-6.56-1.74a.65.65,0,0,0-.61.17l-4.4,4.4,9.2,9.2,4.4-4.4A.62.62,0,0,0,36.92,235.81Z"></path><path class="cls-12" d="M9.38,245.84l1.75,6.56a.61.61,0,0,0,.45.45l6.56,1.74a.62.62,0,0,0,.61-.16l4.4-4.4L14,240.82l-4.4,4.4A.67.67,0,0,0,9.38,245.84Z"></path><path class="cls-13" d="M18.14,227.05l-6.56,1.74a.63.63,0,0,0-.46.46L9.38,235.8a.65.65,0,0,0,.17.61l4.4,4.4,9.2-9.19-4.4-4.4A.63.63,0,0,0,18.14,227.05Z"></path><path class="cls-14" d="M36.7,245.16l-4.34-4.34L23.15,250l4.34,4.34a.8.8,0,0,0,.76.21l6.39-1.7a.76.76,0,0,0,.56-.56l1.7-6.39A.82.82,0,0,0,36.7,245.16Z"></path><path class="cls-10" d="M23.15,231.62l-9.2,9.2,9.2,9.2,9.21-9.2Z"></path><path id="SD" class="cls-15" d="M522.07,191.26l-1.72,5.16-4.18,3.45-.49,1.23,3.68,5.65,2.46.49L524,210l-.25,51.64h-2.95l1.23,3.2-.74,4.67,1.72.24.49,2.71-1,2.21v2.22l-1.23,3.44-1.47,2.7,2.21,2.95,1,3.69-2.7-.49-1.72-2.21-.5-1.72-1.72-.5-1.23-1.47-5.65-1.48-3.69-2.7-7.62.74-3.69-.5-2.22,2.22-1.23.24-4.91-2.7L481,275.11l-23.36-.73-17.7-.74-21.4-1.23-32-2.21-21.88-1.73,4.92-57.29h.49l2.21-27.05,28.53,2.46,28,1.72,18.44,1L466,190l18.69.74,18.69.49Z"></path><path class="cls-16" d="M376.15,237v-1.24h3.22v1.49c0,1.55.69,2.11,1.77,2.11s1.77-.56,1.77-2.17c0-1.8-.68-2.95-2.92-4.9-2.85-2.51-3.78-4.28-3.78-6.76,0-3.41,1.77-5.39,5.09-5.39s5,2,5,5.45v.9H383v-1.11c0-1.55-.62-2.14-1.7-2.14s-1.71.59-1.71,2.07.72,2.73,2.95,4.69c2.85,2.51,3.75,4.24,3.75,6.94,0,3.54-1.8,5.52-5.15,5.52S376.15,240.48,376.15,237Z"></path><path class="cls-16" d="M388,237V225.59c0-3.47,1.83-5.45,5.17-5.45s5.18,2,5.18,5.45V237c0,3.48-1.83,5.46-5.18,5.46S388,240.48,388,237Zm6.94.22V225.38c0-1.55-.68-2.14-1.77-2.14s-1.76.59-1.76,2.14v11.84c0,1.55.68,2.14,1.76,2.14S395,238.77,395,237.22Z"></path><path class="cls-16" d="M400.55,237V220.45H404v16.8c0,1.55.66,2.11,1.74,2.11s1.74-.56,1.74-2.11v-16.8h3.28V237c0,3.48-1.73,5.46-5.08,5.46S400.55,240.48,400.55,237Z"></path><path class="cls-16" d="M415.81,223.55h-3.57v-3.1h10.55v3.1h-3.57v18.6h-3.41Z"></path><path class="cls-16" d="M424.43,220.45h3.41v8.83h3.66v-8.83h3.41v21.7H431.5v-9.77h-3.66v9.77h-3.41Z"></path><path class="cls-16" d="M442.42,220.45h5.21c3.41,0,5.08,1.89,5.08,5.36v11c0,3.47-1.67,5.36-5.08,5.36h-5.21Zm5.14,18.6c1.09,0,1.74-.56,1.74-2.11V225.65c0-1.55-.65-2.1-1.74-2.1h-1.73v15.5Z"></path><path class="cls-16" d="M457.58,220.45h4.62l3.54,21.7h-3.42l-.62-4.31v.06h-3.87l-.62,4.25h-3.16ZM461.3,235l-1.52-10.73h-.06L458.23,235Z"></path><path class="cls-16" d="M467.38,220.45h3.41v9.14l4.34-9.14h3.41l-4.06,8,4.12,13.74H475l-2.89-9.67-1.36,2.76v6.91h-3.41Z"></path><path class="cls-16" d="M479.47,237V225.59c0-3.47,1.83-5.45,5.18-5.45s5.18,2,5.18,5.45V237c0,3.48-1.83,5.46-5.18,5.46S479.47,240.48,479.47,237Zm6.95.22V225.38c0-1.55-.68-2.14-1.77-2.14s-1.77.59-1.77,2.14v11.84c0,1.55.69,2.14,1.77,2.14S486.42,238.77,486.42,237.22Z"></path><path class="cls-16" d="M494.67,223.55H491.1v-3.1h10.54v3.1h-3.56v18.6h-3.41Z"></path><path class="cls-16" d="M504.5,220.45h4.62l3.53,21.7h-3.41l-.62-4.31v.06h-3.88l-.61,4.25H501ZM508.22,235l-1.52-10.73h-.06L505.15,235Z"></path><path class="cls-17" d="M418.61,271.35,440,272.58l17.69.74,23.35.74a1,1,0,0,1,.6.21l5.1,3.89,4.52,2.48.53-.11,2-2a1,1,0,0,1,.89-.3l3.57.47,7.5-.72a1,1,0,0,1,.72.19l3.53,2.59,5.46,1.42a1.11,1.11,0,0,1,.55.35l1,1.23,1.41.4a1,1,0,0,1,.72.73l.44,1.52,1.34,1.73.67.12-.5-1.88L519,283.62a1,1,0,0,1-.08-1.14l1.43-2.64,1.14-3.19v-2a1.07,1.07,0,0,1,.09-.43l.85-1.91-.29-1.64-1-.13a1.09,1.09,0,0,1-.7-.42,1,1,0,0,1-.19-.8l.69-4.39L519.85,262a1.07,1.07,0,0,1,.12-1,1,1,0,0,1,.87-.46h1.9l.16-33.6c-2,6.88-2.55,14.42-6.2,20.72-.86,1.49-2.14,2.65-3,4.06-1.09,1.73-.75,1.78-1,3.83-.34,3.17-1.69,6-4.62,7.61-3.7,2-8.43,1.37-12-.79a16.12,16.12,0,0,0-3.43-1.87c-2-.6-4.12,0-6.13.54-5.05,1.37-10.24,2.45-15.46,2.2-12-.59-23.1-8.2-35.13-7.68-9,.39-17.72,5.33-26.56,3.69-2.82-.52-5.48-1.7-8.3-2.24-5-.95-10.21.2-15.33,0-6.28-.27-14.52-5.07-16.9-11-.32-.8-.62-1.61-.91-2.42l-2.06,24,20.83,1.64Z"></path></g></g></svg> 