<?xml version="1.0" encoding="UTF-8"?> <svg xmlns="http://www.w3.org/2000/svg" viewBox="0 0 816.21 264.8"><defs><style>.cls-1{fill:#b6d0ce;}.cls-2{fill:none;}.cls-3{fill:#e1eae9;}.cls-4{fill:#a2c5c2;}.cls-5{fill:#659a97;}.cls-6{fill:#fff;}.cls-7{fill:#98c0bd;}</style></defs><g id="Layer_2" data-name="Layer 2"><g id="WhyWeAreTaxFree_Page" data-name="WhyWeAreTaxFree Page"><rect class="cls-1" x="17.66" y="17.66" width="303.27" height="229.48"></rect><rect class="cls-2" y="190.65" width="35.33" height="38.83"></rect><path class="cls-3" d="M0,195.46c7.33,0,13.28,6.54,13.28,14.6S7.33,224.66,0,224.66v4.82H17.66V190.65H0Z"></path><rect class="cls-2" y="151.82" width="35.33" height="38.83"></rect><path class="cls-3" d="M0,156.63c7.33,0,13.28,6.54,13.28,14.6S7.33,185.83,0,185.83v4.82H17.66V151.82H0Z"></path><rect class="cls-2" y="112.99" width="35.33" height="38.83"></rect><path class="cls-3" d="M0,117.8c7.33,0,13.28,6.54,13.28,14.6S7.33,147,0,147v4.82H17.66V113H0Z"></path><rect class="cls-2" y="74.16" width="35.33" height="38.83"></rect><path class="cls-3" d="M0,79c7.33,0,13.28,6.54,13.28,14.6S7.33,108.17,0,108.17V113H17.66V74.16H0Z"></path><rect class="cls-2" y="35.33" width="35.33" height="38.83"></rect><path class="cls-3" d="M0,40.14c7.33,0,13.28,6.54,13.28,14.6S7.33,69.34,0,69.34v4.82H17.66V35.33H0Z"></path><rect class="cls-2" x="35.33" width="33.49" height="35.33"></rect><path class="cls-3" d="M64.67,0c0,7.33-5.64,13.28-12.6,13.28S39.48,7.33,39.48,0H35.33V17.66H68.82V0Z"></path><rect class="cls-2" x="68.82" width="33.49" height="35.33"></rect><path class="cls-3" d="M98.16,0c0,7.33-5.64,13.28-12.59,13.28S73,7.33,73,0H68.82V17.66h33.49V0Z"></path><rect class="cls-2" x="102.31" width="33.49" height="35.33"></rect><path class="cls-3" d="M131.65,0c0,7.33-5.64,13.28-12.59,13.28S106.47,7.33,106.47,0h-4.16V17.66h33.5V0Z"></path><rect class="cls-2" x="135.81" width="33.49" height="35.33"></rect><path class="cls-3" d="M165.15,0c0,7.33-5.64,13.28-12.6,13.28S140,7.33,140,0h-4.15V17.66H169.3V0Z"></path><rect class="cls-2" x="169.3" width="33.49" height="35.33"></rect><path class="cls-3" d="M198.64,0c0,7.33-5.64,13.28-12.59,13.28S173.46,7.33,173.46,0H169.3V17.66h33.49V0Z"></path><rect class="cls-2" x="202.79" width="33.49" height="35.33"></rect><path class="cls-3" d="M232.13,0c0,7.33-5.64,13.28-12.59,13.28S207,7.33,207,0h-4.16V17.66h33.5V0Z"></path><rect class="cls-2" x="236.29" width="33.49" height="35.33"></rect><path class="cls-3" d="M265.62,0c0,7.33-5.63,13.28-12.59,13.28S240.44,7.33,240.44,0h-4.15V17.66h33.49V0Z"></path><rect class="cls-2" x="269.78" width="33.49" height="35.33"></rect><path class="cls-3" d="M299.12,0c0,7.33-5.64,13.28-12.59,13.28S273.94,7.33,273.94,0h-4.16V17.66h33.49V0Z"></path><rect class="cls-2" x="303.27" y="35.33" width="35.33" height="38.83"></rect><path class="cls-3" d="M338.6,69.34c-7.33,0-13.28-6.54-13.28-14.6s5.95-14.6,13.28-14.6V35.33H320.94V74.16H338.6Z"></path><rect class="cls-2" x="303.27" y="74.16" width="35.33" height="38.83"></rect><path class="cls-3" d="M338.6,108.17c-7.33,0-13.28-6.54-13.28-14.6S331.27,79,338.6,79V74.16H320.94V113H338.6Z"></path><rect class="cls-2" x="303.27" y="112.99" width="35.33" height="38.83"></rect><path class="cls-3" d="M338.6,147c-7.33,0-13.28-6.54-13.28-14.6s5.95-14.6,13.28-14.6V113H320.94v38.83H338.6Z"></path><rect class="cls-2" x="303.27" y="151.82" width="35.33" height="38.83"></rect><path class="cls-3" d="M338.6,185.83c-7.33,0-13.28-6.54-13.28-14.6s5.95-14.6,13.28-14.6v-4.81H320.94v38.83H338.6Z"></path><rect class="cls-2" x="303.27" y="190.65" width="35.33" height="38.83"></rect><path class="cls-3" d="M338.6,224.66c-7.33,0-13.28-6.54-13.28-14.6s5.95-14.6,13.28-14.6v-4.81H320.94v38.83H338.6Z"></path><rect class="cls-2" x="269.78" y="229.48" width="33.49" height="35.33"></rect><path class="cls-3" d="M273.94,264.8c0-7.33,5.63-13.28,12.59-13.28s12.59,6,12.59,13.28h4.15V247.14H269.78V264.8Z"></path><rect class="cls-2" x="236.29" y="229.48" width="33.49" height="35.33"></rect><path class="cls-3" d="M240.44,264.8c0-7.33,5.64-13.28,12.59-13.28s12.59,6,12.59,13.28h4.16V247.14H236.29V264.8Z"></path><rect class="cls-2" x="202.79" y="229.48" width="33.49" height="35.33"></rect><path class="cls-3" d="M207,264.8c0-7.33,5.64-13.28,12.59-13.28s12.59,6,12.59,13.28h4.16V247.14h-33.5V264.8Z"></path><rect class="cls-2" x="169.3" y="229.48" width="33.49" height="35.33"></rect><path class="cls-3" d="M173.46,264.8c0-7.33,5.63-13.28,12.59-13.28s12.59,6,12.59,13.28h4.15V247.14H169.3V264.8Z"></path><rect class="cls-2" x="135.81" y="229.48" width="33.49" height="35.33"></rect><path class="cls-3" d="M140,264.8c0-7.33,5.64-13.28,12.59-13.28s12.6,6,12.6,13.28h4.15V247.14H135.81V264.8Z"></path><rect class="cls-2" x="102.31" y="229.48" width="33.49" height="35.33"></rect><path class="cls-3" d="M106.47,264.8c0-7.33,5.64-13.28,12.59-13.28s12.59,6,12.59,13.28h4.16V247.14h-33.5V264.8Z"></path><rect class="cls-2" x="68.82" y="229.48" width="33.49" height="35.33"></rect><path class="cls-3" d="M73,264.8c0-7.33,5.63-13.28,12.59-13.28s12.59,6,12.59,13.28h4.15V247.14H68.82V264.8Z"></path><rect class="cls-2" x="35.33" y="229.48" width="33.49" height="35.33"></rect><path class="cls-3" d="M39.48,264.8c0-7.33,5.64-13.28,12.59-13.28s12.6,6,12.6,13.28h4.15V247.14H35.33V264.8Z"></path><polygon class="cls-3" points="17.27 0 17.26 0.45 17.24 0.89 17.21 1.33 17.18 1.76 17.13 2.2 17.07 2.63 17 3.06 16.91 3.48 16.82 3.9 16.72 4.32 16.61 4.73 16.49 5.13 16.36 5.54 16.22 5.94 16.07 6.33 15.91 6.72 15.74 7.11 15.56 7.49 15.38 7.86 15.18 8.23 14.98 8.59 14.77 8.95 14.54 9.31 14.32 9.65 14.08 9.99 13.84 10.33 13.58 10.66 13.32 10.98 13.05 11.3 12.78 11.61 12.5 11.91 12.21 12.21 11.91 12.5 11.61 12.78 11.3 13.05 10.98 13.32 10.66 13.58 10.33 13.84 9.99 14.08 9.65 14.32 9.31 14.54 8.95 14.77 8.59 14.98 8.23 15.18 7.86 15.38 7.49 15.56 7.11 15.74 6.72 15.91 6.33 16.07 5.94 16.22 5.54 16.36 5.13 16.49 4.73 16.61 4.32 16.72 3.9 16.82 3.48 16.91 3.06 17 2.63 17.07 2.2 17.13 1.77 17.18 1.33 17.21 0.89 17.24 0.45 17.26 0 17.27 0 35.33 17.66 35.33 17.66 17.66 35.33 17.66 35.33 0 17.27 0"></polygon><polygon class="cls-3" points="338.6 17.27 338.15 17.26 337.71 17.24 337.27 17.21 336.83 17.18 336.4 17.13 335.97 17.07 335.54 17 335.12 16.91 334.7 16.82 334.29 16.72 333.87 16.61 333.47 16.49 333.06 16.36 332.66 16.22 332.27 16.07 331.88 15.91 331.5 15.74 331.12 15.56 330.74 15.38 330.37 15.18 330.01 14.98 329.65 14.77 329.29 14.54 328.95 14.32 328.61 14.08 328.27 13.84 327.94 13.58 327.62 13.32 327.3 13.05 326.99 12.78 326.69 12.5 326.39 12.21 326.1 11.91 325.82 11.61 325.55 11.3 325.28 10.98 325.02 10.66 324.76 10.33 324.52 9.99 324.28 9.65 324.06 9.31 323.83 8.95 323.62 8.59 323.42 8.23 323.22 7.86 323.04 7.49 322.86 7.11 322.69 6.72 322.53 6.33 322.38 5.94 322.24 5.54 322.11 5.13 321.99 4.73 321.88 4.32 321.78 3.9 321.69 3.48 321.61 3.06 321.53 2.63 321.47 2.2 321.42 1.76 321.39 1.33 321.36 0.89 321.34 0.45 321.33 0 303.27 0 303.27 17.66 320.94 17.66 320.94 35.33 338.6 35.33 338.6 17.27"></polygon><polygon class="cls-3" points="321.33 264.8 321.34 264.36 321.36 263.91 321.39 263.47 321.42 263.04 321.47 262.6 321.53 262.17 321.61 261.75 321.69 261.32 321.78 260.9 321.88 260.49 321.99 260.08 322.11 259.67 322.24 259.26 322.38 258.87 322.53 258.47 322.69 258.08 322.86 257.7 323.04 257.32 323.22 256.94 323.42 256.57 323.62 256.21 323.83 255.85 324.06 255.5 324.28 255.15 324.52 254.81 324.76 254.47 325.02 254.14 325.28 253.82 325.55 253.5 325.82 253.19 326.1 252.89 326.39 252.59 326.69 252.31 326.99 252.02 327.3 251.75 327.62 251.48 327.94 251.22 328.27 250.97 328.61 250.72 328.95 250.49 329.29 250.26 329.65 250.04 330.01 249.82 330.37 249.62 330.74 249.43 331.12 249.24 331.5 249.06 331.88 248.89 332.27 248.74 332.66 248.59 333.06 248.44 333.47 248.31 333.87 248.19 334.29 248.08 334.7 247.98 335.12 247.89 335.54 247.81 335.97 247.74 336.4 247.68 336.83 247.63 337.27 247.59 337.71 247.56 338.15 247.54 338.6 247.54 338.6 229.48 320.94 229.48 320.94 247.14 303.27 247.14 303.27 264.8 321.33 264.8"></polygon><polygon class="cls-3" points="0 247.54 0 247.54 0.45 247.54 0.89 247.56 1.33 247.59 1.77 247.63 2.2 247.68 2.63 247.74 3.06 247.81 3.48 247.89 3.9 247.98 4.32 248.08 4.73 248.19 5.13 248.31 5.54 248.44 5.94 248.59 6.33 248.74 6.72 248.89 7.11 249.06 7.49 249.24 7.86 249.43 8.23 249.62 8.59 249.82 8.95 250.04 9.31 250.26 9.65 250.49 9.99 250.72 10.33 250.97 10.66 251.22 10.98 251.48 11.3 251.75 11.61 252.02 11.91 252.31 12.21 252.59 12.5 252.89 12.78 253.19 13.05 253.5 13.32 253.82 13.58 254.14 13.84 254.47 14.08 254.81 14.32 255.15 14.54 255.5 14.77 255.85 14.98 256.21 15.18 256.57 15.38 256.94 15.56 257.32 15.74 257.7 15.91 258.08 16.07 258.47 16.22 258.87 16.36 259.26 16.49 259.67 16.61 260.08 16.72 260.49 16.82 260.9 16.91 261.32 17 261.75 17.07 262.17 17.13 262.6 17.18 263.04 17.21 263.47 17.24 263.91 17.26 264.36 17.27 264.8 35.33 264.8 35.33 247.14 17.66 247.14 17.66 229.48 0 229.48 0 247.54"></polygon><path class="cls-4" d="M314,24.56V240.24H24.56V24.56H314m6.9-6.9H17.66V247.14H320.94V17.66Z"></path><path class="cls-5" d="M56.05,116.57v-4.21H67v5c0,5.26,2.32,7.15,6,7.15s6-1.89,6-7.36c0-6.1-2.31-10-9.88-16.61-9.67-8.51-12.83-14.51-12.83-22.91,0-11.57,6-18.3,17.24-18.3s16.82,6.73,16.82,18.51v3H79.39V77.15c0-5.26-2.1-7.25-5.78-7.25s-5.78,2-5.78,7c0,5.36,2.41,9.25,10,15.87,9.67,8.52,12.72,14.4,12.72,23.55,0,12-6.1,18.71-17.45,18.71S56.05,128.34,56.05,116.57Z"></path><path class="cls-5" d="M97.15,60.44h11.56v30h12.41V60.44h11.56V134H121.12V100.91H108.71V134H97.15Z"></path><path class="cls-5" d="M141.3,60.44h11.56V134H141.3Z"></path><path class="cls-5" d="M161.48,60.44h17c11.56,0,17.24,6.41,17.24,18.18v7.25c0,11.78-5.68,18.19-17.24,18.19H173v30H161.48Zm17,33.11c3.67,0,5.67-1.68,5.67-6.94V77.89c0-5.26-2-6.94-5.67-6.94H173v22.6Z"></path><path class="cls-5" d="M227.91,71H215.82V60.44h35.74V71H239.47V134H227.91Z"></path><path class="cls-5" d="M256.29,116.57V77.89c0-11.78,6.2-18.51,17.55-18.51s17.55,6.73,17.55,18.51v38.68c0,11.77-6.2,18.5-17.55,18.5S256.29,128.34,256.29,116.57Zm23.54.73V77.15c0-5.26-2.31-7.25-6-7.25s-6,2-6,7.25V117.3c0,5.26,2.31,7.26,6,7.26S279.83,122.56,279.83,117.3Z"></path><path class="cls-6" d="M51.05,111.57v-4.21H62v5c0,5.26,2.32,7.15,6,7.15s6-1.89,6-7.36c0-6.1-2.31-10-9.88-16.61-9.67-8.51-12.83-14.51-12.83-22.91,0-11.57,6-18.3,17.24-18.3s16.82,6.73,16.82,18.51v3H74.39V72.15c0-5.26-2.1-7.25-5.78-7.25s-5.78,2-5.78,7c0,5.36,2.41,9.25,10,15.87,9.67,8.52,12.72,14.4,12.72,23.55,0,12-6.1,18.71-17.45,18.71S51.05,123.34,51.05,111.57Z"></path><path class="cls-6" d="M92.15,55.44h11.56v30h12.41V55.44h11.56V129H116.12V95.91H103.71V129H92.15Z"></path><path class="cls-6" d="M136.3,55.44h11.56V129H136.3Z"></path><path class="cls-6" d="M156.48,55.44h17c11.56,0,17.24,6.41,17.24,18.18v7.25c0,11.78-5.68,18.19-17.24,18.19H168v30H156.48Zm17,33.11c3.67,0,5.67-1.68,5.67-6.94V72.89c0-5.26-2-6.94-5.67-6.94H168v22.6Z"></path><path class="cls-6" d="M222.91,66H210.82V55.44h35.74V66H234.47V129H222.91Z"></path><path class="cls-6" d="M251.29,111.57V72.89c0-11.78,6.2-18.51,17.55-18.51s17.55,6.73,17.55,18.51v38.68c0,11.77-6.2,18.5-17.55,18.5S251.29,123.34,251.29,111.57Zm23.54.73V72.15c0-5.26-2.31-7.25-6-7.25s-6,2-6,7.25V112.3c0,5.26,2.31,7.26,6,7.26S274.83,117.56,274.83,112.3Z"></path><path class="cls-5" d="M66.64,151.8h13l9.92,60.92H80l-1.74-12.09v.17H67.34L65.6,212.72H56.72Zm10.45,40.73-4.27-30.11h-.17l-4.18,30.11Z"></path><path class="cls-5" d="M94.14,151.8h14.62c9.58,0,14.28,5.31,14.28,15v30.82c0,9.74-4.7,15.05-14.28,15.05H94.14ZM108.59,204c3,0,4.87-1.57,4.87-5.92V166.42c0-4.35-1.82-5.92-4.87-5.92h-4.87V204Z"></path><path class="cls-5" d="M129.48,151.8H144.1c9.57,0,14.27,5.31,14.27,15v30.82c0,9.74-4.7,15.05-14.27,15.05H129.48ZM143.92,204c3.05,0,4.88-1.57,4.88-5.92V166.42c0-4.35-1.83-5.92-4.88-5.92h-4.87V204Z"></path><path class="cls-5" d="M164.81,151.8H179c9.92,0,14.18,4.61,14.18,14v3.74c0,6.27-2,10.27-6.26,12v.18c4.78,1.48,6.35,6,6.35,12.88v10.7c0,3,.09,5.14,1,7.4h-9.74c-.53-1.56-.88-2.52-.88-7.48V194.1c0-5.66-1.65-7.49-6-7.49h-3.31v26.11h-9.57Zm13.05,26.11c3.57,0,5.75-1.57,5.75-6.44v-4.7c0-4.35-1.48-6.27-4.88-6.27h-4.35v17.41Z"></path><path class="cls-5" d="M199.88,151.8H226v8.7H209.46v16.1H222.6v8.71H209.46V204H226v8.7H199.88Z"></path><path class="cls-5" d="M229.82,198.27v-3.48h9.05V199c0,4.35,1.91,5.92,5,5.92s5-1.57,5-6.09c0-5.05-1.91-8.27-8.18-13.75-8-7.05-10.62-12-10.62-19,0-9.57,5-15.14,14.27-15.14s13.93,5.57,13.93,15.32v2.52h-9.05v-3.13c0-4.36-1.74-6-4.79-6s-4.78,1.65-4.78,5.83c0,4.44,2,7.66,8.26,13.14,8,7.05,10.54,11.93,10.54,19.5,0,9.92-5.05,15.49-14.45,15.49S229.82,208,229.82,198.27Z"></path><path class="cls-5" d="M262.19,198.27v-3.48h9.05V199c0,4.35,1.92,5.92,5,5.92s5-1.57,5-6.09c0-5.05-1.92-8.27-8.19-13.75-8-7.05-10.61-12-10.61-19,0-9.57,5-15.14,14.27-15.14s13.93,5.57,13.93,15.32v2.52h-9.06v-3.13c0-4.36-1.74-6-4.78-6s-4.79,1.65-4.79,5.83c0,4.44,2,7.66,8.27,13.14,8,7.05,10.53,11.93,10.53,19.5,0,9.92-5.05,15.49-14.45,15.49S262.19,208,262.19,198.27Z"></path><path class="cls-6" d="M61.64,146.8h13l9.92,60.92H75l-1.74-12.09v.17H62.34L60.6,207.72H51.72Zm10.45,40.73-4.27-30.11h-.17l-4.18,30.11Z"></path><path class="cls-6" d="M89.14,146.8h14.62c9.58,0,14.28,5.31,14.28,15v30.82c0,9.74-4.7,15.05-14.28,15.05H89.14ZM103.59,199c3,0,4.87-1.57,4.87-5.92V161.42c0-4.35-1.82-5.92-4.87-5.92H98.72V199Z"></path><path class="cls-6" d="M124.48,146.8H139.1c9.57,0,14.27,5.31,14.27,15v30.82c0,9.74-4.7,15.05-14.27,15.05H124.48ZM138.92,199c3.05,0,4.88-1.57,4.88-5.92V161.42c0-4.35-1.83-5.92-4.88-5.92h-4.87V199Z"></path><path class="cls-6" d="M159.81,146.8H174c9.92,0,14.18,4.61,14.18,14v3.74c0,6.27-2,10.27-6.26,12v.18c4.78,1.48,6.35,6,6.35,12.88v10.7c0,3,.09,5.14,1,7.4h-9.74c-.53-1.56-.88-2.52-.88-7.48V189.1c0-5.66-1.65-7.49-6-7.49h-3.31v26.11h-9.57Zm13.05,26.11c3.57,0,5.75-1.57,5.75-6.44v-4.7c0-4.35-1.48-6.27-4.88-6.27h-4.35v17.41Z"></path><path class="cls-6" d="M194.88,146.8H221v8.7H204.46v16.1H217.6v8.71H204.46V199H221v8.7H194.88Z"></path><path class="cls-6" d="M224.82,193.27v-3.48h9.05V194c0,4.35,1.91,5.92,5,5.92s5-1.57,5-6.09c0-5.05-1.91-8.27-8.18-13.75-8-7.05-10.62-12-10.62-19,0-9.57,5-15.14,14.27-15.14s13.93,5.57,13.93,15.32v2.52h-9.05v-3.13c0-4.36-1.74-6-4.79-6s-4.78,1.65-4.78,5.83c0,4.44,2,7.66,8.26,13.14,8,7.05,10.54,11.93,10.54,19.5,0,9.92-5.05,15.49-14.45,15.49S224.82,203,224.82,193.27Z"></path><path class="cls-6" d="M257.19,193.27v-3.48h9.05V194c0,4.35,1.92,5.92,5,5.92s5-1.57,5-6.09c0-5.05-1.92-8.27-8.19-13.75-8-7.05-10.61-12-10.61-19,0-9.57,5-15.14,14.27-15.14s13.93,5.57,13.93,15.32v2.52h-9.06v-3.13c0-4.36-1.74-6-4.78-6s-4.79,1.65-4.79,5.83c0,4.44,2,7.66,8.27,13.14,8,7.05,10.53,11.93,10.53,19.5,0,9.92-5.05,15.49-14.45,15.49S257.19,203,257.19,193.27Z"></path><polygon class="cls-7" points="373.78 186.81 386 166.06 374.53 166.06 374.53 146.08 397.78 146.08 408.12 128.72 374.53 128.72 374.53 108.74 419.91 108.74 432.13 87.99 452.43 87.99 440.21 108.74 451.68 108.74 451.68 128.72 428.43 128.72 418.09 146.08 451.68 146.08 451.68 166.06 406.3 166.06 394.08 186.81 373.78 186.81"></polygon><path class="cls-7" d="M450.68,89l-12.22,20.75h12.22v18H427.86l-11.53,19.36h34.35v18H405.73l-12.22,20.74h-18l12.22-20.74H375.53v-18h22.82l11.53-19.36H375.53v-18h45L432.7,89h18m3.5-2H431.56L431,88l-11.64,19.76H373.53v22h32.83l-9.15,15.36H373.53v22h10.72L373.8,184.8l-1.77,3h22.62l.58-1,11.64-19.76h45.81v-22H419.85L429,129.72h23.68v-22H442L452.4,90l1.78-3Z"></path><polygon class="cls-6" points="368.78 181.81 381 161.06 369.53 161.06 369.53 141.08 392.78 141.08 403.12 123.72 369.53 123.72 369.53 103.74 414.91 103.74 427.13 82.99 447.43 82.99 435.21 103.74 446.68 103.74 446.68 123.72 423.43 123.72 413.09 141.08 446.68 141.08 446.68 161.06 401.3 161.06 389.08 181.81 368.78 181.81"></polygon><path class="cls-7" d="M445.68,84l-12.22,20.75h12.22v18H422.86l-11.53,19.36h34.35v18H400.73l-12.22,20.74h-18l12.22-20.74H370.53v-18h22.82l11.53-19.36H370.53v-18h45L427.7,84h18m3.5-2H426.56L426,83l-11.64,19.76H368.53v22h32.83l-9.15,15.36H368.53v22h10.72L368.8,179.8l-1.77,3h22.62l.58-1,11.64-19.76h45.81v-22H414.85L424,124.72h23.68v-22H437L447.4,85l1.78-3Z"></path><rect class="cls-1" x="495.27" y="17.66" width="303.27" height="229.48"></rect><rect class="cls-2" x="477.61" y="190.65" width="35.32" height="38.83"></rect><path class="cls-3" d="M477.61,195.47c7.34,0,13.28,6.53,13.28,14.59s-5.94,14.6-13.28,14.6v4.82h17.66V190.65H477.61Z"></path><rect class="cls-2" x="477.61" y="151.82" width="35.32" height="38.83"></rect><path class="cls-3" d="M477.61,156.63c7.34,0,13.28,6.54,13.28,14.6s-5.94,14.6-13.28,14.6v4.82h17.66V151.82H477.61Z"></path><rect class="cls-2" x="477.61" y="112.99" width="35.32" height="38.83"></rect><path class="cls-3" d="M477.61,117.8c7.34,0,13.28,6.54,13.28,14.6S485,147,477.61,147v4.82h17.66V113H477.61Z"></path><rect class="cls-2" x="477.61" y="74.15" width="35.32" height="38.83"></rect><path class="cls-3" d="M477.61,79c7.34,0,13.28,6.54,13.28,14.6s-5.94,14.6-13.28,14.6V113h17.66V74.15H477.61Z"></path><rect class="cls-2" x="477.61" y="35.32" width="35.32" height="38.83"></rect><path class="cls-3" d="M477.61,40.14c7.34,0,13.28,6.54,13.28,14.6s-5.94,14.6-13.28,14.6v4.81h17.66V35.32H477.61Z"></path><rect class="cls-2" x="512.93" width="33.49" height="35.32"></rect><path class="cls-3" d="M542.27,0c0,7.34-5.64,13.28-12.59,13.28S517.09,7.34,517.09,0h-4.16V17.66h33.5V0Z"></path><rect class="cls-2" x="546.43" width="33.49" height="35.32"></rect><path class="cls-3" d="M575.77,0c0,7.34-5.64,13.28-12.6,13.28S550.58,7.34,550.58,0h-4.15V17.66h33.49V0Z"></path><rect class="cls-2" x="579.92" width="33.49" height="35.32"></rect><path class="cls-3" d="M609.26,0c0,7.34-5.64,13.28-12.59,13.28S584.08,7.34,584.08,0h-4.16V17.66h33.49V0Z"></path><rect class="cls-2" x="613.41" width="33.49" height="35.32"></rect><path class="cls-3" d="M642.75,0c0,7.34-5.63,13.28-12.59,13.28S617.57,7.34,617.57,0h-4.16V17.66h33.5V0Z"></path><rect class="cls-2" x="646.91" width="33.49" height="35.32"></rect><path class="cls-3" d="M676.25,0c0,7.34-5.64,13.28-12.59,13.28S651.06,7.34,651.06,0h-4.15V17.66H680.4V0Z"></path><rect class="cls-2" x="680.4" width="33.49" height="35.32"></rect><path class="cls-3" d="M709.74,0c0,7.34-5.64,13.28-12.59,13.28S684.56,7.34,684.56,0H680.4V17.66h33.5V0Z"></path><rect class="cls-2" x="713.9" width="33.49" height="35.32"></rect><path class="cls-3" d="M743.24,0c0,7.34-5.64,13.28-12.6,13.28S718.05,7.34,718.05,0H713.9V17.66h33.49V0Z"></path><rect class="cls-2" x="747.39" width="33.49" height="35.32"></rect><path class="cls-3" d="M776.73,0c0,7.34-5.64,13.28-12.59,13.28S751.55,7.34,751.55,0h-4.16V17.66h33.5V0Z"></path><rect class="cls-2" x="780.89" y="35.32" width="35.32" height="38.83"></rect><path class="cls-3" d="M816.21,69.34c-7.34,0-13.28-6.54-13.28-14.6s5.94-14.6,13.28-14.6V35.32H798.55V74.15h17.66Z"></path><rect class="cls-2" x="780.89" y="74.15" width="35.32" height="38.83"></rect><path class="cls-3" d="M816.21,108.17c-7.34,0-13.28-6.54-13.28-14.6S808.87,79,816.21,79V74.15H798.55V113h17.66Z"></path><rect class="cls-2" x="780.89" y="112.99" width="35.32" height="38.83"></rect><path class="cls-3" d="M816.21,147c-7.34,0-13.28-6.54-13.28-14.6s5.94-14.6,13.28-14.6V113H798.55v38.83h17.66Z"></path><rect class="cls-2" x="780.89" y="151.82" width="35.32" height="38.83"></rect><path class="cls-3" d="M816.21,185.83c-7.34,0-13.28-6.54-13.28-14.6s5.94-14.6,13.28-14.6v-4.81H798.55v38.83h17.66Z"></path><rect class="cls-2" x="780.89" y="190.65" width="35.32" height="38.83"></rect><path class="cls-3" d="M816.21,224.66c-7.34,0-13.28-6.53-13.28-14.6s5.94-14.59,13.28-14.59v-4.82H798.55v38.83h17.66Z"></path><rect class="cls-2" x="747.39" y="229.48" width="33.49" height="35.32"></rect><path class="cls-3" d="M751.55,264.8c0-7.33,5.63-13.28,12.59-13.28s12.59,6,12.59,13.28h4.16V247.14h-33.5V264.8Z"></path><rect class="cls-2" x="713.9" y="229.48" width="33.49" height="35.32"></rect><path class="cls-3" d="M718.05,264.8c0-7.33,5.64-13.28,12.59-13.28s12.6,6,12.6,13.28h4.15V247.14H713.9V264.8Z"></path><rect class="cls-2" x="680.4" y="229.48" width="33.49" height="35.32"></rect><path class="cls-3" d="M684.56,264.8c0-7.33,5.64-13.28,12.59-13.28s12.59,6,12.59,13.28h4.16V247.14H680.4V264.8Z"></path><rect class="cls-2" x="646.91" y="229.48" width="33.49" height="35.32"></rect><path class="cls-3" d="M651.06,264.8c0-7.33,5.64-13.28,12.6-13.28s12.59,6,12.59,13.28h4.15V247.14H646.91V264.8Z"></path><rect class="cls-2" x="613.41" y="229.48" width="33.49" height="35.32"></rect><path class="cls-3" d="M617.57,264.8c0-7.33,5.64-13.28,12.59-13.28s12.59,6,12.59,13.28h4.16V247.14h-33.5V264.8Z"></path><rect class="cls-2" x="579.92" y="229.48" width="33.49" height="35.32"></rect><path class="cls-3" d="M584.08,264.8c0-7.33,5.63-13.28,12.59-13.28s12.59,6,12.59,13.28h4.15V247.14H579.92V264.8Z"></path><rect class="cls-2" x="546.43" y="229.48" width="33.49" height="35.32"></rect><path class="cls-3" d="M550.58,264.8c0-7.33,5.64-13.28,12.59-13.28s12.6,6,12.6,13.28h4.15V247.14H546.43V264.8Z"></path><rect class="cls-2" x="512.93" y="229.48" width="33.49" height="35.32"></rect><path class="cls-3" d="M517.09,264.8c0-7.33,5.64-13.28,12.59-13.28s12.59,6,12.59,13.28h4.16V247.14h-33.5V264.8Z"></path><polygon class="cls-3" points="494.87 0 494.87 0.45 494.85 0.89 494.82 1.33 494.79 1.77 494.74 2.2 494.68 2.63 494.6 3.06 494.52 3.48 494.43 3.9 494.33 4.32 494.22 4.73 494.1 5.14 493.97 5.54 493.83 5.94 493.68 6.33 493.52 6.72 493.35 7.11 493.17 7.49 492.99 7.86 492.79 8.23 492.59 8.6 492.38 8.95 492.15 9.31 491.93 9.65 491.69 10 491.44 10.33 491.19 10.66 490.93 10.98 490.67 11.3 490.39 11.61 490.11 11.91 489.82 12.21 489.52 12.5 489.22 12.78 488.91 13.06 488.59 13.32 488.27 13.58 487.94 13.84 487.6 14.08 487.26 14.32 486.92 14.55 486.56 14.77 486.2 14.98 485.84 15.18 485.47 15.38 485.1 15.56 484.72 15.74 484.33 15.91 483.94 16.07 483.55 16.22 483.15 16.36 482.75 16.49 482.34 16.61 481.93 16.72 481.51 16.82 481.09 16.91 480.67 17 480.24 17.07 479.81 17.13 479.38 17.18 478.94 17.21 478.5 17.24 478.06 17.26 477.61 17.27 477.61 35.32 495.27 35.32 495.27 17.66 512.93 17.66 512.93 0 494.87 0"></polygon><polygon class="cls-3" points="816.21 17.27 816.21 17.27 815.76 17.26 815.32 17.24 814.88 17.21 814.44 17.18 814.01 17.13 813.58 17.07 813.15 17 812.73 16.91 812.31 16.82 811.89 16.72 811.48 16.61 811.07 16.49 810.67 16.36 810.27 16.22 809.88 16.07 809.49 15.91 809.1 15.74 808.72 15.56 808.35 15.38 807.98 15.18 807.61 14.98 807.25 14.77 806.9 14.55 806.55 14.32 806.21 14.08 805.88 13.84 805.55 13.58 805.23 13.32 804.91 13.06 804.6 12.78 804.3 12.5 804 12.21 803.71 11.91 803.43 11.61 803.15 11.3 802.88 10.98 802.63 10.66 802.37 10.33 802.13 10 801.89 9.65 801.66 9.31 801.44 8.95 801.23 8.6 801.03 8.23 800.83 7.86 800.65 7.49 800.47 7.11 800.3 6.72 800.14 6.33 799.99 5.94 799.85 5.54 799.72 5.14 799.6 4.73 799.49 4.32 799.39 3.9 799.29 3.48 799.21 3.06 799.14 2.63 799.08 2.2 799.03 1.77 798.99 1.33 798.97 0.89 798.95 0.45 798.94 0 780.88 0 780.88 17.66 798.54 17.66 798.54 35.32 816.21 35.32 816.21 17.27"></polygon><polygon class="cls-3" points="798.94 264.8 798.95 264.35 798.97 263.91 798.99 263.47 799.03 263.03 799.08 262.6 799.14 262.17 799.21 261.74 799.29 261.32 799.39 260.9 799.49 260.49 799.6 260.07 799.72 259.67 799.85 259.26 799.99 258.86 800.14 258.47 800.3 258.08 800.47 257.69 800.65 257.31 800.83 256.94 801.03 256.57 801.23 256.21 801.44 255.85 801.66 255.5 801.89 255.15 802.13 254.81 802.37 254.47 802.63 254.14 802.88 253.82 803.15 253.5 803.43 253.19 803.71 252.89 804 252.59 804.3 252.3 804.6 252.02 804.91 251.75 805.23 251.48 805.55 251.22 805.88 250.97 806.21 250.72 806.55 250.49 806.9 250.26 807.25 250.04 807.61 249.82 807.98 249.62 808.35 249.43 808.72 249.24 809.1 249.06 809.49 248.89 809.88 248.74 810.27 248.59 810.67 248.44 811.07 248.31 811.48 248.19 811.89 248.08 812.31 247.98 812.73 247.89 813.15 247.81 813.58 247.74 814.01 247.68 814.44 247.63 814.88 247.59 815.32 247.56 815.76 247.54 816.21 247.54 816.21 229.48 798.54 229.48 798.54 247.14 780.88 247.14 780.88 264.8 798.94 264.8"></polygon><polygon class="cls-3" points="477.61 247.54 478.06 247.54 478.5 247.56 478.94 247.59 479.38 247.63 479.81 247.68 480.24 247.74 480.67 247.81 481.09 247.89 481.51 247.98 481.93 248.08 482.34 248.19 482.75 248.31 483.15 248.44 483.55 248.59 483.94 248.74 484.33 248.89 484.72 249.06 485.1 249.24 485.47 249.43 485.84 249.62 486.2 249.82 486.56 250.04 486.92 250.26 487.26 250.49 487.6 250.72 487.94 250.97 488.27 251.22 488.59 251.48 488.91 251.75 489.22 252.02 489.52 252.3 489.82 252.59 490.11 252.89 490.39 253.19 490.67 253.5 490.93 253.82 491.19 254.14 491.44 254.47 491.69 254.81 491.93 255.15 492.15 255.5 492.38 255.85 492.59 256.21 492.79 256.57 492.99 256.94 493.17 257.31 493.35 257.69 493.52 258.08 493.68 258.47 493.83 258.86 493.97 259.26 494.1 259.67 494.22 260.07 494.33 260.49 494.43 260.9 494.52 261.32 494.6 261.74 494.68 262.17 494.74 262.6 494.79 263.03 494.82 263.47 494.85 263.91 494.87 264.35 494.87 264.8 512.93 264.8 512.93 247.14 495.27 247.14 495.27 229.48 477.61 229.48 477.61 247.54"></polygon><path class="cls-4" d="M791.65,24.56V240.24H502.17V24.56H791.65m6.9-6.9H495.27V247.14H798.55V17.66Z"></path><path class="cls-5" d="M540.89,60.48h39.28V74H555.74V100.3H574.9v13.49H555.74V155H540.89Z"></path><path class="cls-5" d="M587.32,60.48h14.85V155H587.32Z"></path><path class="cls-5" d="M613.24,60.48h18.63L646.31,117h.27V60.48h13.23V155H644.55L626.74,86h-.27v69H613.24Z"></path><path class="cls-5" d="M682.35,60.48h20.11L717.85,155H703l-2.7-18.76v.27H683.43L680.73,155H667Zm16.2,63.17-6.62-46.71h-.27l-6.48,46.71Z"></path><path class="cls-5" d="M725,60.48h14.85v81h24.43V155H725Z"></path><path class="cls-6" d="M535.89,55.48h39.28V69H550.74V95.3H569.9v13.49H550.74V150H535.89Z"></path><path class="cls-6" d="M582.32,55.48h14.85V150H582.32Z"></path><path class="cls-6" d="M608.24,55.48h18.63L641.31,112h.27V55.48h13.23V150H639.55L621.74,81h-.27v69H608.24Z"></path><path class="cls-6" d="M677.35,55.48h20.11L712.85,150H698l-2.7-18.76v.27H678.43L675.73,150H662Zm16.2,63.17-6.62-46.71h-.27l-6.48,46.71Z"></path><path class="cls-6" d="M720,55.48h14.85v81h24.43V150H720Z"></path><path class="cls-5" d="M541,171.46h9.88c6.47,0,9.65,3.58,9.65,10.17v20.82c0,6.59-3.18,10.18-9.65,10.18H541Zm9.77,35.29c2,0,3.29-1.06,3.29-4V181.34c0-2.94-1.24-4-3.29-4h-3.3v29.41Z"></path><path class="cls-5" d="M564.87,171.46h17.65v5.88H571.34v10.88h8.89v5.88h-8.89v12.65h11.18v5.88H564.87Z"></path><path class="cls-5" d="M585.11,202.87v-2.36h6.12v2.83c0,2.94,1.29,4,3.35,4s3.35-1.06,3.35-4.12c0-3.41-1.29-5.59-5.53-9.29-5.41-4.77-7.17-8.12-7.17-12.83,0-6.47,3.35-10.23,9.64-10.23s9.42,3.76,9.42,10.35v1.71h-6.12v-2.12c0-2.94-1.18-4.06-3.24-4.06s-3.23,1.12-3.23,3.94c0,3,1.35,5.18,5.59,8.88,5.41,4.77,7.11,8.06,7.11,13.18,0,6.7-3.41,10.47-9.76,10.47S585.11,209.45,585.11,202.87Z"></path><path class="cls-5" d="M613.17,177.34H606.4v-5.88h20v5.88h-6.76v35.29h-6.47Z"></path><path class="cls-5" d="M629.52,171.46H636v41.17h-6.47Z"></path><path class="cls-5" d="M640.82,171.46h8.11l6.3,24.64h.11V171.46h5.77v41.17h-6.65l-7.76-30.06h-.12v30.06h-5.76Z"></path><path class="cls-5" d="M670.93,171.46h8.77l6.7,41.17h-6.47l-1.17-8.18v.12H671.4l-1.17,8.06h-6ZM678,199l-2.88-20.35H675L672.17,199Z"></path><path class="cls-5" d="M694.58,177.34h-6.76v-5.88h20v5.88h-6.76v35.29h-6.47Z"></path><path class="cls-5" d="M710.93,171.46h6.47v41.17h-6.47Z"></path><path class="cls-5" d="M721.76,202.87V181.22c0-6.59,3.47-10.35,9.82-10.35s9.82,3.76,9.82,10.35v21.65c0,6.58-3.47,10.35-9.82,10.35S721.76,209.45,721.76,202.87Zm13.17.41V180.81c0-2.94-1.29-4.06-3.35-4.06s-3.35,1.12-3.35,4.06v22.47c0,2.94,1.29,4.06,3.35,4.06S734.93,206.22,734.93,203.28Z"></path><path class="cls-5" d="M745.76,171.46h8.12l6.29,24.64h.12V171.46h5.76v41.17H759.4l-7.76-30.06h-.12v30.06h-5.76Z"></path><path class="cls-6" d="M536,166.46h9.88c6.47,0,9.65,3.58,9.65,10.17v20.82c0,6.59-3.18,10.18-9.65,10.18H536Zm9.77,35.29c2,0,3.29-1.06,3.29-4V176.34c0-2.94-1.24-4-3.29-4h-3.3v29.41Z"></path><path class="cls-6" d="M559.87,166.46h17.65v5.88H566.34v10.88h8.89v5.88h-8.89v12.65h11.18v5.88H559.87Z"></path><path class="cls-6" d="M580.11,197.87v-2.36h6.12v2.83c0,2.94,1.29,4,3.35,4s3.35-1.06,3.35-4.12c0-3.41-1.29-5.59-5.53-9.29-5.41-4.77-7.17-8.12-7.17-12.83,0-6.47,3.35-10.23,9.64-10.23s9.42,3.76,9.42,10.35v1.71h-6.12v-2.12c0-2.94-1.18-4.06-3.24-4.06s-3.23,1.12-3.23,3.94c0,3,1.35,5.18,5.59,8.88,5.41,4.77,7.11,8.06,7.11,13.18,0,6.7-3.41,10.47-9.76,10.47S580.11,204.45,580.11,197.87Z"></path><path class="cls-6" d="M608.17,172.34H601.4v-5.88h20v5.88h-6.76v35.29h-6.47Z"></path><path class="cls-6" d="M624.52,166.46H631v41.17h-6.47Z"></path><path class="cls-6" d="M635.82,166.46h8.11l6.3,24.64h.11V166.46h5.77v41.17h-6.65l-7.76-30.06h-.12v30.06h-5.76Z"></path><path class="cls-6" d="M665.93,166.46h8.77l6.7,41.17h-6.47l-1.17-8.18v.12H666.4l-1.17,8.06h-6ZM673,194l-2.88-20.35H670L667.17,194Z"></path><path class="cls-6" d="M689.58,172.34h-6.76v-5.88h20v5.88h-6.76v35.29h-6.47Z"></path><path class="cls-6" d="M705.93,166.46h6.47v41.17h-6.47Z"></path><path class="cls-6" d="M716.76,197.87V176.22c0-6.59,3.47-10.35,9.82-10.35s9.82,3.76,9.82,10.35v21.65c0,6.58-3.47,10.35-9.82,10.35S716.76,204.45,716.76,197.87Zm13.17.41V175.81c0-2.94-1.29-4.06-3.35-4.06s-3.35,1.12-3.35,4.06v22.47c0,2.94,1.29,4.06,3.35,4.06S729.93,201.22,729.93,198.28Z"></path><path class="cls-6" d="M740.76,166.46h8.12l6.29,24.64h.12V166.46h5.76v41.17H754.4l-7.76-30.06h-.12v30.06h-5.76Z"></path></g></g></svg> 