<?xml version="1.0" encoding="UTF-8"?> <svg xmlns="http://www.w3.org/2000/svg" xmlns:xlink="http://www.w3.org/1999/xlink" viewBox="0 0 523.53 518.81"><defs><style>.cls-1,.cls-2,.cls-3,.cls-5,.cls-6{fill-rule:evenodd;}.cls-1{fill:url(#linear-gradient);}.cls-10,.cls-12,.cls-2,.cls-9{fill:#fff;}.cls-15,.cls-16,.cls-17,.cls-2,.cls-8,.cls-9{stroke:#659a97;stroke-linejoin:round;}.cls-15,.cls-16,.cls-17,.cls-2{stroke-linecap:round;}.cls-2{stroke-width:4px;}.cls-3{fill:url(#linear-gradient-2);}.cls-4,.cls-5,.cls-6{fill:#679a96;}.cls-6{opacity:0.1;}.cls-7{fill:#99c0bd;}.cls-14,.cls-8{fill:#98c0bd;}.cls-17,.cls-8,.cls-9{stroke-width:3px;}.cls-11{fill:#f3f3f3;}.cls-12{stroke:#98c0bd;stroke-width:4.34px;}.cls-12,.cls-13{stroke-miterlimit:10;}.cls-13,.cls-15,.cls-16,.cls-17{fill:none;}.cls-13{stroke:#dee7e7;stroke-width:3.5px;}.cls-15{stroke-width:3.28px;}.cls-16{stroke-width:2.1px;}.cls-18{fill:#eef3f3;}</style><linearGradient id="linear-gradient" x1="24231.63" y1="434.05" x2="24499.52" y2="434.05" gradientTransform="translate(-316.05 24501.52) rotate(-90)" gradientUnits="userSpaceOnUse"><stop offset="0" stop-color="#ddb893"></stop><stop offset="0.55" stop-color="#d6b18b"></stop><stop offset="1" stop-color="#b5926c"></stop></linearGradient><linearGradient id="linear-gradient-2" x1="24432.55" y1="550.05" x2="24432.55" y2="318.05" xlink:href="#linear-gradient"></linearGradient><symbol id="Parcel_isometric" data-name="Parcel_isometric" viewBox="0 0 236 271.89"><polygon class="cls-1" points="2 68.97 2 202.92 118 269.89 234 202.92 234 68.97 118 2 2 68.97"></polygon><polygon class="cls-2" points="2 68.97 2 202.92 118 269.89 118 135.94 2 68.97"></polygon><polygon class="cls-2" points="118 269.89 234 202.92 234 68.97 118 135.94 118 269.89"></polygon><polygon class="cls-3" points="2 68.97 118 135.94 234 68.97 118 2 2 68.97"></polygon><polygon class="cls-2" points="2 68.97 118 135.94 234 68.97 118 2 2 68.97"></polygon><polygon class="cls-4" points="182.43 39.2 66.43 106.17 53.57 98.75 169.57 31.77 182.43 39.2"></polygon><polygon class="cls-5" points="53.57 119.93 66.43 127.35 66.43 106.17 53.57 98.75 53.57 119.93"></polygon><polygon class="cls-6" points="2 68.97 2 202.92 118 269.89 19.23 192.73 2 68.97"></polygon><polygon class="cls-6" points="234 68.97 234 202.92 118 269.89 216.77 192.73 234 68.97"></polygon><path class="cls-7" d="M125.89,246.22a30.4,30.4,0,0,1,2.85-5.1,51.41,51.41,0,0,1,7.47-8.67,29.77,29.77,0,0,1,4.63-3.56A29.3,29.3,0,0,1,138,234a51,51,0,0,1-7.48,8.67A29.91,29.91,0,0,1,125.89,246.22Z"></path><path class="cls-7" d="M136,245.38a29.71,29.71,0,0,1,2.85-5.1,50.39,50.39,0,0,1,7.47-8.67,29.3,29.3,0,0,1,4.63-3.56,29.05,29.05,0,0,1-2.85,5.1,46.73,46.73,0,0,1-3.49,4.54,51.68,51.68,0,0,1-4,4.13A30.39,30.39,0,0,1,136,245.38Z"></path><polygon class="cls-6" points="118 269.89 234 202.92 234 68.97 118 135.94 118 269.89"></polygon></symbol><symbol id="TaxTag" data-name="TaxTag" viewBox="0 0 183.87 71.34"><path class="cls-8" d="M182.37,69.84h-147a9.24,9.24,0,0,1-6.56-2.74L4.16,42.15a9.22,9.22,0,0,1,0-13L28.77,4.25A9.21,9.21,0,0,1,35.33,1.5h147Z"></path><circle class="cls-9" cx="21.31" cy="35.67" r="7.52"></circle></symbol><symbol id="TaxTag_Left" data-name="TaxTag_Left" viewBox="0 0 183.87 85.92"><use width="183.87" height="71.34" transform="translate(0 2.2)" xlink:href="#TaxTag"></use><path class="cls-10" d="M148.8,62.83H140V20.74H125.71V13.32h37.4v7.42H148.8Z"></path><path class="cls-10" d="M126.93,62.83H118l-3.86-13.4H97.48l-3.86,13.4H84.38l16.13-49.51H110.8ZM110.35,36.49c-1.59-5.23-3-10.83-4.39-16.35h-.31c-1.43,5.45-2.87,11.12-4.46,16.35l-1.74,6h12.64Z"></path><path class="cls-10" d="M83.55,62.83H74.24L68.33,51.17C67.12,48.6,66,46.1,64.7,43.07h-.3c-1.52,3-2.73,5.53-4,8.1L54.33,62.83H44.56L58.64,37.7,45.47,13.32h9.31L60,24.3c1.13,2.27,2.12,4.62,3.33,7.57h.3c1.51-2.95,2.57-5.3,3.79-7.57l5.45-11h9.76l-13.17,24Z"></path></symbol><symbol id="TaxTag_Right" data-name="TaxTag_Right" viewBox="0 0 183.87 85.92"><path class="cls-10" d="M59.86,20.74H45.55V13.32H82.94v7.42H68.64V62.83H59.86Z"></path><path class="cls-10" d="M97.86,13.32h10.29l16.13,49.51H115l-3.86-13.4H94.53l-3.86,13.4H81.73ZM96.57,42.54h12.64l-1.74-6c-1.59-5.23-3-10.9-4.47-16.35h-.3c-1.36,5.52-2.8,11.12-4.39,16.35Z"></path><path class="cls-10" d="M139.19,37.32,126,13.32h9.76l5.45,11c1.21,2.27,2.27,4.62,3.79,7.57h.3c1.21-2.95,2.2-5.3,3.33-7.57l5.22-11h9.31L150,37.7l14.08,25.13h-9.76l-6.06-11.66c-1.28-2.57-2.5-5.07-4-8.1H144c-1.29,3-2.42,5.53-3.64,8.1l-5.9,11.66h-9.31Z"></path><use width="183.87" height="71.34" transform="translate(0 2.2)" xlink:href="#TaxTag"></use><path class="cls-10" d="M59.86,20.74H45.55V13.32H82.94v7.42H68.64V62.83H59.86Z"></path><path class="cls-10" d="M97.86,13.32h10.29l16.13,49.51H115l-3.86-13.4H94.53l-3.86,13.4H81.73ZM96.57,42.54h12.64l-1.74-6c-1.59-5.23-3-10.9-4.47-16.35h-.3c-1.36,5.52-2.8,11.12-4.39,16.35Z"></path><path class="cls-10" d="M139.19,37.32,126,13.32h9.76l5.45,11c1.21,2.27,2.27,4.62,3.79,7.57h.3c1.21-2.95,2.2-5.3,3.33-7.57l5.22-11h9.31L150,37.7l14.08,25.13h-9.76l-6.06-11.66c-1.28-2.57-2.5-5.07-4-8.1H144c-1.29,3-2.42,5.53-3.64,8.1l-5.9,11.66h-9.31Z"></path></symbol></defs><g id="Layer_2" data-name="Layer 2"><g id="WhyWeAreTaxFree_Page" data-name="WhyWeAreTaxFree Page"><ellipse class="cls-11" cx="266.34" cy="259.4" rx="282.61" ry="233.89" transform="translate(-107.64 264.31) rotate(-45)"></ellipse><circle class="cls-12" cx="251.42" cy="256.42" r="148.69"></circle><use width="236" height="271.89" transform="translate(163.61 155.25) scale(0.74)" xlink:href="#Parcel_isometric"></use><path class="cls-13" d="M336.89,170c-5.83-7,.78-20.61,12.65-12.08s12.26,26.39,8,28.71C354.82,188.14,343.05,177.34,336.89,170Z" transform="translate(-2.22)"></path><path class="cls-13" d="M365.21,202.81c-2.48-5.14,3.44-12.17,9.29-5.07s2,12.08-.82,12.75C371.81,210.93,367.82,208.25,365.21,202.81Z" transform="translate(-2.22)"></path><use width="183.87" height="85.92" transform="matrix(-0.54, -0.21, -0.21, 0.54, 115.49, 140.99)" xlink:href="#TaxTag_Left"></use><path class="cls-14" d="M113.48,175.27a73.31,73.31,0,0,1-7.45,2.87c-2.51.85-5,1.59-7.6,2.3s-5.13,1.33-7.73,1.86a76.38,76.38,0,0,1-7.87,1.29,73.31,73.31,0,0,1,7.45-2.87c2.51-.85,5-1.59,7.6-2.3s5.13-1.32,7.72-1.85A76.59,76.59,0,0,1,113.48,175.27Z" transform="translate(-2.22)"></path><path class="cls-14" d="M119.87,157.6a25.4,25.4,0,0,1-1.53-4.33,43.92,43.92,0,0,1-1.46-8.91,25.22,25.22,0,0,1,.08-4.59,25.4,25.4,0,0,1,1.53,4.33,39.57,39.57,0,0,1,1,4.42A41.94,41.94,0,0,1,120,153,25.22,25.22,0,0,1,119.87,157.6Z" transform="translate(-2.22)"></path><path class="cls-15" d="M99.14,158c8.44-1.13,15.76.7,18.46,6.48" transform="translate(-2.22)"></path><use width="183.87" height="85.92" transform="matrix(-0.37, 0.17, 0.17, 0.37, 76.27, 278.66)" xlink:href="#TaxTag_Left"></use><path class="cls-14" d="M99.21,298.07A74.59,74.59,0,0,1,96,305.39c-1.15,2.39-2.41,4.71-3.69,7s-2.66,4.58-4.1,6.8a77,77,0,0,1-4.62,6.52,74.59,74.59,0,0,1,3.19-7.32c1.15-2.39,2.42-4.72,3.7-7s2.66-4.58,4.1-6.8A79.17,79.17,0,0,1,99.21,298.07Z" transform="translate(-2.22)"></path><path class="cls-14" d="M91.11,281.11A25.83,25.83,0,0,1,87,279.17,43.86,43.86,0,0,1,79.59,274a24.92,24.92,0,0,1-3.21-3.28,25,25,0,0,1,4.15,1.94,43.86,43.86,0,0,1,7.37,5.22A25.55,25.55,0,0,1,91.11,281.11Z" transform="translate(-2.22)"></path><path class="cls-16" d="M76.87,296.18c5.12-6.81,11.57-10.74,17.57-8.6" transform="translate(-2.22)"></path><use width="183.87" height="85.92" transform="matrix(-0.37, 0.37, 0.37, 0.37, 148.36, 386.46)" xlink:href="#TaxTag_Left"></use><path class="cls-14" d="M172.67,397.51a44.78,44.78,0,0,1,3.19,5.18c1,1.76,1.83,3.57,2.65,5.41s1.57,3.7,2.23,5.6a44,44,0,0,1,1.7,5.84,42.18,42.18,0,0,1-3.19-5.18c-1-1.77-1.84-3.58-2.65-5.41s-1.57-3.7-2.23-5.6A44,44,0,0,1,172.67,397.51Z" transform="translate(-2.22)"></path><path class="cls-14" d="M159.71,388.4A75.84,75.84,0,0,1,152.2,391c-2.53.77-5.08,1.42-7.64,2s-5.15,1.15-7.76,1.6a76.45,76.45,0,0,1-7.88,1,75.91,75.91,0,0,1,7.51-2.62c2.53-.77,5.08-1.41,7.64-2s5.15-1.15,7.76-1.59A76.45,76.45,0,0,1,159.71,388.4Z" transform="translate(-2.22)"></path><path class="cls-16" d="M156.83,408.52c3.49-7.79,9.91-9,8.59-15.7" transform="translate(-2.22)"></path><use width="183.87" height="85.92" transform="translate(405.01 321.54) rotate(9.68) scale(0.44)" xlink:href="#TaxTag_Right"></use><path class="cls-14" d="M396.37,325.68a75.2,75.2,0,0,1,7.27-3.31c2.45-1,4.95-1.89,7.45-2.76s5-1.63,7.6-2.31a74.36,74.36,0,0,1,7.78-1.76,77.53,77.53,0,0,1-7.26,3.31c-2.46,1-4.95,1.89-7.45,2.75s-5,1.63-7.6,2.32S399,325.24,396.37,325.68Z" transform="translate(-2.22)"></path><path class="cls-14" d="M393.05,341.35a26.7,26.7,0,0,1,1.79,4.22,44.63,44.63,0,0,1,1.22,4.35,41.55,41.55,0,0,1,.77,4.46A25.77,25.77,0,0,1,397,359a25,25,0,0,1-1.8-4.22,44.63,44.63,0,0,1-1.22-4.35,41.52,41.52,0,0,1-.76-4.46A24,24,0,0,1,393.05,341.35Z" transform="translate(-2.22)"></path><path class="cls-16" d="M413.71,339.67c-8.35,1.63-15.77.24-18.82-5.36" transform="translate(-2.22)"></path><use width="183.87" height="85.92" transform="matrix(0.4, 0.3, -0.3, 0.4, 313.73, 404.86)" xlink:href="#TaxTag_Right"></use><path class="cls-14" d="M309.28,407.42c2.85-.13,5.69-.06,8.51.09s5.64.38,8.45.66,5.61.66,8.41,1.12,5.57,1,8.34,1.7c-2.86.14-5.69.07-8.52-.07s-5.64-.39-8.45-.67-5.61-.66-8.4-1.12S312,408.15,309.28,407.42Z" transform="translate(-2.22)"></path><path class="cls-14" d="M292.36,417.11a46.17,46.17,0,0,1-.43,6.24c-.24,2.06-.59,4.09-1,6.12s-.89,4-1.46,6a46,46,0,0,1-2,5.92,46.17,46.17,0,0,1,.43-6.24c.24-2.06.59-4.1,1-6.12s.88-4,1.45-6A48,48,0,0,1,292.36,417.11Z" transform="translate(-2.22)"></path><path class="cls-16" d="M312.63,425.52c-3.05-8-10.78-6.92-11.54-13.25" transform="translate(-2.22)"></path><use width="183.87" height="85.92" transform="translate(408.58 187.62) rotate(-24.92) scale(0.53)" xlink:href="#TaxTag_Right"></use><path class="cls-14" d="M404.2,201.56a75.64,75.64,0,0,1,3-7.39c1.09-2.42,2.29-4.78,3.51-7.13s2.54-4.65,3.92-6.91a77.49,77.49,0,0,1,4.45-6.63,78.4,78.4,0,0,1-3,7.4c-1.09,2.42-2.29,4.78-3.52,7.12s-2.53,4.65-3.92,6.91A76.58,76.58,0,0,1,404.2,201.56Z" transform="translate(-2.22)"></path><path class="cls-14" d="M412.74,218.31a26.39,26.39,0,0,1,4.2,1.83,43.38,43.38,0,0,1,3.89,2.32,42.63,42.63,0,0,1,3.62,2.71,24.73,24.73,0,0,1,3.29,3.19,24.69,24.69,0,0,1-4.2-1.83,41.85,41.85,0,0,1-3.88-2.32A39.66,39.66,0,0,1,416,221.5,25.44,25.44,0,0,1,412.74,218.31Z" transform="translate(-2.22)"></path><path class="cls-17" d="M429.43,200.67c-4.95,6.93-14.13,13.24-20.19,11.26" transform="translate(-2.22)"></path><use width="183.87" height="85.92" transform="matrix(-0.36, -0.33, -0.33, 0.36, 226.27, 76.49)" xlink:href="#TaxTag_Left"></use><path class="cls-14" d="M206,105.49a68.18,68.18,0,0,1-7.4-1.79c-2.43-.7-4.82-1.51-7.2-2.34s-4.73-1.77-7-2.78a68.64,68.64,0,0,1-6.85-3.33,68.18,68.18,0,0,1,7.4,1.79c2.43.7,4.82,1.51,7.2,2.34s4.73,1.77,7,2.79A66.44,66.44,0,0,1,206,105.49Z" transform="translate(-2.22)"></path><path class="cls-14" d="M223.15,97.76a26.17,26.17,0,0,1,2-4.11,45.39,45.39,0,0,1,5.38-7.25,25,25,0,0,1,3.35-3.14,25,25,0,0,1-2,4.11,39.55,39.55,0,0,1-2.5,3.76,41.67,41.67,0,0,1-2.88,3.49A25.56,25.56,0,0,1,223.15,97.76Z" transform="translate(-2.22)"></path><path class="cls-16" d="M208.39,83.19c6.7,5.27,10.48,11.8,8.22,17.76" transform="translate(-2.22)"></path><use width="183.87" height="85.92" transform="translate(317.68 89.41) rotate(-50.43) scale(0.47)" xlink:href="#TaxTag_Right"></use><path class="cls-14" d="M326.08,107.09a45,45,0,0,1-3.44-5c-1.06-1.72-2-3.48-2.93-5.27s-1.75-3.62-2.51-5.48a44.32,44.32,0,0,1-2-5.75,43.76,43.76,0,0,1,3.45,5c1.06,1.72,2,3.48,2.92,5.27s1.76,3.62,2.51,5.49A44.18,44.18,0,0,1,326.08,107.09Z" transform="translate(-2.22)"></path><path class="cls-14" d="M336.13,114a50.87,50.87,0,0,1,6.06-2.79c2.05-.83,4.13-1.55,6.23-2.24s4.22-1.28,6.37-1.79a52.58,52.58,0,0,1,6.55-1.24,53.22,53.22,0,0,1-6,2.8c-2.05.83-4.14,1.54-6.23,2.23s-4.23,1.28-6.38,1.79A54.1,54.1,0,0,1,336.13,114Z" transform="translate(-2.22)"></path><path class="cls-16" d="M339.35,93.12c-5.07,7.6-2.12,13.09-5.79,18.29" transform="translate(-2.22)"></path><path class="cls-18" d="M253.65,402.93a145.84,145.84,0,0,0,92.54-33,149.89,149.89,0,0,1-66.62,15.53c-83.18,0-150.85-67.67-150.85-150.85a150,150,0,0,1,29.05-88.89,146.25,146.25,0,0,0-50.64,110.71C107.13,337.21,172.86,402.93,253.65,402.93Z" transform="translate(-2.22)"></path></g></g></svg> 