<svg xmlns="http://www.w3.org/2000/svg" viewBox="0 0 491.11 500.28"><defs><style>.cls-1{fill:#deb893;}</style></defs><g id="Layer_2" data-name="Layer 2"><g id="Layer_5" data-name="Layer 5"><path class="cls-1" d="M88.74,395.62a12.19,12.19,0,0,1,12.31,12.31v21.43a12.19,12.19,0,0,1-12.31,12.31H70.27A6,6,0,0,0,66,443.46a5.84,5.84,0,0,0-1.85,4.37v46.42c0,1.64.39,2.69,1.17,3.14a13.63,13.63,0,0,1,1.91,1.29,2.32,2.32,0,0,1,.74,1,2.09,2.09,0,0,1,.12.61H47.86a2.09,2.09,0,0,1,.12-.61,2.24,2.24,0,0,1,.74-1,13.63,13.63,0,0,1,1.91-1.29c.78-.45,1.17-1.5,1.17-3.14V441.67a4.44,4.44,0,0,0-.62-2.28,14.18,14.18,0,0,0-1.35-1.91,14.47,14.47,0,0,0-2-1.84,14.53,14.53,0,0,0,2-1.85,13,13,0,0,0,1.35-1.91,4.44,4.44,0,0,0,.62-2.28v-28c0-1.64-.39-2.69-1.17-3.14s-1.42-.84-1.91-1.17a2.2,2.2,0,0,1-.74-1.11,2.09,2.09,0,0,1-.12-.61Zm0,18.47a6.32,6.32,0,0,0-6.16-6.16H70.27a6.32,6.32,0,0,0-6.16,6.16v9.11a6.32,6.32,0,0,0,6.16,6.16H82.58a6.32,6.32,0,0,0,6.16-6.16Z"/><path class="cls-1" d="M153.51,440.44a7.9,7.9,0,0,0-3.32,2.89,5,5,0,0,0-.37,4.25l6.89,48.27a2.78,2.78,0,0,0,1.3,1.85,11,11,0,0,1,1.53,1,6.72,6.72,0,0,1,.62,1,3.32,3.32,0,0,0,.25.61H140.09a4.31,4.31,0,0,0,.24-.61,2.32,2.32,0,0,1,.74-1l.87-.55a7.64,7.64,0,0,0,1-.74,3.7,3.7,0,0,0,.86-1.17,4.38,4.38,0,0,0,.37-2l-6.4-44.08-.74-2.59a10.83,10.83,0,0,0-2.28-4.19,5.92,5.92,0,0,0-4.62-1.72h-.49a6,6,0,0,0-4.31,1.79,5.84,5.84,0,0,0-1.85,4.37v46.42c0,1.64.39,2.69,1.17,3.14a13.63,13.63,0,0,1,1.91,1.29,2.24,2.24,0,0,1,.74,1,2.09,2.09,0,0,1,.12.61H107.21a2.09,2.09,0,0,1,.12-.61,2.32,2.32,0,0,1,.74-1,13.63,13.63,0,0,1,1.91-1.29c.78-.45,1.17-1.5,1.17-3.14v-92.6c0-1.64-.39-2.69-1.17-3.14s-1.42-.84-1.91-1.17a2.27,2.27,0,0,1-.74-1.11,2.09,2.09,0,0,1-.12-.61h40.88a12.19,12.19,0,0,1,12.32,12.31v21.43a11.78,11.78,0,0,1-1.91,6.52A13.09,13.09,0,0,1,153.51,440.44Zm-11.57-11.08a6.31,6.31,0,0,0,6.15-6.16v-9.11a6.31,6.31,0,0,0-6.15-6.16H129.62a6.32,6.32,0,0,0-6.16,6.16v9.11a6.32,6.32,0,0,0,6.16,6.16Z"/><path class="cls-1" d="M219.76,488a12.19,12.19,0,0,1-12.31,12.31H182.82A12.19,12.19,0,0,1,170.5,488v-80a12.19,12.19,0,0,1,12.32-12.31h24.63a12.19,12.19,0,0,1,12.31,12.31Zm-12.31-73.88a6.32,6.32,0,0,0-6.16-6.16H189a6.31,6.31,0,0,0-6.15,6.16v67.72A6.31,6.31,0,0,0,189,488h12.32a6.32,6.32,0,0,0,6.16-6.16Z"/><path class="cls-1" d="M275.54,399.19a11.88,11.88,0,0,1,3.57,8.74v12.44c0,1-.53,1.47-1.6,1.47H262.86a2,2,0,0,1,.12-.61,2.24,2.24,0,0,1,.74-1,13.63,13.63,0,0,1,1.91-1.29c.78-.45,1.17-1.46,1.17-3v-1.84a6.32,6.32,0,0,0-6.16-6.16H248.33a6.32,6.32,0,0,0-6.16,6.16v67.72a6.32,6.32,0,0,0,6.16,6.16h12.31a6.32,6.32,0,0,0,6.16-6.16V448.07a6.31,6.31,0,0,0-6.16-6.15h-.74a3.5,3.5,0,0,0-2.77,1.35A16.46,16.46,0,0,1,256,445a2.12,2.12,0,0,1-1.11.74,1.81,1.81,0,0,1-.61.13V431.2a1.42,1.42,0,0,1,1.6-1.6h11a12.19,12.19,0,0,1,12.31,12.32V488a12.19,12.19,0,0,1-12.31,12.31H242.17A12.19,12.19,0,0,1,229.86,488v-80a12.19,12.19,0,0,1,12.31-12.31H266.8A11.88,11.88,0,0,1,275.54,399.19Z"/><path class="cls-1" d="M331.57,440.44a7.9,7.9,0,0,0-3.32,2.89,5,5,0,0,0-.37,4.25l6.89,48.27a2.8,2.8,0,0,0,1.29,1.85,10.61,10.61,0,0,1,1.54,1,6.72,6.72,0,0,1,.62,1,3.32,3.32,0,0,0,.25.61H318.15a4.31,4.31,0,0,0,.24-.61,2.32,2.32,0,0,1,.74-1l.86-.55a7.07,7.07,0,0,0,1-.74,3.7,3.7,0,0,0,.86-1.17,4.38,4.38,0,0,0,.37-2l-6.4-44.08-.74-2.59a10.83,10.83,0,0,0-2.28-4.19,5.92,5.92,0,0,0-4.62-1.72h-.49a6,6,0,0,0-4.31,1.79,5.84,5.84,0,0,0-1.85,4.37v46.42c0,1.64.39,2.69,1.17,3.14a13.63,13.63,0,0,1,1.91,1.29,2.24,2.24,0,0,1,.74,1,2.09,2.09,0,0,1,.12.61H285.27a2.09,2.09,0,0,1,.12-.61,2.32,2.32,0,0,1,.74-1,13.63,13.63,0,0,1,1.91-1.29c.78-.45,1.17-1.5,1.17-3.14v-92.6c0-1.64-.39-2.69-1.17-3.14s-1.42-.84-1.91-1.17a2.27,2.27,0,0,1-.74-1.11,2.09,2.09,0,0,1-.12-.61h40.88a12.21,12.21,0,0,1,12.32,12.31v21.43a11.78,11.78,0,0,1-1.91,6.52A13.09,13.09,0,0,1,331.57,440.44ZM320,429.36a6.32,6.32,0,0,0,6.16-6.16v-9.11a6.32,6.32,0,0,0-6.16-6.16H307.68a6.32,6.32,0,0,0-6.16,6.16v9.11a6.32,6.32,0,0,0,6.16,6.16Z"/><path class="cls-1" d="M386.86,498.68a11,11,0,0,0,1.48-1.54,3.29,3.29,0,0,0,.24-2.89v.12l-3.2-15-1.23-5.91-.12-.86a8,8,0,0,0-2.77-4.25,7.14,7.14,0,0,0-4.62-1.79h-3.33a7.09,7.09,0,0,0-4.61,1.79,7.94,7.94,0,0,0-2.77,4.25l-1.11,5.29-3.45,16.38c-.41,1.32-.35,2.28.18,2.89a13.94,13.94,0,0,0,1.54,1.54,2.24,2.24,0,0,1,.74,1,2.16,2.16,0,0,1,.13.61H344.62a1.85,1.85,0,0,1,.13-.61,2.3,2.3,0,0,1,.73-1c.5-.41,1-.84,1.61-1.29a6,6,0,0,0,1.47-3.14l18.1-92.6a3.29,3.29,0,0,0-.24-2.89,6.7,6.7,0,0,0-1.48-1.42,2.27,2.27,0,0,1-.74-1.11,2.09,2.09,0,0,1-.12-.61h15.39a1.4,1.4,0,0,1,.43.06,1.44,1.44,0,0,0,.43.06v-.12h5.54a2.09,2.09,0,0,1-.12.61,2.2,2.2,0,0,1-.74,1.11,6.93,6.93,0,0,0-1.48,1.42,3.29,3.29,0,0,0-.24,2.89l18.1,92.6a5.93,5.93,0,0,0,1.48,3.14c.57.45,1.11.88,1.6,1.29a2.32,2.32,0,0,1,.74,1,2.09,2.09,0,0,1,.12.61H386a2.09,2.09,0,0,1,.12-.61A2.24,2.24,0,0,1,386.86,498.68Zm-11.95-44.45a3.79,3.79,0,0,0,3.39-1.79,5.14,5.14,0,0,0,.56-4.24l-1.11-5.42-1.48-6.9q-.61-2.46-1.29-2.46c-.46,0-.89.82-1.3,2.46l-.74,3.7-1.84,8.62a5.14,5.14,0,0,0,.55,4.24A3.68,3.68,0,0,0,374.91,454.23Z"/><path class="cls-1" d="M484.14,498.68a6.72,6.72,0,0,1,.62,1,4.31,4.31,0,0,0,.24.61H464.81a2.09,2.09,0,0,1,.12-.61,2.24,2.24,0,0,1,.74-1l.86-.55a7.07,7.07,0,0,0,1-.74,4,4,0,0,0,.86-1.17,4.52,4.52,0,0,0,.37-2V430.71c0-1.64-.27-2.54-.8-2.71s-1.17.54-1.91,2.09L450.89,461.5q-1.11,2.34-2.64,2.34c-1,0-1.91-.78-2.65-2.34l-15.15-31.41c-.74-1.55-1.37-2.25-1.91-2.09s-.8,1.07-.8,2.71v63.54c0,1.64.39,2.69,1.17,3.14a13.63,13.63,0,0,1,1.91,1.29,2.32,2.32,0,0,1,.74,1,2.09,2.09,0,0,1,.12.61H411.49a2.09,2.09,0,0,1,.12-.61,2.24,2.24,0,0,1,.74-1,13.63,13.63,0,0,1,1.91-1.29c.78-.45,1.17-1.5,1.17-3.14v-92.6c0-1.64-.39-2.69-1.17-3.14s-1.42-.84-1.91-1.17a2.2,2.2,0,0,1-.74-1.11,2.09,2.09,0,0,1-.12-.61h10.09a9.76,9.76,0,0,1,5.18,1.6,9.37,9.37,0,0,1,3.69,3.94l15.15,31.4c.74,1.56,1.62,2.34,2.65,2.34s1.9-.78,2.64-2.34L466,401.16a9.37,9.37,0,0,1,3.69-3.94,9.76,9.76,0,0,1,5.18-1.6H485a4.31,4.31,0,0,0-.24.61,2.89,2.89,0,0,1-.62,1.11c-.49.33-1.13.72-1.91,1.17s-1.17,1.5-1.17,3.14v92.6c0,1.64.39,2.69,1.17,3.14A13.63,13.63,0,0,1,484.14,498.68Z"/><path class="cls-1" d="M89,260.07a7,7,0,0,0-6.85-6.85H68.41a6.5,6.5,0,0,0-4.86,2.05,6.67,6.67,0,0,0-2,4.8v4a17.71,17.71,0,0,0,1.24,6.1,19.12,19.12,0,0,0,3,5.55,4,4,0,0,0,2.12,1.3,18.16,18.16,0,0,0,2.4.48,25.14,25.14,0,0,0,2.74.14,11.62,11.62,0,0,0-.41,3,15.89,15.89,0,0,0,.21,2.53,4.73,4.73,0,0,0,1.16,2.4l24.26,28.37a19.85,19.85,0,0,1,3.08,5.69,18.38,18.38,0,0,1,1.31,6.37v23.16a6.53,6.53,0,0,1-2.06,4.87,6.7,6.7,0,0,1-4.8,2H54.71a6.76,6.76,0,0,1-6.85-6.85V330.37a1.84,1.84,0,0,1,.48-1.23,1.5,1.5,0,0,1,1.16-.55H66a2.33,2.33,0,0,1-.14.69,2.43,2.43,0,0,1-.82,1.23c-.55.37-1.26.8-2.13,1.3s-1.3,1.67-1.3,3.5v.14a6.8,6.8,0,0,0,6.85,6.85H82.12a6.67,6.67,0,0,0,4.8-2,6.5,6.5,0,0,0,2-4.86v-4.39a18.35,18.35,0,0,0-1.3-6.37A20.34,20.34,0,0,0,84.59,319L62.38,293a5.51,5.51,0,0,0-2.19-1.37c-.82-.27-1.64-.5-2.47-.69a11.27,11.27,0,0,0-3-.13,14.9,14.9,0,0,0,.27-2.88,18.48,18.48,0,0,0-.2-2.6,5.37,5.37,0,0,0-1-2.47l-1.51-1.65a20,20,0,0,1-3.08-5.75,19,19,0,0,1-1.3-6.44V246.36a6.69,6.69,0,0,1,2-4.79,6.53,6.53,0,0,1,4.87-2.06H95.82a7,7,0,0,1,6.86,6.85v18.92a1.51,1.51,0,0,1-.55,1.16,1.84,1.84,0,0,1-1.24.48H84.59a2.22,2.22,0,0,1,.13-.68,2.5,2.5,0,0,1,.83-1.1,14.29,14.29,0,0,1,2.12-1.44c.87-.5,1.3-1.67,1.3-3.49Z"/><path class="cls-1" d="M166.82,256.64c-.37-.55-.81-1.25-1.31-2.12s-1.66-1.3-3.49-1.3H134.47a7,7,0,0,0-6.85,6.85v10.28a6.48,6.48,0,0,0,2,4.86,6.69,6.69,0,0,0,4.8,2h13.84c1.83,0,3-.43,3.5-1.3s.93-1.58,1.3-2.13a2.48,2.48,0,0,1,1.23-.82,2.33,2.33,0,0,1,.69-.14v22.48a2.33,2.33,0,0,1-.69-.14,2.42,2.42,0,0,1-1.23-.82c-.37-.55-.8-1.25-1.3-2.12s-1.67-1.31-3.5-1.31H134.47a7,7,0,0,0-6.85,6.86v37.69a6.5,6.5,0,0,0,2,4.86,6.69,6.69,0,0,0,4.8,2H162c1.83,0,3-.43,3.49-1.3s.94-1.58,1.31-2.13a2.43,2.43,0,0,1,1.23-.82,2.28,2.28,0,0,1,.68-.14v16.45a1.64,1.64,0,0,1-1.64,1.64H109.53a2,2,0,0,1,.14-.68,2.46,2.46,0,0,1,.82-1.1,16.72,16.72,0,0,1,2.12-1.44c.87-.5,1.3-1.66,1.3-3.49V290.77a4.89,4.89,0,0,0-.68-2.54,15.21,15.21,0,0,0-1.51-2.12,16,16,0,0,0-2.19-2.06,15.93,15.93,0,0,0,2.19-2.05,14.74,14.74,0,0,0,1.51-2.13,4.85,4.85,0,0,0,.68-2.53V246.23c0-1.83-.43-3-1.3-3.5s-1.57-.93-2.12-1.3a2.42,2.42,0,0,1-.82-1.23,2.1,2.1,0,0,1-.14-.69h57.56a1.47,1.47,0,0,1,1.16.55,1.82,1.82,0,0,1,.48,1.23V257.6a2,2,0,0,1-.68-.14A2.37,2.37,0,0,1,166.82,256.64Z"/><path class="cls-1" d="M238.22,354.22a2.54,2.54,0,0,1,.82,1.1,2.28,2.28,0,0,1,.14.68H227.8a9.37,9.37,0,0,1-5.41-1.85,9.19,9.19,0,0,1-3.63-4.59L195.6,285.15q-1.24-3.28-1.92-2.33v66.47c0,1.83.43,3,1.3,3.49a16.72,16.72,0,0,1,2.12,1.44,2.29,2.29,0,0,1,1,1.78H175.59a2.22,2.22,0,0,1,.13-.68,2.56,2.56,0,0,1,.83-1.1,16,16,0,0,1,2.12-1.44c.87-.5,1.3-1.66,1.3-3.49V290.77a5,5,0,0,0-.68-2.54,15.21,15.21,0,0,0-1.51-2.12,16,16,0,0,0-2.19-2.06,15.93,15.93,0,0,0,2.19-2.05,14.74,14.74,0,0,0,1.51-2.13,5,5,0,0,0,.68-2.53V246.23c0-1.83-.43-3-1.3-3.5s-1.58-.93-2.12-1.3a2.49,2.49,0,0,1-.83-1.23,2.33,2.33,0,0,1-.13-.69h11.23A10.52,10.52,0,0,1,195.6,246l23.16,64.42c.63,1.82,1.18,2.67,1.64,2.53s.69-1.12.69-2.95V246.23c0-1.83-.44-3-1.31-3.5s-1.57-.93-2.12-1.3a2.84,2.84,0,0,1-1-1.92h22.48a2.39,2.39,0,0,1-.14.69,2.48,2.48,0,0,1-.82,1.23c-.55.37-1.26.8-2.13,1.3s-1.3,1.67-1.3,3.5v31.11a4.86,4.86,0,0,0,.69,2.53A14.7,14.7,0,0,0,237,282a15.46,15.46,0,0,0,2.2,2.05,15.51,15.51,0,0,0-2.2,2.06,15.16,15.16,0,0,0-1.5,2.12,4.89,4.89,0,0,0-.69,2.54v58.52c0,1.83.43,3,1.3,3.49A16.91,16.91,0,0,1,238.22,354.22Z"/><path class="cls-1" d="M305.23,277.34a4.86,4.86,0,0,0,.69,2.53,14.74,14.74,0,0,0,1.51,2.13,15.37,15.37,0,0,0,2.19,2.05,15.43,15.43,0,0,0-2.19,2.06,15.21,15.21,0,0,0-1.51,2.12,4.89,4.89,0,0,0-.69,2.54V342.3a13.56,13.56,0,0,1-13.7,13.7H246a2,2,0,0,1,.14-.68,2.46,2.46,0,0,1,.82-1.1,16.72,16.72,0,0,1,2.12-1.44c.87-.5,1.3-1.66,1.3-3.49V290.77a4.89,4.89,0,0,0-.68-2.54,15.21,15.21,0,0,0-1.51-2.12,16,16,0,0,0-2.19-2.06,15.93,15.93,0,0,0,2.19-2.05,14.74,14.74,0,0,0,1.51-2.13,4.85,4.85,0,0,0,.68-2.53V246.23c0-1.83-.43-3-1.3-3.5s-1.57-.93-2.12-1.3a2.42,2.42,0,0,1-.82-1.23,2.1,2.1,0,0,1-.14-.69h45.5a13.56,13.56,0,0,1,13.7,13.71Zm-13.7-17.27a7,7,0,0,0-6.85-6.85H271a7,7,0,0,0-6.85,6.85v75.38A7,7,0,0,0,271,342.3h13.71a7,7,0,0,0,6.85-6.85Z"/><path class="cls-1" d="M392.81,354.22a2.54,2.54,0,0,1,.82,1.1,2.28,2.28,0,0,1,.14.68H371.29a2.28,2.28,0,0,1,.14-.68,2.46,2.46,0,0,1,.82-1.1,16.72,16.72,0,0,1,2.12-1.44c.87-.5,1.31-1.66,1.31-3.49V290.77a4.89,4.89,0,0,0-.69-2.54,15.21,15.21,0,0,0-1.51-2.12,16,16,0,0,0-2.19-2.06,15.93,15.93,0,0,0,2.19-2.05,14.74,14.74,0,0,0,1.51-2.13,4.86,4.86,0,0,0,.69-2.53V246.23c0-1.83-.44-3-1.31-3.5s-1.57-.93-2.12-1.3a2.84,2.84,0,0,1-1-1.92h22.48a2.39,2.39,0,0,1-.14.69,2.48,2.48,0,0,1-.82,1.23c-.55.37-1.26.8-2.13,1.3s-1.3,1.67-1.3,3.5v31.11a4.86,4.86,0,0,0,.69,2.53,14.7,14.7,0,0,0,1.5,2.13,15.46,15.46,0,0,0,2.2,2.05,15.51,15.51,0,0,0-2.2,2.06,15.16,15.16,0,0,0-1.5,2.12,4.89,4.89,0,0,0-.69,2.54v58.52c0,1.83.43,3,1.3,3.49A16.91,16.91,0,0,1,392.81,354.22Z"/><path class="cls-1" d="M455.44,241.29V257.6a2.05,2.05,0,0,1-.69-.14,2.37,2.37,0,0,1-1.23-.82c-.37-.55-.8-1.25-1.3-2.12s-1.67-1.3-3.5-1.3h-8.08a6.5,6.5,0,0,0-4.87,2.05,6.71,6.71,0,0,0-2,4.8v17.27a4.86,4.86,0,0,0,.69,2.53A14,14,0,0,0,436,282a15.37,15.37,0,0,0,2.19,2.05,15.43,15.43,0,0,0-2.19,2.06,14.42,14.42,0,0,0-1.51,2.12,4.89,4.89,0,0,0-.69,2.54v58.52a5,5,0,0,0,.41,2.19,4.85,4.85,0,0,0,.9,1.3,5.24,5.24,0,0,0,1,.82l1,.62a2.56,2.56,0,0,1,.83,1.1,4.18,4.18,0,0,0,.27.68H415.56a5.34,5.34,0,0,0,.27-.68,2.54,2.54,0,0,1,.82-1.1l1-.62a7.83,7.83,0,0,0,1.1-.82,4.35,4.35,0,0,0,1-1.3,5,5,0,0,0,.41-2.19V290.77a4.53,4.53,0,0,0-.76-2.54,19.75,19.75,0,0,0-1.57-2.12,16,16,0,0,0-2.19-2.06,15.93,15.93,0,0,0,2.19-2.05,18.94,18.94,0,0,0,1.57-2.13,4.5,4.5,0,0,0,.76-2.53V260.07a7,7,0,0,0-6.85-6.85h-5.9c-1.83,0-3,.43-3.49,1.3a15.72,15.72,0,0,1-1.44,2.12,2.46,2.46,0,0,1-1.1.82,2,2,0,0,1-.68.14V241.29a1.82,1.82,0,0,1,.48-1.23,1.47,1.47,0,0,1,1.16-.55h51.4A1.58,1.58,0,0,1,455.44,241.29Z"/><path class="cls-1" d="M481.07,239.51a1.58,1.58,0,0,1,1.78,1.78L479.42,327a1.47,1.47,0,0,1-.55,1.16,1.8,1.8,0,0,1-1.23.48H467.36a1.55,1.55,0,0,1-1.16-.48,1.53,1.53,0,0,1-.48-1.16l-3.43-85.66a1.82,1.82,0,0,1,.48-1.23,1.48,1.48,0,0,1,1.16-.55ZM477.64,342.3a1.57,1.57,0,0,1,1.78,1.78v10.28a1.47,1.47,0,0,1-.55,1.16,1.8,1.8,0,0,1-1.23.48H467.36a1.55,1.55,0,0,1-1.16-.48,1.53,1.53,0,0,1-.48-1.16V344.08a1.75,1.75,0,0,1,.48-1.23,1.45,1.45,0,0,1,1.16-.55Z"/><path class="cls-1" d="M79,160a8.1,8.1,0,0,1,3,2.89A7.85,7.85,0,0,1,83,167v30.45a8.06,8.06,0,0,1-8.14,8.14h-27a1.22,1.22,0,0,1,.08-.41,1.46,1.46,0,0,1,.49-.65,8.8,8.8,0,0,1,1.26-.85c.51-.3.77-1,.77-2.08V166.86a2.88,2.88,0,0,0-.41-1.51,8.35,8.35,0,0,0-.89-1.26,9.5,9.5,0,0,0-1.3-1.22,8.92,8.92,0,0,0,1.3-1.22,8.35,8.35,0,0,0,.89-1.26,2.83,2.83,0,0,0,.41-1.51V140.4c0-1.08-.26-1.77-.77-2.07s-.94-.56-1.26-.78a1.41,1.41,0,0,1-.49-.73,1.18,1.18,0,0,1-.08-.41h23A8.06,8.06,0,0,1,79,144.55ZM62.67,144.55a4.19,4.19,0,0,0-4.07,4.08v6a4.17,4.17,0,0,0,4.07,4.07h4.07a4.17,4.17,0,0,0,4.07-4.07v-6a4.19,4.19,0,0,0-4.07-4.08Zm12.21,26.54A4.17,4.17,0,0,0,70.81,167H62.67a4.17,4.17,0,0,0-4.07,4.07V193.4a4.17,4.17,0,0,0,4.07,4.07h8.14a4.17,4.17,0,0,0,4.07-4.07Z"/><path class="cls-1" d="M122.26,197.47a8.06,8.06,0,0,1-8.14,8.14H97.84a8.06,8.06,0,0,1-8.14-8.14V144.55a8.06,8.06,0,0,1,8.14-8.14h16.28a8.06,8.06,0,0,1,8.14,8.14Zm-8.14-48.84a4.19,4.19,0,0,0-4.07-4.08h-8.14a4.19,4.19,0,0,0-4.07,4.08V193.4a4.17,4.17,0,0,0,4.07,4.07h8.14a4.17,4.17,0,0,0,4.07-4.07Z"/><path class="cls-1" d="M156.94,166.05a5.25,5.25,0,0,0-2.2,1.91,3.33,3.33,0,0,0-.24,2.81l4.56,31.91a1.84,1.84,0,0,0,.85,1.22,7.27,7.27,0,0,1,1,.65,5.33,5.33,0,0,1,.41.65,2.94,2.94,0,0,0,.16.41H148.07a2.94,2.94,0,0,0,.16-.41,1.46,1.46,0,0,1,.49-.65l.57-.36a5.54,5.54,0,0,0,.65-.49,2.39,2.39,0,0,0,.57-.78,3,3,0,0,0,.24-1.3l-4.23-29.14-.49-1.71a7.07,7.07,0,0,0-1.5-2.77,3.9,3.9,0,0,0-3.06-1.14h-.32A4,4,0,0,0,138.3,168a3.88,3.88,0,0,0-1.22,2.89v30.69c0,1.09.26,1.78.77,2.08a8.8,8.8,0,0,1,1.26.85,1.46,1.46,0,0,1,.49.65,1.22,1.22,0,0,1,.08.41H126.33a1.37,1.37,0,0,1,.57-1.06,10.11,10.11,0,0,1,1.26-.85c.52-.3.78-1,.78-2.08V140.4q0-1.62-.78-2.07t-1.26-.78a1.64,1.64,0,0,1-.57-1.14h27a8.06,8.06,0,0,1,8.14,8.14v14.17a7.79,7.79,0,0,1-1.26,4.31A8.55,8.55,0,0,1,156.94,166.05Zm-7.65-7.33a4.17,4.17,0,0,0,4.07-4.07v-6a4.19,4.19,0,0,0-4.07-4.08h-8.14a4.19,4.19,0,0,0-4.07,4.08v6a4.17,4.17,0,0,0,4.07,4.07Z"/><path class="cls-1" d="M200.74,197.47a8.06,8.06,0,0,1-8.14,8.14h-27a1.53,1.53,0,0,1,.08-.41,1.46,1.46,0,0,1,.49-.65,10.11,10.11,0,0,1,1.26-.85c.52-.3.78-1,.78-2.08V140.4q0-1.62-.78-2.07t-1.26-.78a1.41,1.41,0,0,1-.49-.73,1.46,1.46,0,0,1-.08-.41h27a8.06,8.06,0,0,1,8.14,8.14Zm-8.14-48.84a4.19,4.19,0,0,0-4.07-4.08h-8.14a4.19,4.19,0,0,0-4.07,4.08V193.4a4.17,4.17,0,0,0,4.07,4.07h8.14a4.17,4.17,0,0,0,4.07-4.07Z"/><path class="cls-1" d="M238.84,146.59q-.33-.5-.78-1.26t-2.07-.78H219.62a4.21,4.21,0,0,0-4.07,4.08v6.1a3.86,3.86,0,0,0,1.23,2.89,3.94,3.94,0,0,0,2.84,1.18h8.23c1.08,0,1.77-.26,2.07-.77s.56-.94.78-1.26a1.41,1.41,0,0,1,.73-.49,1.18,1.18,0,0,1,.41-.08v13.35a1.64,1.64,0,0,1-1.14-.57q-.33-.49-.78-1.26t-2.07-.78h-8.23a4.19,4.19,0,0,0-4.07,4.07V193.4a3.86,3.86,0,0,0,1.23,2.89,3.94,3.94,0,0,0,2.84,1.18H236c1.08,0,1.77-.26,2.07-.77s.56-.94.78-1.27a1.46,1.46,0,0,1,.73-.48,1.22,1.22,0,0,1,.41-.09v9.77a1,1,0,0,1-.29.7.94.94,0,0,1-.69.28H204.81a1.53,1.53,0,0,1,.08-.41,1.46,1.46,0,0,1,.49-.65,8.8,8.8,0,0,1,1.26-.85c.52-.3.77-1,.77-2.08V140.4c0-1.08-.25-1.77-.77-2.07s-.94-.56-1.26-.78a1.41,1.41,0,0,1-.49-.73,1.46,1.46,0,0,1-.08-.41H239a.88.88,0,0,1,.69.33,1.09,1.09,0,0,1,.29.73v9.69a1.46,1.46,0,0,1-.41-.08A1.41,1.41,0,0,1,238.84,146.59Z"/><path class="cls-1" d="M274.66,166.05a5.19,5.19,0,0,0-2.2,1.91,3.33,3.33,0,0,0-.25,2.81l4.56,31.91a1.85,1.85,0,0,0,.86,1.22,7.73,7.73,0,0,1,1,.65,4.34,4.34,0,0,1,.41.65,2.94,2.94,0,0,0,.16.41H265.78a2.84,2.84,0,0,0,.17-.41,1.44,1.44,0,0,1,.48-.65l.57-.36a4.81,4.81,0,0,0,.65-.49,2.39,2.39,0,0,0,.57-.78,2.81,2.81,0,0,0,.25-1.3l-4.23-29.14-.49-1.71a7.21,7.21,0,0,0-1.51-2.77,3.89,3.89,0,0,0-3.05-1.14h-.33A4,4,0,0,0,256,168a3.88,3.88,0,0,0-1.22,2.89v30.69c0,1.09.26,1.78.78,2.08a10.11,10.11,0,0,1,1.26.85,1.37,1.37,0,0,1,.57,1.06H244.05a1.22,1.22,0,0,1,.08-.41,1.46,1.46,0,0,1,.49-.65,8.8,8.8,0,0,1,1.26-.85c.51-.3.77-1,.77-2.08V140.4c0-1.08-.26-1.77-.77-2.07s-.94-.56-1.26-.78a1.41,1.41,0,0,1-.49-.73,1.18,1.18,0,0,1-.08-.41h27a8.06,8.06,0,0,1,8.14,8.14v14.17A7.79,7.79,0,0,1,278,163,8.6,8.6,0,0,1,274.66,166.05ZM267,158.72a4.17,4.17,0,0,0,4.07-4.07v-6a4.19,4.19,0,0,0-4.07-4.08h-8.14a4.19,4.19,0,0,0-4.07,4.08v6a4.17,4.17,0,0,0,4.07,4.07Z"/><path class="cls-1" d="M348.65,138.77a7.86,7.86,0,0,1,2.36,5.78v8.23a1,1,0,0,1-1,1h-9.77a1.38,1.38,0,0,1,.57-1.05,8,8,0,0,1,1.26-.86c.52-.3.77-1,.77-2v-1.22a4.19,4.19,0,0,0-4.07-4.08h-8.14a4.19,4.19,0,0,0-4.07,4.08V193.4a4.17,4.17,0,0,0,4.07,4.07h8.14a4.17,4.17,0,0,0,4.07-4.07V171.09A4.17,4.17,0,0,0,338.8,167h-.48a2.33,2.33,0,0,0-1.84.9,10.94,10.94,0,0,1-.77,1.14,1.37,1.37,0,0,1-1.06.57v-9.69c0-.7.33-1.06,1-1.06h7.24A8.06,8.06,0,0,1,351,167v30.45a8.06,8.06,0,0,1-8.14,8.14H326.59a8.06,8.06,0,0,1-8.14-8.14V166.86a2.88,2.88,0,0,0-.41-1.51,9.13,9.13,0,0,0-.89-1.26,9.5,9.5,0,0,0-1.3-1.22,8.92,8.92,0,0,0,1.3-1.22,9.13,9.13,0,0,0,.89-1.26,2.83,2.83,0,0,0,.41-1.51V144.55a8.06,8.06,0,0,1,8.14-8.14h16.28A7.87,7.87,0,0,1,348.65,138.77Z"/><path class="cls-1" d="M367.87,204.55a1.52,1.52,0,0,1,.48.65,1.27,1.27,0,0,1,.09.41H355.08a1.27,1.27,0,0,1,.09-.41,1.44,1.44,0,0,1,.48-.65,9.59,9.59,0,0,1,1.27-.85c.51-.3.77-1,.77-2.08V140.4c0-1.08-.26-1.77-.77-2.07s-.94-.56-1.27-.78a1.4,1.4,0,0,1-.48-.73,1.22,1.22,0,0,1-.09-.41h13.36a1.22,1.22,0,0,1-.09.41,1.46,1.46,0,0,1-.48.73c-.33.22-.75.48-1.27.78s-.77,1-.77,2.07v61.22c0,1.09.26,1.78.77,2.08A9.59,9.59,0,0,1,367.87,204.55Z"/><path class="cls-1" d="M400.43,204.55a6.84,6.84,0,0,0,1-1,2.17,2.17,0,0,0,.17-1.91v.08l-2.12-9.93-.81-3.91-.08-.57a5.36,5.36,0,0,0-1.84-2.81,4.72,4.72,0,0,0-3.05-1.18h-2.2a4.74,4.74,0,0,0-3.05,1.18,5.28,5.28,0,0,0-1.83,2.81l-.73,3.5-2.28,10.83a1.91,1.91,0,0,0,.12,1.91,8.16,8.16,0,0,0,1,1,1.52,1.52,0,0,1,.48.65,1.27,1.27,0,0,1,.09.41H372.5a1.27,1.27,0,0,1,.09-.41,1.44,1.44,0,0,1,.48-.65l1.06-.85a3.94,3.94,0,0,0,1-2.08l12-61.22a2.18,2.18,0,0,0-.17-1.91,4.46,4.46,0,0,0-1-.94,1.41,1.41,0,0,1-.49-.73,1.18,1.18,0,0,1-.08-.41h10.17a1.19,1.19,0,0,1,.29,0,.78.78,0,0,0,.28.05v-.09h3.67a1.22,1.22,0,0,1-.09.41,1.4,1.4,0,0,1-.48.73,4.49,4.49,0,0,0-1,.94,2.15,2.15,0,0,0-.16,1.91l12,61.22a3.94,3.94,0,0,0,1,2.08l1.06.85a1.46,1.46,0,0,1,.49.65,1.53,1.53,0,0,1,.08.41H399.86a1.22,1.22,0,0,1,.08-.41A1.46,1.46,0,0,1,400.43,204.55Zm-7.9-29.39a2.51,2.51,0,0,0,2.24-1.18,3.43,3.43,0,0,0,.37-2.81l-.74-3.58-1-4.56c-.28-1.08-.56-1.62-.86-1.62s-.58.54-.85,1.62l-.49,2.45L390,171.17a3.43,3.43,0,0,0,.36,2.81A2.45,2.45,0,0,0,392.53,175.16Z"/><path class="cls-1" d="M453.91,204.55a1.46,1.46,0,0,1,.49.65,1.53,1.53,0,0,1,.08.41h-6.75a5.63,5.63,0,0,1-3.22-1.1,5.48,5.48,0,0,1-2.16-2.73l-13.76-38.26q-.72-2-1.14-1.38v39.48c0,1.09.26,1.78.78,2.08a10.11,10.11,0,0,1,1.26.85,1.46,1.46,0,0,1,.49.65,1.53,1.53,0,0,1,.08.41H416.71a1.53,1.53,0,0,1,.08-.41,1.46,1.46,0,0,1,.49-.65,8.8,8.8,0,0,1,1.26-.85c.52-.3.77-1,.77-2.08V140.4c0-1.08-.25-1.77-.77-2.07s-.94-.56-1.26-.78a1.41,1.41,0,0,1-.49-.73,1.46,1.46,0,0,1-.08-.41h6.67a5.84,5.84,0,0,1,3.14,1.18,5.77,5.77,0,0,1,2.07,2.65l13.76,38.26c.38,1.09.71,1.59,1,1.51s.41-.67.41-1.75V140.4q0-1.62-.78-2.07t-1.26-.78a1.41,1.41,0,0,1-.49-.73,1.46,1.46,0,0,1-.08-.41h13.35a1.46,1.46,0,0,1-.08.41,1.41,1.41,0,0,1-.49.73q-.48.33-1.26.78c-.52.3-.77,1-.77,2.07v61.22c0,1.09.25,1.78.77,2.08A8.8,8.8,0,0,1,453.91,204.55Z"/><path class="cls-1" d="M491.11,137.47v9.69a1.47,1.47,0,0,1-.4-.08,1.41,1.41,0,0,1-.73-.49q-.33-.5-.78-1.26t-2.07-.78h-4.81a3.86,3.86,0,0,0-2.89,1.23,4,4,0,0,0-1.18,2.85v53a2.81,2.81,0,0,0,.25,1.3,2.66,2.66,0,0,0,.53.78,3.54,3.54,0,0,0,.61.49l.57.36a1.44,1.44,0,0,1,.48.65,2.84,2.84,0,0,0,.17.41H467.43c.05-.11.1-.24.16-.41a1.46,1.46,0,0,1,.49-.65l.57-.36a6.51,6.51,0,0,0,.65-.49,2.72,2.72,0,0,0,.57-.78,3,3,0,0,0,.24-1.3v-53a4.19,4.19,0,0,0-4.07-4.08h-3.5c-1.09,0-1.78.26-2.08.78a9.12,9.12,0,0,1-.85,1.26,1.37,1.37,0,0,1-1.06.57v-9.69a1.09,1.09,0,0,1,.29-.73.88.88,0,0,1,.69-.33h30.53A.94.94,0,0,1,491.11,137.47Z"/><path class="cls-1" d="M66.91,52.26,83.17,90.55l2.81,8,5.11-42.32-5.76-.79.36-3.16h16l-.29,3.16-5,.79-7.06,49.52H81.52L65,67.23,62.3,58.88l-4.75,43,6.19.86-.21,3H46.61l.29-3,5-.86,6.26-45.71-5.4-.79.5-3.16Z"/><path class="cls-1" d="M126.32,104.08a17.83,17.83,0,0,1-9.25,2.44,14.2,14.2,0,0,1-8.13-2.19,13,13,0,0,1-4.75-5.76,19.39,19.39,0,0,1-1.51-7.66,30.36,30.36,0,0,1,2.8-13,24,24,0,0,1,7.71-9.53A18.05,18.05,0,0,1,124,64.85q5.19,0,7.81,2.45a8.44,8.44,0,0,1,2.63,6.48,11,11,0,0,1-4,8.67,26.53,26.53,0,0,1-9.58,5.22,36,36,0,0,1-10,1.8,15.89,15.89,0,0,0,1.69,8.7,6.68,6.68,0,0,0,6.3,3.6,13.81,13.81,0,0,0,6.3-1.54A20.47,20.47,0,0,0,130.67,96l1.66,2.8A18.17,18.17,0,0,1,126.32,104.08ZM116.53,71.4a19.29,19.29,0,0,0-3.92,6.66,29.56,29.56,0,0,0-1.73,7.88,23.62,23.62,0,0,0,7.24-1.55,16.55,16.55,0,0,0,6.29-4,8.43,8.43,0,0,0,2.52-6,6.3,6.3,0,0,0-1.22-4.17,4.3,4.3,0,0,0-3.46-1.44A7.64,7.64,0,0,0,116.53,71.4Z"/><path class="cls-1" d="M142.12,70.29a1.15,1.15,0,0,0-1-.54A2.14,2.14,0,0,0,140,70c-.31.2-.73.48-1.26.87l-.93-2.16a9.66,9.66,0,0,1,2.81-2.41,8.26,8.26,0,0,1,4.6-1.41,4.93,4.93,0,0,1,3.71,1.19,6.63,6.63,0,0,1,1.47,3.64l2.81,23.46.72,6.91,2.81-7.42,10.79-27.49h6.84l2.95,28.43.58,6.41,3.67-5.4a58.45,58.45,0,0,0,5-9.57A28.85,28.85,0,0,0,189,74.78a13.12,13.12,0,0,0-.65-3.45,9.84,9.84,0,0,1-.5-2.66,3.58,3.58,0,0,1,3.74-3.75c3,0,4.51,2.38,4.61,7.13q0,4.53-3.71,11.62A102.92,102.92,0,0,1,184.29,97L178.18,106l-6.05.36L170.55,94,169,79.75l-.36-4.89-1.51,5L160.69,94l-5.33,12-6.33.5L146.72,94l-3.95-22A5.83,5.83,0,0,0,142.12,70.29Z"/><path class="cls-1" d="M215.81,68.79l19.56-12L217.54,71.23a1.5,1.5,0,1,1-1.89-2.33Z"/><path class="cls-1" d="M197.43,52.15l15.83-14.77L199.62,54.2a1.5,1.5,0,1,1-2.33-1.9A1,1,0,0,1,197.43,52.15Z"/><path class="cls-1" d="M174.47,43.72l12-21.53L177.17,45a1.5,1.5,0,0,1-2.78-1.13A.89.89,0,0,1,174.47,43.72Z"/><path class="cls-1" d="M99.82,29,99.43.93l3.38,27.88a1.5,1.5,0,0,1-3,.36A.86.86,0,0,1,99.82,29Z"/><path class="cls-1" d="M123.09,33.56,128.39,0l-2.32,33.9a1.5,1.5,0,0,1-3-.21S123.08,33.6,123.09,33.56Z"/><path class="cls-1" d="M150.24,35l10-23.49L153.07,36a1.5,1.5,0,1,1-2.89-.84Z"/><path class="cls-1" d="M51.89,39.59,34.44,15.23l19.8,22.49a1.51,1.51,0,0,1-2.26,2Z"/><path class="cls-1" d="M75.3,33.74,66.45,5.11l11.67,27.6a1.5,1.5,0,1,1-2.77,1.17A.58.58,0,0,0,75.3,33.74Z"/><path class="cls-1" d="M31.07,73.4,0,74.43l30.83-4a1.5,1.5,0,1,1,.38,3Z"/><path class="cls-1" d="M35.23,53.73,12.35,40.08l24.27,11a1.5,1.5,0,1,1-1.24,2.74Z"/><path class="cls-1" d="M31.57,94.63,8,108.54,29.9,92.13a1.51,1.51,0,1,1,1.81,2.41Z"/><path class="cls-1" d="M216.14,87.38l26.15,8.19L215.4,90.29a1.5,1.5,0,1,1,.58-3Z"/><path class="cls-1" d="M207.26,103.81l17.16,16.31-19.09-14a1.5,1.5,0,1,1,1.78-2.42Z"/></g></g></svg>