<svg xmlns="http://www.w3.org/2000/svg" xmlns:xlink="http://www.w3.org/1999/xlink" viewBox="0 0 713.15 713.15"><defs><style>.cls-1{isolation:isolate;}.cls-2{fill:#fff;opacity:0;}.cls-3,.cls-6{fill:#010101;}.cls-3{opacity:0.2;mix-blend-mode:darken;}.cls-4{fill:#ddb893;}.cls-5{fill:url(#linear-gradient);}.cls-6{opacity:0.05;mix-blend-mode:multiply;}.cls-7{fill:#b5926c;}.cls-8{fill:url(#linear-gradient-2);}.cls-9{fill:url(#radial-gradient);}.cls-10{fill:#94704a;}</style><linearGradient id="linear-gradient" x1="109.45" y1="109.45" x2="603.7" y2="603.7" gradientUnits="userSpaceOnUse"><stop offset="0.02" stop-color="#ddb893"/><stop offset="1" stop-color="#b5926c"/></linearGradient><linearGradient id="linear-gradient-2" x1="48.21" y1="94.31" x2="603.7" y2="94.31" gradientUnits="userSpaceOnUse"><stop offset="0" stop-color="#b7946e"/><stop offset="0.16" stop-color="#c6a27c"/><stop offset="0.35" stop-color="#d2ad87"/><stop offset="0.55" stop-color="#d6b18b"/><stop offset="1" stop-color="#b5926c"/></linearGradient><radialGradient id="radial-gradient" cx="78.83" cy="341.43" fx="-20.398968356204477" fy="280.9058110622051" r="116.24" gradientTransform="translate(0 -335.85) scale(1 1.98)" gradientUnits="userSpaceOnUse"><stop offset="0" stop-color="#ddb893"/><stop offset="1" stop-color="#b5926c"/></radialGradient></defs><g class="cls-1"><g id="Layer_2" data-name="Layer 2"><g id="Homepage"><rect class="cls-2" width="713.15" height="713.15"/><polygon id="_Path_shadow" data-name="&lt;Path&gt;shadow" class="cls-3" points="97.8 612.74 0 564.38 554.11 564.38 651.91 612.74 97.8 612.74"/><rect class="cls-4" x="48.21" y="79.17" width="494.24" height="494.24"/><rect class="cls-5" x="109.45" y="109.45" width="494.24" height="494.24"/><polygon id="_Path_shadow-2" data-name="&lt;Path&gt;shadow" class="cls-6" points="603.7 603.7 109.45 603.7 570.14 570.14 603.7 109.45 603.7 603.7"/><path class="cls-7" d="M541.66,148.22a57.69,57.69,0,0,1,5.88-8.65,97.88,97.88,0,0,1,6.87-7.64,96,96,0,0,1,7.64-6.88,55.92,55.92,0,0,1,8.65-5.87,55.92,55.92,0,0,1-5.87,8.65,96,96,0,0,1-6.88,7.64,97.88,97.88,0,0,1-7.64,6.87A57.69,57.69,0,0,1,541.66,148.22Z"/><path class="cls-7" d="M565,151.12a56.31,56.31,0,0,1,5.87-8.64A99.65,99.65,0,0,1,585.37,128a58.39,58.39,0,0,1,8.65-5.87,55.92,55.92,0,0,1-5.87,8.65,94.12,94.12,0,0,1-6.88,7.64,96,96,0,0,1-7.64,6.88A57.78,57.78,0,0,1,565,151.12Z"/><path class="cls-7" d="M171.49,564.93a57.18,57.18,0,0,1-5.88,8.65,97.88,97.88,0,0,1-6.87,7.64,96,96,0,0,1-7.64,6.88,55.92,55.92,0,0,1-8.65,5.87,55.92,55.92,0,0,1,5.87-8.65,96,96,0,0,1,6.88-7.64,97.88,97.88,0,0,1,7.64-6.87A57.69,57.69,0,0,1,171.49,564.93Z"/><path class="cls-7" d="M148.16,562a56.31,56.31,0,0,1-5.87,8.64,98,98,0,0,1-6.88,7.65,94.17,94.17,0,0,1-7.63,6.88,58.39,58.39,0,0,1-8.65,5.87,55.92,55.92,0,0,1,5.87-8.65,98.35,98.35,0,0,1,14.52-14.52A57.78,57.78,0,0,1,148.16,562Z"/><polygon class="cls-8" points="48.21 79.17 109.45 109.45 603.7 109.45 542.46 79.17 48.21 79.17"/><polygon class="cls-9" points="48.21 573.42 109.45 603.7 109.45 109.45 48.21 79.17 48.21 573.42"/><polygon class="cls-6" points="48.21 573.42 109.45 603.7 62.78 554.09 48.21 79.17 48.21 573.42"/><rect class="cls-7" x="310.48" y="109.45" width="92.2" height="38.46"/><path class="cls-10" d="M328.69,113.05a36.52,36.52,0,0,0,7,1.89c2.35.49,4.72.85,7.09,1.22,4.73.74,9.49,1.34,14.24,1.86s9.52.93,14.27,1.08a59.81,59.81,0,0,0,7.09-.12,14.23,14.23,0,0,0,6.78-1.86,8.07,8.07,0,0,1-2.88,2.39,14.23,14.23,0,0,1-1.74.78,18.74,18.74,0,0,1-1.78.62,39.9,39.9,0,0,1-7.37,1.33,74.63,74.63,0,0,1-14.8-.25,90.22,90.22,0,0,1-14.48-2.76,65.05,65.05,0,0,1-7-2.42A22.46,22.46,0,0,1,328.69,113.05Z"/><polygon class="cls-7" points="341.43 79.17 402.67 109.45 310.48 109.45 249.24 79.17 341.43 79.17"/></g></g></g></svg>