<?xml version="1.0" encoding="UTF-8"?> <svg xmlns="http://www.w3.org/2000/svg" viewBox="0 0 505.62 528.56"><defs><style>.cls-1{fill:#98c0bd;opacity:0.2;}.cls-2,.cls-4{fill:#fff;}.cls-2,.cls-5,.cls-6{stroke:#659a97;stroke-miterlimit:10;stroke-width:4px;}.cls-3{fill:#659a97;}.cls-5,.cls-6{fill:none;}.cls-6{stroke-linecap:round;}.cls-7{fill:#eef2f2;}</style></defs><g id="Layer_2" data-name="Layer 2"><g id="Send_It_Page" data-name="Send It Page"><ellipse class="cls-1" cx="252.81" cy="490.7" rx="252.81" ry="37.86"></ellipse><rect class="cls-2" x="49.75" y="47.16" width="406.11" height="456.34" rx="24.64"></rect><path class="cls-3" d="M107.71,221.57h3l7.16,21.18H115l-2-6.46h-7.72l-2,6.46h-2.74ZM106,234.13h6.36l-1-3.23c-.78-2.35-1.45-4.68-2.13-7.13h-.13c-.65,2.45-1.32,4.78-2.1,7.13Z"></path><path class="cls-3" d="M127.56,229.22h-2.13v-2l2.13-.16v-2.48c0-3.2,1.45-5.2,4.58-5.2a7.14,7.14,0,0,1,2.62.52l-.59,2a4.36,4.36,0,0,0-1.77-.39c-1.48,0-2.19,1-2.19,3v2.48h3.32v2.16h-3.32v13.53h-2.65Z"></path><path class="cls-3" d="M135.05,234.94c0-5.26,3.42-8.27,7.26-8.27s7.26,3,7.26,8.27-3.42,8.19-7.26,8.19S135.05,240.13,135.05,234.94Zm11.78,0c0-3.62-1.81-6.07-4.52-6.07s-4.52,2.45-4.52,6.07,1.84,6,4.52,6S146.83,238.52,146.83,234.94Z"></path><path class="cls-3" d="M153.7,227.06h2.19l.23,2.84h.1c1.06-2,2.67-3.23,4.45-3.23a3.85,3.85,0,0,1,1.68.33l-.52,2.32a4.39,4.39,0,0,0-1.52-.26c-1.32,0-2.9,1-4,3.62v10.07H153.7Z"></path><path class="cls-3" d="M164.9,227.06h2.19l.23,2.26h.09a6.94,6.94,0,0,1,4.88-2.65,4.1,4.1,0,0,1,4.32,3c1.65-1.78,3.26-3,5.17-3,3.22,0,4.77,2.13,4.77,6.14v9.94h-2.64v-9.59c0-2.94-.94-4.19-2.91-4.19-1.23,0-2.48.8-3.94,2.42v11.36h-2.64v-9.59c0-2.94-.94-4.19-2.94-4.19-1.16,0-2.48.8-3.94,2.42v11.36H164.9Z"></path><path class="cls-3" d="M198.56,237.9v-8.68h-2.33v-2l2.45-.16.33-4.39h2.22v4.39h4.23v2.16h-4.23v8.72c0,1.93.62,3,2.43,3a5.86,5.86,0,0,0,1.77-.42l.52,2a9.71,9.71,0,0,1-2.91.58C199.69,243.13,198.56,241,198.56,237.9Z"></path><path class="cls-3" d="M209,219.77h2.65V226l-.1,3.23c1.49-1.42,3.07-2.59,5.23-2.59,3.29,0,4.78,2.13,4.78,6.14v9.94h-2.65v-9.59c0-2.94-.9-4.19-3-4.19-1.61,0-2.71.83-4.29,2.42v11.36H209Z"></path><path class="cls-3" d="M225.6,238.68c0-3.42,2.94-5.13,9.62-5.87,0-2-.65-3.94-3.23-3.94a8.53,8.53,0,0,0-4.68,1.68l-1-1.84a11.58,11.58,0,0,1,6.16-2c3.84,0,5.46,2.55,5.46,6.46v9.62h-2.2l-.22-1.88h-.1a8.37,8.37,0,0,1-5.2,2.26A4.26,4.26,0,0,1,225.6,238.68Zm9.62.22v-4.35c-5.23.64-7,1.93-7,3.94,0,1.77,1.23,2.51,2.78,2.51S233.7,240.26,235.22,238.9Z"></path><path class="cls-3" d="M242.83,237.9v-8.68h-2.32v-2l2.45-.16.32-4.39h2.23v4.39h4.23v2.16h-4.23v8.72c0,1.93.61,3,2.42,3a5.85,5.85,0,0,0,1.78-.42l.51,2a9.65,9.65,0,0,1-2.9.58C244,243.13,242.83,241,242.83,237.9Z"></path><path class="cls-3" d="M258.77,238.68c0-3.42,2.94-5.13,9.62-5.87,0-2-.64-3.94-3.23-3.94a8.49,8.49,0,0,0-4.67,1.68l-1-1.84a11.61,11.61,0,0,1,6.17-2c3.84,0,5.45,2.55,5.45,6.46v9.62h-2.19l-.23-1.88h-.1a8.32,8.32,0,0,1-5.19,2.26A4.27,4.27,0,0,1,258.77,238.68Zm9.62.22v-4.35c-5.23.64-7,1.93-7,3.94,0,1.77,1.22,2.51,2.77,2.51S266.87,240.26,268.39,238.9Z"></path><path class="cls-3" d="M275.78,237v-9.94h2.68v9.59c0,2.93.87,4.19,2.94,4.19,1.61,0,2.74-.81,4.22-2.65V227.06h2.65v15.69h-2.19l-.23-2.46h-.1c-1.45,1.71-3,2.84-5.16,2.84C277.27,243.13,275.78,241,275.78,237Z"></path><path class="cls-3" d="M294,237.9v-8.68h-2.33v-2l2.45-.16.33-4.39h2.22v4.39h4.23v2.16h-4.23v8.72c0,1.93.62,3,2.42,3a5.85,5.85,0,0,0,1.78-.42l.52,2a9.77,9.77,0,0,1-2.91.58C295.14,243.13,294,241,294,237.9Z"></path><path class="cls-3" d="M304.47,219.77h2.65V226l-.1,3.23c1.48-1.42,3.07-2.59,5.23-2.59,3.29,0,4.77,2.13,4.77,6.14v9.94h-2.64v-9.59c0-2.94-.9-4.19-3-4.19-1.61,0-2.71.83-4.29,2.42v11.36h-2.65Z"></path><path class="cls-3" d="M320.86,234.94c0-5.26,3.43-8.27,7.27-8.27s7.26,3,7.26,8.27-3.42,8.19-7.26,8.19S320.86,240.13,320.86,234.94Zm11.78,0c0-3.62-1.8-6.07-4.51-6.07s-4.52,2.45-4.52,6.07,1.84,6,4.52,6S332.64,238.52,332.64,234.94Z"></path><path class="cls-3" d="M339.52,227.06h2.19l.23,2.84h.1c1.06-2,2.67-3.23,4.45-3.23a3.85,3.85,0,0,1,1.68.33l-.52,2.32a4.44,4.44,0,0,0-1.52-.26c-1.32,0-2.9,1-4,3.62v10.07h-2.64Z"></path><path class="cls-3" d="M350.23,222.12a1.84,1.84,0,0,1,3.68,0,1.84,1.84,0,0,1-3.68,0Zm.49,4.94h2.64v15.69h-2.64Z"></path><path class="cls-3" d="M357,241.33l8.26-12.11h-7.36v-2.16h10.72v1.42l-8.27,12.1h8.52v2.17H357Z"></path><path class="cls-3" d="M370.88,234.94c0-5.14,3.46-8.27,7-8.27,4,0,6.26,2.88,6.26,7.36a9.59,9.59,0,0,1-.1,1.52H373.5c.19,3.32,2.23,5.45,5.23,5.45a7.09,7.09,0,0,0,3.9-1.22l.94,1.74a9.38,9.38,0,0,1-5.17,1.61C374.21,243.13,370.88,240.07,370.88,234.94Zm11-1.3c0-3.16-1.42-4.87-3.88-4.87-2.19,0-4.19,1.78-4.51,4.87Z"></path><path class="cls-3" d="M386.31,241l1.32-1.77a7.12,7.12,0,0,0,4.62,1.87c2.06,0,3.1-1.1,3.1-2.46,0-1.61-1.88-2.32-3.59-3-2.22-.81-4.68-1.88-4.68-4.52s2-4.46,5.39-4.46a7.85,7.85,0,0,1,4.88,1.78l-1.26,1.68a5.83,5.83,0,0,0-3.58-1.39c-2,0-2.88,1.06-2.88,2.26,0,1.48,1.71,2,3.49,2.71,2.26.84,4.78,1.77,4.78,4.74,0,2.55-2,4.68-5.75,4.68A9.4,9.4,0,0,1,386.31,241Z"></path><path class="cls-3" d="M118.09,260.3h6.29c4.29,0,7.26,1.45,7.26,5.17a4.64,4.64,0,0,1-3.1,4.61v.13a4.87,4.87,0,0,1,4.33,5.07c0,4.16-3.29,6.19-8,6.19h-6.74Zm5.81,9c3.61,0,5.1-1.33,5.1-3.49,0-2.45-1.68-3.39-5-3.39h-3.26v6.88Zm.55,10c3.64,0,5.77-1.32,5.77-4.16,0-2.62-2.06-3.81-5.77-3.81h-3.68v8Z"></path><path class="cls-3" d="M135.64,273.66c0-5.26,3.42-8.26,7.26-8.26s7.27,3,7.27,8.26-3.42,8.2-7.27,8.2S135.64,278.86,135.64,273.66Zm11.78,0c0-3.61-1.8-6.06-4.52-6.06s-4.51,2.45-4.51,6.06,1.84,6,4.51,6S147.42,277.24,147.42,273.66Z"></path><path class="cls-3" d="M154.3,265.79h2.19l.23,2.84h.09c1.07-2,2.68-3.23,4.46-3.23a4,4,0,0,1,1.68.32l-.52,2.33a4.44,4.44,0,0,0-1.52-.26c-1.32,0-2.9,1-4,3.61v10.07H154.3Z"></path><path class="cls-3" d="M164,273.66c0-5.1,3.23-8.26,6.81-8.26a6.46,6.46,0,0,1,4.39,1.81l-.13-2.68v-6h2.68v23H175.6l-.23-1.84h-.1a7,7,0,0,1-4.74,2.23C166.59,281.86,164,278.89,164,273.66Zm11.07,3.81v-8.2a5.47,5.47,0,0,0-3.81-1.64c-2.51,0-4.51,2.42-4.51,6,0,3.74,1.58,6,4.32,6A5.31,5.31,0,0,0,175.11,277.47Z"></path><path class="cls-3" d="M181.92,273.66c0-5.13,3.45-8.26,7-8.26,4,0,6.26,2.87,6.26,7.36a10.94,10.94,0,0,1-.1,1.52H184.53c.2,3.32,2.23,5.45,5.23,5.45a7,7,0,0,0,3.91-1.23l.93,1.75a9.32,9.32,0,0,1-5.16,1.61C185.24,281.86,181.92,278.79,181.92,273.66Zm11-1.29c0-3.16-1.42-4.87-3.87-4.87-2.19,0-4.19,1.77-4.52,4.87Z"></path><path class="cls-3" d="M199.09,265.79h2.19l.23,2.84h.1c1.06-2,2.67-3.23,4.45-3.23a4,4,0,0,1,1.68.32l-.52,2.33a4.44,4.44,0,0,0-1.52-.26c-1.32,0-2.9,1-4,3.61v10.07h-2.64Z"></path><path class="cls-3" d="M215.77,270.89c0-6.81,4.1-11,9.72-11a8.16,8.16,0,0,1,6.1,2.62l-1.49,1.74a6,6,0,0,0-4.55-2c-4.26,0-7,3.29-7,8.55s2.51,8.68,7,8.68a5.78,5.78,0,0,0,3.81-1.26v-5.51h-4.48V270.5h6.93v8.91a9,9,0,0,1-6.51,2.45C219.74,281.86,215.77,277.79,215.77,270.89Z"></path><path class="cls-3" d="M236.17,260.85a1.84,1.84,0,0,1,3.68,0,1.84,1.84,0,0,1-3.68,0Zm.48,4.94h2.65v15.68h-2.65Z"></path><path class="cls-3" d="M243.62,277.41c0-3.43,2.94-5.14,9.62-5.88,0-2-.65-3.93-3.23-3.93a8.52,8.52,0,0,0-4.68,1.67l-1-1.84a11.69,11.69,0,0,1,6.16-2c3.84,0,5.46,2.55,5.46,6.45v9.62h-2.2l-.22-1.87h-.1a8.35,8.35,0,0,1-5.2,2.26A4.27,4.27,0,0,1,243.62,277.41Zm9.62.22v-4.36c-5.23.65-7,1.94-7,3.94,0,1.78,1.23,2.52,2.78,2.52S251.72,279,253.24,277.63Z"></path><path class="cls-3" d="M260.86,265.79h2.19l.23,2.26h.09c1.49-1.49,3.1-2.65,5.26-2.65,3.29,0,4.78,2.13,4.78,6.13v9.94h-2.65v-9.58c0-2.94-.9-4.2-3-4.2-1.61,0-2.71.84-4.29,2.42v11.36h-2.64Z"></path><path class="cls-3" d="M279,276.63V268h-2.32v-2l2.45-.16.32-4.39h2.23v4.39h4.23V268h-4.23v8.71c0,1.94.61,3,2.42,3a5.72,5.72,0,0,0,1.77-.42l.52,2a9.71,9.71,0,0,1-2.9.58C280.09,281.86,279,279.73,279,276.63Z"></path><path class="cls-3" d="M294.9,277.41c0-3.43,2.94-5.14,9.62-5.88,0-2-.65-3.93-3.23-3.93a8.52,8.52,0,0,0-4.68,1.67l-1-1.84a11.69,11.69,0,0,1,6.16-2c3.84,0,5.46,2.55,5.46,6.45v9.62H305l-.22-1.87h-.1a8.35,8.35,0,0,1-5.2,2.26A4.27,4.27,0,0,1,294.9,277.41Zm9.62.22v-4.36c-5.23.65-7,1.94-7,3.94,0,1.78,1.23,2.52,2.78,2.52S303,279,304.52,277.63Z"></path><path class="cls-3" d="M310.39,279.7l1.32-1.78a7.06,7.06,0,0,0,4.62,1.87c2.07,0,3.1-1.09,3.1-2.45,0-1.61-1.87-2.32-3.58-3-2.23-.8-4.68-1.87-4.68-4.52s2-4.45,5.39-4.45a7.84,7.84,0,0,1,4.87,1.78l-1.26,1.67a5.83,5.83,0,0,0-3.58-1.38c-2,0-2.87,1.06-2.87,2.26,0,1.48,1.71,2,3.48,2.71,2.26.83,4.78,1.77,4.78,4.74,0,2.55-2,4.68-5.75,4.68A9.5,9.5,0,0,1,310.39,279.7Z"></path><path class="cls-3" d="M330.53,287.89l.52-2.09a4.84,4.84,0,0,0,1.19.22c1.77,0,2.9-1.42,3.55-3.35l.35-1.17-6.29-15.71h2.74l3.2,8.68c.48,1.35,1,3,1.52,4.42h.13c.45-1.42.9-3,1.32-4.42l2.81-8.68h2.58l-5.91,17c-1.1,3.1-2.71,5.46-5.87,5.46A5.08,5.08,0,0,1,330.53,287.89Z"></path><path class="cls-3" d="M345.89,273.66c0-5.26,3.42-8.26,7.26-8.26s7.26,3,7.26,8.26-3.42,8.2-7.26,8.2S345.89,278.86,345.89,273.66Zm11.78,0c0-3.61-1.81-6.06-4.52-6.06s-4.52,2.45-4.52,6.06,1.84,6,4.52,6S357.67,277.24,357.67,273.66Z"></path><path class="cls-3" d="M364.32,275.73v-9.94H367v9.58c0,2.94.87,4.2,2.93,4.2,1.62,0,2.75-.81,4.23-2.65V265.79h2.65v15.68h-2.2l-.22-2.45h-.1c-1.45,1.71-3,2.84-5.16,2.84C365.8,281.86,364.32,279.73,364.32,275.73Z"></path><path class="cls-3" d="M382.1,265.79h2.19l.23,2.84h.1c1.06-2,2.67-3.23,4.45-3.23a4,4,0,0,1,1.68.32l-.52,2.33a4.39,4.39,0,0,0-1.52-.26c-1.32,0-2.9,1-4,3.61v10.07H382.1Z"></path><path class="cls-3" d="M101.63,309.61c0-6.81,4-11,9.39-11a7.76,7.76,0,0,1,5.81,2.61L115.38,303a5.77,5.77,0,0,0-4.33-2c-4,0-6.65,3.29-6.65,8.55s2.55,8.68,6.56,8.68a6.36,6.36,0,0,0,4.9-2.39l1.49,1.68a8.2,8.2,0,0,1-6.49,3.07C105.57,320.59,101.63,316.52,101.63,309.61Z"></path><path class="cls-3" d="M121.28,299h3.23l4.07,11.29c.51,1.45,1,3,1.51,4.42h.13c.52-1.45.94-3,1.45-4.42l4-11.29h3.26V320.2h-2.52V308.55c0-1.87.22-4.39.35-6.26h-.13L135,307.1l-4,11h-1.77l-4-11-1.68-4.81h-.13c.13,1.87.32,4.39.32,6.26V320.2h-2.42Z"></path><path class="cls-3" d="M144.74,299h6.62c4.32,0,7.42,1.55,7.42,5.94a5.78,5.78,0,0,1-4.77,6l5.39,9.23h-3l-5.1-8.94h-3.84v8.94h-2.68Zm6.23,10c3.29,0,5.13-1.35,5.13-4.09s-1.84-3.78-5.13-3.78h-3.55v7.87Z"></path><path class="cls-3" d="M167.33,299h3l7.16,21.17h-2.87l-2-6.46H165l-2,6.46h-2.74Zm-1.71,12.55H172l-1-3.23c-.77-2.35-1.45-4.68-2.13-7.13h-.13c-.64,2.45-1.32,4.78-2.1,7.13Z"></path><path class="cls-3" d="M185.76,316.13c0-3.42,2.94-5.13,9.62-5.87,0-2-.65-3.94-3.23-3.94a8.53,8.53,0,0,0-4.68,1.68l-1-1.84a11.58,11.58,0,0,1,6.16-2c3.84,0,5.46,2.55,5.46,6.45v9.62h-2.2l-.22-1.87h-.1a8.42,8.42,0,0,1-5.2,2.26A4.27,4.27,0,0,1,185.76,316.13Zm9.62.23V312c-5.23.65-7,1.94-7,3.94,0,1.77,1.23,2.51,2.78,2.51S193.86,317.71,195.38,316.36Z"></path><path class="cls-3" d="M203,304.51h2.2l.22,2.26h.1c1.49-1.48,3.1-2.64,5.26-2.64,3.29,0,4.78,2.13,4.78,6.13v9.94H212.9v-9.59c0-2.93-.9-4.19-3-4.19-1.61,0-2.71.84-4.29,2.42V320.2H203Z"></path><path class="cls-3" d="M219.52,312.39c0-5.1,3.22-8.26,6.81-8.26a6.43,6.43,0,0,1,4.38,1.8l-.12-2.68v-6h2.67v23h-2.19l-.23-1.84h-.09a7.12,7.12,0,0,1-4.75,2.23C222.07,320.59,219.52,317.62,219.52,312.39Zm11.07,3.81V308a5.5,5.5,0,0,0-3.81-1.65c-2.52,0-4.52,2.42-4.52,6s1.58,6,4.32,6A5.33,5.33,0,0,0,230.59,316.2Z"></path><path class="cls-3" d="M243.85,312.39c0-5.26,3.52-8.26,7.55-8.26A6.48,6.48,0,0,1,256,306l-1.35,1.74a4.6,4.6,0,0,0-3.13-1.39c-2.84,0-4.91,2.45-4.91,6.07s2,6,4.84,6a5.57,5.57,0,0,0,3.68-1.58l1.16,1.77a7.64,7.64,0,0,1-5.06,2C247,320.59,243.85,317.58,243.85,312.39Z"></path><path class="cls-3" d="M257.89,312.39c0-5.26,3.42-8.26,7.26-8.26s7.26,3,7.26,8.26-3.42,8.2-7.26,8.2S257.89,317.58,257.89,312.39Zm11.78,0c0-3.62-1.81-6.07-4.52-6.07s-4.52,2.45-4.52,6.07,1.84,6,4.52,6S269.67,316,269.67,312.39Z"></path><path class="cls-3" d="M276.54,304.51h2.19l.23,2.26h.1c1.48-1.48,3.1-2.64,5.26-2.64,3.29,0,4.77,2.13,4.77,6.13v9.94h-2.64v-9.59c0-2.93-.91-4.19-3-4.19-1.61,0-2.71.84-4.29,2.42V320.2h-2.65Z"></path><path class="cls-3" d="M294.64,306.68h-2.13v-2l2.13-.16V302c0-3.2,1.46-5.2,4.59-5.2a7.08,7.08,0,0,1,2.61.52l-.58,2a4.36,4.36,0,0,0-1.77-.39c-1.49,0-2.2,1-2.2,3v2.48h3.32v2.17h-3.32V320.2h-2.65Z"></path><path class="cls-3" d="M303.13,299.58a1.84,1.84,0,0,1,3.68,0,1.84,1.84,0,0,1-3.68,0Zm.49,4.93h2.64V320.2h-2.64Z"></path><path class="cls-3" d="M311.55,304.51h2.2l.22,2.84h.1c1.07-2,2.68-3.22,4.45-3.22a3.82,3.82,0,0,1,1.68.32l-.51,2.32a4.44,4.44,0,0,0-1.52-.26c-1.32,0-2.9,1-4,3.62V320.2h-2.65Z"></path><path class="cls-3" d="M322.75,304.51H325l.22,2.26h.1a6.89,6.89,0,0,1,4.87-2.64,4.13,4.13,0,0,1,4.33,3c1.64-1.78,3.26-3,5.16-3,3.23,0,4.78,2.13,4.78,6.13v9.94h-2.65v-9.59c0-2.93-.94-4.19-2.9-4.19-1.23,0-2.49.8-3.94,2.42V320.2h-2.65v-9.59c0-2.93-.93-4.19-2.93-4.19-1.17,0-2.49.8-3.94,2.42V320.2h-2.65Z"></path><path class="cls-3" d="M347.76,318.42l1.33-1.77a7.07,7.07,0,0,0,4.61,1.87c2.07,0,3.1-1.1,3.1-2.45,0-1.62-1.87-2.33-3.58-3-2.23-.81-4.68-1.87-4.68-4.52s2-4.45,5.39-4.45a7.82,7.82,0,0,1,4.87,1.77l-1.26,1.68a5.79,5.79,0,0,0-3.58-1.39c-2,0-2.87,1.07-2.87,2.26,0,1.48,1.71,2,3.48,2.71,2.26.84,4.78,1.78,4.78,4.75,0,2.54-2,4.68-5.75,4.68A9.45,9.45,0,0,1,347.76,318.42Z"></path><path class="cls-3" d="M367.61,304.51h2.71l2.32,9.07c.36,1.49.65,2.91.94,4.36h.13c.35-1.45.68-2.91,1.06-4.36l2.42-9.07h2.59l2.45,9.07c.39,1.49.74,2.91,1.1,4.36h.12c.36-1.45.65-2.87,1-4.36l2.29-9.07h2.52L385,320.2h-3.23l-2.26-8.43c-.39-1.48-.68-2.93-1.07-4.51h-.12c-.36,1.58-.68,3.06-1.1,4.55l-2.2,8.39H372Z"></path><path class="cls-3" d="M391.36,312.39c0-5.13,3.45-8.26,7-8.26,4,0,6.26,2.87,6.26,7.35a10.94,10.94,0,0,1-.1,1.52H394c.19,3.32,2.22,5.45,5.22,5.45a7.1,7.1,0,0,0,3.91-1.22L404,319a9.33,9.33,0,0,1-5.16,1.62C394.68,320.59,391.36,317.52,391.36,312.39Zm11-1.29c0-3.17-1.42-4.88-3.87-4.88-2.19,0-4.19,1.78-4.52,4.88Z"></path><path class="cls-3" d="M109.34,343.24h2.75l3,8.91c.45,1.55,1,3.13,1.45,4.61h.13c.45-1.48,1-3.06,1.42-4.61l3-8.91h2.61l-5.55,15.68H115Z"></path><path class="cls-3" d="M125.38,351.11c0-5.13,3.45-8.26,7-8.26,4,0,6.26,2.88,6.26,7.36a9.59,9.59,0,0,1-.1,1.52H128c.19,3.32,2.22,5.45,5.22,5.45a7.1,7.1,0,0,0,3.91-1.22l.93,1.74a9.32,9.32,0,0,1-5.16,1.61C128.71,359.31,125.38,356.25,125.38,351.11Zm11-1.29c0-3.16-1.42-4.87-3.87-4.87-2.19,0-4.19,1.78-4.52,4.87Z"></path><path class="cls-3" d="M142.55,343.24h2.19l.23,2.84h.1c1.06-2,2.68-3.23,4.45-3.23a3.85,3.85,0,0,1,1.68.33l-.52,2.32a4.38,4.38,0,0,0-1.51-.26c-1.33,0-2.91,1-4,3.61v10.07h-2.65Z"></path><path class="cls-3" d="M153.26,338.3A1.84,1.84,0,1,1,155.1,340,1.74,1.74,0,0,1,153.26,338.3Zm.49,4.94h2.64v15.68h-2.64Z"></path><path class="cls-3" d="M162.14,345.4H160v-2l2.13-.16v-2.48c0-3.2,1.45-5.2,4.58-5.2a6.89,6.89,0,0,1,2.61.52l-.58,2a4.36,4.36,0,0,0-1.77-.39c-1.49,0-2.2,1-2.2,3v2.48h3.33v2.16h-3.33v13.52h-2.64Z"></path><path class="cls-3" d="M170.62,338.3a1.84,1.84,0,1,1,1.84,1.71A1.74,1.74,0,0,1,170.62,338.3Zm.49,4.94h2.65v15.68h-2.65Z"></path><path class="cls-3" d="M177.89,351.11c0-5.13,3.45-8.26,7-8.26,4,0,6.26,2.88,6.26,7.36a11.09,11.09,0,0,1-.09,1.52H180.5c.19,3.32,2.23,5.45,5.23,5.45a7.09,7.09,0,0,0,3.9-1.22l.94,1.74a9.35,9.35,0,0,1-5.16,1.61C181.21,359.31,177.89,356.25,177.89,351.11Zm11-1.29c0-3.16-1.42-4.87-3.87-4.87-2.2,0-4.2,1.78-4.52,4.87Z"></path><path class="cls-3" d="M193.92,351.11c0-5.09,3.23-8.26,6.81-8.26a6.45,6.45,0,0,1,4.39,1.81L205,342v-6h2.68v23h-2.19l-.23-1.84h-.09a7.07,7.07,0,0,1-4.75,2.23C196.47,359.31,193.92,356.34,193.92,351.11ZM205,354.92v-8.19a5.42,5.42,0,0,0-3.8-1.65c-2.52,0-4.52,2.42-4.52,6,0,3.75,1.58,6,4.32,6A5.31,5.31,0,0,0,205,354.92Z"></path><path class="cls-3" d="M217.84,365.35l.51-2.1a4.56,4.56,0,0,0,1.2.23c1.77,0,2.9-1.42,3.55-3.36l.35-1.16-6.29-15.72h2.74l3.2,8.68c.48,1.36,1,3,1.52,4.42h.12c.46-1.42.91-3,1.33-4.42l2.8-8.68h2.59l-5.91,17c-1.1,3.09-2.71,5.45-5.87,5.45A5.27,5.27,0,0,1,217.84,365.35Z"></path><path class="cls-3" d="M233.2,351.11c0-5.26,3.42-8.26,7.26-8.26s7.26,3,7.26,8.26-3.42,8.2-7.26,8.2S233.2,356.31,233.2,351.11Zm11.78,0c0-3.61-1.81-6.06-4.52-6.06s-4.52,2.45-4.52,6.06,1.84,6,4.52,6S245,354.7,245,351.11Z"></path><path class="cls-3" d="M251.63,353.18v-9.94h2.67v9.58c0,2.94.88,4.2,2.94,4.2,1.61,0,2.74-.81,4.23-2.65V343.24h2.65v15.68h-2.2l-.23-2.45h-.09c-1.45,1.71-3,2.84-5.17,2.84C253.11,359.31,251.63,357.18,251.63,353.18Z"></path><path class="cls-3" d="M269.41,343.24h2.19l.23,2.84h.09c1.07-2,2.68-3.23,4.46-3.23a3.85,3.85,0,0,1,1.68.33l-.52,2.32a4.44,4.44,0,0,0-1.52-.26c-1.32,0-2.9,1-4,3.61v10.07h-2.64Z"></path><path class="cls-3" d="M286.09,354.86c0-3.42,2.94-5.13,9.62-5.88,0-2-.65-3.93-3.23-3.93a8.53,8.53,0,0,0-4.68,1.68l-1-1.84a11.61,11.61,0,0,1,6.16-2c3.84,0,5.46,2.55,5.46,6.46v9.61h-2.2l-.22-1.87h-.1a8.35,8.35,0,0,1-5.2,2.26A4.26,4.26,0,0,1,286.09,354.86Zm9.62.22v-4.35c-5.23.64-7,1.93-7,3.93,0,1.78,1.23,2.52,2.78,2.52S294.19,356.44,295.71,355.08Z"></path><path class="cls-3" d="M302.19,351.11c0-5.09,3.23-8.26,6.81-8.26a6.45,6.45,0,0,1,4.39,1.81l-.13-2.68v-6h2.68v23h-2.19l-.23-1.84h-.09a7.07,7.07,0,0,1-4.75,2.23C304.74,359.31,302.19,356.34,302.19,351.11Zm11.07,3.81v-8.19a5.42,5.42,0,0,0-3.8-1.65c-2.52,0-4.52,2.42-4.52,6,0,3.75,1.58,6,4.32,6A5.31,5.31,0,0,0,313.26,354.92Z"></path><path class="cls-3" d="M320.11,351.11c0-5.09,3.22-8.26,6.8-8.26a6.45,6.45,0,0,1,4.39,1.81l-.12-2.68v-6h2.67v23h-2.19l-.23-1.84h-.09a7.07,7.07,0,0,1-4.75,2.23C322.66,359.31,320.11,356.34,320.11,351.11Zm11.07,3.81v-8.19a5.46,5.46,0,0,0-3.81-1.65c-2.52,0-4.52,2.42-4.52,6,0,3.75,1.58,6,4.32,6A5.33,5.33,0,0,0,331.18,354.92Z"></path><path class="cls-3" d="M339.15,343.24h2.19l.23,2.84h.09c1.07-2,2.68-3.23,4.46-3.23a3.8,3.8,0,0,1,1.67.33l-.51,2.32a4.44,4.44,0,0,0-1.52-.26c-1.32,0-2.9,1-4,3.61v10.07h-2.64Z"></path><path class="cls-3" d="M348.86,351.11c0-5.13,3.45-8.26,7-8.26,4,0,6.27,2.88,6.27,7.36a10.94,10.94,0,0,1-.1,1.52H351.47c.2,3.32,2.23,5.45,5.23,5.45a7.12,7.12,0,0,0,3.91-1.22l.93,1.74a9.32,9.32,0,0,1-5.16,1.61C352.18,359.31,348.86,356.25,348.86,351.11Zm11-1.29c0-3.16-1.42-4.87-3.87-4.87-2.2,0-4.2,1.78-4.52,4.87Z"></path><path class="cls-3" d="M364.28,357.15l1.33-1.78a7,7,0,0,0,4.61,1.88c2.07,0,3.1-1.1,3.1-2.46,0-1.61-1.87-2.32-3.58-3-2.23-.8-4.68-1.87-4.68-4.51s2-4.46,5.39-4.46a7.8,7.8,0,0,1,4.87,1.78l-1.26,1.68a5.79,5.79,0,0,0-3.58-1.39c-2,0-2.87,1.06-2.87,2.26,0,1.48,1.71,2,3.48,2.71,2.26.84,4.78,1.77,4.78,4.74,0,2.55-2,4.68-5.74,4.68A9.45,9.45,0,0,1,364.28,357.15Z"></path><path class="cls-3" d="M377.81,357.15l1.32-1.78a7,7,0,0,0,4.61,1.88c2.07,0,3.1-1.1,3.1-2.46,0-1.61-1.87-2.32-3.58-3-2.23-.8-4.68-1.87-4.68-4.51s2-4.46,5.39-4.46a7.8,7.8,0,0,1,4.87,1.78l-1.26,1.68a5.79,5.79,0,0,0-3.58-1.39c-2,0-2.87,1.06-2.87,2.26,0,1.48,1.71,2,3.49,2.71,2.25.84,4.77,1.77,4.77,4.74,0,2.55-2,4.68-5.74,4.68A9.4,9.4,0,0,1,377.81,357.15Z"></path><path class="cls-3" d="M207.27,393.58c0-3.42,2.94-5.13,9.62-5.87,0-2-.65-3.94-3.23-3.94a8.53,8.53,0,0,0-4.68,1.68l-1-1.84a11.66,11.66,0,0,1,6.16-2c3.84,0,5.46,2.55,5.46,6.45v9.62h-2.2l-.23-1.87h-.09a8.42,8.42,0,0,1-5.2,2.26A4.27,4.27,0,0,1,207.27,393.58Zm9.62.23v-4.36c-5.23.65-7,1.94-7,3.94,0,1.77,1.23,2.52,2.78,2.52S215.37,395.16,216.89,393.81Z"></path><path class="cls-3" d="M224.5,382h2.2l.22,2.26h.1c1.48-1.49,3.1-2.65,5.26-2.65,3.29,0,4.78,2.13,4.78,6.13v9.94h-2.65v-9.59c0-2.93-.9-4.19-3-4.19-1.61,0-2.71.84-4.29,2.42v11.36H224.5Z"></path><path class="cls-3" d="M241,389.84c0-5.1,3.22-8.26,6.8-8.26a6.45,6.45,0,0,1,4.39,1.81l-.12-2.68v-6h2.67v23h-2.19l-.23-1.84h-.09a7.12,7.12,0,0,1-4.75,2.23C243.58,398,241,395.07,241,389.84Zm11.07,3.81v-8.2a5.48,5.48,0,0,0-3.81-1.64c-2.52,0-4.52,2.42-4.52,6,0,3.74,1.58,6,4.32,6A5.33,5.33,0,0,0,252.1,393.65Z"></path><path class="cls-3" d="M266.78,376.48h2.68v21.17h-2.68Z"></path><path class="cls-3" d="M275.27,376.48h5.29c6.52,0,10,3.78,10,10.49s-3.48,10.68-9.87,10.68h-5.42Zm5.09,19c4.94,0,7.43-3.14,7.43-8.49s-2.49-8.3-7.43-8.3h-2.42v16.79Z"></path><path class="cls-3" d="M294.31,396a1.92,1.92,0,1,1,1.93,2A2,2,0,0,1,294.31,396Z"></path><path class="cls-3" d="M390.36,55.58H115.26c-6.8,0-13.13,4.29-16.81,11.4L74.73,118.55a3.39,3.39,0,0,0,3.09,4.81h350a3.39,3.39,0,0,0,3.09-4.81L407.17,67C403.49,59.87,397.16,55.58,390.36,55.58Z"></path><path class="cls-3" d="M178.72,30.74H326.9a17,17,0,0,1,17,17V78.2a0,0,0,0,1,0,0H161.71a0,0,0,0,1,0,0V47.74A17,17,0,0,1,178.72,30.74Z"></path><path class="cls-3" d="M252.81,0h0a29.73,29.73,0,0,1,29.73,29.73V34.6a0,0,0,0,1,0,0H223.08a0,0,0,0,1,0,0V29.73A29.73,29.73,0,0,1,252.81,0Z"></path><circle class="cls-4" cx="252.81" cy="22.86" r="10.51"></circle><path class="cls-4" d="M143.66,93.12V81.81h3.57V93.4c0,4.37,1.64,5.82,4.07,5.82s4.19-1.45,4.19-5.82V81.81h3.43V93.12c0,6.63-2.93,9.22-7.62,9.22S143.66,99.75,143.66,93.12Z"></path><path class="cls-4" d="M162.24,99.38l2.1-2.44a8,8,0,0,0,5.24,2.28c2.28,0,3.51-1,3.51-2.58s-1.29-2.19-3.11-3l-2.78-1.21c-2-.83-4.06-2.4-4.06-5.36,0-3.21,2.83-5.67,6.78-5.67A8.9,8.9,0,0,1,176.11,84l-1.82,2.28a6.55,6.55,0,0,0-4.37-1.73c-1.91,0-3.18.9-3.18,2.38s1.54,2.15,3.21,2.83l2.74,1.14c2.37,1,4.07,2.53,4.07,5.46,0,3.26-2.71,6-7.24,6A10.44,10.44,0,0,1,162.24,99.38Z"></path><path class="cls-4" d="M180.42,81.81h6.35c4.47,0,7.8,1.54,7.8,6.23,0,4.46-3.33,6.53-7.67,6.53H184V102h-3.58Zm6.2,9.89c3,0,4.44-1.2,4.44-3.66s-1.57-3.36-4.56-3.36H184v7Z"></path><path class="cls-4" d="M196.66,99.38l2.1-2.44A8,8,0,0,0,204,99.22c2.28,0,3.51-1,3.51-2.58s-1.29-2.19-3.11-3l-2.77-1.21c-2-.83-4.07-2.4-4.07-5.36,0-3.21,2.83-5.67,6.78-5.67a8.94,8.94,0,0,1,6.2,2.56l-1.82,2.28a6.58,6.58,0,0,0-4.38-1.73c-1.91,0-3.18.9-3.18,2.38s1.55,2.15,3.21,2.83l2.74,1.14c2.38,1,4.07,2.53,4.07,5.46,0,3.26-2.71,6-7.24,6A10.48,10.48,0,0,1,196.66,99.38Z"></path><path class="cls-4" d="M221,81.81h12.18v3h-8.6v5.7h7.33v3h-7.33V102H221Z"></path><path class="cls-4" d="M235.37,91.8c0-6.51,3.64-10.36,8.88-10.36s8.91,3.85,8.91,10.36-3.64,10.54-8.91,10.54S235.37,98.33,235.37,91.8Zm14.09,0c0-4.5-2-7.25-5.21-7.25S239,87.3,239,91.8s2,7.42,5.21,7.42S249.46,96.33,249.46,91.8Z"></path><path class="cls-4" d="M257.19,81.81H264c4.2,0,7.4,1.48,7.4,6a5.63,5.63,0,0,1-4,5.76L272.2,102h-4l-4.35-7.89h-3.08V102h-3.58Zm6.44,9.43c2.75,0,4.26-1.17,4.26-3.45s-1.51-3.11-4.26-3.11h-2.86v6.56Z"></path><path class="cls-4" d="M275.43,81.81h4l3.58,9.86c.43,1.27.86,2.62,1.29,4h.13c.43-1.33.83-2.68,1.26-4l3.48-9.86h4.07V102H290V92.75c0-1.88.28-4.56.47-6.41h-.13L288.69,91l-3.3,9.07h-2.13L279.94,91l-1.61-4.68h-.12c.15,1.85.46,4.53.46,6.41V102h-3.24Z"></path><path class="cls-4" d="M304.28,99.07h4.38V86.19h-3.61V84a13.15,13.15,0,0,0,4.53-1.61h2.65V99.07h3.86V102H304.28Z"></path><path class="cls-4" d="M318.55,99.62l1.63-2.28a6.57,6.57,0,0,0,4.59,2.1,3.56,3.56,0,0,0,3.8-3.76A3.37,3.37,0,0,0,325,92a5,5,0,0,0-3.14,1.11L320.12,92l.59-9.68h10.48v3h-7.4l-.4,4.75a5.55,5.55,0,0,1,2.59-.65c3.36,0,6.16,1.91,6.16,6.14a6.61,6.61,0,0,1-6.9,6.75A9,9,0,0,1,318.55,99.62Z"></path><path class="cls-4" d="M334.88,96.94c0-2.43,1.7-4,3.55-5V91.8a5.62,5.62,0,0,1-2.72-4.6c0-3.17,2.53-5.21,5.92-5.21s5.77,2.13,5.77,5.31a6,6,0,0,1-2.62,4.5v.12c1.81,1,3.39,2.47,3.39,5.08,0,3-2.65,5.34-6.63,5.34C337.72,102.34,334.88,100.12,334.88,96.94Zm10-.06c0-2.13-2.07-2.9-4.72-4A4.59,4.59,0,0,0,338,96.57a3.33,3.33,0,0,0,3.6,3.24A2.92,2.92,0,0,0,344.84,96.88Zm-.37-9.37a2.78,2.78,0,0,0-2.9-3,2.54,2.54,0,0,0-2.68,2.68c0,2,1.76,2.84,3.94,3.7A4.8,4.8,0,0,0,344.47,87.51Z"></path><path class="cls-4" d="M350.17,99.56l1.69-2.28a6.41,6.41,0,0,0,4.66,2.16c2.12,0,3.6-1.11,3.6-3,0-2-1.29-3.33-5.76-3.33V90.56c3.85,0,5.12-1.32,5.12-3.14,0-1.63-1.11-2.62-2.9-2.62a5.73,5.73,0,0,0-3.95,1.85l-1.82-2.19A8.68,8.68,0,0,1,356.7,82c3.76,0,6.35,1.85,6.35,5.18,0,2.19-1.29,3.67-3.42,4.5v.13a5,5,0,0,1,4.07,4.87c0,3.57-3.12,5.67-6.88,5.67A8.51,8.51,0,0,1,350.17,99.56Z"></path><path class="cls-4" d="M237.67,24.33a16.09,16.09,0,0,0,5,10.16,14.95,14.95,0,0,0,20.31,0,16.1,16.1,0,0,0,5-10.16,14.44,14.44,0,0,1-3.88,11.26A15.41,15.41,0,0,1,259,39.2a15.49,15.49,0,0,1-12.31,0,15.3,15.3,0,0,1-5.1-3.6A14.44,14.44,0,0,1,237.67,24.33Z"></path><rect class="cls-5" x="49.75" y="47.16" width="406.11" height="456.34" rx="24.64"></rect><line class="cls-6" x1="71.65" y1="169.99" x2="92.49" y2="149.15"></line><line class="cls-6" x1="86.1" y1="181.64" x2="119.51" y2="148.24"></line><line class="cls-6" x1="433.97" y1="451.38" x2="413.13" y2="472.23"></line><line class="cls-6" x1="419.52" y1="439.73" x2="386.11" y2="473.14"></line><path class="cls-4" d="M143.66,93.12V81.81h3.57V93.4c0,4.37,1.64,5.82,4.07,5.82s4.19-1.45,4.19-5.82V81.81h3.43V93.12c0,6.63-2.93,9.22-7.62,9.22S143.66,99.75,143.66,93.12Z"></path><path class="cls-4" d="M162.24,99.38l2.1-2.44a8,8,0,0,0,5.24,2.28c2.28,0,3.51-1,3.51-2.58s-1.29-2.19-3.11-3l-2.78-1.21c-2-.83-4.06-2.4-4.06-5.36,0-3.21,2.83-5.67,6.78-5.67A8.9,8.9,0,0,1,176.11,84l-1.82,2.28a6.55,6.55,0,0,0-4.37-1.73c-1.91,0-3.18.9-3.18,2.38s1.54,2.15,3.21,2.83l2.74,1.14c2.37,1,4.07,2.53,4.07,5.46,0,3.26-2.71,6-7.24,6A10.44,10.44,0,0,1,162.24,99.38Z"></path><path class="cls-4" d="M180.42,81.81h6.35c4.47,0,7.8,1.54,7.8,6.23,0,4.46-3.33,6.53-7.67,6.53H184V102h-3.58Zm6.2,9.89c3,0,4.44-1.2,4.44-3.66s-1.57-3.36-4.56-3.36H184v7Z"></path><path class="cls-4" d="M196.66,99.38l2.1-2.44A8,8,0,0,0,204,99.22c2.28,0,3.51-1,3.51-2.58s-1.29-2.19-3.11-3l-2.77-1.21c-2-.83-4.07-2.4-4.07-5.36,0-3.21,2.83-5.67,6.78-5.67a8.94,8.94,0,0,1,6.2,2.56l-1.82,2.28a6.58,6.58,0,0,0-4.38-1.73c-1.91,0-3.18.9-3.18,2.38s1.55,2.15,3.21,2.83l2.74,1.14c2.38,1,4.07,2.53,4.07,5.46,0,3.26-2.71,6-7.24,6A10.48,10.48,0,0,1,196.66,99.38Z"></path><path class="cls-4" d="M221,81.81h12.18v3h-8.6v5.7h7.33v3h-7.33V102H221Z"></path><path class="cls-4" d="M235.37,91.8c0-6.51,3.64-10.36,8.88-10.36s8.91,3.85,8.91,10.36-3.64,10.54-8.91,10.54S235.37,98.33,235.37,91.8Zm14.09,0c0-4.5-2-7.25-5.21-7.25S239,87.3,239,91.8s2,7.42,5.21,7.42S249.46,96.33,249.46,91.8Z"></path><path class="cls-4" d="M257.19,81.81H264c4.2,0,7.4,1.48,7.4,6a5.63,5.63,0,0,1-4,5.76L272.2,102h-4l-4.35-7.89h-3.08V102h-3.58Zm6.44,9.43c2.75,0,4.26-1.17,4.26-3.45s-1.51-3.11-4.26-3.11h-2.86v6.56Z"></path><path class="cls-4" d="M275.43,81.81h4l3.58,9.86c.43,1.27.86,2.62,1.29,4h.13c.43-1.33.83-2.68,1.26-4l3.48-9.86h4.07V102H290V92.75c0-1.88.28-4.56.47-6.41h-.13L288.69,91l-3.3,9.07h-2.13L279.94,91l-1.61-4.68h-.12c.15,1.85.46,4.53.46,6.41V102h-3.24Z"></path><path class="cls-4" d="M304.28,99.07h4.38V86.19h-3.61V84a13.15,13.15,0,0,0,4.53-1.61h2.65V99.07h3.86V102H304.28Z"></path><path class="cls-4" d="M318.55,99.62l1.63-2.28a6.57,6.57,0,0,0,4.59,2.1,3.56,3.56,0,0,0,3.8-3.76A3.37,3.37,0,0,0,325,92a5,5,0,0,0-3.14,1.11L320.12,92l.59-9.68h10.48v3h-7.4l-.4,4.75a5.55,5.55,0,0,1,2.59-.65c3.36,0,6.16,1.91,6.16,6.14a6.61,6.61,0,0,1-6.9,6.75A9,9,0,0,1,318.55,99.62Z"></path><path class="cls-4" d="M334.88,96.94c0-2.43,1.7-4,3.55-5V91.8a5.62,5.62,0,0,1-2.72-4.6c0-3.17,2.53-5.21,5.92-5.21s5.77,2.13,5.77,5.31a6,6,0,0,1-2.62,4.5v.12c1.81,1,3.39,2.47,3.39,5.08,0,3-2.65,5.34-6.63,5.34C337.72,102.34,334.88,100.12,334.88,96.94Zm10-.06c0-2.13-2.07-2.9-4.72-4A4.59,4.59,0,0,0,338,96.57a3.33,3.33,0,0,0,3.6,3.24A2.92,2.92,0,0,0,344.84,96.88Zm-.37-9.37a2.78,2.78,0,0,0-2.9-3,2.54,2.54,0,0,0-2.68,2.68c0,2,1.76,2.84,3.94,3.7A4.8,4.8,0,0,0,344.47,87.51Z"></path><path class="cls-4" d="M350.17,99.56l1.69-2.28a6.41,6.41,0,0,0,4.66,2.16c2.12,0,3.6-1.11,3.6-3,0-2-1.29-3.33-5.76-3.33V90.56c3.85,0,5.12-1.32,5.12-3.14,0-1.63-1.11-2.62-2.9-2.62a5.73,5.73,0,0,0-3.95,1.85l-1.82-2.19A8.68,8.68,0,0,1,356.7,82c3.76,0,6.35,1.85,6.35,5.18,0,2.19-1.29,3.67-3.42,4.5v.13a5,5,0,0,1,4.07,4.87c0,3.57-3.12,5.67-6.88,5.67A8.51,8.51,0,0,1,350.17,99.56Z"></path><path class="cls-7" d="M51.75,71.8V478.86A22.67,22.67,0,0,0,74.39,501.5H431.22a22.66,22.66,0,0,0,22.61-21.39,26.58,26.58,0,0,1-22.45,12.38h-342a26.6,26.6,0,0,1-26.57-26.58V72.25A26.57,26.57,0,0,1,76.27,49.16H74.39A22.66,22.66,0,0,0,51.75,71.8Z"></path></g></g></svg> 