<?xml version="1.0" encoding="UTF-8"?> <svg xmlns="http://www.w3.org/2000/svg" xmlns:xlink="http://www.w3.org/1999/xlink" viewBox="0 0 553.17 395.37"><defs><style>.cls-1{fill:#191919;}.cls-2{fill:#666766;}.cls-3{fill:#999;}.cls-4{fill:gray;}.cls-5{fill:#b3b4b4;}.cls-6{isolation:isolate;}.cls-7{fill:#98c0bd;opacity:0.1;mix-blend-mode:multiply;}.cls-8{fill:#d3e1e0;}.cls-9{fill:#fff;}.cls-10{fill:#c9dbd9;}.cls-11{fill:#cd222a;}.cls-12{fill:#659a97;}.cls-13{fill:none;}</style><symbol id="scissors_blade" data-name="scissors_blade" viewBox="0 0 252.3 45.5"><path class="cls-1" d="M213.85,1H110.69c-9.83,0-15.59,5.25-19,10.81C49.07,18,45-.64,24.44,0,1.6.75-1.73,20.13.65,28.33c6.48,22.28,41.13,24.84,46.35-4,.8-4.47,4.83-6.08,9.23-4.93,16.93,4.41,35.62,3.95,42.67,4.07,8.42.14,153.4-2,153.4-2S231.53,1,213.85,1ZM23.39,38.86A15.79,15.79,0,1,1,39.18,23.07,15.79,15.79,0,0,1,23.39,38.86Z"></path><circle class="cls-2" cx="126.02" cy="12.23" r="3.19"></circle><path class="cls-3" d="M252.3,21.46s-70.12,1-115.67,1.59V17.62H248c1.17,1,2.13,1.85,2.84,2.5C251.79,21,252.3,21.46,252.3,21.46Z"></path><circle class="cls-3" cx="126.02" cy="12.23" r="2.33"></circle><path class="cls-4" d="M5,18.85a12.82,12.82,0,0,1,2.06-8.59,18,18,0,0,1,6.73-6.1,19.36,19.36,0,0,1,8.76-2.22A16.81,16.81,0,0,1,31.1,4.08a31.66,31.66,0,0,0-8.34.21A25.25,25.25,0,0,0,15.2,6.82,19.83,19.83,0,0,0,5,18.85Z"></path><path class="cls-5" d="M252.3,21.46s-70.12,1-115.67,1.59V20.12H250.87C251.79,21,252.3,21.46,252.3,21.46Z"></path><path class="cls-4" d="M135.46,3.76c5-.37,10.06-.54,15.09-.65S160.61,3,165.64,3s10.05.15,15.08.35,10.06.45,15.08.91c-5,.37-10.06.55-15.09.65S170.65,5,165.62,5s-10.05-.15-15.08-.35S140.49,4.22,135.46,3.76Z"></path></symbol></defs><g class="cls-6"><g id="Layer_2" data-name="Layer 2"><g id="WhyWeAreTaxFree_Page" data-name="WhyWeAreTaxFree Page"><ellipse class="cls-7" cx="273.46" cy="338.76" rx="273.46" ry="56.61"></ellipse><path class="cls-8" d="M65.82,16.59c6.54,12.72,12,38.08,17.35,69.14H14.45c0-27.56,14-82.8,32.39-85.62a9.79,9.79,0,0,1,3,0C54.91.91,60.32,5.88,65.82,16.59Z"></path><path class="cls-9" d="M292.53,185.61h-88c-21.76,0-18.49,45.33-19.21,85.61-.56,31.73-3.59,60.33-23.27,61.17-46.14,2-62.18-150-78.91-246.66h193C281.4,115.78,286.54,151.17,292.53,185.61Z"></path><path class="cls-9" d="M276.21,85.73h-193C77.81,54.67,72.36,29.31,65.82,16.59,60.32,5.88,54.91.91,49.8.11h193c5.11.8,10.52,5.77,16,16.48C265.39,29.31,270.84,54.67,276.21,85.73Z"></path><g id="_Path_Lines" data-name="&lt;Path&gt;Lines"><path class="cls-10" d="M159.77,302a5.69,5.69,0,0,1,2.54.38,8,8,0,0,1,2.18,1.42,13.1,13.1,0,0,0,2,1.54,4.9,4.9,0,0,0,2.3.66,5.48,5.48,0,0,0,2.35-.41,5.71,5.71,0,0,0,1.91-1.4c.57-.6,1.1-1.28,1.77-1.91a6,6,0,0,1,2.42-1.45,6.5,6.5,0,0,1,2.84-.2,6,6,0,0,1,2.67,1.08c1.52,1.11,2.57,2.44,4,2.82a4.75,4.75,0,0,0,2.16.15,4.31,4.31,0,0,0,2-.78c1.18-.8,2-2.43,3.81-3.55a6.33,6.33,0,0,1,2.89-.91,6.86,6.86,0,0,1,3,.41A8.5,8.5,0,0,1,203,301.5a15.32,15.32,0,0,0,1.84,1.52,4.14,4.14,0,0,0,1.87.64,5.23,5.23,0,0,0,2-.25,4.78,4.78,0,0,0,1.69-1.13c.54-.53,1.08-1.21,1.79-1.88a6.83,6.83,0,0,1,2.66-1.62,7.74,7.74,0,0,1,3.09-.26,6.42,6.42,0,0,1,2.95,1.14,22.59,22.59,0,0,1,2.08,1.76,4.32,4.32,0,0,0,3.69,1.34c1.4-.09,2.31-.82,3.46-2.12a11,11,0,0,1,2.17-1.94,6.36,6.36,0,0,1,3-1,7,7,0,0,1,3.12.38,8.38,8.38,0,0,1,2.55,1.65c1.35,1.27,2.3,2.18,3.62,2.29a5.4,5.4,0,0,0,2-.15,4.52,4.52,0,0,0,1.7-1c.55-.5,1.09-1.15,1.79-1.82a6.94,6.94,0,0,1,2.61-1.63,7.76,7.76,0,0,1,3.05-.32,6.45,6.45,0,0,1,2.93,1.07c1.67,1.17,2.62,2.55,3.87,3a4.75,4.75,0,0,0,4-.22c1.22-.65,2.12-2.2,3.8-3.35a6.17,6.17,0,0,1,2.82-1,6.26,6.26,0,0,1,2.93.32,7.47,7.47,0,0,1,2.44,1.54c.67.61,1.24,1.22,1.86,1.68a4.55,4.55,0,0,0,2,.91,5.44,5.44,0,0,0,2.27-.07,4.83,4.83,0,0,0,2-1.05c.62-.52,1.18-1.16,1.84-1.77a6,6,0,0,1,5-1.79,5.65,5.65,0,0,1,2.55.89,14.23,14.23,0,0,1,2,1.71,7.76,7.76,0,0,0,2,1.54,5.49,5.49,0,0,0,2.47.56,5.85,5.85,0,0,1-2.55-.37,8,8,0,0,1-2.18-1.43,13.45,13.45,0,0,0-2-1.53,4.86,4.86,0,0,0-2.31-.66,5.63,5.63,0,0,0-2.35.4,5.71,5.71,0,0,0-1.91,1.4c-.57.59-1.1,1.28-1.76,1.91a6,6,0,0,1-2.43,1.45,6.5,6.5,0,0,1-2.84.22,6.11,6.11,0,0,1-2.68-1.07c-1.54-1.11-2.58-2.44-4-2.81a4.85,4.85,0,0,0-2.15-.15,4.24,4.24,0,0,0-2,.76c-1.18.79-2,2.41-3.81,3.53a6.24,6.24,0,0,1-2.9.93,6.86,6.86,0,0,1-3-.41,8.37,8.37,0,0,1-2.46-1.63,15.19,15.19,0,0,0-1.85-1.52,4,4,0,0,0-1.87-.65,5.48,5.48,0,0,0-2,.24,4.5,4.5,0,0,0-1.68,1.12c-.54.53-1.08,1.21-1.79,1.88a6.78,6.78,0,0,1-2.66,1.63,7.71,7.71,0,0,1-3.09.27,6.41,6.41,0,0,1-3-1.13,21.12,21.12,0,0,1-2.08-1.77,4.38,4.38,0,0,0-3.7-1.35c-1.4.08-2.3.82-3.46,2.11a11.24,11.24,0,0,1-2.16,1.94,6.37,6.37,0,0,1-3,1,6.74,6.74,0,0,1-3.12-.38,8.18,8.18,0,0,1-2.55-1.64,20.74,20.74,0,0,0-1.83-1.58,3.64,3.64,0,0,0-1.8-.71,5.16,5.16,0,0,0-2,.14,4.53,4.53,0,0,0-1.71,1c-.55.49-1.09,1.15-1.79,1.81a6.92,6.92,0,0,1-2.6,1.64,7.57,7.57,0,0,1-3,.33A6.44,6.44,0,0,1,203.6,305a16.36,16.36,0,0,1-2.1-1.77,6.77,6.77,0,0,0-1.78-1.27,4.73,4.73,0,0,0-4,.2c-1.23.64-2.14,2.18-3.81,3.33a6.05,6.05,0,0,1-2.8,1,6.47,6.47,0,0,1-2.92-.3,7.24,7.24,0,0,1-2.43-1.53c-.68-.6-1.25-1.21-1.87-1.68a4.57,4.57,0,0,0-2-.91,5.74,5.74,0,0,0-2.26.07,4.78,4.78,0,0,0-2,1.06c-.61.51-1.18,1.15-1.83,1.76a6.62,6.62,0,0,1-2.3,1.49,6.44,6.44,0,0,1-2.71.31,5.46,5.46,0,0,1-2.54-.89,13.16,13.16,0,0,1-2-1.71,7.81,7.81,0,0,0-2-1.54A5.58,5.58,0,0,0,159.77,302Z"></path><path class="cls-10" d="M149.38,257.5a5.73,5.73,0,0,1,2.55.38,8.3,8.3,0,0,1,2.18,1.43,12.49,12.49,0,0,0,2,1.53,4.85,4.85,0,0,0,2.3.66,5.63,5.63,0,0,0,2.35-.4,5.78,5.78,0,0,0,1.91-1.41c.57-.59,1.1-1.28,1.77-1.91a6.16,6.16,0,0,1,2.43-1.45,6.59,6.59,0,0,1,2.83-.2,5.94,5.94,0,0,1,2.67,1.09c1.53,1.11,2.57,2.43,4,2.82a4.89,4.89,0,0,0,2.16.14,4.25,4.25,0,0,0,2-.77c1.19-.81,2-2.44,3.81-3.55a6.22,6.22,0,0,1,2.9-.92,6.76,6.76,0,0,1,3,.42,8.36,8.36,0,0,1,2.45,1.62,15,15,0,0,0,1.84,1.52,4.15,4.15,0,0,0,1.88.65,5.4,5.4,0,0,0,2-.26,4.37,4.37,0,0,0,1.69-1.13c.54-.53,1.09-1.21,1.79-1.88a7,7,0,0,1,2.66-1.62,7.59,7.59,0,0,1,3.1-.25,6.27,6.27,0,0,1,2.94,1.13,22.59,22.59,0,0,1,2.08,1.76,4.38,4.38,0,0,0,3.7,1.35c1.39-.09,2.3-.82,3.46-2.13a10.89,10.89,0,0,1,2.16-1.93,6.34,6.34,0,0,1,3-1,6.87,6.87,0,0,1,3.12.39,8.08,8.08,0,0,1,2.55,1.65c1.36,1.26,2.3,2.17,3.63,2.28a5.16,5.16,0,0,0,2-.15,4.63,4.63,0,0,0,1.7-1c.55-.5,1.1-1.16,1.79-1.82a7,7,0,0,1,2.61-1.64,7.81,7.81,0,0,1,3.06-.32,6.58,6.58,0,0,1,2.92,1.07c1.67,1.17,2.62,2.56,3.87,3a4.75,4.75,0,0,0,4-.23c1.22-.65,2.13-2.19,3.8-3.34a6.07,6.07,0,0,1,2.82-1,6.57,6.57,0,0,1,2.94.32,7.42,7.42,0,0,1,2.43,1.54c.67.61,1.24,1.22,1.86,1.69a4.52,4.52,0,0,0,2,.9,5.55,5.55,0,0,0,2.26-.06,4.89,4.89,0,0,0,2-1.06c.61-.51,1.18-1.16,1.83-1.77a6.64,6.64,0,0,1,2.31-1.48,6.39,6.39,0,0,1,2.7-.31,5.73,5.73,0,0,1,2.55.89,13.73,13.73,0,0,1,2,1.72,8.28,8.28,0,0,0,2,1.54,5.72,5.72,0,0,0,2.46.56,5.71,5.71,0,0,1-2.55-.38,8.53,8.53,0,0,1-2.18-1.42,13.53,13.53,0,0,0-2-1.54,5,5,0,0,0-2.31-.66,5.58,5.58,0,0,0-2.34.4,5.52,5.52,0,0,0-1.91,1.4c-.57.6-1.1,1.28-1.77,1.91a6.07,6.07,0,0,1-2.43,1.46,6.61,6.61,0,0,1-2.83.21,6,6,0,0,1-2.69-1.07c-1.53-1.11-2.58-2.43-4-2.81a4.7,4.7,0,0,0-2.15-.14,4.13,4.13,0,0,0-1.95.75c-1.18.79-2.05,2.41-3.82,3.54a6.22,6.22,0,0,1-2.9.92,6.9,6.9,0,0,1-3-.41,8.48,8.48,0,0,1-2.46-1.62,16.13,16.13,0,0,0-1.84-1.53,4.08,4.08,0,0,0-1.88-.65,5.4,5.4,0,0,0-2,.24,4.49,4.49,0,0,0-1.69,1.13c-.54.53-1.08,1.2-1.79,1.88A6.84,6.84,0,0,1,237,259.8a7.74,7.74,0,0,1-3.09.27,6.34,6.34,0,0,1-3-1.13,22.59,22.59,0,0,1-2.08-1.76,4.35,4.35,0,0,0-3.69-1.36c-1.4.09-2.31.82-3.47,2.12a11.44,11.44,0,0,1-2.15,1.93,6.34,6.34,0,0,1-3,1,6.87,6.87,0,0,1-3.12-.37,8.11,8.11,0,0,1-2.56-1.64,19.42,19.42,0,0,0-1.83-1.59,3.84,3.84,0,0,0-1.8-.71,5,5,0,0,0-2,.15,4.46,4.46,0,0,0-1.7,1c-.55.5-1.1,1.15-1.79,1.81a7.15,7.15,0,0,1-2.6,1.65,8,8,0,0,1-3.05.33,6.56,6.56,0,0,1-2.93-1.06,16.38,16.38,0,0,1-2.1-1.78,6.61,6.61,0,0,0-1.78-1.27,4.77,4.77,0,0,0-4,.2c-1.23.65-2.14,2.19-3.8,3.33a6.15,6.15,0,0,1-2.81,1,6.49,6.49,0,0,1-2.92-.31,7.32,7.32,0,0,1-2.43-1.52c-.67-.61-1.25-1.22-1.87-1.68a4.43,4.43,0,0,0-2-.91,5.44,5.44,0,0,0-2.27.07,4.75,4.75,0,0,0-2,1.05c-.61.51-1.17,1.16-1.83,1.77a6.6,6.6,0,0,1-2.3,1.48,6.23,6.23,0,0,1-2.7.31,5.6,5.6,0,0,1-2.55-.88,12.67,12.67,0,0,1-2-1.72,8.28,8.28,0,0,0-2-1.54A5.72,5.72,0,0,0,149.38,257.5Z"></path><path class="cls-10" d="M139,213a5.85,5.85,0,0,1,2.55.37,8.56,8.56,0,0,1,2.18,1.43,14.24,14.24,0,0,0,2,1.54A5.09,5.09,0,0,0,148,217a5.75,5.75,0,0,0,2.34-.41,5.52,5.52,0,0,0,1.91-1.4c.57-.6,1.1-1.29,1.77-1.92a6,6,0,0,1,2.43-1.44,6.47,6.47,0,0,1,2.83-.21A6,6,0,0,1,162,212.7c1.53,1.11,2.57,2.44,4,2.82a4.65,4.65,0,0,0,2.17.14,4.26,4.26,0,0,0,2-.77c1.19-.8,2.05-2.43,3.82-3.55a6.3,6.3,0,0,1,2.89-.92,7,7,0,0,1,3,.42,8.56,8.56,0,0,1,2.45,1.62A14.31,14.31,0,0,0,184.1,214a4,4,0,0,0,1.87.65,5.45,5.45,0,0,0,2-.25,4.57,4.57,0,0,0,1.68-1.14c.54-.53,1.09-1.2,1.8-1.88a6.88,6.88,0,0,1,2.66-1.62,7.7,7.7,0,0,1,3.09-.25,6.42,6.42,0,0,1,3,1.14,23.76,23.76,0,0,1,2.07,1.76,4.35,4.35,0,0,0,3.7,1.34c1.4-.09,2.3-.82,3.46-2.12a11.21,11.21,0,0,1,2.16-1.94,6.43,6.43,0,0,1,3-1,7,7,0,0,1,3.12.38,8.21,8.21,0,0,1,2.54,1.65c1.36,1.27,2.31,2.17,3.63,2.29a5.35,5.35,0,0,0,2-.16,4.49,4.49,0,0,0,1.7-1c.55-.5,1.1-1.16,1.79-1.82a6.9,6.9,0,0,1,2.61-1.63A7.81,7.81,0,0,1,235,208a6.46,6.46,0,0,1,2.92,1.07c1.67,1.17,2.63,2.55,3.88,3a4.73,4.73,0,0,0,4-.22c1.22-.65,2.13-2.2,3.8-3.35a6.73,6.73,0,0,1,5.76-.67,7,7,0,0,1,2.43,1.54c.68.61,1.25,1.21,1.86,1.68a4.53,4.53,0,0,0,2,.91A5.55,5.55,0,0,0,264,212a4.78,4.78,0,0,0,2-1.06c.62-.51,1.18-1.15,1.83-1.76a6.5,6.5,0,0,1,2.31-1.48,6.42,6.42,0,0,1,2.71-.31,5.5,5.5,0,0,1,2.54.89,13.16,13.16,0,0,1,2,1.71,7.81,7.81,0,0,0,2,1.54,5.72,5.72,0,0,0,2.46.56,5.89,5.89,0,0,1-2.55-.37,8.56,8.56,0,0,1-2.18-1.43,14.24,14.24,0,0,0-2-1.54,5.09,5.09,0,0,0-2.3-.66,5.63,5.63,0,0,0-2.35.41,5.52,5.52,0,0,0-1.91,1.4c-.57.59-1.1,1.28-1.77,1.91a6.08,6.08,0,0,1-2.42,1.45,6.82,6.82,0,0,1-2.84.22,5.92,5.92,0,0,1-2.68-1.08c-1.54-1.11-2.59-2.43-4-2.81a5,5,0,0,0-2.15-.14,4.34,4.34,0,0,0-2,.75c-1.18.79-2.05,2.42-3.81,3.54a6.39,6.39,0,0,1-2.9.93,6.79,6.79,0,0,1-3-.42,8.42,8.42,0,0,1-2.46-1.62,16,16,0,0,0-1.84-1.52,4.17,4.17,0,0,0-1.87-.66,5.45,5.45,0,0,0-2,.25,4.54,4.54,0,0,0-1.69,1.12c-.54.53-1.08,1.21-1.78,1.88a7,7,0,0,1-2.66,1.63,7.74,7.74,0,0,1-3.09.26,6.48,6.48,0,0,1-3-1.12,22.57,22.57,0,0,1-2.08-1.77,4.36,4.36,0,0,0-3.69-1.35c-1.4.08-2.31.81-3.46,2.11a11.55,11.55,0,0,1-2.16,1.94,6.49,6.49,0,0,1-3,1,7,7,0,0,1-3.12-.38,8.06,8.06,0,0,1-2.55-1.64,22,22,0,0,0-1.83-1.58,3.75,3.75,0,0,0-1.8-.72,5.33,5.33,0,0,0-2,.15,4.43,4.43,0,0,0-1.71,1c-.55.5-1.1,1.16-1.79,1.82a6.92,6.92,0,0,1-2.6,1.64,7.59,7.59,0,0,1-3.05.33,6.44,6.44,0,0,1-2.93-1.06,17.1,17.1,0,0,1-2.1-1.78,6.79,6.79,0,0,0-1.78-1.26,4.74,4.74,0,0,0-4,.2c-1.23.64-2.14,2.18-3.8,3.33a6.13,6.13,0,0,1-2.81,1,6.45,6.45,0,0,1-2.91-.31,7.11,7.11,0,0,1-2.44-1.52c-.67-.6-1.25-1.21-1.86-1.68a4.62,4.62,0,0,0-2-.91,5.55,5.55,0,0,0-2.26.07,4.81,4.81,0,0,0-2,1.05c-.62.52-1.18,1.16-1.83,1.77a6.5,6.5,0,0,1-2.31,1.48,6.24,6.24,0,0,1-2.7.32,5.61,5.61,0,0,1-2.55-.89,13.68,13.68,0,0,1-2-1.71,7.94,7.94,0,0,0-2-1.54A5.52,5.52,0,0,0,139,213Z"></path><path class="cls-10" d="M128.6,168.47a5.71,5.71,0,0,1,2.55.38,8,8,0,0,1,2.18,1.43,14.16,14.16,0,0,0,2,1.53,5,5,0,0,0,2.31.66,5.48,5.48,0,0,0,2.35-.41,5.58,5.58,0,0,0,1.9-1.4c.57-.59,1.11-1.28,1.77-1.91a6,6,0,0,1,2.43-1.45,6.5,6.5,0,0,1,2.84-.2,6.09,6.09,0,0,1,2.67,1.08c1.52,1.12,2.57,2.44,4,2.83a5,5,0,0,0,2.17.14,4.29,4.29,0,0,0,2-.77c1.18-.81,2-2.44,3.81-3.56a6.33,6.33,0,0,1,2.89-.91,6.72,6.72,0,0,1,3,.42,8.1,8.1,0,0,1,2.45,1.62,16.19,16.19,0,0,0,1.85,1.52,4.15,4.15,0,0,0,1.87.65,5.43,5.43,0,0,0,2-.26,4.53,4.53,0,0,0,1.68-1.13c.55-.53,1.09-1.21,1.8-1.88a6.83,6.83,0,0,1,2.66-1.62,7.72,7.72,0,0,1,3.09-.26,6.42,6.42,0,0,1,2.95,1.14,22.59,22.59,0,0,1,2.08,1.76,4.35,4.35,0,0,0,3.69,1.35c1.4-.09,2.31-.83,3.46-2.13a11,11,0,0,1,2.17-1.94,6.36,6.36,0,0,1,3-1,6.88,6.88,0,0,1,3.12.39,8.36,8.36,0,0,1,2.55,1.64c1.35,1.27,2.3,2.18,3.62,2.29a5.13,5.13,0,0,0,2-.15,4.45,4.45,0,0,0,1.7-1c.56-.49,1.1-1.15,1.8-1.81a7,7,0,0,1,2.61-1.64,7.76,7.76,0,0,1,3.05-.32,6.37,6.37,0,0,1,2.92,1.07c1.68,1.17,2.63,2.55,3.88,3a4.79,4.79,0,0,0,4-.23c1.22-.65,2.12-2.19,3.8-3.34a6.07,6.07,0,0,1,2.82-1,6.39,6.39,0,0,1,2.93.32,7.47,7.47,0,0,1,2.44,1.54c.67.61,1.24,1.22,1.86,1.68a4.44,4.44,0,0,0,2,.91,5.6,5.6,0,0,0,2.27-.06,5,5,0,0,0,2-1.06c.62-.51,1.18-1.16,1.83-1.77a6.73,6.73,0,0,1,2.31-1.48,6.44,6.44,0,0,1,2.71-.31,5.57,5.57,0,0,1,2.54.89,13.76,13.76,0,0,1,2,1.71,7.85,7.85,0,0,0,2,1.55,5.62,5.62,0,0,0,2.47.55,5.7,5.7,0,0,1-2.55-.37,8.19,8.19,0,0,1-2.19-1.43,13.1,13.1,0,0,0-2-1.53,4.82,4.82,0,0,0-2.3-.66,5.17,5.17,0,0,0-4.26,1.8c-.57.59-1.1,1.28-1.77,1.91a6,6,0,0,1-2.42,1.46,6.65,6.65,0,0,1-2.84.21,6.11,6.11,0,0,1-2.68-1.07c-1.54-1.11-2.58-2.43-4-2.81a4.71,4.71,0,0,0-2.15-.14,4.13,4.13,0,0,0-2,.75c-1.18.79-2,2.41-3.81,3.54a6.22,6.22,0,0,1-2.9.92,6.86,6.86,0,0,1-3-.41,8.35,8.35,0,0,1-2.46-1.62,16.16,16.16,0,0,0-1.85-1.53,4,4,0,0,0-1.87-.65,5.45,5.45,0,0,0-2,.24,4.42,4.42,0,0,0-1.68,1.13c-.54.52-1.09,1.2-1.79,1.87a6.78,6.78,0,0,1-2.66,1.63,7.71,7.71,0,0,1-3.09.27,6.41,6.41,0,0,1-2.95-1.13,22.83,22.83,0,0,1-2.09-1.76,4.33,4.33,0,0,0-3.69-1.36c-1.4.08-2.3.82-3.46,2.11a10.92,10.92,0,0,1-2.16,1.94,6.37,6.37,0,0,1-3,1,6.87,6.87,0,0,1-3.12-.37,8.38,8.38,0,0,1-2.55-1.65,22.29,22.29,0,0,0-1.83-1.58,3.84,3.84,0,0,0-1.8-.71,5.16,5.16,0,0,0-2,.14,4.66,4.66,0,0,0-1.71,1c-.55.49-1.1,1.15-1.79,1.81a6.92,6.92,0,0,1-2.6,1.64,7.76,7.76,0,0,1-3,.34,6.64,6.64,0,0,1-2.92-1.06,18.19,18.19,0,0,1-2.11-1.78,6.58,6.58,0,0,0-1.77-1.27,4.77,4.77,0,0,0-4,.2c-1.23.65-2.15,2.19-3.81,3.33a6.26,6.26,0,0,1-2.81,1,6.45,6.45,0,0,1-2.91-.31,7.09,7.09,0,0,1-2.43-1.53c-.68-.6-1.25-1.21-1.87-1.67a4.51,4.51,0,0,0-2-.91,5.55,5.55,0,0,0-2.26.06,4.89,4.89,0,0,0-2,1.06c-.62.51-1.18,1.15-1.83,1.76a6.57,6.57,0,0,1-2.3,1.49,6.28,6.28,0,0,1-2.71.31,5.54,5.54,0,0,1-2.55-.89,13.59,13.59,0,0,1-2-1.71,7.81,7.81,0,0,0-2-1.54A5.77,5.77,0,0,0,128.6,168.47Z"></path><path class="cls-10" d="M118.22,124a5.74,5.74,0,0,1,2.55.37,8.3,8.3,0,0,1,2.18,1.43,13.18,13.18,0,0,0,2,1.54,4.92,4.92,0,0,0,2.3.65,5.14,5.14,0,0,0,4.26-1.81c.57-.59,1.1-1.28,1.77-1.91a6.16,6.16,0,0,1,2.43-1.45,6.59,6.59,0,0,1,2.83-.2,6.06,6.06,0,0,1,2.67,1.09c1.53,1.11,2.57,2.43,4,2.82a4.75,4.75,0,0,0,2.16.14,4.29,4.29,0,0,0,2-.77c1.18-.81,2-2.43,3.81-3.55a6.34,6.34,0,0,1,2.9-.92,6.76,6.76,0,0,1,3,.42,8.36,8.36,0,0,1,2.45,1.62,15,15,0,0,0,1.84,1.52,4.15,4.15,0,0,0,1.88.65,5.61,5.61,0,0,0,2-.25,4.52,4.52,0,0,0,1.69-1.14c.54-.53,1.08-1.21,1.79-1.88a7,7,0,0,1,2.66-1.62,7.55,7.55,0,0,1,3.09-.25,6.41,6.41,0,0,1,3,1.13,22.57,22.57,0,0,1,2.08,1.77,4.34,4.34,0,0,0,3.69,1.34c1.4-.09,2.31-.82,3.46-2.13a11.29,11.29,0,0,1,2.17-1.93,6.41,6.41,0,0,1,3-1,6.88,6.88,0,0,1,3.12.39,8.26,8.26,0,0,1,2.55,1.65c1.36,1.27,2.3,2.17,3.63,2.28a5.16,5.16,0,0,0,2-.15,4.49,4.49,0,0,0,1.7-1c.55-.5,1.1-1.16,1.79-1.82a7,7,0,0,1,2.61-1.64,8,8,0,0,1,3-.32,6.58,6.58,0,0,1,2.93,1.08c1.67,1.16,2.62,2.55,3.87,3a4.71,4.71,0,0,0,4-.23c1.22-.65,2.13-2.19,3.8-3.34a6.18,6.18,0,0,1,2.82-1,6.58,6.58,0,0,1,2.94.32,7.39,7.39,0,0,1,2.43,1.55c.67.6,1.24,1.21,1.86,1.68a4.53,4.53,0,0,0,2,.91,5.55,5.55,0,0,0,2.26-.07,4.89,4.89,0,0,0,2-1.06c.61-.51,1.17-1.15,1.83-1.76a6,6,0,0,1,5-1.79,5.5,5.5,0,0,1,2.55.89,13.68,13.68,0,0,1,2,1.71,8.18,8.18,0,0,0,2,1.54A5.8,5.8,0,0,0,261,123a5.71,5.71,0,0,1-2.55-.38,8.11,8.11,0,0,1-2.18-1.42,14.24,14.24,0,0,0-2-1.54A5,5,0,0,0,252,119a5.51,5.51,0,0,0-2.35.41,5.68,5.68,0,0,0-1.9,1.39c-.57.6-1.1,1.29-1.77,1.92a6.16,6.16,0,0,1-2.43,1.45,6.65,6.65,0,0,1-2.84.21,5.88,5.88,0,0,1-2.68-1.07c-1.53-1.11-2.58-2.43-4-2.81a4.84,4.84,0,0,0-2.15-.14,4.3,4.3,0,0,0-2,.75c-1.19.79-2,2.42-3.82,3.54a6.22,6.22,0,0,1-2.9.92,6.72,6.72,0,0,1-3-.41,8.28,8.28,0,0,1-2.46-1.62A15.35,15.35,0,0,0,215.9,122a4,4,0,0,0-1.87-.65,5.4,5.4,0,0,0-2,.24,4.61,4.61,0,0,0-1.69,1.13c-.54.53-1.08,1.21-1.79,1.88a6.86,6.86,0,0,1-2.65,1.63,7.77,7.77,0,0,1-3.1.26,6.34,6.34,0,0,1-2.95-1.13,22.59,22.59,0,0,1-2.08-1.76,4.35,4.35,0,0,0-3.69-1.36c-1.4.09-2.31.82-3.47,2.12a11.44,11.44,0,0,1-2.15,1.93,6.46,6.46,0,0,1-3,1,7,7,0,0,1-3.11-.38,8.11,8.11,0,0,1-2.56-1.64,21,21,0,0,0-1.83-1.59,3.84,3.84,0,0,0-1.8-.71,5.16,5.16,0,0,0-2,.15,4.46,4.46,0,0,0-1.7,1c-.56.5-1.1,1.15-1.79,1.81a7.24,7.24,0,0,1-2.6,1.65A8,8,0,0,1,165,128a6.44,6.44,0,0,1-2.92-1.06,16.38,16.38,0,0,1-2.1-1.78,6.56,6.56,0,0,0-1.78-1.26,4.73,4.73,0,0,0-4,.2c-1.23.64-2.14,2.18-3.8,3.32a6,6,0,0,1-2.81,1,6.48,6.48,0,0,1-2.92-.31,7.32,7.32,0,0,1-2.43-1.52c-.67-.61-1.25-1.21-1.87-1.68a4.58,4.58,0,0,0-2-.91,5.61,5.61,0,0,0-2.27.07,4.87,4.87,0,0,0-2,1c-.61.51-1.18,1.16-1.83,1.77a6.07,6.07,0,0,1-5,1.8,5.61,5.61,0,0,1-2.54-.89,13.16,13.16,0,0,1-2-1.71,8.08,8.08,0,0,0-2-1.55A5.57,5.57,0,0,0,118.22,124Z"></path><path class="cls-10" d="M107.83,79.44a5.71,5.71,0,0,1,2.55.38,8.27,8.27,0,0,1,2.18,1.42,13.53,13.53,0,0,0,2,1.54,5,5,0,0,0,2.3.66,5.45,5.45,0,0,0,2.35-.41,5.52,5.52,0,0,0,1.91-1.4c.57-.6,1.1-1.28,1.77-1.91a5.94,5.94,0,0,1,2.43-1.45,6.44,6.44,0,0,1,2.83-.2,5.88,5.88,0,0,1,2.67,1.08c1.53,1.11,2.57,2.44,4,2.82a4.78,4.78,0,0,0,2.17.15,4.27,4.27,0,0,0,2-.78c1.19-.8,2.05-2.43,3.81-3.55a6.33,6.33,0,0,1,2.9-.91,6.88,6.88,0,0,1,3,.41,8.78,8.78,0,0,1,2.45,1.62,16.13,16.13,0,0,0,1.84,1.53,4.18,4.18,0,0,0,1.88.64,5.2,5.2,0,0,0,2-.25,4.61,4.61,0,0,0,1.69-1.13c.54-.53,1.09-1.21,1.8-1.88A6.72,6.72,0,0,1,163,76.2a7.77,7.77,0,0,1,3.1-.26A6.34,6.34,0,0,1,169,77.08a22.59,22.59,0,0,1,2.08,1.76,4.35,4.35,0,0,0,3.7,1.34c1.39-.09,2.3-.82,3.46-2.12a11.21,11.21,0,0,1,2.16-1.94,6.43,6.43,0,0,1,3-1,7,7,0,0,1,3.12.38,8.21,8.21,0,0,1,2.54,1.65c1.36,1.27,2.3,2.18,3.63,2.29a5.36,5.36,0,0,0,2-.15,4.66,4.66,0,0,0,1.7-1c.55-.5,1.1-1.15,1.79-1.82a7,7,0,0,1,2.61-1.63,7.81,7.81,0,0,1,3.06-.32,6.46,6.46,0,0,1,2.92,1.07c1.67,1.17,2.63,2.55,3.87,3a4.75,4.75,0,0,0,4-.22c1.22-.65,2.13-2.2,3.8-3.35a6.73,6.73,0,0,1,5.76-.67,7.42,7.42,0,0,1,2.43,1.54c.67.61,1.25,1.22,1.86,1.68a4.53,4.53,0,0,0,2,.91,5.38,5.38,0,0,0,2.26-.07,4.78,4.78,0,0,0,2-1.06c.61-.51,1.18-1.15,1.83-1.76a6.5,6.5,0,0,1,2.31-1.48,6.39,6.39,0,0,1,2.7-.31,5.61,5.61,0,0,1,2.55.89,13.68,13.68,0,0,1,2,1.71,7.81,7.81,0,0,0,2,1.54,5.45,5.45,0,0,0,2.46.56,5.89,5.89,0,0,1-2.55-.37,8.3,8.3,0,0,1-2.18-1.43,13.45,13.45,0,0,0-2-1.53,4.85,4.85,0,0,0-2.3-.66,5.63,5.63,0,0,0-2.35.4,5.52,5.52,0,0,0-1.91,1.4c-.57.59-1.1,1.28-1.77,1.91a6,6,0,0,1-2.43,1.45,6.45,6.45,0,0,1-2.83.22,6,6,0,0,1-2.69-1.08c-1.53-1.11-2.58-2.43-4-2.8a4.8,4.8,0,0,0-2.14-.15,4.24,4.24,0,0,0-2,.76c-1.18.79-2.05,2.41-3.81,3.53a6.27,6.27,0,0,1-2.9.93,6.79,6.79,0,0,1-3-.42A8.42,8.42,0,0,1,207.36,79a16,16,0,0,0-1.84-1.52,4.08,4.08,0,0,0-1.88-.65,5.4,5.4,0,0,0-2,.24,4.46,4.46,0,0,0-1.69,1.12c-.54.53-1.08,1.21-1.79,1.88a6.74,6.74,0,0,1-2.65,1.63,7.74,7.74,0,0,1-3.09.27,6.45,6.45,0,0,1-3-1.13,21.12,21.12,0,0,1-2.08-1.77,4.36,4.36,0,0,0-3.69-1.35c-1.4.08-2.31.82-3.46,2.11a11.55,11.55,0,0,1-2.16,1.94,6.52,6.52,0,0,1-3,1,6.88,6.88,0,0,1-3.12-.38,8,8,0,0,1-2.55-1.64,24.09,24.09,0,0,0-1.83-1.58,3.67,3.67,0,0,0-1.8-.71,5.2,5.2,0,0,0-2,.14,4.49,4.49,0,0,0-1.7,1c-.55.49-1.1,1.15-1.79,1.81a6.92,6.92,0,0,1-2.6,1.64,7.61,7.61,0,0,1-3,.33,6.44,6.44,0,0,1-2.93-1.06,16.36,16.36,0,0,1-2.1-1.77,6.61,6.61,0,0,0-1.78-1.27,4.74,4.74,0,0,0-4,.2c-1.23.64-2.14,2.18-3.8,3.33a6.13,6.13,0,0,1-2.81,1,6.5,6.5,0,0,1-2.92-.3A7.34,7.34,0,0,1,131.81,82c-.67-.6-1.25-1.21-1.87-1.68a4.53,4.53,0,0,0-2-.91,5.73,5.73,0,0,0-2.26.07,4.72,4.72,0,0,0-2,1.06c-.62.51-1.18,1.15-1.83,1.76a6.66,6.66,0,0,1-2.31,1.49,6.39,6.39,0,0,1-2.7.31,5.5,5.5,0,0,1-2.55-.89,13.68,13.68,0,0,1-2-1.71,7.94,7.94,0,0,0-2-1.54A5.66,5.66,0,0,0,107.83,79.44Z"></path></g><path class="cls-8" d="M162.08,332.39c44.66-1.92,3.59-146.78,42.48-146.78h193c-38.89,0,2.18,144.86-42.48,146.78"></path><path class="cls-8" d="M503.61,359.47h-193c8.54,0,15-8.6,12.74-23.89h193C518.65,350.87,512.15,359.47,503.61,359.47Z"></path><use width="252.3" height="45.5" transform="matrix(-0.7, 0.83, -0.7, -0.8, 524.56, 59.94)" xlink:href="#scissors_blade"></use><path class="cls-9" d="M323.32,335.58c2.3,15.29-4.2,23.89-12.74,23.89-6.07,0-13.16-4.34-18.87-13.69a55.57,55.57,0,0,1-3.92-7.8c-.3-.73-.62-1.53-1-2.4-12-31.41-44.43-150-82.28-150H386.08l-51.27,15.84s75.34-11.66,76.54-10.79c31.79,22.94,58,117.39,68.52,144.92Z"></path><use width="252.3" height="45.5" transform="matrix(-0.98, 0.23, 0.19, 1.13, 548.47, 111.84)" xlink:href="#scissors_blade"></use><g id="_Path_Lines-2" data-name="&lt;Path&gt;Lines"><path class="cls-10" d="M312.5,317.86a5.65,5.65,0,0,1,2.53.41,8.11,8.11,0,0,1,2.16,1.45,13,13,0,0,0,2,1.55,4.88,4.88,0,0,0,2.29.68,5.44,5.44,0,0,0,2.34-.38,5.65,5.65,0,0,0,1.91-1.38c.57-.59,1.1-1.27,1.77-1.89a6,6,0,0,1,2.43-1.43,6.45,6.45,0,0,1,2.83-.17,6,6,0,0,1,2.65,1.11c1.5,1.13,2.53,2.46,3.9,2.86a4.71,4.71,0,0,0,2.15.16,4.13,4.13,0,0,0,2-.75c1.19-.79,2.06-2.41,3.83-3.51a6.3,6.3,0,0,1,2.89-.89,6.87,6.87,0,0,1,3,.45,8.47,8.47,0,0,1,2.42,1.65,15.4,15.4,0,0,0,1.82,1.54,4.05,4.05,0,0,0,1.85.66,5.4,5.4,0,0,0,2-.23,4.47,4.47,0,0,0,1.68-1.11c.55-.53,1.09-1.2,1.8-1.86a6.8,6.8,0,0,1,2.66-1.6,7.72,7.72,0,0,1,3.09-.23,6.57,6.57,0,0,1,2.93,1.17,23.41,23.41,0,0,1,2.05,1.79,4.26,4.26,0,0,0,3.65,1.37c1.39-.07,2.3-.79,3.46-2.08a10.94,10.94,0,0,1,2.17-1.92,6.35,6.35,0,0,1,3-1,6.85,6.85,0,0,1,3.11.42,8.14,8.14,0,0,1,2.52,1.67,19.65,19.65,0,0,0,1.8,1.6,3.74,3.74,0,0,0,1.78.72,5.24,5.24,0,0,0,2-.13,4.46,4.46,0,0,0,1.7-1c.55-.49,1.1-1.14,1.8-1.79a6.88,6.88,0,0,1,2.61-1.62,7.79,7.79,0,0,1,3.06-.29A6.51,6.51,0,0,1,411,315c1.65,1.18,2.58,2.57,3.82,3.07a4.68,4.68,0,0,0,4-.19c1.22-.64,2.13-2.17,3.81-3.3a6,6,0,0,1,2.82-1,6.23,6.23,0,0,1,2.92.35,7.4,7.4,0,0,1,2.41,1.57c.66.61,1.22,1.22,1.83,1.7a4.44,4.44,0,0,0,2,.92,5.33,5.33,0,0,0,2.25,0,4.85,4.85,0,0,0,2-1c.62-.5,1.18-1.14,1.84-1.74a6.37,6.37,0,0,1,2.31-1.46,6.22,6.22,0,0,1,2.7-.28,5.52,5.52,0,0,1,2.52.91,13.6,13.6,0,0,1,1.95,1.73,7.75,7.75,0,0,0,2,1.56,5.4,5.4,0,0,0,2.45.59A5.85,5.85,0,0,1,452,318a8.47,8.47,0,0,1-2.15-1.45,13.62,13.62,0,0,0-2-1.55,4.89,4.89,0,0,0-2.28-.69,5.13,5.13,0,0,0-4.25,1.76c-.57.59-1.11,1.27-1.78,1.89a5.93,5.93,0,0,1-2.42,1.43,6.46,6.46,0,0,1-2.83.19,6.07,6.07,0,0,1-2.67-1.1c-1.51-1.13-2.54-2.46-3.9-2.85a4.79,4.79,0,0,0-2.14-.16,4.21,4.21,0,0,0-1.95.73c-1.18.78-2.05,2.39-3.82,3.5a6.22,6.22,0,0,1-2.9.89,6.84,6.84,0,0,1-3-.44,8.25,8.25,0,0,1-2.43-1.65,15.4,15.4,0,0,0-1.82-1.54,4,4,0,0,0-1.85-.67,5.2,5.2,0,0,0-2,.22,4.47,4.47,0,0,0-1.68,1.11c-.55.52-1.09,1.19-1.8,1.86a6.77,6.77,0,0,1-2.66,1.6,7.48,7.48,0,0,1-3.08.23,6.26,6.26,0,0,1-2.94-1.16,21.87,21.87,0,0,1-2-1.78A4.28,4.28,0,0,0,388,317c-1.39.07-2.3.79-3.46,2.07a11.15,11.15,0,0,1-2.16,1.92,6.29,6.29,0,0,1-3,1,6.71,6.71,0,0,1-3.11-.41,8.17,8.17,0,0,1-2.53-1.66,21.56,21.56,0,0,0-1.8-1.61,3.74,3.74,0,0,0-1.78-.72,5.12,5.12,0,0,0-2,.12,4.43,4.43,0,0,0-1.7,1c-.55.49-1.1,1.14-1.79,1.79a7.13,7.13,0,0,1-2.61,1.62,7.75,7.75,0,0,1-3.05.3,6.36,6.36,0,0,1-2.9-1.09,16,16,0,0,1-2.07-1.8,6.44,6.44,0,0,0-1.76-1.28,4.67,4.67,0,0,0-4,.16c-1.23.63-2.15,2.16-3.81,3.29a6.09,6.09,0,0,1-2.81,1,6.4,6.4,0,0,1-2.9-.33,7.35,7.35,0,0,1-2.41-1.55c-.66-.61-1.23-1.23-1.84-1.7a4.61,4.61,0,0,0-2-.93,5.51,5.51,0,0,0-2.25.05,4.71,4.71,0,0,0-2,1c-.62.51-1.18,1.14-1.84,1.75a6.55,6.55,0,0,1-2.3,1.46,6.38,6.38,0,0,1-2.7.29,5.57,5.57,0,0,1-2.53-.92,14.09,14.09,0,0,1-1.95-1.73,7.75,7.75,0,0,0-2-1.56A5.74,5.74,0,0,0,312.5,317.86Z"></path><path class="cls-10" d="M289.94,273.35a5.82,5.82,0,0,1,2.54.4,8.47,8.47,0,0,1,2.15,1.45,15,15,0,0,0,2,1.56,5,5,0,0,0,2.29.68,5.18,5.18,0,0,0,4.25-1.77c.57-.59,1.11-1.27,1.78-1.89a6,6,0,0,1,2.43-1.43,6.59,6.59,0,0,1,2.83-.17,6,6,0,0,1,2.64,1.12c1.51,1.12,2.53,2.45,3.91,2.86a4.7,4.7,0,0,0,2.15.16,4.34,4.34,0,0,0,2-.75c1.18-.8,2.05-2.41,3.82-3.51a6.18,6.18,0,0,1,2.9-.89,6.66,6.66,0,0,1,3,.45,8.18,8.18,0,0,1,2.42,1.64,14.5,14.5,0,0,0,1.82,1.54,4.15,4.15,0,0,0,1.86.67,5.35,5.35,0,0,0,2-.24,4.58,4.58,0,0,0,1.69-1.11c.54-.52,1.09-1.2,1.8-1.86a6.92,6.92,0,0,1,2.66-1.6,7.54,7.54,0,0,1,3.09-.22,6.31,6.31,0,0,1,2.92,1.17,21.87,21.87,0,0,1,2.05,1.78,4.32,4.32,0,0,0,3.66,1.38c1.38-.08,2.29-.8,3.45-2.09a10.91,10.91,0,0,1,2.17-1.91,6.3,6.3,0,0,1,3-1,6.87,6.87,0,0,1,3.11.42,8.27,8.27,0,0,1,2.51,1.67,21.07,21.07,0,0,0,1.8,1.6,3.68,3.68,0,0,0,1.78.72,4.92,4.92,0,0,0,2-.13,4.56,4.56,0,0,0,1.7-1c.55-.49,1.1-1.15,1.8-1.8a6.9,6.9,0,0,1,2.61-1.61,7.74,7.74,0,0,1,3-.29,6.34,6.34,0,0,1,2.9,1.1c1.65,1.19,2.59,2.58,3.82,3.07a4.68,4.68,0,0,0,4-.18c1.22-.64,2.14-2.17,3.81-3.31a6.18,6.18,0,0,1,2.83-1,6.52,6.52,0,0,1,2.92.35,7.25,7.25,0,0,1,2.4,1.57c.66.62,1.23,1.23,1.83,1.7a4.66,4.66,0,0,0,2,.93,5.51,5.51,0,0,0,2.25-.05,4.68,4.68,0,0,0,2-1c.62-.51,1.19-1.15,1.84-1.75a6.68,6.68,0,0,1,2.31-1.46,6.37,6.37,0,0,1,2.7-.28,5.57,5.57,0,0,1,2.53.92,13.54,13.54,0,0,1,1.95,1.73,8,8,0,0,0,2,1.56,5.51,5.51,0,0,0,2.44.58,5.5,5.5,0,0,1-2.53-.4A8.11,8.11,0,0,1,427.3,272a13,13,0,0,0-2-1.55,4.88,4.88,0,0,0-2.28-.68,5.49,5.49,0,0,0-2.35.38,5.62,5.62,0,0,0-1.91,1.37c-.57.59-1.1,1.27-1.77,1.9a6.12,6.12,0,0,1-2.43,1.43,6.6,6.6,0,0,1-2.83.18,5.92,5.92,0,0,1-2.66-1.1c-1.52-1.12-2.54-2.45-3.91-2.85a4.76,4.76,0,0,0-2.13-.16,4.17,4.17,0,0,0-1.95.73c-1.18.78-2.06,2.39-3.83,3.5a6.2,6.2,0,0,1-2.9.9,6.73,6.73,0,0,1-3-.45,8.36,8.36,0,0,1-2.43-1.64,14.65,14.65,0,0,0-1.82-1.55,4.07,4.07,0,0,0-1.85-.67,5.58,5.58,0,0,0-2,.22,4.58,4.58,0,0,0-1.69,1.11c-.54.52-1.08,1.2-1.79,1.86a6.8,6.8,0,0,1-2.66,1.6,7.72,7.72,0,0,1-3.09.24,6.49,6.49,0,0,1-2.93-1.16,21.86,21.86,0,0,1-2.05-1.79,4.35,4.35,0,0,0-3.65-1.39c-1.4.07-2.3.8-3.46,2.08a11.55,11.55,0,0,1-2.17,1.91,6.35,6.35,0,0,1-3,1,7,7,0,0,1-3.11-.41,8.26,8.26,0,0,1-2.52-1.67,21.07,21.07,0,0,0-1.8-1.6,3.74,3.74,0,0,0-1.78-.73,5.09,5.09,0,0,0-2,.13,4.28,4.28,0,0,0-1.7,1c-.56.49-1.1,1.14-1.8,1.79a6.76,6.76,0,0,1-2.6,1.62,7.58,7.58,0,0,1-3,.3,6.4,6.4,0,0,1-2.91-1.09,18.43,18.43,0,0,1-2.07-1.79,6.61,6.61,0,0,0-1.75-1.29,4.7,4.7,0,0,0-4,.16c-1.23.63-2.15,2.16-3.82,3.29a6.11,6.11,0,0,1-2.8,1,6.45,6.45,0,0,1-2.91-.34,7.15,7.15,0,0,1-2.4-1.55c-.67-.61-1.23-1.22-1.84-1.69a4.44,4.44,0,0,0-2-.93,5.55,5.55,0,0,0-2.26,0,4.81,4.81,0,0,0-2,1c-.62.5-1.19,1.14-1.84,1.74a6.59,6.59,0,0,1-2.31,1.46,6.19,6.19,0,0,1-2.69.29,5.42,5.42,0,0,1-2.53-.92,12.49,12.49,0,0,1-1.95-1.73,8.21,8.21,0,0,0-2-1.56A5.52,5.52,0,0,0,289.94,273.35Z"></path></g><path class="cls-11" d="M269.43,232c-3.22-8-6.62-15.51-10.59-23.17h5.93a177.18,177.18,0,0,1,10.76,23.69c3.36,9.08,6.36,11.31,10.4,11.24s6.64-2.44,3.32-11.44c-3.21-8.08-6.61-15.68-10.55-23.44l5.85,0c3.79,7.53,7.1,14.91,10.23,22.74,3.75,7.36,2,17.44-7.68,17.23S272.44,240.54,269.43,232Z"></path><path class="cls-11" d="M304.26,243.61c.95-1.76,1.4-2.69,2.23-4.58,3.24,2.51,6.93,4,10.05,3.9,3.85-.13,5.5-2,4.58-5-1-3.14-3.58-4.13-7.23-5.59l-5.6-2.31a21.08,21.08,0,0,1-11.47-10.87c-2.93-6.49-.47-10.85,6.42-10.78a24.48,24.48,0,0,1,13.16,4.72c-.45,1.7-.67,2.57-1.12,4.35-3.2-2.1-6.16-3.33-9.15-3.34-3.31,0-4.64,1.69-3.3,4.66,1.42,3.14,4.55,4.34,8,5.68l5.63,2.23c4.88,2,9,5,10.78,10.52,1.93,6.15-1.94,10.6-9.58,10.87A20.32,20.32,0,0,1,304.26,243.61Z"></path><path class="cls-11" d="M342.58,214.78l-10.2,0c-1-2.24-1.56-3.33-2.61-5.42l26.83.28c1,2,1.47,3.07,2.44,5.2l-10.2,0c4.35,10.1,8.51,20.18,10.8,31l-6.15.27C351.2,235.14,347,225,342.58,214.78Z"></path><path class="cls-11" d="M367.23,209.72l7.3.07a346.28,346.28,0,0,1,24.37,34.47l-6.55.21c-1.86-3.47-2.93-5.31-5.22-9.07l-11.72.39a58.16,58.16,0,0,1-.3,9.34l-6.29.26C370.24,233.54,369,221.48,367.23,209.72Zm7.95,21,8.89-.23c-1.12-1.74-1.69-2.61-2.87-4.37-2.59-3.78-5.37-7.91-8.13-11.72h-.21a110.37,110.37,0,0,1,1.89,11.84C375,228.06,375,229,375.18,230.74Z"></path><path class="cls-11" d="M403.66,226.35c-5.36-5.63-10.89-11.16-16.56-16.47l6.79,0c2.92,2.88,4.38,4.37,7.27,7.37,1.55,1.55,3,3.17,5,5.21h.21c-.05-2.06-.11-3.68,0-5.22,0-3,0-4.46,0-7.31h6.31c-.34,6.32-.48,9.71-1.33,16.55,5.45,5.63,10.88,11.26,16,17.15-2.8,0-4.2,0-7,.09-2.55-3.09-3.9-4.67-6.7-7.85-1.51-1.76-3-3.48-4.85-5.57h-.22a54.36,54.36,0,0,1-.53,5.7,59,59,0,0,1-1.93,8l-6.63.19C402,237.42,402.64,233.59,403.66,226.35Z"></path><path class="cls-12" d="M93.16,15.16h8.62c5.34,0,10.54,1.74,13.36,8.78,1.92,4.83.79,7.89-1.86,9.23a124.27,124.27,0,0,1,8.48,12.37l-5.09,0A113.72,113.72,0,0,0,109,34l-3.89,0c1.46,5,2,7.54,2.11,11.6h-4.5C102,34.77,97.6,24.94,93.16,15.16Zm14.15,14.31c3.47,0,4.78-1.95,3.34-5.52s-4-4.75-7.43-4.75H99.58a104,104,0,0,1,4.11,10.29Z"></path><path class="cls-12" d="M116.45,15.14l15.77,0c.78,1.62,1.17,2.48,1.94,4.25L123,19.4c1.33,3,2,4.67,3.18,8l9.33-.08c.68,1.91,1,2.88,1.58,4.79l-9.31.1A56.18,56.18,0,0,1,130,41.27l11.37-.19a31.65,31.65,0,0,1,.44,4.12c-6.4.13-9.59.19-15.94.27C125,34.68,120.79,24.9,116.45,15.14Z"></path><path class="cls-12" d="M142.7,30.33c-1.79-5.25-2.86-16,5.81-15.75a16.88,16.88,0,0,1,9.25,3.49c-.44,1.31-.66,2-1.11,3.38a10.08,10.08,0,0,0-6.07-2.56c-4.33,0-5.44,4.12-3.18,11.24s5.48,11.12,9.85,11a5.82,5.82,0,0,0,5-3.1l3,3.18a9.11,9.11,0,0,1-7.82,4.1C149.19,45.54,144.87,36.73,142.7,30.33Z"></path><path class="cls-12" d="M161.36,15l16,0c.73,1.6,1.09,2.44,1.79,4.16l-11.24.05c1.22,3,1.81,4.55,2.87,7.71l9.43-.1c.6,1.84.88,2.77,1.39,4.6l-9.39.14a61.71,61.71,0,0,1,2,8.83l11.44-.26a38.58,38.58,0,0,1,.43,4L170,44.56C169.11,34.13,165.36,24.6,161.36,15Z"></path><path class="cls-12" d="M183.18,15h4.69c3.78,9.42,7.22,18.78,8.08,29l-4.6.11C190.49,33.81,187,24.42,183.18,15Z"></path><path class="cls-12" d="M194.56,15l8.27,0c5.81,0,11.13,1.85,13.42,8.71,2.18,6.53-1.5,9.68-7.08,9.75l-3.71,0a53,53,0,0,1,1.65,10.29l-4.59.09C201.66,33.67,198.29,24.34,194.56,15Zm13.15,14.18c3.85,0,5.24-1.86,4-5.48s-3.77-4.82-7.65-4.81h-3.24a96.17,96.17,0,0,1,3.49,10.32Z"></path><path class="cls-12" d="M223.92,19h-7.46c-.64-1.7-1-2.53-1.67-4.12h19.39c.68,1.6,1,2.43,1.65,4.12h-7.36a138.25,138.25,0,0,1,5.92,24.36l-4.53,0A136,136,0,0,0,223.92,19Z"></path><polyline class="cls-13" points="335.17 198.25 400.38 185.82 406.55 184.65"></polyline></g></g></g></svg> 