<?xml version="1.0" encoding="UTF-8"?> <svg xmlns="http://www.w3.org/2000/svg" xmlns:xlink="http://www.w3.org/1999/xlink" viewBox="0 0 71.92 112.63"><defs><style>.cls-1,.cls-5{fill:none;}.cls-1{stroke:#98c0bd;}.cls-1,.cls-2,.cls-4,.cls-5,.cls-6{stroke-linecap:round;stroke-linejoin:round;}.cls-1,.cls-2{stroke-width:4px;}.cls-2,.cls-4,.cls-9{fill:#fff;}.cls-2,.cls-4,.cls-5,.cls-6,.cls-8{stroke:#659a97;}.cls-3,.cls-7,.cls-8{fill:#679a96;}.cls-3{opacity:0.1;}.cls-4,.cls-5,.cls-6,.cls-8{stroke-width:1.09px;}.cls-6{fill:#98c0bd;}.cls-7{opacity:0.2;}.cls-8{stroke-miterlimit:10;}.cls-10{fill:#659a97;}</style><symbol id="pill" data-name="pill" viewBox="0 0 66.29 42.07"><path class="cls-2" d="M2,28.7C2,35,15.94,40.07,33.15,40.07S64.29,35,64.29,28.7V13.37H2Z"></path><path class="cls-3" d="M2,28.7C2,35,15.94,40.07,33.15,40.07S64.29,35,64.29,28.7V13.37H2Z"></path><ellipse class="cls-2" cx="33.15" cy="13.37" rx="31.15" ry="11.37"></ellipse></symbol><symbol id="med-container-lid-line" data-name="med-container-lid-line" viewBox="0 0 4 24.49"><line class="cls-1" x1="2" y1="2" x2="2" y2="22.49"></line></symbol></defs><g id="Layer_2" data-name="Layer 2"><g id="Children_s_Medicine_Alterations" data-name="Children's Medicine Alterations"><use width="66.29" height="42.07" transform="translate(47.78 101.21) scale(0.27)" xlink:href="#pill"></use><use width="66.29" height="42.07" transform="translate(31.39 92.65) scale(0.27)" xlink:href="#pill"></use><use width="66.29" height="42.07" transform="translate(53.93 87.38) scale(0.27)" xlink:href="#pill"></use><ellipse class="cls-4" cx="27.09" cy="81.64" rx="26.55" ry="7.79"></ellipse><polyline class="cls-4" points="53.64 81.64 53.64 23.7 0.54 23.7 0.54 81.64"></polyline><ellipse class="cls-4" cx="27.09" cy="23.69" rx="26.55" ry="7.79"></ellipse><path class="cls-4" d="M27.09,15.91C12.43,15.91.54,19.39.54,23.69v58c0,4.3,11.89,7.79,26.55,7.79s26.55-3.49,26.55-7.79V23.69C53.64,19.39,41.75,15.91,27.09,15.91Z"></path><path class="cls-5" d="M49.83,12.21c0,3.69-10.18,6.67-22.74,6.67s-22.74-3-22.74-6.67"></path><path class="cls-6" d="M.54,62.86c0,4.31,11.89,7.79,26.55,7.79s26.55-3.48,26.55-7.79V34.68c0,4.3-11.89,7.79-26.55,7.79S.54,39,.54,34.68Z"></path><ellipse class="cls-7" cx="27.09" cy="19.39" rx="19.96" ry="5.86"></ellipse><path class="cls-8" d="M4.35,16.2c0,3.69,10.18,6.68,22.74,6.68s22.74-3,22.74-6.68v-9H4.35Z"></path><ellipse class="cls-6" cx="27.09" cy="7.22" rx="22.74" ry="6.67"></ellipse><use width="4" height="24.49" transform="translate(7.82 13.27) scale(0.22)" xlink:href="#med-container-lid-line"></use><use width="4" height="24.49" transform="translate(42.75 13.8) scale(0.22)" xlink:href="#med-container-lid-line"></use><path class="cls-9" d="M28.69,66.59a1.74,1.74,0,0,1-1.28-.54,1.57,1.57,0,0,1-.32-.41,2.07,2.07,0,0,1-.31.42,1.78,1.78,0,0,1-1.28.53h-.64a1.77,1.77,0,0,1-1.28-.53A1.81,1.81,0,0,1,23,64.78V54.36l-3.62-3.59a1.87,1.87,0,0,1-.52-1.3,1.83,1.83,0,0,1,1.82-1.82,1.88,1.88,0,0,1,1.28.5l2.28,2.31a3.42,3.42,0,0,1,2.81-5.36,3.4,3.4,0,0,1,3.41,3.42,3.37,3.37,0,0,1-.59,1.94l2.26-2.29a1.89,1.89,0,0,1,2.58,0,1.9,1.9,0,0,1,.54,1.32,1.88,1.88,0,0,1-.5,1.28l-3.65,3.61V64.78a1.83,1.83,0,0,1-1.82,1.81Zm.21-15.11.17-.17-.27.17Zm-3.52,0-.26-.17.17.17Z"></path><path class="cls-10" d="M27.09,45.65a2.87,2.87,0,0,1,2,4.9,2.87,2.87,0,0,1-4.06,0,2.87,2.87,0,0,1,2-4.9m6.38,2.55a1.23,1.23,0,0,1,1.27,1.27,1.33,1.33,0,0,1-.36.92L30.6,54.13V64.78a1.3,1.3,0,0,1-1.28,1.27h-.63a1.3,1.3,0,0,1-1.28-1.27V60.31h-.64v4.47a1.19,1.19,0,0,1-.38.89,1.23,1.23,0,0,1-.89.38h-.64a1.25,1.25,0,0,1-.9-.38,1.23,1.23,0,0,1-.38-.89V54.13L19.8,50.39a1.33,1.33,0,0,1-.36-.92,1.23,1.23,0,0,1,.38-.89,1.19,1.19,0,0,1,.9-.38,1.31,1.31,0,0,1,.91.36L25.06,52h4.06l3.43-3.46a1.33,1.33,0,0,1,.92-.36m-6.38-3.64a3.94,3.94,0,0,0-3.95,4h0l-.74-.74,0,0,0,0a2.4,2.4,0,0,0-1.64-.64,2.39,2.39,0,0,0-2.37,2.36A2.49,2.49,0,0,0,19,51.12l0,0,0,0,3.46,3.43V64.78a2.39,2.39,0,0,0,2.36,2.36h.64a2.3,2.3,0,0,0,1.59-.63,2.3,2.3,0,0,0,1.6.63h.63a2.37,2.37,0,0,0,2.36-2.36V54.59l3.47-3.43,0,0,0,0a2.44,2.44,0,0,0,.64-1.65,2.4,2.4,0,0,0-.64-1.64l0,0,0,0a2.4,2.4,0,0,0-1.64-.64,2.44,2.44,0,0,0-1.65.64l0,0,0,0-.73.74h0a4,4,0,0,0-4-4Z"></path><path class="cls-3" d="M53.1,26.13a10.16,10.16,0,0,1-2.87,2,5.18,5.18,0,0,0-2.9,4.65V75.63c0,5.21-13.77,8.33-27.09,8.33A71.17,71.17,0,0,1,1.09,81.57v.07c0,3.5,10.45,7.24,26,7.24s26-3.74,26-7.24Z"></path></g></g></svg> 