<svg xmlns="http://www.w3.org/2000/svg" viewBox="0 0 116 200" preserveAspectRatio="none"><defs><style>.cls-1,.cls-4,.cls-5,.cls-8{isolation:isolate;}.cls-2{opacity:0.17;}.cls-3,.cls-5{fill:#417370;}.cls-4,.cls-7{fill:#335a58;}.cls-4,.cls-5,.cls-8{opacity:0.23;}.cls-6{fill:#1d3432;}.cls-8,.cls-9{fill:#47817d;}.cls-10{fill:#ddb893;mix-blend-mode:color;}</style></defs><g class="cls-1"><g id="Layer_2" data-name="Layer 2"><g id="Homepage"><g class="cls-2"><polygon class="cls-3" points="0 7.22 4.19 7.22 14.05 24.22 0 24.22 0 7.22"/><polygon class="cls-4" points="0 7.22 4.19 7.22 14.05 24.22 0 24.22 0 7.22"/><polygon class="cls-3" points="0 24.22 14.05 24.22 23.91 41.22 0 41.22 0 24.22"/><polygon class="cls-5" points="0 24.22 14.05 24.22 23.91 41.22 0 41.22 0 24.22"/><polygon class="cls-6" points="46.48 80.22 46.53 80.22 56.39 97.22 46.48 97.22 46.48 80.22"/><polygon class="cls-4" points="46.48 80.22 46.53 80.22 56.39 97.22 46.48 97.22 46.48 80.22"/><rect class="cls-7" x="29.58" y="80.22" width="16.9" height="17"/><rect class="cls-4" x="29.58" y="80.22" width="16.9" height="17"/><rect class="cls-3" y="80.22" width="29.58" height="17"/><rect class="cls-4" y="80.22" width="29.58" height="17"/><rect class="cls-6" x="46.48" y="175.22" width="42.97" height="17"/><rect class="cls-8" x="46.48" y="175.22" width="42.97" height="17"/><rect class="cls-7" x="29.58" y="175.22" width="16.9" height="17"/><rect class="cls-8" x="29.58" y="175.22" width="16.9" height="17"/><rect class="cls-3" y="175.22" width="29.58" height="17"/><rect class="cls-8" y="175.22" width="29.58" height="17"/><rect class="cls-6" x="46.48" y="192.22" width="42.97" height="7.78"/><rect class="cls-8" x="46.48" y="192.22" width="42.97" height="7.78"/><rect class="cls-7" x="29.58" y="192.22" width="16.9" height="7.78"/><rect class="cls-8" x="29.58" y="192.22" width="16.9" height="7.78"/><rect class="cls-3" y="192.22" width="29.58" height="7.78"/><rect class="cls-8" y="192.22" width="29.58" height="7.78"/><polygon class="cls-3" points="0 0 4.19 7.22 0 7.22 0 0"/><polygon class="cls-5" points="0 0 4.19 7.22 0 7.22 0 0"/><polygon class="cls-6" points="46.48 175.22 46.48 136.22 79.01 136.22 89.45 154.22 89.45 175.22 46.48 175.22"/><polygon class="cls-4" points="46.48 175.22 46.48 136.22 79.01 136.22 89.45 154.22 89.45 175.22 46.48 175.22"/><rect class="cls-7" x="29.58" y="136.22" width="16.9" height="39"/><rect class="cls-4" x="29.58" y="136.22" width="16.9" height="39"/><rect class="cls-3" y="136.22" width="29.58" height="39"/><rect class="cls-4" y="136.22" width="29.58" height="39"/><polygon class="cls-6" points="46.48 97.22 56.39 97.22 79.01 136.22 46.48 136.22 46.48 97.22"/><polygon class="cls-8" points="46.48 97.22 56.39 97.22 79.01 136.22 46.48 136.22 46.48 97.22"/><rect class="cls-7" x="29.58" y="97.22" width="16.9" height="39"/><rect class="cls-8" x="29.58" y="97.22" width="16.9" height="39"/><rect class="cls-3" y="97.22" width="29.58" height="39"/><rect class="cls-8" y="97.22" width="29.58" height="39"/><polygon class="cls-6" points="46.48 80.14 46.53 80.22 46.48 80.22 46.48 80.14"/><polygon class="cls-8" points="46.48 80.14 46.53 80.22 46.48 80.22 46.48 80.14"/><polygon class="cls-7" points="29.58 80.22 29.58 51 46.48 80.14 46.48 80.22 29.58 80.22"/><polygon class="cls-8" points="29.58 80.22 29.58 51 46.48 80.14 46.48 80.22 29.58 80.22"/><polygon class="cls-3" points="0 80.22 0 41.22 23.91 41.22 29.58 51 29.58 80.22 0 80.22"/><polygon class="cls-8" points="0 80.22 0 41.22 23.91 41.22 29.58 51 29.58 80.22 0 80.22"/><polygon class="cls-9" points="89.45 175.22 101.63 175.22 111.49 192.22 89.45 192.22 89.45 175.22"/><polygon class="cls-8" points="89.45 175.22 101.63 175.22 111.49 192.22 89.45 192.22 89.45 175.22"/><polygon class="cls-9" points="111.49 192.22 116 200 89.45 200 89.45 192.22 111.49 192.22"/><polygon class="cls-8" points="111.49 192.22 116 200 89.45 200 89.45 192.22 111.49 192.22"/><polygon class="cls-9" points="89.45 154.23 101.63 175.22 89.45 175.22 89.45 154.23"/><polygon class="cls-4" points="89.45 154.23 101.63 175.22 89.45 175.22 89.45 154.23"/><polygon class="cls-10" points="116 200 0 200 0 0 116 200"/></g></g></g></g></svg>