<?xml version="1.0" encoding="UTF-8"?> <svg xmlns="http://www.w3.org/2000/svg" viewBox="0 0 505.62 424.77"><defs><style>.cls-1,.cls-4{fill:#ddb893;}.cls-1{opacity:0.2;}.cls-2{fill:#f7efe5;}.cls-2,.cls-3,.cls-4,.cls-7{stroke:#ddb893;stroke-miterlimit:10;}.cls-2,.cls-3,.cls-4{stroke-width:3.68px;}.cls-3,.cls-6{fill:#fff;}.cls-5{fill:#e6cbb0;}.cls-7{fill:none;stroke-width:2.76px;}</style></defs><g id="Layer_2" data-name="Layer 2"><g id="Ryden_s_Page" data-name="Ryden's Page"><ellipse class="cls-1" cx="252.81" cy="386.91" rx="252.81" ry="37.86"></ellipse><path class="cls-2" d="M57.85,1.85c-.4,0-.82,0-1.23,0C44,2.34,31.75,18.16,31.75,44.23H353c0-26.07,12.22-41.89,24.87-42.38q.61,0,1.23,0"></path><path class="cls-3" d="M433.34,403.37c.63,0,1.25,0,1.87,0Z"></path><path class="cls-3" d="M84.37,59.82V348.69c0,36.56,14.12,53.94,27.72,54.68.63,0,1.25,0,1.87,0H433.34c-13.6-.74-27.73-18.12-27.73-54.68V59.82c0-40-13.29-57.44-26.51-58H57.85C71.08,2.38,84.37,19.78,84.37,59.82Z"></path><path class="cls-2" d="M458.22,364.28c0,24.78-11,38.4-23,39.09H114c12-.69,23-14.31,23-39.09Z"></path><path class="cls-4" d="M405.61,59.82c0-40-13.29-57.44-26.51-58H57.85c13.23.53,26.52,17.93,26.52,58v16H405.61Z"></path><path class="cls-5" d="M353.86,308a10.08,10.08,0,0,1,4.46,2.79,9.78,9.78,0,0,1,2.43,4.64,9.92,9.92,0,0,1-.31,5.36,9.42,9.42,0,0,1-3.7,4.73,10.81,10.81,0,0,1-5.85,1.85v4.32a1.42,1.42,0,0,1-.41,1,1.4,1.4,0,0,1-1,.41h-2.88a1.39,1.39,0,0,1-1-.41,1.42,1.42,0,0,1-.41-1v-4.32a12.56,12.56,0,0,1-7.84-2.7,1.92,1.92,0,0,1-.54-1.09,1.34,1.34,0,0,1,.45-1.17l3.06-3.06a2,2,0,0,1,.86-.36,1.15,1.15,0,0,1,.95.27,5.39,5.39,0,0,0,3.06.9h6a2.51,2.51,0,0,0,1.84-.77,2.61,2.61,0,0,0,.77-1.93,2.51,2.51,0,0,0-.54-1.53,2.71,2.71,0,0,0-1.35-1l-9.28-2.7a10.74,10.74,0,0,1-5.14-3.24,9.71,9.71,0,0,1-2.43-5.41,10.21,10.21,0,0,1,1.08-5.36,10,10,0,0,1,3.6-4,9.52,9.52,0,0,1,5.23-1.49h.18v-4.33a1.4,1.4,0,0,1,1.44-1.44h2.88a1.4,1.4,0,0,1,1.45,1.44v4.33a12.21,12.21,0,0,1,7.75,2.7,1.69,1.69,0,0,1,.63,1.08,1.13,1.13,0,0,1-.45,1.08l-3.07,3.16a2,2,0,0,1-.85.36A1.34,1.34,0,0,1,354,301a5,5,0,0,0-3.06-1h-6a2.52,2.52,0,0,0-1.85.76,2.63,2.63,0,0,0-.76,1.94,2.51,2.51,0,0,0,.54,1.53,2.75,2.75,0,0,0,1.35,1Z"></path><path class="cls-6" d="M169.72,27.7H175V57.52h-5.29Z"></path><path class="cls-6" d="M182.58,27.7H188l9.3,16.78,3.06,6.34h.18c-.23-3.06-.68-6.84-.68-10.17V27.7h5.06V57.52h-5.43l-9.3-16.78-3.05-6.34H187c.23,3.15.69,6.75.69,10.08v13h-5.06Z"></path><path class="cls-6" d="M208.52,27.7h5.61l4.19,15c1,3.37,1.65,6.29,2.65,9.71h.18c1-3.42,1.69-6.34,2.6-9.71l4.15-15h5.42l-9.25,29.82h-6.25Z"></path><path class="cls-6" d="M234.92,42.47c0-9.62,5.38-15.32,13.13-15.32s13.18,5.7,13.18,15.32-5.38,15.59-13.18,15.59S234.92,52.14,234.92,42.47Zm20.84,0c0-6.65-3-10.71-7.71-10.71s-7.7,4.06-7.7,10.71,3,11,7.7,11S255.76,49.17,255.76,42.47Z"></path><path class="cls-6" d="M267.2,27.7h5.29V57.52H267.2Z"></path><path class="cls-6" d="M278.51,42.7c0-9.76,6.11-15.55,13.63-15.55a11.83,11.83,0,0,1,8.62,3.79l-2.83,3.42a7.78,7.78,0,0,0-5.65-2.6c-4.88,0-8.34,4.1-8.34,10.8s3.19,10.9,8.2,10.9a8.51,8.51,0,0,0,6.39-3.05l2.82,3.32A12,12,0,0,1,292,58.06C284.44,58.06,278.51,52.59,278.51,42.7Z"></path><path class="cls-6" d="M306.32,27.7h18v4.47H311.61v7.61h10.72v4.47H311.61v8.8h13.13v4.47H306.32Z"></path><rect class="cls-1" x="120.1" y="106.47" width="227.89" height="18.86"></rect><rect class="cls-1" x="120.1" y="133.69" width="227.89" height="18.86"></rect><rect class="cls-1" x="120.1" y="160.92" width="227.89" height="18.86"></rect><rect class="cls-1" x="120.1" y="188.15" width="191.33" height="18.86"></rect><rect class="cls-1" x="120.1" y="215.38" width="191.33" height="18.86"></rect><rect class="cls-1" x="120.1" y="242.6" width="191.33" height="18.86"></rect><rect class="cls-1" x="120.1" y="269.83" width="132.77" height="18.86"></rect><rect class="cls-1" x="120.1" y="297.06" width="132.77" height="18.86"></rect><circle class="cls-7" cx="348" cy="310.21" r="37.22"></circle><path class="cls-1" d="M381.6,297.75c0,.81.09,1.61.09,2.43a38.58,38.58,0,0,1-64.13,28.93,35.83,35.83,0,0,0,64-31.36Z"></path></g></g></svg> 