<?xml version="1.0" encoding="UTF-8"?> <svg xmlns="http://www.w3.org/2000/svg" viewBox="0 0 149.97 116.04"><defs><style>.cls-1{fill:#e9d2b9;}.cls-2{fill:#fff;}</style></defs><g id="Layer_2" data-name="Layer 2"><g id="Ryden_s_Page" data-name="Ryden's Page"><polygon class="cls-1" points="149.97 63.68 59.3 11.33 59.3 48.68 0 48.68 0 78.68 59.3 78.68 59.3 116.04 149.97 63.68"></polygon><polygon class="cls-2" points="61.3 65.36 2 65.36 2 39.36 61.3 39.36 61.3 3.46 145.97 52.36 61.3 101.25 61.3 65.36"></polygon><path class="cls-1" d="M63.3,6.93,142,52.36,63.3,97.78V63.36H4v-22H63.3V6.93M59.3,0V37.36H0v30H59.3v37.35L150,52.36,59.3,0Z"></path><polygon class="cls-1" points="149.97 52.36 149.97 63.68 59.3 116.04 59.3 104.71 149.97 52.36"></polygon><rect class="cls-1" y="67.36" width="59.3" height="11.33"></rect></g></g></svg> 