<svg xmlns="http://www.w3.org/2000/svg" viewBox="0 0 297.4 310.04"><defs><style>.cls-1{fill:#181818;}.cls-2,.cls-5{fill:#fff;}.cls-2{fill-rule:evenodd;}.cls-3{fill:none;stroke:#689a95;stroke-linecap:square;stroke-linejoin:round;stroke-width:3.26px;}.cls-4{fill:#689a95;}</style></defs><g id="Layer_2" data-name="Layer 2"><g id="Send_It_Page" data-name="Send It Page"><circle class="cls-1" cx="148.7" cy="161.34" r="148.7" transform="translate(-70.53 152.4) rotate(-45)"/><path class="cls-2" d="M48.08,0A42.91,42.91,0,1,1,5.17,42.91,42.93,42.93,0,0,1,48.08,0Z"/><path class="cls-3" d="M48.08,7.38A35.53,35.53,0,1,1,12.55,42.91,35.55,35.55,0,0,1,48.08,7.38Z"/><path class="cls-4" d="M48.08,60.19c5.18,0,7.87-2.93,7.87-8.3v-3c0-3.41-1.06-5.86-3.89-6.91v-.1c2.59-1,3.74-3.17,3.74-6.77v-1.2c0-5.37-2.68-8.3-7.72-8.3s-7.73,3-7.73,8.35v1.77h5v-2.2c0-2.21,1-3.12,2.55-3.12s2.64,1,2.64,3.36v2.45c0,2.69-1.2,3.55-3.17,3.55H45.44v4.8h1.77c2.41,0,3.46,1.15,3.46,4.27V51.6c0,3-1.05,3.79-2.74,3.79s-2.74-.91-2.74-3.31v-3h-5v2.74C40.21,57.21,42.89,60.19,48.08,60.19Z"/><path class="cls-5" d="M140.94,211.83a10.89,10.89,0,1,0-7.74-3.19A10.5,10.5,0,0,0,140.94,211.83Zm72.65-31.43a3.66,3.66,0,0,1-.22,2.85,4.62,4.62,0,0,1-2.05,1.93L162.8,201.36a22.39,22.39,0,0,1-3.75,11.73,21.63,21.63,0,0,1-9.46,8A21,21,0,0,1,137,222.42a21.32,21.32,0,0,1-11.61-6.26,21.66,21.66,0,0,1-6-11.84,21.06,21.06,0,0,1,1.37-11.51,22.88,22.88,0,0,1,6.83-9l-21-63.09H86.28a3.52,3.52,0,0,1-3.65-3.64V109.8a3.52,3.52,0,0,1,3.65-3.65h25.51a7.15,7.15,0,0,1,4.21,1.37,6.74,6.74,0,0,1,2.62,3.64L141.4,179a22.77,22.77,0,0,1,9.33,2.39,20.64,20.64,0,0,1,7.29,6l48.74-16.17a3.71,3.71,0,0,1,4.56,2.28Zm-64-10.93L137.52,133a3.71,3.71,0,0,1,2.28-4.56l14.12-4.55,7.52,22.55,13.89-4.56-7.51-22.77,13.89-4.56a3.69,3.69,0,0,1,4.55,2.28l13.67,41.22a4,4,0,0,1-.23,3,3.43,3.43,0,0,1-2,1.82L161,174.94A32.69,32.69,0,0,0,149.59,169.47Z"/></g></g></svg>