<svg xmlns="http://www.w3.org/2000/svg" viewBox="0 0 616.32 616.32"><defs><style>.cls-1{isolation:isolate;}.cls-2,.cls-5{fill:#fff;}.cls-2{opacity:0;}.cls-3{fill:#010101;opacity:0.1;mix-blend-mode:multiply;}.cls-4{fill:#e7e7e7;}.cls-6{fill:#f2f2f3;}</style></defs><g class="cls-1"><g id="Layer_2" data-name="Layer 2"><g id="WhyWeAreTaxFree_Page" data-name="WhyWeAreTaxFree Page"><rect class="cls-2" width="616.32" height="616.32"/><ellipse class="cls-3" cx="326.31" cy="536.1" rx="288.87" ry="45.39"/><path class="cls-4" d="M61.41,79c-.53,0-1.08,0-1.62,0C43.11,79.56,27,96.54,27,124.5H450.57c0-28,16.12-44.94,32.79-45.46.55,0,1.09,0,1.63,0"/><path class="cls-5" d="M96.37,155.46V474c0,48.21,18.63,71.13,36.56,72.1a20.19,20.19,0,0,0,2.46,0H556.5c-17.93-1-36.55-23.89-36.55-72.1V155.46c0-52.78-17.53-75.73-35-76.43H61.41C78.85,79.73,96.37,102.68,96.37,155.46Z"/><path class="cls-4" d="M589.32,504.16c0,26.59-14.57,41.2-30.35,41.94H135.39c15.79-.74,30.35-15.35,30.35-41.94Z"/><rect class="cls-6" x="143.49" y="203.99" width="300.48" height="24.87"/><rect class="cls-6" x="143.49" y="167.25" width="300.48" height="24.87"/><rect class="cls-6" x="143.49" y="240.74" width="300.48" height="24.87"/><rect class="cls-6" x="143.49" y="277.48" width="300.48" height="24.87"/><rect class="cls-6" x="143.49" y="314.22" width="252.28" height="24.87"/><rect class="cls-6" x="143.49" y="130.51" width="252.28" height="24.87"/><rect class="cls-6" x="143.49" y="350.97" width="252.28" height="24.87"/><rect class="cls-6" x="143.49" y="387.71" width="252.28" height="24.87"/><rect class="cls-6" x="143.49" y="424.46" width="175.06" height="24.87"/><rect class="cls-6" x="143.49" y="461.2" width="175.06" height="24.87"/></g></g></g></svg>