<?xml version="1.0" encoding="UTF-8"?> <svg xmlns="http://www.w3.org/2000/svg" viewBox="0 0 474.69 265.92"><defs><style>.cls-1,.cls-4,.cls-5,.cls-7{fill:#ddb893;}.cls-1{opacity:0.2;}.cls-2,.cls-3,.cls-6{fill:#fff;}.cls-2,.cls-5,.cls-6{stroke:#ddb893;stroke-miterlimit:10;}.cls-2,.cls-6{stroke-width:4px;}.cls-5{stroke-width:3.76px;}.cls-6{stroke-linecap:round;}.cls-7{opacity:0.5;}</style></defs><g id="Layer_2" data-name="Layer 2"><g id="Ryden_s_Page" data-name="Ryden's Page"><ellipse class="cls-1" cx="276.17" cy="245.3" rx="198.51" ry="20.62"></ellipse><rect class="cls-2" x="126.2" y="68.8" width="299.95" height="180.4"></rect><rect class="cls-3" x="126.2" y="144.13" width="299.95" height="10.25"></rect><path class="cls-4" d="M426,144.27l-19.06.35-19,.3-37.69.47-37.47.28-18.68.07c-6.22,0-12.43,0-18.63,0-24.79-.17-49.55-.65-74.47-.88q-18.68-.15-37.42,0l-18.72.08-18.71.23,1-1,.12,10.24-1.09-1.09q37.49-.57,75-.78c25-.12,50-.3,75-.27l37.5.16,37.49.35c12.5.08,25,.29,37.49.48s25,.43,37.5.7l-.46.45C425.76,151.07,425.91,147.72,426,144.27Zm.28-.29c.09,3.38.25,6.86.31,10.39v.45h-.46c-12.5.27-25,.53-37.5.69s-25,.4-37.49.49l-37.49.35-37.5.15c-25,0-50-.15-75-.27s-50-.4-75-.77l-1.11,0v-1.08l.13-10.24v-1h1l18.78.23,18.77.08q18.76.14,37.57,0c25.08-.22,50.3-.71,75.51-.88,6.3-.05,12.58-.05,18.86,0l18.81.07,37.52.28,37.29.47,18.54.3Z"></path><rect class="cls-3" x="126.2" y="154.37" width="299.95" height="10.25"></rect><path class="cls-4" d="M426,154.51l-19.06.35-19,.31-37.69.47-37.47.28-18.68.07c-6.22,0-12.43,0-18.63,0-24.79-.17-49.55-.66-74.47-.88q-18.68-.16-37.42,0l-18.72.09-18.71.22,1-1,.12,10.25-1.09-1.1q37.49-.56,75-.77c25-.12,50-.31,75-.27l37.5.15,37.49.35c12.5.09,25,.3,37.49.49s25,.42,37.5.7l-.46.45C425.76,161.32,425.91,158,426,154.51Zm.28-.28c.09,3.38.25,6.86.31,10.39v.44h-.46c-12.5.27-25,.53-37.5.7s-25,.4-37.49.49l-37.49.35-37.5.15c-25,0-50-.15-75-.27s-50-.4-75-.78h-1.11v-1.08l.13-10.25v-1h1l18.78.23,18.77.08q18.76.12,37.57,0c25.08-.23,50.3-.72,75.51-.88,6.3-.05,12.58-.05,18.86,0l18.81.07,37.52.28,37.29.47,18.54.3Z"></path><rect class="cls-3" x="126.2" y="164.62" width="299.95" height="10.25"></rect><path class="cls-4" d="M426,164.76l-19.06.35-19,.3-37.69.47-37.47.29-18.68.06q-9.33,0-18.63,0c-24.79-.17-49.55-.66-74.47-.89q-18.68-.15-37.42,0l-18.72.09-18.71.22,1-1,.12,10.25-1.09-1.1q37.49-.56,75-.77c25-.12,50-.31,75-.27l37.5.15,37.49.35c12.5.09,25,.29,37.49.49s25,.42,37.5.69l-.46.46C425.76,171.57,425.91,168.21,426,164.76Zm.28-.28c.09,3.38.25,6.86.31,10.39v.44h-.46c-12.5.27-25,.53-37.5.7s-25,.4-37.49.48l-37.49.35-37.5.16c-25,0-50-.15-75-.28s-50-.39-75-.77h-1.11v-1.08l.13-10.25v-1h1l18.78.22,18.77.09q18.76.12,37.57,0c25.08-.23,50.3-.72,75.51-.89q9.45-.06,18.86,0l18.81.06,37.52.28,37.29.48,18.54.3Z"></path><rect class="cls-3" x="126.2" y="174.87" width="299.95" height="10.25"></rect><path class="cls-4" d="M426,175l-19.06.35-19,.3-37.69.47-37.47.28-18.68.07c-6.22,0-12.43,0-18.63,0-24.79-.16-49.55-.65-74.47-.88q-18.68-.15-37.42,0l-18.72.08-18.71.23,1-1,.12,10.24L126.2,184q37.49-.57,75-.77c25-.13,50-.31,75-.28l37.5.16,37.49.35c12.5.09,25,.29,37.49.49s25,.42,37.5.69l-.46.45C425.76,181.81,425.91,178.46,426,175Zm.28-.28c.09,3.38.25,6.85.31,10.38v.45h-.46c-12.5.27-25,.53-37.5.69s-25,.4-37.49.49l-37.49.35-37.5.16c-25,0-50-.16-75-.28s-50-.4-75-.77l-1.11,0v-1.08l.13-10.24v-1l1,0,18.78.22,18.77.09q18.76.12,37.57,0c25.08-.22,50.3-.71,75.51-.88,6.3,0,12.58,0,18.86,0l18.81.07,37.52.28,37.29.47,18.54.31Z"></path><rect class="cls-3" x="126.2" y="185.11" width="299.95" height="10.25"></rect><path class="cls-4" d="M426,185.26l-19.06.35-19,.3-37.69.47-37.47.28-18.68.07c-6.22,0-12.43,0-18.63,0-24.79-.17-49.55-.66-74.47-.88q-18.68-.15-37.42,0l-18.72.09-18.71.23,1-1,.12,10.25-1.09-1.09q37.49-.57,75-.78c25-.12,50-.3,75-.27l37.5.15,37.49.36c12.5.08,25,.29,37.49.48s25,.43,37.5.7l-.46.45C425.76,192.06,425.91,188.71,426,185.26Zm.28-.29c.09,3.38.25,6.86.31,10.39v.45h-.46c-12.5.27-25,.53-37.5.69s-25,.4-37.49.49l-37.49.35-37.5.15c-25,0-50-.15-75-.27s-50-.4-75-.77l-1.11,0v-1.08l.13-10.25v-1h1l18.78.23,18.77.08q18.76.12,37.57,0c25.08-.23,50.3-.71,75.51-.88,6.3,0,12.58,0,18.86,0l18.81.07,37.52.28,37.29.47,18.54.3Z"></path><rect class="cls-3" x="126.2" y="195.36" width="299.95" height="10.25"></rect><path class="cls-4" d="M426,195.5l-19.06.35-19,.3-37.69.48-37.47.28-18.68.07q-9.33,0-18.63,0c-24.79-.17-49.55-.66-74.47-.88q-18.68-.17-37.42,0l-18.72.09-18.71.22,1-1,.12,10.25-1.09-1.1q37.49-.56,75-.77c25-.12,50-.31,75-.27l37.5.15,37.49.35c12.5.09,25,.3,37.49.49s25,.42,37.5.69l-.46.46C425.76,202.31,425.91,199,426,195.5Zm.28-.28c.09,3.38.25,6.86.31,10.39v.44h-.46c-12.5.27-25,.53-37.5.7s-25,.4-37.49.48l-37.49.36-37.5.15c-25,0-50-.15-75-.27s-50-.4-75-.78h-1.11v-1.08l.13-10.25v-1h1l18.78.23,18.77.08q18.76.12,37.57,0c25.08-.23,50.3-.72,75.51-.88,6.3,0,12.58,0,18.86,0l18.81.07,37.52.28,37.29.47,18.54.3Z"></path><rect class="cls-3" x="126.2" y="205.61" width="299.95" height="10.25"></rect><path class="cls-4" d="M426,205.75,407,206.1l-19,.3-37.69.47-37.47.28-18.68.07c-6.22,0-12.43,0-18.63,0-24.79-.16-49.55-.65-74.47-.88q-18.68-.15-37.42,0l-18.72.08-18.71.23,1-1,.12,10.25-1.09-1.1q37.49-.56,75-.77c25-.12,50-.31,75-.28l37.5.16,37.49.35c12.5.09,25,.29,37.49.49s25,.42,37.5.69l-.46.46C425.76,212.55,425.91,209.2,426,205.75Zm.28-.28c.09,3.38.25,6.86.31,10.39v.44h-.46c-12.5.27-25,.53-37.5.69s-25,.4-37.49.49l-37.49.35-37.5.16c-25,0-50-.15-75-.28s-50-.4-75-.77l-1.11,0v-1.07l.13-10.25v-1h1l18.78.22,18.77.09q18.76.12,37.57,0c25.08-.22,50.3-.71,75.51-.88q9.45-.06,18.86,0l18.81.07,37.52.28,37.29.48,18.54.3Z"></path><rect class="cls-3" x="126.2" y="215.86" width="299.95" height="10.25"></rect><path class="cls-4" d="M426,216l-19.06.35-19,.3-37.69.47-37.47.28-18.68.07c-6.22,0-12.43,0-18.63,0-24.79-.17-49.55-.65-74.47-.88q-18.68-.15-37.42,0l-18.72.08-18.71.23,1-1,.12,10.24L126.2,225q37.49-.57,75-.77c25-.13,50-.31,75-.28l37.5.16,37.49.35c12.5.08,25,.29,37.49.48s25,.43,37.5.7l-.46.45C425.76,222.8,425.91,219.45,426,216Zm.28-.29c.09,3.39.25,6.86.31,10.39v.45h-.46c-12.5.27-25,.53-37.5.69s-25,.4-37.49.49l-37.49.35-37.5.15c-25,0-50-.15-75-.27s-50-.4-75-.77l-1.11,0V226.1l.13-10.24v-1h1l18.78.23,18.77.08q18.76.13,37.57,0c25.08-.22,50.3-.71,75.51-.88,6.3-.05,12.58-.05,18.86,0l18.81.07,37.52.28,37.29.47,18.54.3Z"></path><rect class="cls-3" x="126.2" y="226.1" width="299.95" height="10.25"></rect><path class="cls-4" d="M426,226.24l-19.06.35-19,.31-37.69.47-37.47.28-18.68.07c-6.22,0-12.43,0-18.63,0-24.79-.17-49.55-.66-74.47-.88q-18.68-.17-37.42,0l-18.72.09-18.71.22,1-1,.12,10.25-1.09-1.09q37.49-.57,75-.78c25-.12,50-.31,75-.27l37.5.15,37.49.35c12.5.09,25,.3,37.49.49s25,.42,37.5.7l-.46.45C425.76,233.05,425.91,229.7,426,226.24Zm.28-.28c.09,3.38.25,6.86.31,10.39v.44h-.46q-18.75.42-37.5.7c-12.49.19-25,.4-37.49.49l-37.49.35-37.5.15c-25,0-50-.15-75-.27s-50-.4-75-.77l-1.11,0v-1.08l.13-10.25v-1h1l18.78.23,18.77.08q18.76.12,37.57,0c25.08-.23,50.3-.72,75.51-.88,6.3-.05,12.58-.05,18.86,0l18.81.07,37.52.28,37.29.47,18.54.3Z"></path><rect class="cls-3" x="126.2" y="236.35" width="299.95" height="10.25"></rect><path class="cls-4" d="M426,236.49l-19.06.35-19,.3-37.69.48-37.47.28-18.68.06q-9.33,0-18.63,0c-24.79-.17-49.55-.66-74.47-.89q-18.68-.15-37.42,0l-18.72.09-18.71.22,1-1,.12,10.25-1.09-1.1q37.49-.56,75-.77c25-.12,50-.31,75-.27l37.5.15,37.49.35c12.5.09,25,.29,37.49.49s25,.42,37.5.69l-.46.46C425.76,243.3,425.91,239.94,426,236.49Zm.28-.28c.09,3.38.25,6.86.31,10.39V247h-.46c-12.5.27-25,.53-37.5.7s-25,.4-37.49.48l-37.49.35-37.5.16c-25,0-50-.15-75-.27s-50-.4-75-.78h-1.11V246.6l.13-10.25v-1h1l18.78.22,18.77.09q18.76.12,37.57,0c25.08-.23,50.3-.72,75.51-.89q9.45-.06,18.86,0l18.81.06,37.52.29,37.29.47,18.54.3Z"></path><rect class="cls-5" x="126.2" y="41.29" width="299.95" height="101.12"></rect><rect class="cls-2" x="276.17" y="182.48" width="34.6" height="66.72"></rect><rect class="cls-2" x="241.57" y="182.48" width="34.6" height="66.72"></rect><line class="cls-6" x1="283.16" y1="214.35" x2="283.16" y2="222.98"></line><line class="cls-6" x1="269.19" y1="214.35" x2="269.19" y2="222.98"></line><path class="cls-3" d="M195.57,105.45H182.46c-2.26-2.51-4.14-4.5-5.64-6s-3.37-3.2-5.6-5.15H169.9v7.5a1.7,1.7,0,0,0,.33,1.06,2.39,2.39,0,0,0,1.24.73,9.9,9.9,0,0,0,1.43.29c.65.1,1.21.17,1.67.2v1.36H156.35v-1.36l1.84-.15a9.39,9.39,0,0,0,1.62-.23A2.34,2.34,0,0,0,161,103a1.76,1.76,0,0,0,.31-1.09V84.49a1.9,1.9,0,0,0-.26-1,2.37,2.37,0,0,0-1.28-.73,14.92,14.92,0,0,0-1.81-.38c-.7-.1-1.25-.18-1.65-.22V80.75h19.16c4.29,0,7.54.48,9.77,1.45s3.33,2.43,3.33,4.4a5,5,0,0,1-2.06,4.17,15.76,15.76,0,0,1-6.27,2.46l3.82,3.55q2.18,2,4.54,4.12c.49.46,1.17,1,2,1.67a6.36,6.36,0,0,0,2.28,1.21,13.62,13.62,0,0,0,1.41.21l1.21.1Zm-16.4-18.37a3.89,3.89,0,0,0-1.91-3.61,10.78,10.78,0,0,0-5.46-1.14h-1.9V92.67h1.83a9.56,9.56,0,0,0,5.49-1.34A4.79,4.79,0,0,0,179.17,87.08Z"></path><path class="cls-3" d="M231.72,82.11a11.73,11.73,0,0,0-1.59.22,7.56,7.56,0,0,0-1.37.44,6.83,6.83,0,0,0-1.84,1.07,17.59,17.59,0,0,0-1.58,1.45q-1.56,1.65-3.28,3.6t-3.74,4.27a8.73,8.73,0,0,0-1.62,2.27,8.65,8.65,0,0,0-.3,2.74v3.5a1.88,1.88,0,0,0,.33,1.1,2.28,2.28,0,0,0,1.24.76,17.43,17.43,0,0,0,1.73.33c.88.13,1.53.21,2,.23v1.36H202.6v-1.36c.45,0,1.1-.07,1.94-.14a11.72,11.72,0,0,0,1.77-.24,2.32,2.32,0,0,0,1.22-.74,1.94,1.94,0,0,0,.32-1.12V97.49c0-.38,0-.72,0-1a1.91,1.91,0,0,0-.17-.73,5.38,5.38,0,0,0-.58-.84c-.27-.34-.62-.79-1.06-1.33q-1.85-2.35-3.59-4.46t-3.29-4a9.3,9.3,0,0,0-1.65-1.54,9,9,0,0,0-1.7-.95,7.26,7.26,0,0,0-1.58-.4,16.3,16.3,0,0,0-1.67-.17V80.75h19.57v1.36a21.43,21.43,0,0,0-3.62.26c-.63.15-.94.35-.94.61a2.15,2.15,0,0,0,.35.76c.23.38.65,1,1.24,1.78s1.34,1.79,2.39,3.11,2.32,2.87,3.8,4.64Q219.89,88,221.6,86a7.91,7.91,0,0,0,1.71-2.55c0-.39-.34-.7-1-.9a13.32,13.32,0,0,0-3.25-.4V80.75h12.67Z"></path><path class="cls-3" d="M266.24,83.29a13.79,13.79,0,0,1,5.05,3.94,9.45,9.45,0,0,1,1.93,6,9,9,0,0,1-1.72,5.46,13,13,0,0,1-4.57,3.8,24.93,24.93,0,0,1-6.56,2.21,39.9,39.9,0,0,1-7.69.72H235.46v-1.36c.52,0,1.16,0,1.93-.1a8.56,8.56,0,0,0,1.54-.21,2.28,2.28,0,0,0,1.2-.71,1.67,1.67,0,0,0,.34-1.07V84.49a1.91,1.91,0,0,0-.31-1.07,2.26,2.26,0,0,0-1.23-.78,10,10,0,0,0-1.94-.4c-.68-.07-1.21-.11-1.58-.13V80.75h18.18a38.91,38.91,0,0,1,6.24.54A23.62,23.62,0,0,1,266.24,83.29ZM261.32,101a8.8,8.8,0,0,0,1.73-3.31,16.48,16.48,0,0,0,.54-4.43,13,13,0,0,0-.73-4.48,9.47,9.47,0,0,0-2.11-3.45,9.7,9.7,0,0,0-3.48-2.21,13.46,13.46,0,0,0-4.74-.78l-1.91,0-1.6,0v18.75a2.38,2.38,0,0,0,.23,1.1,2.09,2.09,0,0,0,.78.85,4.35,4.35,0,0,0,1.36.56,8.7,8.7,0,0,0,2.11.2,13.28,13.28,0,0,0,4.67-.73A7.43,7.43,0,0,0,261.32,101Z"></path><path class="cls-3" d="M306.88,87.05h-1.83a9.19,9.19,0,0,0-2.41-2.85,7.06,7.06,0,0,0-3.39-1.7,13.81,13.81,0,0,0-2-.14l-2.13,0h-5v9.52h3.51a11.85,11.85,0,0,0,2.41-.22,5.07,5.07,0,0,0,2-.87,4.32,4.32,0,0,0,1.12-1.41,6.74,6.74,0,0,0,.74-1.76h1.83v10.3H299.9a7,7,0,0,0-.74-1.83A4.78,4.78,0,0,0,298,94.53a4.6,4.6,0,0,0-1.87-.86,12.48,12.48,0,0,0-2.51-.23h-3.51v7.12a5.24,5.24,0,0,0,.23,1.76,1.74,1.74,0,0,0,.85,1,4.19,4.19,0,0,0,1.65.44c.7.07,1.65.1,2.85.1h2c.78,0,1.47,0,2.07-.11a15.12,15.12,0,0,0,1.89-.26A3.17,3.17,0,0,0,303,103a15.52,15.52,0,0,0,2.6-2.61,17.35,17.35,0,0,0,1.9-2.62h1.76l-.65,7.7H276.59v-1.36c.45,0,1.06-.07,1.83-.14a10.37,10.37,0,0,0,1.64-.24,2.34,2.34,0,0,0,1.23-.71,1.83,1.83,0,0,0,.31-1.09V84.49a1.87,1.87,0,0,0-.27-1,2.4,2.4,0,0,0-1.27-.74,11.92,11.92,0,0,0-1.76-.38c-.76-.11-1.32-.19-1.71-.22V80.75h30.29Z"></path><path class="cls-3" d="M351.41,82.11c-.45,0-1.1.09-1.93.19a6.09,6.09,0,0,0-2.26.68A2.63,2.63,0,0,0,346,84.59a11.35,11.35,0,0,0-.37,3.35v17.65h-4.29L320,86.49v11.6a10.58,10.58,0,0,0,.39,3.28,3,3,0,0,0,1.29,1.64,7.07,7.07,0,0,0,2.07.68c.95.2,1.7.33,2.27.4v1.36H311.34v-1.36a20.1,20.1,0,0,0,2.15-.25,6.92,6.92,0,0,0,2-.62,2.64,2.64,0,0,0,1.28-1.52,11.47,11.47,0,0,0,.35-3.42V86.58a3.76,3.76,0,0,0-.37-1.65,3.51,3.51,0,0,0-1.17-1.33,7,7,0,0,0-1.94-.93,15.48,15.48,0,0,0-2.49-.53V80.75h12.86l18.69,16.7V88.11a10.13,10.13,0,0,0-.41-3.32,3.1,3.1,0,0,0-1.3-1.61A7.66,7.66,0,0,0,339,82.5c-.92-.19-1.66-.33-2.22-.39V80.75h14.67Z"></path><path class="cls-3" d="M354.25,89.8a14.19,14.19,0,0,0,4.28-2.23,4.69,4.69,0,0,0,1.78-3.08H359a10.17,10.17,0,0,1-2.44-.24,4.38,4.38,0,0,1-1.52-.68,2.27,2.27,0,0,1-.79-.92A2.58,2.58,0,0,1,354,81.6a2.38,2.38,0,0,1,1.25-1.95,5.08,5.08,0,0,1,2.93-.84,5.92,5.92,0,0,1,4.08,1.28,4.45,4.45,0,0,1,1.42,3.51c0,1.39-.82,2.8-2.45,4.21a16.41,16.41,0,0,1-5.9,3.22Z"></path><path class="cls-3" d="M381.12,106.13a28.36,28.36,0,0,1-5.84-.57,26.37,26.37,0,0,1-4.59-1.33L369,105.45h-2l-.32-8.93h2.07a22.59,22.59,0,0,0,1.78,2.69,14.25,14.25,0,0,0,2.51,2.52,13.06,13.06,0,0,0,3.29,1.91,11.26,11.26,0,0,0,4.25.73,9.11,9.11,0,0,0,5-1.16,3.41,3.41,0,0,0,1.74-2.92,2.87,2.87,0,0,0-1.48-2.43,14.73,14.73,0,0,0-4.59-1.7l-3.72-.87c-1.13-.27-2.19-.55-3.19-.83a10.66,10.66,0,0,1-5.11-2.84,6,6,0,0,1-1.68-4.13,5,5,0,0,1,.87-2.78A8.23,8.23,0,0,1,371,82.32,13.8,13.8,0,0,1,375,80.7a21.83,21.83,0,0,1,5.39-.63,23.65,23.65,0,0,1,5.32.57,28,28,0,0,1,3.9,1.15l1.47-1h2.1l.19,8.42h-2.07a29.75,29.75,0,0,0-1.7-2.78A11.82,11.82,0,0,0,387.57,84a9.13,9.13,0,0,0-2.72-1.62,9.93,9.93,0,0,0-3.61-.6A7.72,7.72,0,0,0,377,82.87a3.1,3.1,0,0,0-1.65,2.64,2.83,2.83,0,0,0,1.43,2.42,14.64,14.64,0,0,0,4.47,1.66l3.64.87c1.23.29,2.33.57,3.3.83a12.49,12.49,0,0,1,5.3,2.7,5.58,5.58,0,0,1,1.82,4.26,5.38,5.38,0,0,1-1,3.1,8.18,8.18,0,0,1-2.8,2.49,16.16,16.16,0,0,1-4.45,1.69A25.76,25.76,0,0,1,381.12,106.13Z"></path><path class="cls-4" d="M5.26,12.45a5.86,5.86,0,0,1,4.53,1.18,5.9,5.9,0,0,1,2.43,4L25,105.75a3,3,0,0,1-2.59,3.48l-6.08.88a3,3,0,0,1-3.48-2.59L.07,19.41a5.9,5.9,0,0,1,1.18-4.54A5.92,5.92,0,0,1,5.26,12.45Z"></path><path class="cls-4" d="M19.23,11.19h6.83a2.73,2.73,0,0,1,2.73,2.73v232.5a6.14,6.14,0,0,1-6.14,6.14h0a6.14,6.14,0,0,1-6.14-6.14V13.92a2.73,2.73,0,0,1,2.73-2.73Z" transform="translate(64.03 259.11) rotate(171.72)"></path><ellipse class="cls-7" cx="40.01" cy="251.22" rx="12.78" ry="5.7" transform="translate(-35.76 8.38) rotate(-8.28)"></ellipse><path class="cls-4" d="M5.28,12.57a5.88,5.88,0,0,1,4.53,1.18,5.9,5.9,0,0,1,2.43,4l12.82,88.1a3,3,0,0,1-2.6,3.49l-6.07.88a3,3,0,0,1-3.48-2.6L.09,19.53A5.9,5.9,0,0,1,1.27,15,5.9,5.9,0,0,1,5.28,12.57Zm54.86,7.91L56,19.73l.94,6.46,2.36.24q5.16.8,8.09.95A40.2,40.2,0,0,0,76,27.09q10.26-1.48,23.07-9.37L101,30.82a67.57,67.57,0,0,1-14.72,6.8,45.39,45.39,0,0,1-12.37,1.61q-4.07,0-11.45-.76T51,37.71a57.21,57.21,0,0,0-13.15,1.53,68.7,68.7,0,0,0-15.35,6.5l-4.2-28.87a76.73,76.73,0,0,1,16.29-8,38.37,38.37,0,0,1,12-1.74,59.61,59.61,0,0,1,9.7,1.3,65.88,65.88,0,0,0,8.52,1.29,32.86,32.86,0,0,0,9.87-1.44A51.56,51.56,0,0,0,87.23,1.42a6.37,6.37,0,0,1,6.25-1,5.54,5.54,0,0,1,3.8,4.78l.86,5.89A69.39,69.39,0,0,1,82.25,19.2a37.45,37.45,0,0,1-11.71,2.1A62.6,62.6,0,0,1,60.14,20.48Zm1.77,24.18q6.12.66,9.42.76a54.4,54.4,0,0,0,10-.49Q91,43.52,102,37.28l1.68,11.58a56.9,56.9,0,0,1-14.71,6.8,41.06,41.06,0,0,1-12.35,1.8q-4.06,0-11.45-.76t-11.45-.76a46,46,0,0,0-13.16,1.53A68,68,0,0,0,25.17,64L23.48,52.38A57.39,57.39,0,0,1,38.2,45.59a40.68,40.68,0,0,1,12.34-1.8A97.68,97.68,0,0,1,61.91,44.66Zm2.66,18.23q6.11.66,9.42.76a55.39,55.39,0,0,0,10-.49q9.68-1.41,20.6-7.65l1,6.84a6.37,6.37,0,0,1-2.62,6,52.22,52.22,0,0,1-13.85,6.09A38.52,38.52,0,0,1,77.71,75.9a92,92,0,0,1-10.61-1A106.47,106.47,0,0,0,55.91,74a43.6,43.6,0,0,0-12.72,1.86A62,62,0,0,0,28,83.71l-1.91-13.1a57.06,57.06,0,0,1,14.72-6.79A40.68,40.68,0,0,1,53.19,62,98,98,0,0,1,64.57,62.89Zm-33-40.19a3,3,0,0,0,2.06-1.17,2.85,2.85,0,0,0,.55-2.21A3.19,3.19,0,0,0,33,17.26a3,3,0,0,0-4.37.63,3.2,3.2,0,0,0-.53,2.31,2.82,2.82,0,0,0,1.15,2A3,3,0,0,0,31.57,22.7Zm1.55,10.64a3,3,0,0,0,2.06-1.18,3.07,3.07,0,0,0-2.94-4.9,2.84,2.84,0,0,0-2.05,1.27,3.18,3.18,0,0,0-.54,2.31,2.89,2.89,0,0,0,1.16,2A3.05,3.05,0,0,0,33.12,33.34ZM43.5,19.41a2.94,2.94,0,0,0,2.06-1.17A2.85,2.85,0,0,0,46.11,16,3.22,3.22,0,0,0,44.94,14a3,3,0,0,0-4.37.64,3.21,3.21,0,0,0-.53,2.3,2.85,2.85,0,0,0,1.16,2A3,3,0,0,0,43.5,19.41Zm1.55,10.64a3,3,0,0,0,2.06-1.17,2.87,2.87,0,0,0,.55-2.22,3.22,3.22,0,0,0-1.17-2.06,3,3,0,0,0-4.37.64,3.18,3.18,0,0,0-.54,2.31,2.87,2.87,0,0,0,1.16,2A3,3,0,0,0,45.05,30.05Z"></path></g></g></svg> 