<svg xmlns="http://www.w3.org/2000/svg" viewBox="0 0 180.34 468" preserveAspectRatio="none"><defs><style>.cls-1{opacity:0.75;}.cls-2{fill:#345a58;}.cls-3,.cls-4{fill:#335a58;}.cls-4,.cls-6,.cls-7,.cls-8{opacity:0.23;isolation:isolate;}.cls-5,.cls-7{fill:#417370;}.cls-6{fill:#1d3432;}.cls-8{fill:#47817d;}</style></defs><g id="Layer_2" data-name="Layer 2"><g id="Homepage"><g class="cls-1"><polygon class="cls-2" points="180.34 0 180.34 468 0 468 180.34 0"/><polygon class="cls-3" points="157.57 468 180.34 468 180.34 452.59 176.64 448.88 157.57 468"/><polygon class="cls-4" points="157.57 468 180.34 468 180.34 452.59 176.64 448.88 157.57 468"/><polygon class="cls-5" points="180.34 452.59 180.34 445.18 176.64 448.88 180.34 452.59"/><polygon class="cls-4" points="180.34 452.59 180.34 445.18 176.64 448.88 180.34 452.59"/><polygon class="cls-5" points="180.34 130.38 98.49 212.4 63.13 304.17 180.34 186.71 180.34 130.38"/><polygon class="cls-6" points="180.34 130.38 98.49 212.4 63.13 304.17 180.34 186.71 180.34 130.38"/><polygon class="cls-5" points="180.34 0 179.62 1.86 180.34 1.14 180.34 0"/><polygon class="cls-4" points="180.34 0 179.62 1.86 180.34 1.14 180.34 0"/><polygon class="cls-3" points="176.64 448.88 112.16 384.27 28.61 468 157.57 468 176.64 448.88"/><polygon class="cls-7" points="176.64 448.88 112.16 384.27 28.61 468 157.57 468 176.64 448.88"/><polygon class="cls-5" points="176.64 448.88 180.34 445.18 180.34 315.95 112.16 384.27 176.64 448.88"/><polygon class="cls-7" points="176.64 448.88 180.34 445.18 180.34 315.95 112.16 384.27 176.64 448.88"/><polygon class="cls-3" points="54.52 326.5 0 468 28.61 468 112.16 384.27 54.52 326.5"/><polygon class="cls-4" points="54.52 326.5 0 468 28.61 468 112.16 384.27 54.52 326.5"/><polygon class="cls-5" points="180.34 315.95 180.34 186.71 63.13 304.17 54.52 326.5 112.16 384.27 180.34 315.95"/><polygon class="cls-4" points="180.34 315.95 180.34 186.71 63.13 304.17 54.52 326.5 112.16 384.27 180.34 315.95"/><polygon class="cls-5" points="180.34 1.14 179.62 1.86 98.49 212.4 180.34 130.38 180.34 1.14"/><polygon class="cls-8" points="180.34 1.14 179.62 1.86 98.49 212.4 180.34 130.38 180.34 1.14"/></g></g></g></svg>