<?xml version="1.0" encoding="UTF-8"?> <svg xmlns="http://www.w3.org/2000/svg" viewBox="0 0 505.62 406.07"><defs><style>.cls-1{isolation:isolate;}.cls-2,.cls-4,.cls-5,.cls-7{fill:#ddb893;}.cls-2{opacity:0.2;}.cls-13,.cls-3,.cls-6,.cls-9{fill:#fff;}.cls-13,.cls-3,.cls-6,.cls-8{stroke:#ddb893;}.cls-3,.cls-6{stroke-linecap:round;stroke-linejoin:round;stroke-width:4px;}.cls-5,.cls-6,.cls-7{fill-rule:evenodd;}.cls-5{opacity:0.1;}.cls-11,.cls-8{fill:#f7efe5;}.cls-13,.cls-8{stroke-miterlimit:10;}.cls-8{stroke-width:4.94px;}.cls-10{mix-blend-mode:multiply;}.cls-12{fill:#e6caaf;}.cls-13{stroke-width:5.07px;}</style></defs><g class="cls-1"><g id="Layer_2" data-name="Layer 2"><g id="Ryden_s_Page" data-name="Ryden's Page"><ellipse class="cls-2" cx="252.81" cy="353.42" rx="252.81" ry="37.86"></ellipse><rect class="cls-3" x="78.63" y="40.65" width="348.36" height="327.04"></rect><path class="cls-4" d="M413.15,333.75a35,35,0,0,1-3.9,6.18,58.89,58.89,0,0,1-4.73,5.35,55,55,0,0,1-5.36,4.74,34.26,34.26,0,0,1-6.18,3.9,33.75,33.75,0,0,1,3.91-6.18,53.65,53.65,0,0,1,4.73-5.35,56,56,0,0,1,5.35-4.73A34.44,34.44,0,0,1,413.15,333.75Z"></path><path class="cls-4" d="M398.78,334.85a34.61,34.61,0,0,1-3.9,6.18,56.27,56.27,0,0,1-4.73,5.36,57.4,57.4,0,0,1-5.35,4.73,33.6,33.6,0,0,1-6.19,3.9,34.44,34.44,0,0,1,3.91-6.18,57.4,57.4,0,0,1,4.73-5.35,56.27,56.27,0,0,1,5.36-4.73A34.56,34.56,0,0,1,398.78,334.85Z"></path><path class="cls-4" d="M92.46,74.58a34.44,34.44,0,0,1,3.91-6.18,57.4,57.4,0,0,1,4.73-5.35,56,56,0,0,1,5.35-4.73,34.09,34.09,0,0,1,6.18-3.91,33.71,33.71,0,0,1-3.9,6.18A56.27,56.27,0,0,1,104,66a58.73,58.73,0,0,1-5.36,4.72A34.44,34.44,0,0,1,92.46,74.58Z"></path><path class="cls-4" d="M106.83,73.48a34.09,34.09,0,0,1,3.91-6.18,57.35,57.35,0,0,1,4.73-5.36,55,55,0,0,1,5.35-4.73,33.52,33.52,0,0,1,6.18-3.9,35,35,0,0,1-3.9,6.18,56.09,56.09,0,0,1-4.74,5.35A57.4,57.4,0,0,1,113,69.57,34.44,34.44,0,0,1,106.83,73.48Z"></path><path class="cls-5" d="M78.63,40.65l11.14,105.8A233.33,233.33,0,0,0,297.44,354.08L427,367.68H78.63Z"></path><path class="cls-6" d="M427,40.65H78.63L117.28,2H388.34Z"></path><path class="cls-7" d="M411.28,24.94H94.34l7.18-7.18H404.1Z"></path><rect class="cls-8" x="174.05" y="237.56" width="20.12" height="78.28" transform="translate(249.58 -49.14) rotate(45)"></rect><path class="cls-4" d="M198.37,276.4l-14-14c-4.52-4.52-11.58-4.95-16.14-1L58.55,356.85a11.33,11.33,0,0,0-2.77,13.27A67.74,67.74,0,0,0,90.69,405,11.33,11.33,0,0,0,104,402.26l95.4-109.72C203.33,288,202.9,280.93,198.37,276.4Z"></path><line class="cls-9" x1="93.33" y1="354.66" x2="156.6" y2="291.39"></line><path class="cls-9" d="M93.33,354.66a210.9,210.9,0,0,1,14.08-17.56q7.43-8.4,15.34-16.29T139,305.46a208.76,208.76,0,0,1,17.56-14.07A208.76,208.76,0,0,1,142.53,309q-7.42,8.4-15.34,16.29t-16.3,15.34A210.9,210.9,0,0,1,93.33,354.66Z"></path><path class="cls-4" d="M294,58.26a108.54,108.54,0,1,1-76.75,31.79A108.21,108.21,0,0,1,294,58.26m0-5.73A114.27,114.27,0,1,0,374.81,86,113.49,113.49,0,0,0,294,52.53Z"></path><g class="cls-10"><circle class="cls-11" cx="294" cy="166.8" r="108.54"></circle></g><path class="cls-4" d="M294,58.26a108.54,108.54,0,1,1-76.75,31.79A108.21,108.21,0,0,1,294,58.26m0-11a119.55,119.55,0,1,0,84.53,35,118.73,118.73,0,0,0-84.53-35Z"></path><path class="cls-12" d="M294,58.26a108.54,108.54,0,1,1-76.75,31.79A108.21,108.21,0,0,1,294,58.26m0-2.81a111.35,111.35,0,1,0,78.74,32.62A110.62,110.62,0,0,0,294,55.45Z"></path><rect class="cls-13" x="211.35" y="104.04" width="160.89" height="127.82" rx="12.04"></rect><path class="cls-4" d="M244.05,135h-7.56v-3.92h19.76V135h-7.56v22.23h-4.64Z"></path><path class="cls-4" d="M260.61,131.12h8.84c5.44,0,9.6,1.92,9.6,7.76a7.32,7.32,0,0,1-5.2,7.48l6.24,10.91h-5.2L269.25,147h-4v10.23h-4.64ZM269,143.36c3.56,0,5.52-1.52,5.52-4.48s-2-4-5.52-4h-3.72v8.52Z"></path><path class="cls-4" d="M289.17,131.12h5.44l8.52,26.15h-4.88l-2-7.08h-8.8l-2,7.08h-4.72Zm-.68,15.44h6.68l-.92-3.2c-.84-2.76-1.6-5.76-2.36-8.64h-.16c-.72,2.92-1.48,5.88-2.32,8.64Z"></path><path class="cls-4" d="M304.61,144.28c0-8.56,5.36-13.64,12-13.64a10.39,10.39,0,0,1,7.56,3.32l-2.48,3a6.82,6.82,0,0,0-5-2.28c-4.28,0-7.32,3.6-7.32,9.48s2.8,9.55,7.2,9.55a7.45,7.45,0,0,0,5.6-2.68l2.48,2.92a10.55,10.55,0,0,1-8.24,3.8C309.81,157.75,304.61,153,304.61,144.28Z"></path><path class="cls-4" d="M329,131.12h4.64V143h.12l9.32-11.88h5.16l-8,10.2,9.4,16h-5.12L337.41,145l-3.76,4.67v7.64H329Z"></path><path class="cls-4" d="M266.21,197.47h-3.08v-3h3.4l.64-5.16h-3.24v-3h3.64l.88-7h2.76l-.84,7h4.68l.92-7h2.72l-.84,7h3.2v3h-3.56l-.64,5.16h3.4v3h-3.76l-.92,7.8h-2.8l.92-7.8H269l-1,7.8h-2.8Zm7.84-3,.64-5.16H270l-.64,5.16Z"></path><path class="cls-4" d="M286.73,197.47h-3.08v-3h3.4l.64-5.16h-3.24v-3h3.64l.88-7h2.76l-.84,7h4.68l.92-7h2.72l-.84,7h3.2v3H298l-.64,5.16h3.4v3H297l-.92,7.8h-2.8l.92-7.8h-4.68l-1,7.8h-2.8Zm7.84-3,.64-5.16h-4.72l-.64,5.16Z"></path><path class="cls-4" d="M307.25,197.47h-3.08v-3h3.4l.64-5.16H305v-3h3.64l.88-7h2.76l-.84,7h4.68l.92-7h2.72l-.84,7h3.2v3h-3.56l-.64,5.16h3.4v3h-3.76l-.92,7.8h-2.8l.92-7.8h-4.68l-1,7.8h-2.8Zm7.84-3,.64-5.16H311l-.64,5.16Z"></path><path class="cls-9" d="M230.32,123.39a52.1,52.1,0,0,1,6.85-13.28A72.58,72.58,0,0,1,247,98.83a76,76,0,0,1,11.82-9.09,59.41,59.41,0,0,1,13.48-6.36c-3.48,3.63-7.09,6.87-10.64,10.13s-7.08,6.45-10.56,9.7-6.89,6.55-10.3,9.92S234,120,230.32,123.39Z"></path><path class="cls-9" d="M235.53,92.46a17,17,0,0,1,2.18-7.59,24.3,24.3,0,0,1,4.8-6.14,25.42,25.42,0,0,1,6.4-4.33,19.58,19.58,0,0,1,7.6-2,43.1,43.1,0,0,1-4.88,5.81c-1.68,1.71-3.35,3.31-5,4.88s-3.4,3.08-5.18,4.63A69.49,69.49,0,0,1,235.53,92.46Z"></path></g></g></g></svg> 