<?xml version="1.0" encoding="UTF-8"?> <svg xmlns="http://www.w3.org/2000/svg" viewBox="0 0 453.51 304.1"><defs><style>.cls-1,.cls-2,.cls-8{fill:#ddb893;}.cls-1{opacity:0.2;}.cls-3{fill:#fcf7f2;}.cls-3,.cls-6,.cls-7{stroke:#ddb893;stroke-width:3px;}.cls-3,.cls-7{stroke-linejoin:round;}.cls-4,.cls-6,.cls-7{fill:#fff;}.cls-5{fill:#c1a482;}.cls-6{stroke-miterlimit:10;}.cls-8{opacity:0.1;}.cls-9{fill:#e3c5a6;}</style></defs><g id="Layer_2" data-name="Layer 2"><g id="Ryden_s_Page" data-name="Ryden's Page"><ellipse class="cls-1" cx="226.75" cy="278.07" rx="226.75" ry="26.03"></ellipse><path class="cls-2" d="M49.27,265.52H413.75a6.38,6.38,0,0,1,6.38,6.38v0a11.25,11.25,0,0,1-11.25,11.25H54.15A11.25,11.25,0,0,1,42.89,271.9v0a6.38,6.38,0,0,1,6.38-6.38Z"></path><path class="cls-3" d="M412.17,278.07H50.85a8,8,0,0,1-7.18-11.54l36.69-74.38a8,8,0,0,1,7.17-4.46h288a8,8,0,0,1,7.17,4.46l36.69,74.38A8,8,0,0,1,412.17,278.07Z"></path><path class="cls-4" d="M392.22,269.83H70.8a7,7,0,0,1-6.23-10l31.87-64.61a6.94,6.94,0,0,1,6.23-3.87H360.35a6.94,6.94,0,0,1,6.23,3.87l31.87,64.61A7,7,0,0,1,392.22,269.83Z"></path><path class="cls-5" d="M109.39,203.72l2.17-5.19c.17-.42,1-.76,1.81-.76h9.95c.82,0,1.36.34,1.2.76l-1.93,5.19c-.16.43-1,.79-1.82.79H110.58C109.74,204.51,109.21,204.15,109.39,203.72Zm35,.79H154.6c.84,0,1.61-.36,1.73-.79l1.33-5.19c.11-.42-.47-.76-1.29-.76h-10c-.82,0-1.59.34-1.72.76l-1.57,5.19C143,204.15,143.57,204.51,144.41,204.51Zm16.91,0h10.19c.84,0,1.6-.36,1.68-.79l1-5.19c.08-.42-.52-.76-1.34-.76h-9.95c-.82,0-1.58.34-1.68.76L160,203.72C159.89,204.15,160.48,204.51,161.32,204.51Zm16.92,0h10.18c.85,0,1.58-.36,1.64-.79l.74-5.19c.06-.42-.56-.76-1.38-.76h-10c-.82,0-1.55.34-1.63.76l-1,5.19C176.78,204.15,177.4,204.51,178.24,204.51Zm16.91,0h10.19c.84,0,1.55-.36,1.59-.79l.44-5.19c0-.42-.61-.76-1.43-.76H196c-.83,0-1.54.34-1.59.76l-.67,5.19C193.67,204.15,194.31,204.51,195.15,204.51Zm16.92,0h10.18c.84,0,1.54-.36,1.55-.79l.14-5.19c0-.42-.65-.76-1.48-.76h-10c-.82,0-1.51.34-1.54.76l-.37,5.19C210.56,204.15,211.22,204.51,212.07,204.51Zm16.91,0h10.19c.84,0,1.51-.36,1.5-.79l-.17-5.19c0-.42-.69-.76-1.51-.76H229c-.83,0-1.5.34-1.5.76l-.08,5.19C227.46,204.15,228.14,204.51,229,204.51Zm16.91,0h10.19c.84,0,1.49-.36,1.45-.79l-.46-5.19c0-.42-.73-.76-1.56-.76h-9.95c-.82,0-1.47.34-1.46.76l.23,5.19C244.35,204.15,245.05,204.51,245.89,204.51Zm16.92,0H273c.85,0,1.48-.36,1.41-.79l-.76-5.19c-.06-.42-.78-.76-1.6-.76h-10c-.83,0-1.46.34-1.42.76l.53,5.19C261.24,204.15,262,204.51,262.81,204.51Zm16.91,0h10.19c.84,0,1.45-.36,1.36-.79l-1.06-5.19c-.09-.42-.82-.76-1.65-.76h-9.95c-.82,0-1.44.34-1.37.76l.83,5.19C278.14,204.15,278.88,204.51,279.72,204.51Zm16.91,0h10.19c.84,0,1.43-.36,1.32-.79l-1.36-5.19c-.11-.42-.87-.76-1.69-.76h-10c-.82,0-1.41.34-1.32.76l1.13,5.19C295,204.15,295.79,204.51,296.63,204.51Zm16.92,0h10.18c.85,0,1.42-.36,1.28-.79l-1.66-5.19c-.14-.42-.91-.76-1.74-.76h-9.95c-.82,0-1.4.34-1.28.76l1.42,5.19C311.92,204.15,312.7,204.51,313.55,204.51Zm16.91,0h22c.84,0,1.37-.36,1.19-.79l-2.17-5.19c-.17-.42-1-.76-1.81-.76H328.18c-.82,0-1.37.34-1.23.76l1.72,5.19C328.82,204.15,329.62,204.51,330.46,204.51Zm-203,0h10.18c.85,0,1.64-.36,1.78-.79l1.63-5.19c.14-.42-.42-.76-1.25-.76h-10c-.82,0-1.61.34-1.76.76l-1.87,5.19C126.1,204.15,126.65,204.51,127.5,204.51Zm-20.58,8.89h13.25c.86,0,1.71-.38,1.87-.85l2-5.5c.16-.45-.4-.81-1.25-.81H109.87a2.12,2.12,0,0,0-1.87.81l-2.3,5.5C105.5,213,106.05,213.4,106.92,213.4Zm38.55,0H156c.87,0,1.67-.38,1.78-.85l1.35-5.5c.11-.45-.49-.81-1.34-.81H147.5c-.84,0-1.64.36-1.77.81l-1.59,5.5C144,213,144.6,213.4,145.47,213.4Zm17.89,0h10.5c.87,0,1.64-.38,1.73-.85l1-5.5c.08-.45-.54-.81-1.39-.81H165c-.85,0-1.62.36-1.72.81l-1.28,5.5C161.88,213,162.49,213.4,163.36,213.4Zm17.9,0h10.49c.87,0,1.62-.38,1.68-.85l.7-5.5c.06-.45-.59-.81-1.43-.81H182.45c-.85,0-1.6.36-1.67.81l-.95,5.5C179.75,213,180.39,213.4,181.26,213.4Zm17.9,0h10.49c.87,0,1.6-.38,1.63-.85l.37-5.5c0-.45-.63-.81-1.48-.81H199.92c-.84,0-1.57.36-1.62.81l-.62,5.5C197.63,213,198.29,213.4,199.16,213.4Zm17.89,0h10.5c.87,0,1.57-.38,1.58-.85l0-5.5c0-.45-.68-.81-1.53-.81H217.4c-.85,0-1.56.36-1.58.81l-.29,5.5C215.5,213,216.19,213.4,217.05,213.4Zm17.9,0h10.5c.86,0,1.55-.38,1.52-.85l-.28-5.5c0-.45-.73-.81-1.57-.81H234.87c-.85,0-1.53.36-1.53.81l0,5.5C233.38,213,234.08,213.4,235,213.4Zm17.9,0h10.49c.87,0,1.53-.38,1.48-.85l-.61-5.5c0-.45-.77-.81-1.62-.81H252.34c-.85,0-1.51.36-1.48.81l.36,5.5C251.25,213,252,213.4,252.85,213.4Zm17.89,0h10.5c.87,0,1.51-.38,1.43-.85l-.94-5.5c-.07-.45-.82-.81-1.67-.81H269.82c-.85,0-1.49.36-1.44.81l.69,5.5C269.13,213,269.88,213.4,270.74,213.4Zm17.9,0h10.5c.87,0,1.48-.38,1.38-.85l-1.26-5.5c-.11-.45-.88-.81-1.72-.81H287.29c-.85,0-1.47.36-1.39.81l1,5.5C287,213,287.77,213.4,288.64,213.4Zm17.9,0H317c.87,0,1.47-.38,1.33-.85l-1.58-5.5c-.13-.45-.92-.81-1.77-.81H304.76c-.85,0-1.45.36-1.34.81l1.34,5.5C304.87,213,305.67,213.4,306.54,213.4Zm17.9,0h10.49c.87,0,1.44-.38,1.28-.85l-1.91-5.5c-.16-.45-1-.81-1.82-.81H322.23c-.84,0-1.42.36-1.29.81l1.67,5.5C322.75,213,323.57,213.4,324.44,213.4Zm17.89,0H356.1c.87,0,1.42-.38,1.22-.85l-2.3-5.5a2.12,2.12,0,0,0-1.87-.81H339.71c-.85,0-1.41.36-1.24.81l2,5.5C340.62,213,341.46,213.4,342.33,213.4Zm-214.76,0h10.49c.87,0,1.69-.38,1.83-.85l1.68-5.5c.13-.45-.45-.81-1.29-.81H130c-.85,0-1.66.36-1.82.81l-1.92,5.5C126.13,213,126.7,213.4,127.57,213.4ZM103,222.84h17.17a2.13,2.13,0,0,0,1.94-.9l2.06-5.84c.16-.48-.41-.86-1.28-.86H106.16a2.18,2.18,0,0,0-1.94.86l-2.45,5.84C101.57,222.44,102.13,222.84,103,222.84Zm25.13,0H139c.9,0,1.74-.4,1.88-.9l1.71-5.84c.14-.48-.46-.86-1.33-.86H130.67c-.87,0-1.71.38-1.87.86l-2,5.84C126.66,222.44,127.25,222.84,128.15,222.84Zm18.78,0h10.82c.9,0,1.72-.4,1.83-.9l1.36-5.84c.11-.48-.51-.86-1.39-.86H149c-.87,0-1.68.38-1.82.86l-1.61,5.84C145.42,222.44,146,222.84,146.93,222.84Zm18.78,0h10.83c.89,0,1.68-.4,1.77-.9l1-5.84c.08-.48-.56-.86-1.43-.86H167.32c-.88,0-1.67.38-1.77.86l-1.27,5.84C164.18,222.44,164.82,222.84,165.71,222.84Zm18.78,0h10.83c.89,0,1.66-.4,1.72-.9l.65-5.84c.05-.48-.62-.86-1.49-.86H185.64c-.87,0-1.64.38-1.71.86l-.92,5.84C182.94,222.44,183.6,222.84,184.49,222.84Zm18.79,0H214.1c.89,0,1.64-.4,1.67-.9l.29-5.84c0-.48-.66-.86-1.54-.86H204c-.87,0-1.61.38-1.66.86l-.56,5.84C201.69,222.44,202.38,222.84,203.28,222.84Zm18.78,0h10.82c.9,0,1.62-.4,1.61-.9l-.05-5.84c0-.48-.72-.86-1.59-.86H222.29c-.87,0-1.6.38-1.61.86l-.21,5.84C220.45,222.44,221.16,222.84,222.06,222.84Zm18.78,0h10.82c.9,0,1.6-.4,1.56-.9l-.41-5.84c0-.48-.76-.86-1.64-.86H240.61c-.87,0-1.57.38-1.56.86l.15,5.84C239.21,222.44,239.94,222.84,240.84,222.84Zm18.78,0h10.83c.89,0,1.56-.4,1.5-.9l-.76-5.84c-.06-.48-.82-.86-1.69-.86H258.94c-.88,0-1.55.38-1.51.86l.49,5.84C258,222.44,258.73,222.84,259.62,222.84Zm18.78,0h10.83c.89,0,1.54-.4,1.45-.9l-1.12-5.84c-.09-.48-.87-.86-1.74-.86H277.26c-.87,0-1.53.38-1.46.86l.85,5.84C276.73,222.44,277.51,222.84,278.4,222.84Zm18.79,0H308c.9,0,1.52-.4,1.4-.9l-1.47-5.84c-.12-.48-.92-.86-1.8-.86H295.58c-.87,0-1.5.38-1.4.86l1.2,5.84C295.48,222.44,296.29,222.84,297.19,222.84Zm18.78,0h10.82c.9,0,1.5-.4,1.35-.9l-1.82-5.84c-.15-.48-1-.86-1.85-.86H313.91c-.88,0-1.48.38-1.36.86l1.56,5.84C314.24,222.44,315.07,222.84,316,222.84Zm18.78,0H360c.89,0,1.45-.4,1.25-.9l-2.45-5.84a2.19,2.19,0,0,0-1.94-.86H332.23c-.87,0-1.46.38-1.3.86l1.91,5.84C333,222.44,333.86,222.84,334.75,222.84Zm-235.88,10H123.6c.92,0,1.82-.43,2-.95l2.06-6.23c.16-.5-.43-.91-1.33-.91H102.21a2.29,2.29,0,0,0-2,.91l-2.6,6.23C97.38,232.46,98,232.89,98.87,232.89Zm32.61,0h11.18c.92,0,1.79-.43,1.93-.95l1.69-6.23c.13-.5-.48-.91-1.39-.91H134c-.9,0-1.76.41-1.92.91l-2,6.23C130,232.46,130.56,232.89,131.48,232.89Zm19.06,0h11.17c.93,0,1.77-.43,1.88-.95l1.32-6.23c.11-.5-.54-.91-1.44-.91H152.58c-.9,0-1.74.41-1.87.91l-1.6,6.23C149,232.46,149.62,232.89,150.54,232.89Zm19.06,0h11.17c.93,0,1.74-.43,1.82-.95l.95-6.23c.08-.5-.59-.91-1.49-.91H171.16c-.9,0-1.72.41-1.82.91l-1.23,6.23C168,232.46,168.67,232.89,169.6,232.89Zm19.05,0h11.18c.92,0,1.71-.43,1.76-.95l.58-6.23c.05-.5-.64-.91-1.54-.91h-10.9c-.9,0-1.68.41-1.75.91l-.87,6.23C187,232.46,187.73,232.89,188.65,232.89Zm19.06,0h11.17c.93,0,1.69-.43,1.71-.95l.21-6.23c0-.5-.7-.91-1.6-.91H208.31c-.9,0-1.66.41-1.7.91l-.5,6.23C206.07,232.46,206.79,232.89,207.71,232.89Zm19.06,0h11.17c.93,0,1.66-.43,1.65-.95l-.16-6.23c0-.5-.75-.91-1.65-.91H226.89c-.9,0-1.64.41-1.65.91l-.13,6.23C225.1,232.46,225.84,232.89,226.77,232.89Zm19.06,0H257c.92,0,1.64-.43,1.59-.95l-.52-6.23c-.05-.5-.81-.91-1.71-.91H245.47c-.91,0-1.62.41-1.6.91l.24,6.23C244.14,232.46,244.9,232.89,245.83,232.89Zm19,0h11.18c.92,0,1.61-.43,1.53-.95l-.89-6.23c-.08-.5-.86-.91-1.77-.91H264c-.9,0-1.59.41-1.54.91l.61,6.23C263.17,232.46,264,232.89,264.88,232.89Zm19.06,0h11.17c.93,0,1.59-.43,1.48-.95l-1.26-6.23c-.1-.5-.92-.91-1.82-.91H282.62c-.9,0-1.57.41-1.49.91l1,6.23C282.2,232.46,283,232.89,283.94,232.89Zm19.06,0h11.17c.92,0,1.56-.43,1.42-.95L314,225.71c-.13-.5-1-.91-1.87-.91H301.2c-.9,0-1.55.41-1.44.91l1.36,6.23C301.23,232.46,302.07,232.89,303,232.89Zm19.05,0h42.1c.92,0,1.49-.43,1.27-.95l-2.6-6.23a2.29,2.29,0,0,0-2-.91h-41c-.9,0-1.51.41-1.38.91l1.73,6.23C320.26,232.46,321.13,232.89,322.05,232.89ZM94.45,243.62H106a2.32,2.32,0,0,0,2.11-1l2.48-6.65c.2-.53-.39-1-1.32-1H98a2.38,2.38,0,0,0-2.09,1l-2.78,6.65C92.91,243.16,93.49,243.62,94.45,243.62Zm37.51,0h11.55c1,0,1.84-.46,2-1l1.72-6.65c.14-.53-.5-1-1.43-1H134.55c-.93,0-1.82.44-2,1l-2,6.65C130.37,243.16,131,243.62,132,243.62Zm18.75,0h11.55c1,0,1.82-.46,1.94-1l1.35-6.65c.11-.53-.56-1-1.49-1H152.81c-.93,0-1.79.44-1.92,1l-1.65,6.65C149.1,243.16,149.76,243.62,150.71,243.62Zm18.76,0H256c.95,0,1.69-.46,1.65-1l-.53-6.65c0-.53-.83-1-1.76-1H171.08c-.93,0-1.76.44-1.87,1l-1.27,6.65C167.83,243.16,168.52,243.62,169.47,243.62Zm93.78,0h11.54c1,0,1.67-.46,1.6-1l-.91-6.65c-.07-.53-.88-1-1.81-1H262.42c-.93,0-1.64.44-1.59,1l.6,6.65C261.48,243.16,262.29,243.62,263.25,243.62Zm18.75,0h11.55c.95,0,1.64-.46,1.53-1L293.81,236c-.11-.53-.94-1-1.87-1H280.69c-.93,0-1.62.44-1.54,1l1,6.65C280.21,243.16,281.05,243.62,282,243.62Zm18.76,0H312.3c1,0,1.62-.46,1.48-1L312.13,236c-.13-.53-1-1-1.93-1H299c-.93,0-1.6.44-1.49,1l1.35,6.65C298.94,243.16,299.8,243.62,300.76,243.62Zm18.75,0h11.55c1,0,1.59-.46,1.42-1l-2-6.65c-.16-.53-1.05-1-2-1H317.23c-.93,0-1.57.44-1.43,1l1.72,6.65C317.67,243.16,318.56,243.62,319.51,243.62Zm18.76,0h11.55c.95,0,1.56-.46,1.36-1l-.72-2a2.24,2.24,0,0,0-2.07-1H337c-.94,0-1.56.44-1.39,1l.63,2A2.19,2.19,0,0,0,338.27,243.62ZM323,196.13h9.89c.82,0,1.37-.34,1.22-.75l-.53-1.46c-.15-.4-.92-.73-1.73-.73h-9.8c-.81,0-1.36.33-1.23.73l.46,1.46C321.42,195.79,322.19,196.13,323,196.13Zm16.07,0H349c.82,0,1.34-.34,1.17-.75l-.61-1.46a2.08,2.08,0,0,0-1.78-.73H338c-.81,0-1.34.33-1.19.73l.54,1.46C337.48,195.79,338.27,196.13,339.08,196.13Zm-32.15,0h9.9c.82,0,1.38-.34,1.25-.75l-.44-1.46c-.12-.4-.88-.73-1.69-.73h-9.8c-.81,0-1.38.33-1.27.73l.38,1.46C305.37,195.79,306.12,196.13,306.93,196.13Zm-16.07,0h9.9c.81,0,1.39-.34,1.29-.75l-.36-1.46c-.1-.4-.84-.73-1.65-.73h-9.79c-.81,0-1.4.33-1.32.73l.3,1.46C289.31,195.79,290,196.13,290.86,196.13Zm-16.07,0h9.89c.82,0,1.42-.34,1.34-.75l-.28-1.46c-.08-.4-.8-.73-1.61-.73h-9.79c-.81,0-1.42.33-1.36.73l.21,1.46C273.25,195.79,274,196.13,274.79,196.13Zm-16.08,0h9.9c.82,0,1.43-.34,1.38-.75l-.2-1.46c-.06-.4-.76-.73-1.57-.73h-9.79c-.81,0-1.44.33-1.4.73l.13,1.46C257.2,195.79,257.89,196.13,258.71,196.13Zm-16.07,0h9.89c.82,0,1.46-.34,1.43-.75l-.12-1.46c0-.4-.72-.73-1.53-.73h-9.79c-.81,0-1.45.33-1.44.73l0,1.46C241.14,195.79,241.82,196.13,242.64,196.13Zm-16.08,0h9.9c.82,0,1.47-.34,1.46-.75l0-1.46c0-.4-.67-.73-1.48-.73h-9.8c-.81,0-1.47.33-1.48.73l0,1.46C225.09,195.79,225.74,196.13,226.56,196.13Zm-16.07,0h9.89c.82,0,1.5-.34,1.51-.75l.05-1.46c0-.4-.63-.73-1.44-.73h-9.79c-.82,0-1.5.33-1.53.73l-.12,1.46C209,195.79,209.67,196.13,210.49,196.13Zm-16.08,0h9.9c.82,0,1.51-.34,1.55-.75l.13-1.46c0-.4-.59-.73-1.4-.73H194.8c-.81,0-1.51.33-1.57.73l-.2,1.46C193,195.79,193.59,196.13,194.41,196.13Zm-16.07,0h9.89c.82,0,1.54-.34,1.6-.75l.21-1.46c.06-.4-.55-.73-1.36-.73h-9.79c-.81,0-1.53.33-1.61.73l-.28,1.46C176.92,195.79,177.52,196.13,178.34,196.13Zm-16.08,0h9.9c.82,0,1.55-.34,1.63-.75l.3-1.46c.08-.4-.51-.73-1.32-.73H163c-.81,0-1.55.33-1.65.73l-.36,1.46C160.87,195.79,161.45,196.13,162.26,196.13Zm-16.07,0h9.9c.81,0,1.56-.34,1.67-.75l.38-1.46c.11-.4-.47-.73-1.28-.73h-9.79c-.81,0-1.57.33-1.69.73l-.44,1.46C144.81,195.79,145.37,196.13,146.19,196.13Zm-16.07,0H140c.82,0,1.59-.34,1.72-.75l.46-1.46c.13-.4-.42-.73-1.23-.73h-9.8c-.81,0-1.58.33-1.73.73l-.53,1.46C128.75,195.79,129.3,196.13,130.12,196.13Zm-16.08,0h9.9c.81,0,1.6-.34,1.76-.75l.54-1.46c.15-.4-.38-.73-1.19-.73h-9.79a2.08,2.08,0,0,0-1.78.73l-.61,1.46C112.7,195.79,113.22,196.13,114,196.13Zm222.7,42.74h11.39c.94,0,1.54-.45,1.34-1l-.69-1.93a2.26,2.26,0,0,0-2-1H335.5c-.94,0-1.55.44-1.38,1l.61,1.93A2.14,2.14,0,0,0,336.74,238.87ZM357,243.62h11.54c1,0,1.54-.46,1.31-1L367.1,236a2.39,2.39,0,0,0-2.09-1H353.76c-.93,0-1.52.44-1.32,1l2.48,6.65A2.32,2.32,0,0,0,357,243.62Zm-243.83,0h11.55a2.19,2.19,0,0,0,2-1l2.1-6.65c.17-.53-.45-1-1.38-1H116.28a2.26,2.26,0,0,0-2,1l-2.4,6.65C111.64,243.16,112.25,243.62,113.2,243.62Z"></path><path class="cls-2" d="M218.64,211.81h10.49l0-4.76c0-.45-.68-.81-1.53-.81H217.37l-.25,4.71C217.09,211.43,217.77,211.81,218.64,211.81Z"></path><path class="cls-2" d="M162.91,202.92h10.45l.87-4.38c.08-.42-.52-.76-1.34-.76H162.65l-1.07,4.35C161.48,202.56,162.07,202.92,162.91,202.92Z"></path><path class="cls-2" d="M287.82,215.24H277.5l.74,5.11c.07.5.86.9,1.75.9h10.56l-1-5.15C289.47,215.62,288.69,215.24,287.82,215.24Z"></path><path class="cls-2" d="M205.94,197.77H195.88l-.56,4.36c-.06.43.58.79,1.42.79H207l.37-4.39C207.4,198.11,206.76,197.77,205.94,197.77Z"></path><path class="cls-2" d="M179.83,202.92h10.35l.62-4.38c.06-.42-.56-.76-1.38-.76H179.26l-.81,4.35C178.37,202.56,179,202.92,179.83,202.92Z"></path><path class="cls-2" d="M322.88,193.79c.13.41.9.75,1.72.75h9.21l-.22-.62c-.15-.4-.92-.73-1.73-.73h-9.17Z"></path><path class="cls-2" d="M163.47,224.8H152.58a3.42,3.42,0,0,0-.46,0l-1.42,5.51c-.13.52.51,1,1.43,1H163.3a3,3,0,0,0,.43,0l1.18-5.56C165,225.21,164.37,224.8,163.47,224.8Z"></path><path class="cls-2" d="M306.85,193.79c.1.41.86.75,1.67.75h9.31l-.19-.62c-.12-.4-.88-.73-1.69-.73h-9.26Z"></path><path class="cls-2" d="M338.33,237.28h10.93l-.48-1.33a2.26,2.26,0,0,0-2-1H335.9l.42,1.31A2.14,2.14,0,0,0,338.33,237.28Z"></path><path class="cls-2" d="M262.59,206.24H252.5l.31,4.72c0,.47.76.85,1.63.85h10.3l-.53-4.76C264.16,206.6,263.44,206.24,262.59,206.24Z"></path><path class="cls-2" d="M308.13,211.81h10l-1.37-4.76c-.13-.45-.92-.81-1.77-.81H305.2l1.15,4.72C306.46,211.43,307.26,211.81,308.13,211.81Z"></path><path class="cls-2" d="M204.86,221.25H215.8l.26-5.14c0-.48-.66-.86-1.54-.86h-10.7l-.49,5.1C203.28,220.85,204,221.25,204.86,221.25Z"></path><path class="cls-2" d="M251.17,215.24H240.66l.13,5.11c0,.5.74.9,1.64.9h10.74l-.36-5.15C252.78,215.62,252.05,215.24,251.17,215.24Z"></path><path class="cls-2" d="M186.08,221.25h11l.57-5.14c.05-.48-.62-.86-1.49-.86H185.4l-.8,5.1C184.52,220.85,185.19,221.25,186.08,221.25Z"></path><path class="cls-2" d="M236.54,211.81h10.4l-.25-4.76c0-.45-.73-.81-1.57-.81H234.93l0,4.72C235,211.43,235.67,211.81,236.54,211.81Z"></path><path class="cls-2" d="M223.65,221.25h10.84l-.05-5.15c0-.48-.72-.86-1.59-.86H222.24l-.18,5.11C222,220.85,222.75,221.25,223.65,221.25Z"></path><path class="cls-2" d="M332.48,206.24h-9.71L324.2,211c.14.47,1,.85,1.83.85H336l-1.65-4.76C334.14,206.6,333.33,206.24,332.48,206.24Z"></path><path class="cls-2" d="M290.23,211.81h10.11l-1.08-4.76c-.11-.45-.88-.81-1.72-.81h-9.9l.86,4.72C288.59,211.43,289.36,211.81,290.23,211.81Z"></path><path class="cls-2" d="M272.33,211.81h10.21l-.81-4.76c-.07-.45-.82-.81-1.67-.81h-10l.59,4.72C270.72,211.43,271.47,211.81,272.33,211.81Z"></path><path class="cls-2" d="M290.82,193.79c.08.41.81.75,1.63.75h9.39l-.15-.62c-.1-.4-.84-.73-1.65-.73h-9.35Z"></path><path class="cls-2" d="M274.78,193.79c.06.41.78.75,1.6.75h9.48l-.12-.62c-.08-.4-.8-.73-1.61-.73h-9.44Z"></path><path class="cls-2" d="M127,242l1.89-6c.17-.53-.45-1-1.38-1H116.28a3.19,3.19,0,0,0-.7.08L113.43,241c-.2.56.41,1,1.36,1h11.55A3,3,0,0,0,127,242Z"></path><path class="cls-2" d="M130.7,193.23l-.21.56c-.15.41.4.75,1.21.75h9.9a2.6,2.6,0,0,0,.4,0l.19-.59c.13-.4-.42-.73-1.23-.73h-9.8A2.32,2.32,0,0,0,130.7,193.23Z"></path><path class="cls-2" d="M164.06,235H152.81a2.83,2.83,0,0,0-.5.05l-1.48,6c-.14.56.52,1,1.47,1h11.55a2.42,2.42,0,0,0,.47-.05l1.23-6C165.66,235.42,165,235,164.06,235Z"></path><path class="cls-2" d="M114.69,193.24l-.23.55c-.17.41.35.75,1.17.75h9.9a4.21,4.21,0,0,0,.5,0l.21-.58c.15-.4-.38-.73-1.19-.73h-9.79A3.45,3.45,0,0,0,114.69,193.24Z"></path><path class="cls-2" d="M369.64,242,367.1,236a2.39,2.39,0,0,0-2.09-1H354.26l2.25,6a2.32,2.32,0,0,0,2.11,1Z"></path><path class="cls-2" d="M257.64,242l-.48-6.08c0-.53-.83-1-1.76-1H171.08a2.6,2.6,0,0,0-.4,0l-1.15,6c-.11.56.57,1,1.53,1h86.58Z"></path><path class="cls-2" d="M332.31,242,330.45,236c-.16-.53-1.05-1-2-1H317.55l1.56,6c.15.56,1,1,2,1Z"></path><path class="cls-2" d="M313.64,242,312.13,236c-.13-.53-1-1-1.93-1h-11l1.22,6c.12.56,1,1,1.94,1Z"></path><path class="cls-2" d="M145.66,242l1.56-6c.14-.53-.5-1-1.43-1H134.55a2.91,2.91,0,0,0-.6.06l-1.82,6c-.17.56.46,1,1.42,1h11.54A3.43,3.43,0,0,0,145.66,242Z"></path><path class="cls-2" d="M146,202.92h10.19l.35,0,1.12-4.37c.11-.42-.47-.76-1.29-.76h-10a2.56,2.56,0,0,0-.39,0l-1.31,4.33C144.58,202.56,145.16,202.92,146,202.92Z"></path><path class="cls-2" d="M212.08,194.54h9.84l0-.62c0-.4-.63-.73-1.44-.73h-9.8l0,.6C210.62,194.2,211.26,194.54,212.08,194.54Z"></path><path class="cls-2" d="M242.72,193.79c0,.41.69.75,1.51.75h9.66l0-.62c0-.4-.72-.73-1.53-.73H242.7Z"></path><path class="cls-2" d="M258.75,193.79c0,.41.73.75,1.55.75h9.57l-.08-.62c-.06-.4-.76-.73-1.57-.73H258.7Z"></path><path class="cls-2" d="M228.15,194.54h9.75v-.62c0-.4-.67-.73-1.48-.73H226.7v.6C226.68,194.2,227.33,194.54,228.15,194.54Z"></path><path class="cls-2" d="M146.7,193.21l-.17.58c-.13.41.43.75,1.25.75h9.89l.31,0,.16-.6c.11-.4-.47-.73-1.28-.73h-9.79Z"></path><path class="cls-2" d="M162.7,193.2l-.14.59c-.11.41.48.75,1.29.75H174l.12-.61c.08-.4-.51-.73-1.32-.73H162.7Z"></path><path class="cls-2" d="M178.7,193.2l-.11.59c-.08.41.52.75,1.34.75h10l.09-.61c.06-.4-.55-.73-1.36-.73h-10Z"></path><path class="cls-2" d="M196,194.54h9.93l.06-.62c0-.4-.59-.73-1.4-.73H194.7l-.08.6C194.57,194.2,195.18,194.54,196,194.54Z"></path><path class="cls-2" d="M108.35,241.93l2.23-6c.2-.53-.39-1-1.32-1H98a3,3,0,0,0-.8.11L94.73,241c-.23.56.35,1,1.31,1h11.54A3.18,3.18,0,0,0,108.35,241.93Z"></path><path class="cls-2" d="M129.09,202.92h10.18a3.14,3.14,0,0,0,.45,0l1.37-4.35c.14-.42-.42-.76-1.25-.76h-10a2.63,2.63,0,0,0-.49,0l-1.55,4.32C127.69,202.56,128.24,202.92,129.09,202.92Z"></path><path class="cls-2" d="M349.65,197.77H328.81l1.45,4.36c.15.43.95.79,1.79.79H353.3l-1.84-4.39C351.29,198.11,350.48,197.77,349.65,197.77Z"></path><path class="cls-2" d="M338.69,193.19l.22.6c.16.41.94.75,1.76.75h9.13l-.26-.62a2.08,2.08,0,0,0-1.78-.73Z"></path><path class="cls-2" d="M222.46,197.77h-10l-.31,4.36c0,.43.62.79,1.46.79h10.17l.12-4.39C224,198.11,223.29,197.77,222.46,197.77Z"></path><path class="cls-2" d="M175.22,206.24H165l-.32,0-1.09,4.7c-.1.47.51.85,1.38.85h10.5l.28,0,.88-4.74C176.69,206.6,176.07,206.24,175.22,206.24Z"></path><path class="cls-2" d="M239,197.77h-9.88l-.06,4.36c0,.43.68.79,1.52.79h10.07l-.14-4.39C240.49,198.11,239.81,197.77,239,197.77Z"></path><path class="cls-2" d="M360.81,224.8H320.17l1.54,5.55c.14.52,1,1,1.93,1h41.52l-2.34-5.59A2.29,2.29,0,0,0,360.81,224.8Z"></path><path class="cls-2" d="M353.15,206.24H340.34l1.71,4.72c.16.47,1,.85,1.87.85H357l-2-4.76A2.12,2.12,0,0,0,353.15,206.24Z"></path><path class="cls-2" d="M274.93,224.8H264.16l.54,5.55c.06.52.85,1,1.77,1h11l-.8-5.59C276.62,225.21,275.84,224.8,274.93,224.8Z"></path><path class="cls-2" d="M356.86,215.24h-24.1l1.67,5.11c.16.5,1,.9,1.91.9H361l-2.16-5.15A2.19,2.19,0,0,0,356.86,215.24Z"></path><path class="cls-2" d="M314,225.71c-.13-.5-1-.91-1.87-.91H301.5l1.21,5.55c.11.52,1,1,1.88,1h10.84Z"></path><path class="cls-2" d="M261.21,221.25h10.65l-.67-5.15c-.06-.48-.82-.86-1.69-.86H259.08l.43,5.11C259.56,220.85,260.32,221.25,261.21,221.25Z"></path><path class="cls-2" d="M293.51,224.8H282.83l.87,5.55c.09.52.9,1,1.83,1h10.93l-1.13-5.59C295.23,225.21,294.41,224.8,293.51,224.8Z"></path><path class="cls-2" d="M200.63,224.8H189.47l-.77,5.54c-.07.52.62,1,1.54,1h11.41l.52-5.58C202.22,225.21,201.53,224.8,200.63,224.8Z"></path><path class="cls-2" d="M295,242,293.81,236c-.11-.53-.94-1-1.87-1H280.83l.88,6c.09.56.93,1,1.88,1Z"></path><path class="cls-2" d="M108.51,211.81h13.25a3.8,3.8,0,0,0,.58-.06l1.71-4.7c.16-.45-.4-.81-1.25-.81H109.87a3.3,3.3,0,0,0-.64.07L107.29,211C107.09,211.43,107.64,211.81,108.51,211.81Z"></path><path class="cls-2" d="M104.61,221.25h17.17a3.08,3.08,0,0,0,.61-.06l1.8-5.09c.16-.48-.41-.86-1.28-.86H106.16a3.1,3.1,0,0,0-.69.08l-2.11,5C103.16,220.85,103.71,221.25,104.61,221.25Z"></path><path class="cls-2" d="M112.17,202.92h10.19a3.31,3.31,0,0,0,.55,0l1.61-4.34c.16-.42-.38-.76-1.2-.76h-9.95a3.7,3.7,0,0,0-.59,0l-1.8,4.31C110.8,202.56,111.33,202.92,112.17,202.92Z"></path><path class="cls-2" d="M276.31,242l-.83-6.08c-.07-.53-.88-1-1.81-1h-11.2l.55,6c.05.56.86,1,1.82,1Z"></path><path class="cls-2" d="M100.46,231.3h24.73a2.59,2.59,0,0,0,.63-.07l1.83-5.52c.16-.5-.43-.91-1.33-.91H102.21a3.06,3.06,0,0,0-.74.09l-2.28,5.46C99,230.87,99.54,231.3,100.46,231.3Z"></path><path class="cls-2" d="M351,242l-.51-1.41a2.24,2.24,0,0,0-2.07-1h-11l.44,1.39a2.18,2.18,0,0,0,2.05,1Z"></path><path class="cls-2" d="M255.51,197.77h-9.78l.19,4.36c0,.43.72.79,1.56.79h10l-.39-4.39C257,198.11,256.34,197.77,255.51,197.77Z"></path><path class="cls-2" d="M288.56,197.77H279l.7,4.36c.07.43.81.79,1.65.79h9.8l-.9-4.39C290.12,198.11,289.39,197.77,288.56,197.77Z"></path><path class="cls-2" d="M272,197.77h-9.69l.44,4.36c0,.43.76.79,1.61.79h9.89l-.65-4.39C273.58,198.11,272.86,197.77,272,197.77Z"></path><path class="cls-2" d="M321.61,197.77h-9.42l1.2,4.36c.12.43.9.79,1.75.79h9.61l-1.4-4.39C323.21,198.11,322.44,197.77,321.61,197.77Z"></path><path class="cls-2" d="M305.09,197.77h-9.51l.94,4.36c.1.43.86.79,1.7.79h9.71l-1.15-4.39C306.67,198.11,305.91,197.77,305.09,197.77Z"></path><path class="cls-2" d="M237.78,224.8h-11l-.11,5.55c0,.52.73,1,1.66,1h11.22l-.15-5.59C239.42,225.21,238.68,224.8,237.78,224.8Z"></path><path class="cls-2" d="M219.2,224.8H208.14l-.44,5.54c0,.52.68,1,1.6,1h11.31l.19-5.58C220.82,225.21,220.1,224.8,219.2,224.8Z"></path><path class="cls-2" d="M298.78,221.25h10.45l-1.29-5.15c-.12-.48-.92-.86-1.8-.86H295.92l1.05,5.11C297.07,220.85,297.88,221.25,298.78,221.25Z"></path><path class="cls-2" d="M317.56,221.25h10.36l-1.6-5.15c-.15-.48-1-.86-1.85-.86H314.34l1.36,5.11C315.83,220.85,316.66,221.25,317.56,221.25Z"></path><path class="cls-2" d="M147.05,211.81h10.5a2.34,2.34,0,0,0,.38,0l1.16-4.73c.11-.45-.49-.81-1.34-.81H147.5a2.71,2.71,0,0,0-.41,0L145.73,211C145.59,211.43,146.19,211.81,147.05,211.81Z"></path><path class="cls-2" d="M256.36,224.8H245.49l.21,5.55c0,.52.79,1,1.71,1h11.13l-.47-5.59C258,225.21,257.26,224.8,256.36,224.8Z"></path><path class="cls-2" d="M148.52,221.25h10.82a2.73,2.73,0,0,0,.41,0l1.19-5.12c.11-.48-.51-.86-1.39-.86H149a3.25,3.25,0,0,0-.44,0l-1.4,5.08C147,220.85,147.62,221.25,148.52,221.25Z"></path><path class="cls-2" d="M167.3,221.25h10.82l.31,0,.88-5.13c.08-.48-.56-.86-1.43-.86H167.32l-.34,0-1.11,5.09C165.77,220.85,166.41,221.25,167.3,221.25Z"></path><path class="cls-2" d="M171.19,231.3h11.17a1.83,1.83,0,0,0,.33,0l.85-5.57c.08-.5-.59-.91-1.49-.91H171.16l-.36,0-1.1,5.53C169.6,230.87,170.26,231.3,171.19,231.3Z"></path><path class="cls-2" d="M210.17,206.24H199.8l-.53,4.71c-.05.47.61.85,1.48.85h10.58l.32-4.75C211.68,206.6,211,206.24,210.17,206.24Z"></path><path class="cls-2" d="M192.7,206.24H182.45l-.22,0-.81,4.7c-.08.47.56.85,1.43.85h10.68l.6-4.75C194.19,206.6,193.54,206.24,192.7,206.24Z"></path><path class="cls-2" d="M144.89,224.8H134a3.43,3.43,0,0,0-.56,0l-1.74,5.5c-.16.52.45,1,1.37,1h11.18a3.17,3.17,0,0,0,.53-.05l1.5-5.54C146.42,225.21,145.8,224.8,144.89,224.8Z"></path><path class="cls-2" d="M129.16,211.81h10.49a2.44,2.44,0,0,0,.48-.05l1.44-4.71c.13-.45-.45-.81-1.29-.81H130a3,3,0,0,0-.52,0L127.88,211C127.72,211.43,128.29,211.81,129.16,211.81Z"></path><path class="cls-2" d="M141.23,215.24H130.67a3.31,3.31,0,0,0-.55,0l-1.7,5.06c-.17.5.42.9,1.32.9h10.82a2.94,2.94,0,0,0,.51-.05l1.49-5.1C142.7,215.62,142.1,215.24,141.23,215.24Z"></path><rect class="cls-6" x="82.56" y="1.5" width="297.9" height="186.19" rx="8"></rect><rect class="cls-7" x="157.13" y="-35.65" width="148.77" height="260.48" transform="translate(326.1 -136.92) rotate(90)"></rect><path class="cls-8" d="M372.46,1.5,317,152.42l-85.51,11.27L146,152.42,90.56,1.5a8,8,0,0,0-8,8V179.69a8,8,0,0,0,8,8h281.9a8,8,0,0,0,8-8V9.5A8,8,0,0,0,372.46,1.5Z"></path><path class="cls-5" d="M262.06,268.85H201a3.33,3.33,0,0,1-3-4.81l5-10.1a3.33,3.33,0,0,1,3-1.86h51.14a3.33,3.33,0,0,1,3,1.86l5,10.1A3.33,3.33,0,0,1,262.06,268.85Z"></path><path class="cls-2" d="M201,268.16a1.57,1.57,0,0,1-1.37-.83,1.83,1.83,0,0,1-.08-1.69l5-10.93a1.6,1.6,0,0,1,1.45-1h51.14a1.6,1.6,0,0,1,1.45,1l5,10.93a1.83,1.83,0,0,1-.08,1.69,1.57,1.57,0,0,1-1.37.83Z"></path><path class="cls-9" d="M282.57,110.62a2.57,2.57,0,0,1,2.68,2.68v5.38a2.57,2.57,0,0,1-2.68,2.68h-8.06a16.13,16.13,0,1,1-32.25,0h-21.5a16.13,16.13,0,1,1-32.25,0V99.86H214a1.42,1.42,0,0,0,1.35-1.34V95.83A1.45,1.45,0,0,0,214,94.49H179.11a1.27,1.27,0,0,1-.92-.42,1.29,1.29,0,0,1-.42-.92V90.46a1.29,1.29,0,0,1,.42-.92,1.27,1.27,0,0,1,.92-.42h40.31a1.45,1.45,0,0,0,1.34-1.35V85.09a1.45,1.45,0,0,0-1.34-1.35H184.48a1.45,1.45,0,0,1-1.34-1.34V79.71a1.45,1.45,0,0,1,1.34-1.34h40.31A1.44,1.44,0,0,0,226.14,77V74.34A1.44,1.44,0,0,0,224.79,73H179.11a1.45,1.45,0,0,1-1.34-1.34V69a1.29,1.29,0,0,1,.42-.92,1.27,1.27,0,0,1,.92-.42h9.4V59.56a8,8,0,0,1,8.07-8.06h43a8,8,0,0,1,8.06,8.06v8.06H255A7.75,7.75,0,0,1,260.73,70l16.8,16.8a7.75,7.75,0,0,1,2.35,5.71v18.14Zm-77.93,18.8a8,8,0,1,0-5.71-2.35A7.77,7.77,0,0,0,204.64,129.42Zm67.18-34.93v-2L255,75.68h-7.39V94.49Zm-13.44,34.93a8,8,0,1,0-5.71-2.35A7.77,7.77,0,0,0,258.38,129.42Z"></path></g></g></svg> 