<?xml version="1.0" encoding="UTF-8"?> <svg xmlns="http://www.w3.org/2000/svg" viewBox="0 0 669.97 302.41"><defs><style>.cls-1,.cls-10{fill:none;stroke:#e9d2b9;stroke-miterlimit:10;}.cls-1{stroke-width:30px;}.cls-2{fill:#e9d2b9;}.cls-3,.cls-5,.cls-8{fill:#fff;}.cls-4,.cls-6,.cls-9{fill:#ddb893;}.cls-4{opacity:0.2;}.cls-5,.cls-8{stroke:#ddb893;stroke-linejoin:round;}.cls-5{stroke-width:3.56px;}.cls-7{fill:#f8f0e9;}.cls-8{stroke-width:4px;}.cls-9{fill-rule:evenodd;opacity:0.1;}.cls-10{stroke-linecap:round;stroke-width:6px;}</style></defs><g id="Layer_2" data-name="Layer 2"><g id="Ryden_s_Page" data-name="Ryden's Page"><path class="cls-1" d="M55.36,227.83C55,176.26,71.7,116.89,150.87,116.89h409.7c103.64,0,94.18-99.91,94.18-99.91"></path><polygon class="cls-2" points="107.1 206.09 66.08 302.42 3.15 218.73 107.1 206.09"></polygon><path class="cls-1" d="M55.18,227.42c-.4-51.57,16.33-110.94,95.5-110.94H560.39c103.63,0,94.17-99.91,94.17-99.91"></path><polygon class="cls-2" points="106.92 205.68 65.89 302 2.97 218.32 106.92 205.68"></polygon><path class="cls-1" d="M55,227c-.4-51.57,16.34-110.94,95.51-110.94H560.2c103.63,0,94.18-99.91,94.18-99.91"></path><polygon class="cls-2" points="106.73 205.26 65.7 301.59 2.78 217.91 106.73 205.26"></polygon><path class="cls-1" d="M54.81,226.59c-.4-51.57,16.33-110.94,95.5-110.94H560c103.64,0,94.18-99.91,94.18-99.91"></path><polygon class="cls-2" points="106.55 204.85 65.52 301.18 2.6 217.5 106.55 204.85"></polygon><path class="cls-1" d="M54.62,226.18c-.4-51.57,16.34-110.94,95.51-110.94h409.7c103.63,0,94.18-99.91,94.18-99.91"></path><polygon class="cls-2" points="106.36 204.44 65.33 300.77 2.41 217.08 106.36 204.44"></polygon><path class="cls-1" d="M54.44,225.77c-.4-51.57,16.33-110.94,95.5-110.94h409.7c103.64,0,94.18-99.91,94.18-99.91"></path><polygon class="cls-2" points="106.17 204.03 65.15 300.36 2.23 216.67 106.17 204.03"></polygon><path class="cls-1" d="M54.25,225.36c-.4-51.57,16.33-110.94,95.51-110.94h409.7c103.63,0,94.17-99.91,94.17-99.91"></path><polygon class="cls-2" points="105.99 203.62 64.96 299.95 2.04 216.26 105.99 203.62"></polygon><path class="cls-1" d="M54.06,225C53.67,173.38,70.4,114,149.57,114h409.7c103.64,0,94.18-99.91,94.18-99.91"></path><polygon class="cls-2" points="105.8 203.21 64.78 299.54 1.86 215.85 105.8 203.21"></polygon><path class="cls-1" d="M53.88,224.54C53.48,173,70.21,113.6,149.38,113.6H559.09c103.63,0,94.17-99.91,94.17-99.91"></path><polygon class="cls-2" points="105.62 202.8 64.59 299.12 1.67 215.44 105.62 202.8"></polygon><path class="cls-1" d="M53.69,224.13C53.29,172.56,70,113.19,149.2,113.19H558.9c103.64,0,94.18-99.92,94.18-99.92"></path><polygon class="cls-2" points="105.43 202.39 64.41 298.71 1.49 215.03 105.43 202.39"></polygon><path class="cls-1" d="M53.51,223.71c-.4-51.57,16.33-110.94,95.5-110.94H558.72c103.63,0,94.17-99.91,94.17-99.91"></path><polygon class="cls-2" points="105.25 201.97 64.22 298.3 1.3 214.62 105.25 201.97"></polygon><path class="cls-1" d="M53.32,223.3c-.4-51.57,16.34-110.94,95.51-110.94h409.7c103.63,0,94.18-99.91,94.18-99.91"></path><polygon class="cls-2" points="105.06 201.56 64.03 297.89 1.11 214.21 105.06 201.56"></polygon><path class="cls-1" d="M53.14,222.89C52.74,171.32,69.47,112,148.64,112h409.7C662,112,652.52,12,652.52,12"></path><polygon class="cls-2" points="104.88 201.15 63.85 297.48 0.93 213.79 104.88 201.15"></polygon><path class="cls-1" d="M53,222.48c-.4-51.57,16.34-110.94,95.51-110.94h409.7c103.63,0,94.18-99.91,94.18-99.91"></path><polygon class="cls-2" points="104.69 200.74 63.66 297.07 0.74 213.38 104.69 200.74"></polygon><path class="cls-1" d="M52.77,222.07c-.4-51.57,16.33-110.94,95.5-110.94H558c103.64,0,94.18-99.91,94.18-99.91"></path><polygon class="cls-2" points="104.5 200.33 63.48 296.66 0.56 212.97 104.5 200.33"></polygon><path class="cls-1" d="M52.58,221.66c-.4-51.57,16.33-110.94,95.51-110.94h409.7c103.63,0,94.17-99.91,94.17-99.91"></path><polygon class="cls-2" points="104.32 199.92 63.29 296.25 0.37 212.56 104.32 199.92"></polygon><path class="cls-1" d="M52.4,221.25c-.4-51.57,16.33-110.94,95.5-110.94H557.6c103.64,0,94.18-99.91,94.18-99.91"></path><polygon class="cls-2" points="104.13 199.51 63.11 295.83 0.19 212.15 104.13 199.51"></polygon><path class="cls-1" d="M52.21,220.84c-.4-51.57,16.33-110.95,95.5-110.95H557.42c103.63,0,94.17-99.91,94.17-99.91"></path><polygon class="cls-2" points="103.95 199.09 62.92 295.42 0 211.74 103.95 199.09"></polygon><path class="cls-3" d="M3.68,213.31,39.42,209l.09-1.68c1.83-35.73,12.28-63.43,31-82.34,18.46-18.61,44.43-28,77.16-28H557.42c27.22,0,48-7.56,61.6-22.46,19.73-21.53,20-53.1,19.73-61.28l25.93-2.41c.53,9.63,1,51-26.28,81-18.79,20.65-46,31.12-81,31.12H147.71c-25.55,0-45.3,6.84-58.71,20.35s-21.06,33.58-23.19,60.08l-.2,2.44,35.14-4.27L62.44,291.45Z"></path><path class="cls-2" d="M662.77,12.94c.4,12.26-.67,49.82-25.85,77.49-18.39,20.22-45.14,30.47-79.5,30.47H147.71c-26.1,0-46.33,7-60.13,20.95C74,155.55,66,176.19,63.82,203.17l-.39,4.88,4.86-.59,29.26-3.56L62,287.48,7.36,214.87,38,211.15l3.34-.41.17-3.36c1.82-35.22,12.07-62.49,30.47-81C90,108.13,115.53,98.9,147.71,98.9H557.42c27.81,0,49-7.78,63.08-23.11C639.41,55.15,640.91,25.6,640.79,15l22-2m3.76-4.37-29.87,2.78c0,.37,3,37.59-19.11,61.74C604.29,87.56,584.06,94.9,557.42,94.9H147.71c-33.29,0-59.73,9.63-78.58,28.63-19.15,19.3-29.76,47.4-31.62,83.65L0,211.74l62.92,83.68,41-96.32L67.8,203.49c2.1-26,9.67-45.77,22.62-58.83s32.3-19.76,57.29-19.76H557.42c35.53,0,63.28-10.69,82.46-31.77,31-34.11,26.84-82.51,26.65-84.56Z"></path><ellipse class="cls-4" cx="356.01" cy="190.33" rx="195.08" ry="20.55"></ellipse><path id="SVGID" class="cls-5" d="M500.08,1.78H323.48s-16.32.11-26,10.74l-62.62,62c-14.36,3.72-46.15,28.1-47,32s-.65,16.22-.65,16.22c-1.49.54-4.61,2.38-4.9,5s-.24,7-.24,7,4.22,18.92,8.08,21.09,11,4.65,13.79,4.59c0,5.6,7.88,31.07,32.26,31.07,29.93,0,32.56-28.59,32.56-28.59l154.11.92c-.26,2.45,6.2,27.74,30.76,27.74s33.62-20.48,33.71-29.81c9.16,0,30.39-.54,31.23-4.26s5.65-23.09,5.65-23.09c-.35-1.23-2.35-1.52-2.35-1.52l-1.24-38S519.14,36.18,512.89,27C512.17,14.25,509.78,3.27,500.08,1.78Z"></path><path class="cls-6" d="M310.73,19.6h24.91a4.74,4.74,0,0,1,4.7,5.34l-7.46,57.68a4.74,4.74,0,0,1-4.7,4.13H264.44a4.73,4.73,0,0,1-4.67-4L258,71.61a5.82,5.82,0,0,1,1.68-5.08C280,46,301.1,19.6,310.73,19.6Z"></path><path class="cls-7" d="M433.59,181.42a26.86,26.86,0,0,0,20,8.29c24.16,0,31.86-20.56,31.93-28.05a1.78,1.78,0,0,1,1.78-1.76c17.33,0,28.06-1.54,29.52-3,.81-3.57,4.47-18.31,5.42-22.11a2.71,2.71,0,0,0-.67-.2,1.8,1.8,0,0,1-1.31-1s-.84,1.5-6.14,2.6-285.75,5.15-292,2.23c-.39-.1-9.6,0-13.39-2.12-4-2.25-7.48-16.61-8.45-21a1.55,1.55,0,0,1,0-.37,64.88,64.88,0,0,1,.23-6.77c.31-2.73,2.7-4.65,4.57-5.62,0-1.9,0-5.73.12-9.13-8.3,6.08-14.91,11.79-15.6,13.45-.67,2.94-.65,12.35-.58,15.72a1.79,1.79,0,0,1-1.18,1.71c-1.21.43-3.55,1.91-3.73,3.51-.25,2.18-.24,5.73-.23,6.57,2,8.72,5.29,18.69,7.17,19.75,3.76,2.1,10.38,4.36,12.8,4.36h.12a1.76,1.76,0,0,1,1.78,1.78c0,3.48,6.44,29.29,30.48,29.29,27.9,0,30.68-25.87,30.78-27a1.79,1.79,0,0,1,1.78-1.62h0l154.11.92a1.77,1.77,0,0,1,1.32.59,1.79,1.79,0,0,1,.44,1.37C424.58,165.31,426.77,174.37,433.59,181.42Z"></path><circle class="cls-6" cx="454.39" cy="163.08" r="16.5"></circle><circle class="cls-6" cx="237.35" cy="163.08" r="16.5"></circle><rect class="cls-8" x="392.59" y="27.36" width="86.09" height="82.01"></rect><polygon class="cls-9" points="411.08 86.61 392.58 27.36 392.58 109.37 478.68 109.37 411.08 86.61"></polygon><polygon class="cls-6" points="444.03 27.36 429.01 27.36 429.01 43.82 436.52 37.15 444.03 43.82 444.03 27.36"></polygon><line class="cls-10" x1="533.51" y1="25.8" x2="570.25" y2="25.8"></line><line class="cls-10" x1="541.33" y1="43.87" x2="563.44" y2="43.87"></line><line class="cls-10" x1="533.51" y1="58.16" x2="551.3" y2="58.16"></line><line class="cls-10" x1="534.23" y1="75.37" x2="561.46" y2="75.37"></line></g></g></svg> 