<?xml version="1.0" encoding="UTF-8"?> <svg xmlns="http://www.w3.org/2000/svg" viewBox="0 0 297.4 310.04"><defs><style>.cls-1{fill:#181818;}.cls-2{fill:#fff;}.cls-3{fill:none;stroke:#689a95;stroke-linecap:square;stroke-linejoin:round;stroke-width:3.26px;}.cls-4{fill:#689a95;}</style></defs><g id="Layer_2" data-name="Layer 2"><g id="Send_It_Page" data-name="Send It Page"><circle class="cls-1" cx="148.7" cy="161.34" r="148.7"></circle><circle class="cls-2" cx="48.08" cy="42.91" r="42.91"></circle><path class="cls-3" d="M48.08,7.38A35.53,35.53,0,1,1,12.55,42.91,35.55,35.55,0,0,1,48.08,7.38Z"></path><path class="cls-4" d="M46.53,59.71H51.8V26.11H48.25c-1.2,3.27-2.78,4.23-7.24,4.23v3.73h5.52Z"></path><path class="cls-2" d="M194.85,148.37a15.2,15.2,0,0,1,15.39,15.39v26.92a3.71,3.71,0,0,1-3.85,3.85H194.85V217.6a7.8,7.8,0,0,1-7.69,7.7H110.24a7.8,7.8,0,0,1-7.69-7.7V194.53H91a3.71,3.71,0,0,1-3.85-3.85V163.76a15.2,15.2,0,0,1,15.39-15.39V109.91a7.79,7.79,0,0,1,7.69-7.69h66.1a7.19,7.19,0,0,1,5.29,2.16l11.06,11.06a7.19,7.19,0,0,1,2.16,5.29Zm-15.38,7.69V133H167.93a3.71,3.71,0,0,1-3.85-3.85V117.6H117.93v38.46Zm0,53.85V186.83H117.93v23.08ZM191,173.37a5.74,5.74,0,1,0-4.09-1.68A5.55,5.55,0,0,0,191,173.37Z"></path></g></g></svg> 