<?xml version="1.0" encoding="UTF-8"?> <svg xmlns="http://www.w3.org/2000/svg" xmlns:xlink="http://www.w3.org/1999/xlink" viewBox="0 0 398.24 421.76"><defs><style>.cls-1{fill:#659a97;}.cls-2,.cls-5,.cls-6{fill:#fff;}.cls-2,.cls-6{stroke:#98c0bd;}.cls-2{stroke-miterlimit:10;stroke-width:1.16px;}.cls-3,.cls-7{fill:#98c0bd;}.cls-4{fill:#679a96;opacity:0.1;}.cls-4,.cls-6,.cls-7,.cls-9{fill-rule:evenodd;}.cls-6{stroke-linejoin:round;stroke-width:3px;}.cls-8,.cls-9{fill:#bfd5d3;}.cls-10{fill:#eef3f3;}.cls-11{fill:#f3f3f3;}</style><symbol id="phone" data-name="phone" viewBox="0 0 178.55 306.2"><rect class="cls-1" width="178.55" height="306.2" rx="18.55"></rect><path class="cls-2" d="M18.55,301.2A13.57,13.57,0,0,1,5,287.65V18.55A13.57,13.57,0,0,1,18.55,5H160a13.57,13.57,0,0,1,13.54,13.55v269.1A13.57,13.57,0,0,1,160,301.2Z"></path><path class="cls-3" d="M45.21,250.11H51l4.43,27.2H51.16l-.78-5.4V272H45.52l-.78,5.32h-4Zm4.66,18.18L48,254.85h-.08L46,268.29Z"></path><path class="cls-3" d="M57.49,250.11h6.34c4.43,0,6.33,2.06,6.33,6.25V258c0,2.79-.89,4.58-2.8,5.36v.08c2.14.66,2.84,2.68,2.84,5.75V274a8,8,0,0,0,.47,3.3H66.31a8.51,8.51,0,0,1-.38-3.34v-5c0-2.52-.74-3.34-2.69-3.34H61.77v11.66H57.49Zm5.83,11.66c1.6,0,2.57-.7,2.57-2.88v-2.1c0-1.94-.66-2.8-2.18-2.8H61.77v7.78Z"></path><path class="cls-3" d="M73.16,250.11h6.33c4.43,0,6.34,2.06,6.34,6.25V258c0,2.79-.9,4.58-2.8,5.36v.08c2.14.66,2.84,2.68,2.84,5.75V274a8.13,8.13,0,0,0,.46,3.3H82a8.43,8.43,0,0,1-.39-3.34v-5c0-2.52-.74-3.34-2.68-3.34H77.43v11.66H73.16ZM79,261.77c1.59,0,2.56-.7,2.56-2.88v-2.1c0-1.94-.66-2.8-2.17-2.8H77.43v7.78Z"></path><path class="cls-3" d="M88.82,250.11H93.1v27.2H88.82Z"></path><path class="cls-3" d="M95.16,250.11h4.31l2.8,21.1h.08l2.8-21.1h3.92L105,277.31H99.28Z"></path><path class="cls-3" d="M111.13,250.11h11.66V254h-7.38v7.19h5.87v3.89h-5.87v8.35h7.38v3.89H111.13Z"></path><path class="cls-3" d="M125.24,250.11h6.53c4.28,0,6.38,2.37,6.38,6.72v13.76c0,4.35-2.1,6.72-6.38,6.72h-6.53Zm6.46,23.31c1.36,0,2.17-.69,2.17-2.64V256.64c0-1.95-.81-2.65-2.17-2.65h-2.18v19.43Z"></path><polygon class="cls-4" points="153.07 199.68 89.27 162.85 25.48 199.68 89.27 236.51 153.07 199.68"></polygon><polygon class="cls-5" points="139.16 199.85 139.16 142.25 89.28 113.45 39.39 142.25 39.39 199.85 89.28 228.65 139.16 199.85"></polygon><polygon class="cls-6" points="139.16 142.25 89.27 113.45 39.39 142.25 89.27 171.04 139.16 142.25"></polygon><polygon class="cls-7" points="116.98 129.44 111.45 126.25 61.57 155.05 67.1 158.24 116.98 129.44"></polygon><polygon class="cls-6" points="139.16 142.25 89.28 171.05 89.28 228.65 139.16 199.85 139.16 142.25"></polygon><polygon class="cls-6" points="89.28 171.06 39.4 142.26 39.4 199.86 89.28 228.66 89.28 171.06"></polygon><polygon class="cls-7" points="67.1 158.24 61.57 155.05 61.57 165.88 67.1 169.07 67.1 158.24"></polygon><polygon class="cls-4" points="49.78 192.73 39.4 142.26 39.4 199.86 89.28 228.66 49.78 192.73"></polygon><polygon class="cls-4" points="139.16 142.25 89.28 171.05 89.28 228.65 139.16 199.85 139.16 142.25"></polygon><circle class="cls-8" cx="41.69" cy="99.43" r="1.26"></circle><path class="cls-3" d="M59.07,5.17h60.4a0,0,0,0,1,0,0v5.91a5.39,5.39,0,0,1-5.39,5.39H64.47a5.39,5.39,0,0,1-5.39-5.39V5.17a0,0,0,0,1,0,0Z"></path><path class="cls-8" d="M114.84,107.67a60.63,60.63,0,0,1-.36-10.09,57.15,57.15,0,0,1,1.32-10.12,40.52,40.52,0,0,1,3.55-9.81,33,33,0,0,1,2.89-4.53,30.55,30.55,0,0,1,3.73-4,2.51,2.51,0,0,1,3.36,3.72,1.24,1.24,0,0,1-.22.18l-.06,0A26.22,26.22,0,0,0,125.54,76a28.92,28.92,0,0,0-3,3.6,37.37,37.37,0,0,0-4.36,8.57,54.78,54.78,0,0,0-2.48,9.56A60,60,0,0,0,114.84,107.67Z"></path><path class="cls-3" d="M87.78,101.46a98,98,0,0,0-1.85-12,88.44,88.44,0,0,0-3.3-11.56,57.39,57.39,0,0,0-5-10.64,33,33,0,0,0-7.32-8.49A3,3,0,1,1,74,54.08c.09.07.19.17.28.25a38.11,38.11,0,0,1,7.27,10.82,61.39,61.39,0,0,1,4,11.91,89.31,89.31,0,0,1,1.9,12.18A97.89,97.89,0,0,1,87.78,101.46Z"></path><path class="cls-8" d="M59.41,114.47a27.2,27.2,0,0,0-2.57-8.38A28.62,28.62,0,0,0,52,99c-.44-.55-1-1-1.5-1.5a14.09,14.09,0,0,0-1.59-1.4l-1.66-1.3-1.79-1.13-.88-.56c-.3-.18-.63-.32-.94-.48l-1.87-.94c-1.27-.57-2.62-1-3.9-1.53l-.27-.1a2.52,2.52,0,0,1,1.87-4.67l.3.15c1.37.78,2.77,1.47,4.1,2.32l1.93,1.33c.32.23.65.43,1,.68l.9.76c.59.51,1.19,1,1.77,1.52l1.63,1.68a17,17,0,0,1,1.51,1.77A19,19,0,0,1,54,97.42a30.24,30.24,0,0,1,4,8.21A27.9,27.9,0,0,1,59.41,114.47Z"></path><polygon class="cls-9" points="136.8 50.32 136.93 56.57 142.91 58.37 137.01 60.43 137.14 66.67 133.36 61.7 127.46 63.75 131.03 58.62 127.25 53.64 133.23 55.45 136.8 50.32"></polygon><polygon class="cls-7" points="153.92 90.06 154 94.33 158.09 95.57 154.06 96.97 154.15 101.25 151.56 97.84 147.53 99.25 149.97 95.74 147.39 92.33 151.48 93.57 153.92 90.06"></polygon><polygon class="cls-7" points="59.8 36.48 64.14 40.98 69.75 38.24 66.82 43.75 71.15 48.24 65 47.16 62.07 52.67 61.2 46.49 55.06 45.4 60.67 42.67 59.8 36.48"></polygon><polygon class="cls-9" points="22.09 74.39 27.26 77.13 31.47 73.05 30.46 78.82 35.64 81.56 29.84 82.39 28.84 88.16 26.26 82.9 20.46 83.73 24.66 79.65 22.09 74.39"></polygon><circle class="cls-8" cx="59.4" cy="75.51" r="2.16"></circle><circle class="cls-3" cx="106.45" cy="61.74" r="2.16"></circle><circle class="cls-3" cx="46.66" cy="74.67" r="2.16"></circle><circle class="cls-8" cx="94.62" cy="83.52" r="2.16"></circle><circle class="cls-3" cx="131.73" cy="97.91" r="2.16"></circle><circle class="cls-8" cx="45.9" cy="108.04" r="2.16"></circle><circle class="cls-3" cx="73" cy="83.3" r="1.26"></circle><circle class="cls-3" cx="76.3" cy="97.8" r="1.26"></circle><circle class="cls-3" cx="106.55" cy="72.29" r="1.26"></circle><circle class="cls-3" cx="108.97" cy="95.72" r="1.26"></circle><circle class="cls-3" cx="122.63" cy="98.36" r="1.26"></circle><circle class="cls-3" cx="138.97" cy="83.44" r="1.26"></circle><circle class="cls-8" cx="62.35" cy="93.38" r="1.26"></circle><circle class="cls-8" cx="92.67" cy="69.45" r="1.26"></circle><circle class="cls-8" cx="65.1" cy="64.36" r="1.26"></circle><circle class="cls-8" cx="111.56" cy="82.21" r="1.26"></circle><circle class="cls-8" cx="126.99" cy="88.06" r="1.26"></circle><circle class="cls-8" cx="126.41" cy="106.9" r="1.26"></circle><circle class="cls-8" cx="34.12" cy="99.71" r="1.26"></circle><path class="cls-3" d="M130.84,122.68a35,35,0,0,1,1.35-5.75,36.4,36.4,0,0,1,2.28-5.55,28.64,28.64,0,0,1,3.37-5.12,24.59,24.59,0,0,1,4.68-4.29,2,2,0,1,1,2.35,3.26,1.53,1.53,0,0,1-.27.17l-.1,0a20.69,20.69,0,0,0-4.52,2.91,26.58,26.58,0,0,0-3.82,4.09,36.07,36.07,0,0,0-5.32,10.23Z"></path><rect class="cls-1" x="71.38" y="11.03" width="35.8" height="2.56" rx="1.18"></rect><circle class="cls-3" cx="111.28" cy="12.31" r="2.09"></circle><circle class="cls-1" cx="111.28" cy="12.31" r="1.19"></circle><circle class="cls-3" cx="110.84" cy="11.87" r="0.51"></circle></symbol></defs><g id="Layer_2" data-name="Layer 2"><g id="Technology_Development_Page" data-name="Technology Development Page"><path class="cls-5" d="M99.64,407l-38-4C23.7,397.7,5.71,372.54,0,335.1l44.18-46.78c25-8.81,92,77.84,92,77.84C122.28,381.41,101.91,402.7,99.64,407Z"></path><path class="cls-10" d="M98.56,355.46,61.62,402.92l38,4c6-11,42.59-38.82,42.34-38.29Z"></path><ellipse class="cls-11" cx="199.89" cy="210.88" rx="162.4" ry="239.63" transform="translate(-88.93 179.13) rotate(-40.26)"></ellipse><path class="cls-1" d="M86.9,332.67c1.35-1.71,2.78-3.33,4.22-4.91L95.41,323c2.84-3.13,5.65-6.22,8.37-9.36A215.6,215.6,0,0,0,119,294.29a154.46,154.46,0,0,0,12.28-21.11c1.76-3.7,3.34-7.5,4.85-11.39s2.77-7.92,4.19-12a59.2,59.2,0,0,1,.12,13,74.35,74.35,0,0,1-2.55,12.9,83.94,83.94,0,0,1-11.48,23.71,98.1,98.1,0,0,1-17.66,19.32A102,102,0,0,1,86.9,332.67Z"></path><path class="cls-5" d="M122.5,369.07c44.49,8.78,151-53.41,161.84-59.26,2.82-1.52,5.08-14.94,5.08-14.94,0-.16,25.9-21.26,25.71-26.06-.55-13.45-24.36-16.09-24.36-16.09L323.82,230l-25-20c.13-.47,26-23.38,26-23.87l-20-19.58L138.15,200.81s-16.4.41-17.23-13.79,10.68-39.1,9-57.9c-1.5-16.92-7.55-42.41-39-42.43-8.52,0-13.3,5-11.5,13.67,6.25,30-2.27,84.23-30.14,110.52-10.15,9.58-16,60.71-9.22,97.52"></path><path class="cls-1" d="M122.5,369.07a56.18,56.18,0,0,0,11.82-.29,92.08,92.08,0,0,0,11.55-2.14,187.68,187.68,0,0,0,22.41-7c14.69-5.5,29-12.11,43.1-19s28-14.37,41.82-22q10.33-5.75,20.61-11.62l5.18-3,1.35-.77.36-.19a4.9,4.9,0,0,0-1,.65l-.28.25-.2.22a1.88,1.88,0,0,0-.2.28c-.13.27,0,.15.21.05s.47-.36.76-.62l2.14-1.85c.78-.69,1.59-1.44,2.35-2.23a11,11,0,0,0,2.94-5.26l0,.24a2.28,2.28,0,0,1,.22-.81,2.25,2.25,0,0,1,.39-.54l.05-.05.1-.09.12-.11.22-.18.42-.35.82-.69,1.64-1.37,3.25-2.74q3.24-2.76,6.41-5.59c2.1-1.89,4.19-3.8,6.18-5.79a48.06,48.06,0,0,0,5.42-6.15,6,6,0,0,0,.74-1.38c0-.07,0-.11,0-.07l0-.41a8.66,8.66,0,0,0-.12-.89,9.09,9.09,0,0,0-1.31-3.35,15.81,15.81,0,0,0-5.75-5.05,36.36,36.36,0,0,0-7.56-3.09,51.82,51.82,0,0,0-8.07-1.72h0a1.66,1.66,0,0,1-.72-3l33-22.75-.09,2.68-25.1-19.89a1.75,1.75,0,0,1-.63-1.78l0-.1a2,2,0,0,1,.37-.7l.11-.13.14-.13.22-.23.41-.4.82-.77,1.63-1.51,3.27-3,6.53-5.95,6.53-5.94,3.24-3,1.6-1.49.78-.75.36-.36.16-.16,0-.05,0,.05-.12.19a1.74,1.74,0,0,0-.22.69l.56,1.59L303,168.35l2.27.66-41.54,9.15c-13.86,3-27.71,6-41.59,8.88s-27.75,5.82-41.65,8.55l-10.43,2.08-10.44,2c-7,1.36-13.92,2.66-20.9,3.95l-.13,0a2.33,2.33,0,0,1-.38,0c-.71,0-1.21,0-1.79-.09s-1.13-.12-1.68-.21a25.71,25.71,0,0,1-3.31-.71,21.26,21.26,0,0,1-6.3-2.91,15.26,15.26,0,0,1-4.81-5.4,16.56,16.56,0,0,1-1.84-6.83,48.65,48.65,0,0,1,1.4-12.65c.88-4,2-8,3-11.85,2.12-7.79,4.29-15.53,5.26-23.41a50.5,50.5,0,0,0,.25-11.78,78.36,78.36,0,0,0-2-11.74c-1.86-7.65-5.5-15-11.42-20-.72-.65-1.52-1.19-2.29-1.76s-1.61-1.06-2.47-1.49A28,28,0,0,0,105,90.59a39.55,39.55,0,0,0-11.41-1.75l-2.9,0a16.29,16.29,0,0,0-2.64.27,9.22,9.22,0,0,0-4.38,2A6.69,6.69,0,0,0,81.56,95a12.85,12.85,0,0,0,.27,5.08,111,111,0,0,1,2.48,24.67,171.3,171.3,0,0,1-1.89,24.66,155.19,155.19,0,0,1-5.59,24.21,111.3,111.3,0,0,1-10.25,23,78.66,78.66,0,0,1-7.34,10.45c-1.34,1.67-2.81,3.24-4.29,4.8l-2.31,2.27-.36.35c-.1.09-.2.21-.31.32s-.42.52-.64.82a25.25,25.25,0,0,0-2.4,4.5A55,55,0,0,0,47,225.42c-1.15,3.65-2,7.46-2.88,11.31a231.73,231.73,0,0,0-3.5,23.54c-.76,8-1.26,15.94-1.36,24a238.29,238.29,0,0,0,.79,24.16,150.29,150.29,0,0,1-4.48-24,208.08,208.08,0,0,1-1.18-24.47,185.33,185.33,0,0,1,1.8-24.61A103.26,103.26,0,0,1,38.66,223a64.83,64.83,0,0,1,1.94-6.19,34.23,34.23,0,0,1,3-6.31c.35-.53.73-1.07,1.15-1.61.23-.27.44-.54.7-.81l.71-.74,2-2c1.27-1.39,2.55-2.78,3.71-4.28a90.81,90.81,0,0,0,6.58-9.36c2-3.3,3.85-6.68,5.54-10.18s3.21-7.09,4.61-10.74a151.33,151.33,0,0,0,9.69-46.14,107.71,107.71,0,0,0-1.21-23.56,17.94,17.94,0,0,1-.15-7,12.15,12.15,0,0,1,1.31-3.51,11.13,11.13,0,0,1,2.43-2.94c4-3.31,9.14-3.39,13.1-3a45.59,45.59,0,0,1,12.33,2.7,35.34,35.34,0,0,1,5.7,2.78c.93.52,1.78,1.16,2.65,1.76s1.67,1.3,2.43,2a36.26,36.26,0,0,1,7.65,9.93A53.53,53.53,0,0,1,129,115.46a82.37,82.37,0,0,1,2.18,12.12,57.76,57.76,0,0,1,0,12.4c-.39,4.1-1.12,8.13-1.9,12.13s-1.7,8-2.6,11.89-1.79,7.86-2.47,11.76a44.83,44.83,0,0,0-.84,11.41,10.43,10.43,0,0,0,4.74,8.17,15.71,15.71,0,0,0,4.73,2,21,21,0,0,0,2.63.47c.45.05.9.09,1.34.11s.93,0,1.23,0l-.51.05q10.37-2.35,20.76-4.61l10.39-2.27,10.4-2.2c13.86-3,27.76-5.72,41.65-8.57s27.81-5.51,41.72-8.25l41.78-8,.08,0a2.43,2.43,0,0,1,2.18.68l19.62,20,.05.05a1.91,1.91,0,0,1,.52,1.54,2.29,2.29,0,0,1-.25.75l-.11.16,0,.05,0,0-.13.15-.14.16-.23.23-.42.41-.83.77-1.64,1.51-3.29,3-6.57,5.9-6.57,5.89-3.28,2.95-1.62,1.48-.79.74-.38.36-.17.17-.06.06,0,0a2.37,2.37,0,0,0,.3-.59l-.6-1.88,25,20.06h0a1.68,1.68,0,0,1,.25,2.35,1.56,1.56,0,0,1-.35.33L291.7,254.08l-.75-3a56.42,56.42,0,0,1,8.64,1.83,40.69,40.69,0,0,1,8.24,3.37,19.68,19.68,0,0,1,7,6.14,12.64,12.64,0,0,1,1.84,4.54c.08.41.13.82.17,1.22,0,.23,0,.37,0,.66a3.83,3.83,0,0,1-.13,1,8.59,8.59,0,0,1-1.18,2.41,49.72,49.72,0,0,1-5.78,6.74c-2,2.07-4.1,4.06-6.21,6s-4.23,3.87-6.37,5.77l-3.23,2.83-1.62,1.4-.8.7-.4.34-.19.17-.07.07h0a2.05,2.05,0,0,0,.36-.51,1.78,1.78,0,0,0,.2-.79l0,.25a16.29,16.29,0,0,0,.51,6.39c.29,1.14.6,2.32.82,3.53a12.91,12.91,0,0,1,.25,3.8,9.77,9.77,0,0,1-.43,2.11,9.5,9.5,0,0,1-1.3,2.61,9.73,9.73,0,0,1-.68.85,4.83,4.83,0,0,1-.46.49c-.18.17-.36.34-.55.5a10.54,10.54,0,0,1-1.59,1.08l-.3.16-1.25.67-5.23,2.83-10.58,5.65q-5.31,2.78-10.69,5.47c-14.29,7.2-28.87,13.91-43.74,19.94q-5.6,2.25-11.23,4.38t-11.37,4c-7.62,2.56-15.34,4.9-23.18,6.8a169.16,169.16,0,0,1-23.88,4.15,96.31,96.31,0,0,1-12.13.32A51,51,0,0,1,122.5,369.07Z"></path><path class="cls-10" d="M287.63,294a2.25,2.25,0,0,1,.39-.54l.05-.05.1-.09.12-.11.22-.18.42-.35.82-.69,1.64-1.37,3.25-2.74q3.24-2.76,6.41-5.59c2.1-1.89,4.19-3.8,6.18-5.79a48.67,48.67,0,0,0,5.42-6.14,6.21,6.21,0,0,0,.74-1.39c0-.07,0-.11,0-.07l0-.41a8.66,8.66,0,0,0-.12-.89,9.09,9.09,0,0,0-1.31-3.35,15.81,15.81,0,0,0-5.75-5.05,36.36,36.36,0,0,0-7.56-3.09,51.82,51.82,0,0,0-8.07-1.72h0a1.66,1.66,0,0,1-1.42-1.86,1.63,1.63,0,0,1,.72-1.16l31-21.43-23.15-18.47a1.78,1.78,0,0,1-.69-1.84l0-.09a2,2,0,0,1,.37-.7l.11-.13.14-.14.22-.22.41-.4.82-.77,1.63-1.51,3.27-3,6.53-5.95,6.53-5.94,3.24-3,1.6-1.49.12-.12L304,169.29l-24.54,5.4,18.36,18.72,0,.05a1.85,1.85,0,0,1,.52,1.54,2.08,2.08,0,0,1-.25.75l-.1.17,0,0,0,0-.13.16-.15.15-.23.23-.42.41-.82.78-1.65,1.5-3.28,3-6.58,5.9L278.16,214l-3.27,2.95-1.62,1.48,0,0,25.18,18.46h0a1.66,1.66,0,0,1,.35,2.33,1.49,1.49,0,0,1-.42.41l-31.49,20.78c1.49.32,3,.69,4.43,1.11a40.16,40.16,0,0,1,8.24,3.38,19.73,19.73,0,0,1,7,6.13,12.62,12.62,0,0,1,1.83,4.54c.08.41.13.82.17,1.23a5.83,5.83,0,0,1,0,.66,3.81,3.81,0,0,1-.13,1,8.66,8.66,0,0,1-1.18,2.42,51,51,0,0,1-5.78,6.74q-3,3.09-6.2,6c-2.1,2-4.23,3.87-6.38,5.77l-3.23,2.83-1.61,1.4-.81.7-.17.15a17.21,17.21,0,0,0,.57,5.77c.18.72.36,1.47.53,2.22q4.85-2.73,9.68-5.5l5.18-3,1.35-.77,0,0a2.55,2.55,0,0,1,.32-.17l-.32.17a6.8,6.8,0,0,0-.66.48l-.28.25-.2.22a1.88,1.88,0,0,0-.2.28c-.13.26,0,.15.21.05s.47-.36.76-.62l2.14-1.85c.78-.69,1.59-1.44,2.35-2.23a11,11,0,0,0,2.94-5.26l0,.24A2.28,2.28,0,0,1,287.63,294Z"></path><path class="cls-5" d="M262.54,304.92h0Z"></path><polygon class="cls-1" points="46.15 292.61 0 335.1 39.6 286.44 46.15 292.61"></polygon><path class="cls-1" d="M151.8,368.34c-4.62,2.73-9.26,5.62-13.83,8.54s-9.1,5.94-13.57,9-8.83,6.33-13.08,9.72l-3.14,2.59-3,2.73c-1,.92-1.91,1.91-2.88,2.88s-1.74,2.07-2.63,3.12c.73-1.14,1.39-2.36,2.19-3.48s1.63-2.23,2.5-3.29L107,397l2.79-3c3.79-4,7.74-7.84,11.79-11.58s8.18-7.37,12.36-11,8.41-7.08,12.78-10.55Z"></path><path class="cls-10" d="M64.42,315h0a150.6,150.6,0,0,1-6.15-23.75,208.83,208.83,0,0,1-2.87-24.47,185,185,0,0,1,.1-24.8,104.27,104.27,0,0,1,1.61-12.53c.4-2.1.89-4.21,1.52-6.34a34.26,34.26,0,0,1,2.62-6.53,18.51,18.51,0,0,1,1-1.7c.21-.29.4-.58.64-.87l.66-.78,1.85-2.15c1.18-1.48,2.36-3,3.43-4.55a90.23,90.23,0,0,0,5.95-9.84c1.76-3.44,3.4-7,4.85-10.59s2.72-7.33,3.88-11.09a151.91,151.91,0,0,0,6.52-46.95,108.34,108.34,0,0,0-2.83-23.54,17.93,17.93,0,0,1-.63-7A12.35,12.35,0,0,1,87.67,94a11,11,0,0,1,2.24-3.11,12.42,12.42,0,0,1,2.77-2l-2,0a16.29,16.29,0,0,0-2.64.27,9.14,9.14,0,0,0-4.38,2,6.63,6.63,0,0,0-2.1,3.9,12.85,12.85,0,0,0,.27,5.08,111,111,0,0,1,2.48,24.67,171.3,171.3,0,0,1-1.89,24.66,155.19,155.19,0,0,1-5.59,24.21,111.3,111.3,0,0,1-10.25,23,78.66,78.66,0,0,1-7.34,10.45c-1.34,1.67-2.81,3.24-4.29,4.8l-2.31,2.27-.36.35c-.1.09-.2.21-.31.32s-.42.52-.64.82a25.25,25.25,0,0,0-2.4,4.5A55,55,0,0,0,47,225.42c-1.15,3.65-2,7.46-2.88,11.31a231.73,231.73,0,0,0-3.5,23.54c-.76,7.94-1.26,15.94-1.36,24a238.38,238.38,0,0,0,.79,24.16h0"></path><path class="cls-10" d="M134.32,368.78a92.08,92.08,0,0,0,11.55-2.14,187.68,187.68,0,0,0,22.41-7c14.69-5.5,29-12.11,43.1-19s28-14.37,41.82-22q10.33-5.75,20.61-11.62l5.18-3,1.35-.77,0,0a2.55,2.55,0,0,1,.32-.17l-.32.17a6.8,6.8,0,0,0-.66.48l-.28.25-.2.22a1.88,1.88,0,0,0-.2.28c-.13.26,0,.15.21.05s.47-.36.76-.62l2.14-1.85c.78-.69,1.59-1.44,2.35-2.23a11,11,0,0,0,2.94-5.26l0,.24a2.28,2.28,0,0,1,.22-.81,2.25,2.25,0,0,1,.39-.54l.05-.05.1-.09.12-.11.22-.18.42-.35.82-.69,1.64-1.37,3.25-2.74q3.24-2.76,6.41-5.59c2.1-1.89,4.19-3.8,6.18-5.79a48.67,48.67,0,0,0,5.42-6.14,6.21,6.21,0,0,0,.74-1.39c0-.07,0-.11,0-.07l0-.41a8.66,8.66,0,0,0-.12-.89,9.09,9.09,0,0,0-1.31-3.35,15.81,15.81,0,0,0-5.75-5.05c-.81-.46-1.66-.86-2.51-1.24a17.93,17.93,0,0,0,.62,5.11c.28,1.14.59,2.32.81,3.53a12.91,12.91,0,0,1,.25,3.8,9.72,9.72,0,0,1-.42,2.11,9.87,9.87,0,0,1-1.31,2.61c-.18.26-.44.58-.67.85a5.08,5.08,0,0,1-.47.49l-.54.5a10.54,10.54,0,0,1-1.59,1.08l-.3.16-1.26.67-5.23,2.83L283,287.32c-3.55,1.85-7.12,3.66-10.69,5.47-14.3,7.2-99.61,57-146.8,54.85S55,300.27,51.37,283.91,46.9,232.67,46.82,226c-1,3.47-1.9,7.06-2.69,10.69a231.73,231.73,0,0,0-3.5,23.54c-.76,7.94-1.26,15.94-1.36,24a238.38,238.38,0,0,0,.79,24.16h0c4.84,12.14,31.21,26.94,43.54,26.43,8.9,12,15.23,26.38,38.9,34.24A56.18,56.18,0,0,0,134.32,368.78Z"></path><path class="cls-1" d="M94.06,316.9A79.19,79.19,0,0,0,103,305.19a136.31,136.31,0,0,0,7.17-12.73,113.11,113.11,0,0,0,5.62-13.3,58.32,58.32,0,0,0,3.1-13.43l8.88,1.48a66,66,0,0,1-5.79,14.64,117.19,117.19,0,0,1-8,12.91,139,139,0,0,1-9.24,11.79A80.94,80.94,0,0,1,94.06,316.9Z"></path><use width="178.55" height="306.2" transform="translate(146.27 18.4) rotate(7.19)" xlink:href="#phone"></use><ellipse class="cls-5" cx="295.83" cy="298.2" rx="16.76" ry="14.1" transform="translate(-58.51 72.64) rotate(-12.75)"></ellipse><path class="cls-1" d="M311.64,294.62a11.7,11.7,0,0,0-2.66-5.07,13.63,13.63,0,0,0-4.69-3.33,17.54,17.54,0,0,0-20.46,5.46,11.63,11.63,0,0,0,4,17.56,17.54,17.54,0,0,0,20.81-3.87,13.65,13.65,0,0,0,2.8-5A11.67,11.67,0,0,0,311.64,294.62Zm1.08-.25a14.21,14.21,0,0,1-3,11.89,20.58,20.58,0,0,1-23.37,6.13,16.51,16.51,0,0,1-5.61-3.85,14.07,14.07,0,0,1-3.43-6.15,14.39,14.39,0,0,1,.45-7,16.21,16.21,0,0,1,3.41-5.88,20.57,20.57,0,0,1,23.72-4.54A14.19,14.19,0,0,1,312.72,294.37Z"></path><ellipse class="cls-5" cx="301.26" cy="265.05" rx="19.15" ry="14.1" transform="translate(-51.06 73.02) rotate(-12.75)"></ellipse><path class="cls-1" d="M319.5,260.92a10.83,10.83,0,0,0-3.17-5.32,14.72,14.72,0,0,0-5.45-3.1,21.84,21.84,0,0,0-12.46,0,22.11,22.11,0,0,0-10.27,6.31c-2.61,2.93-3.9,6.73-3,9.87.52,3.24,3.3,6.12,6.92,7.63a22,22,0,0,0,12,1.28,21.81,21.81,0,0,0,11.24-5.36,14.71,14.71,0,0,0,3.59-5.14A11,11,0,0,0,319.5,260.92Zm.89-.2a11.89,11.89,0,0,1-.51,6.73,16.84,16.84,0,0,1-3.61,5.71A25.82,25.82,0,0,1,304.65,280a25.24,25.24,0,0,1-13.9.1,17.52,17.52,0,0,1-6.54-3.54,11.85,11.85,0,0,1-3.3-14.58,17.56,17.56,0,0,1,4.38-6,25.33,25.33,0,0,1,12.59-5.89,25.68,25.68,0,0,1,13.44,1.18,16.61,16.61,0,0,1,5.71,3.6A11.8,11.8,0,0,1,320.39,260.72Z"></path><ellipse class="cls-5" cx="306.3" cy="224.65" rx="22.95" ry="14.98" transform="translate(-42.02 73.13) rotate(-12.75)"></ellipse><path class="cls-1" d="M328.16,219.7a10.91,10.91,0,0,0-3.9-5.83,17.55,17.55,0,0,0-6.54-3.06,29.66,29.66,0,0,0-14.47.38,30.19,30.19,0,0,0-12.49,6.72,16.34,16.34,0,0,0-4,5.39,9.34,9.34,0,0,0,2.48,10.95,16.32,16.32,0,0,0,5.89,3.16,30.2,30.2,0,0,0,14.17.69,29.58,29.58,0,0,0,13.22-5.88,17.5,17.5,0,0,0,4.59-5.58A10.79,10.79,0,0,0,328.16,219.7Zm1-.24a12,12,0,0,1-1,7.69,19.41,19.41,0,0,1-4.72,6.13,29.16,29.16,0,0,1-6.39,4.34,37.64,37.64,0,0,1-7.23,2.78,32.8,32.8,0,0,1-15.65.5,20.32,20.32,0,0,1-7.53-3.39,11.79,11.79,0,0,1-3.62-16,20.26,20.26,0,0,1,5.34-6.31,32.76,32.76,0,0,1,14.34-6.28,37.06,37.06,0,0,1,7.72-.6,29,29,0,0,1,7.63,1.16A19.43,19.43,0,0,1,325,213,12,12,0,0,1,329.21,219.46Z"></path><ellipse class="cls-5" cx="310.51" cy="179.58" rx="22.82" ry="15.4" transform="translate(-47.83 163.51) rotate(-27.48)"></ellipse><path class="cls-1" d="M330.28,169.3a11.27,11.27,0,0,0-5.23-4.77,17.29,17.29,0,0,0-7.11-1.47A28.48,28.48,0,0,0,304,167a29,29,0,0,0-10.25,9.83,16.26,16.26,0,0,0-2.26,6.28,9.4,9.4,0,0,0,1,5.84,9.5,9.5,0,0,0,4.2,4.19,16.3,16.3,0,0,0,6.44,1.76,29.06,29.06,0,0,0,13.93-2.75A28.52,28.52,0,0,0,328.3,183a17.2,17.2,0,0,0,2.88-6.66A11.36,11.36,0,0,0,330.28,169.3Zm1-.5a12.43,12.43,0,0,1,1.1,7.72,19.28,19.28,0,0,1-2.83,7.25,32.86,32.86,0,0,1-11.32,10.57A32.05,32.05,0,0,1,303,198.73a20.05,20.05,0,0,1-8.23-1.55,12.4,12.4,0,0,1-7.7-14.82,20.11,20.11,0,0,1,3.45-7.63,32,32,0,0,1,12.32-9.91,32.63,32.63,0,0,1,15.15-3.2,19.32,19.32,0,0,1,7.56,1.84A12.41,12.41,0,0,1,331.24,168.8Z"></path><path class="cls-10" d="M327.15,226.64a10.79,10.79,0,0,0,1-6.94,10.91,10.91,0,0,0-3.9-5.83,13.6,13.6,0,0,0-1.55-1.05,10.49,10.49,0,0,1,1,2.6,11.93,11.93,0,0,1-1,7.69,19.38,19.38,0,0,1-4.71,6.13,29.12,29.12,0,0,1-6.39,4.33,37.28,37.28,0,0,1-7.23,2.79,36.67,36.67,0,0,1-8.64,1.2,30.36,30.36,0,0,0,13.63.54,29.58,29.58,0,0,0,13.22-5.88A17.5,17.5,0,0,0,327.15,226.64Z"></path><path class="cls-10" d="M331.18,176.32a10.27,10.27,0,0,0-6.13-11.79,15.26,15.26,0,0,0-2.54-.88,11.65,11.65,0,0,1,2.38,3.1,12.43,12.43,0,0,1,1.1,7.72,19.21,19.21,0,0,1-2.83,7.25,32.86,32.86,0,0,1-11.32,10.57,36.6,36.6,0,0,1-5.76,2.63,30.71,30.71,0,0,0,11-2.77A28.52,28.52,0,0,0,328.3,183,17.26,17.26,0,0,0,331.18,176.32Z"></path><path class="cls-10" d="M318.93,267.09a11,11,0,0,0,.57-6.17,10.83,10.83,0,0,0-3.17-5.32,14.48,14.48,0,0,0-4.91-2.89,11.6,11.6,0,0,1,1,1.33,11.43,11.43,0,0,1,0,12.89,16.71,16.71,0,0,1-4.77,4.78,25.87,25.87,0,0,1-12.85,4.11,29.19,29.19,0,0,1-3.85-.08,13,13,0,0,0,1.19.57,22,22,0,0,0,12,1.28,21.81,21.81,0,0,0,11.24-5.36A14.71,14.71,0,0,0,318.93,267.09Z"></path><path class="cls-10" d="M298.69,310.83a17.27,17.27,0,0,0,9.93-5.46,13.65,13.65,0,0,0,2.8-5A11.1,11.1,0,0,0,309,289.55a11.53,11.53,0,0,0-1.12-1.09,12.48,12.48,0,0,1,.88,3.92,14.19,14.19,0,0,1-4.95,11.23,20.25,20.25,0,0,1-11.5,5,21.1,21.1,0,0,1-6-.29,12.18,12.18,0,0,0,1.55,1A17.25,17.25,0,0,0,298.69,310.83Z"></path></g></g></svg> 