<?xml version="1.0" encoding="UTF-8"?> <svg xmlns="http://www.w3.org/2000/svg" viewBox="0 0 318.03 90.62"><defs><style>.cls-1{fill:#94bf47;}.cls-2{fill:#5f8f3e;}.cls-3{fill:#fff;}.cls-4{fill:#010101;}</style></defs><g id="Layer_2" data-name="Layer 2"><g id="Technology_Development_Page" data-name="Technology Development Page"><path class="cls-1" d="M68.34,17.05a.87.87,0,0,0-.78-.73c-.32-.06-6.59-.11-6.59-.11s-5.28-5.12-5.8-5.64a2.2,2.2,0,0,0-1.94-.27l-2.67.84a17.33,17.33,0,0,0-1.25-3.08c-1.88-3.61-4.6-5.5-8-5.5a2.61,2.61,0,0,0-.68.06,2.42,2.42,0,0,1-.31-.37A7,7,0,0,0,34.88,0c-4.29.11-8.53,3.19-12,8.74A33.92,33.92,0,0,0,18,21.23c-4.92,1.52-8.37,2.56-8.42,2.62-2.46.78-2.56.83-2.87,3.19C6.48,28.76,0,79,0,79l54.43,9.41L78,82.57S68.4,17.47,68.34,17.05ZM47.85,12c-1.26.36-2.67.83-4.24,1.3A24.34,24.34,0,0,0,42.3,5.49C45.6,6.12,47.17,9.78,47.85,12Zm-7.06,2.19c-2.88.89-6,1.83-9.1,2.83a21.75,21.75,0,0,1,4.6-8.89,9.14,9.14,0,0,1,3.08-2.25C40.58,8.32,40.79,11.82,40.79,14.17ZM34.93,2.88a4.58,4.58,0,0,1,2.56.68,11.49,11.49,0,0,0-3.34,2.61A24.92,24.92,0,0,0,28.5,18c-2.62.78-5.13,1.57-7.48,2.3C22.59,13.39,28.34,3.09,34.93,2.88Z"></path><path class="cls-2" d="M67.56,16.32c-.32-.06-6.59-.11-6.59-.11s-5.28-5.12-5.8-5.64a1,1,0,0,0-.74-.32V88.42L78,82.57s-9.62-65-9.68-65.52A.92.92,0,0,0,67.56,16.32Z"></path><path class="cls-3" d="M41.36,28.45,38.64,38.7A15,15,0,0,0,32,37.55c-5.33.31-5.39,3.66-5.33,4.55.31,4.6,12.34,5.59,13,16.31.52,8.47-4.5,14.22-11.72,14.69a17.6,17.6,0,0,1-13.44-4.55l1.83-7.79s4.82,3.61,8.63,3.4a3.37,3.37,0,0,0,3.3-3.66c-.37-6-10.2-5.65-10.83-15.42-.52-8.27,4.92-16.63,16.89-17.42C39,27.25,41.36,28.45,41.36,28.45Z"></path><path class="cls-4" d="M110,50.31c-2.72-1.47-4.14-2.72-4.14-4.45,0-2.2,1.94-3.61,5-3.61a17.78,17.78,0,0,1,6.7,1.47l2.51-7.64s-2.3-1.78-9-1.78c-9.41,0-16,5.39-16,13,0,4.29,3,7.58,7.11,9.94,3.3,1.88,4.45,3.19,4.45,5.17S105,66,101.91,66a21,21,0,0,1-8.83-2.35l-2.67,7.64A20.33,20.33,0,0,0,101,74c9.68,0,16.63-4.76,16.63-13.33,0-4.65-3.45-7.95-7.68-10.35ZM148.56,34.2a14.51,14.51,0,0,0-11.4,5.7l-.16,0,4.13-21.65H130.36L119.9,73.26h10.77l3.61-18.82c1.41-7.12,5.07-11.51,8.52-11.51,2.41,0,3.35,1.62,3.35,4a24.68,24.68,0,0,1-.47,4.75L141.6,73.21h10.77l4.24-22.28a40.31,40.31,0,0,0,.78-7c0-6-3.24-9.73-8.83-9.73Zm33.2,0c-13,0-21.54,11.71-21.54,24.79,0,8.36,5.17,15.06,14.85,15.06,12.7,0,21.33-11.4,21.33-24.79-.05-7.69-4.6-15.06-14.64-15.06Zm-5.33,31.58c-3.66,0-5.23-3.13-5.23-7,0-6.17,3.19-16.27,9-16.27,3.82,0,5.08,3.3,5.08,6.49C185.32,55.64,182.13,65.78,176.43,65.78ZM223.91,34.2c-7.27,0-11.4,6.38-11.4,6.38h-.16l.63-5.8h-9.52c-.47,3.92-1.31,9.83-2.2,14.27l-7.47,39.43h10.77l3-16h.21a12.42,12.42,0,0,0,6.32,1.41c12.66,0,20.92-13,20.92-26.09,0-7.17-3.19-13.65-11.08-13.65ZM213.6,65.94a6.7,6.7,0,0,1-4.44-1.57l1.78-10.09c1.25-6.69,4.76-11.19,8.52-11.19,3.29,0,4.29,3,4.29,6C223.75,56,219.62,65.94,213.6,65.94Zm36.82-47.17a6.14,6.14,0,0,0-6.17,6.28c0,3.19,2,5.39,5.07,5.39h.15a6.08,6.08,0,0,0,6.33-6.28,5.1,5.1,0,0,0-5.38-5.39ZM235.36,73.26h10.77l7.32-38.17H242.57ZM280.85,35h-7.48l.37-1.77c.62-3.66,2.82-7,6.38-7a11.61,11.61,0,0,1,3.45.53l2.09-8.42a14.23,14.23,0,0,0-5.86-.94A16.1,16.1,0,0,0,269.24,21c-3.66,3.14-5.39,7.64-6.27,12.19L262.65,35h-5l-1.57,8.11h5l-5.7,30.17h10.78l5.69-30.17h7.43L280.85,35Zm25.93.11S300,52.08,297,61.34h-.16c-.21-3-2.67-26.25-2.67-26.25H282.89l6.48,35.09a2.43,2.43,0,0,1-.21,1.77,18.54,18.54,0,0,1-5.85,6.49,23.93,23.93,0,0,1-6.12,3l3,9.15a24.65,24.65,0,0,0,10.56-5.86c4.92-4.6,9.47-11.71,14.12-21.38L318,35.09Z"></path></g></g></svg> 