<svg xmlns="http://www.w3.org/2000/svg" viewBox="0 0 246.71 62.61"><defs><style>.cls-1{fill:#d8262a;}.cls-2{fill:#1a1919;}</style></defs><g id="Layer_2" data-name="Layer 2"><g id="About_Page" data-name="About Page"><path id="Fill-1" class="cls-1" d="M42.47,31.31A11.18,11.18,0,1,1,31.29,20.13,11.18,11.18,0,0,1,42.47,31.31"/><path id="Fill-2" class="cls-1" d="M18.38,42.5a11.19,11.19,0,1,1,0-22.37V42.5"/><path id="Fill-3" class="cls-1" d="M44.21,54.84V44.22H54.83A10.61,10.61,0,0,1,44.21,54.84"/><path id="Fill-4" class="cls-1" d="M18.38,7.78V18.41H7.75A10.63,10.63,0,0,1,18.38,7.78"/><path id="Fill-5" class="cls-1" d="M18.38,54.84V44.22H7.75A10.62,10.62,0,0,0,18.38,54.84"/><path id="Fill-6" class="cls-1" d="M57.13,40.93V21.7a11.2,11.2,0,0,1,0,19.23"/><path id="Fill-7" class="cls-1" d="M21.68,5.48H40.91a11.2,11.2,0,0,0-19.23,0"/><path id="Fill-8" class="cls-1" d="M40.76,57.15H21.54a11.19,11.19,0,0,0,19.22,0"/><path id="Fill-9" class="cls-1" d="M42.48,44.23a11.19,11.19,0,0,1-22.37,0H42.48"/><path id="Fill-10" class="cls-1" d="M44.21,42.5a11.19,11.19,0,1,0,0-22.37V42.5"/><path id="Fill-11" class="cls-1" d="M42.48,18.42a11.19,11.19,0,1,0-22.37,0H42.48"/><path id="Fill-12" class="cls-1" d="M5.46,40.93V21.7a11.2,11.2,0,0,0,0,19.23"/><path id="Fill-13" class="cls-1" d="M54.83,18.41H44.21V7.79A10.62,10.62,0,0,1,54.83,18.41"/><path id="Fill-14" class="cls-2" d="M104.56,62.59c-17.81,0-31-13.74-31-31.12V31.3c0-17.21,13-31.3,31.56-31.3,11.41,0,18.24,3.8,23.86,9.34l-8.47,9.77C115.8,14.87,111,12.28,105,12.28c-10.2,0-17.55,8.47-17.55,18.84v.18c0,10.37,7.18,19,17.55,19,6.92,0,11.15-2.77,15.91-7.09l8.47,8.56c-6.22,6.65-13.14,10.8-24.81,10.8"/><path id="Fill-15" class="cls-2" d="M173.35,43.55c0-4.2-3.13-6.8-10.2-6.8H147.24V50.52H163.6c6.08,0,9.75-2.14,9.75-6.79Zm-3.49-25c0-4.11-3.22-6.44-9-6.44H147.24V25.31h12.69c6.08,0,9.93-2,9.93-6.62ZM163.6,62.59H133.82V0h29.06c12.79,0,20.66,6.35,20.66,16.19v.17c0,7.07-3.76,11-8.23,13.51,7.25,2.77,11.72,7,11.72,15.38v.18c0,11.44-9.3,17.16-23.43,17.16Z"/><path id="Fill-16" class="cls-2" d="M221.89,62.59c-17.81,0-31-13.74-31-31.12V31.3c0-17.21,13-31.3,31.55-31.3,11.42,0,18.25,3.8,23.87,9.34l-8.48,9.77c-4.67-4.24-9.42-6.83-15.47-6.83-10.2,0-17.55,8.47-17.55,18.84v.18c0,10.37,7.17,19,17.55,19,6.91,0,11.15-2.77,15.91-7.09l8.47,8.56c-6.23,6.65-13.14,10.8-24.82,10.8"/></g></g></svg>