<?xml version="1.0" encoding="UTF-8"?> <svg xmlns="http://www.w3.org/2000/svg" viewBox="0 0 213.59 101.33"><defs><style>.cls-1{fill:#ef6622;}</style></defs><g id="Layer_2" data-name="Layer 2"><g id="Technology_Development_Page" data-name="Technology Development Page"><path class="cls-1" d="M22.9,7.77V36.5s10.12,0,15.54-.42c4.26-.74,5-1.15,5.83-5.41l1.56-6.24h4.64l-.79,13.63.41,14H45.42l-1.15-5.45c-1.16-3.88-2.73-4.67-5.83-5-3.89-.42-15.54-.42-15.54-.42v24.1c0,4.63,2.35,6.61,7.77,6.61H47c5,0,10.08-.41,13.23-7.77l4.22-9.34h3.92c-.41,1.94-2.35,19-2.73,22.9,0,0-14.75-.37-20.95-.37h-28L0,77.62V73.4l5.42-1.2c3.92-.78,5.07-1.94,5.07-5,0,0,.42-10.5.42-28s-.42-27.94-.42-27.94c0-3.48-1.15-4.26-5.07-5L0,5V.78l16.32.34H47.4C53.6,1.12,64.06,0,64.06,0s-.37,6.57-.78,22.11H59l-1.57-5.45C55.92,9.67,53.6,6.2,49.3,6.2H24.88C22.9,6.2,22.9,6.57,22.9,7.77Zm62.9,3.06h4.67V27.16l16-.79-.78,7.4L90.1,32.57V61.34c0,8.14,2.72,11.28,7.4,11.28a10.11,10.11,0,0,0,8.51-4.3l2.32,2.73c-2.32,5.42-8.89,8.14-15.13,8.14-7.73,0-14-4.63-14-13.56V33H69.92V29.1C77.7,28.31,83.49,23.64,85.8,10.83Zm33.43,50.09,3.1,7.4c1.16,3.1,3.88,6.24,10.08,6.24,6.62,0,9.34-3.51,9.34-7.77,0-13.23-26-9.34-26-27.2,0-10.08,8.14-14.79,18.63-14.79,4.68,0,11.66.78,15.17,2.35A71.29,71.29,0,0,0,148.33,40l-3.85.37-2.73-7.77c-.78-1.9-3.92-3.48-7.77-3.48-4.67,0-9.34,1.95-9.34,7,0,12,26.82,9.34,26.82,27.2,0,10.12-8.92,15.53-19.83,15.53a52.59,52.59,0,0,1-16.32-3.13c.78-4.63.41-9.67,0-14.76Zm30.3,37.28a146.19,146.19,0,0,0,2.72-14.75l4.26-.37,1.57,8.14c.37,1.94,1.53,3.51,4.63,3.51,5,0,11.66-3.1,17.89-14-2.76-6.62-10.9-27.95-18.3-44.27-1.94-4.29-2.31-4.67-5-5.45l-2-.75V26.37l11.69.41L181.35,26v3.88l-3.51.79c-2.72.37-3.85,1.9-3.85,3.47a3.07,3.07,0,0,0,.37,1.57c.75,2.35,7,19.8,11.66,31.45,3.85-8.14,11.25-26.4,12.4-29.51.42-1.57.79-1.94.79-3.1,0-2-1.16-3.13-3.85-3.88l-2.76-.79V26l10.9.37L213.59,26v3.88l-2,1.53c-3.88,1.57-4.29,1.94-5.82,5.08l-17.07,40c-10.13,22.93-20.62,24.87-28,24.87A20,20,0,0,1,149.53,98.2Z"></path></g></g></svg> 