<?xml version="1.0" encoding="UTF-8"?> <svg xmlns="http://www.w3.org/2000/svg" viewBox="0 0 170.04 67.06"><defs><style>.cls-1{fill:#010101;fill-rule:evenodd;}</style></defs><g id="Layer_2" data-name="Layer 2"><g id="Technology_Development_Page" data-name="Technology Development Page"><path class="cls-1" d="M0,.08S6.7-.78,11.16,3.21A13.24,13.24,0,0,1,14.72,9.6l9.12,35.81L31.42,16.1c.74-3.12,2.06-7,4.17-9.58C38.27,3.21,43.73,3,44.31,3s6,.21,8.72,3.52c2.1,2.61,3.43,6.46,4.17,9.58l7.58,29.31L73.9,9.6a13.1,13.1,0,0,1,3.56-6.39C81.92-.78,88.61.08,88.61.08L71.16,67s-5.76.43-8.64-1.06c-3.79-2-5.59-3.47-7.88-12.57l-.24-.95c-.83-3.35-2.11-8.6-3.41-13.92l-.38-1.6-.39-1.59c-1.87-7.66-3.59-14.71-3.86-15.61s-.57-2.84-2-2.84-1.79,2-2.05,2.84c-.31,1-2.37,9.47-4.45,18l-.39,1.59q-1.59,6.57-3.21,13.13l-.24.95C31.68,62.47,29.88,64,26.1,65.94,23.21,67.43,17.46,67,17.46,67ZM105.38,12v2.39h0V54.18c0,8.17-.89,10-4.63,11.87-2.9,1.46-7.35.91-7.35.91V22.35c0-2.24.76-3.71,3.54-5,1.66-.79,3.21-1.39,4.82-2.29A10.59,10.59,0,0,0,105.38,12ZM110.17.3S119.46-1.31,124.05,3a53.7,53.7,0,0,1,6.24,7.64l8.09,11.89a2.21,2.21,0,0,0,1.73,1.3c.82,0,1.33-.68,1.72-1.3l8.1-11.89A53.33,53.33,0,0,1,156.16,3C160.76-1.31,170,.3,170,.3L148,33.64l22,33.25h-.08c-.91.11-9.67,1-14-3a49.79,49.79,0,0,1-6-7.17l-8.1-11.89a1.8,1.8,0,0,0-3.45,0L130.29,56.7a44.16,44.16,0,0,1-5.8,7.17c-4.59,4.27-14.26,3-14.26,3l21.94-33.24ZM105.28,0h.1c0,4.57-.45,7.29-3.32,9.4a18.55,18.55,0,0,1-4.38,2.37,13.42,13.42,0,0,0-4.28,2.6C93.4,6,94.67,3,98.08,1.25,100.15.16,103.52,0,104.83,0Z"></path></g></g></svg> 