<?xml version="1.0" encoding="UTF-8"?> <svg xmlns="http://www.w3.org/2000/svg" xmlns:xlink="http://www.w3.org/1999/xlink" version="1.1" id="Layer_1" x="0px" y="0px" viewBox="0 0 360 86.4" xml:space="preserve"> <g> <polygon fill="#904A2D" points="128.272,12.857 123.736,3.021 121.969,3.021 121.969,14.34 123.108,14.34 123.108,4.618 127.562,14.34 129.427,14.34 129.427,3.021 128.272,3.021 "></polygon> <path fill="#904A2D" d="M135.351,2.854h-0.213c-2.031,0-3.631,1.334-3.631,3.346v4.962c0,2.146,1.519,3.346,3.646,3.346h0.198 c2.079,0,3.647-1.234,3.647-3.346V6.199C138.998,4.152,137.397,2.854,135.351,2.854z M137.742,11.161 c0,1.43-0.986,2.181-2.391,2.181h-0.198c-1.402,0-2.392-0.767-2.392-2.181V6.199c0-1.313,1.056-2.18,2.377-2.18h0.213 c1.304,0,2.391,0.899,2.391,2.198V11.161z"></path> <path fill="#904A2D" d="M147.38,6.915V5.682c0-1.813-1.058-2.661-2.74-2.661h-3.531V14.34h1.254V9.411h1.732l2.197,4.929h1.317 l-2.258-5.026C146.572,9.028,147.38,8.348,147.38,6.915z M142.363,8.246V4.188h2.258c0.961,0,1.502,0.516,1.502,1.48V6.9 c0,0.946-0.576,1.346-1.502,1.346H142.363z"></path> <polygon fill="#904A2D" points="148.287,4.188 151.207,4.188 151.207,14.34 152.46,14.34 152.46,4.188 155.415,4.188 155.415,3.021 148.287,3.021 "></polygon> <polygon fill="#904A2D" points="162.855,8.279 158.218,8.279 158.218,3.021 156.998,3.021 156.998,14.34 158.218,14.34 158.218,9.446 162.855,9.446 162.855,14.34 164.094,14.34 164.094,3.021 162.855,3.021 "></polygon> <polygon fill="#904A2D" points="173.895,12.041 171.93,3.021 170.693,3.021 168.73,12.027 166.898,3.021 165.627,3.021 167.97,14.34 169.373,14.34 171.305,5.551 173.217,14.34 174.653,14.34 176.929,3.021 175.644,3.021 "></polygon> <polygon fill="#904A2D" points="179.801,9.13 182.95,9.13 182.95,7.998 179.801,7.998 179.801,4.188 183.544,4.188 183.544,3.021 178.576,3.021 178.576,14.34 183.86,14.34 183.86,13.174 179.801,13.174 "></polygon> <path fill="#904A2D" d="M189.452,8.279c-0.795-0.55-2.723-1.398-2.723-2.598c0-1.18,0.643-1.662,1.848-1.662 c0.893,0,1.817,0.684,2.293,1.33l0.807-0.932c-0.674-0.916-1.81-1.564-2.999-1.564c-1.914,0-3.199,0.949-3.199,2.848 c0,1.848,1.713,2.712,2.604,3.379c0.711,0.531,2.475,1.197,2.475,2.514c0,1.332-0.791,1.729-2.096,1.729 c-1.125,0-1.998-0.597-2.439-1.615l-1.008,0.734c0.641,1.397,1.978,2.047,3.479,2.047c1.914,0,3.315-0.933,3.315-2.88 C191.81,9.629,190.395,8.98,189.452,8.279z"></path> <polygon fill="#904A2D" points="192.404,4.188 195.325,4.188 195.325,14.34 196.58,14.34 196.58,4.188 199.532,4.188 199.532,3.021 192.404,3.021 "></polygon> <polygon fill="#904A2D" points="202.122,9.13 205.274,9.13 205.274,7.998 202.122,7.998 202.122,4.188 205.869,4.188 205.869,3.021 200.903,3.021 200.903,14.34 206.185,14.34 206.185,13.174 202.122,13.174 "></polygon> <path fill="#904A2D" d="M214.399,6.915V5.682c0-1.813-1.054-2.661-2.739-2.661h-3.53V14.34h1.255V9.411h1.733l2.191,4.929h1.32 l-2.263-5.026C213.593,9.028,214.399,8.348,214.399,6.915z M209.385,8.246V4.188h2.261c0.955,0,1.5,0.516,1.5,1.48V6.9 c0,0.946-0.576,1.346-1.5,1.346H209.385z"></path> <polygon fill="#904A2D" points="222.763,12.857 218.226,3.021 216.462,3.021 216.462,14.34 217.599,14.34 217.599,4.618 222.052,14.34 223.917,14.34 223.917,3.021 222.763,3.021 "></polygon> <path fill="#904A2D" d="M233.255,2.854h-0.211c-2.03,0-3.633,1.334-3.633,3.346v4.962c0,2.146,1.521,3.346,3.646,3.346h0.197 c2.082,0,3.648-1.234,3.648-3.346V6.199C236.903,4.152,235.302,2.854,233.255,2.854z M235.649,11.161 c0,1.43-0.987,2.181-2.395,2.181h-0.197c-1.398,0-2.393-0.767-2.393-2.181V6.199c0-1.313,1.059-2.18,2.379-2.18h0.211 c1.312,0,2.395,0.899,2.395,2.198V11.161z"></path> <polygon fill="#904A2D" points="245.319,12.857 240.779,3.021 239.017,3.021 239.017,14.34 240.155,14.34 240.155,4.618 244.608,14.34 246.474,14.34 246.474,3.021 245.319,3.021 "></polygon> <polygon fill="#904A2D" points="254.955,3.021 247.827,3.021 247.827,4.188 250.747,4.188 250.747,14.34 252.001,14.34 252.001,4.188 254.955,4.188 "></polygon> <path fill="#904A2D" d="M257.856,2.904l-3.314,11.436h1.303l0.99-3.414h3.382l0.972,3.414h1.285l-3.215-11.436H257.856z M257.132,9.845l1.418-5.343l1.387,5.343H257.132z"></path> <path fill="#904A2D" d="M270.279,6.915V5.682c0-1.813-1.053-2.661-2.736-2.661h-3.533V14.34h1.255V9.411h1.733l2.192,4.929h1.321 l-2.263-5.026C269.473,9.028,270.279,8.348,270.279,6.915z M265.265,8.246V4.188h2.264c0.957,0,1.502,0.516,1.502,1.48V6.9 c0,0.946-0.58,1.346-1.502,1.346H265.265z"></path> <rect x="272.772" y="3.021" fill="#904A2D" width="1.256" height="11.319"></rect> <path fill="#904A2D" d="M280.429,2.854h-0.217c-2.029,0-3.628,1.334-3.628,3.346v4.962c0,2.146,1.517,3.346,3.644,3.346h0.201 c2.078,0,3.644-1.234,3.644-3.346V6.199C284.072,4.152,282.474,2.854,280.429,2.854z M282.823,11.161 c0,1.43-0.994,2.181-2.395,2.181h-0.201c-1.402,0-2.392-0.767-2.392-2.181V6.199c0-1.313,1.062-2.18,2.376-2.18h0.217 c1.301,0,2.395,0.899,2.395,2.198V11.161z"></path> </g> <g> <path fill="#904A2D" d="M124.942,73.061c0.938,0,1.749,0.531,2.225,1.266l0.844-0.852c-0.647-0.963-1.601-1.581-3.069-1.581 c-1.947,0-3.4,1.149-3.4,3.265v5.157c0,1.967,1.105,3.231,3.4,3.231c1.187,0,2.21-0.4,3.052-1.281l-0.76-0.918 c-0.578,0.633-1.221,1.033-2.292,1.033c-1.308,0-2.144-0.584-2.144-2.065v-5.157C122.798,73.975,123.471,73.061,124.942,73.061z"></path> <polygon fill="#904A2D" points="131.044,78.17 134.196,78.17 134.196,77.038 131.044,77.038 131.044,73.229 134.79,73.229 134.79,72.062 129.822,72.062 129.822,83.381 135.104,83.381 135.104,82.214 131.044,82.214 "></polygon> <polygon fill="#904A2D" points="143.353,81.896 138.816,72.062 137.052,72.062 137.052,83.381 138.19,83.381 138.19,73.658 142.645,83.381 144.51,83.381 144.51,72.062 143.353,72.062 "></polygon> <polygon fill="#904A2D" points="145.863,73.229 148.781,73.229 148.781,83.381 150.038,83.381 150.038,73.229 152.989,73.229 152.989,72.062 145.863,72.062 "></polygon> <path fill="#904A2D" d="M160.628,75.956v-1.231c0-1.814-1.057-2.663-2.74-2.663h-3.53v11.319h1.253v-4.93h1.734l2.196,4.93h1.319 l-2.26-5.029C159.82,78.068,160.628,77.387,160.628,75.956z M155.611,77.287v-4.059h2.262c0.959,0,1.502,0.513,1.502,1.479v1.23 c0,0.951-0.577,1.35-1.502,1.35H155.611z"></path> <polygon fill="#904A2D" points="163.912,82.214 163.912,78.17 167.064,78.17 167.064,77.038 163.912,77.038 163.912,73.229 167.658,73.229 167.658,72.062 162.691,72.062 162.691,83.381 167.97,83.381 167.97,82.214 "></polygon> </g> <g> <path fill="#904A2D" d="M52.527,32.057l-4.908-3.523c-1.08,2.552-1.871,5.259-2.346,8.074l6.012-0.286 C51.596,34.856,52.013,33.433,52.527,32.057z"></path> <path fill="#904A2D" d="M82.656,12.636c1.463,0.107,2.889,0.321,4.285,0.628l2.753-5.403c-2.616-0.707-5.353-1.115-8.173-1.197 L82.656,12.636z"></path> <path fill="#904A2D" d="M62.033,11.811l4.154,4.404c1.271-0.701,2.603-1.313,3.979-1.827L69.59,8.346 C66.919,9.21,64.387,10.374,62.033,11.811z"></path> <path fill="#904A2D" d="M51.285,49.045l-6.012-0.283c0.476,2.812,1.266,5.52,2.346,8.071l4.908-3.526 C52.013,51.933,51.596,50.508,51.285,49.045z"></path> <path fill="#904A2D" d="M56.642,24.527l-3.727-4.776c-1.765,2.16-3.281,4.53-4.511,7.063l5.848,1.441 C54.958,26.95,55.756,25.704,56.642,24.527z"></path> <path fill="#904A2D" d="M50.613,42.683c0-0.745,0.035-1.488,0.088-2.217l-5.695-1.986c-0.158,1.378-0.246,2.781-0.246,4.203 c0,1.423,0.088,2.826,0.246,4.206l5.695-1.984C50.648,44.17,50.613,43.43,50.613,42.683z"></path> <path fill="#904A2D" d="M99.025,11.884c-2.332-1.436-4.848-2.603-7.491-3.472l-0.58,6.053c1.356,0.516,2.666,1.125,3.92,1.824 L99.025,11.884z"></path> <path fill="#904A2D" d="M74.169,13.226c1.398-0.305,2.839-0.505,4.305-0.604l1.133-5.959c-2.824,0.065-5.575,0.455-8.199,1.149 L74.169,13.226z"></path> <path fill="#904A2D" d="M101.638,21.438l5.21-3.045c-1.85-2.043-3.933-3.872-6.206-5.446l-2.241,5.645 C99.545,19.462,100.627,20.414,101.638,21.438z"></path> <path fill="#904A2D" d="M98.4,66.776l2.242,5.644c2.273-1.574,4.356-3.399,6.206-5.451l-5.21-3.042 C100.627,64.953,99.545,65.906,98.4,66.776z"></path> <path fill="#904A2D" d="M54.251,57.115l-5.848,1.438c1.23,2.532,2.746,4.904,4.511,7.06l3.727-4.772 C55.756,59.659,54.958,58.418,54.251,57.115z"></path> <path fill="#904A2D" d="M62.033,73.559c2.354,1.436,4.887,2.598,7.558,3.462l0.575-6.047c-1.376-0.509-2.708-1.118-3.979-1.823 L62.033,73.559z"></path> <path fill="#904A2D" d="M74.169,72.143l-2.761,5.417c2.624,0.691,5.375,1.077,8.199,1.146l-1.133-5.961 C77.008,72.643,75.568,72.445,74.169,72.143z"></path> <path fill="#904A2D" d="M82.656,72.729L81.521,78.7c2.82-0.083,5.557-0.489,8.173-1.194L86.94,72.1 C85.545,72.412,84.119,72.617,82.656,72.729z"></path> <path fill="#904A2D" d="M90.955,70.902l0.58,6.055c2.643-0.873,5.159-2.035,7.491-3.476l-4.15-4.401 C93.62,69.781,92.311,70.387,90.955,70.902z"></path> <path fill="#904A2D" d="M59.479,63.927l-5.211,3.042c1.849,2.052,3.933,3.877,6.207,5.451l2.242-5.644 C61.571,65.906,60.489,64.953,59.479,63.927z"></path> </g> <g> <path fill="#1B4164" d="M10.092,32.057l-4.908-3.523c-1.081,2.552-1.871,5.259-2.343,8.075l6.009-0.287 C9.161,34.857,9.581,33.433,10.092,32.057z"></path> <path fill="#1B4164" d="M40.223,12.636c1.459,0.107,2.887,0.321,4.281,0.628L47.26,7.86c-2.617-0.707-5.354-1.115-8.171-1.197 L40.223,12.636z"></path> <path fill="#1B4164" d="M19.6,11.811l4.151,4.404c1.273-0.701,2.604-1.313,3.979-1.827l-0.578-6.042 C24.485,9.21,21.953,10.374,19.6,11.811z"></path> <path fill="#1B4164" d="M8.85,49.045l-6.009-0.283c0.472,2.812,1.262,5.52,2.343,8.071l4.908-3.526 C9.581,51.933,9.161,50.508,8.85,49.045z"></path> <path fill="#1B4164" d="M14.205,24.527l-3.726-4.776c-1.762,2.16-3.276,4.53-4.511,7.063l5.851,1.441 C12.525,26.95,13.322,25.704,14.205,24.527z"></path> <path fill="#1B4164" d="M8.177,42.684c0-0.746,0.037-1.489,0.091-2.218L2.576,38.48c-0.16,1.378-0.252,2.781-0.252,4.203 s0.092,2.825,0.252,4.205l5.692-1.984C8.214,44.17,8.177,43.43,8.177,42.684z"></path> <path fill="#1B4164" d="M73.498,38.544l-5.694,1.984c0.048,0.714,0.081,1.432,0.081,2.155c0,0.726-0.033,1.442-0.081,2.153 l5.694,1.985c0.154-1.359,0.244-2.74,0.244-4.139C73.742,41.283,73.652,39.902,73.498,38.544z"></path> <path fill="#1B4164" d="M67.213,36.313l6.009,0.284c-0.466-2.773-1.24-5.44-2.292-7.957l-4.915,3.526 C66.509,33.505,66.907,34.89,67.213,36.313z"></path> <path fill="#1B4164" d="M56.594,11.884c-2.337-1.436-4.85-2.603-7.495-3.472l-0.578,6.053c1.355,0.516,2.664,1.125,3.919,1.824 L56.594,11.884z"></path> <path fill="#1B4164" d="M64.269,28.297l5.849-1.438c-1.213-2.504-2.706-4.844-4.436-6.979l-3.726,4.776 C62.81,25.807,63.583,27.024,64.269,28.297z"></path> <path fill="#1B4164" d="M31.736,13.226c1.399-0.305,2.838-0.505,4.305-0.604l1.131-5.959c-2.826,0.065-5.572,0.455-8.196,1.149 L31.736,13.226z"></path> <path fill="#1B4164" d="M20.249,18.479l-2.241-5.639c-2.304,1.576-4.413,3.419-6.29,5.485l5.215,3.04 C17.964,20.322,19.075,19.357,20.249,18.479z"></path> <path fill="#1B4164" d="M66.015,53.201l4.915,3.525c1.053-2.517,1.827-5.184,2.292-7.955l-6.009,0.283 C66.907,50.475,66.509,51.86,66.015,53.201z"></path> <path fill="#1B4164" d="M58.209,12.947l-2.243,5.645c1.145,0.87,2.228,1.822,3.236,2.847l5.213-3.045 C62.565,16.351,60.482,14.521,58.209,12.947z"></path> <path fill="#1B4164" d="M16.933,64.001l-5.215,3.042c1.877,2.068,3.986,3.907,6.29,5.486l2.241-5.642 C19.075,66.009,17.964,65.043,16.933,64.001z"></path> <path fill="#1B4164" d="M11.818,57.115l-5.851,1.438c1.235,2.532,2.749,4.904,4.511,7.06l3.726-4.772 C13.322,59.659,12.525,58.418,11.818,57.115z"></path> <path fill="#1B4164" d="M19.6,73.559c2.353,1.436,4.885,2.598,7.553,3.462l0.578-6.047c-1.375-0.509-2.706-1.118-3.979-1.823 L19.6,73.559z"></path> <path fill="#1B4164" d="M61.957,60.713l3.726,4.774c1.729-2.136,3.222-4.479,4.436-6.979l-5.849-1.441 C63.583,58.344,62.81,59.559,61.957,60.713z"></path> <path fill="#1B4164" d="M31.736,72.143l-2.76,5.417c2.624,0.691,5.371,1.077,8.196,1.146l-1.131-5.961 C34.575,72.643,33.136,72.445,31.736,72.143z"></path> <path fill="#1B4164" d="M40.223,72.729L39.088,78.7c2.817-0.083,5.555-0.489,8.171-1.194L44.503,72.1 C43.11,72.412,41.682,72.617,40.223,72.729z"></path> <path fill="#1B4164" d="M48.522,70.902l0.578,6.055c2.645-0.873,5.157-2.035,7.495-3.476l-4.153-4.401 C51.186,69.781,49.877,70.387,48.522,70.902z"></path> </g> <g> <polygon fill="#1B4164" points="140.466,53.676 130.368,24.59 121.053,24.59 121.053,60.482 126.809,60.482 126.809,31.927 135.968,60.482 146.224,60.482 146.224,24.59 140.466,24.59 "></polygon> <polygon fill="#1B4164" points="171.62,53.676 161.521,24.59 152.206,24.59 152.206,60.482 157.962,60.482 157.962,31.927 167.117,60.482 177.374,60.482 177.374,24.59 171.62,24.59 "></polygon> <path fill="#1B4164" d="M196.259,24.061h-0.728c-6.804,0-12.245,4.171-12.245,10.927v15.045c0,7.232,5.18,10.979,12.296,10.979 h0.677c6.963,0,12.249-3.854,12.249-10.979V34.987C208.508,28.124,203.065,24.061,196.259,24.061z M202.021,50.032 c0,3.593-2.254,5.174-5.762,5.174h-0.677c-3.452,0-5.806-1.638-5.806-5.174V34.987c0-3.273,2.512-5.118,5.755-5.118h0.728 c3.248,0,5.762,1.898,5.762,5.169V50.032z"></path> <polygon fill="#1B4164" points="231.648,24.59 224.532,51.139 217.573,24.59 211.083,24.59 220.764,60.482 228.302,60.482 238.239,24.59 "></polygon> <path fill="#1B4164" d="M246.469,24.482l-9.524,36h6.646l2.092-8.498h9.368l2.041,8.498h6.591l-9.262-36H246.469z M247.043,46.708 l3.353-15.574l3.291,15.574H247.043z"></path> <polygon fill="#1B4164" points="261.34,30.394 270.022,30.394 270.022,60.482 276.511,60.482 276.511,30.394 285.249,30.394 285.249,24.59 261.34,24.59 "></polygon> <rect x="290.338" y="24.59" fill="#1B4164" width="6.489" height="35.893"></rect> <path fill="#1B4164" d="M315.124,24.061h-0.736c-6.797,0-12.239,4.171-12.239,10.927v15.045c0,7.232,5.181,10.979,12.296,10.979 h0.68c6.959,0,12.246-3.854,12.246-10.979V34.987C327.37,28.124,321.927,24.061,315.124,24.061z M320.879,50.032 c0,3.593-2.253,5.174-5.755,5.174h-0.68c-3.455,0-5.808-1.638-5.808-5.174V34.987c0-3.273,2.513-5.118,5.751-5.118h0.736 c3.246,0,5.755,1.898,5.755,5.169V50.032z"></path> <polygon fill="#1B4164" points="351.922,24.59 351.922,53.676 341.823,24.59 332.509,24.59 332.509,60.482 338.265,60.482 338.265,31.927 347.419,60.482 357.676,60.482 357.676,24.59 "></polygon> <path fill="#1B4164" d="M104.242,24.59c3.749,5.001,5.978,11.227,5.978,17.981c0,6.722-2.205,12.925-5.926,17.911h7.546 c2.991-5.282,4.707-11.393,4.707-17.911c0-6.548-1.731-12.685-4.745-17.981H104.242z"></path> </g> </svg> 