<?xml version="1.0" encoding="UTF-8"?> <svg xmlns="http://www.w3.org/2000/svg" viewBox="0 0 299.8 120.12"><defs><style>.cls-1{fill:#e53338;}.cls-2{fill:#3466b1;}.cls-3{fill:#f3af1c;}.cls-4{fill:#87b940;}</style></defs><g id="Layer_2" data-name="Layer 2"><g id="Technology_Development_Page" data-name="Technology Development Page"><path id="e" class="cls-1" d="M38.77,26.21c-21.15,0-38.77,9-38.77,36C0,83.69,11.85,97.19,39.31,97.19c32.33,0,34.4-21.3,34.4-21.3H58.05S54.69,87.36,38.36,87.36c-13.3,0-22.87-9-22.87-21.58H75.35v-7.9c0-12.46-7.91-31.67-36.58-31.67Zm-.55,10.1c12.66,0,21.29,7.76,21.29,19.38H15.83C15.83,43.35,27.1,36.31,38.22,36.31Z"></path><path id="b" class="cls-2" d="M75.34,0V83.6C75.34,88.34,75,95,75,95H89.94s.54-4.79.54-9.16c0,0,7.38,11.54,27.45,11.54,21.13,0,35.49-14.67,35.49-35.69,0-19.56-13.19-35.29-35.46-35.29-20.85,0-27.33,11.26-27.33,11.26V0ZM114.1,36.75c14.36,0,23.48,10.65,23.48,25,0,15.33-10.54,25.35-23.37,25.35-15.32,0-23.58-12-23.58-25.21C90.63,49.48,98,36.75,114.1,36.75Z"></path><path id="a" class="cls-3" d="M190.55,26.21c-31.82,0-33.86,17.42-33.86,20.2h15.84s.83-10.17,16.92-10.17c10.46,0,18.57,4.79,18.57,14v3.28H189.45c-24.64,0-37.67,7.21-37.67,21.84,0,14.4,12,22.23,28.31,22.23,22.17,0,29.31-12.25,29.31-12.25,0,4.87.38,9.68.38,9.68h14.07s-.54-6-.54-9.76V52.33c0-21.58-17.41-26.12-32.76-26.12ZM208,63.34V67.7c0,5.7-3.52,19.87-24.21,19.87-11.34,0-16.2-5.66-16.2-12.22,0-11.94,16.37-12,40.41-12Z"></path><path id="y" class="cls-4" d="M214.78,28.94h17.81l25.57,51.22,25.5-51.22H299.8l-46.46,91.18H236.41l13.41-25.41Z"></path></g></g></svg> 