<?xml version="1.0" encoding="UTF-8"?> <svg xmlns="http://www.w3.org/2000/svg" viewBox="0 0 270.03 48.39"><defs><style>.cls-1{fill:#1566a8;}.cls-2{fill:#fff;}.cls-3{fill:#f2ce14;}</style></defs><g id="Layer_2" data-name="Layer 2"><g id="About_Page" data-name="About Page"><rect class="cls-1" width="270.03" height="48.39" rx="8.81"></rect><path class="cls-2" d="M45.94,37.83V18.5h6.93v1.21a8.92,8.92,0,0,1,2.14-1,7.49,7.49,0,0,1,2.26-.32A4.68,4.68,0,0,1,61,19.82,6.12,6.12,0,0,1,62.25,24V37.82H55.09V24.36a2,2,0,0,0-.25-1.13.86.86,0,0,0-.75-.37.89.89,0,0,0-.78.36,2.16,2.16,0,0,0-.24,1.14V37.82Z"></path><path class="cls-2" d="M80,33.47a4.54,4.54,0,0,1-1.06,3.44,5.48,5.48,0,0,1-3.71,1h-7a5.47,5.47,0,0,1-3.68-1c-.7-.64-1-1.79-1.06-3.46V22.85a4.55,4.55,0,0,1,1.06-3.45,5.47,5.47,0,0,1,3.68-1h7a5.44,5.44,0,0,1,3.71,1A4.57,4.57,0,0,1,80,22.85v5.86H70.72v4A2.16,2.16,0,0,0,71,33.8a.83.83,0,0,0,.75.36.85.85,0,0,0,.76-.34,2.14,2.14,0,0,0,.24-1.14V30.2H80Zm-9.32-9.78v1.54H72.8V23.69a2.32,2.32,0,0,0-.26-1.24.93.93,0,0,0-.83-.4.9.9,0,0,0-.79.39,2.37,2.37,0,0,0-.26,1.25Z"></path><path class="cls-2" d="M95.15,18.5,96.6,27l1.49-8.46H105l-4.22,19.32H94.21l-1.62-9.1L91,37.83H84.44L80.19,18.5H87L88.55,27,90,18.5Z"></path><path class="cls-2" d="M121.91,33.47a4.55,4.55,0,0,1-1.06,3.44,5.43,5.43,0,0,1-3.71,1h-7a5.47,5.47,0,0,1-3.68-1c-.7-.64-1.05-1.79-1.05-3.46v-2.4h7.25v1.61a2.07,2.07,0,0,0,.24,1.12.84.84,0,0,0,.75.36.87.87,0,0,0,.78-.34,2.06,2.06,0,0,0,.23-1.14v-.52a1.63,1.63,0,0,0-.4-1.14,2.91,2.91,0,0,0-1.27-.76l-4.14-1.42a5.68,5.68,0,0,1-2.62-1.55,4.19,4.19,0,0,1-.68-2.59V22.89a4.62,4.62,0,0,1,1-3.46,5.42,5.42,0,0,1,3.69-1h6.89a5.43,5.43,0,0,1,3.71,1,4.58,4.58,0,0,1,1.06,3.45v1.29h-7.2v-.47a2,2,0,0,0-.25-1.13.83.83,0,0,0-.75-.37.94.94,0,0,0-.72.31,1.18,1.18,0,0,0-.29.78,1.43,1.43,0,0,0,.35,1,4.5,4.5,0,0,0,1.63.82l3.12,1.09a7.19,7.19,0,0,1,3.25,1.87,4.83,4.83,0,0,1,.85,3Z"></path><path class="cls-2" d="M219.25,34.08v3.6h-4.47v-3.6Z"></path><path class="cls-2" d="M230.94,35a2.85,2.85,0,0,1-.66,2.16,3.44,3.44,0,0,1-2.31.61h-4.41a3.43,3.43,0,0,1-2.3-.6,2.91,2.91,0,0,1-.65-2.17V28.33a2.88,2.88,0,0,1,.65-2.15,3.43,3.43,0,0,1,2.3-.61H228a3.38,3.38,0,0,1,2.31.62,2.84,2.84,0,0,1,.66,2.14V30.2H226.4V28.85a1.37,1.37,0,0,0-.16-.71.51.51,0,0,0-.47-.22.53.53,0,0,0-.48.22,1.47,1.47,0,0,0-.15.71v5.63a1.28,1.28,0,0,0,.16.69.49.49,0,0,0,.47.23.52.52,0,0,0,.48-.22,1.31,1.31,0,0,0,.15-.7v-2h4.54Z"></path><path class="cls-2" d="M232,28.33a2.88,2.88,0,0,1,.65-2.15,3.37,3.37,0,0,1,2.3-.61h4.4a3.41,3.41,0,0,1,2.32.62,2.84,2.84,0,0,1,.66,2.14V35a2.82,2.82,0,0,1-.66,2.15,3.49,3.49,0,0,1-2.33.6h-4.4a3.41,3.41,0,0,1-2.3-.6A2.86,2.86,0,0,1,232,35Zm4.52.52v5.63a1.33,1.33,0,0,0,.16.7.5.5,0,0,0,.47.22.53.53,0,0,0,.48-.21,1.36,1.36,0,0,0,.15-.71V28.85a1.31,1.31,0,0,0-.16-.7.52.52,0,0,0-.47-.23.53.53,0,0,0-.48.22A1.36,1.36,0,0,0,236.52,28.85Z"></path><path class="cls-2" d="M243.54,37.68V25.6h4.28v.75a4.82,4.82,0,0,1,2.76-.83,3.11,3.11,0,0,1,1.41.3,3,3,0,0,1,1,.89,4.46,4.46,0,0,1,1.44-.89,4.59,4.59,0,0,1,1.72-.3,2.85,2.85,0,0,1,2.28.91,3.86,3.86,0,0,1,.79,2.61v8.64h-4.43V29.25a1.31,1.31,0,0,0-.16-.7.5.5,0,0,0-.46-.23.57.57,0,0,0-.49.22,1.36,1.36,0,0,0-.15.71v8.43h-4.36V29.25a1.31,1.31,0,0,0-.16-.7.51.51,0,0,0-.47-.23.54.54,0,0,0-.48.22,1.36,1.36,0,0,0-.15.71v8.43Z"></path><path class="cls-3" d="M137.7,18.56,139.15,27l1.48-8.46h6.87l-4.23,19.33h-6.52l-1.63-9.11-1.64,9.11H127l-4.25-19.33h6.84L131.09,27l1.43-8.46Z"></path><path class="cls-3" d="M157.1,24.51v-.83a2.07,2.07,0,0,0-.26-1.2,1,1,0,0,0-.84-.34.92.92,0,0,0-.8.37,2.06,2.06,0,0,0-.26,1.17v.63H148V22.93a4.59,4.59,0,0,1,1.05-3.45,5.45,5.45,0,0,1,3.71-1h6.66a5.47,5.47,0,0,1,3.7,1,4.62,4.62,0,0,1,1.06,3.45v15h-6.91V36.67a9.29,9.29,0,0,1-2.18,1,7.69,7.69,0,0,1-2.24.33,4.62,4.62,0,0,1-3.68-1.45,6.23,6.23,0,0,1-1.26-4.21V31.6a4.71,4.71,0,0,1,.67-2.73A5.23,5.23,0,0,1,151,27.18Zm0,7.78v-3l-1,.46a2.3,2.3,0,0,0-1,.8,2.5,2.5,0,0,0-.28,1.32v.42a2,2,0,0,0,.27,1.17,1,1,0,0,0,.82.39,1,1,0,0,0,.85-.37,2.05,2.05,0,0,0,.27-1.19Z"></path><path class="cls-3" d="M167.4,22.27h-1.88V18.56h1.88V13.3h7.16v5.26h2.95v3.71h-2.95V33.16a.86.86,0,0,0,.35.8,2.74,2.74,0,0,0,1.33.22h1.27v3.71h-5.38a5.39,5.39,0,0,1-3.68-1,4.64,4.64,0,0,1-1-3.48Z"></path><path class="cls-3" d="M195.11,33.53A4.58,4.58,0,0,1,194.05,37a5.48,5.48,0,0,1-3.71,1h-7a5.49,5.49,0,0,1-3.69-1,4.6,4.6,0,0,1-1-3.46V22.93a4.62,4.62,0,0,1,1-3.46,5.43,5.43,0,0,1,3.69-1h7c1.78,0,3,.33,3.7,1a4.74,4.74,0,0,1,1.06,3.44v3h-7.28V23.77a2,2,0,0,0-.24-1.14.87.87,0,0,0-.76-.36.83.83,0,0,0-.75.37,2.13,2.13,0,0,0-.23,1.14v9a2,2,0,0,0,.24,1.11.83.83,0,0,0,.75.36.84.84,0,0,0,.77-.35,2,2,0,0,0,.22-1.12V29.63h7.28Z"></path><path class="cls-3" d="M196.41,37.89V13.3h7.14v6.35a7.45,7.45,0,0,1,2-.89,8.09,8.09,0,0,1,2.24-.32,4.65,4.65,0,0,1,3.7,1.45,6.16,6.16,0,0,1,1.28,4.18V37.89h-7.18V24.41a2.12,2.12,0,0,0-.24-1.13,1,1,0,0,0-1.53,0,2,2,0,0,0-.24,1.13V37.89Z"></path><path class="cls-3" d="M10.76,10.34h14.3v4.14H21.52V38H14.3V14.48H10.76Z"></path><path class="cls-3" d="M26.6,10.34h8.88a25.71,25.71,0,0,1,3.92.24,6.08,6.08,0,0,1,2.33.79,3.12,3.12,0,0,1,1.19,1.49,6.72,6.72,0,0,1,.35,2.4V18.9a4.46,4.46,0,0,1-.71,2.7,4.28,4.28,0,0,1-2.45,1.47,5.8,5.8,0,0,1,2,.95A2.82,2.82,0,0,1,43,25.35a6.6,6.6,0,0,1,.26,2v5.08a8.14,8.14,0,0,1-.57,3.49,3.42,3.42,0,0,1-2.34,1.62,22.69,22.69,0,0,1-5.56.49H26.6ZM33.82,14v7.15h.35a2.66,2.66,0,0,1,.28,0,2.39,2.39,0,0,0,1.3-.26,1.15,1.15,0,0,0,.35-.95V15.13a1.06,1.06,0,0,0-.35-.9A1.93,1.93,0,0,0,34.6,14Zm0,11.22v9.22c.22,0,.45,0,.68,0a2,2,0,0,0,1.24-.28,1.18,1.18,0,0,0,.36-.95V26.35a1.09,1.09,0,0,0-.36-.94,2.3,2.3,0,0,0-1.29-.26h-.33Z"></path></g></g></svg> 