<?xml version="1.0" encoding="UTF-8"?> <svg xmlns="http://www.w3.org/2000/svg" viewBox="0 0 290.36 58.55"><defs><style>.cls-1{fill:#7d57a4;fill-rule:evenodd;}.cls-2{fill:#010101;}</style></defs><g id="Layer_2" data-name="Layer 2"><g id="Technology_Development_Page" data-name="Technology Development Page"><path class="cls-1" d="M89.19,0H9.13A9.13,9.13,0,0,0,0,9.17V39.73A9.17,9.17,0,0,0,9.17,48.9H47.09l17.33,9.65L60.48,48.9H89.19a9.17,9.17,0,0,0,9.16-9.17V9.17A9.16,9.16,0,0,0,89.19,0ZM7.44,7.08A3.22,3.22,0,0,0,4.91,8.32,3.58,3.58,0,0,0,4.26,11Q7.83,33.64,10.9,41.54c.8,1.93,1.73,2.85,2.81,2.77,1.69-.12,3.7-2.45,6.07-7q1.88-3.87,5.79-11.59,3.27,11.4,8.89,17.13a4,4,0,0,0,3.18,1.49,2.58,2.58,0,0,0,2.13-1.45,4.77,4.77,0,0,0,.48-2.65,74.67,74.67,0,0,1,1.13-15.32c1-6.76,2.33-11.62,3.9-14.52a3.49,3.49,0,0,0,.4-1.93,3.15,3.15,0,0,0-1.25-2.29,3.5,3.5,0,0,0-2.53-.8,3.07,3.07,0,0,0-2.65,1.77Q35.5,14,33.94,29.27a74.47,74.47,0,0,1-3.82-13.75c-.44-2.37-1.53-3.5-3.3-3.38-1.21.08-2.21.89-3,2.42L15,31.32C13.55,25.49,12.18,18.38,10.94,10Q10.52,6.83,7.44,7.08ZM84.92,10a9.27,9.27,0,0,1,6.44,4.67,15.26,15.26,0,0,1,1.93,7.92,21.57,21.57,0,0,1-3.14,11.38c-2.41,4-5.55,6-9.45,6a10.59,10.59,0,0,1-2.17-.24,9.26,9.26,0,0,1-6.43-4.67,15.52,15.52,0,0,1-1.93-8A21.32,21.32,0,0,1,73.3,15.76c2.46-4,5.59-6,9.45-6A10.52,10.52,0,0,1,84.92,10ZM83.24,31.73a10.68,10.68,0,0,0,3.05-6,17.41,17.41,0,0,0,.28-3,10.26,10.26,0,0,0-.72-3.66c-.6-1.57-1.41-2.41-2.37-2.61-1.45-.29-2.86.52-4.19,2.49a13.29,13.29,0,0,0-2.13,4.78,14.1,14.1,0,0,0-.28,2.94,10.06,10.06,0,0,0,.73,3.66C78.21,32,79,32.81,80,33A3.89,3.89,0,0,0,83.24,31.73ZM66.15,14.64A9.36,9.36,0,0,0,59.71,10a10.59,10.59,0,0,0-2.17-.24c-3.86,0-7,2-9.45,6A21.32,21.32,0,0,0,45,27.1a15.52,15.52,0,0,0,1.93,8,9.24,9.24,0,0,0,6.43,4.67,10.59,10.59,0,0,0,2.17.24c3.9,0,7-2,9.45-6a21.57,21.57,0,0,0,3.14-11.38A15.26,15.26,0,0,0,66.15,14.64ZM61.08,25.77a10.63,10.63,0,0,1-3.06,6A3.86,3.86,0,0,1,54.77,33c-1-.2-1.77-1-2.38-2.61a10.26,10.26,0,0,1-.72-3.66A14.1,14.1,0,0,1,52,23.8,13.12,13.12,0,0,1,54.08,19c1.33-2,2.74-2.78,4.18-2.49,1,.2,1.77,1,2.38,2.61a10.26,10.26,0,0,1,.72,3.66A14.13,14.13,0,0,1,61.08,25.77Z"></path><path class="cls-2" d="M108.53,14.27a13.61,13.61,0,0,0-4,10.14,14.53,14.53,0,0,0,4,10.65,13.93,13.93,0,0,0,10.41,4.06,15.15,15.15,0,0,0,4.18-.64V32a13.53,13.53,0,0,1-3.66.6,6.55,6.55,0,0,1-5.1-2.13,8.42,8.42,0,0,1-1.93-5.83A8.35,8.35,0,0,1,114.28,19a6,6,0,0,1,4.78-2.21,15,15,0,0,1,4,.6V10.86a16.38,16.38,0,0,0-4.38-.53A13.7,13.7,0,0,0,108.53,14.27Zm27.9-4a10.81,10.81,0,0,0-8.68,3.7c-2.09,2.46-3.1,5.91-3.1,10.34,0,4.78,1,8.44,3.1,11s5.06,3.82,9,3.82,6.76-1.28,8.81-3.82,3.1-6.11,3.1-10.69-1-8.12-3.14-10.62S140.37,10.29,136.43,10.29Zm3.18,20.91a3.56,3.56,0,0,1-3.18,1.69,3.22,3.22,0,0,1-2.93-1.69c-.69-1.12-1-3.37-1-6.79,0-5.27,1.33-7.88,4-7.88s4.27,2.65,4.27,8C140.74,27.83,140.33,30.08,139.61,31.2Zm28.91-20.14-1.45,6.15c-.36,1.57-.72,3.18-1,4.83l-.81,4.26q-1.14-6.39-3.13-15.24h-9.33l-3.5,27.38h7l1.89-18.86,4.78,18.86h5l4.58-18.82,2,18.82h7.32l-3.7-27.38Zm33.5,0-1.45,6.15c-.36,1.57-.73,3.18-1,4.83l-.8,4.26q-1.16-6.39-3.14-15.24h-9.33l-3.49,27.38h7l1.89-18.86,4.79,18.86h5L206,19.62l2,18.82h7.31l-3.69-27.38Zm22.75,16.56h6.56V22h-6.56v-5h7.56V11.1h-15V38.48h15V32.65h-7.6Zm28.43-4.34a7.41,7.41,0,0,0-1.85-10,13.61,13.61,0,0,0-8.24-2.25h-8.6V38.44h7.39V26H242l6,12.46h7.8L249.91,26.1A7.34,7.34,0,0,0,253.2,23.28Zm-11.34-.44V16.33a6.78,6.78,0,0,1,3.78.88,3.11,3.11,0,0,1,1.13,2.73C246.77,21.83,245.12,22.8,241.86,22.84Zm16.85-8.57a13.64,13.64,0,0,0-4,10.14,14.57,14.57,0,0,0,4,10.65,14,14,0,0,0,10.42,4.06,15.26,15.26,0,0,0,4.18-.64V32a13.65,13.65,0,0,1-3.66.6,6.59,6.59,0,0,1-5.11-2.13,8.47,8.47,0,0,1-1.93-5.83A8.4,8.4,0,0,1,264.46,19a6,6,0,0,1,4.79-2.21,15.14,15.14,0,0,1,4,.6V10.86a16.49,16.49,0,0,0-4.38-.53A13.78,13.78,0,0,0,258.71,14.27Zm24,18.3v-5h6.55V21.91h-6.55v-5h7.6V11.06h-15V38.44h15V32.61h-7.64Z"></path></g></g></svg> 