<?xml version="1.0" encoding="UTF-8"?> <svg xmlns="http://www.w3.org/2000/svg" viewBox="0 0 290.36 87.5"><defs><style>.cls-1{fill:#f8991d;}.cls-2{fill:#221f1f;}</style></defs><g id="Layer_2" data-name="Layer 2"><g id="Technology_Development_Page" data-name="Technology Development Page"><path id="path8" class="cls-1" d="M180.13,68.43C163.26,80.86,138.8,87.5,117.75,87.5A112.91,112.91,0,0,1,41.53,58.42C40,57,41.37,55,43.26,56.16a153.47,153.47,0,0,0,76.25,20.22,151.57,151.57,0,0,0,58.17-11.9c2.86-1.21,5.25,1.88,2.45,4"></path><path id="path10" class="cls-1" d="M187.15,60.4c-2.15-2.75-14.26-1.3-19.7-.66-1.65.21-1.9-1.23-.41-2.27,9.64-6.79,25.47-4.83,27.31-2.55s-.48,18.15-9.54,25.72c-1.39,1.16-2.72.54-2.1-1,2-5.08,6.6-16.47,4.44-19.24"></path><path id="path12" class="cls-2" d="M167.83,9.56V3a1.63,1.63,0,0,1,1.67-1.67H199A1.65,1.65,0,0,1,200.75,3V8.61c0,1-.81,2.18-2.23,4.14l-15.3,21.86c5.68-.14,11.69.7,16.84,3.61a3,3,0,0,1,1.57,2.57v7c0,1-1.06,2.08-2.17,1.5a34.06,34.06,0,0,0-31.21.05c-1,.56-2.1-.56-2.1-1.52V41.18a8,8,0,0,1,1.09-4.54L185,11.21H169.54a1.63,1.63,0,0,1-1.71-1.65"></path><path id="path14" class="cls-2" d="M60.09,50.72h-9a1.71,1.71,0,0,1-1.61-1.53V3.07a1.69,1.69,0,0,1,1.74-1.65h8.38A1.69,1.69,0,0,1,61.24,3V9h.16C63.59,3.16,67.69.44,73.23.44S82.37,3.16,84.9,9a13.26,13.26,0,0,1,22.81-3.5C110.55,9.37,110,15,110,19.94V49.05a1.7,1.7,0,0,1-1.73,1.67h-9a1.7,1.7,0,0,1-1.61-1.67V24.61c0-1.95.17-6.8-.26-8.65-.67-3.09-2.68-4-5.28-4a6,6,0,0,0-5.37,3.78c-.92,2.33-.83,6.22-.83,8.84V49.05a1.71,1.71,0,0,1-1.74,1.67h-9a1.7,1.7,0,0,1-1.62-1.67V24.61c0-5.15.85-12.72-5.54-12.72s-6.2,7.38-6.2,12.72V49.05a1.7,1.7,0,0,1-1.73,1.67"></path><path id="path16" class="cls-2" d="M226.18.44c13.33,0,20.55,11.45,20.55,26,0,14.07-8,25.23-20.55,25.23C213.08,51.68,206,40.23,206,26S213.17.44,226.18.44m.07,9.42c-6.62,0-7,9-7,14.65s-.09,17.67,7,17.67,7.29-9.71,7.29-15.63c0-3.89-.17-8.54-1.34-12.23-1-3.21-3-4.46-5.88-4.46"></path><path id="path18" class="cls-2" d="M264,50.72h-8.95a1.7,1.7,0,0,1-1.62-1.67V2.92a1.69,1.69,0,0,1,1.73-1.5h8.33a1.69,1.69,0,0,1,1.6,1.28V9.76h.17c2.51-6.31,6-9.32,12.25-9.32A11.8,11.8,0,0,1,288,5.88c2.35,3.69,2.35,9.89,2.35,14.36v29a1.72,1.72,0,0,1-1.73,1.45h-9A1.7,1.7,0,0,1,278,49.27V24.22c0-5,.58-12.43-5.62-12.43a5.89,5.89,0,0,0-5.2,3.69,20.5,20.5,0,0,0-1.43,8.74V49.05A1.72,1.72,0,0,1,264,50.72"></path><g id="use28"><path id="path30" class="cls-2" d="M144.29,28.69v-2c-6.5,0-13.36,1.39-13.36,9.05,0,3.88,2,6.51,5.46,6.51a7.28,7.28,0,0,0,6.22-4.08c1.77-3.11,1.68-6,1.68-9.53m9.06,21.9a1.88,1.88,0,0,1-2.12.22,22.05,22.05,0,0,1-5.16-6c-4.93,5-8.42,6.53-14.81,6.53-7.56,0-13.45-4.66-13.45-14a15.27,15.27,0,0,1,9.58-14.69c4.88-2.15,11.69-2.53,16.9-3.12V18.38c0-2.14.16-4.67-1.09-6.51a6,6,0,0,0-5-2.34c-3.43,0-6.49,1.76-7.23,5.4a1.88,1.88,0,0,1-1.56,1.64l-8.72-.94a1.59,1.59,0,0,1-1.34-1.88C121.32,3.19,130.86,0,139.41,0c4.37,0,10.08,1.16,13.54,4.47,4.37,4.09,4,9.53,4,15.46v14c0,4.2,1.75,6.05,3.39,8.33a1.67,1.67,0,0,1,0,2.38c-1.83,1.53-5.09,4.38-6.89,6l0,0"></path></g><path id="path30-2" data-name="path30" class="cls-2" d="M26.48,28.69v-2c-6.5,0-13.36,1.39-13.36,9.05,0,3.88,2,6.51,5.46,6.51a7.28,7.28,0,0,0,6.22-4.08c1.77-3.11,1.68-6,1.68-9.53m9.06,21.9a1.88,1.88,0,0,1-2.12.22,22.05,22.05,0,0,1-5.16-6c-4.93,5-8.42,6.53-14.81,6.53C5.89,51.35,0,46.69,0,37.35A15.29,15.29,0,0,1,9.58,22.66c4.88-2.15,11.69-2.53,16.9-3.12V18.38c0-2.14.16-4.67-1.09-6.51a6,6,0,0,0-5-2.34c-3.43,0-6.48,1.76-7.23,5.4a1.88,1.88,0,0,1-1.56,1.64l-8.72-.94A1.59,1.59,0,0,1,1.5,13.75C3.51,3.19,13.06,0,21.6,0,26,0,31.69,1.16,35.14,4.47c4.37,4.09,4,9.53,4,15.46v14c0,4.2,1.75,6.05,3.39,8.33a1.67,1.67,0,0,1,0,2.38c-1.83,1.53-5.09,4.38-6.88,6l0,0"></path></g></g></svg> 